#N canvas 22 65 1170 631 10;
#X obj 0 0 cnv 15 84 60 cntrls-send cntrls-recv empty 20 12 0 14 -195568
-66577 0;
#X obj 57 18 bng 12 250 50 0 empty empty empty 17 7 0 10 -262144 -1
-1;
#X obj 57 34 bng 23 250 50 0 previewplay-send previewplay-recv empty
17 7 0 10 -262144 -1 -1;
#X obj 2 6 vsl 15 46 0 0.9 0 0 \$1-vol-send \$1-vol-recv Seq:1 17 40
0 10 -262144 -1 -1 2500 1;
#X obj 28 5 tgl 10 0 \$0-trkmute-send \$0-trkmute-recv M -8 5 0 10
-99865 -1 -1 0 1;
#X obj 49 5 tgl 10 0 \$0-trksolo-send \$0-trksolo-recv S -8 5 0 10
-99865 -1 -1 0 1;
#N canvas 0 50 495 319 (subpatch) 0;
#X array Preview 8617 float 2;
#X coords 0 1 8617 -1 35 25 2 0 0;
#X restore 783 73 graph;
#X obj 589 280 s \$1-vol-recv;
#X obj 354 47 f \$0;
#X floatatom 354 70 5 0 0 0 - - -;
#X floatatom 585 235 5 0 0 0 - - -;
#X text 279 71 Unique ID;
#X text 141 170 Creation Argument ID;
#X obj 269 0 loadbang;
#X msg 13 -27 0;
#X msg 46 261 play;
#X msg 80 262 volume \$1;
#X obj 270 368 s;
#X obj 270 144 \$1;
#X msg 143 263 get volume;
#X obj 324 277 t b;
#N canvas 832 195 378 309 GetMixerTrackIndex 0;
#X obj 50 29 inlet;
#X obj 51 187 outlet;
#X obj 50 119 +;
#X obj 112 29 r bank;
#X obj 161 29 r perbank;
#X obj 112 63 *;
#X obj 109 81 t b f;
#X floatatom 50 87 5 0 0 0 - - -;
#X obj 50 54 t f;
#X obj 103 174 outlet;
#X obj 155 174 outlet;
#X obj 213 175 outlet;
#X obj 261 177 outlet;
#X obj 51 140 t b b f f f, f 35;
#X connect 0 0 8 0;
#X connect 2 0 13 0;
#X connect 3 0 5 0;
#X connect 4 0 5 1;
#X connect 5 0 6 0;
#X connect 6 0 2 0;
#X connect 6 1 2 1;
#X connect 7 0 2 0;
#X connect 8 0 7 0;
#X connect 13 0 1 0;
#X connect 13 1 9 0;
#X connect 13 2 10 0;
#X connect 13 3 11 0;
#X connect 13 4 12 0;
#X restore 268 207 pd GetMixerTrackIndex \$1;
#X f 69;
#N canvas 0 50 450 300 OBAssignSampleIndex 1;
#X obj 44 214 s arg1-recv;
#X obj 38 42 t b;
#X floatatom 60 235 5 0 0 0 - - -;
#X text 30 249 index after loaded;
#X obj 30 19 inlet;
#X obj 97 20 inlet;
#X msg 36 71 0;
#X obj 38 98 t f;
#X obj 40 120 pack f f;
#X obj 39 141 unpack f f;
#X connect 1 0 6 0;
#X connect 4 0 1 0;
#X connect 5 0 8 1;
#X connect 6 0 7 0;
#X connect 7 0 8 0;
#X connect 8 0 9 0;
#X connect 9 1 0 0;
#X connect 9 1 2 0;
#X restore 324 298 pd OBAssignSampleIndex;
#X f 40;
#X msg 270 169 \$1;
#X obj 51 -51 r stepvol1;
#X floatatom 51 -26 5 0 0 0 - - -;
#X obj 190 -44 r padnum;
#X obj 190 -21 t f;
#X msg 636 302 symbol MultiSamplePlayer-\$1;
#X obj 565 105 soundfiler;
#X floatatom 565 129 20 0 0 0 - - -;
#X obj 565 171 s previewSize;
#X msg 565 67 read -resize \$1 Preview;
#X obj 565 -36 r playedpreview;
#X obj 565 40 t s;
#X symbolatom 565 12 80 0 0 0 - - -;
#X obj 565 -10 t s;
#N canvas 316 95 450 300 SetPanValue 0;
#X obj 4 1 hsl 23 10 0 1 0 0 \$1-pan-send \$1-pan-recv Pan 1 5 0 10
-99865 -1 -1 1100 1;
#X msg 36 55 0.5;
#X obj 30 108 s arg4-recv;
#X obj 38 17 inlet;
#X connect 0 0 2 0;
#X connect 1 0 0 0;
#X connect 3 0 1 0;
#X coords 0 -1 1 1 30 12 2 0 0;
#X restore 22 21 pd SetPanValue;
#N canvas -4 -4 1280 718 SetVolumeValue 0;
#X obj 84 56 inlet;
#X obj 85 119 s arg5-recv;
#X floatatom 85 89 5 0 0 0 - - -;
#X text 127 87 Track Volume;
#X connect 0 0 2 0;
#X connect 2 0 1 0;
#X restore 2 167 pd SetVolumeValue;
#N canvas 0 50 450 300 MuteOrSoloThisTrk 0;
#N canvas 567 70 736 699 MuteSolo-colorchangetoggle 0;
#X obj 60 62 t f b;
#X obj 24 122 change;
#X obj 24 169 sel 1;
#X obj 24 147 == 0;
#X obj 196 120 change;
#X obj 196 167 sel 1;
#X obj 196 145 == 0;
#X obj 196 97 > 0;
#X obj 24 99 <= 0;
#X obj 534 49 t f b;
#X obj 379 110 change;
#X obj 379 157 sel 1;
#X obj 379 135 == 0;
#X obj 550 105 change;
#X obj 550 152 sel 1;
#X obj 550 130 == 0;
#X obj 550 82 > 0;
#X obj 379 87 <= 0;
#X obj 60 26 inlet;
#X obj 527 17 inlet;
#X obj 115 275 loadbang;
#X msg 144 330 0;
#X obj 24 199 \$0;
#X obj 196 197 \$0;
#X obj 381 191 \$0;
#X obj 552 186 \$0;
#X msg 24 229 \; \$1-trkmute-recv color 15;
#X msg 196 230 \; \$1-trkmute-recv color 21;
#X msg 379 224 \; \$1-trksolo-recv color 16;
#X msg 553 220 \; \$1-trksolo-recv color 21;
#X connect 0 0 7 0;
#X connect 0 0 8 0;
#X connect 1 0 3 0;
#X connect 2 0 22 0;
#X connect 3 0 2 0;
#X connect 4 0 6 0;
#X connect 5 0 23 0;
#X connect 6 0 5 0;
#X connect 7 0 4 0;
#X connect 8 0 1 0;
#X connect 9 0 16 0;
#X connect 9 0 17 0;
#X connect 10 0 12 0;
#X connect 11 0 24 0;
#X connect 12 0 11 0;
#X connect 13 0 15 0;
#X connect 14 0 25 0;
#X connect 15 0 14 0;
#X connect 16 0 13 0;
#X connect 17 0 10 0;
#X connect 18 0 0 0;
#X connect 19 0 9 0;
#X connect 20 0 21 0;
#X connect 21 0 0 0;
#X connect 21 0 9 0;
#X connect 22 0 26 0;
#X connect 23 0 27 0;
#X connect 24 0 28 0;
#X connect 25 0 29 0;
#X restore 95 163 pd MuteSolo-colorchangetoggle;
#X text 133 120 mute;
#X obj 293 143 s arg2-recv;
#X obj 122 139 s arg3-recv;
#X obj 95 105 t f f;
#X obj 266 108 t f f;
#X text 303 126 solo;
#X obj 116 48 inlet;
#X obj 278 52 inlet;
#X connect 4 0 0 0;
#X connect 4 1 3 0;
#X connect 5 0 0 1;
#X connect 5 1 2 0;
#X connect 7 0 4 0;
#X connect 8 0 5 0;
#X restore 28 140 pd MuteOrSoloThisTrk;
#N canvas 172 151 939 492 LoadSampleToTrk 0;
#X obj 206 69 openpanel;
#X msg 303 156 tabload symbol \$1;
#X obj 206 253 s arg6-recv;
#X symbolatom 206 207 80 0 0 0 - - -;
#X msg 206 95 symbol \$1;
#X obj 303 129 symbol;
#X symbolatom 335 83 80 0 0 0 - - -;
#X obj 335 103 t s;
#X msg 335 64 symbol projects/datafiles-donotdeleteoredit/defaultblanksample.wav
, f 70;
#X msg 297 107 bang;
#X obj 169 136 s loadbtnstatus;
#X msg 168 118 1;
#X obj 206 46 t b b;
#X obj 206 20 inlet;
#X obj 316 21 inlet;
#X obj 234 304 outlet;
#X obj 303 182 outlet;
#X obj 125 20 loadbang;
#X obj 127 46 \$1;
#X obj 181 277 s wavename-\$1;
#X obj 316 42 t b b;
#X connect 0 0 4 0;
#X connect 0 0 11 0;
#X connect 0 0 1 0;
#X connect 1 0 16 0;
#X connect 3 0 2 0;
#X connect 3 0 19 0;
#X connect 4 0 3 0;
#X connect 5 0 1 0;
#X connect 6 0 7 0;
#X connect 7 0 5 1;
#X connect 8 0 6 0;
#X connect 8 0 3 0;
#X connect 9 0 5 0;
#X connect 11 0 10 0;
#X connect 12 0 0 0;
#X connect 12 1 15 0;
#X connect 13 0 12 0;
#X connect 14 0 20 0;
#X connect 17 0 18 0;
#X connect 17 0 8 0;
#X connect 20 0 8 0;
#X connect 20 1 9 0;
#X restore 324 254 pd LoadSampleToTrk;
#X obj 415 177 t b;
#X text 423 13 Played Sound File Path;
#X obj 565 150 t f;
#X msg 589 257 label Seq:\$1;
#X floatatom 190 8 5 0 0 0 - - -;
#X obj 105 -29 r loadedvol;
#X obj 68 18 bng 12 250 50 0 empty empty empty 17 7 0 10 -262144 -1
-1;
#X obj 56 18 cnv 12 24 12 empty empty Load 2 7 0 8 -99865 -262144 0
;
#X obj 55 32 cnv 25 25 25 empty empty empty 20 12 0 14 -99865 -66577
0;
#X obj 57 34 cnv 21 21 21 empty empty empty 20 12 0 14 -162280 -66577
0;
#X obj 59 38 cnv 3 17 3 empty empty empty 20 12 0 14 -99865 -66577
0;
#X obj 59 43 cnv 3 17 3 empty empty empty 20 12 0 14 -99865 -66577
0;
#X obj 59 48 cnv 3 17 3 empty empty empty 20 12 0 14 -99865 -66577
0;
#X obj 190 32 t b f;
#X msg 216 262 get fdir;
#X connect 1 0 40 0;
#X connect 2 0 15 0;
#X connect 3 0 16 0;
#X connect 3 0 38 0;
#X connect 4 0 39 0;
#X connect 5 0 39 1;
#X connect 8 0 9 0;
#X connect 10 0 44 0;
#X connect 13 0 8 0;
#X connect 13 0 14 0;
#X connect 13 0 18 0;
#X connect 13 0 37 0;
#X connect 13 0 41 0;
#X connect 14 0 3 0;
#X connect 15 0 17 0;
#X connect 16 0 17 0;
#X connect 18 0 23 0;
#X connect 19 0 17 0;
#X connect 20 0 22 0;
#X connect 21 0 19 0;
#X connect 21 1 55 0;
#X connect 21 2 22 1;
#X connect 21 3 10 0;
#X connect 21 4 28 0;
#X connect 23 0 21 0;
#X connect 24 0 25 0;
#X connect 25 0 3 0;
#X connect 26 0 27 0;
#X connect 27 0 45 0;
#X connect 28 0 17 1;
#X connect 29 0 30 0;
#X connect 30 0 43 0;
#X connect 34 0 32 0;
#X connect 35 0 34 0;
#X connect 36 0 35 0;
#X connect 40 0 20 0;
#X connect 40 1 17 0;
#X connect 41 0 40 1;
#X connect 43 0 31 0;
#X connect 44 0 7 0;
#X connect 45 0 54 0;
#X connect 46 0 3 0;
#X connect 47 0 40 0;
#X connect 54 1 18 0;
#X connect 55 0 17 0;
#X coords 0 -1 1 1 84 60 2 0 0;
