#N canvas -4 -4 1280 718 10;
#X obj 100 100 cnv 15 293 25 empty patchbg-recv empty 20 12 0 14 -195568
-66577 0;
#X obj 134 115 hsl 80 10 0 42 0 0 plcolor-send plcolor-recv Default_Color
3 5 0 8 -166441 -1 -1 188 1;
#X obj 223 103 hsl 80 10 0 42 0 0 aplcolor-send aplcolor-recv Active_Color
3 5 0 8 -44926 -1 -1 3198 1;
#X obj 130 102 cnv 10 25 10 colorschlbl-send colorschlbl-recv Color_Scheme
3 7 0 8 -195568 -1 0;
#X obj 223 115 hsl 80 10 0 40 0 0 playingcolor-send playingcolor-recv
Playlist_Color 3 5 0 8 -355 -1 -1 5530 1;
#X obj 311 103 hsl 80 10 0 42 0 0 bordercolor-send bordercolor-recv
Border_Color 3 5 0 8 -66577 -1 -1 376 1;
#X obj 311 115 hsl 80 10 0 40 0 0 bgcolor-send bgcolor-recv BG_Color
3 5 0 8 -195568 -1 -1 3950 1;
#X obj 102 102 bng 12 250 50 0 empty empty empty 17 7 0 10 -262144
-1 -1;
#X obj 115 102 bng 12 250 50 0 empty empty empty 17 7 0 10 -262144
-1 -1;
#X obj 101 102 cnv 12 28 12 empty empty Reset 2 7 0 8 -99865 -262144
0;
#N canvas -4 -4 1280 718 ColorChangesToUI 1;
#X floatatom 15 49 5 0 0 0 - - -;
#X obj 16 91 t f;
#X obj 16 70 int;
#X obj 14 24 r playingcolor-send;
#X msg 16 114 \; playingcolor-recv color \$1 \;;
#X floatatom 218 44 5 0 0 0 - - -;
#X obj 219 65 int;
#X msg 219 114 \; aplcolor-recv color \$1 \;;
#X obj 217 19 r aplcolor-send;
#X floatatom 395 42 5 0 0 0 - - -;
#X obj 396 63 int;
#X obj 394 17 r plcolor-send;
#X msg 396 111 \; plcolor-recv color \$1 \;;
#X msg 392 612 \; pattselradio-recv color \$1 \;;
#X msg 409 580 \; seqselradio-recv color \$1 \;;
#X msg 367 674 \; patttab-recv color \$1 \;;
#X msg 381 643 \; seqtab-recv color \$1 \;;
#X obj 450 232 pack f f;
#X msg 450 209 0;
#X obj 423 143 t f b;
#X obj 450 189 t b;
#X msg 423 547 \; samplerpanel-recv color \$1 \;;
#X msg 437 514 \; master-recv color \$1 \;;
#X obj 396 85 t f f;
#X msg 451 483 \; startlbl-recv color \$1 \;;
#X msg 466 449 \; endlbl-recv color \$1 \;;
#X floatatom 736 41 5 0 0 0 - - -;
#X obj 737 62 int;
#X obj 737 84 t f f;
#X floatatom 1175 41 5 0 0 0 - - -;
#X obj 1176 62 int;
#X obj 1176 84 t f f;
#X msg 1179 109 \; bordercolor-recv color \$1 \;;
#X msg 737 106 \; bgcolor-recv color \$1 \;;
#X obj 735 16 r bgcolor-send;
#X obj 1173 16 r bordercolor-send;
#X obj 794 226 pack f f;
#X msg 794 203 0;
#X obj 767 137 t f b;
#X obj 794 183 t b;
#X msg 650 713 \; patchbg-recv color \$1 \;;
#X msg 634 777 \; colorschlbl-recv color \$1 \;;
#X msg 646 746 \; pagelbl-recv color \$1 \;;
#X msg 664 681 \; display_pg-recv color \$1 \;;
#X msg 678 651 \; songlbl-recv color \$1 \;;
#X msg 694 619 \; seqbuilderbg-recv color \$1 \;;
#X msg 709 586 \; patsellbl-recv color \$1 \;;
#X msg 721 552 \; playlistbg-recv color \$1 \;;
#X msg 733 519 \; efflbl-recv color \$1 \;;
#X msg 748 488 \; seqsellbl-recv color \$1 \;;
#X msg 895 703 \; looplbl-recv color \$1 \;;
#X msg 911 665 \; cntrls-recv color \$1 \;;
#X msg 934 631 \; display_songlength-recv color \$1 \;;
#X obj 1229 254 pack f f;
#X msg 1229 212 0;
#X obj 1202 146 t f b;
#X obj 1229 192 t b;
#X msg 1287 447 \; samplerbg-recv color \$1 \;;
#X msg 1304 412 \; seqborder-recv color \$1 \;;
#X msg 1321 378 \; pattborder-recv color \$1 \;;
#X msg 956 595 \; Orlbl-recv color \$1 \;;
#X msg 979 557 \; presetvelbg-recv color \$1 \;;
#X msg 1000 527 \; stepcanvas-recv color \$1 \;;
#X msg 1019 491 \; seqcanvas-recv color \$1 \;;
#X msg 1042 458 \; seqsel-recv color \$1 \;;
#X msg 1064 421 \; patsel-recv color \$1 \;;
#X obj 794 158 delay 1000;
#X obj 450 164 delay 1000;
#X obj 1229 167 delay 1000;
#X obj 450 254 unpack f f;
#X obj 794 247 unpack f f;
#X obj 1233 283 unpack f f;
#X obj 219 89 t f f;
#X obj 101 281 outlet;
#X obj 157 281 outlet;
#X obj 213 281 outlet;
#X obj 326 281 outlet;
#X obj 269 281 outlet;
#X msg 157 241 17;
#X obj 101 261 t f;
#X obj 157 261 t f;
#X obj 213 261 t f;
#X msg 213 241 28;
#X msg 101 241 1;
#X obj 326 261 t f;
#X msg 326 241 20;
#X obj 269 261 t f;
#X msg 269 241 2;
#X obj 101 197 inlet;
#X text 21 198 Reset Colors;
#X obj 101 219 t b b b b b, f 38;
#X obj 1287 316 t f f f f;
#X msg 1338 341 \; filenamedisplay_recv color \$1 \;;
#X msg 1078 372 \; midicntrlsbg-recv color \$1 \;;
#X obj 851 267 t f f f f f f f f f f f f f f f f f f f f;
#X msg 488 418 \; bpminput-recv color \$1 \;;
#X msg 519 388 \; swing-recv color \$1 \;;
#X msg 577 355 \; humanize-recv color \$1 \;;
#X msg 610 319 \; mistake-recv color \$1 \;;
#X obj 471 277 t f f f f f f f f f f f f;
#X connect 0 0 2 0;
#X connect 1 0 4 0;
#X connect 2 0 1 0;
#X connect 3 0 0 0;
#X connect 5 0 6 0;
#X connect 6 0 72 0;
#X connect 8 0 5 0;
#X connect 9 0 10 0;
#X connect 10 0 23 0;
#X connect 11 0 9 0;
#X connect 17 0 69 0;
#X connect 18 0 17 0;
#X connect 19 0 17 1;
#X connect 19 1 67 0;
#X connect 20 0 18 0;
#X connect 23 0 12 0;
#X connect 23 1 19 0;
#X connect 26 0 27 0;
#X connect 27 0 28 0;
#X connect 28 0 33 0;
#X connect 28 1 38 0;
#X connect 29 0 30 0;
#X connect 30 0 31 0;
#X connect 31 0 32 0;
#X connect 31 1 55 0;
#X connect 34 0 26 0;
#X connect 35 0 29 0;
#X connect 36 0 70 0;
#X connect 37 0 36 0;
#X connect 38 0 36 1;
#X connect 38 1 66 0;
#X connect 39 0 37 0;
#X connect 53 0 71 0;
#X connect 54 0 53 0;
#X connect 55 0 53 1;
#X connect 55 1 68 0;
#X connect 56 0 54 0;
#X connect 66 0 39 0;
#X connect 67 0 20 0;
#X connect 68 0 56 0;
#X connect 69 1 99 0;
#X connect 70 1 94 0;
#X connect 71 1 91 0;
#X connect 72 0 7 0;
#X connect 78 0 80 0;
#X connect 79 0 73 0;
#X connect 80 0 74 0;
#X connect 81 0 75 0;
#X connect 82 0 81 0;
#X connect 83 0 79 0;
#X connect 84 0 76 0;
#X connect 85 0 84 0;
#X connect 86 0 77 0;
#X connect 87 0 86 0;
#X connect 88 0 90 0;
#X connect 90 0 83 0;
#X connect 90 1 78 0;
#X connect 90 2 82 0;
#X connect 90 3 87 0;
#X connect 90 4 85 0;
#X connect 91 0 57 0;
#X connect 91 1 58 0;
#X connect 91 2 59 0;
#X connect 91 3 92 0;
#X connect 94 0 40 0;
#X connect 94 1 41 0;
#X connect 94 2 42 0;
#X connect 94 3 43 0;
#X connect 94 4 44 0;
#X connect 94 5 45 0;
#X connect 94 6 46 0;
#X connect 94 7 47 0;
#X connect 94 8 48 0;
#X connect 94 9 49 0;
#X connect 94 10 50 0;
#X connect 94 11 51 0;
#X connect 94 12 52 0;
#X connect 94 13 60 0;
#X connect 94 14 61 0;
#X connect 94 15 62 0;
#X connect 94 16 63 0;
#X connect 94 17 64 0;
#X connect 94 18 65 0;
#X connect 94 19 93 0;
#X connect 99 0 15 0;
#X connect 99 1 16 0;
#X connect 99 3 14 0;
#X connect 99 4 21 0;
#X connect 99 5 22 0;
#X connect 99 6 24 0;
#X connect 99 7 25 0;
#X connect 99 8 95 0;
#X connect 99 9 96 0;
#X connect 99 10 97 0;
#X connect 99 11 98 0;
#X restore 175 59 pd ColorChangesToUI;
#X connect 7 0 10 0;
#X connect 8 0 10 0;
#X connect 10 0 1 0;
#X connect 10 1 2 0;
#X connect 10 2 4 0;
#X connect 10 3 5 0;
#X connect 10 4 6 0;
#X coords 0 -1 1 1 293 25 2 100 100;
