#N struct 1008-bang float c float bc symbol text;
#N canvas 620 219 605 483 10;
#X obj 447 115 outlet;
#N canvas 0 85 450 300 \$0-display 0;
#X scalar 1008-bang 777 777 Button_Text \;;
#X coords 0 0 1 1 200 140 2 0 0;
#X restore 30 30 pd \$0-display;
#X obj 88 194 bng 15 250 50 1 empty empty empty 17 7 0 10 -262144 -1
-1;
#N canvas 333 405 348 286 \$0-bang 1;
#X obj 44 109 unpack s p f;
#X obj 44 224 outlet;
#X obj 44 132 sel click;
#X obj 92 224 set \$0-bang c;
#X obj 44 155 t b b b;
#X obj 92 178 del 250;
#X msg 92 201 777;
#X obj 44 86 struct \$0-bang float c float bc symbol text;
#X obj 44 63 filledpolygon c bc 0 0 0 0 1 1 1 1 0;
#X obj 44 40 drawtext text 0.1 0.2;
#X msg 122 201 900;
#X connect 0 0 2 0;
#X connect 0 1 3 1;
#X connect 2 0 4 0;
#X connect 4 0 1 0;
#X connect 4 1 5 0;
#X connect 4 2 10 0;
#X connect 5 0 6 0;
#X connect 6 0 3 0;
#X connect 7 0 0 0;
#X connect 10 0 3 0;
#X restore 447 93 pd \$0-bang;
#X obj 494 118 bng 15 250 50 1 empty empty empty 17 7 0 10 -262144
-1 -1;
#X obj 30 191 loadbang;
#X obj 141 260 s pd-\$0-display;
#X obj 141 283 symbol pd-\$0-display;
#X msg 141 306 traverse \$1 \, bang;
#X obj 141 329 pointer;
#X msg 141 237 clear;
#X obj 30 352 append \$0-bang c bc;
#X obj 30 375 t b p, f 10;
#X msg 30 329 777 777;
#X obj 30 421 set -symbol \$0-bang text;
#X obj 30 214 t b b b;
#X obj 447 70 namecanvas \$0-this;
#X floatatom 328 284 5 0 0 0 - - -;
#X obj 328 329 pack;
#X obj 328 421 s \$0-this;
#X obj 393 421 s pd-\$0-display;
#X floatatom 368 284 5 0 0 0 - - -;
#X obj 368 306 t b f;
#X obj 328 352 t l l;
#X msg 328 398 coords 0 \$2 \$1 0 \$1 \$2 2 30 30;
#X obj 333 183 loadbang;
#X msg 393 375 coords 0 0 1 1 \$1 \$2 3 0 0;
#X text 288 213 width;
#X text 369 214 height;
#X obj 495 159 \$1;
#X text 492 138 button id;
#X obj 301 240 \$2;
#X obj 382 238 \$3;
#X floatatom 495 190 5 0 0 0 - - -;
#X obj 527 126 print \$0-bang;
#X msg 30 398 symbol Button_Text;
#X connect 2 0 15 0;
#X connect 3 0 0 0;
#X connect 3 0 4 0;
#X connect 4 0 34 0;
#X connect 5 0 15 0;
#X connect 7 0 8 0;
#X connect 8 0 9 0;
#X connect 9 0 11 2;
#X connect 10 0 6 0;
#X connect 11 0 12 0;
#X connect 12 0 35 0;
#X connect 12 1 14 1;
#X connect 13 0 11 0;
#X connect 15 0 13 0;
#X connect 15 1 7 0;
#X connect 15 2 10 0;
#X connect 17 0 18 0;
#X connect 18 0 23 0;
#X connect 21 0 22 0;
#X connect 22 0 18 0;
#X connect 22 1 18 1;
#X connect 23 0 24 0;
#X connect 23 1 26 0;
#X connect 24 0 19 0;
#X connect 25 0 31 0;
#X connect 25 0 32 0;
#X connect 25 0 29 0;
#X connect 26 0 20 0;
#X connect 29 0 33 0;
#X connect 31 0 17 0;
#X connect 32 0 21 0;
#X connect 35 0 14 0;
#X coords 0 0 0 0 200 140 2 30 30;
