#N canvas 623 26 1117 905 10;
#X obj 2 1 bng 15 250 50 0 \$1-EzBtn-send \$1-EzBtn-recv empty 3 3
0 10 -262144 -1 -1;
#X obj 366 32 loadbang;
#X floatatom 169 103 5 0 0 0 - - -;
#X floatatom 225 100 5 0 0 0 - - -;
#X text 162 45 width;
#X text 207 43 height;
#X obj 0 35 print bangbtn-\$0;
#X obj 776 510 s \$1-EzBtntxt-recv;
#X floatatom 277 101 5 0 0 0 - - -;
#X obj 335 492 pack f f f f, f 23;
#X obj 334 443 t b f;
#X obj 391 450 t b f;
#X obj 443 455 t b f;
#X text 257 43 button id;
#X obj 867 304 t b f;
#X obj 926 303 t b f;
#X obj 867 341 pack f f f f, f 22;
#X text 894 372 Adjust Font Size;
#X obj 972 301 t b f;
#X msg 868 391 \; \$4-EzBtntxt-recv label_font \$2 \$3;
#X obj 928 257 - 4;
#X msg -60 714 \; \$4-EzBtntxt-recv label_pos \$2 \$3;
#X floatatom -60 590 5 0 0 0 - - -;
#X obj -59 622 t b f;
#X obj 0 621 t b f;
#X obj -59 659 pack f f f f, f 22;
#X obj 46 619 t b f;
#X floatatom -1 555 5 0 0 0 - - -;
#X obj -1 577 * 2;
#X obj 15 533 / 4, f 4;
#X obj -57 557 / 8, f 4;
#X obj -106 381 vsl 15 128 0 1920 0 0 empty empty empty 0 -9 0 10 -262144
-1 -1 0 1;
#X text -64 351 zero real start position;
#X floatatom -97 552 5 0 0 0 - - -;
#X text -83 417 slider to be used if adjustment is needed. If positioning
is needed change the 0 value of this message box to the value of the
slider outlet maually. To save the real start position change the message
not the number atom;
#X obj 21 1 bng 15 250 50 0 empty empty empty 17 7 0 10 -262144 -1
-1;
#X obj 36 1 bng 15 250 50 0 empty empty empty 17 7 0 10 -262144 -1
-1;
#X obj 52 1 bng 15 250 50 0 empty empty empty 17 7 0 10 -262144 -1
-1;
#X obj 68 1 bng 15 250 50 0 empty empty empty 17 7 0 10 -262144 -1
-1;
#X obj 84 1 bng 15 250 50 0 empty empty empty 17 7 0 10 -262144 -1
-1;
#X obj 100 1 bng 15 250 50 0 empty empty empty 17 7 0 10 -262144 -1
-1;
#X obj 116 1 bng 15 250 50 0 empty empty empty 17 7 0 10 -262144 -1
-1;
#X obj 132 1 bng 15 250 50 0 empty empty empty 17 7 0 10 -262144 -1
-1;
#X obj 148 1 bng 15 250 50 0 empty empty empty 17 7 0 10 -262144 -1
-1;
#X obj 164 1 bng 15 250 50 0 empty empty empty 17 7 0 10 -262144 -1
-1;
#X obj 180 1 bng 15 250 50 0 empty empty empty 17 7 0 10 -262144 -1
-1;
#X obj 196 1 bng 15 250 50 0 empty empty empty 17 7 0 10 -262144 -1
-1;
#X obj 212 1 bng 15 250 50 0 empty empty empty 17 7 0 10 -262144 -1
-1;
#X obj 228 1 bng 15 250 50 0 empty empty empty 17 7 0 10 -262144 -1
-1;
#X obj 244 1 bng 15 250 50 0 empty empty empty 17 7 0 10 -262144 -1
-1;
#X obj 260 1 bng 15 250 50 0 empty empty empty 17 7 0 10 -262144 -1
-1;
#X obj 276 1 bng 15 250 50 0 empty empty empty 17 7 0 10 -262144 -1
-1;
#X obj 292 1 bng 15 250 50 0 empty empty empty 17 7 0 10 -262144 -1
-1;
#X obj 308 1 bng 15 250 50 0 empty empty empty 17 7 0 10 -262144 -1
-1;
#X obj 324 1 bng 15 250 50 0 empty empty empty 17 7 0 10 -262144 -1
-1;
#X obj 340 1 bng 15 250 50 0 empty empty empty 17 7 0 10 -262144 -1
-1;
#X obj 356 1 bng 15 250 50 0 empty empty empty 17 7 0 10 -262144 -1
-1;
#X obj 372 1 bng 15 250 50 0 empty empty empty 17 7 0 10 -262144 -1
-1;
#X obj 388 1 bng 15 250 50 0 empty empty empty 17 7 0 10 -262144 -1
-1;
#X obj 404 1 bng 15 250 50 0 empty empty empty 17 7 0 10 -262144 -1
-1;
#X obj 420 1 bng 15 250 50 0 empty empty empty 17 7 0 10 -262144 -1
-1;
#X obj 436 1 bng 15 250 50 0 empty empty empty 17 7 0 10 -262144 -1
-1;
#X obj 452 1 bng 15 250 50 0 empty empty empty 17 7 0 10 -262144 -1
-1;
#X obj 468 1 bng 15 250 50 0 empty empty empty 17 7 0 10 -262144 -1
-1;
#X obj 484 1 bng 15 250 50 0 empty empty empty 17 7 0 10 -262144 -1
-1;
#X obj 500 1 bng 15 250 50 0 empty empty empty 17 7 0 10 -262144 -1
-1;
#X obj 516 1 bng 15 250 50 0 empty empty empty 17 7 0 10 -262144 -1
-1;
#X obj 532 1 bng 15 250 50 0 empty empty empty 17 7 0 10 -262144 -1
-1;
#X obj 548 1 bng 15 250 50 0 empty empty empty 17 7 0 10 -262144 -1
-1;
#X obj 564 1 bng 15 250 50 0 empty empty empty 17 7 0 10 -262144 -1
-1;
#X obj 580 1 bng 15 250 50 0 empty empty empty 17 7 0 10 -262144 -1
-1;
#X obj 596 1 bng 15 250 50 0 empty empty empty 17 7 0 10 -262144 -1
-1;
#X obj 612 1 bng 15 250 50 0 empty empty empty 17 7 0 10 -262144 -1
-1;
#X obj 628 1 bng 15 250 50 0 empty empty empty 17 7 0 10 -262144 -1
-1;
#X obj 644 1 bng 15 250 50 0 empty empty empty 17 7 0 10 -262144 -1
-1;
#X obj 656 1 bng 15 250 50 0 empty empty empty 17 7 0 10 -262144 -1
-1;
#X obj 672 1 bng 15 250 50 0 empty empty empty 17 7 0 10 -262144 -1
-1;
#X obj 688 1 bng 15 250 50 0 empty empty empty 17 7 0 10 -262144 -1
-1;
#X obj 704 1 bng 15 250 50 0 empty empty empty 17 7 0 10 -262144 -1
-1;
#X obj 720 1 bng 15 250 50 0 empty empty empty 17 7 0 10 -262144 -1
-1;
#X obj 736 1 bng 15 250 50 0 empty empty empty 17 7 0 10 -262144 -1
-1;
#X obj 752 1 bng 15 250 50 0 empty empty empty 17 7 0 10 -262144 -1
-1;
#X obj 768 1 bng 15 250 50 0 empty empty empty 17 7 0 10 -262144 -1
-1;
#X obj 784 1 bng 15 250 50 0 empty empty empty 17 7 0 10 -262144 -1
-1;
#X obj 800 1 bng 15 250 50 0 empty empty empty 17 7 0 10 -262144 -1
-1;
#X obj 816 1 bng 15 250 50 0 empty empty empty 17 7 0 10 -262144 -1
-1;
#X obj 832 1 bng 15 250 50 0 empty empty empty 17 7 0 10 -262144 -1
-1;
#X obj 848 1 bng 15 250 50 0 empty empty empty 17 7 0 10 -262144 -1
-1;
#X obj 864 1 bng 15 250 50 0 empty empty empty 17 7 0 10 -262144 -1
-1;
#X obj 880 1 bng 15 250 50 0 empty empty empty 17 7 0 10 -262144 -1
-1;
#X obj 896 1 bng 15 250 50 0 empty empty empty 17 7 0 10 -262144 -1
-1;
#X obj 912 1 bng 15 250 50 0 empty empty empty 17 7 0 10 -262144 -1
-1;
#X obj 928 1 bng 15 250 50 0 empty empty empty 17 7 0 10 -262144 -1
-1;
#X obj 944 1 bng 15 250 50 0 empty empty empty 17 7 0 10 -262144 -1
-1;
#X obj 960 1 bng 15 250 50 0 empty empty empty 17 7 0 10 -262144 -1
-1;
#X obj 976 1 bng 15 250 50 0 empty empty empty 17 7 0 10 -262144 -1
-1;
#X obj 992 1 bng 15 250 50 0 empty empty empty 17 7 0 10 -262144 -1
-1;
#X obj 1008 1 bng 15 250 50 0 empty empty empty 17 7 0 10 -262144 -1
-1;
#X obj 1024 1 bng 15 250 50 0 empty empty empty 17 7 0 10 -262144 -1
-1;
#X floatatom -106 354 5 0 0 0 - - -;
#X text 350 530 Set size of the button;
#X text -45 698 Adjust the Text position;
#X text 825 433 Set the text of the button;
#X obj 0 0 cnv 15 130 17 \$1-EzBtntxt-send \$1-EzBtntxt-recv Save_Preset
20 8 0 13 -233017 -33289 0;
#X obj -140 40 outlet;
#X obj 449 37 inlet;
#X obj 769 443 pack s s;
#X msg 773 481 label \$1;
#X obj 772 405 t a a;
#X obj 575 483 pack;
#X obj 575 575 s \$0-this;
#X obj 575 443 t b f;
#X obj 575 506 t l l;
#X obj -142 0 namecanvas \$0-this;
#X msg 575 552 coords 0 \$2 \$1 0 \$1 \$2 2 0 0;
#X obj 797 43 inlet;
#X obj 712 25 inlet;
#X obj 918 53 inlet;
#X obj 877 107 t b f;
#X obj 936 106 t b f;
#X obj 877 144 pack f f f f, f 22;
#X obj 982 104 t b f;
#X msg 876 199 \; \$4-EzBtntxt-recv color \$2 \$3;
#X obj 968 50 inlet;
#X text 891 183 Adjust Color Of Button;
#X obj 1034 53 inlet;
#X obj 162 78 \$1;
#X obj 226 73 \$2;
#X msg 336 548 \; \$4-EzBtntxt-recv vis_size \$2 \$3;
#X text 582 534 Resize this abstract boundries;
#X connect 0 0 6 0;
#X connect 0 0 104 0;
#X connect 1 0 126 0;
#X connect 1 0 127 0;
#X connect 2 0 10 0;
#X connect 2 0 14 0;
#X connect 2 0 30 0;
#X connect 2 0 109 0;
#X connect 3 0 11 0;
#X connect 3 0 20 0;
#X connect 3 0 29 0;
#X connect 3 0 111 0;
#X connect 8 0 12 0;
#X connect 8 0 18 0;
#X connect 8 0 26 0;
#X connect 8 0 121 0;
#X connect 9 0 128 0;
#X connect 10 0 9 0;
#X connect 10 1 9 1;
#X connect 11 0 9 0;
#X connect 11 1 9 2;
#X connect 12 0 9 0;
#X connect 12 1 9 3;
#X connect 14 0 16 0;
#X connect 14 1 16 1;
#X connect 15 0 16 0;
#X connect 15 1 16 2;
#X connect 16 0 19 0;
#X connect 18 0 16 0;
#X connect 18 1 16 3;
#X connect 20 0 15 0;
#X connect 22 0 23 0;
#X connect 23 0 25 0;
#X connect 23 1 25 1;
#X connect 24 0 25 0;
#X connect 24 1 25 2;
#X connect 25 0 21 0;
#X connect 26 0 25 0;
#X connect 26 1 25 3;
#X connect 27 0 28 0;
#X connect 28 0 24 0;
#X connect 29 0 27 0;
#X connect 30 0 22 0;
#X connect 31 0 33 0;
#X connect 33 0 22 0;
#X connect 35 0 0 0;
#X connect 36 0 0 0;
#X connect 37 0 0 0;
#X connect 38 0 0 0;
#X connect 39 0 0 0;
#X connect 40 0 0 0;
#X connect 41 0 0 0;
#X connect 42 0 0 0;
#X connect 43 0 0 0;
#X connect 44 0 0 0;
#X connect 45 0 0 0;
#X connect 46 0 0 0;
#X connect 47 0 0 0;
#X connect 48 0 0 0;
#X connect 49 0 0 0;
#X connect 50 0 0 0;
#X connect 51 0 0 0;
#X connect 52 0 0 0;
#X connect 53 0 0 0;
#X connect 54 0 0 0;
#X connect 55 0 0 0;
#X connect 56 0 0 0;
#X connect 57 0 0 0;
#X connect 58 0 0 0;
#X connect 59 0 0 0;
#X connect 60 0 0 0;
#X connect 61 0 0 0;
#X connect 62 0 0 0;
#X connect 63 0 0 0;
#X connect 64 0 0 0;
#X connect 65 0 0 0;
#X connect 66 0 0 0;
#X connect 67 0 0 0;
#X connect 68 0 0 0;
#X connect 69 0 0 0;
#X connect 70 0 0 0;
#X connect 71 0 0 0;
#X connect 72 0 0 0;
#X connect 73 0 0 0;
#X connect 74 0 0 0;
#X connect 75 0 0 0;
#X connect 76 0 0 0;
#X connect 77 0 0 0;
#X connect 78 0 0 0;
#X connect 79 0 0 0;
#X connect 80 0 0 0;
#X connect 81 0 0 0;
#X connect 82 0 0 0;
#X connect 83 0 0 0;
#X connect 84 0 0 0;
#X connect 85 0 0 0;
#X connect 86 0 0 0;
#X connect 87 0 0 0;
#X connect 88 0 0 0;
#X connect 89 0 0 0;
#X connect 90 0 0 0;
#X connect 91 0 0 0;
#X connect 92 0 0 0;
#X connect 93 0 0 0;
#X connect 94 0 0 0;
#X connect 95 0 0 0;
#X connect 96 0 0 0;
#X connect 97 0 0 0;
#X connect 98 0 0 0;
#X connect 99 0 31 0;
#X connect 105 0 108 0;
#X connect 106 0 107 0;
#X connect 107 0 7 0;
#X connect 108 0 106 0;
#X connect 108 0 106 1;
#X connect 109 0 112 0;
#X connect 111 0 109 0;
#X connect 111 1 109 1;
#X connect 112 0 114 0;
#X connect 114 0 110 0;
#X connect 115 0 0 0;
#X connect 116 0 99 0;
#X connect 117 0 118 0;
#X connect 118 0 120 0;
#X connect 118 1 120 1;
#X connect 119 0 120 0;
#X connect 119 1 120 2;
#X connect 120 0 122 0;
#X connect 121 0 120 0;
#X connect 121 1 120 3;
#X connect 123 0 119 0;
#X connect 125 0 8 0;
#X connect 126 0 2 0;
#X connect 127 0 3 0;
#X coords 0 17 130 0 130 17 2 0 0;
