#N canvas 650 92 1115 918 10;
#X obj 534 146 * -1;
#X obj 494 378 pack f f f f f f f;
#X obj 540 328 +;
#X obj 564 328 +;
#X msg 930 607 new;
#X msg 217 361 0;
#X msg 494 598 line 525 225 525 225 60 2;
#X msg 494 570 set line \$2 \$3 \$4 \$5 \$6 \$7;
#X obj 573 144 * -1;
#N canvas 1418 475 450 300 (subpatch) 0;
#X obj 84 67 inlet;
#X obj 84 120 outlet;
#X connect 0 0 1 0;
#X restore 416 138 pd;
#X obj 416 525 bng 15 250 50 0 empty empty empty 17 7 0 10 -262144
-1 -1;
#X obj 416 186 bng 15 250 50 0 empty empty empty 17 7 0 10 -262144
-1 -1;
#X obj 416 237 delay 10;
#X obj 529 426 unpack f f f f f;
#X obj 492 310 delay 10;
#X obj 520 94 r \$0-draw;
#X floatatom 604 491 5 0 0 0 - - -;
#X floatatom 642 492 5 0 0 0 - - -;
#X floatatom 679 492 5 0 0 0 - - -;
#X floatatom 721 492 5 0 0 0 - - -;
#X obj 416 548 spigot;
#X obj 449 521 r \$0-drawbang;
#X obj 443 215 s \$0-drawbang;
#X obj 416 161 t b b;
#X msg 443 186 1;
#X obj 349 323 +;
#X obj 384 323 +;
#X obj 787 146 * -1;
#X obj 789 329 +;
#X obj 835 328 +;
#X obj 834 146 * -1;
#N canvas 1418 475 450 300 (subpatch) 0;
#X obj 84 67 inlet;
#X obj 84 120 outlet;
#X connect 0 0 1 0;
#X restore 665 139 pd;
#X obj 665 187 bng 15 250 50 0 empty empty empty 17 7 0 10 -262144
-1 -1;
#X obj 665 238 delay 10;
#X obj 769 95 r \$0-draw;
#X obj 692 216 s \$0-drawbang;
#X obj 665 162 t b b;
#X msg 692 187 0;
#X obj 147 115 pack f s f;
#X msg 147 162 du 25;
#X obj 95 39 route symbol float;
#X msg 147 139 set \$2 \$3;
#X obj 147 65 t b b f;
#X obj 147 186 s \$0-draw;
#X obj 521 121 route dr dl dd du c w;
#X obj 940 161 s reset;
#X obj 216 334 r reset;
#X obj 95 16 drip 5;
#X msg 982 225 0;
#X obj 869 197 t f b;
#X obj 911 195 t f b;
#X msg 1011 225 0;
#X obj 95 -13 inlet;
#X obj 270 202 r \$0-nx;
#X obj 217 456 s \$0-nx;
#X obj 591 462 s \$0-nx;
#X obj 871 232 s \$0-nx;
#X obj 320 203 r \$0-ny;
#X obj 217 479 s \$0-ny;
#X obj 646 462 s \$0-ny;
#X obj 921 231 s \$0-ny;
#X obj 217 413 s \$0-xacc;
#X obj 518 471 s \$0-xacc;
#X obj 555 280 r \$0-xacc;
#X obj 804 281 r \$0-xacc;
#X obj 993 256 s \$0-xacc;
#X obj 217 434 s \$0-yacc;
#X obj 579 300 r \$0-yacc;
#X obj 849 301 r \$0-yacc;
#X obj 1056 256 s \$0-yacc;
#X obj 542 490 s \$0-yacc;
#X obj 494 624 outlet;
#X obj 132 -12 inlet;
#X obj 770 122 route mr ml md mu mx my set new;
#X text 197 -10 Balwyn 2016;
#X connect 0 0 2 0;
#X connect 1 0 7 0;
#X connect 1 0 13 0;
#X connect 1 0 10 0;
#X connect 2 0 1 3;
#X connect 3 0 1 4;
#X connect 4 0 71 0;
#X connect 5 0 1 1;
#X connect 5 0 1 2;
#X connect 5 0 1 3;
#X connect 5 0 1 4;
#X connect 5 0 1 0;
#X connect 5 0 25 1;
#X connect 5 0 26 1;
#X connect 5 0 54 0;
#X connect 5 0 58 0;
#X connect 5 0 61 0;
#X connect 5 0 66 0;
#X connect 6 0 71 0;
#X connect 7 0 6 0;
#X connect 8 0 3 0;
#X connect 9 0 23 0;
#X connect 10 0 20 0;
#X connect 11 0 12 0;
#X connect 12 0 1 0;
#X connect 12 0 14 0;
#X connect 13 1 16 0;
#X connect 13 1 62 0;
#X connect 13 2 17 0;
#X connect 13 2 70 0;
#X connect 13 3 18 0;
#X connect 13 3 55 0;
#X connect 13 4 19 0;
#X connect 13 4 59 0;
#X connect 14 0 1 0;
#X connect 15 0 44 0;
#X connect 20 0 6 0;
#X connect 21 0 20 1;
#X connect 23 0 11 0;
#X connect 23 1 24 0;
#X connect 24 0 22 0;
#X connect 25 0 1 1;
#X connect 26 0 1 2;
#X connect 27 0 28 0;
#X connect 28 0 1 3;
#X connect 29 0 1 4;
#X connect 30 0 29 0;
#X connect 31 0 36 0;
#X connect 32 0 33 0;
#X connect 33 0 14 0;
#X connect 34 0 73 0;
#X connect 36 0 32 0;
#X connect 36 1 37 0;
#X connect 37 0 35 0;
#X connect 38 0 41 0;
#X connect 39 0 43 0;
#X connect 40 0 38 1;
#X connect 40 1 42 0;
#X connect 41 0 39 0;
#X connect 42 0 39 0;
#X connect 42 1 38 0;
#X connect 42 2 38 2;
#X connect 44 0 9 0;
#X connect 44 0 2 0;
#X connect 44 1 0 0;
#X connect 44 1 9 0;
#X connect 44 2 9 0;
#X connect 44 2 3 0;
#X connect 44 3 8 0;
#X connect 44 3 9 0;
#X connect 44 4 1 5;
#X connect 44 5 1 6;
#X connect 46 0 5 0;
#X connect 47 0 40 0;
#X connect 48 0 65 0;
#X connect 49 0 28 0;
#X connect 49 0 56 0;
#X connect 49 1 48 0;
#X connect 50 0 29 0;
#X connect 50 0 60 0;
#X connect 50 1 51 0;
#X connect 51 0 69 0;
#X connect 52 0 47 0;
#X connect 53 0 25 0;
#X connect 57 0 26 0;
#X connect 63 0 2 1;
#X connect 64 0 28 1;
#X connect 67 0 3 1;
#X connect 68 0 29 1;
#X connect 72 0 47 1;
#X connect 73 0 31 0;
#X connect 73 0 28 0;
#X connect 73 1 27 0;
#X connect 73 1 31 0;
#X connect 73 2 31 0;
#X connect 73 2 29 0;
#X connect 73 3 30 0;
#X connect 73 3 31 0;
#X connect 73 4 31 0;
#X connect 73 4 49 0;
#X connect 73 5 31 0;
#X connect 73 5 50 0;
#X connect 73 6 45 0;
#X connect 73 7 4 0;
