#N canvas -1 0 1276 663 10;
#N canvas 0 50 450 300 OBCalculateAndShowStepOctaveKey 0;
#X floatatom 86 56 6 0 0 0 - - -;
#X obj 86 80 * 10;
#X floatatom 86 104 5 0 0 0 - - -;
#X obj 84 126 int;
#X floatatom 83 147 5 0 0 0 - - -;
#X obj 104 168 / 10;
#X floatatom 102 189 5 0 0 0 - - -;
#N canvas 0 50 450 300 DisplayStepNoteC 0;
#X obj 46 2 inlet;
#X obj 45 43 == 1;
#X floatatom 45 69 5 0 0 0 - - -;
#X obj 45 91 change;
#X obj 45 119 == 1;
#X floatatom 46 141 5 0 0 0 - - -;
#X obj 42 161 t b;
#X obj 31 244 outlet;
#X obj 148 148 delay 100;
#X obj 145 171 t b;
#X msg 38 196 label Key:C;
#X connect 0 0 1 0;
#X connect 1 0 2 0;
#X connect 2 0 3 0;
#X connect 3 0 4 0;
#X connect 4 0 5 0;
#X connect 5 0 6 0;
#X connect 6 0 10 0;
#X connect 6 0 8 0;
#X connect 8 0 9 0;
#X connect 9 0 10 0;
#X connect 10 0 7 0;
#X restore 87 282 pd DisplayStepNoteC;
#N canvas -6 268 450 300 DisplayStepNoteCShp 0;
#X obj 46 2 inlet;
#X floatatom 45 69 5 0 0 0 - - -;
#X obj 45 91 change;
#X floatatom 46 141 5 0 0 0 - - -;
#X obj 45 160 t b;
#X obj 36 221 outlet;
#X obj 45 43 == 2;
#X msg 41 182 label C#;
#X obj 45 119 == 0;
#X connect 0 0 6 0;
#X connect 1 0 2 0;
#X connect 2 0 8 0;
#X connect 3 0 4 0;
#X connect 4 0 7 0;
#X connect 6 0 1 0;
#X connect 7 0 5 0;
#X connect 8 0 3 0;
#X restore 104 304 pd DisplayStepNoteCShp;
#X obj 100 215 int;
#X floatatom 101 236 5 0 0 0 - - -;
#N canvas 0 50 450 300 DisplayStepNoteD 0;
#X obj 46 2 inlet;
#X floatatom 45 69 5 0 0 0 - - -;
#X obj 45 91 change;
#X obj 45 119 == 1;
#X floatatom 46 141 5 0 0 0 - - -;
#X obj 42 161 t b;
#X obj 31 244 outlet;
#X obj 148 148 delay 100;
#X obj 152 198 t b;
#X obj 45 43 == 3;
#X msg 38 196 label D;
#X connect 0 0 9 0;
#X connect 1 0 2 0;
#X connect 2 0 3 0;
#X connect 3 0 4 0;
#X connect 4 0 5 0;
#X connect 5 0 10 0;
#X connect 5 0 7 0;
#X connect 7 0 8 0;
#X connect 8 0 10 0;
#X connect 9 0 1 0;
#X connect 10 0 6 0;
#X restore 122 327 pd DisplayStepNoteD;
#N canvas -6 268 450 300 DisplayStepNoteDShp 0;
#X obj 46 2 inlet;
#X floatatom 45 69 5 0 0 0 - - -;
#X obj 45 91 change;
#X floatatom 46 141 5 0 0 0 - - -;
#X obj 45 160 t b;
#X obj 36 221 outlet;
#X obj 45 119 == 0;
#X obj 46 43 == 4;
#X msg 41 182 label D#;
#X connect 0 0 7 0;
#X connect 1 0 2 0;
#X connect 2 0 6 0;
#X connect 3 0 4 0;
#X connect 4 0 8 0;
#X connect 6 0 3 0;
#X connect 7 0 1 0;
#X connect 8 0 5 0;
#X restore 138 347 pd DisplayStepNoteDShp;
#N canvas 0 50 450 300 DisplayStepNoteE 0;
#X obj 46 2 inlet;
#X floatatom 45 69 5 0 0 0 - - -;
#X obj 45 91 change;
#X obj 45 119 == 1;
#X floatatom 46 141 5 0 0 0 - - -;
#X obj 42 161 t b;
#X obj 31 244 outlet;
#X obj 148 148 delay 100;
#X obj 152 198 t b;
#X obj 45 43 == 5;
#X msg 38 196 label E;
#X connect 0 0 9 0;
#X connect 1 0 2 0;
#X connect 2 0 3 0;
#X connect 3 0 4 0;
#X connect 4 0 5 0;
#X connect 5 0 10 0;
#X connect 5 0 7 0;
#X connect 7 0 8 0;
#X connect 8 0 10 0;
#X connect 9 0 1 0;
#X connect 10 0 6 0;
#X restore 151 370 pd DisplayStepNoteE;
#N canvas 0 50 450 300 DisplayStepNoteF 0;
#X obj 46 2 inlet;
#X floatatom 45 69 5 0 0 0 - - -;
#X obj 45 91 change;
#X obj 45 119 == 1;
#X floatatom 46 141 5 0 0 0 - - -;
#X obj 42 161 t b;
#X obj 31 244 outlet;
#X obj 148 148 delay 100;
#X obj 152 198 t b;
#X msg 38 196 label F;
#X obj 45 43 == 6;
#X connect 0 0 10 0;
#X connect 1 0 2 0;
#X connect 2 0 3 0;
#X connect 3 0 4 0;
#X connect 4 0 5 0;
#X connect 5 0 9 0;
#X connect 5 0 7 0;
#X connect 7 0 8 0;
#X connect 8 0 9 0;
#X connect 9 0 6 0;
#X connect 10 0 1 0;
#X restore 159 390 pd DisplayStepNoteF;
#N canvas -6 268 450 300 DisplayStepNoteGShp 0;
#X obj 46 2 inlet;
#X floatatom 45 69 5 0 0 0 - - -;
#X obj 45 91 change;
#X floatatom 46 141 5 0 0 0 - - -;
#X obj 45 160 t b;
#X obj 36 221 outlet;
#X obj 45 119 == 0;
#X msg 41 182 label G#;
#X obj 45 43 == 9;
#X connect 0 0 8 0;
#X connect 1 0 2 0;
#X connect 2 0 6 0;
#X connect 3 0 4 0;
#X connect 4 0 7 0;
#X connect 6 0 3 0;
#X connect 7 0 5 0;
#X connect 8 0 1 0;
#X restore 193 456 pd DisplayStepNoteGShp;
#N canvas 0 50 450 300 DisplayStepNoteG 0;
#X obj 46 2 inlet;
#X floatatom 45 69 5 0 0 0 - - -;
#X obj 45 91 change;
#X obj 45 119 == 1;
#X floatatom 46 141 5 0 0 0 - - -;
#X obj 42 161 t b;
#X obj 31 244 outlet;
#X obj 148 148 delay 100;
#X obj 152 198 t b;
#X obj 45 43 == 8;
#X msg 38 196 label G;
#X connect 0 0 9 0;
#X connect 1 0 2 0;
#X connect 2 0 3 0;
#X connect 3 0 4 0;
#X connect 4 0 5 0;
#X connect 5 0 10 0;
#X connect 5 0 7 0;
#X connect 7 0 8 0;
#X connect 8 0 10 0;
#X connect 9 0 1 0;
#X connect 10 0 6 0;
#X restore 189 435 pd DisplayStepNoteG;
#N canvas 0 50 450 300 DisplayStepNoteA 0;
#X obj 46 2 inlet;
#X floatatom 45 69 5 0 0 0 - - -;
#X obj 45 91 change;
#X obj 45 119 == 1;
#X floatatom 46 141 5 0 0 0 - - -;
#X obj 42 161 t b;
#X obj 31 244 outlet;
#X obj 148 148 delay 100;
#X obj 152 198 t b;
#X msg 38 196 label A;
#X obj 45 43 == 10;
#X connect 0 0 10 0;
#X connect 1 0 2 0;
#X connect 2 0 3 0;
#X connect 3 0 4 0;
#X connect 4 0 5 0;
#X connect 5 0 9 0;
#X connect 5 0 7 0;
#X connect 7 0 8 0;
#X connect 8 0 9 0;
#X connect 9 0 6 0;
#X connect 10 0 1 0;
#X restore 201 480 pd DisplayStepNoteA;
#N canvas -6 268 450 300 DisplayStepNoteAShp 0;
#X obj 46 2 inlet;
#X floatatom 45 69 5 0 0 0 - - -;
#X obj 45 91 change;
#X floatatom 46 141 5 0 0 0 - - -;
#X obj 45 160 t b;
#X obj 36 221 outlet;
#X obj 45 119 == 0;
#X msg 41 182 label A#;
#X obj 45 43 == 11;
#X connect 0 0 8 0;
#X connect 1 0 2 0;
#X connect 2 0 6 0;
#X connect 3 0 4 0;
#X connect 4 0 7 0;
#X connect 6 0 3 0;
#X connect 7 0 5 0;
#X connect 8 0 1 0;
#X restore 222 501 pd DisplayStepNoteAShp;
#N canvas 0 50 450 300 DisplayStepNoteB 0;
#X obj 46 2 inlet;
#X floatatom 45 69 5 0 0 0 - - -;
#X obj 45 91 change;
#X obj 45 119 == 1;
#X floatatom 46 141 5 0 0 0 - - -;
#X obj 42 161 t b;
#X obj 31 244 outlet;
#X obj 148 148 delay 100;
#X obj 152 198 t b;
#X obj 45 43 == 12;
#X msg 38 196 label B;
#X connect 0 0 9 0;
#X connect 1 0 2 0;
#X connect 2 0 3 0;
#X connect 3 0 4 0;
#X connect 4 0 5 0;
#X connect 5 0 10 0;
#X connect 5 0 7 0;
#X connect 7 0 8 0;
#X connect 8 0 10 0;
#X connect 9 0 1 0;
#X connect 10 0 6 0;
#X restore 237 522 pd DisplayStepNoteB;
#N canvas -6 268 450 300 DisplayStepNoteFShp 0;
#X obj 46 2 inlet;
#X floatatom 45 69 5 0 0 0 - - -;
#X obj 45 91 change;
#X floatatom 46 141 5 0 0 0 - - -;
#X obj 45 160 t b;
#X obj 36 221 outlet;
#X obj 45 119 == 0;
#X obj 45 43 == 7;
#X msg 41 182 label F#;
#X connect 0 0 7 0;
#X connect 1 0 2 0;
#X connect 2 0 6 0;
#X connect 3 0 4 0;
#X connect 4 0 8 0;
#X connect 6 0 3 0;
#X connect 7 0 1 0;
#X connect 8 0 5 0;
#X restore 169 412 pd DisplayStepNoteFShp;
#X obj 100 255 t f f f f f f f f f f f f;
#X obj 77 19 inlet;
#X obj 89 597 s \$1-octlbl-recv;
#X connect 0 0 1 0;
#X connect 1 0 2 0;
#X connect 2 0 3 0;
#X connect 3 0 4 0;
#X connect 4 0 5 0;
#X connect 5 0 6 0;
#X connect 6 0 9 0;
#X connect 7 0 23 0;
#X connect 8 0 23 0;
#X connect 9 0 10 0;
#X connect 10 0 21 0;
#X connect 11 0 23 0;
#X connect 12 0 23 0;
#X connect 13 0 23 0;
#X connect 14 0 23 0;
#X connect 15 0 23 0;
#X connect 16 0 23 0;
#X connect 17 0 23 0;
#X connect 18 0 23 0;
#X connect 19 0 23 0;
#X connect 20 0 23 0;
#X connect 21 0 7 0;
#X connect 21 1 8 0;
#X connect 21 2 11 0;
#X connect 21 3 12 0;
#X connect 21 4 13 0;
#X connect 21 5 14 0;
#X connect 21 6 20 0;
#X connect 21 7 16 0;
#X connect 21 8 15 0;
#X connect 21 9 17 0;
#X connect 21 10 18 0;
#X connect 21 11 19 0;
#X connect 22 0 0 0;
#X restore 63 1563 pd OBCalculateAndShowStepOctaveKey \$1;
#N canvas 0 50 450 300 OBCalculateAndShowSampleKey 0;
#X floatatom 86 56 6 0 0 0 - - -;
#X obj 86 80 * 10;
#X floatatom 86 104 5 0 0 0 - - -;
#X obj 84 126 int;
#X floatatom 83 147 5 0 0 0 - - -;
#X obj 104 168 / 10;
#X floatatom 102 189 5 0 0 0 - - -;
#X obj 100 215 int;
#X floatatom 101 236 5 0 0 0 - - -;
#X obj 100 255 t f f f f f f f f f f f f;
#X obj 77 19 inlet;
#X obj 89 597 s \$1-keylbl-recv;
#N canvas 0 50 450 300 DisplayKeyNoteC 0;
#X obj 46 2 inlet;
#X obj 45 43 == 1;
#X floatatom 45 69 5 0 0 0 - - -;
#X obj 45 91 change;
#X obj 45 119 == 1;
#X floatatom 46 141 5 0 0 0 - - -;
#X obj 42 161 t b;
#X obj 31 244 outlet;
#X obj 148 148 delay 100;
#X obj 152 198 t b;
#X msg 38 196 label C;
#X connect 0 0 1 0;
#X connect 1 0 2 0;
#X connect 2 0 3 0;
#X connect 3 0 4 0;
#X connect 4 0 5 0;
#X connect 5 0 6 0;
#X connect 6 0 10 0;
#X connect 6 0 8 0;
#X connect 8 0 9 0;
#X connect 9 0 10 0;
#X connect 10 0 7 0;
#X restore 87 282 pd DisplayKeyNoteC;
#N canvas -6 268 450 300 DisplayKeyNoteCShp 0;
#X obj 46 2 inlet;
#X floatatom 45 69 5 0 0 0 - - -;
#X obj 45 91 change;
#X floatatom 46 141 5 0 0 0 - - -;
#X obj 45 160 t b;
#X obj 36 221 outlet;
#X obj 45 43 == 2;
#X obj 45 119 == 0;
#X msg 41 182 label Key:C#;
#X connect 0 0 6 0;
#X connect 1 0 2 0;
#X connect 2 0 7 0;
#X connect 3 0 4 0;
#X connect 4 0 8 0;
#X connect 6 0 1 0;
#X connect 7 0 3 0;
#X connect 8 0 5 0;
#X restore 104 304 pd DisplayKeyNoteCShp;
#N canvas 0 50 450 300 DisplayKeyNoteD 0;
#X obj 46 2 inlet;
#X floatatom 45 69 5 0 0 0 - - -;
#X obj 45 91 change;
#X obj 45 119 == 1;
#X floatatom 46 141 5 0 0 0 - - -;
#X obj 42 161 t b;
#X obj 31 244 outlet;
#X obj 148 148 delay 100;
#X obj 152 198 t b;
#X obj 45 43 == 3;
#X msg 38 196 label Key:D;
#X connect 0 0 9 0;
#X connect 1 0 2 0;
#X connect 2 0 3 0;
#X connect 3 0 4 0;
#X connect 4 0 5 0;
#X connect 5 0 10 0;
#X connect 5 0 7 0;
#X connect 7 0 8 0;
#X connect 8 0 10 0;
#X connect 9 0 1 0;
#X connect 10 0 6 0;
#X restore 122 327 pd DisplayKeyNoteD;
#N canvas -6 268 450 300 DisplayKeyNoteDShp 0;
#X obj 46 2 inlet;
#X floatatom 45 69 5 0 0 0 - - -;
#X obj 45 91 change;
#X floatatom 46 141 5 0 0 0 - - -;
#X obj 45 160 t b;
#X obj 36 221 outlet;
#X obj 45 119 == 0;
#X obj 46 43 == 4;
#X msg 41 182 label Key:D#;
#X connect 0 0 7 0;
#X connect 1 0 2 0;
#X connect 2 0 6 0;
#X connect 3 0 4 0;
#X connect 4 0 8 0;
#X connect 6 0 3 0;
#X connect 7 0 1 0;
#X connect 8 0 5 0;
#X restore 138 347 pd DisplayKeyNoteDShp;
#N canvas 0 50 450 300 DisplayKeyNoteE 0;
#X obj 46 2 inlet;
#X floatatom 45 69 5 0 0 0 - - -;
#X obj 45 91 change;
#X obj 45 119 == 1;
#X floatatom 46 141 5 0 0 0 - - -;
#X obj 42 161 t b;
#X obj 31 244 outlet;
#X obj 82 155 delay 100;
#X obj 81 176 t b;
#X obj 45 43 == 5;
#X msg 38 196 label Key:E;
#X connect 0 0 9 0;
#X connect 1 0 2 0;
#X connect 2 0 3 0;
#X connect 3 0 4 0;
#X connect 4 0 5 0;
#X connect 5 0 10 0;
#X connect 5 0 7 0;
#X connect 7 0 8 0;
#X connect 8 0 10 0;
#X connect 9 0 1 0;
#X connect 10 0 6 0;
#X restore 151 370 pd DisplayKeyNoteE;
#N canvas 0 50 450 300 DisplayKeypNoteF 0;
#X obj 46 2 inlet;
#X floatatom 45 69 5 0 0 0 - - -;
#X obj 45 91 change;
#X obj 45 119 == 1;
#X floatatom 46 141 5 0 0 0 - - -;
#X obj 42 161 t b;
#X obj 31 244 outlet;
#X obj 85 150 delay 100;
#X obj 87 174 t b;
#X obj 45 43 == 6;
#X msg 38 196 label Key:F;
#X connect 0 0 9 0;
#X connect 1 0 2 0;
#X connect 2 0 3 0;
#X connect 3 0 4 0;
#X connect 4 0 5 0;
#X connect 5 0 10 0;
#X connect 5 0 7 0;
#X connect 7 0 8 0;
#X connect 8 0 10 0;
#X connect 9 0 1 0;
#X connect 10 0 6 0;
#X restore 159 390 pd DisplayKeypNoteF;
#N canvas -6 268 450 300 DisplayKeyNoteFShp 0;
#X obj 46 2 inlet;
#X floatatom 45 69 5 0 0 0 - - -;
#X obj 45 91 change;
#X floatatom 46 141 5 0 0 0 - - -;
#X obj 45 160 t b;
#X obj 36 221 outlet;
#X obj 45 119 == 0;
#X obj 45 43 == 7;
#X msg 41 182 label F#;
#X connect 0 0 7 0;
#X connect 1 0 2 0;
#X connect 2 0 6 0;
#X connect 3 0 4 0;
#X connect 4 0 8 0;
#X connect 6 0 3 0;
#X connect 7 0 1 0;
#X connect 8 0 5 0;
#X restore 169 411 pd DisplayKeyNoteFShp;
#N canvas 0 50 450 300 DisplayKeyNoteG 0;
#X obj 46 2 inlet;
#X floatatom 45 69 5 0 0 0 - - -;
#X obj 45 91 change;
#X obj 45 119 == 1;
#X floatatom 46 141 5 0 0 0 - - -;
#X obj 42 161 t b;
#X obj 31 244 outlet;
#X obj 91 149 delay 100;
#X obj 91 170 t b;
#X obj 45 43 == 8;
#X msg 38 196 label Key:G;
#X connect 0 0 9 0;
#X connect 1 0 2 0;
#X connect 2 0 3 0;
#X connect 3 0 4 0;
#X connect 4 0 5 0;
#X connect 5 0 10 0;
#X connect 5 0 7 0;
#X connect 7 0 8 0;
#X connect 8 0 10 0;
#X connect 9 0 1 0;
#X connect 10 0 6 0;
#X restore 189 435 pd DisplayKeyNoteG;
#N canvas 248 292 450 300 DisplayKeyNoteGShp 0;
#X obj 46 2 inlet;
#X floatatom 45 69 5 0 0 0 - - -;
#X obj 45 91 change;
#X floatatom 46 141 5 0 0 0 - - -;
#X obj 45 160 t b;
#X obj 36 221 outlet;
#X obj 45 119 == 0;
#X obj 45 43 == 9;
#X msg 37 194 label Key:G#;
#X obj 148 148 delay 100;
#X obj 152 198 t b;
#X connect 0 0 7 0;
#X connect 1 0 2 0;
#X connect 2 0 6 0;
#X connect 3 0 4 0;
#X connect 4 0 8 0;
#X connect 4 0 9 0;
#X connect 6 0 3 0;
#X connect 7 0 1 0;
#X connect 8 0 5 0;
#X connect 9 0 10 0;
#X connect 10 0 8 0;
#X restore 193 456 pd DisplayKeyNoteGShp;
#N canvas 0 50 450 300 DisplayKeyNoteA 0;
#X obj 46 2 inlet;
#X floatatom 45 69 5 0 0 0 - - -;
#X obj 45 91 change;
#X obj 45 119 == 1;
#X floatatom 46 141 5 0 0 0 - - -;
#X obj 42 161 t b;
#X obj 31 244 outlet;
#X obj 91 150 delay 100;
#X obj 91 169 t b;
#X obj 45 43 == 10;
#X msg 38 196 label Key:A;
#X connect 0 0 9 0;
#X connect 1 0 2 0;
#X connect 2 0 3 0;
#X connect 3 0 4 0;
#X connect 4 0 5 0;
#X connect 5 0 10 0;
#X connect 5 0 7 0;
#X connect 7 0 8 0;
#X connect 8 0 10 0;
#X connect 9 0 1 0;
#X connect 10 0 6 0;
#X restore 201 480 pd DisplayKeyNoteA;
#N canvas -6 268 450 300 DisplayKeyNoteAShp 0;
#X obj 46 2 inlet;
#X floatatom 45 69 5 0 0 0 - - -;
#X obj 45 91 change;
#X floatatom 46 141 5 0 0 0 - - -;
#X obj 45 160 t b;
#X obj 36 221 outlet;
#X obj 45 119 == 0;
#X msg 43 187 label A#;
#X obj 45 43 == 11;
#X obj 92 135 delay 100;
#X obj 91 162 t b;
#X connect 0 0 8 0;
#X connect 1 0 2 0;
#X connect 2 0 6 0;
#X connect 3 0 4 0;
#X connect 4 0 7 0;
#X connect 4 0 9 0;
#X connect 6 0 3 0;
#X connect 7 0 5 0;
#X connect 8 0 1 0;
#X connect 9 0 10 0;
#X connect 10 0 7 0;
#X restore 222 501 pd DisplayKeyNoteAShp;
#N canvas 0 50 450 300 DisplayKeyNoteB 0;
#X obj 46 2 inlet;
#X floatatom 45 69 5 0 0 0 - - -;
#X obj 45 91 change;
#X obj 45 119 == 1;
#X floatatom 46 141 5 0 0 0 - - -;
#X obj 42 161 t b;
#X obj 31 244 outlet;
#X obj 90 148 delay 100;
#X obj 91 171 t b;
#X obj 45 43 == 12;
#X msg 38 196 label Key:B;
#X connect 0 0 9 0;
#X connect 1 0 2 0;
#X connect 2 0 3 0;
#X connect 3 0 4 0;
#X connect 4 0 5 0;
#X connect 5 0 10 0;
#X connect 5 0 7 0;
#X connect 7 0 8 0;
#X connect 8 0 10 0;
#X connect 9 0 1 0;
#X connect 10 0 6 0;
#X restore 237 522 pd DisplayKeyNoteB;
#X connect 0 0 1 0;
#X connect 1 0 2 0;
#X connect 2 0 3 0;
#X connect 3 0 4 0;
#X connect 4 0 5 0;
#X connect 5 0 6 0;
#X connect 6 0 7 0;
#X connect 7 0 8 0;
#X connect 8 0 9 0;
#X connect 9 0 12 0;
#X connect 9 1 13 0;
#X connect 9 2 14 0;
#X connect 9 3 15 0;
#X connect 9 4 16 0;
#X connect 9 5 17 0;
#X connect 9 6 18 0;
#X connect 9 7 19 0;
#X connect 9 8 20 0;
#X connect 9 9 21 0;
#X connect 9 10 22 0;
#X connect 9 11 23 0;
#X connect 10 0 0 0;
#X connect 12 0 11 0;
#X connect 13 0 11 0;
#X connect 14 0 11 0;
#X connect 15 0 11 0;
#X connect 16 0 11 0;
#X connect 17 0 11 0;
#X connect 18 0 11 0;
#X connect 19 0 11 0;
#X connect 20 0 11 0;
#X connect 21 0 11 0;
#X connect 22 0 11 0;
#X connect 23 0 11 0;
#X restore 63 1590 pd OBCalculateAndShowSampleKey \$1;
#X obj 139 279 f;
#X obj 141 252 t f f;
#X msg 141 306 set \$1;
#X obj 276 3 r perbank;
#X floatatom 274 41 5 0 0 0 - - -;
#X obj 276 60 t b f;
#X obj 276 87 \$1;
#X obj 276 122 mod;
#X obj 276 148 + 1;
#X msg 185 245 symbol volume-\$1;
#X obj 141 333 s;
#X obj -2 1154 outlet~;
#X obj 18 83 route play volume get_volume tabload;
#X obj 257 218 t s b, f 8;
#X obj 302 248 \$0;
#X obj 257 309 pack s f;
#X obj 178 573 soundfiler;
#X obj 179 29 table s\$0;
#X msg 178 546 read -resize \$1 s\$2;
#X obj 21 1481 s arg6-recv;
#X symbolatom 21 1430 80 0 0 0 - - -;
#X msg 21 1401 symbol \$1;
#X obj 271 1498 s arg5-recv;
#X floatatom 271 1455 5 0 0 0 - - -;
#X text 102 1400 Track Sound File Path;
#X text 274 1513 Track Volume;
#X obj 425 1535 s arg1-recv;
#X obj 425 1461 pack \$1 \$2;
#X msg 425 1486 \$2;
#X obj 422 0 loadbang;
#X obj 437 34 \$1;
#X obj 425 1401 t b;
#X obj 456 104 +;
#X obj 456 131 t b f;
#X obj 493 7 r bank;
#X obj 547 7 r perbank;
#X obj 494 58 *;
#X obj 494 85 t b f;
#X obj 547 34 s \$1-bank-recv;
#X msg 547 61 midibank \$1;
#X floatatom 456 158 5 0 0 0 - - -;
#X floatatom 504 148 5 0 0 0 - - -;
#X obj 1062 206 r currentstep;
#X floatatom 1062 229 5 0 0 0 - - -;
#X obj 1065 252 t f;
#X text 102 1365 These arguments below are used for the song builder
save abstraction. OBBuildSonSavePatternPath.pd;
#X obj 167 1056 *~;
#X floatatom 355 344 5 0 0 0 - - -;
#N canvas 393 93 765 686 editmixerdata 0;
#X obj 124 173 t b f;
#X obj 213 173 t b f;
#X obj 265 176 t b f;
#X text 399 314 When a toggle is bannged write its value [0 ( is "some
value" used to create the pack to which it is connected.;
#X obj 367 293 t b;
#X msg 367 319 0;
#X msg 367 371 \$2;
#X floatatom 367 402 5 0 0 0 - - -;
#X obj 141 60 r arg3-recv;
#X obj 95 42 r arg2-recv;
#X obj 185 80 r arg4-recv;
#X obj 164 172 t b f;
#X msg 113 264 list \$3 \$4 \$5 \$6 \$7;
#X obj 44 21 r arg1-recv;
#X obj 235 100 r arg5-recv;
#X obj 634 70 r arg6-recv;
#X obj 113 237 pack f f f f f f s;
#X text 426 267 A slight delay to allow changes from [text set \$0-newmastermixerfile]
;
#X floatatom 66 264 5 0 0 0 - - -;
#X text 660 51 file location;
#X text 267 80 volume;
#X text 221 62 pan;
#X text 171 39 mute;
#X text 129 21 solo;
#X text 44 6 track#/id;
#X obj 35 465 outlet;
#X obj 114 466 outlet;
#X obj 192 471 outlet;
#X obj 295 473 outlet;
#X obj 46 154 t b f f;
#X obj 505 45 loadbang;
#X msg 492 95 1;
#X obj 413 502 s psavestate;
#X msg 408 475 0;
#X obj 367 432 t f b b;
#X floatatom 277 293 5 0 0 0 - - -;
#X obj 368 344 pack \$1 \$2;
#X obj 44 47 inlet;
#X floatatom 46 74 5 0 0 0 - - -;
#X obj 442 183 r arg6-recv;
#X symbolatom 392 223 80 0 0 0 - - -;
#X obj 367 268 delay 10;
#X connect 0 0 16 0;
#X connect 0 0 41 0;
#X connect 0 1 16 2;
#X connect 1 0 16 0;
#X connect 1 0 41 0;
#X connect 1 1 16 4;
#X connect 2 0 16 0;
#X connect 2 0 41 0;
#X connect 2 1 16 5;
#X connect 4 0 5 0;
#X connect 5 0 36 0;
#X connect 6 0 7 0;
#X connect 7 0 34 0;
#X connect 8 0 11 0;
#X connect 9 0 0 0;
#X connect 10 0 1 0;
#X connect 11 0 16 0;
#X connect 11 0 41 0;
#X connect 11 1 16 3;
#X connect 12 0 25 0;
#X connect 14 0 2 0;
#X connect 16 0 12 0;
#X connect 18 0 26 0;
#X connect 29 0 16 0;
#X connect 29 0 41 0;
#X connect 29 2 18 0;
#X connect 29 2 35 0;
#X connect 30 0 31 0;
#X connect 33 0 32 0;
#X connect 34 0 27 0;
#X connect 34 1 28 0;
#X connect 34 2 33 0;
#X connect 35 0 36 1;
#X connect 36 0 6 0;
#X connect 37 0 38 0;
#X connect 38 0 29 0;
#X connect 39 0 16 6;
#X connect 39 0 40 0;
#X connect 41 0 4 0;
#X restore 300 458 pd editmixerdata;
#X obj 300 391 pack \$1 \$2;
#X msg 300 414 \$2;
#X obj 300 435 t f;
#X obj 298 340 t b;
#X msg 298 366 0;
#X obj 300 503 outlet;
#X obj 347 503 outlet;
#X obj 98 1529 s status-recv;
#X obj 98 1478 delay 10;
#X obj 98 1452 t b;
#X msg 98 1501 label Done_loading_sample.;
#X obj 21 1454 t s;
#X obj 272 1473 t f;
#X obj 425 1509 t f;
#X msg 359 176 symbol projects/datafiles-donotdeleteoredit/defaultblanksample.wav
, f 68;
#X floatatom 178 608 20 0 0 0 - - -;
#X obj 144 657 expr 44100 / $f1;
#X obj 144 838 phasor~;
#X obj 144 891 *~;
#X obj 163 635 s trksampleSize;
#X obj 173 864 r trksampleSize;
#X floatatom 22 763 5 0 0 0 - - -;
#X obj 260 658 r trkreset;
#X floatatom 22 740 5 0 0 0 - - -;
#X msg 260 684 0;
#X obj 143 1119 *~;
#X obj 144 984 tabread4~ s\$0;
#X msg 162 810 0;
#X obj 162 765 r stoppreviewsample;
#X obj 162 788 t b;
#X obj 151 1079 *~;
#X obj 294 763 s \$1-trkpitchrough-recv;
#X obj 22 717 r trk-pitchrough;
#X msg 198 810 0;
#X obj 260 739 unpack f f f;
#X obj 260 712 pack f f f;
#X obj 329 787 s \$1-trkpitchfine-recv;
#X obj -17 691 r trk-pitchfine;
#X floatatom -17 721 5 0 0 0 - - -;
#X obj -17 743 t f;
#X obj -17 773 +;
#X floatatom -17 797 5 0 0 0 - - -;
#X msg 863 409 set \$1;
#X floatatom 863 387 5 0 0 0 - - -;
#X obj 863 364 r trk-pitchrough;
#X obj 863 433 s \$1-trkpitchrough-send;
#X obj 845 946 tgl 15 0 empty empty empty 17 7 0 10 -262144 -1 -1 0
1;
#X obj 845 967 metro 50;
#X obj 845 996 snapshot~;
#X floatatom 845 1021 10 0 0 0 - - -;
#X obj 845 1043 /;
#X obj 878 1042 r trksampleSize;
#X floatatom 845 1068 5 0 0 0 - - -;
#X floatatom 1041 897 5 0 0 0 - - -;
#X obj 1041 922 t f;
#X floatatom 1041 977 5 0 0 0 - - -;
#X obj 1041 953 == 0;
#X obj 1041 1002 change;
#X obj 1041 1029 == 1;
#X floatatom 1040 1053 5 0 0 0 - - -;
#X obj 1040 1084 tgl 15 0 empty empty empty 17 7 0 10 -262144 -1 -1
0 1;
#X msg 845 917 1;
#N canvas 0 50 450 300 ChangeStepVolValue 0;
#X obj 50 31 inlet;
#X obj 41 478 outlet;
#X obj 14 174 r CurrentStepVel;
#X floatatom 14 201 5 0 0 0 - - -;
#X floatatom 51 58 5 0 0 0 - - -;
#X floatatom 51 101 5 0 0 0 - - -;
#X obj 51 79 * 10;
#X obj 51 124 int;
#X floatatom 51 151 5 0 0 0 - - -;
#X floatatom 14 256 5 0 0 0 - - -;
#X obj 14 228 *;
#X floatatom 14 309 5 0 0 0 - - -;
#X obj 14 282 / 10;
#X connect 0 0 4 0;
#X connect 2 0 3 0;
#X connect 3 0 10 0;
#X connect 4 0 6 0;
#X connect 5 0 7 0;
#X connect 6 0 5 0;
#X connect 7 0 8 0;
#X connect 8 0 10 1;
#X connect 9 0 12 0;
#X connect 10 0 9 0;
#X connect 11 0 1 0;
#X connect 12 0 11 0;
#X restore 137 489 pd ChangeStepVolValue;
#N canvas 0 50 925 681 OBAdjustTrkVol 0;
#X obj 95 86 pack f f;
#X msg 95 59 0;
#X obj 95 113 unpack f f;
#X obj 93 21 inlet;
#X obj 179 17 inlet;
#X obj 98 200 outlet;
#X connect 0 0 2 0;
#X connect 1 0 0 0;
#X connect 2 1 5 0;
#X connect 3 0 1 0;
#X connect 4 0 0 1;
#X restore 179 1084 pd OBAdjustTrkVol;
#X obj 217 736 t b;
#X obj 897 810 t b b;
#N canvas 589 388 551 362 FindStartEndPosition2 0;
#X obj 224 48 inlet endpos;
#X obj 273 310 outlet;
#X floatatom 81 101 12 0 0 0 - - -;
#X floatatom 223 102 5 0 0 0 - - -;
#X obj 286 223 sel 1;
#X obj 273 284 bng 15 250 50 0 empty empty empty 17 7 0 10 -262144
-1 -1;
#X obj 287 158 change;
#X obj 326 49 inlet doloop;
#X obj 282 253 spigot 0;
#X obj 329 230 tgl 15 0 empty empty empty 17 7 0 10 -262144 -1 -1 0
1;
#X obj 285 133 >=;
#X obj 289 188 == 1;
#X obj 337 98 change;
#X obj 338 148 == 0;
#X floatatom 336 124 5 0 0 0 - - -;
#X msg 332 201 \$1;
#X obj 336 173 t f;
#X obj 449 272 spigot 0;
#X obj 496 249 tgl 15 0 empty empty empty 17 7 0 10 -262144 -1 -1 0
1;
#X msg 499 220 \$1;
#X obj 503 192 t f;
#X obj 505 167 == 1;
#X obj 443 242 sel 1;
#X obj 444 177 change;
#X obj 446 207 == 1;
#X obj 426 321 outlet;
#X obj 426 295 bng 15 250 50 0 empty empty empty 17 7 0 10 -262144
-1 -1;
#X obj 75 52 inlet mixercursorpos;
#X connect 0 0 3 0;
#X connect 2 0 10 0;
#X connect 3 0 10 1;
#X connect 4 0 8 0;
#X connect 5 0 1 0;
#X connect 6 0 11 0;
#X connect 7 0 12 0;
#X connect 8 0 5 0;
#X connect 9 0 8 1;
#X connect 10 0 6 0;
#X connect 10 0 23 0;
#X connect 11 0 4 0;
#X connect 12 0 14 0;
#X connect 13 0 16 0;
#X connect 14 0 13 0;
#X connect 14 0 21 0;
#X connect 15 0 9 0;
#X connect 16 0 15 0;
#X connect 17 0 26 0;
#X connect 18 0 17 1;
#X connect 19 0 18 0;
#X connect 20 0 19 0;
#X connect 21 0 20 0;
#X connect 22 0 17 0;
#X connect 23 0 24 0;
#X connect 24 0 22 0;
#X connect 26 0 25 0;
#X connect 27 0 2 0;
#X restore 845 1124 pd FindStartEndPosition2;
#X obj 845 1097 t f;
#X msg 917 857 0.001;
#X obj 986 1149 t b;
#X obj 845 1151 t b;
#X msg 915 1098 0.989;
#X msg 762 57 symbol s\$0;
#X obj 733 118 symbol;
#X symbolatom 764 84 10 0 0 0 - - -;
#X obj 644 70 delay 20;
#X obj 741 156 s infosoundtable;
#X obj 942 612 r trk-id;
#X floatatom 942 642 5 0 0 0 - - -;
#X obj 942 667 t f;
#X obj 942 690 ==;
#X floatatom 942 711 5 0 0 0 - - -;
#X obj 943 736 tgl 15 0 empty empty empty 17 7 0 10 -262144 -1 -1 0
1;
#X obj 897 759 spigot 0;
#X obj 1135 1115 r trk-id;
#X floatatom 1135 1145 5 0 0 0 - - -;
#X obj 1135 1170 t f;
#X obj 1136 1193 ==;
#X floatatom 1135 1214 5 0 0 0 - - -;
#X obj 1136 1239 tgl 15 0 empty empty empty 17 7 0 10 -262144 -1 -1
0 1;
#X obj 1090 1262 spigot 0;
#X obj 714 717 t b b;
#X obj 19 417 *~;
#X obj 56 414 f;
#X obj 44 390 t f f;
#X msg 56 441 set \$1;
#X obj 56 467 s;
#X obj 18 113 tabplay~ s\$0;
#X obj 38 219 r CurrentStepVel;
#X floatatom 38 238 5 0 0 0 - - -;
#X floatatom 97 105 5 0 0 0 - - -;
#X floatatom 82 155 5 0 0 0 - - -;
#X obj 82 132 * 10;
#X obj 82 175 int;
#X floatatom 80 196 5 0 0 0 - - -;
#X floatatom 65 286 5 0 0 0 - - -;
#X obj 35 368 *~;
#X obj 65 262 *;
#X floatatom 65 339 5 0 0 0 - - -;
#X obj 65 312 / 10;
#X obj 19 30 r MultiSamplePlayer-\$1;
#X obj 347 10 r padnum;
#X floatatom 87 376 5 0 0 0 - - -;
#X obj 1041 871 r oneshotorloop-Trigger-\$1;
#X obj 276 21 t f;
#X obj 43 56 t a;
#X msg 44 161 play;
#X obj 504 389 s playedpreview;
#X symbolatom 538 292 80 0 0 0 - - -;
#X msg 415 269 0;
#X obj 416 292 t f;
#X obj 417 318 pack f s;
#X obj 416 340 unpack f s;
#X obj 415 242 t b;
#X symbolatom 343 206 10 0 0 0 - - -;
#X obj 197 383 t s;
#X obj 1063 280 clone -s 0 OBFindStepVel 32;
#X connect 2 0 4 0;
#X connect 2 0 25 0;
#X connect 3 0 114 1;
#X connect 3 1 2 1;
#X connect 4 0 12 0;
#X connect 5 0 165 0;
#X connect 6 0 7 0;
#X connect 7 0 8 0;
#X connect 7 1 9 1;
#X connect 8 0 9 0;
#X connect 9 0 10 0;
#X connect 10 0 11 0;
#X connect 10 0 49 0;
#X connect 11 0 176 0;
#X connect 14 0 134 0;
#X connect 14 0 142 0;
#X connect 14 0 148 0;
#X connect 14 1 33 0;
#X connect 14 1 3 0;
#X connect 14 1 113 0;
#X connect 14 1 145 0;
#X connect 14 1 151 0;
#X connect 14 2 2 0;
#X connect 14 2 144 0;
#X connect 14 2 163 0;
#X connect 14 3 15 0;
#X connect 15 0 17 0;
#X connect 15 0 169 0;
#X connect 15 0 172 1;
#X connect 15 1 16 0;
#X connect 16 0 17 1;
#X connect 17 0 20 0;
#X connect 17 0 23 0;
#X connect 17 0 54 0;
#X connect 17 0 60 0;
#X connect 18 0 67 0;
#X connect 18 0 66 0;
#X connect 18 1 115 0;
#X connect 20 0 18 0;
#X connect 22 0 62 0;
#X connect 23 0 22 0;
#X connect 25 0 63 0;
#X connect 29 0 30 0;
#X connect 30 0 64 0;
#X connect 31 0 65 0;
#X connect 31 0 123 0;
#X connect 31 0 126 0;
#X connect 32 0 34 0;
#X connect 33 0 29 0;
#X connect 34 0 35 0;
#X connect 35 0 42 0;
#X connect 35 1 29 1;
#X connect 35 1 43 0;
#X connect 35 1 174 0;
#X connect 36 0 38 0;
#X connect 36 0 40 0;
#X connect 36 0 41 0;
#X connect 37 0 38 1;
#X connect 38 0 39 0;
#X connect 39 0 34 0;
#X connect 39 1 34 1;
#X connect 43 0 131 1;
#X connect 43 0 138 1;
#X connect 44 0 45 0;
#X connect 45 0 46 0;
#X connect 46 0 177 0;
#X connect 48 0 81 1;
#X connect 49 0 51 1;
#X connect 50 0 56 0;
#X connect 50 1 57 0;
#X connect 51 0 52 0;
#X connect 52 0 53 0;
#X connect 53 0 50 0;
#X connect 54 0 55 0;
#X connect 55 0 51 0;
#X connect 59 0 61 0;
#X connect 60 0 59 0;
#X connect 61 0 58 0;
#X connect 62 0 21 0;
#X connect 63 0 24 0;
#X connect 64 0 28 0;
#X connect 65 0 175 0;
#X connect 66 0 70 0;
#X connect 67 0 68 0;
#X connect 67 0 72 0;
#X connect 67 0 86 1;
#X connect 68 0 69 0;
#X connect 69 0 77 0;
#X connect 69 0 99 0;
#X connect 71 0 69 1;
#X connect 73 0 75 0;
#X connect 74 0 72 0;
#X connect 74 0 91 1;
#X connect 75 0 86 0;
#X connect 77 0 48 0;
#X connect 77 0 76 0;
#X connect 78 0 68 0;
#X connect 79 0 80 0;
#X connect 80 0 78 0;
#X connect 81 0 76 0;
#X connect 83 0 74 0;
#X connect 84 0 68 1;
#X connect 85 1 82 0;
#X connect 85 2 87 0;
#X connect 86 0 85 0;
#X connect 88 0 89 0;
#X connect 89 0 90 0;
#X connect 90 0 91 0;
#X connect 91 0 92 0;
#X connect 92 0 68 0;
#X connect 93 0 96 0;
#X connect 94 0 93 0;
#X connect 95 0 94 0;
#X connect 97 0 98 0;
#X connect 98 0 99 0;
#X connect 99 0 100 0;
#X connect 100 0 101 0;
#X connect 101 0 103 0;
#X connect 102 0 101 1;
#X connect 103 0 118 0;
#X connect 104 0 105 0;
#X connect 105 0 107 0;
#X connect 106 0 108 0;
#X connect 106 0 117 2;
#X connect 107 0 106 0;
#X connect 108 0 109 0;
#X connect 109 0 110 0;
#X connect 110 0 111 0;
#X connect 112 0 97 0;
#X connect 113 0 48 1;
#X connect 114 0 76 1;
#X connect 115 0 78 0;
#X connect 116 0 84 0;
#X connect 116 0 122 0;
#X connect 116 1 114 0;
#X connect 116 1 119 0;
#X connect 117 0 121 0;
#X connect 117 1 120 0;
#X connect 118 0 117 0;
#X connect 119 0 103 0;
#X connect 120 0 80 0;
#X connect 121 0 141 0;
#X connect 122 0 117 1;
#X connect 123 0 125 0;
#X connect 124 0 127 0;
#X connect 125 0 124 1;
#X connect 126 0 124 0;
#X connect 128 0 129 0;
#X connect 129 0 130 0;
#X connect 130 0 131 0;
#X connect 131 0 132 0;
#X connect 132 0 133 0;
#X connect 133 0 134 1;
#X connect 134 0 116 0;
#X connect 135 0 136 0;
#X connect 136 0 137 0;
#X connect 137 0 138 0;
#X connect 138 0 139 0;
#X connect 139 0 140 0;
#X connect 140 0 141 1;
#X connect 141 0 84 0;
#X connect 142 0 112 0;
#X connect 142 1 116 0;
#X connect 143 0 13 0;
#X connect 144 0 146 0;
#X connect 145 0 143 1;
#X connect 145 1 144 1;
#X connect 146 0 147 0;
#X connect 148 0 143 0;
#X connect 148 0 157 0;
#X connect 149 0 150 0;
#X connect 150 0 158 0;
#X connect 151 0 153 0;
#X connect 152 0 154 0;
#X connect 153 0 152 0;
#X connect 154 0 155 0;
#X connect 155 0 158 1;
#X connect 156 0 160 0;
#X connect 157 0 143 0;
#X connect 158 0 156 0;
#X connect 159 0 157 1;
#X connect 160 0 159 0;
#X connect 161 0 166 0;
#X connect 162 0 32 0;
#X connect 164 0 104 0;
#X connect 165 0 6 0;
#X connect 166 0 14 0;
#X connect 167 0 14 0;
#X connect 170 0 171 0;
#X connect 171 0 172 0;
#X connect 172 0 173 0;
#X connect 173 1 168 0;
#X connect 174 0 170 0;
#X connect 175 0 15 0;
#X connect 176 0 147 1;
#X connect 176 0 12 1;
