#N struct 1057-bang float c float bc symbol text;
#N struct 1058-template-drawthings float x float y float c float cf
float w;
#N canvas -4 -4 1280 718 10;
#X obj 30 144 outlet;
#N canvas 0 85 450 300 \$0-display 0;
#X scalar 1057-bang 777 777 Button_Text \;;
#X coords 0 0 1 1 177 53 2 0 0;
#X restore 30 30 pd \$0-display;
#X obj 88 194 bng 15 250 50 1 empty empty empty 17 7 0 10 -262144 -1
-1;
#N canvas 333 405 348 286 \$0-bang 0;
#X obj 44 109 unpack s p f;
#X obj 44 224 outlet;
#X obj 44 132 sel click;
#X obj 92 224 set \$0-bang c;
#X obj 44 155 t b b b;
#X obj 92 178 del 250;
#X msg 92 201 777;
#X obj 44 86 struct \$0-bang float c float bc symbol text;
#X obj 44 63 filledpolygon c bc 0 0 0 0 1 1 1 1 0;
#X obj 44 40 drawtext text 0.1 0.3;
#X msg 122 201 555;
#X connect 0 0 2 0;
#X connect 0 1 3 1;
#X connect 2 0 4 0;
#X connect 4 0 1 0;
#X connect 4 1 5 0;
#X connect 4 2 10 0;
#X connect 5 0 6 0;
#X connect 6 0 3 0;
#X connect 7 0 0 0;
#X connect 10 0 3 0;
#X restore 30 122 pd \$0-bang;
#X obj 77 147 bng 15 250 50 1 empty empty empty 17 7 0 10 -262144 -1
-1;
#X obj 30 191 loadbang;
#X obj 141 260 s pd-\$0-display;
#X obj 141 283 symbol pd-\$0-display;
#X msg 141 306 traverse \$1 \, bang;
#X obj 141 329 pointer;
#X msg 141 237 clear;
#X obj 30 352 append \$0-bang c bc;
#X obj 30 375 t b p;
#X msg 30 329 777 777;
#X msg 30 398 symbol Button_Text;
#X obj 30 421 set -symbol \$0-bang text;
#X obj 30 214 t b b b;
#X obj 30 99 namecanvas \$0-this;
#X floatatom 522 206 5 0 0 0 - - -;
#X obj 522 251 pack;
#X obj 522 343 s \$0-this;
#X obj 587 343 s pd-\$0-display;
#X floatatom 562 206 5 0 0 0 - - -;
#X obj 562 228 t b f;
#X obj 522 274 t l l;
#X msg 522 320 coords 0 \$2 \$1 0 \$1 \$2 2 30 30;
#X msg 587 297 coords 0 0 1 1 \$1 \$2 2 0 0;
#X obj 842 227 hradio 20 1 1 4 \$0-director empty send to area -80
8 0 10 -4032 -258113 -1 0;
#X obj 843 255 s \$0-main-director;
#X msg 843 206 0;
#X obj 869 55 bng 20 250 50 0 empty empty empty 17 7 0 10 -4032 -1
-1;
#X obj 862 310 s \$0-area-1, f 14;
#N canvas 436 28 745 631 DrawBtn 0;
#X msg 92 -179 new;
#X obj 170 -110 float;
#X obj 213 -109 + 1;
#X obj 180 -240 bng 15 250 50 0 empty empty empty 17 7 0 10 -262144
-1 -1;
#X msg 243 -109 0;
#X obj 192 -31 tgl 15 0 empty empty empty 17 7 0 10 -262144 -1 -1 0
1;
#X msg 192 -55 0;
#X obj 168 -265 inlet;
#X text 194 -159 100ms seems to be the fastest draw speed for this
;
#X obj 168 0 sel 0 1 2 3 4 5 6 7 8 9 10 11 12 13 14 15 16 17 18 19
20 21 22 23 24 25 26 27 28 29 30 32 32 33 34;
#X obj 192 -77 sel 34;
#X obj 91 190 s \$0-params;
#X obj 543 -173 vsl 15 128 0 255 0 0 empty empty empty 0 -9 0 10 -262144
-1 -1 12700 1;
#X floatatom 542 -30 5 0 0 0 - - -;
#X obj 133 -159 metro 100;
#X text 566 212 Background Box;
#X text 229 140 Btn Box;
#X text 228 99 Right Circle;
#X text 184 63 Left Circles;
#X msg 199 155 fillbox 8.5 2 81.5 17 0 0 2;
#N canvas 64 109 279 313 canvascolor 0;
#X obj 44 40 inlet;
#X obj 104 155 +;
#X obj 44 201 +;
#X obj 44 224 - 1;
#X obj 50 302 outlet;
#X obj 44 63 unpack f f f;
#X floatatom 117 260 5 0 127 0 - - -;
#X obj 44 109 * 65536;
#X obj 104 109 * 256;
#X obj 154 109 * 1;
#X obj 43 264 t f;
#X connect 0 0 5 0;
#X connect 1 0 2 1;
#X connect 2 0 3 0;
#X connect 3 0 6 0;
#X connect 3 0 10 0;
#X connect 5 0 7 0;
#X connect 5 1 8 0;
#X connect 5 2 9 0;
#X connect 7 0 2 0;
#X connect 8 0 1 0;
#X connect 9 0 1 1;
#X connect 10 0 4 0;
#X restore 553 158 pd canvascolor;
#X obj 553 74 pack f f f f;
#X obj 552 96 t l;
#X obj 553 117 list trim;
#X msg 553 136 \$1 \$2 \$3;
#X obj 541 1 t f b;
#X msg 552 26 0;
#X obj 550 46 t f;
#X obj 600 -1 t f b;
#X obj 644 0 t f b;
#X obj 601 -166 vsl 15 128 0 255 0 0 empty empty empty 0 -9 0 10 -262144
-1 -1 498 1;
#X floatatom 600 -23 5 0 0 0 - - -;
#X obj 646 -169 vsl 15 128 0 255 0 0 empty empty empty 0 -9 0 10 -262144
-1 -1 0 1;
#X floatatom 645 -26 5 0 0 0 - - -;
#X msg 561 -209 255;
#X msg 622 -210 0;
#X msg 590 -209 10;
#X obj 572 -261 delay 10;
#X obj 570 -243 t b b b;
#X msg 550 231 fillbox 0 0 90 17 \$1 \$1 0;
#X msg 186 83 fillcircle 10 9.5 10 8 0 0 1;
#X obj 161 -215 t b b b b b;
#X msg 196 116 fillcircle 80 9.5 10 8 0 0 1;
#X obj 492 184 f;
#X obj 453 59 t b;
#X connect 0 0 11 0;
#X connect 0 0 44 0;
#X connect 1 0 2 0;
#X connect 1 0 9 0;
#X connect 1 0 10 0;
#X connect 2 0 1 1;
#X connect 3 0 41 0;
#X connect 4 0 1 1;
#X connect 5 0 14 0;
#X connect 6 0 5 0;
#X connect 7 0 41 0;
#X connect 9 2 40 0;
#X connect 9 3 42 0;
#X connect 9 4 19 0;
#X connect 10 0 4 0;
#X connect 10 0 6 0;
#X connect 12 0 13 0;
#X connect 13 0 25 0;
#X connect 14 0 1 0;
#X connect 19 0 11 0;
#X connect 20 0 43 0;
#X connect 21 0 22 0;
#X connect 22 0 23 0;
#X connect 23 0 24 0;
#X connect 24 0 20 0;
#X connect 25 0 21 1;
#X connect 25 1 26 0;
#X connect 26 0 27 0;
#X connect 27 0 21 0;
#X connect 28 0 21 2;
#X connect 28 1 26 0;
#X connect 29 0 21 3;
#X connect 29 1 26 0;
#X connect 30 0 31 0;
#X connect 31 0 28 0;
#X connect 32 0 33 0;
#X connect 33 0 29 0;
#X connect 34 0 12 0;
#X connect 35 0 32 0;
#X connect 36 0 30 0;
#X connect 37 0 38 0;
#X connect 38 0 34 0;
#X connect 38 1 36 0;
#X connect 38 2 35 0;
#X connect 39 0 11 0;
#X connect 40 0 11 0;
#X connect 41 1 0 0;
#X connect 41 2 5 0;
#X connect 41 3 4 0;
#X connect 41 4 37 0;
#X connect 42 0 11 0;
#X connect 43 0 39 0;
#X connect 44 0 26 0;
#X restore 782 118 pd DrawBtn;
#X obj 136 -11 r \$0-area-1;
#N canvas 570 172 450 300 params-director 0;
#X obj 84 12 r \$0-director;
#X obj 34 169 r \$0-params;
#X obj 34 228 s \$0-area-1;
#X obj 34 200 spigot;
#X msg 333 121 0;
#X obj 112 170 r \$0-params;
#X obj 112 201 spigot;
#X obj 188 170 r \$0-params;
#X obj 188 201 spigot;
#X obj 110 229 s \$0-area-2;
#X obj 188 229 s \$0-area-3;
#X obj 67 104 t b b;
#X msg 67 129 1;
#X obj 112 104 t b b;
#X msg 112 129 1;
#X obj 157 104 t b b;
#X msg 157 129 1;
#X obj 84 43 sel 0 1 2 3;
#X connect 0 0 17 0;
#X connect 1 0 3 0;
#X connect 3 0 2 0;
#X connect 4 0 3 1;
#X connect 4 0 6 1;
#X connect 4 0 8 1;
#X connect 5 0 6 0;
#X connect 6 0 9 0;
#X connect 7 0 8 0;
#X connect 8 0 10 0;
#X connect 11 0 12 0;
#X connect 11 1 4 0;
#X connect 12 0 3 1;
#X connect 13 0 14 0;
#X connect 13 1 4 0;
#X connect 14 0 6 1;
#X connect 15 0 16 0;
#X connect 15 1 4 0;
#X connect 16 0 8 1;
#X connect 17 0 11 0;
#X connect 17 1 13 0;
#X connect 17 2 15 0;
#X connect 17 3 12 0;
#X connect 17 3 14 0;
#X connect 17 3 16 0;
#X restore 225 -12 pd params-director;
#X obj 830 153 t b b b b b;
#X obj 788 86 t b b b;
#X obj 31 32 OBButton-draw;
#X obj 509 53 loadbang;
#X obj 481 107 \$1;
#X floatatom 478 179 5 0 0 0 - - -;
#X floatatom 521 179 5 0 0 0 - - -;
#X obj 517 107 \$2;
#X floatatom 565 182 5 0 0 0 - - -;
#X obj 562 102 \$3;
#X obj 630 205 pack f f f;
#X msg 629 163 0;
#X obj 630 183 t f;
#X obj 517 130 t f f b;
#X obj 569 130 t f f b;
#X msg 867 287 size \$2 \$3 100 17 \, new;
#X connect 2 0 16 0;
#X connect 3 0 0 0;
#X connect 3 0 4 0;
#X connect 5 0 16 0;
#X connect 7 0 8 0;
#X connect 8 0 9 0;
#X connect 9 0 11 2;
#X connect 10 0 6 0;
#X connect 11 0 12 0;
#X connect 12 0 14 0;
#X connect 12 1 15 1;
#X connect 13 0 11 0;
#X connect 14 0 15 0;
#X connect 16 0 13 0;
#X connect 16 1 7 0;
#X connect 16 2 10 0;
#X connect 18 0 19 0;
#X connect 19 0 24 0;
#X connect 22 0 23 0;
#X connect 23 0 19 0;
#X connect 23 1 19 1;
#X connect 24 0 25 0;
#X connect 24 1 26 0;
#X connect 25 0 20 0;
#X connect 26 0 21 0;
#X connect 27 0 28 0;
#X connect 29 0 27 0;
#X connect 30 0 36 0;
#X connect 33 0 37 0;
#X connect 35 1 29 0;
#X connect 35 2 50 0;
#X connect 35 3 30 0;
#X connect 36 0 32 0;
#X connect 38 0 39 0;
#X connect 38 0 44 0;
#X connect 38 0 42 0;
#X connect 39 0 40 0;
#X connect 41 0 18 0;
#X connect 42 0 48 0;
#X connect 43 0 22 0;
#X connect 44 0 49 0;
#X connect 45 0 50 0;
#X connect 46 0 47 0;
#X connect 47 0 45 0;
#X connect 48 0 41 0;
#X connect 48 1 45 1;
#X connect 48 2 46 0;
#X connect 49 0 43 0;
#X connect 49 1 45 2;
#X connect 49 2 46 0;
#X connect 50 0 31 0;
#X coords 0 53 177 0 177 53 2 30 30;
