#N canvas 85 61 1117 722 10;
#X obj 2 1 bng 15 250 50 0 \$1-EzBtn-send \$1-EzBtn-recv empty 3 3
0 10 -262144 -1 -1;
#X obj 366 32 loadbang;
#X floatatom 169 103 5 0 0 0 - - -;
#X floatatom 225 100 5 0 0 0 - - -;
#X text 162 45 width;
#X text 207 43 height;
#X obj 282 75 \$1;
#X obj 16 158 print bangbtn-\$0;
#X obj 607 208 s \$1-EzBtntxt-recv;
#X floatatom 277 101 5 0 0 0 - - -;
#X obj 169 169 pack f f f f, f 23;
#X obj 169 131 t b f;
#X obj 225 127 t b f;
#X obj 277 132 t b f;
#X msg 170 225 \; \$4-EzBtntxt-recv vis_size \$2 \$3;
#X text 257 43 button id;
#X obj 405 190 t b f;
#X obj 464 189 t b f;
#X obj 405 227 pack f f f f, f 22;
#X text 432 258 Adjust Font Size;
#X obj 162 78 \$2;
#X obj 226 73 \$3;
#X obj 510 187 t b f;
#X msg 406 277 \; \$4-EzBtntxt-recv label_font \$2 \$3;
#X obj 466 143 - 4;
#X msg 18 423 \; \$4-EzBtntxt-recv label_pos \$2 \$3;
#X floatatom 20 273 5 0 0 0 - - -;
#X obj 19 331 t b f;
#X obj 78 330 t b f;
#X obj 19 368 pack f f f f, f 22;
#X obj 124 328 t b f;
#X floatatom 77 264 5 0 0 0 - - -;
#X obj 77 286 * 2;
#X obj 93 242 / 4, f 4;
#X obj 23 240 / 8, f 4;
#X floatatom 784 472 5 0 0 0 - - -;
#X obj 794 334 vsl 15 128 -1920 1920 0 0 empty empty empty 0 -9 0 10
-262144 -1 -1 0 1;
#X obj 19 307 -;
#X text 780 300 offset;
#X obj 307 313 vsl 15 128 0 1920 0 0 empty empty empty 0 -9 0 10 -262144
-1 -1 0 1;
#X text 391 319 zero real start position;
#X floatatom 318 458 5 0 0 0 - - -;
#X text 345 343 slider to be used if adjustment is needed. If positioning
is needed change the 0 value of this message box to the value of the
slider outlet maually. To save the real start position change the message
not the number atom;
#X text 817 393 range from -1920 to 1920 offset can be applied to the
text position. This is optional. To save the offset change the message
not the number atom. The inlet for the slider is intentionally skiped.
;
#X obj 18 1 bng 15 250 50 0 empty empty empty 17 7 0 10 -262144 -1
-1;
#X obj 33 1 bng 15 250 50 0 empty empty empty 17 7 0 10 -262144 -1
-1;
#X obj 49 1 bng 15 250 50 0 empty empty empty 17 7 0 10 -262144 -1
-1;
#X obj 65 1 bng 15 250 50 0 empty empty empty 17 7 0 10 -262144 -1
-1;
#X obj 81 1 bng 15 250 50 0 empty empty empty 17 7 0 10 -262144 -1
-1;
#X obj 97 1 bng 15 250 50 0 empty empty empty 17 7 0 10 -262144 -1
-1;
#X obj 113 1 bng 15 250 50 0 empty empty empty 17 7 0 10 -262144 -1
-1;
#X obj 129 1 bng 15 250 50 0 empty empty empty 17 7 0 10 -262144 -1
-1;
#X obj 145 1 bng 15 250 50 0 empty empty empty 17 7 0 10 -262144 -1
-1;
#X obj 161 1 bng 15 250 50 0 empty empty empty 17 7 0 10 -262144 -1
-1;
#X obj 177 1 bng 15 250 50 0 empty empty empty 17 7 0 10 -262144 -1
-1;
#X obj 193 1 bng 15 250 50 0 empty empty empty 17 7 0 10 -262144 -1
-1;
#X obj 209 1 bng 15 250 50 0 empty empty empty 17 7 0 10 -262144 -1
-1;
#X obj 225 1 bng 15 250 50 0 empty empty empty 17 7 0 10 -262144 -1
-1;
#X obj 241 1 bng 15 250 50 0 empty empty empty 17 7 0 10 -262144 -1
-1;
#X obj 257 1 bng 15 250 50 0 empty empty empty 17 7 0 10 -262144 -1
-1;
#X obj 273 1 bng 15 250 50 0 empty empty empty 17 7 0 10 -262144 -1
-1;
#X obj 289 1 bng 15 250 50 0 empty empty empty 17 7 0 10 -262144 -1
-1;
#X obj 305 1 bng 15 250 50 0 empty empty empty 17 7 0 10 -262144 -1
-1;
#X obj 321 1 bng 15 250 50 0 empty empty empty 17 7 0 10 -262144 -1
-1;
#X obj 337 1 bng 15 250 50 0 empty empty empty 17 7 0 10 -262144 -1
-1;
#X obj 353 1 bng 15 250 50 0 empty empty empty 17 7 0 10 -262144 -1
-1;
#X obj 369 1 bng 15 250 50 0 empty empty empty 17 7 0 10 -262144 -1
-1;
#X obj 385 1 bng 15 250 50 0 empty empty empty 17 7 0 10 -262144 -1
-1;
#X obj 401 1 bng 15 250 50 0 empty empty empty 17 7 0 10 -262144 -1
-1;
#X obj 417 1 bng 15 250 50 0 empty empty empty 17 7 0 10 -262144 -1
-1;
#X obj 433 1 bng 15 250 50 0 empty empty empty 17 7 0 10 -262144 -1
-1;
#X obj 449 1 bng 15 250 50 0 empty empty empty 17 7 0 10 -262144 -1
-1;
#X obj 465 1 bng 15 250 50 0 empty empty empty 17 7 0 10 -262144 -1
-1;
#X obj 481 1 bng 15 250 50 0 empty empty empty 17 7 0 10 -262144 -1
-1;
#X obj 497 1 bng 15 250 50 0 empty empty empty 17 7 0 10 -262144 -1
-1;
#X obj 513 1 bng 15 250 50 0 empty empty empty 17 7 0 10 -262144 -1
-1;
#X obj 529 1 bng 15 250 50 0 empty empty empty 17 7 0 10 -262144 -1
-1;
#X obj 545 1 bng 15 250 50 0 empty empty empty 17 7 0 10 -262144 -1
-1;
#X obj 561 1 bng 15 250 50 0 empty empty empty 17 7 0 10 -262144 -1
-1;
#X obj 577 1 bng 15 250 50 0 empty empty empty 17 7 0 10 -262144 -1
-1;
#X obj 593 1 bng 15 250 50 0 empty empty empty 17 7 0 10 -262144 -1
-1;
#X obj 609 1 bng 15 250 50 0 empty empty empty 17 7 0 10 -262144 -1
-1;
#X obj 625 1 bng 15 250 50 0 empty empty empty 17 7 0 10 -262144 -1
-1;
#X obj 641 1 bng 15 250 50 0 empty empty empty 17 7 0 10 -262144 -1
-1;
#X obj 653 1 bng 15 250 50 0 empty empty empty 17 7 0 10 -262144 -1
-1;
#X obj 669 1 bng 15 250 50 0 empty empty empty 17 7 0 10 -262144 -1
-1;
#X obj 685 1 bng 15 250 50 0 empty empty empty 17 7 0 10 -262144 -1
-1;
#X obj 701 1 bng 15 250 50 0 empty empty empty 17 7 0 10 -262144 -1
-1;
#X obj 717 1 bng 15 250 50 0 empty empty empty 17 7 0 10 -262144 -1
-1;
#X obj 733 1 bng 15 250 50 0 empty empty empty 17 7 0 10 -262144 -1
-1;
#X obj 749 1 bng 15 250 50 0 empty empty empty 17 7 0 10 -262144 -1
-1;
#X obj 765 1 bng 15 250 50 0 empty empty empty 17 7 0 10 -262144 -1
-1;
#X obj 781 1 bng 15 250 50 0 empty empty empty 17 7 0 10 -262144 -1
-1;
#X obj 797 1 bng 15 250 50 0 empty empty empty 17 7 0 10 -262144 -1
-1;
#X obj 813 1 bng 15 250 50 0 empty empty empty 17 7 0 10 -262144 -1
-1;
#X obj 829 1 bng 15 250 50 0 empty empty empty 17 7 0 10 -262144 -1
-1;
#X obj 845 1 bng 15 250 50 0 empty empty empty 17 7 0 10 -262144 -1
-1;
#X obj 861 1 bng 15 250 50 0 empty empty empty 17 7 0 10 -262144 -1
-1;
#X obj 877 1 bng 15 250 50 0 empty empty empty 17 7 0 10 -262144 -1
-1;
#X obj 893 1 bng 15 250 50 0 empty empty empty 17 7 0 10 -262144 -1
-1;
#X obj 909 1 bng 15 250 50 0 empty empty empty 17 7 0 10 -262144 -1
-1;
#X obj 925 1 bng 15 250 50 0 empty empty empty 17 7 0 10 -262144 -1
-1;
#X obj 941 1 bng 15 250 50 0 empty empty empty 17 7 0 10 -262144 -1
-1;
#X obj 957 1 bng 15 250 50 0 empty empty empty 17 7 0 10 -262144 -1
-1;
#X obj 973 1 bng 15 250 50 0 empty empty empty 17 7 0 10 -262144 -1
-1;
#X obj 989 1 bng 15 250 50 0 empty empty empty 17 7 0 10 -262144 -1
-1;
#X obj 1005 1 bng 15 250 50 0 empty empty empty 17 7 0 10 -262144 -1
-1;
#X obj 1021 1 bng 15 250 50 0 empty empty empty 17 7 0 10 -262144 -1
-1;
#X floatatom 847 262 5 0 0 0 - - -;
#X text 198 204 Set size of the button;
#X text 33 407 Adjust the Text position;
#X text 656 131 Set the text of the button;
#X obj 0 0 cnv 15 70 17 \$1-EzBtntxt-send \$1-EzBtntxt-recv Play 8
8 0 13 -262144 -33289 0;
#X msg 749 302 0;
#X obj 77 505 outlet;
#X obj 609 26 inlet;
#X obj 600 141 pack s s;
#X msg 604 179 label \$1;
#X obj 603 103 t a a;
#X obj 385 455 pack;
#X obj 385 547 s \$0-this;
#X obj 425 432 t b f;
#X obj 385 478 t l l;
#X obj 168 540 namecanvas \$0-this;
#X msg 385 524 coords 0 \$2 \$1 0 \$1 \$2 2 0 0;
#X obj 797 43 inlet;
#X msg 366 299 5;
#X obj 712 25 inlet;
#X obj 918 53 inlet;
#X obj 877 107 t b f;
#X obj 936 106 t b f;
#X obj 877 144 pack f f f f, f 22;
#X obj 982 104 t b f;
#X msg 876 199 \; \$4-EzBtntxt-recv color \$2 \$3;
#X obj 968 50 inlet;
#X text 891 183 Adjust Color Of Button;
#X obj 17 31 print \$0;
#X connect 0 0 114 0;
#X connect 1 0 6 0;
#X connect 1 0 20 0;
#X connect 1 0 21 0;
#X connect 1 0 113 0;
#X connect 2 0 11 0;
#X connect 2 0 16 0;
#X connect 2 0 34 0;
#X connect 2 0 119 0;
#X connect 3 0 12 0;
#X connect 3 0 24 0;
#X connect 3 0 33 0;
#X connect 3 0 121 0;
#X connect 6 0 9 0;
#X connect 9 0 13 0;
#X connect 9 0 22 0;
#X connect 9 0 30 0;
#X connect 9 0 132 0;
#X connect 10 0 14 0;
#X connect 11 0 10 0;
#X connect 11 1 10 1;
#X connect 12 0 10 0;
#X connect 12 1 10 2;
#X connect 13 0 10 0;
#X connect 13 1 10 3;
#X connect 16 0 18 0;
#X connect 16 1 18 1;
#X connect 17 0 18 0;
#X connect 17 1 18 2;
#X connect 18 0 23 0;
#X connect 20 0 2 0;
#X connect 21 0 3 0;
#X connect 22 0 18 0;
#X connect 22 1 18 3;
#X connect 24 0 17 0;
#X connect 26 0 37 0;
#X connect 27 0 29 0;
#X connect 27 1 29 1;
#X connect 28 0 29 0;
#X connect 28 1 29 2;
#X connect 29 0 25 0;
#X connect 30 0 29 0;
#X connect 30 1 29 3;
#X connect 31 0 32 0;
#X connect 32 0 28 0;
#X connect 33 0 31 0;
#X connect 34 0 26 0;
#X connect 35 0 37 1;
#X connect 36 0 35 0;
#X connect 37 0 27 0;
#X connect 39 0 41 0;
#X connect 41 0 26 0;
#X connect 44 0 0 0;
#X connect 45 0 0 0;
#X connect 46 0 0 0;
#X connect 47 0 0 0;
#X connect 48 0 0 0;
#X connect 49 0 0 0;
#X connect 50 0 0 0;
#X connect 51 0 0 0;
#X connect 52 0 0 0;
#X connect 53 0 0 0;
#X connect 54 0 0 0;
#X connect 55 0 0 0;
#X connect 56 0 0 0;
#X connect 57 0 0 0;
#X connect 58 0 0 0;
#X connect 59 0 0 0;
#X connect 60 0 0 0;
#X connect 61 0 0 0;
#X connect 62 0 0 0;
#X connect 63 0 0 0;
#X connect 64 0 0 0;
#X connect 65 0 0 0;
#X connect 66 0 0 0;
#X connect 67 0 0 0;
#X connect 68 0 0 0;
#X connect 69 0 0 0;
#X connect 70 0 0 0;
#X connect 71 0 0 0;
#X connect 72 0 0 0;
#X connect 73 0 0 0;
#X connect 74 0 0 0;
#X connect 75 0 0 0;
#X connect 76 0 0 0;
#X connect 77 0 0 0;
#X connect 78 0 0 0;
#X connect 79 0 0 0;
#X connect 80 0 0 0;
#X connect 81 0 0 0;
#X connect 82 0 0 0;
#X connect 83 0 0 0;
#X connect 84 0 0 0;
#X connect 85 0 0 0;
#X connect 86 0 0 0;
#X connect 87 0 0 0;
#X connect 88 0 0 0;
#X connect 89 0 0 0;
#X connect 90 0 0 0;
#X connect 91 0 0 0;
#X connect 92 0 0 0;
#X connect 93 0 0 0;
#X connect 94 0 0 0;
#X connect 95 0 0 0;
#X connect 96 0 0 0;
#X connect 97 0 0 0;
#X connect 98 0 0 0;
#X connect 99 0 0 0;
#X connect 100 0 0 0;
#X connect 101 0 0 0;
#X connect 102 0 0 0;
#X connect 103 0 0 0;
#X connect 104 0 0 0;
#X connect 105 0 0 0;
#X connect 106 0 0 0;
#X connect 107 0 0 0;
#X connect 108 0 39 0;
#X connect 113 0 35 0;
#X connect 115 0 118 0;
#X connect 116 0 117 0;
#X connect 117 0 8 0;
#X connect 118 0 116 0;
#X connect 118 0 116 1;
#X connect 119 0 122 0;
#X connect 121 0 119 0;
#X connect 121 1 119 1;
#X connect 122 0 124 0;
#X connect 124 0 120 0;
#X connect 125 0 0 0;
#X connect 126 0 41 0;
#X connect 127 0 108 0;
#X connect 128 0 129 0;
#X connect 129 0 131 0;
#X connect 129 1 131 1;
#X connect 130 0 131 0;
#X connect 130 1 131 2;
#X connect 131 0 133 0;
#X connect 132 0 131 0;
#X connect 132 1 131 3;
#X connect 134 0 130 0;
#X coords 0 17 70 0 70 17 2 0 0;
