#N canvas 0 50 450 300 10;
#X floatatom 105 92 5 0 0 0 - - -;
#X obj 214 93 r \$1-CurrentStepVel;
#X obj 160 223 pack \$1 \$2;
#X msg 161 244 \$2;
#X obj 160 281 s CurrentStepVel;
#X msg 100 137 \$1;
#X floatatom 204 159 5 0 0 0 - - -;
#X obj 206 127 t f;
#X obj 201 186 t f;
#X obj 134 189 t f;
#X obj 107 69 inlet;
#X obj 33 68 loadbang;
#X obj 98 117 \$1;
#X floatatom 161 264 5 0 0 0 - - -;
#X connect 0 0 12 0;
#X connect 1 0 7 0;
#X connect 2 0 3 0;
#X connect 3 0 13 0;
#X connect 5 0 9 0;
#X connect 6 0 8 0;
#X connect 7 0 6 0;
#X connect 8 0 2 1;
#X connect 9 0 2 0;
#X connect 10 0 0 0;
#X connect 11 0 12 0;
#X connect 12 0 5 0;
#X connect 13 0 4 0;
