#N canvas 558 159 450 385 10;
#X floatatom 105 92 5 0 0 0 - - -;
#X msg 100 137 \$1;
#X floatatom 204 159 5 0 0 0 - - -;
#X obj 206 127 t f;
#X obj 33 68 loadbang;
#X obj 98 117 \$1;
#X floatatom 167 284 5 0 0 0 - - -;
#X obj 158 246 unpack f f;
#X obj 159 223 pack f f;
#X obj 149 48 r currentstep;
#X floatatom 149 71 5 0 0 0 - - -;
#X obj 87 157 t b;
#X msg 129 194 0;
#X obj 201 186 t f b;
#X floatatom 361 130 5 0 0 0 - - -;
#X obj 363 149 t b f;
#X obj 363 176 \$1;
#X obj 363 211 mod;
#X obj 363 237 + 1;
#X obj 363 110 t f;
#X msg 364 53 32;
#X obj 199 351 s;
#X obj 224 320 symbol;
#X obj 171 320 t f;
#X msg 224 300 symbol ThisStepVel-\$1;
#X obj 345 83 r perseqsteps;
#X obj 214 93 r CurrentStepVel;
#X obj 29 226 s triggernewvel;
#X connect 0 0 5 0;
#X connect 0 0 24 0;
#X connect 1 0 11 0;
#X connect 2 0 13 0;
#X connect 3 0 2 0;
#X connect 4 0 5 0;
#X connect 5 0 1 0;
#X connect 6 0 23 0;
#X connect 7 1 6 0;
#X connect 8 0 7 0;
#X connect 9 0 10 0;
#X connect 10 0 0 0;
#X connect 11 0 12 0;
#X connect 12 0 8 0;
#X connect 13 0 8 1;
#X connect 13 1 12 0;
#X connect 14 0 15 0;
#X connect 15 0 16 0;
#X connect 15 1 17 1;
#X connect 16 0 17 0;
#X connect 17 0 18 0;
#X connect 19 0 14 0;
#X connect 22 0 21 1;
#X connect 23 0 21 0;
#X connect 24 0 22 0;
#X connect 25 0 19 0;
#X connect 26 0 3 0;
