#N struct 1046-template-drawthings float x float y float c float cf
float w;
#N struct 1047-template-drawthings float x float y float c float cf
float w;
#N struct 1076-template-drawthings float x float y float c float cf
float w;
#N canvas 0 2 1279 723 10;
#X declare -lib c:/users/David/pd-externals/zexy/zexy;
#X obj 20 31 object-draw;
#X msg 538 199 fillbox 700 400 800 500 990 900 1;
#X msg 538 349 dot 500 500 900 25;
#X msg 538 53 new;
#X msg 538 372 dot 500 500 990 23;
#X msg 538 456 polygon 300 200 350 250 320 250 320 400 280 400 280
250 250 250 300 200 900 2;
#X msg 538 148 line 100 200 300 400 900 8;
#X msg 538 495 fillpolygon 500 200 550 250 520 250 520 400 480 400
480 250 450 250 500 200 50 900 2;
#X msg 538 298 circle 300 400 25 25 90 2;
#N canvas 1150 223 684 494 blobs 0;
#X obj 252 247 random 50;
#X obj 97 307 pack f f f f;
#X obj 322 247 random 999;
#X obj 97 215 t b b b b;
#X obj 97 278 + 30;
#X obj 134 278 + 30;
#X obj 97 247 random 930;
#X obj 174 247 random 690;
#X obj 173 277 + 15;
#X obj 51 6 inlet;
#X msg 97 330 fillcircle \$1 \$2 \$3 \$3 \$4 \$4 1;
#X obj 184 149 float;
#X obj 223 148 + 1;
#X msg 184 118 0;
#X obj 51 50 metro 100;
#X obj 52 29 tgl 15 0 empty empty empty 17 7 0 10 -262144 -1 -1 0 1
;
#X obj 184 176 sel 100;
#X obj 97 370 s \$0-params;
#X connect 0 0 8 0;
#X connect 1 0 10 0;
#X connect 2 0 1 3;
#X connect 3 0 6 0;
#X connect 3 1 7 0;
#X connect 3 2 0 0;
#X connect 3 3 2 0;
#X connect 4 0 1 0;
#X connect 5 0 1 1;
#X connect 6 0 4 0;
#X connect 7 0 5 0;
#X connect 8 0 1 2;
#X connect 9 0 15 0;
#X connect 10 0 17 0;
#X connect 11 0 12 0;
#X connect 11 0 3 0;
#X connect 11 0 16 0;
#X connect 12 0 11 1;
#X connect 13 0 11 1;
#X connect 13 0 15 0;
#X connect 14 0 11 0;
#X connect 15 0 14 0;
#X connect 16 0 13 0;
#X restore 628 574 pd blobs;
#X obj 628 549 bng 20 250 50 0 empty empty empty 17 7 0 10 -4032 -1
-1;
#X msg 538 173 box 300 400 500 500 9 2;
#X msg 538 226 ellipse 500 200 760 360 909 3;
#X msg 538 260 fillellipse 300 100 760 180 990 59 1;
#X msg 538 323 fillcircle 500 630 100 100 9 99 3;
#X msg 538 398 arc 190 400 150 250 60 5 90 180;
#X msg 538 426 fillarc 250 410 150 200 900 0 3 46.5 120;
#X text 913 146 line start.x start.y end.x end.y colour line-weight
;
#X text 914 172 box left.x top.y right.x bottom.y colour line-weight
;
#X text 915 195 fillbox left.x top.y right.x bottom.y fill-colour border-colour
line-weight;
#X text 914 298 circle centre.x centre.y width height colour line-weight
;
#X text 915 318 fillcircle centre.x centre.y width height fill-colour
border-colour line-weight;
#X text 914 352 dot centre.x centre.y colour radius;
#X text 914 391 arc centre.x centre.y width height colour line-weight
start.point end.point;
#X text 915 420 fillarc centre.x centre.y width height fill-colour
border-colour line-weight start.point end.point;
#X text 915 455 polygon (8 pairs of x/y co-ords) colour line-weight
;
#X text 916 494 fillpolygon (8 pairs of x/y co-ords) fill-colour border-colour
line-weight;
#X text 660 550 example 1;
#X text 849 550 example 2;
#X text 996 550 example 3;
#X obj 537 4 cnv 15 300 24 empty empty object-draw 4 12 0 14 -18465
-4032 0;
#X text 537 28 A drawing arena for graphics creation using simple messages
;
#X obj 565 54 loadbang;
#N canvas 622 50 1129 970 mickey 0;
#X msg 169 24 new;
#X msg 515 404 arc 500 365 330 280 0 3 46 132;
#X msg 515 584 arc 500 414 130 205 0 9 46 110;
#X msg 515 504 fillarc 500 414 130 205 0 0 1 43 100;
#X msg 515 424 arc 500 313 300 230 0 6 46 110;
#X msg 515 484 fillarc 500 414 130 205 0 0 1 50 100;
#X msg 515 524 fillarc 500 414 130 205 900 0 3 47 70;
#X msg 515 644 arc 420 300 40 60 0 5 330 55;
#X msg 515 664 arc 580 300 40 60 0 5 330 55;
#X msg 515 624 arc 265 480 40 40 0 5 280 60;
#X msg 515 604 arc 735 480 40 40 0 5 330 60;
#X msg 515 564 arc 530 617 50 40 900 9 220 90;
#X msg 515 544 arc 467 617 50 40 900 9 220 90;
#X text 786 27 ears;
#X text 786 69 head;
#X text 785 89 face;
#X text 786 127 cheeks;
#X text 788 206 snout crease;
#X text 788 228 eyes;
#X text 788 307 nose;
#X text 788 354 grin;
#X text 786 368 chin;
#X text 787 414 mouth;
#X text 786 474 tongue;
#X text 785 533 crease;
#X text 786 573 eyebrows;
#X msg 515 444 fillarc 500 374 150 300 975 0 4 47 70;
#X msg 515 464 fillarc 500 368 150 300 975 975 4 47 70;
#X obj 170 -110 float;
#X obj 213 -109 + 1;
#X obj 180 -240 bng 15 250 50 0 empty empty empty 17 7 0 10 -262144
-1 -1;
#X obj 170 -197 t b b;
#X msg 212 -175 0;
#X obj 170 -170 tgl 15 0 empty empty empty 17 7 0 10 -262144 -1 -1
0 1;
#X msg 141 -143 0;
#X obj 170 -142 metro 100;
#X msg 121 108 fillbox 10 10 990 790 99 990 5;
#X obj 168 -265 inlet;
#X msg 515 31 fillcircle 200 170 130 110 0 0 1;
#X msg 515 51 fillcircle 800 170 130 110 0 0 1;
#X msg 515 71 fillcircle 500 390 280 240 0 0 1;
#X msg 515 91 fillcircle 400 350 110 170 975 975 1;
#X msg 515 111 fillcircle 600 350 110 170 975 975 1;
#X msg 515 130 fillcircle 250 430 70 70 975 0 3;
#X msg 515 150 fillcircle 750 430 70 70 975 0 3;
#X msg 515 171 fillcircle 500 493 160 90 975 0 3;
#X msg 515 279 fillcircle 570 340 60 70 999 0 2;
#X msg 515 299 fillcircle 430 340 60 70 999 0 2;
#X msg 515 319 fillcircle 570 370 30 40 0 0 1;
#X msg 515 339 fillcircle 430 370 30 40 0 0 1;
#X msg 515 359 fillcircle 500 455 85 35 0 0 1;
#X msg 515 379 fillcircle 500 440 35 10 999 999 1;
#X text 272 -143 100ms seems to be the fastest draw speed for this
;
#X msg 515 214 fillcircle 270 430 55 55 975 975 3;
#X msg 515 236 fillcircle 730 430 55 55 975 975 3;
#X obj 170 -35 sel 0 1 2 3 4 5 6 7 8 9 10 11 12 13 14 15 16 17 18 19
20 21 22 23 24 25 26 27 28 29 30 32 32 33 34;
#X msg 515 193 fillarc 500 310 348 335 975 975 1 46.5 130;
#X obj 177 -75 sel 34;
#X obj 515 693 s \$0-params;
#X connect 0 0 58 0;
#X connect 0 0 36 0;
#X connect 1 0 58 0;
#X connect 2 0 58 0;
#X connect 3 0 58 0;
#X connect 4 0 58 0;
#X connect 5 0 58 0;
#X connect 6 0 58 0;
#X connect 7 0 58 0;
#X connect 8 0 58 0;
#X connect 9 0 58 0;
#X connect 10 0 58 0;
#X connect 11 0 58 0;
#X connect 12 0 58 0;
#X connect 26 0 58 0;
#X connect 27 0 58 0;
#X connect 28 0 29 0;
#X connect 28 0 55 0;
#X connect 28 0 57 0;
#X connect 29 0 28 1;
#X connect 30 0 31 0;
#X connect 31 0 33 0;
#X connect 31 1 32 0;
#X connect 32 0 28 1;
#X connect 33 0 35 0;
#X connect 34 0 33 0;
#X connect 35 0 28 0;
#X connect 36 0 58 0;
#X connect 37 0 31 0;
#X connect 38 0 58 0;
#X connect 39 0 58 0;
#X connect 40 0 58 0;
#X connect 41 0 58 0;
#X connect 42 0 58 0;
#X connect 43 0 58 0;
#X connect 44 0 58 0;
#X connect 45 0 58 0;
#X connect 46 0 58 0;
#X connect 47 0 58 0;
#X connect 48 0 58 0;
#X connect 49 0 58 0;
#X connect 50 0 58 0;
#X connect 51 0 58 0;
#X connect 53 0 58 0;
#X connect 54 0 58 0;
#X connect 55 1 38 0;
#X connect 55 2 39 0;
#X connect 55 3 40 0;
#X connect 55 4 41 0;
#X connect 55 5 42 0;
#X connect 55 6 43 0;
#X connect 55 7 44 0;
#X connect 55 8 45 0;
#X connect 55 9 56 0;
#X connect 55 10 53 0;
#X connect 55 11 54 0;
#X connect 55 12 46 0;
#X connect 55 13 47 0;
#X connect 55 14 48 0;
#X connect 55 15 49 0;
#X connect 55 16 50 0;
#X connect 55 17 51 0;
#X connect 55 18 1 0;
#X connect 55 19 4 0;
#X connect 55 20 26 0;
#X connect 55 21 27 0;
#X connect 55 22 5 0;
#X connect 55 23 3 0;
#X connect 55 24 6 0;
#X connect 55 25 12 0;
#X connect 55 26 11 0;
#X connect 55 27 2 0;
#X connect 55 28 10 0;
#X connect 55 29 9 0;
#X connect 55 30 7 0;
#X connect 55 31 8 0;
#X connect 56 0 58 0;
#X connect 57 0 32 0;
#X connect 57 0 34 0;
#X restore 996 569 pd mickey;
#X obj 965 549 bng 20 250 50 0 empty empty empty 17 7 0 10 -4032 -1
-1;
#N canvas 180 512 1254 489 smiley-assimilated 0;
#X obj 50 33 inlet;
#X obj 865 90 until;
#X msg 798 303 box 345 345 655 455 914.75 4;
#X obj 866 125 float;
#X msg 909 67 0;
#X obj 907 190 + 50;
#X obj 946 190 -;
#X obj 865 18 bng 15 250 50 0 empty empty empty 17 7 0 10 -262144 -1
-1;
#X obj 1004 192 -;
#X msg 1002 170 750 \$1;
#X msg 944 168 950 \$1;
#X obj 865 42 t b b b b;
#X obj 873 191 + 50;
#X obj 912 125 + 5;
#X msg 864 66 60;
#X obj 866 224 pack f f f f f;
#X obj 866 146 t b f f f f f;
#X msg 864 256 set box \$1 \$2 \$3 \$4 \$5 4;
#X obj 1080 207 +;
#X msg 1078 185 900 \$1;
#X obj 1078 163 / 20;
#X msg 138 206 fillcircle 500 400 300 300 990 990 1;
#X msg 138 227 fillcircle 500 370 220 220 0 0 1;
#X msg 138 248 fillcircle 500 350 220 220 990 990 1;
#X msg 138 269 fillcircle 400 350 50 50 0 0 1;
#X msg 138 289 fillcircle 600 350 50 50 0 0 1;
#X obj 53 105 delay 100;
#X obj 50 65 t b b b;
#X obj 53 130 delay 100;
#X obj 54 158 delay 100;
#X obj 55 185 delay 100;
#X obj 55 214 delay 100;
#X msg 440 250 new;
#X obj 138 320 s \$0-params;
#X obj 354 53 spigot;
#X obj 389 27 tgl 15 0 empty empty empty 17 7 0 10 -262144 -1 -1 0
1;
#X connect 0 0 27 0;
#X connect 1 0 3 0;
#X connect 2 0 33 0;
#X connect 3 0 13 0;
#X connect 3 0 16 0;
#X connect 4 0 3 1;
#X connect 5 0 15 1;
#X connect 6 0 15 2;
#X connect 7 0 11 0;
#X connect 8 0 15 3;
#X connect 9 0 8 0;
#X connect 10 0 6 0;
#X connect 11 0 14 0;
#X connect 11 1 4 0;
#X connect 12 0 15 0;
#X connect 13 0 3 1;
#X connect 14 0 1 0;
#X connect 15 0 17 0;
#X connect 16 0 2 0;
#X connect 16 1 12 0;
#X connect 16 2 5 0;
#X connect 16 3 10 0;
#X connect 16 4 9 0;
#X connect 16 5 20 0;
#X connect 17 0 2 0;
#X connect 18 0 15 4;
#X connect 19 0 18 0;
#X connect 20 0 19 0;
#X connect 21 0 33 0;
#X connect 22 0 33 0;
#X connect 23 0 33 0;
#X connect 24 0 33 0;
#X connect 25 0 33 0;
#X connect 26 0 21 0;
#X connect 26 0 28 0;
#X connect 27 0 26 0;
#X connect 27 1 34 0;
#X connect 27 2 32 0;
#X connect 28 0 22 0;
#X connect 28 0 29 0;
#X connect 29 0 23 0;
#X connect 29 0 30 0;
#X connect 30 0 24 0;
#X connect 30 0 31 0;
#X connect 31 0 25 0;
#X connect 32 0 33 0;
#X connect 34 0 7 0;
#X connect 35 0 34 1;
#X restore 825 576 pd smiley-assimilated;
#X obj 825 550 bng 20 250 50 0 empty empty empty 17 7 0 10 -4032 -1
-1;
#N canvas 395 50 734 924 bezel 0;
#X obj 180 -100 float;
#X obj 223 -99 + 1;
#X obj 190 -230 bng 15 250 50 0 empty empty empty 17 7 0 10 -262144
-1 -1;
#X obj 180 -187 t b b;
#X msg 222 -165 0;
#X obj 180 -160 tgl 15 0 empty empty empty 17 7 0 10 -262144 -1 -1
0 1;
#X msg 151 -133 0;
#X obj 180 -132 metro 100;
#X obj 187 -65 sel 34;
#X msg 73 124 fillcircle 400 350 21 21 222 222 1;
#X msg 88 151 fillcircle 400 350 19 19 333 333 1;
#X msg 106 183 fillcircle 400 350 18 18 444 444 1;
#X msg 134 204 fillcircle 400 350 17 17 555 555 1;
#X msg 153 230 fillcircle 400 350 16 16 666 666 1;
#X msg 179 261 fillcircle 400 350 15 15 888 888 1;
#X msg 201 288 fillcircle 400 350 13 13 666 666 1;
#X msg 213 318 fillcircle 400 350 12 12 555 555 1;
#X msg 239 346 fillcircle 400 350 11 11 444 444 1;
#X msg 271 372 fillcircle 400 350 10 10 333 333 1;
#X msg 307 397 fillcircle 400 350 9 9 222 222 1;
#X msg 345 430 fillcircle 400 350 5 5 900 900 1;
#X obj 60 -26 sel 1 2 3 4 5 6 7 8 9 10 11 12 13 14 15 16;
#X obj 108 -216 inlet;
#X obj 54 467 s \$0-params;
#X connect 0 0 1 0;
#X connect 0 0 8 0;
#X connect 0 0 21 0;
#X connect 1 0 0 1;
#X connect 2 0 3 0;
#X connect 3 0 5 0;
#X connect 3 1 4 0;
#X connect 4 0 0 1;
#X connect 5 0 7 0;
#X connect 6 0 5 0;
#X connect 7 0 0 0;
#X connect 8 0 4 0;
#X connect 8 0 6 0;
#X connect 9 0 23 0;
#X connect 10 0 23 0;
#X connect 11 0 23 0;
#X connect 12 0 23 0;
#X connect 13 0 23 0;
#X connect 14 0 23 0;
#X connect 15 0 23 0;
#X connect 16 0 23 0;
#X connect 17 0 23 0;
#X connect 18 0 23 0;
#X connect 19 0 23 0;
#X connect 20 0 23 0;
#X connect 21 0 9 0;
#X connect 21 1 10 0;
#X connect 21 2 11 0;
#X connect 21 3 12 0;
#X connect 21 4 13 0;
#X connect 21 5 14 0;
#X connect 21 6 15 0;
#X connect 21 7 16 0;
#X connect 21 8 17 0;
#X connect 21 9 18 0;
#X connect 21 10 19 0;
#X connect 21 11 20 0;
#X connect 22 0 3 0;
#X restore 902 597 pd bezel;
#X obj 825 596 delay 3000;
#N canvas 1150 223 684 494 bubbles 0;
#X obj 252 247 random 50;
#X obj 97 307 pack f f f f;
#X obj 322 247 random 999;
#X obj 97 215 t b b b b;
#X obj 97 278 + 30;
#X obj 134 278 + 30;
#X obj 97 247 random 930;
#X obj 174 247 random 690;
#X obj 173 277 + 15;
#X obj 51 6 inlet;
#X obj 184 149 float;
#X obj 223 148 + 1;
#X msg 184 118 0;
#X obj 52 29 tgl 15 0 empty empty empty 17 7 0 10 -262144 -1 -1 0 1
;
#X floatatom 309 188 5 0 0 0 - - -;
#X msg 97 330 circle \$1 \$2 \$3 \$3 \$4 1;
#X obj 184 176 sel 100;
#X obj 51 50 metro 100;
#X obj 97 370 s \$0-params;
#X connect 0 0 8 0;
#X connect 1 0 15 0;
#X connect 2 0 1 3;
#X connect 3 0 6 0;
#X connect 3 1 7 0;
#X connect 3 2 0 0;
#X connect 3 3 2 0;
#X connect 4 0 1 0;
#X connect 5 0 1 1;
#X connect 6 0 4 0;
#X connect 7 0 5 0;
#X connect 8 0 1 2;
#X connect 9 0 13 0;
#X connect 10 0 11 0;
#X connect 10 0 14 0;
#X connect 10 0 3 0;
#X connect 10 0 16 0;
#X connect 11 0 10 1;
#X connect 12 0 10 1;
#X connect 12 0 13 0;
#X connect 13 0 17 0;
#X connect 15 0 18 0;
#X connect 16 0 12 0;
#X connect 17 0 10 0;
#X restore 731 575 pd bubbles;
#X obj 731 549 bng 20 250 50 0 empty empty empty 17 7 0 10 -4032 -1
-1;
#N canvas 926 167 856 562 gop 0;
#X obj 0 -70 r \$0-area-3;
#X obj 0 0 object-draw;
#X connect 0 0 1 0;
#X coords -6 -5 12 10 12 10 2 0 0;
#X restore 387 569 pd gop;
#X obj 20 5 r \$0-area-1;
#X obj 21 439 r \$0-area-2;
#X obj 538 593 s \$0-params;
#X obj 738 93 s \$0-area-1;
#X obj 738 115 s \$0-area-2;
#X obj 738 137 s \$0-area-3;
#X msg 565 76 size 1000 800 500 400 \, new;
#X msg 565 98 size 1000 800 250 200 \, new;
#X msg 565 120 size 1000 800 125 100 \, new;
#X obj 175 5 hradio 20 1 1 4 \$0-director empty send to area -80
8 0 10 -4032 -258113 -1 0;
#N canvas 642 656 450 300 params-director 0;
#X obj 84 12 r \$0-director;
#X obj 34 169 r \$0-params;
#X obj 34 228 s \$0-area-1;
#X obj 34 200 spigot;
#X msg 333 121 0;
#X obj 112 170 r \$0-params;
#X obj 112 201 spigot;
#X obj 188 170 r \$0-params;
#X obj 188 201 spigot;
#X obj 110 229 s \$0-area-2;
#X obj 188 229 s \$0-area-3;
#X obj 67 104 t b b;
#X msg 67 129 1;
#X obj 112 104 t b b;
#X msg 112 129 1;
#X obj 157 104 t b b;
#X msg 157 129 1;
#X obj 84 43 sel 0 1 2 3;
#X connect 0 0 17 0;
#X connect 1 0 3 0;
#X connect 3 0 2 0;
#X connect 4 0 3 1;
#X connect 4 0 6 1;
#X connect 4 0 8 1;
#X connect 5 0 6 0;
#X connect 6 0 9 0;
#X connect 7 0 8 0;
#X connect 8 0 10 0;
#X connect 11 0 12 0;
#X connect 11 1 4 0;
#X connect 12 0 3 1;
#X connect 13 0 14 0;
#X connect 13 1 4 0;
#X connect 14 0 6 1;
#X connect 15 0 16 0;
#X connect 15 1 4 0;
#X connect 16 0 8 1;
#X connect 17 0 11 0;
#X connect 17 1 13 0;
#X connect 17 2 15 0;
#X connect 17 3 12 0;
#X connect 17 3 14 0;
#X connect 17 3 16 0;
#X restore 408 6 pd params-director;
#X text 378 461 \$0-area-3 gop sub-patch;
#X text 912 42 new: clears the pd \$0-template in object-draw of all
objects and re-writes the struct - [struct \$0-template-drawthings
float x float y float c float cf float w];
#X text 911 99 size: change the page scale & size in pixels (the objects
still draw outside the border-but do not clear properly with [new(.
line widths will not scale;
#X text 915 257 fillellipse left.x top.y right.x bottom.y fill-colour
border-colour line-weight (using filledcurve - not good for large circles)
;
#X text 914 224 ellipse left.x top.y right.x bottom.y colour line-weight
(using drawcurve - not good for large circles);
#N canvas 549 4 1103 722 new-stuff 0;
#X obj 236 120 vsl 15 64 0 63 0 0 empty empty angle 0 -9 0 10 -4032
-1 -1 0 1;
#X msg 3 37 fillpolygon 500 200 550 250 520 250 520 400 480 400 480
250 450 250 500 200 50 900 2;
#X obj 236 197 * 0.1;
#X msg 263 141 new;
#X obj 236 218 t f b;
#X floatatom 281 190 5 0 0 0 - - -;
#X msg 2 74 polygon 300 200 350 250 320 250 320 400 280 400 280 250
250 250 300 200 900 2;
#X obj 263 166 spigot;
#X obj 294 139 tgl 15 0 empty empty empty 17 7 0 10 -4032 -1 -1 1 1
;
#X msg 147 160 \$1 500 400;
#X msg 67 157 \$1 300 400;
#X msg 148 119 1.57;
#X msg 182 120 0;
#X msg 112 118 3.15;
#X msg 73 114 4.7;
#X obj 2 213 s \$0-params;
#X obj 96 215 s \$0-params;
#X msg 5 580 \; pd-new-stuff vis 1;
#X obj 3 307 rotate-polygon;
#X msg 3 271 fillpolygon 0 173.2 100 0 300 0 400 173.2 300 346.4 100
346.4 0 173.2 0 173.2 50 900 2;
#X obj 265 317 vsl 15 64 0 63 0 0 empty empty angle 0 -9 0 10 -4032
-1 -1 6300 1;
#X obj 265 394 * 0.1;
#X msg 292 337 new;
#X obj 265 415 t f b;
#X floatatom 310 387 5 0 0 0 - - -;
#X obj 292 362 spigot;
#X obj 323 335 tgl 15 0 empty empty empty 17 7 0 10 -4032 -1 -1 1 1
;
#X msg 82 246 \$1 200 173.2;
#X msg 24 360 shift+size -300 -200 700 600 500 400;
#X msg 27 332 size 1000 800 500 400;
#X obj 3 394 s \$0-params;
#X obj 0 550 cnv 15 100 60 empty empty New Stuff 4 20 0 16 -257985
-258113 0;
#X obj 5 587 bng 20 250 50 0 empty empty empty 17 7 0 10 -4032 -1 -1
;
#X obj 2 5 cnv 15 300 24 empty empty Rotate a polygon 4 12 0 14 -18465
-4032 0;
#X obj 685 528 loadbang;
#X obj 685 644 s \$0-area-3;
#X msg 685 580 shift+size -200 -200 800 600 125 100;
#X msg 685 623 size 1000 800 125 100;
#X obj 685 556 bng 20 250 50 0 empty empty empty 17 7 0 10 -4032 -1
-1;
#X obj 685 600 bng 20 250 50 0 empty empty empty 17 7 0 10 -4032 -1
-1;
#X msg 459 216 mx 500 my 400;
#X msg 459 238 mx 200 my 200;
#X obj 431 295 lines-by-direction;
#N canvas 1179 518 450 300 pd-logo-sort-of 0;
#X obj -14 14 inlet;
#X obj -15 179 outlet;
#X msg -13 44 pure data logo - sort of. c 900 w 2 set 0 mx 50 my 50
dd 50 dr 50 dd 300 dl 50 dd 50 dr 200 du 50 dl 50 du 125 dr 150 du
25 dr 25 du 25 25 dr 25 du 25 du 100 dl 25 du 25 dl 25 du 25 dl 300
mx 200 my 100 dr 100 dd 25 dr 25 dd 75 dl 25 dd 25 dl 100 du 125 c
60 mx 450 my 225 dd 25 dl 25 dd 125 dr 25 dd 25 dr 25 dd 25 dr 25 dd
25 dr 100 du 25 dr 25 dd 25 dr 75 du 50 dl 25 du 400 dl 150 dd 50 dr
75 dd 125 dl 100 dd 25 dl 25 dd 25 dl 25 mx 525 dr 50 dd 25 dr 25 dd
125 dl 25 dd 25 dl 50 du 25 dl 25 du 125 dr 25 du 25;
#X connect 0 0 2 0;
#X connect 2 0 1 0;
#X restore 430 69 pd pd-logo-sort-of;
#X obj 430 41 bng 20 250 50 0 empty empty empty 17 7 0 10 -4032 -1
-1;
#X obj 431 316 s \$0-params;
#X msg 514 258 5;
#X msg 547 258 100;
#X obj 408 420 tgl 20 0 empty empty empty 17 7 0 10 -4032 -1 -1 0 1
;
#N canvas 1099 63 786 712 move 0;
#X obj 71 152 float;
#X obj 179 112 bng 15 150 50 0 empty empty empty 17 7 0 10 -262144
-1 -1;
#X msg 185 174 6;
#X msg 230 176 -6;
#X obj 121 153 + \$1;
#X floatatom 87 198 5 0 0 0 - - -;
#X obj 89 253 select 0;
#X obj 94 297 bng 15 250 50 0 empty empty empty 17 7 0 10 -262144 -1
-1;
#X obj 162 298 bng 15 250 50 0 empty empty empty 17 7 0 10 -262144
-1 -1;
#X obj 441 164 float;
#X msg 546 170 4;
#X msg 600 188 -4;
#X obj 491 165 + \$1;
#X floatatom 461 205 5 0 0 0 - - -;
#X obj 445 287 bng 15 250 50 0 empty empty empty 17 7 0 10 -262144
-1 -1;
#X obj 546 293 bng 15 250 50 0 empty empty empty 17 7 0 10 -262144
-1 -1;
#X floatatom 264 325 3 20 60 0 - - -;
#X floatatom 316 325 3 150 200 0 - - -;
#X text 189 323 x-position;
#X text 344 325 y-position;
#X obj 174 255 select 300;
#X obj 446 260 select 0;
#X obj 547 266 select 300;
#N canvas 441 311 450 300 >=300=300 0;
#X obj 69 20 inlet;
#X obj 73 215 outlet;
#X obj 43 95 expr $f1 \; if ($f1 >= 300 \, 300 \, $f2);
#X connect 0 0 2 0;
#X connect 0 0 2 1;
#X connect 2 1 1 0;
#X restore 547 240 pd >=300=300;
#N canvas 445 315 450 300 <=0=0 0;
#X obj 69 20 inlet;
#X obj 73 215 outlet;
#X obj 32 97 expr $f1 \; if ($f1 <= 0 \, 0 \, $f2);
#X connect 0 0 2 0;
#X connect 0 0 2 1;
#X connect 2 1 1 0;
#X restore 446 237 pd <=0=0;
#N canvas 441 311 450 300 >=300=300 0;
#X obj 69 20 inlet;
#X obj 73 215 outlet;
#X obj 43 95 expr $f1 \; if ($f1 >= 300 \, 300 \, $f2);
#X connect 0 0 2 0;
#X connect 0 0 2 1;
#X connect 2 1 1 0;
#X restore 173 227 pd >=300=300;
#N canvas 445 315 450 300 <=0=0 0;
#X obj 69 20 inlet;
#X obj 73 215 outlet;
#X obj 32 97 expr $f1 \; if ($f1 <= 0 \, 0 \, $f2);
#X connect 0 0 2 0;
#X connect 0 0 2 1;
#X connect 2 1 1 0;
#X restore 76 223 pd <=0=0;
#X obj 583 78 + 1;
#X msg 582 130 set \$1;
#X floatatom 582 101 5 0 0 0 - - -;
#X obj 625 117 * -1;
#X msg 625 148 set \$1;
#X obj 278 74 + 1;
#X msg 277 126 set \$1;
#X floatatom 277 97 5 0 0 0 - - -;
#X obj 320 113 * -1;
#X msg 320 144 set \$1;
#X obj 178 84 r \$0-pong-pulse;
#X obj 260 384 pack f f f;
#X msg 244 522 1000 \$1;
#X obj 417 530 +;
#X obj 238 548 +;
#X obj 140 647 pack f f f f;
#X obj 157 53 inlet;
#X obj 261 412 unpack f f f;
#X obj 418 578 spigot;
#X obj 453 555 tgl 15 0 empty empty empty 17 7 0 10 -262144 -1 -1 1
1;
#X obj 543 470 loadbang;
#X msg 541 495 1;
#X obj 251 49 5;
#X obj 140 671 outlet;
#X obj 582 51 3;
#X msg 417 501 800 \$1;
#X text 297 453 offset x/y;
#X text 362 354 multiply x/y by 10;
#X obj 267 348 * -10;
#X obj 316 347 * 10;
#X text 260 623 reduce drwing area to 10th;
#X obj 142 605 * 0.1;
#X obj 191 605 * 0.1;
#X obj 239 605 * 0.1;
#X obj 281 605 * 0.1;
#X obj 242 453 + 1200;
#X obj 369 453 - 2000;
#X connect 0 0 4 0;
#X connect 0 0 5 0;
#X connect 1 0 0 0;
#X connect 1 0 9 0;
#X connect 1 0 38 0;
#X connect 2 0 4 1;
#X connect 3 0 4 1;
#X connect 4 0 0 1;
#X connect 5 0 16 0;
#X connect 5 0 26 0;
#X connect 5 0 25 0;
#X connect 6 0 7 0;
#X connect 7 0 2 0;
#X connect 8 0 3 0;
#X connect 8 0 49 0;
#X connect 9 0 12 0;
#X connect 9 0 13 0;
#X connect 10 0 12 1;
#X connect 11 0 12 1;
#X connect 12 0 9 1;
#X connect 13 0 17 0;
#X connect 13 0 23 0;
#X connect 13 0 24 0;
#X connect 14 0 10 0;
#X connect 15 0 11 0;
#X connect 15 0 51 0;
#X connect 16 0 55 0;
#X connect 17 0 56 0;
#X connect 20 0 8 0;
#X connect 21 0 14 0;
#X connect 22 0 15 0;
#X connect 23 0 22 0;
#X connect 24 0 21 0;
#X connect 25 0 20 0;
#X connect 26 0 6 0;
#X connect 27 0 29 0;
#X connect 28 0 10 0;
#X connect 29 0 28 0;
#X connect 29 0 30 0;
#X connect 30 0 31 0;
#X connect 31 0 11 0;
#X connect 32 0 34 0;
#X connect 33 0 2 0;
#X connect 34 0 33 0;
#X connect 34 0 35 0;
#X connect 35 0 36 0;
#X connect 36 0 3 0;
#X connect 37 0 1 0;
#X connect 38 0 44 0;
#X connect 39 0 41 0;
#X connect 40 0 45 0;
#X connect 41 0 60 0;
#X connect 42 0 50 0;
#X connect 43 0 1 0;
#X connect 44 1 62 0;
#X connect 44 2 63 0;
#X connect 45 0 61 0;
#X connect 46 0 45 1;
#X connect 47 0 48 0;
#X connect 48 0 46 0;
#X connect 49 0 32 0;
#X connect 51 0 27 0;
#X connect 52 0 40 0;
#X connect 55 0 38 1;
#X connect 56 0 38 2;
#X connect 58 0 42 0;
#X connect 59 0 42 1;
#X connect 60 0 42 2;
#X connect 61 0 42 3;
#X connect 62 0 39 0;
#X connect 62 0 58 0;
#X connect 63 0 52 0;
#X connect 63 0 59 0;
#X restore 408 472 pd move;
#X text 626 191 c n = colour (R 100-900 G 10-90 B 1-9) \; w n = line
weight dl n = draw left \; dr n = draw right \; du n = draw up \; dd
n = draw down \; ml n = move left \; mr n = move right \; mu n = move
up \; md n = move down \; mx n = move to x \; my n = move to y \; set
0 = reset x \, y to 0 \; new 0 = new;
#X msg 457 190 set 0;
#X msg 456 169 new 0;
#X obj 398 6 cnv 15 300 24 empty empty Draw lines by direction 4
12 0 14 -18465 -4032 0;
#X obj 408 384 cnv 15 300 24 empty empty Resize Shift or Move 4
12 0 14 -18465 -4032 0;
#X obj 524 40 bng 20 250 50 0 empty empty empty 17 7 0 10 -4032 -1
-1;
#X obj 408 451 metro 100;
#X msg 546 40 c 900 w 1 set 0 mx 50 my 50 dr 400 w 2 dd 400 w 3 dl
400 w 4 du 380 c 9 w 1 dr 380 w 2 dd 360 w 3 dl 360 w 4 du 340 c 90
w 1 dr 340 w 2 dd 320 w 3 dl 320 w 4 du 300 mr 420 mu 60 c 900 w 1
dr 400 w 2 dd 400 w 3 dl 400 w 4 du 380 c 9 w 1 dr 380 w 2 dd 360 w
3 dl 360 w 4 du 340 c 90 w 1 dr 340 w 2 dd 320 w 3 dl 320 w 4 du 300
;
#X msg 524 129 fillcircle 250 250 150 150 99 900 2;
#X obj 524 149 delay 100;
#X msg 524 170 fillcircle 710 250 150 150 900 900 1;
#X obj 287 550 s \$0-area-1;
#X obj 287 572 s \$0-area-2;
#X obj 287 594 s \$0-area-3;
#X msg 143 533 size 1000 800 500 400;
#X msg 143 555 size 1000 800 250 200;
#X obj 143 506 bng 20 250 50 0 empty empty reset size 23 8 0 10 -258113
-1 -1;
#N canvas 872 62 450 300 move-director 0;
#X obj 34 200 spigot;
#X msg 333 121 0;
#X obj 112 201 spigot;
#X obj 188 201 spigot;
#X obj 67 104 t b b;
#X msg 67 129 1;
#X obj 112 104 t b b;
#X msg 112 129 1;
#X obj 157 104 t b b;
#X msg 157 129 1;
#X obj 84 43 sel 0 1 2 3;
#X obj 34 228 outlet;
#X obj 110 229 outlet;
#X obj 188 229 outlet;
#X obj 84 12 r \$0-director;
#X obj 246 22 inlet;
#X connect 0 0 11 0;
#X connect 1 0 0 1;
#X connect 1 0 2 1;
#X connect 1 0 3 1;
#X connect 2 0 12 0;
#X connect 3 0 13 0;
#X connect 4 0 5 0;
#X connect 4 1 1 0;
#X connect 5 0 0 1;
#X connect 6 0 7 0;
#X connect 6 1 1 0;
#X connect 7 0 2 1;
#X connect 8 0 9 0;
#X connect 8 1 1 0;
#X connect 9 0 3 1;
#X connect 10 0 4 0;
#X connect 10 1 6 0;
#X connect 10 2 8 0;
#X connect 10 3 5 0;
#X connect 10 3 7 0;
#X connect 10 3 9 0;
#X connect 14 0 10 0;
#X connect 15 0 3 0;
#X connect 15 0 2 0;
#X connect 15 0 0 0;
#X restore 439 498 pd move-director;
#X obj 119 447 hradio 20 1 1 4 \$0-director \$0-main-director send to area
-80 8 0 10 -4032 -258113 -1 0;
#X floatatom 461 424 5 25 100 0 - - -;
#X msg 408 534 shift+size \$1 \$2 \$3 \$4 50 40;
#X msg 408 555 shift+size \$1 \$2 \$3 \$4 25 20;
#X msg 408 578 shift+size \$1 \$2 \$3 \$4 12 10;
#X obj 563 506 s pd-gop;
#X obj 563 440 sel 0 1;
#X msg 143 577 size 1000 800 125 100;
#X msg 563 462 donecanvasdialog 1 -1 2 0 0 125 100 125 100 0 0 \, dirty
0;
#X msg 563 483 donecanvasdialog 1 -1 2 -6 -5 12 10 12 10 0 0 \, dirty
0;
#X text 621 506 area-3;
#N canvas 295 197 824 550 move-n-size 0;
#X obj 120 215 unpack s f f f f f f;
#X obj 120 317 pack s f f f f f f;
#X msg 122 386 shift+size 664 670 679 683 12 10;
#X msg 122 341 set \$1 \$2 \$3 \$4 \$5 12 10;
#X obj 150 364 bang;
#X obj 155 259 + 300;
#X obj 190 297 + 300;
#X obj 137 240 + 500;
#X obj 172 278 + 500;
#X msg 282 205 0;
#X obj 282 226 nbx 5 14 -1e+037 1e+037 0 0 empty empty empty 0 -8 0
10 -4032 -258113 -1 0 256;
#X obj 282 245 nbx 5 14 -1e+037 1e+037 0 0 empty empty empty 0 -8 0
10 -4032 -258113 -1 0 256;
#X obj 282 264 nbx 5 14 -1e+037 1e+037 0 0 empty empty empty 0 -8 0
10 -4032 -258113 -1 0 256;
#X obj 282 283 nbx 5 14 -1e+037 1e+037 0 0 empty empty empty 0 -8 0
10 -4032 -258113 -1 0 256;
#X floatatom 346 131 5 0 0 0 - - -;
#X floatatom 382 131 5 0 0 0 - - -;
#X floatatom 393 189 5 0 0 0 - - -;
#X obj 366 247 +;
#X obj 365 266 +;
#X obj 395 211 t b f;
#X floatatom 441 189 5 0 0 0 - - -;
#X obj 443 211 t b f;
#X obj 119 8 inlet;
#X obj 344 91 inlet;
#X obj 388 91 inlet;
#X obj 465 91 inlet;
#X obj 509 91 inlet;
#X obj 122 423 outlet;
#X connect 0 0 1 0;
#X connect 0 1 7 0;
#X connect 0 2 5 0;
#X connect 0 3 8 0;
#X connect 0 4 6 0;
#X connect 0 5 1 5;
#X connect 0 6 1 6;
#X connect 1 0 3 0;
#X connect 2 0 27 0;
#X connect 3 0 2 0;
#X connect 3 0 4 0;
#X connect 4 0 2 0;
#X connect 5 0 1 2;
#X connect 6 0 1 4;
#X connect 7 0 1 1;
#X connect 8 0 1 3;
#X connect 9 0 10 0;
#X connect 9 0 11 0;
#X connect 9 0 12 0;
#X connect 9 0 13 0;
#X connect 10 0 7 1;
#X connect 11 0 5 1;
#X connect 12 0 8 1;
#X connect 13 0 6 1;
#X connect 14 0 10 0;
#X connect 14 0 17 0;
#X connect 15 0 11 0;
#X connect 15 0 18 0;
#X connect 16 0 19 0;
#X connect 17 0 12 0;
#X connect 18 0 13 0;
#X connect 19 0 17 0;
#X connect 19 1 17 1;
#X connect 20 0 21 0;
#X connect 21 0 18 0;
#X connect 21 1 18 1;
#X connect 22 0 0 0;
#X connect 23 0 14 0;
#X connect 24 0 15 0;
#X connect 25 0 16 0;
#X connect 26 0 20 0;
#X restore 408 682 pd move-n-size;
#X obj 409 703 s \$0-area-3;
#X obj 421 651 nbx 5 14 -1e+037 1e+037 0 0 empty empty x 0 -8 0 10
-4032 -258113 -1 0 256;
#X obj 478 651 nbx 5 14 -1e+037 1e+037 0 0 empty empty y 0 -8 0 10
-4032 -258113 -1 0 256;
#X obj 536 651 nbx 5 14 -1e+037 1e+037 0 0 empty empty size-x 0 -8
0 10 -4032 -258113 -1 0 256;
#X obj 593 651 nbx 5 14 -1e+037 1e+037 0 0 empty empty size-y 0 -8
0 10 -4032 -258113 -1 0 256;
#X msg 489 601 460 700 -85 -67;
#X msg 230 665 shift+size 0 0 100 80 12 10;
#X obj 489 620 unpack f f f f;
#X obj 712 7 cnv 15 350 24 empty empty empty 20 12 0 14 -257985 -66577
0;
#X obj 717 10 declare -lib c:/users/David/pd-externals/zexy/zexy;
#X obj 2 181 rotate-polygon;
#X obj 96 183 rotate-polygon;
#X obj 463 600 bng 20 250 50 0 empty empty empty 17 7 0 10 -4032 -1
-1;
#X obj 236 312 bng 20 250 50 0 empty empty empty 17 7 0 10 -4032 -1
-1;
#X obj 236 340 bng 20 250 50 0 empty empty empty 17 7 0 10 -4032 -1
-1;
#X connect 0 0 2 0;
#X connect 0 0 5 0;
#X connect 1 0 91 0;
#X connect 2 0 4 0;
#X connect 3 0 7 0;
#X connect 4 0 9 0;
#X connect 4 0 10 0;
#X connect 4 1 3 0;
#X connect 6 0 90 0;
#X connect 7 0 91 1;
#X connect 8 0 7 1;
#X connect 9 0 91 1;
#X connect 10 0 90 1;
#X connect 11 0 9 0;
#X connect 12 0 9 0;
#X connect 13 0 9 0;
#X connect 14 0 9 0;
#X connect 18 0 30 0;
#X connect 18 1 19 0;
#X connect 19 0 18 0;
#X connect 20 0 21 0;
#X connect 20 0 24 0;
#X connect 21 0 23 0;
#X connect 22 0 25 0;
#X connect 23 0 27 0;
#X connect 23 1 22 0;
#X connect 25 0 18 1;
#X connect 26 0 25 1;
#X connect 27 0 18 1;
#X connect 28 0 30 0;
#X connect 29 0 30 0;
#X connect 32 0 17 0;
#X connect 34 0 36 0;
#X connect 36 0 35 0;
#X connect 37 0 35 0;
#X connect 38 0 36 0;
#X connect 39 0 37 0;
#X connect 40 0 42 0;
#X connect 41 0 42 0;
#X connect 42 0 45 0;
#X connect 43 0 42 0;
#X connect 44 0 43 0;
#X connect 46 0 42 1;
#X connect 47 0 42 1;
#X connect 48 0 56 0;
#X connect 48 0 74 0;
#X connect 49 0 67 0;
#X connect 51 0 42 0;
#X connect 52 0 42 0;
#X connect 55 0 57 0;
#X connect 55 0 58 0;
#X connect 55 0 59 0;
#X connect 56 0 49 0;
#X connect 57 0 42 0;
#X connect 58 0 45 0;
#X connect 59 0 60 0;
#X connect 60 0 45 0;
#X connect 64 0 61 0;
#X connect 65 0 62 0;
#X connect 66 0 64 0;
#X connect 66 0 65 0;
#X connect 66 0 75 0;
#X connect 67 0 70 0;
#X connect 67 1 71 0;
#X connect 67 2 72 0;
#X connect 69 0 56 1;
#X connect 70 0 61 0;
#X connect 71 0 62 0;
#X connect 72 0 79 0;
#X connect 74 0 76 0;
#X connect 74 1 77 0;
#X connect 75 0 63 0;
#X connect 76 0 73 0;
#X connect 77 0 73 0;
#X connect 79 0 80 0;
#X connect 81 0 79 1;
#X connect 81 0 86 0;
#X connect 82 0 79 2;
#X connect 82 0 86 0;
#X connect 83 0 79 3;
#X connect 83 0 86 0;
#X connect 84 0 79 4;
#X connect 84 0 86 0;
#X connect 85 0 87 0;
#X connect 86 0 79 0;
#X connect 87 0 81 0;
#X connect 87 1 82 0;
#X connect 87 2 83 0;
#X connect 87 3 84 0;
#X connect 90 0 15 0;
#X connect 90 1 6 0;
#X connect 91 0 16 0;
#X connect 91 1 1 0;
#X connect 92 0 85 0;
#X connect 92 0 86 0;
#X connect 93 0 29 0;
#X connect 94 0 28 0;
#X coords 0 -1 1 1 100 60 1 0 550;
#X restore 1107 543 pd new-stuff;
#X msg 698 298 circle-lores 500 400 25 25 900 2;
#X obj 21 468 object-draw;
#X msg 660 345 fillcircle-lores 500 400 250 250 900 9 1;
#N canvas 1150 223 684 494 bubbles-lr 0;
#X obj 252 247 random 50;
#X obj 97 307 pack f f f f;
#X obj 322 247 random 999;
#X obj 97 215 t b b b b;
#X obj 97 278 + 30;
#X obj 134 278 + 30;
#X obj 97 247 random 930;
#X obj 174 247 random 690;
#X obj 173 277 + 15;
#X obj 51 6 inlet;
#X obj 184 149 float;
#X obj 223 148 + 1;
#X msg 184 118 0;
#X obj 52 29 tgl 15 0 empty empty empty 17 7 0 10 -262144 -1 -1 0 1
;
#X floatatom 309 188 5 0 0 0 - - -;
#X obj 184 176 sel 100;
#X obj 97 370 s \$0-params;
#X msg 97 330 circle-lores \$1 \$2 \$3 \$3 \$4 1;
#X obj 51 50 metro 100;
#X connect 0 0 8 0;
#X connect 1 0 17 0;
#X connect 2 0 1 3;
#X connect 3 0 6 0;
#X connect 3 1 7 0;
#X connect 3 2 0 0;
#X connect 3 3 2 0;
#X connect 4 0 1 0;
#X connect 5 0 1 1;
#X connect 6 0 4 0;
#X connect 7 0 5 0;
#X connect 8 0 1 2;
#X connect 9 0 13 0;
#X connect 10 0 11 0;
#X connect 10 0 14 0;
#X connect 10 0 3 0;
#X connect 10 0 15 0;
#X connect 11 0 10 1;
#X connect 12 0 10 1;
#X connect 12 0 13 0;
#X connect 13 0 18 0;
#X connect 15 0 12 0;
#X connect 17 0 16 0;
#X connect 18 0 10 0;
#X restore 732 596 pd bubbles-lr;
#X obj 617 593 bng 10 250 50 0 empty empty empty 17 7 0 10 -4032 -1
-1;
#X obj 719 599 bng 10 250 50 0 empty empty empty 17 7 0 10 -4032 -1
-1;
#N canvas 1150 223 684 494 blobs-lr 0;
#X obj 252 247 random 50;
#X obj 97 307 pack f f f f;
#X obj 322 247 random 999;
#X obj 97 215 t b b b b;
#X obj 97 278 + 30;
#X obj 134 278 + 30;
#X obj 97 247 random 930;
#X obj 174 247 random 690;
#X obj 173 277 + 15;
#X obj 51 6 inlet;
#X obj 184 149 float;
#X obj 223 148 + 1;
#X msg 184 118 0;
#X obj 51 50 metro 100;
#X obj 52 29 tgl 15 0 empty empty empty 17 7 0 10 -262144 -1 -1 0 1
;
#X obj 184 176 sel 100;
#X obj 97 370 s \$0-params;
#X msg 97 330 fillcircle-lores \$1 \$2 \$3 \$3 \$4 \$4 1;
#X connect 0 0 8 0;
#X connect 1 0 17 0;
#X connect 2 0 1 3;
#X connect 3 0 6 0;
#X connect 3 1 7 0;
#X connect 3 2 0 0;
#X connect 3 3 2 0;
#X connect 4 0 1 0;
#X connect 5 0 1 1;
#X connect 6 0 4 0;
#X connect 7 0 5 0;
#X connect 8 0 1 2;
#X connect 9 0 14 0;
#X connect 10 0 11 0;
#X connect 10 0 3 0;
#X connect 10 0 15 0;
#X connect 11 0 10 1;
#X connect 12 0 10 1;
#X connect 12 0 14 0;
#X connect 13 0 10 0;
#X connect 14 0 13 0;
#X connect 15 0 12 0;
#X connect 17 0 16 0;
#X restore 629 593 pd blobs-lr;
#X obj 966 595 bng 20 250 50 0 empty empty empty 17 7 0 10 -4032 -1
-1;
#N canvas 465 85 1129 970 target 0;
#X obj 170 -110 float;
#X obj 213 -109 + 1;
#X obj 180 -240 bng 15 250 50 0 empty empty empty 17 7 0 10 -262144
-1 -1;
#X obj 170 -197 t b b;
#X msg 212 -175 0;
#X obj 170 -170 tgl 15 0 empty empty empty 17 7 0 10 -262144 -1 -1
0 1;
#X msg 141 -143 0;
#X obj 170 -142 metro 100;
#X obj 168 -265 inlet;
#X text 272 -143 100ms seems to be the fastest draw speed for this
;
#X obj 170 -35 sel 0 1 2 3 4 5 6 7 8 9 10 11 12 13 14 15 16 17 18 19
20 21 22 23 24 25 26 27 28 29 30 32 32 33 34;
#X obj 177 -75 sel 34;
#X obj 176 294 s \$0-params;
#X msg 180 50 fillcircle 500 400 380 380 333 333 1;
#X msg 224 127 fillcircle 500 400 240 240 259 259 1;
#X msg 271 202 fillcircle 500 400 75 75 990 990 1;
#X msg 201 87 fillcircle 500 400 310 310 999 999 1;
#X msg 248 163 fillcircle 500 400 160 160 900 900 1;
#X connect 0 0 1 0;
#X connect 0 0 10 0;
#X connect 0 0 11 0;
#X connect 1 0 0 1;
#X connect 2 0 3 0;
#X connect 3 0 5 0;
#X connect 3 1 4 0;
#X connect 4 0 0 1;
#X connect 5 0 7 0;
#X connect 6 0 5 0;
#X connect 7 0 0 0;
#X connect 8 0 3 0;
#X connect 10 1 13 0;
#X connect 10 2 16 0;
#X connect 10 3 14 0;
#X connect 10 4 17 0;
#X connect 10 5 15 0;
#X connect 11 0 4 0;
#X connect 11 0 6 0;
#X connect 13 0 12 0;
#X connect 14 0 12 0;
#X connect 15 0 12 0;
#X connect 16 0 12 0;
#X connect 17 0 12 0;
#X restore 997 615 pd target;
#X text 997 596 example 4;
#X obj 260 6 s \$0-main-director;
#N canvas 214 160 888 682 crochet 0;
#X obj 180 -100 float;
#X obj 223 -99 + 1;
#X obj 190 -230 bng 15 250 50 0 empty empty empty 17 7 0 10 -262144
-1 -1;
#X obj 180 -187 t b b;
#X msg 222 -165 0;
#X obj 180 -160 tgl 15 0 empty empty empty 17 7 0 10 -262144 -1 -1
0 1;
#X msg 151 -133 0;
#X obj 180 -132 metro 100;
#X obj 178 -255 inlet;
#X text 282 -133 100ms seems to be the fastest draw speed for this
;
#X obj 180 -25 sel 0 1 2 3 4 5 6 7 8 9 10 11 12 13 14 15 16 17 18 19
20 21 22 23 24 25 26 27 28 29 30 32 32 33 34;
#X obj 187 -65 sel 34;
#X obj 186 304 s \$0-params;
#X msg 211 97 fillbox 290 50 300 500 0 0 1;
#X msg 190 59 fillcircle 200 500 100 60 0 222 1;
#X connect 0 0 1 0;
#X connect 0 0 10 0;
#X connect 0 0 11 0;
#X connect 1 0 0 1;
#X connect 2 0 3 0;
#X connect 3 0 5 0;
#X connect 3 1 4 0;
#X connect 4 0 0 1;
#X connect 5 0 7 0;
#X connect 6 0 5 0;
#X connect 7 0 0 0;
#X connect 8 0 3 0;
#X connect 10 1 14 0;
#X connect 10 2 13 0;
#X connect 11 0 4 0;
#X connect 11 0 6 0;
#X connect 13 0 12 0;
#X connect 14 0 12 0;
#X restore 733 651 pd crochet;
#N canvas 866 87 888 682 quaver 0;
#X obj 180 -100 float;
#X obj 223 -99 + 1;
#X obj 190 -230 bng 15 250 50 0 empty empty empty 17 7 0 10 -262144
-1 -1;
#X obj 180 -187 t b b;
#X msg 222 -165 0;
#X obj 180 -160 tgl 15 0 empty empty empty 17 7 0 10 -262144 -1 -1
0 1;
#X msg 151 -133 0;
#X obj 180 -132 metro 100;
#X obj 178 -255 inlet;
#X text 282 -133 100ms seems to be the fastest draw speed for this
;
#X obj 180 -25 sel 0 1 2 3 4 5 6 7 8 9 10 11 12 13 14 15 16 17 18 19
20 21 22 23 24 25 26 27 28 29 30 32 32 33 34;
#X obj 187 -65 sel 34;
#X obj 186 304 s \$0-params;
#X obj 301 254;
#X msg 41 104 new;
#X msg 211 97 fillbox 540 50 550 500 0 0 1;
#X msg 297 131 fillarc 630 -110 150 200 0 0 2 60 55;
#X msg 190 59 fillcircle 450 500 100 60 0 222 1;
#X connect 0 0 1 0;
#X connect 0 0 10 0;
#X connect 0 0 11 0;
#X connect 1 0 0 1;
#X connect 2 0 3 0;
#X connect 3 0 5 0;
#X connect 3 1 4 0;
#X connect 4 0 0 1;
#X connect 5 0 7 0;
#X connect 6 0 5 0;
#X connect 7 0 0 0;
#X connect 8 0 3 0;
#X connect 10 1 17 0;
#X connect 10 2 15 0;
#X connect 10 3 16 0;
#X connect 11 0 4 0;
#X connect 11 0 6 0;
#X connect 14 0 12 0;
#X connect 15 0 12 0;
#X connect 16 0 12 0;
#X connect 17 0 12 0;
#X restore 812 651 pd quaver;
#N canvas 866 87 888 682 semiquaver 0;
#X obj 180 -100 float;
#X obj 223 -99 + 1;
#X obj 190 -230 bng 15 250 50 0 empty empty empty 17 7 0 10 -262144
-1 -1;
#X obj 180 -187 t b b;
#X msg 222 -165 0;
#X obj 180 -160 tgl 15 0 empty empty empty 17 7 0 10 -262144 -1 -1
0 1;
#X msg 151 -133 0;
#X obj 180 -132 metro 100;
#X obj 178 -255 inlet;
#X text 282 -133 100ms seems to be the fastest draw speed for this
;
#X obj 180 -25 sel 0 1 2 3 4 5 6 7 8 9 10 11 12 13 14 15 16 17 18 19
20 21 22 23 24 25 26 27 28 29 30 32 32 33 34;
#X obj 187 -65 sel 34;
#X obj 186 304 s \$0-params;
#X msg 41 104 new;
#X msg 211 97 fillbox 790 50 800 500 0 0 1;
#X msg 297 131 fillarc 880 -110 150 200 0 0 2 60 55;
#X msg 358 167 fillarc 880 -50 150 200 0 0 2 60 55;
#X msg 190 59 fillcircle 700 500 100 60 0 222 1;
#X connect 0 0 1 0;
#X connect 0 0 10 0;
#X connect 0 0 11 0;
#X connect 1 0 0 1;
#X connect 2 0 3 0;
#X connect 3 0 5 0;
#X connect 3 1 4 0;
#X connect 4 0 0 1;
#X connect 5 0 7 0;
#X connect 6 0 5 0;
#X connect 7 0 0 0;
#X connect 8 0 3 0;
#X connect 10 1 17 0;
#X connect 10 2 14 0;
#X connect 10 3 15 0;
#X connect 10 4 16 0;
#X connect 11 0 4 0;
#X connect 11 0 6 0;
#X connect 13 0 12 0;
#X connect 14 0 12 0;
#X connect 15 0 12 0;
#X connect 16 0 12 0;
#X connect 17 0 12 0;
#X restore 886 651 pd semiquaver;
#X obj 733 623 bng 20 250 50 0 empty empty empty 17 7 0 10 -4032 -1
-1;
#X obj 885 623 bng 20 250 50 0 empty empty empty 17 7 0 10 -4032 -1
-1;
#X obj 812 623 bng 20 250 50 0 empty empty empty 17 7 0 10 -4032 -1
-1;
#X text 961 632 comment;
#X msg 538 642 size 10 8 5 4;
#X connect 1 0 44 0;
#X connect 2 0 44 0;
#X connect 3 0 44 0;
#X connect 4 0 44 0;
#X connect 5 0 44 0;
#X connect 6 0 44 0;
#X connect 7 0 44 0;
#X connect 8 0 44 0;
#X connect 10 0 9 0;
#X connect 11 0 44 0;
#X connect 12 0 44 0;
#X connect 13 0 44 0;
#X connect 14 0 44 0;
#X connect 15 0 44 0;
#X connect 16 0 44 0;
#X connect 32 0 48 0;
#X connect 32 0 49 0;
#X connect 32 0 50 0;
#X connect 32 0 3 0;
#X connect 34 0 33 0;
#X connect 36 0 35 0;
#X connect 36 0 38 0;
#X connect 38 0 37 0;
#X connect 40 0 39 0;
#X connect 42 0 0 0;
#X connect 43 0 60 0;
#X connect 48 0 45 0;
#X connect 49 0 46 0;
#X connect 50 0 47 0;
#X connect 51 0 69 0;
#X connect 59 0 44 0;
#X connect 61 0 44 0;
#X connect 63 0 65 0;
#X connect 64 0 62 0;
#X connect 66 0 67 0;
#X connect 73 0 70 0;
#X connect 74 0 72 0;
#X connect 75 0 71 0;
#X connect 77 0 44 0;
#X coords 0 0 1 1 85 60 0;
