#N canvas 0 50 1247 640 10;
#X msg 18 39 label \$1;
#X msg 20 129 label \$1;
#X obj 18 8 r $midi-msg1-send;
#X obj 17 71 s $midi-msg1-recv;
#X msg 17 224 label \$1;
#X msg 22 424 label \$1;
#X obj 17 193 r $midi-ch1-send;
#X obj 16 256 s $midi-ch1-recv;
#X msg 17 325 label \$1;
#X msg 174 39 label \$1;
#X msg 176 129 label \$1;
#X obj 175 98 r $midi-note2-send;
#X obj 175 161 s $midi-note2-recv;
#X msg 173 224 label \$1;
#X msg 178 424 label \$1;
#X obj 177 393 r $midi-vel2-send;
#X obj 177 456 s $midi-vel2-recv;
#X obj 172 294 r $midi-bank2-send;
#X obj 172 357 s $midi-bank2-recv;
#X obj 19 98 r $midi-note1-send;
#X obj 19 161 s $midi-note1-recv;
#X obj 16 294 r $midi-bank1-send;
#X obj 18 357 s $midi-bank1-recv;
#X obj 21 393 r $midi-vel1-send;
#X obj 21 456 s $midi-vel1-recv;
#X obj 174 8 r $midi-msg2-send;
#X obj 173 193 r $midi-ch2-send;
#X obj 172 256 s $midi-ch2-recv;
#X msg 173 325 label \$1;
#X msg 305 40 label \$1;
#X msg 307 130 label \$1;
#X msg 304 225 label \$1;
#X msg 309 425 label \$1;
#X msg 304 326 label \$1;
#X obj 305 9 r $midi-msg3-send;
#X obj 305 99 r $midi-note3-send;
#X obj 306 162 s $midi-note3-recv;
#X obj 304 194 r $midi-ch3-send;
#X obj 303 257 s $midi-ch3-recv;
#X obj 303 295 r $midi-bank3-send;
#X obj 303 357 s $midi-bank3-recv;
#X obj 308 394 r $midi-vel3-send;
#X obj 308 457 s $midi-vel3-recv;
#X msg 441 40 label \$1;
#X msg 443 130 label \$1;
#X msg 440 225 label \$1;
#X msg 445 425 label \$1;
#X msg 440 326 label \$1;
#X obj 441 9 r $midi-msg4-send;
#X obj 440 72 s $midi-msg4-recv;
#X obj 304 72 s $midi-msg3-recv;
#X obj 173 71 s $midi-msg2-recv;
#X obj 441 99 r $midi-note4-send;
#X obj 442 162 s $midi-note4-recv;
#X obj 440 194 r $midi-ch4-send;
#X obj 439 257 s $midi-ch4-recv;
#X obj 439 295 r $midi-bank4-send;
#X obj 439 357 s $midi-bank4-recv;
#X obj 444 394 r $midi-vel4-send;
#X obj 445 457 s $midi-vel4-recv;
#X msg 577 40 label \$1;
#X msg 579 130 label \$1;
#X msg 576 225 label \$1;
#X msg 581 425 label \$1;
#X msg 576 326 label \$1;
#X obj 577 9 r $midi-msg5-send;
#X obj 576 72 s $midi-msg5-recv;
#X obj 577 99 r $midi-note5-send;
#X obj 578 162 s $midi-note5-recv;
#X obj 576 194 r $midi-ch5-send;
#X obj 575 257 s $midi-ch5-recv;
#X obj 575 295 r $midi-bank5-send;
#X obj 575 357 s $midi-bank5-recv;
#X obj 580 394 r $midi-vel5-send;
#X obj 581 457 s $midi-vel5-recv;
#X msg 715 41 label \$1;
#X msg 717 131 label \$1;
#X msg 714 226 label \$1;
#X msg 719 426 label \$1;
#X msg 714 327 label \$1;
#X obj 715 10 r $midi-msg6-send;
#X obj 714 73 s $midi-msg6-recv;
#X obj 714 100 r $midi-note6-send;
#X obj 716 163 s $midi-note6-recv;
#X obj 714 195 r $midi-ch6-send;
#X obj 713 258 s $midi-ch6-recv;
#X obj 713 296 r $midi-bank6-send;
#X obj 713 358 s $midi-bank6-recv;
#X obj 718 395 r $midi-vel6-send;
#X obj 719 458 s $midi-vel6-recv;
#X msg 857 41 label \$1;
#X msg 859 131 label \$1;
#X msg 856 226 label \$1;
#X msg 861 426 label \$1;
#X msg 856 327 label \$1;
#X msg 989 43 label \$1;
#X msg 991 133 label \$1;
#X msg 988 228 label \$1;
#X msg 993 428 label \$1;
#X msg 988 329 label \$1;
#X obj 857 10 r $midi-msg7-send;
#X obj 856 73 s $midi-msg7-recv;
#X obj 856 100 r $midi-note7-send;
#X obj 858 162 s $midi-note7-recv;
#X obj 856 195 r $midi-ch7-send;
#X obj 855 258 s $midi-ch7-recv;
#X obj 855 296 r $midi-bank7-send;
#X obj 855 358 s $midi-bank7-recv;
#X obj 860 395 r $midi-vel7-send;
#X obj 861 458 s $midi-vel7-recv;
#X obj 989 12 r $midi-msg8-send;
#X obj 988 75 s $midi-msg8-recv;
#X obj 988 102 r $midi-note8-send;
#X obj 990 165 s $midi-note8-recv;
#X obj 988 197 r $midi-ch8-send;
#X obj 987 260 s $midi-ch8-recv;
#X obj 986 298 r $midi-bank8-send;
#X obj 987 358 s $midi-bank8-recv;
#X obj 992 397 r $midi-vel8-send;
#X obj 992 459 s $midi-vel8-recv;
#X msg 20 583 label \$1;
#X msg 22 673 label \$1;
#X msg 19 768 label \$1;
#X msg 24 968 label \$1;
#X msg 19 869 label \$1;
#X obj 20 552 r $midi-msg9-send;
#X obj 19 614 s $midi-msg9-recv;
#X obj 21 642 r $midi-note9-send;
#X obj 21 705 s $midi-note9-recv;
#X obj 19 737 r $midi-ch9-send;
#X obj 19 799 s $midi-ch9-recv;
#X obj 18 838 r $midi-bank9-send;
#X obj 20 901 s $midi-bank9-recv;
#X obj 23 937 r $midi-vel9-send;
#X obj 23 1000 s $midi-vel9-recv;
#X msg 173 585 label \$1;
#X msg 175 675 label \$1;
#X msg 172 770 label \$1;
#X msg 177 970 label \$1;
#X msg 172 871 label \$1;
#X msg 316 583 label \$1;
#X msg 318 673 label \$1;
#X msg 315 768 label \$1;
#X msg 320 968 label \$1;
#X msg 315 869 label \$1;
#X msg 457 580 label \$1;
#X msg 459 670 label \$1;
#X msg 456 765 label \$1;
#X msg 461 965 label \$1;
#X msg 456 866 label \$1;
#X msg 598 582 label \$1;
#X msg 600 672 label \$1;
#X msg 597 767 label \$1;
#X msg 602 967 label \$1;
#X msg 597 868 label \$1;
#X msg 738 583 label \$1;
#X msg 740 673 label \$1;
#X msg 737 768 label \$1;
#X msg 742 968 label \$1;
#X msg 737 869 label \$1;
#X msg 866 581 label \$1;
#X msg 868 671 label \$1;
#X msg 865 766 label \$1;
#X msg 870 966 label \$1;
#X msg 865 867 label \$1;
#X msg 995 580 label \$1;
#X msg 997 670 label \$1;
#X msg 994 765 label \$1;
#X msg 999 965 label \$1;
#X msg 994 866 label \$1;
#X obj 173 554 r $midi-msg10-send;
#X obj 172 617 s $midi-msg10-recv;
#X obj 174 644 r $midi-note10-send;
#X obj 174 707 s $midi-note10-recv;
#X obj 172 739 r $midi-ch10-send;
#X obj 171 802 s $midi-ch10-recv;
#X obj 171 840 r $midi-bank10-send;
#X obj 173 903 s $midi-bank10-recv;
#X obj 176 939 r $midi-vel10-send;
#X obj 176 1002 s $midi-vel10-recv;
#X obj 316 552 r $midi-msg11-send;
#X obj 315 615 s $midi-msg11-recv;
#X obj 317 642 r $midi-note11-send;
#X obj 317 705 s $midi-note11-recv;
#X obj 315 737 r $midi-ch11-send;
#X obj 314 800 s $midi-ch11-recv;
#X obj 314 838 r $midi-bank11-send;
#X obj 316 901 s $midi-bank11-recv;
#X obj 319 937 r $midi-vel11-send;
#X obj 319 1000 s $midi-vel11-recv;
#X obj 457 549 r $midi-msg12-send;
#X obj 456 612 s $midi-msg12-recv;
#X obj 458 639 r $midi-note1-2send;
#X obj 458 702 s $midi-note12-recv;
#X obj 456 734 r $midi-ch12-send;
#X obj 455 797 s $midi-ch12-recv;
#X obj 455 835 r $midi-bank12-send;
#X obj 457 898 s $midi-bank12-recv;
#X obj 460 934 r $midi-vel12-send;
#X obj 460 997 s $midi-vel12-recv;
#X obj 598 551 r $midi-msg13-send;
#X msg 475 1098 label \$1;
#X msg 477 1188 label \$1;
#X msg 474 1283 label \$1;
#X msg 479 1483 label \$1;
#X msg 474 1384 label \$1;
#X msg 22 1110 label \$1;
#X msg 24 1200 label \$1;
#X msg 21 1295 label \$1;
#X msg 26 1495 label \$1;
#X msg 21 1396 label \$1;
#X msg 180 1106 label \$1;
#X msg 182 1196 label \$1;
#X msg 179 1291 label \$1;
#X msg 184 1491 label \$1;
#X msg 179 1392 label \$1;
#X msg 321 1106 label \$1;
#X msg 323 1196 label \$1;
#X msg 320 1291 label \$1;
#X msg 325 1491 label \$1;
#X msg 320 1392 label \$1;
#X obj 597 614 s $midi-msg13-recv;
#X obj 599 641 r $midi-note13-send;
#X obj 599 704 s $midi-note13-recv;
#X obj 597 736 r $midi-ch13-send;
#X obj 596 799 s $midi-ch13-recv;
#X obj 596 837 r $midi-bank13-send;
#X obj 598 900 s $midi-bank13-recv;
#X obj 601 936 r $midi-vel13-send;
#X obj 601 999 s $midi-vel13-recv;
#X obj 738 552 r $midi-msg14-send;
#X obj 737 615 s $midi-msg14-recv;
#X obj 739 642 r $midi-note14-send;
#X obj 739 706 s $midi-note14-recv;
#X obj 737 737 r $midi-ch14-send;
#X obj 736 800 s $midi-ch14-recv;
#X obj 736 838 r $midi-bank14-send;
#X obj 738 901 s $midi-bank14-recv;
#X obj 741 934 r $midi-vel14-send;
#X obj 741 1001 s $midi-vel14-recv;
#X obj 869 998 s $midi-vel15-recv;
#X obj 869 935 r $midi-vel15-send;
#X obj 866 900 s $midi-bank15-recv;
#X obj 864 836 r $midi-bank15-send;
#X obj 861 799 s $midi-ch15-recv;
#X obj 865 735 r $midi-ch15-send;
#X obj 867 703 s $midi-note15-recv;
#X obj 867 640 r $midi-note15-send;
#X obj 865 613 s $midi-msg15-recv;
#X obj 866 550 r $midi-msg15-send;
#X obj 995 549 r $midi-msg16-send;
#X obj 994 612 s $midi-msg16-recv;
#X obj 996 639 r $midi-note16-send;
#X obj 996 702 s $midi-note16-recv;
#X obj 994 734 r $midi-ch16-send;
#X obj 993 797 s $midi-ch16-recv;
#X obj 990 834 r $midi-bank16-send;
#X obj 995 898 s $midi-bank16-recv;
#X obj 998 934 r $midi-vel16-send;
#X obj 998 997 s $midi-vel16-recv;
#X msg 605 1096 label \$1;
#X msg 607 1186 label \$1;
#X msg 604 1281 label \$1;
#X msg 609 1481 label \$1;
#X msg 604 1382 label \$1;
#X msg 753 1097 label \$1;
#X msg 755 1187 label \$1;
#X msg 752 1282 label \$1;
#X msg 757 1482 label \$1;
#X msg 752 1383 label \$1;
#X msg 882 1098 label \$1;
#X msg 884 1188 label \$1;
#X msg 881 1283 label \$1;
#X msg 886 1483 label \$1;
#X msg 881 1384 label \$1;
#X msg 1018 1097 label \$1;
#X msg 1020 1187 label \$1;
#X msg 1017 1282 label \$1;
#X msg 1022 1482 label \$1;
#X msg 1017 1383 label \$1;
#X obj 23 1078 r $midi-msg17-send;
#X obj 21 1142 s $midi-msg17-recv;
#X obj 21 1169 r $midi-note17-send;
#X obj 23 1232 s $midi-note17-recv;
#X obj 21 1264 r $midi-ch17-send;
#X obj 20 1327 s $midi-ch17-recv;
#X obj 20 1365 r $midi-bank17-send;
#X obj 22 1428 s $midi-bank17-recv;
#X obj 25 1464 r $midi-vel17-send;
#X obj 25 1527 s $midi-vel17-recv;
#X obj 180 1075 r $midi-msg18-send;
#X obj 179 1138 s $midi-msg18-recv;
#X obj 181 1165 r $midi-note18-send;
#X obj 181 1228 s $midi-note18-recv;
#X obj 179 1260 r $midi-ch18-send;
#X obj 178 1322 s $midi-ch18-recv;
#X obj 177 1360 r $midi-bank18-send;
#X obj 180 1424 s $midi-bank18-recv;
#X obj 183 1460 r $midi-vel18-send;
#X obj 183 1523 s $midi-vel18-recv;
#X obj 324 1523 s $midi-vel19-recv;
#X obj 324 1460 r $midi-vel19-send;
#X obj 321 1424 s $midi-bank19-recv;
#X obj 319 1361 r $midi-bank19-send;
#X obj 319 1323 s $midi-ch19-recv;
#X obj 320 1260 r $midi-ch19-send;
#X obj 322 1228 s $midi-note19-recv;
#X obj 322 1165 r $midi-note19-send;
#X obj 320 1138 s $midi-msg19-recv;
#X obj 321 1075 r $midi-msg19-send;
#X obj 475 1067 r $midi-msg20-send;
#X obj 473 1130 s $midi-msg20-recv;
#X obj 476 1157 r $midi-note20-send;
#X obj 476 1220 s $midi-note20-recv;
#X obj 473 1252 r $midi-ch20-send;
#X obj 473 1315 s $midi-ch20-recv;
#X obj 473 1353 r $midi-bank20-send;
#X obj 473 1416 s $midi-bank20-recv;
#X obj 478 1452 r $midi-vel20-send;
#X obj 478 1515 s $midi-vel20-recv;
#X obj 605 1065 r $midi-msg21-send;
#X obj 604 1128 s $midi-msg21-recv;
#X obj 606 1155 r $midi-note21-send;
#X obj 606 1218 s $midi-note21-recv;
#X obj 604 1250 r $midi-ch21-send;
#X obj 603 1313 s $midi-ch21-recv;
#X obj 603 1351 r $midi-bank21-send;
#X obj 603 1414 s $midi-bank21-recv;
#X obj 608 1450 r $midi-vel21-send;
#X obj 608 1513 s $midi-vel21-recv;
#X obj 756 1514 s $midi-vel22-recv;
#X obj 756 1451 r $midi-vel22-send;
#X obj 751 1415 s $midi-bank22-recv;
#X obj 751 1352 r $midi-bank22-send;
#X obj 751 1314 s $midi-ch22-recv;
#X obj 752 1251 r $midi-ch22-send;
#X obj 754 1219 s $midi-note22-recv;
#X obj 754 1156 r $midi-note22-send;
#X obj 751 1130 s $midi-msg22-recv;
#X obj 753 1066 r $midi-msg22-send;
#X obj 882 1067 r $midi-msg23-send;
#X obj 881 1130 s $midi-msg23-recv;
#X obj 883 1157 r $midi-note23-send;
#X obj 883 1220 s $midi-note23-recv;
#X obj 881 1252 r $midi-ch23-send;
#X obj 880 1315 s $midi-ch23-recv;
#X obj 879 1353 r $midi-bank23-send;
#X obj 880 1416 s $midi-bank23-recv;
#X obj 885 1452 r $midi-vel23-send;
#X obj 885 1516 s $midi-vel23-recv;
#X obj 1021 1514 s $midi-vel24-recv;
#X obj 1021 1451 r $midi-vel24-send;
#X obj 1016 1415 s $midi-bank24-recv;
#X obj 1015 1351 r $midi-bank24-send;
#X obj 1016 1314 s $midi-ch24-recv;
#X obj 1017 1251 r $midi-ch24-send;
#X obj 1019 1219 s $midi-note24-recv;
#X obj 1019 1156 r $midi-note24-send;
#X obj 1017 1129 s $midi-msg24-recv;
#X obj 1018 1066 r $midi-msg24-send;
#X msg 29 1632 label \$1;
#X msg 31 1722 label \$1;
#X msg 28 1817 label \$1;
#X msg 33 2017 label \$1;
#X obj 28 1786 r $midi-ch2-send;
#X msg 28 1918 label \$1;
#X msg 191 1634 label \$1;
#X msg 193 1724 label \$1;
#X msg 190 1819 label \$1;
#X msg 195 2019 label \$1;
#X obj 190 1788 r $midi-ch2-send;
#X msg 190 1920 label \$1;
#X msg 331 1634 label \$1;
#X msg 333 1724 label \$1;
#X msg 330 1819 label \$1;
#X msg 335 2019 label \$1;
#X msg 330 1920 label \$1;
#X msg 481 1635 label \$1;
#X msg 483 1725 label \$1;
#X msg 480 1820 label \$1;
#X msg 485 2020 label \$1;
#X msg 480 1921 label \$1;
#X msg 617 1631 label \$1;
#X msg 619 1721 label \$1;
#X msg 616 1816 label \$1;
#X msg 621 2016 label \$1;
#X msg 616 1917 label \$1;
#X msg 771 1633 label \$1;
#X msg 773 1723 label \$1;
#X msg 770 1818 label \$1;
#X msg 775 2018 label \$1;
#X msg 770 1919 label \$1;
#X msg 905 1634 label \$1;
#X msg 907 1724 label \$1;
#X msg 904 1819 label \$1;
#X msg 909 2019 label \$1;
#X msg 904 1920 label \$1;
#X msg 1030 1635 label \$1;
#X msg 1032 1725 label \$1;
#X msg 1029 1820 label \$1;
#X msg 1034 2020 label \$1;
#X msg 1029 1921 label \$1;
#X msg 29 2171 label \$1;
#X msg 31 2261 label \$1;
#X msg 28 2356 label \$1;
#X msg 33 2556 label \$1;
#X msg 28 2457 label \$1;
#X obj 29 1601 r $midi-msg25-send;
#X obj 28 1664 s $midi-msg25-recv;
#X obj 30 1691 r $midi-note25-send;
#X obj 30 1754 s $midi-note25-recv;
#X obj 27 1849 s $midi-ch25-recv;
#X obj 27 1887 r $midi-bank25-send;
#X obj 27 1950 s $midi-bank25-recv;
#X obj 32 1986 r $midi-vel25-send;
#X obj 32 2049 s $midi-vel25-recv;
#X obj 191 1603 r $midi-msg26-send;
#X obj 190 1666 s $midi-msg26-recv;
#X obj 192 1693 r $midi-note26-send;
#X obj 192 1756 s $midi-note26-recv;
#X obj 189 1851 s $midi-ch26-recv;
#X obj 189 1889 r $midi-bank26-send;
#X obj 188 1952 s $midi-bank26-recv;
#X obj 194 1988 r $midi-vel26-send;
#X obj 194 2051 s $midi-vel26-recv;
#X obj 331 1603 r $midi-msg27-send;
#X obj 329 1666 s $midi-msg27-recv;
#X obj 330 1692 r $midi-note27-send;
#X obj 332 1756 s $midi-note27-recv;
#X obj 330 1788 r $midi-ch27-send;
#X obj 329 1851 s $midi-ch27-recv;
#X obj 329 1889 r $midi-bank27-send;
#X obj 329 1952 s $midi-bank27-recv;
#X obj 334 1989 r $midi-vel27-send;
#X obj 333 2051 s $midi-vel27-recv;
#X obj 481 1604 r $midi-msg28-send;
#X obj 480 1667 s $midi-msg28-recv;
#X obj 482 1694 r $midi-note28-send;
#X obj 482 1757 s $midi-note28-recv;
#X obj 480 1789 r $midi-ch28-send;
#X obj 479 1852 s $midi-ch28-recv;
#X obj 479 1890 r $midi-bank28-send;
#X obj 479 1953 s $midi-bank28-recv;
#X obj 482 1989 r $midi-vel28-send;
#X obj 482 2054 s $midi-vel28-recv;
#X obj 617 1600 r $midi-msg29-send;
#X obj 616 1663 s $midi-msg29-recv;
#X obj 618 1690 r $midi-note29-send;
#X obj 618 1753 s $midi-note29-recv;
#X obj 616 1785 r $midi-ch29-send;
#X obj 615 1848 s $midi-ch29-recv;
#X obj 615 1886 r $midi-bank29-send;
#X obj 614 1949 s $midi-bank29-recv;
#X obj 620 1985 r $midi-vel29-send;
#X obj 620 2048 s $midi-vel29-recv;
#X obj 771 1602 r $midi-msg30-send;
#X obj 772 1665 s $midi-msg30-recv;
#X obj 771 1692 r $midi-note30-send;
#X obj 772 1755 s $midi-note30-recv;
#X obj 770 1787 r $midi-ch30-send;
#X obj 769 1850 s $midi-ch30-recv;
#X obj 769 1888 r $midi-bank3-0send;
#X obj 769 1950 s $midi-bank30-recv;
#X obj 774 1987 r $midi-vel30-send;
#X obj 774 2050 s $midi-vel30-recv;
#X obj 905 1603 r $midi-msg31-send;
#X obj 904 1666 s $midi-msg31-recv;
#X obj 905 1693 r $midi-note31-send;
#X obj 906 1756 s $midi-note31-recv;
#X obj 904 1788 r $midi-ch31-send;
#X obj 903 1851 s $midi-ch311-recv;
#X obj 903 1889 r $midi-bank31-send;
#X obj 903 1951 s $midi-bank311-recv;
#X obj 908 1988 r $midi-vel31-send;
#X obj 908 2051 s $midi-vel31-recv;
#X obj 1033 2052 s $midi-vel32-recv;
#X obj 1033 1989 r $midi-vel32-send;
#X obj 1028 1952 s $midi-bank32-recv;
#X obj 1029 1890 r $midi-bank32-send;
#X obj 1027 1852 s $midi-ch32-recv;
#X obj 1029 1789 r $midi-ch32-send;
#X obj 1031 1757 s $midi-note32-recv;
#X obj 1030 1694 r $midi-note32-send;
#X obj 1029 1667 s $midi-msg32-recv;
#X obj 1030 1604 r $midi-msg32-send;
#X msg 189 2170 label \$1;
#X msg 191 2260 label \$1;
#X msg 188 2355 label \$1;
#X msg 193 2555 label \$1;
#X msg 188 2456 label \$1;
#X msg 328 2166 label \$1;
#X msg 330 2256 label \$1;
#X msg 327 2351 label \$1;
#X msg 332 2551 label \$1;
#X msg 327 2452 label \$1;
#X msg 483 2166 label \$1;
#X msg 485 2256 label \$1;
#X msg 482 2351 label \$1;
#X msg 487 2551 label \$1;
#X msg 482 2452 label \$1;
#X msg 619 2163 label \$1;
#X msg 621 2253 label \$1;
#X msg 618 2348 label \$1;
#X msg 623 2548 label \$1;
#X msg 618 2449 label \$1;
#X msg 774 2163 label \$1;
#X msg 776 2253 label \$1;
#X msg 773 2348 label \$1;
#X msg 778 2548 label \$1;
#X msg 773 2449 label \$1;
#X msg 912 2162 label \$1;
#X msg 914 2252 label \$1;
#X msg 911 2347 label \$1;
#X msg 916 2547 label \$1;
#X msg 911 2448 label \$1;
#X msg 1043 2161 label \$1;
#X msg 1045 2251 label \$1;
#X msg 1042 2346 label \$1;
#X msg 1047 2546 label \$1;
#X msg 1042 2447 label \$1;
#X msg 31 2703 label \$1;
#X msg 33 2793 label \$1;
#X msg 30 2888 label \$1;
#X msg 35 3088 label \$1;
#X msg 30 2989 label \$1;
#X msg 181 2702 label \$1;
#X msg 183 2792 label \$1;
#X msg 180 2887 label \$1;
#X msg 185 3087 label \$1;
#X msg 180 2988 label \$1;
#X msg 329 2702 label \$1;
#X msg 331 2792 label \$1;
#X msg 328 2887 label \$1;
#X msg 333 3087 label \$1;
#X msg 328 2988 label \$1;
#X msg 489 2710 label \$1;
#X msg 491 2800 label \$1;
#X msg 488 2895 label \$1;
#X msg 493 3095 label \$1;
#X msg 488 2996 label \$1;
#X msg 619 2711 label \$1;
#X msg 621 2801 label \$1;
#X msg 618 2896 label \$1;
#X msg 623 3096 label \$1;
#X msg 618 2997 label \$1;
#X msg 778 2711 label \$1;
#X msg 780 2801 label \$1;
#X msg 777 2896 label \$1;
#X msg 782 3096 label \$1;
#X msg 777 2997 label \$1;
#X msg 920 2708 label \$1;
#X msg 922 2798 label \$1;
#X msg 919 2893 label \$1;
#X msg 924 3093 label \$1;
#X msg 919 2994 label \$1;
#X msg 1054 2704 label \$1;
#X msg 1056 2794 label \$1;
#X msg 1053 2889 label \$1;
#X msg 1058 3089 label \$1;
#X msg 1053 2990 label \$1;
#X msg 26 3246 label \$1;
#X msg 28 3336 label \$1;
#X msg 25 3431 label \$1;
#X msg 30 3631 label \$1;
#X msg 25 3532 label \$1;
#X msg 185 3243 label \$1;
#X msg 187 3333 label \$1;
#X msg 184 3428 label \$1;
#X msg 189 3628 label \$1;
#X msg 184 3529 label \$1;
#X msg 333 3245 label \$1;
#X msg 335 3335 label \$1;
#X msg 332 3430 label \$1;
#X msg 337 3630 label \$1;
#X msg 332 3531 label \$1;
#X msg 498 3246 label \$1;
#X msg 500 3336 label \$1;
#X msg 497 3431 label \$1;
#X msg 502 3631 label \$1;
#X msg 497 3532 label \$1;
#X msg 637 3246 label \$1;
#X msg 639 3336 label \$1;
#X msg 636 3431 label \$1;
#X msg 641 3631 label \$1;
#X msg 636 3532 label \$1;
#X msg 800 3246 label \$1;
#X msg 802 3336 label \$1;
#X msg 799 3431 label \$1;
#X msg 804 3631 label \$1;
#X msg 799 3532 label \$1;
#X msg 933 3244 label \$1;
#X msg 935 3334 label \$1;
#X msg 932 3429 label \$1;
#X msg 937 3629 label \$1;
#X msg 932 3530 label \$1;
#X msg 1066 3239 label \$1;
#X msg 1068 3329 label \$1;
#X msg 1065 3424 label \$1;
#X msg 1070 3624 label \$1;
#X msg 1065 3525 label \$1;
#X msg 28 3780 label \$1;
#X msg 30 3870 label \$1;
#X msg 27 3965 label \$1;
#X msg 32 4165 label \$1;
#X msg 27 4066 label \$1;
#X msg 188 3779 label \$1;
#X msg 190 3869 label \$1;
#X msg 187 3964 label \$1;
#X msg 192 4164 label \$1;
#X msg 187 4065 label \$1;
#X msg 339 3774 label \$1;
#X msg 341 3864 label \$1;
#X msg 338 3959 label \$1;
#X msg 343 4159 label \$1;
#X msg 338 4060 label \$1;
#X msg 497 3772 label \$1;
#X msg 499 3862 label \$1;
#X msg 496 3957 label \$1;
#X msg 501 4157 label \$1;
#X msg 496 4058 label \$1;
#X msg 646 3769 label \$1;
#X msg 648 3859 label \$1;
#X msg 645 3954 label \$1;
#X msg 650 4154 label \$1;
#X msg 645 4055 label \$1;
#X msg 820 3776 label \$1;
#X msg 822 3866 label \$1;
#X msg 819 3961 label \$1;
#X msg 824 4161 label \$1;
#X msg 819 4062 label \$1;
#X msg 953 3772 label \$1;
#X msg 955 3862 label \$1;
#X msg 952 3957 label \$1;
#X msg 957 4157 label \$1;
#X msg 952 4058 label \$1;
#X msg 1091 3774 label \$1;
#X msg 1093 3864 label \$1;
#X msg 1090 3959 label \$1;
#X msg 1095 4159 label \$1;
#X msg 1090 4060 label \$1;
#X obj 29 2140 r $midi-msg33-send;
#X obj 28 2203 s $midi-msg33-recv;
#X obj 29 2230 r $midi-note33-send;
#X obj 30 2294 s $midi-note33-recv;
#X obj 27 2324 r $midi-ch33-send;
#X obj 27 2388 s $midi-ch33-recv;
#X obj 27 2426 r $midi-bank33-send;
#X obj 27 2488 s $midi-bank33-recv;
#X obj 32 2525 r $midi-vel33-send;
#X obj 32 2588 s $midi-vel33-recv;
#X obj 189 2139 r $midi-msg34-send;
#X obj 188 2202 s $midi-msg34-recv;
#X obj 189 2229 r $midi-note34-send;
#X obj 190 2292 s $midi-note34-recv;
#X obj 188 2324 r $midi-ch34-send;
#X obj 187 2387 s $midi-ch34-recv;
#X obj 187 2425 r $midi-bank34-send;
#X obj 187 2487 s $midi-bank34-recv;
#X obj 192 2524 r $midi-vel34-send;
#X obj 192 2587 s $midi-vel34-recv;
#X obj 334 2584 s $midi-vel35-recv;
#X obj 331 2520 r $midi-vel35-send;
#X obj 326 2484 s $midi-bank35-recv;
#X obj 326 2421 r $midi-bank35-send;
#X obj 326 2383 s $midi-ch35-recv;
#X obj 327 2320 r $midi-ch35-send;
#X obj 329 2288 s $midi-note35-recv;
#X obj 328 2225 r $midi-note35-send;
#X obj 327 2198 s $midi-msg35-recv;
#X obj 328 2135 r $midi-msg35-send;
#X obj 483 2135 r $midi-msg36-send;
#X obj 482 2198 s $midi-msg36-recv;
#X obj 483 2225 r $midi-note36-send;
#X obj 484 2288 s $midi-note36-recv;
#X obj 482 2320 r $midi-ch36-send;
#X obj 481 2383 s $midi-ch36-recv;
#X obj 481 2421 r $midi-bank36-send;
#X obj 479 2483 s $midi-bank36-recv;
#X obj 486 2520 r $midi-vel36-send;
#X obj 485 2584 s $midi-vel36-recv;
#X obj 622 2580 s $midi-vel37-recv;
#X obj 622 2517 r $midi-vel37-send;
#X obj 617 2480 s $midi-bank37-recv;
#X obj 617 2418 r $midi-bank37-send;
#X obj 617 2380 s $midi-ch37-recv;
#X obj 618 2317 r $midi-ch37-send;
#X obj 620 2285 s $midi-note37-recv;
#X obj 619 2222 r $midi-note37-send;
#X obj 618 2195 s $midi-msg37-recv;
#X obj 619 2132 r $midi-msg37-send;
#X obj 774 2132 r $midi-msg38-send;
#X obj 773 2195 s $midi-msg38-recv;
#X obj 774 2221 r $midi-note38-send;
#X obj 775 2285 s $midi-note38-recv;
#X obj 771 2316 r $midi-ch38-send;
#X obj 772 2380 s $midi-ch38-recv;
#X obj 772 2420 r $midi-bank38-send;
#X obj 772 2480 s $midi-bank38-recv;
#X obj 776 2517 r $midi-vel38-send;
#X obj 778 2579 s $midi-vel38-recv;
#X obj 916 2579 s $midi-vel39-recv;
#X obj 915 2516 r $midi-vel39-send;
#X obj 910 2479 s $midi-bank39-recv;
#X obj 910 2417 r $midi-bank39-send;
#X obj 910 2379 s $midi-ch39-recv;
#X obj 911 2316 r $midi-ch39-send;
#X obj 913 2284 s $midi-note39-recv;
#X obj 911 2194 s $midi-msg39-recv;
#X obj 912 2221 r $midi-note39-send;
#X obj 912 2131 r $midi-msg39-send;
#X obj 1043 2129 r $midi-msg40-send;
#X obj 1042 2193 s $midi-msg40-recv;
#X obj 1044 2217 r $midi-note40-send;
#X obj 1044 2285 s $midi-note40-recv;
#X obj 1042 2315 r $midi-ch40-send;
#X obj 1041 2416 r $midi-bank40-send;
#X obj 1039 2478 s $midi-bank40-recv;
#X obj 1047 2579 s $midi-vel40-recv;
#X obj 1045 2515 r $midi-vel40-send;
#X obj 1040 2378 s $midi-ch40-recv;
#X obj 31 2672 r $midi-msg41-send;
#X obj 30 2735 s $midi-msg41-recv;
#X obj 31 2762 r $midi-note41-send;
#X obj 32 2825 s $midi-note41-recv;
#X obj 30 2857 r $midi-ch41-send;
#X obj 29 2920 s $midi-ch41-recv;
#X obj 29 2958 r $midi-bank41-send;
#X obj 29 3020 s $midi-bank41-recv;
#X obj 34 3057 r $midi-vel41-send;
#X obj 35 3120 s $midi-vel41-recv;
#X obj 181 2671 r $midi-msg42-send;
#X obj 180 2734 s $midi-msg42-recv;
#X obj 181 2761 r $midi-note42-send;
#X obj 182 2824 s $midi-note42-recv;
#X obj 180 2856 r $midi-ch42-send;
#X obj 179 2919 s $midi-ch42-recv;
#X obj 179 2957 r $midi-bank42-send;
#X obj 179 3019 s $midi-bank42-recv;
#X obj 184 3056 r $midi-vel42-send;
#X obj 185 3119 s $midi-vel42-recv;
#X obj 333 3119 s $midi-vel43-recv;
#X obj 332 3056 r $midi-vel43-send;
#X obj 327 3019 s $midi-bank43-recv;
#X obj 327 2957 r $midi-bank43-send;
#X obj 326 2919 s $midi-ch43-recv;
#X obj 327 2858 r $midi-ch43-send;
#X obj 330 2824 s $midi-note43-recv;
#X obj 329 2761 r $midi-note43-send;
#X obj 327 2734 s $midi-msg43-recv;
#X obj 329 2671 r $midi-msg43-send;
#X obj 489 2679 r $midi-msg44-send;
#X obj 488 2742 s $midi-msg44-recv;
#X obj 489 2769 r $midi-note44-send;
#X obj 490 2832 s $midi-note44-recv;
#X obj 488 2864 r $midi-ch44-send;
#X obj 486 2927 s $midi-ch44-recv;
#X obj 487 2965 r $midi-bank44-send;
#X obj 487 3027 s $midi-bank44-recv;
#X obj 492 3064 r $midi-vel44-send;
#X obj 493 3127 s $midi-vel44-recv;
#X obj 620 2679 r $midi-msg45-send;
#X obj 618 2743 s $midi-msg45-recv;
#X obj 619 2770 r $midi-note45-send;
#X obj 620 2833 s $midi-note45-recv;
#X obj 618 2865 r $midi-ch45-send;
#X obj 617 2928 s $midi-ch45-recv;
#X obj 617 2966 r $midi-bank45-send;
#X obj 617 3028 s $midi-bank45-recv;
#X obj 622 3064 r $midi-vel45-send;
#X obj 623 3128 s $midi-vel45-recv;
#X obj 778 2680 r $midi-msg46-send;
#X obj 777 2743 s $midi-msg46-recv;
#X obj 778 2770 r $midi-note46-send;
#X obj 779 2833 s $midi-note46-recv;
#X obj 777 2865 r $midi-ch46-send;
#X obj 775 2928 s $midi-ch46-recv;
#X obj 776 2966 r $midi-bank46-send;
#X obj 776 3028 s $midi-bank46-recv;
#X obj 781 3065 r $midi-vel46-send;
#X obj 782 3128 s $midi-vel46-recv;
#X obj 920 2677 r $midi-msg47-send;
#X obj 919 2740 s $midi-msg47-recv;
#X obj 920 2767 r $midi-note47-send;
#X obj 921 2830 s $midi-note47-recv;
#X obj 919 2862 r $midi-ch47-send;
#X obj 918 2925 s $midi-ch47-recv;
#X obj 918 2963 r $midi-bank47-send;
#X obj 918 3025 s $midi-bank47-recv;
#X obj 922 3062 r $midi-vel47-send;
#X obj 924 3125 s $midi-vel47-recv;
#X obj 1058 3121 s $midi-vel48-recv;
#X obj 1057 3057 r $midi-vel48-send;
#X obj 1052 3022 s $midi-bank48-recv;
#X obj 1052 2959 r $midi-bank48-send;
#X obj 1052 2921 s $midi-ch48-recv;
#X obj 1053 2858 r $midi-ch48-send;
#X obj 1055 2826 s $midi-note48-recv;
#X obj 1054 2763 r $midi-note48-send;
#X obj 1053 2736 s $midi-msg48-recv;
#X obj 1054 2673 r $midi-msg48-send;
#X obj 25 3217 r $midi-msg49-send;
#X obj 25 3278 s $midi-msg49-recv;
#X obj 26 3305 r $midi-note49-send;
#X obj 27 3368 s $midi-note49-recv;
#X obj 25 3400 r $midi-ch49-send;
#X obj 24 3463 s $midi-ch49-recv;
#X obj 24 3501 r $midi-bank49-send;
#X obj 24 3563 s $midi-bank49-recv;
#X obj 29 3600 r $midi-vel49-send;
#X obj 30 3663 s $midi-vel49-recv;
#X obj 185 3212 r $midi-msg50-send;
#X obj 184 3275 s $midi-msg50-recv;
#X obj 185 3302 r $midi-note50-send;
#X obj 186 3365 s $midi-note50-recv;
#X obj 184 3397 r $midi-ch50-send;
#X obj 183 3460 s $midi-ch50-recv;
#X obj 183 3498 r $midi-bank50-send;
#X obj 183 3560 s $midi-bank50-recv;
#X obj 188 3597 r $midi-vel50-send;
#X obj 189 3660 s $midi-vel50-recv;
#X obj 333 3214 r $midi-msg51-send;
#X obj 332 3277 s $midi-msg51-recv;
#X obj 333 3304 r $midi-note51-send;
#X obj 334 3367 s $midi-note51-recv;
#X obj 331 3399 r $midi-ch51-send;
#X obj 331 3462 s $midi-ch51-recv;
#X obj 331 3500 r $midi-bank51-send;
#X obj 331 3562 s $midi-bank51-recv;
#X obj 336 3599 r $midi-vel51-send;
#X obj 337 3662 s $midi-vel51-recv;
#X obj 502 3663 s $midi-vel52-recv;
#X obj 501 3600 r $midi-vel52-send;
#X obj 496 3563 s $midi-bank52-recv;
#X obj 496 3501 r $midi-bank5-2send;
#X obj 496 3463 s $midi-ch52-recv;
#X obj 496 3400 r $midi-ch52-send;
#X obj 499 3368 s $midi-note52-recv;
#X obj 498 3305 r $midi-note52-send;
#X obj 497 3278 s $midi-msg52-recv;
#X obj 498 3215 r $midi-msg52-send;
#X obj 636 3215 r $midi-msg53-send;
#X obj 636 3278 s $midi-msg53-recv;
#X obj 637 3305 r $midi-note53-send;
#X obj 638 3368 s $midi-note53-recv;
#X obj 636 3400 r $midi-ch53-send;
#X obj 635 3463 s $midi-ch53-recv;
#X obj 635 3501 r $midi-bank53-send;
#X obj 635 3563 s $midi-bank53-recv;
#X obj 640 3600 r $midi-vel53-send;
#X obj 641 3663 s $midi-vel53-recv;
#X obj 804 3663 s $midi-vel54-recv;
#X obj 803 3600 r $midi-vel54-send;
#X obj 798 3563 s $midi-bank54-recv;
#X obj 798 3501 r $midi-bank54-send;
#X obj 798 3463 s $midi-ch54-recv;
#X obj 799 3400 r $midi-ch54-send;
#X obj 801 3368 s $midi-note54-recv;
#X obj 800 3305 r $midi-note54-send;
#X obj 799 3278 s $midi-msg54-recv;
#X obj 800 3215 r $midi-msg54-send;
#X obj 933 3213 r $midi-msg55-send;
#X obj 932 3276 s $midi-msg55-recv;
#X obj 933 3303 r $midi-note55-send;
#X obj 934 3366 s $midi-note55-recv;
#X obj 931 3397 r $midi-ch55-send;
#X obj 931 3461 s $midi-ch55-recv;
#X obj 931 3499 r $midi-bank55-send;
#X obj 931 3561 s $midi-bank55-recv;
#X obj 936 3598 r $midi-vel55-send;
#X obj 937 3661 s $midi-vel55-recv;
#X obj 1066 3208 r $midi-msg56-send;
#X obj 1065 3271 s $midi-msg56-recv;
#X obj 1066 3298 r $midi-note56-send;
#X obj 1067 3361 s $midi-note56-recv;
#X obj 1065 3393 r $midi-ch56-send;
#X obj 1064 3456 s $midi-ch56-recv;
#X obj 1064 3494 r $midi-bank56-send;
#X obj 1064 3556 s $midi-bank56-recv;
#X obj 1069 3593 r $midi-vel56-send;
#X obj 1070 3656 s $midi-vel56-recv;
#X obj 28 3749 r $midi-msg57-send;
#X obj 27 3812 s $midi-msg57-recv;
#X obj 28 3839 r $midi-note57-send;
#X obj 29 3902 s $midi-note57-recv;
#X obj 27 3934 r $midi-ch57-send;
#X obj 26 3997 s $midi-ch57-recv;
#X obj 26 4035 r $midi-bank57-send;
#X obj 26 4097 s $midi-bank57-recv;
#X obj 31 4134 r $midi-vel57-send;
#X obj 32 4197 s $midi-vel57-recv;
#X obj 188 3748 r $midi-msg58-send;
#X obj 187 3811 s $midi-msg58-recv;
#X obj 188 3838 r $midi-note58-send;
#X obj 189 3901 s $midi-note58-recv;
#X obj 187 3933 r $midi-ch58-send;
#X obj 186 3996 s $midi-ch58-recv;
#X obj 186 4034 r $midi-bank58-send;
#X obj 186 4096 s $midi-bank58-recv;
#X obj 191 4133 r $midi-vel58-send;
#X obj 192 4196 s $midi-vel58-recv;
#X obj 343 4191 s $midi-vel59-recv;
#X obj 342 4128 r $midi-vel59-send;
#X obj 337 4091 s $midi-bank59-recv;
#X obj 337 4029 r $midi-bank59-send;
#X obj 337 3991 s $midi-ch59-recv;
#X obj 338 3928 r $midi-ch59-send;
#X obj 340 3896 s $midi-note59-recv;
#X obj 339 3833 r $midi-note59-send;
#X obj 338 3806 s $midi-msg59-recv;
#X obj 339 3743 r $midi-msg59-send;
#X obj 497 3741 r $midi-msg60-send;
#X obj 496 3804 s $midi-msg60-recv;
#X obj 496 3831 r $midi-note60-send;
#X obj 498 3894 s $midi-note60-recv;
#X obj 496 3926 r $midi-ch60-send;
#X obj 495 3989 s $midi-ch60-recv;
#X obj 495 4027 r $midi-bank60-send;
#X obj 495 4089 s $midi-bank60-recv;
#X obj 500 4126 r $midi-vel60-send;
#X obj 501 4189 s $midi-vel60-recv;
#X obj 650 4186 s $midi-vel61-recv;
#X obj 649 4123 r $midi-vel61-send;
#X obj 644 4086 s $midi-bank61-recv;
#X obj 644 4024 r $midi-bank61-send;
#X obj 644 3986 s $midi-ch61-recv;
#X obj 645 3923 r $midi-ch61-send;
#X obj 647 3891 s $midi-note61-recv;
#X obj 645 3828 r $midi-note61-send;
#X obj 645 3801 s $midi-msg61-recv;
#X obj 646 3738 r $midi-msg61-send;
#X obj 820 3745 r $midi-msg62-send;
#X obj 819 3808 s $midi-msg62-recv;
#X obj 819 3835 r $midi-note62-send;
#X obj 821 3898 s $midi-note62-recv;
#X obj 819 3930 r $midi-ch62-send;
#X obj 818 3993 s $midi-ch62-recv;
#X obj 818 4031 r $midi-bank62-send;
#X obj 818 4093 s $midi-bank62-recv;
#X obj 823 4131 r $midi-vel62-send;
#X obj 824 4193 s $midi-vel62-recv;
#X obj 957 4189 s $midi-vel63-recv;
#X obj 956 4126 r $midi-vel63-send;
#X obj 951 4089 s $midi-bank63-recv;
#X obj 951 4027 r $midi-bank63-send;
#X obj 951 3989 s $midi-ch63-recv;
#X obj 952 3926 r $midi-ch63-send;
#X obj 954 3895 s $midi-note63-recv;
#X obj 952 3831 r $midi-note63-send;
#X obj 952 3804 s $midi-msg63-recv;
#X obj 953 3741 r $midi-msg63-send;
#X obj 1091 3743 r $midi-msg64-send;
#X obj 1090 3806 s $midi-msg64-recv;
#X obj 1090 3833 r $midi-note64-send;
#X obj 1092 3896 s $midi-note64-recv;
#X obj 1090 3928 r $midi-ch64-send;
#X obj 1089 3991 s $midi-ch64-recv;
#X obj 1089 4029 r $midi-bank64-send;
#X obj 1089 4091 s $midi-bank64-recv;
#X obj 1094 4128 r $midi-vel64-send;
#X obj 1095 4191 s $midi-vel64-recv;
#X connect 0 0 3 0;
#X connect 1 0 20 0;
#X connect 2 0 0 0;
#X connect 4 0 7 0;
#X connect 5 0 24 0;
#X connect 6 0 4 0;
#X connect 8 0 22 0;
#X connect 9 0 51 0;
#X connect 10 0 12 0;
#X connect 11 0 10 0;
#X connect 13 0 27 0;
#X connect 14 0 16 0;
#X connect 15 0 14 0;
#X connect 17 0 28 0;
#X connect 19 0 1 0;
#X connect 21 0 8 0;
#X connect 23 0 5 0;
#X connect 25 0 9 0;
#X connect 26 0 13 0;
#X connect 28 0 18 0;
#X connect 29 0 50 0;
#X connect 30 0 36 0;
#X connect 31 0 38 0;
#X connect 32 0 42 0;
#X connect 33 0 40 0;
#X connect 34 0 29 0;
#X connect 35 0 30 0;
#X connect 37 0 31 0;
#X connect 39 0 33 0;
#X connect 41 0 32 0;
#X connect 43 0 49 0;
#X connect 44 0 53 0;
#X connect 45 0 55 0;
#X connect 46 0 59 0;
#X connect 47 0 57 0;
#X connect 48 0 43 0;
#X connect 52 0 44 0;
#X connect 54 0 45 0;
#X connect 56 0 47 0;
#X connect 58 0 46 0;
#X connect 60 0 66 0;
#X connect 61 0 68 0;
#X connect 62 0 70 0;
#X connect 63 0 74 0;
#X connect 64 0 72 0;
#X connect 65 0 60 0;
#X connect 67 0 61 0;
#X connect 69 0 62 0;
#X connect 71 0 64 0;
#X connect 73 0 63 0;
#X connect 75 0 81 0;
#X connect 76 0 83 0;
#X connect 77 0 85 0;
#X connect 78 0 89 0;
#X connect 79 0 87 0;
#X connect 80 0 75 0;
#X connect 82 0 76 0;
#X connect 84 0 77 0;
#X connect 86 0 79 0;
#X connect 88 0 78 0;
#X connect 90 0 101 0;
#X connect 91 0 103 0;
#X connect 92 0 105 0;
#X connect 93 0 109 0;
#X connect 94 0 107 0;
#X connect 95 0 111 0;
#X connect 96 0 113 0;
#X connect 97 0 115 0;
#X connect 98 0 119 0;
#X connect 99 0 117 0;
#X connect 100 0 90 0;
#X connect 102 0 91 0;
#X connect 104 0 92 0;
#X connect 106 0 94 0;
#X connect 108 0 93 0;
#X connect 110 0 95 0;
#X connect 112 0 96 0;
#X connect 114 0 97 0;
#X connect 116 0 99 0;
#X connect 118 0 98 0;
#X connect 120 0 126 0;
#X connect 121 0 128 0;
#X connect 122 0 130 0;
#X connect 123 0 134 0;
#X connect 124 0 132 0;
#X connect 125 0 120 0;
#X connect 127 0 121 0;
#X connect 129 0 122 0;
#X connect 131 0 124 0;
#X connect 133 0 123 0;
#X connect 135 0 171 0;
#X connect 136 0 173 0;
#X connect 137 0 175 0;
#X connect 138 0 179 0;
#X connect 139 0 177 0;
#X connect 140 0 181 0;
#X connect 141 0 183 0;
#X connect 142 0 185 0;
#X connect 143 0 189 0;
#X connect 144 0 187 0;
#X connect 145 0 191 0;
#X connect 146 0 193 0;
#X connect 147 0 195 0;
#X connect 148 0 199 0;
#X connect 149 0 197 0;
#X connect 150 0 221 0;
#X connect 151 0 223 0;
#X connect 152 0 225 0;
#X connect 153 0 229 0;
#X connect 154 0 227 0;
#X connect 155 0 231 0;
#X connect 156 0 233 0;
#X connect 157 0 235 0;
#X connect 158 0 239 0;
#X connect 159 0 237 0;
#X connect 160 0 248 0;
#X connect 161 0 246 0;
#X connect 162 0 244 0;
#X connect 163 0 240 0;
#X connect 164 0 242 0;
#X connect 165 0 251 0;
#X connect 166 0 253 0;
#X connect 167 0 255 0;
#X connect 168 0 259 0;
#X connect 169 0 257 0;
#X connect 170 0 135 0;
#X connect 172 0 136 0;
#X connect 174 0 137 0;
#X connect 176 0 139 0;
#X connect 178 0 138 0;
#X connect 180 0 140 0;
#X connect 182 0 141 0;
#X connect 184 0 142 0;
#X connect 186 0 144 0;
#X connect 188 0 143 0;
#X connect 190 0 145 0;
#X connect 192 0 146 0;
#X connect 194 0 147 0;
#X connect 196 0 149 0;
#X connect 198 0 148 0;
#X connect 200 0 150 0;
#X connect 201 0 311 0;
#X connect 202 0 313 0;
#X connect 203 0 315 0;
#X connect 204 0 319 0;
#X connect 205 0 317 0;
#X connect 206 0 281 0;
#X connect 207 0 283 0;
#X connect 208 0 285 0;
#X connect 209 0 289 0;
#X connect 210 0 287 0;
#X connect 211 0 291 0;
#X connect 212 0 293 0;
#X connect 213 0 295 0;
#X connect 214 0 299 0;
#X connect 215 0 297 0;
#X connect 216 0 308 0;
#X connect 217 0 306 0;
#X connect 218 0 304 0;
#X connect 219 0 300 0;
#X connect 220 0 302 0;
#X connect 222 0 151 0;
#X connect 224 0 152 0;
#X connect 226 0 154 0;
#X connect 228 0 153 0;
#X connect 230 0 155 0;
#X connect 232 0 156 0;
#X connect 234 0 157 0;
#X connect 236 0 159 0;
#X connect 238 0 158 0;
#X connect 241 0 163 0;
#X connect 243 0 164 0;
#X connect 245 0 162 0;
#X connect 247 0 161 0;
#X connect 249 0 160 0;
#X connect 250 0 165 0;
#X connect 252 0 166 0;
#X connect 254 0 167 0;
#X connect 256 0 169 0;
#X connect 258 0 168 0;
#X connect 260 0 321 0;
#X connect 261 0 323 0;
#X connect 262 0 325 0;
#X connect 263 0 329 0;
#X connect 264 0 327 0;
#X connect 265 0 338 0;
#X connect 266 0 336 0;
#X connect 267 0 334 0;
#X connect 268 0 330 0;
#X connect 269 0 332 0;
#X connect 270 0 341 0;
#X connect 271 0 343 0;
#X connect 272 0 345 0;
#X connect 273 0 349 0;
#X connect 274 0 347 0;
#X connect 275 0 358 0;
#X connect 276 0 356 0;
#X connect 277 0 354 0;
#X connect 278 0 350 0;
#X connect 279 0 352 0;
#X connect 280 0 206 0;
#X connect 282 0 207 0;
#X connect 284 0 208 0;
#X connect 286 0 210 0;
#X connect 288 0 209 0;
#X connect 290 0 211 0;
#X connect 292 0 212 0;
#X connect 294 0 213 0;
#X connect 296 0 215 0;
#X connect 298 0 214 0;
#X connect 301 0 219 0;
#X connect 303 0 220 0;
#X connect 305 0 218 0;
#X connect 307 0 217 0;
#X connect 309 0 216 0;
#X connect 310 0 201 0;
#X connect 312 0 202 0;
#X connect 314 0 203 0;
#X connect 316 0 205 0;
#X connect 318 0 204 0;
#X connect 320 0 260 0;
#X connect 322 0 261 0;
#X connect 324 0 262 0;
#X connect 326 0 264 0;
#X connect 328 0 263 0;
#X connect 331 0 268 0;
#X connect 333 0 269 0;
#X connect 335 0 267 0;
#X connect 337 0 266 0;
#X connect 339 0 265 0;
#X connect 340 0 270 0;
#X connect 342 0 271 0;
#X connect 344 0 272 0;
#X connect 346 0 274 0;
#X connect 348 0 273 0;
#X connect 351 0 278 0;
#X connect 353 0 279 0;
#X connect 355 0 277 0;
#X connect 357 0 276 0;
#X connect 359 0 275 0;
#X connect 360 0 408 0;
#X connect 361 0 410 0;
#X connect 362 0 411 0;
#X connect 363 0 415 0;
#X connect 364 0 362 0;
#X connect 365 0 413 0;
#X connect 366 0 417 0;
#X connect 367 0 419 0;
#X connect 368 0 420 0;
#X connect 369 0 424 0;
#X connect 370 0 368 0;
#X connect 371 0 422 0;
#X connect 372 0 426 0;
#X connect 373 0 428 0;
#X connect 374 0 430 0;
#X connect 375 0 434 0;
#X connect 376 0 432 0;
#X connect 377 0 436 0;
#X connect 378 0 438 0;
#X connect 379 0 440 0;
#X connect 380 0 444 0;
#X connect 381 0 442 0;
#X connect 382 0 446 0;
#X connect 383 0 448 0;
#X connect 384 0 450 0;
#X connect 385 0 454 0;
#X connect 386 0 452 0;
#X connect 387 0 456 0;
#X connect 388 0 458 0;
#X connect 389 0 460 0;
#X connect 390 0 464 0;
#X connect 391 0 462 0;
#X connect 392 0 466 0;
#X connect 393 0 468 0;
#X connect 394 0 470 0;
#X connect 395 0 474 0;
#X connect 396 0 472 0;
#X connect 397 0 483 0;
#X connect 398 0 481 0;
#X connect 399 0 479 0;
#X connect 400 0 475 0;
#X connect 401 0 477 0;
#X connect 402 0 641 0;
#X connect 403 0 643 0;
#X connect 404 0 645 0;
#X connect 405 0 649 0;
#X connect 406 0 647 0;
#X connect 407 0 360 0;
#X connect 409 0 361 0;
#X connect 412 0 365 0;
#X connect 414 0 363 0;
#X connect 416 0 366 0;
#X connect 418 0 367 0;
#X connect 421 0 371 0;
#X connect 423 0 369 0;
#X connect 425 0 372 0;
#X connect 427 0 373 0;
#X connect 429 0 374 0;
#X connect 431 0 376 0;
#X connect 433 0 375 0;
#X connect 435 0 377 0;
#X connect 437 0 378 0;
#X connect 439 0 379 0;
#X connect 441 0 381 0;
#X connect 443 0 380 0;
#X connect 445 0 382 0;
#X connect 447 0 383 0;
#X connect 449 0 384 0;
#X connect 451 0 386 0;
#X connect 453 0 385 0;
#X connect 455 0 387 0;
#X connect 457 0 388 0;
#X connect 459 0 389 0;
#X connect 461 0 391 0;
#X connect 463 0 390 0;
#X connect 465 0 392 0;
#X connect 467 0 393 0;
#X connect 469 0 394 0;
#X connect 471 0 396 0;
#X connect 473 0 395 0;
#X connect 476 0 400 0;
#X connect 478 0 401 0;
#X connect 480 0 399 0;
#X connect 482 0 398 0;
#X connect 484 0 397 0;
#X connect 485 0 651 0;
#X connect 486 0 653 0;
#X connect 487 0 655 0;
#X connect 488 0 659 0;
#X connect 489 0 657 0;
#X connect 490 0 668 0;
#X connect 491 0 666 0;
#X connect 492 0 664 0;
#X connect 493 0 660 0;
#X connect 494 0 662 0;
#X connect 495 0 671 0;
#X connect 496 0 673 0;
#X connect 497 0 675 0;
#X connect 498 0 679 0;
#X connect 499 0 677 0;
#X connect 500 0 688 0;
#X connect 501 0 686 0;
#X connect 502 0 684 0;
#X connect 503 0 680 0;
#X connect 504 0 682 0;
#X connect 505 0 691 0;
#X connect 506 0 693 0;
#X connect 507 0 695 0;
#X connect 508 0 699 0;
#X connect 509 0 697 0;
#X connect 510 0 707 0;
#X connect 511 0 706 0;
#X connect 512 0 704 0;
#X connect 513 0 700 0;
#X connect 514 0 702 0;
#X connect 515 0 711 0;
#X connect 516 0 713 0;
#X connect 517 0 719 0;
#X connect 518 0 717 0;
#X connect 519 0 716 0;
#X connect 520 0 721 0;
#X connect 521 0 723 0;
#X connect 522 0 725 0;
#X connect 523 0 729 0;
#X connect 524 0 727 0;
#X connect 525 0 731 0;
#X connect 526 0 733 0;
#X connect 527 0 735 0;
#X connect 528 0 739 0;
#X connect 529 0 737 0;
#X connect 530 0 748 0;
#X connect 531 0 746 0;
#X connect 532 0 744 0;
#X connect 533 0 740 0;
#X connect 534 0 742 0;
#X connect 535 0 751 0;
#X connect 536 0 753 0;
#X connect 537 0 755 0;
#X connect 538 0 759 0;
#X connect 539 0 757 0;
#X connect 540 0 761 0;
#X connect 541 0 763 0;
#X connect 542 0 765 0;
#X connect 543 0 769 0;
#X connect 544 0 767 0;
#X connect 545 0 771 0;
#X connect 546 0 773 0;
#X connect 547 0 775 0;
#X connect 548 0 779 0;
#X connect 549 0 777 0;
#X connect 550 0 781 0;
#X connect 551 0 783 0;
#X connect 552 0 785 0;
#X connect 553 0 789 0;
#X connect 554 0 787 0;
#X connect 555 0 798 0;
#X connect 556 0 796 0;
#X connect 557 0 794 0;
#X connect 558 0 790 0;
#X connect 559 0 792 0;
#X connect 560 0 801 0;
#X connect 561 0 803 0;
#X connect 562 0 805 0;
#X connect 563 0 809 0;
#X connect 564 0 807 0;
#X connect 565 0 811 0;
#X connect 566 0 813 0;
#X connect 567 0 815 0;
#X connect 568 0 819 0;
#X connect 569 0 817 0;
#X connect 570 0 821 0;
#X connect 571 0 823 0;
#X connect 572 0 825 0;
#X connect 573 0 829 0;
#X connect 574 0 827 0;
#X connect 575 0 838 0;
#X connect 576 0 836 0;
#X connect 577 0 834 0;
#X connect 578 0 830 0;
#X connect 579 0 832 0;
#X connect 580 0 841 0;
#X connect 581 0 843 0;
#X connect 582 0 845 0;
#X connect 583 0 849 0;
#X connect 584 0 847 0;
#X connect 585 0 858 0;
#X connect 586 0 856 0;
#X connect 587 0 854 0;
#X connect 588 0 850 0;
#X connect 589 0 852 0;
#X connect 590 0 861 0;
#X connect 591 0 863 0;
#X connect 592 0 865 0;
#X connect 593 0 869 0;
#X connect 594 0 867 0;
#X connect 595 0 871 0;
#X connect 596 0 873 0;
#X connect 597 0 875 0;
#X connect 598 0 879 0;
#X connect 599 0 877 0;
#X connect 600 0 881 0;
#X connect 601 0 883 0;
#X connect 602 0 885 0;
#X connect 603 0 889 0;
#X connect 604 0 887 0;
#X connect 605 0 891 0;
#X connect 606 0 893 0;
#X connect 607 0 895 0;
#X connect 608 0 899 0;
#X connect 609 0 897 0;
#X connect 610 0 908 0;
#X connect 611 0 906 0;
#X connect 612 0 904 0;
#X connect 613 0 900 0;
#X connect 614 0 902 0;
#X connect 615 0 911 0;
#X connect 616 0 913 0;
#X connect 617 0 915 0;
#X connect 618 0 919 0;
#X connect 619 0 917 0;
#X connect 620 0 928 0;
#X connect 621 0 926 0;
#X connect 622 0 924 0;
#X connect 623 0 920 0;
#X connect 624 0 922 0;
#X connect 625 0 931 0;
#X connect 626 0 933 0;
#X connect 627 0 935 0;
#X connect 628 0 939 0;
#X connect 629 0 937 0;
#X connect 630 0 948 0;
#X connect 631 0 946 0;
#X connect 632 0 944 0;
#X connect 633 0 940 0;
#X connect 634 0 942 0;
#X connect 635 0 951 0;
#X connect 636 0 953 0;
#X connect 637 0 955 0;
#X connect 638 0 959 0;
#X connect 639 0 957 0;
#X connect 640 0 402 0;
#X connect 642 0 403 0;
#X connect 644 0 404 0;
#X connect 646 0 406 0;
#X connect 648 0 405 0;
#X connect 650 0 485 0;
#X connect 652 0 486 0;
#X connect 654 0 487 0;
#X connect 656 0 489 0;
#X connect 658 0 488 0;
#X connect 661 0 493 0;
#X connect 663 0 494 0;
#X connect 665 0 492 0;
#X connect 667 0 491 0;
#X connect 669 0 490 0;
#X connect 670 0 495 0;
#X connect 672 0 496 0;
#X connect 674 0 497 0;
#X connect 676 0 499 0;
#X connect 678 0 498 0;
#X connect 681 0 503 0;
#X connect 683 0 504 0;
#X connect 685 0 502 0;
#X connect 687 0 501 0;
#X connect 689 0 500 0;
#X connect 690 0 505 0;
#X connect 692 0 506 0;
#X connect 694 0 507 0;
#X connect 696 0 509 0;
#X connect 698 0 508 0;
#X connect 701 0 513 0;
#X connect 703 0 514 0;
#X connect 705 0 512 0;
#X connect 708 0 511 0;
#X connect 709 0 510 0;
#X connect 710 0 515 0;
#X connect 712 0 516 0;
#X connect 714 0 517 0;
#X connect 715 0 519 0;
#X connect 718 0 518 0;
#X connect 720 0 520 0;
#X connect 722 0 521 0;
#X connect 724 0 522 0;
#X connect 726 0 524 0;
#X connect 728 0 523 0;
#X connect 730 0 525 0;
#X connect 732 0 526 0;
#X connect 734 0 527 0;
#X connect 736 0 529 0;
#X connect 738 0 528 0;
#X connect 741 0 533 0;
#X connect 743 0 534 0;
#X connect 745 0 532 0;
#X connect 747 0 531 0;
#X connect 749 0 530 0;
#X connect 750 0 535 0;
#X connect 752 0 536 0;
#X connect 754 0 537 0;
#X connect 756 0 539 0;
#X connect 758 0 538 0;
#X connect 760 0 540 0;
#X connect 762 0 541 0;
#X connect 764 0 542 0;
#X connect 766 0 544 0;
#X connect 768 0 543 0;
#X connect 770 0 545 0;
#X connect 772 0 546 0;
#X connect 774 0 547 0;
#X connect 776 0 549 0;
#X connect 778 0 548 0;
#X connect 780 0 550 0;
#X connect 782 0 551 0;
#X connect 784 0 552 0;
#X connect 786 0 554 0;
#X connect 788 0 553 0;
#X connect 791 0 558 0;
#X connect 793 0 559 0;
#X connect 795 0 557 0;
#X connect 797 0 556 0;
#X connect 799 0 555 0;
#X connect 800 0 560 0;
#X connect 802 0 561 0;
#X connect 804 0 562 0;
#X connect 806 0 564 0;
#X connect 808 0 563 0;
#X connect 810 0 565 0;
#X connect 812 0 566 0;
#X connect 814 0 567 0;
#X connect 816 0 569 0;
#X connect 818 0 568 0;
#X connect 820 0 570 0;
#X connect 822 0 571 0;
#X connect 824 0 572 0;
#X connect 826 0 574 0;
#X connect 828 0 573 0;
#X connect 831 0 578 0;
#X connect 833 0 579 0;
#X connect 835 0 577 0;
#X connect 837 0 576 0;
#X connect 839 0 575 0;
#X connect 840 0 580 0;
#X connect 842 0 581 0;
#X connect 844 0 582 0;
#X connect 846 0 584 0;
#X connect 848 0 583 0;
#X connect 851 0 588 0;
#X connect 853 0 589 0;
#X connect 855 0 587 0;
#X connect 857 0 586 0;
#X connect 859 0 585 0;
#X connect 860 0 590 0;
#X connect 862 0 591 0;
#X connect 864 0 592 0;
#X connect 866 0 594 0;
#X connect 868 0 593 0;
#X connect 870 0 595 0;
#X connect 872 0 596 0;
#X connect 874 0 597 0;
#X connect 876 0 599 0;
#X connect 878 0 598 0;
#X connect 880 0 600 0;
#X connect 882 0 601 0;
#X connect 884 0 602 0;
#X connect 886 0 604 0;
#X connect 888 0 603 0;
#X connect 890 0 605 0;
#X connect 892 0 606 0;
#X connect 894 0 607 0;
#X connect 896 0 609 0;
#X connect 898 0 608 0;
#X connect 901 0 613 0;
#X connect 903 0 614 0;
#X connect 905 0 612 0;
#X connect 907 0 611 0;
#X connect 909 0 610 0;
#X connect 910 0 615 0;
#X connect 912 0 616 0;
#X connect 914 0 617 0;
#X connect 916 0 619 0;
#X connect 918 0 618 0;
#X connect 921 0 623 0;
#X connect 923 0 624 0;
#X connect 925 0 622 0;
#X connect 927 0 621 0;
#X connect 929 0 620 0;
#X connect 930 0 625 0;
#X connect 932 0 626 0;
#X connect 934 0 627 0;
#X connect 936 0 629 0;
#X connect 938 0 628 0;
#X connect 941 0 633 0;
#X connect 943 0 634 0;
#X connect 945 0 632 0;
#X connect 947 0 631 0;
#X connect 949 0 630 0;
#X connect 950 0 635 0;
#X connect 952 0 636 0;
#X connect 954 0 637 0;
#X connect 956 0 639 0;
#X connect 958 0 638 0;
