#N canvas 460 71 712 674 10;
#X obj 35 98 text size \$0-sequences;
#X obj 35 218 text get \$0-sequences;
#X obj 36 470 s swing-recv;
#X obj 36 349 r swing-send;
#X floatatom 36 424 6 0 0 0 - - -;
#X obj 36 374 * 100;
#X obj 36 400 int;
#X msg 36 447 label Swing:\$1;
#N canvas -4 -4 1280 718 buildsongpprojectPath 0;
#X obj 86 530 outlet;
#X obj 86 481 pack f s s s f s, f 53;
#X obj 428 254 f;
#X obj 95 153 f;
#X text 124 154 file ID;
#X obj 97 14 inlet;
#X symbolatom 482 47 40 0 0 0 - - -;
#X floatatom 428 281 5 0 0 0 - - -;
#X obj 155 -53 loadbang;
#X msg 240 77 symbol .txt;
#X msg 137 1 symbol tmpProject;
#X msg 147 26 symbol projects/datafiles-donotdeleteoredit/tmpdata;
#X msg 510 15 symbol projects/datafiles-donotdeleteoredit;
#X obj 428 312 t f;
#X obj 483 -67 r loadedprojectname;
#X symbolatom 483 -47 10 0 0 0 - - -;
#X obj 483 -28 t s b;
#X obj 135 -20 t b b b b b;
#X msg 261 246 symbol \$1;
#X msg 345 242 symbol \$1;
#X msg 511 240 symbol \$1;
#X msg 173 233 symbol \$1;
#X obj 172 281 symbol;
#X obj 242 289 symbol;
#X obj 513 277 symbol;
#X obj 340 290 symbol;
#X obj 95 178 t f b, f 6;
#X msg 174 52 symbol -obsb-pat-;
#X obj 78 325 delay 10;
#X obj 72 373 t b;
#X msg 66 410 0;
#X msg 332 75 0;
#X obj 510 -6 t b b;
#X connect 1 0 0 0;
#X connect 2 0 7 0;
#X connect 3 0 26 0;
#X connect 5 0 3 0;
#X connect 6 0 18 0;
#X connect 7 0 13 0;
#X connect 8 0 17 0;
#X connect 9 0 20 0;
#X connect 10 0 6 0;
#X connect 11 0 21 0;
#X connect 12 0 21 0;
#X connect 13 0 1 4;
#X connect 14 0 15 0;
#X connect 15 0 16 0;
#X connect 16 0 6 0;
#X connect 16 1 32 0;
#X connect 17 0 10 0;
#X connect 17 1 11 0;
#X connect 17 2 27 0;
#X connect 17 3 9 0;
#X connect 17 4 31 0;
#X connect 18 0 23 0;
#X connect 19 0 25 0;
#X connect 20 0 24 0;
#X connect 21 0 22 0;
#X connect 22 0 1 1;
#X connect 23 0 1 2;
#X connect 24 0 1 5;
#X connect 25 0 1 3;
#X connect 26 0 2 0;
#X connect 26 1 28 0;
#X connect 27 0 19 0;
#X connect 28 0 29 0;
#X connect 29 0 30 0;
#X connect 30 0 1 0;
#X connect 31 0 2 0;
#X connect 32 0 12 0;
#X connect 32 1 28 0;
#X restore 393 102 pd buildsongpprojectPath;
#X obj 617 8 loadbang;
#X obj 783 20 inlet;
#X obj 786 79 openpanel;
#X msg 786 57 symbol ../projects/;
#N canvas -4 -4 1280 718 getprojectnamefrompath 0;
#X obj 47 38 inlet;
#X obj 145 228 outlet;
#X symbolatom 144 196 80 0 0 0 - - -;
#X symbolatom 46 62 80 0 0 0 - - -;
#X obj 46 89 symbol;
#X msg 45 112 symbol \$1;
#N canvas 0 50 626 614 GetFileDetails3 0;
#X obj 46 116 list fromsymbol;
#X obj 46 413 list split;
#X obj 108 453 list tosymbol;
#X obj 46 136 t a a;
#X obj 73 256 list store;
#X obj 73 176 until;
#X obj 73 196 f;
#X obj 103 196 + 1;
#X msg 73 236 get \$1 1;
#X obj 116 177 0;
#X obj 73 156 t b b a;
#X obj 73 216 t f f;
#X obj 73 333 sel 1;
#X obj 73 353 f;
#X obj 103 393 f;
#X obj 218 297 list fromsymbol;
#X obj 73 313 ==;
#X obj 218 216 symbol \$1;
#X obj 228 196 loadbang;
#X obj 108 473 outlet;
#X obj 166 36 inlet;
#X obj 218 236 list fromsymbol;
#X obj 218 257 route bang;
#X obj 218 277 symbol /;
#X obj 46 513 outlet;
#X obj 46 493 list tosymbol;
#X obj 253 76 route symbol;
#X obj 166 56 route separator;
#X obj 74 433 list split 1;
#X obj 322 96 symbol;
#X msg 322 116 no method for '\$1';
#X obj 322 136 print ERROR;
#X obj 166 136 route float symbol;
#X obj 166 176 list fromsymbol;
#X msg 166 156 symbol \$1;
#X connect 0 0 3 0;
#X connect 1 0 25 0;
#X connect 1 1 28 0;
#X connect 2 0 19 0;
#X connect 3 0 1 0;
#X connect 3 1 10 0;
#X connect 4 0 16 0;
#X connect 4 1 5 1;
#X connect 4 1 14 0;
#X connect 5 0 6 0;
#X connect 6 0 7 0;
#X connect 6 0 11 0;
#X connect 7 0 6 1;
#X connect 8 0 4 0;
#X connect 9 0 6 1;
#X connect 10 0 5 0;
#X connect 10 1 9 0;
#X connect 10 2 4 1;
#X connect 11 0 8 0;
#X connect 11 1 13 1;
#X connect 12 0 13 0;
#X connect 13 0 14 1;
#X connect 14 0 1 1;
#X connect 15 0 16 1;
#X connect 16 0 12 0;
#X connect 17 0 21 0;
#X connect 18 0 17 0;
#X connect 20 0 27 0;
#X connect 21 0 22 0;
#X connect 22 0 23 0;
#X connect 22 1 16 1;
#X connect 23 0 15 0;
#X connect 25 0 24 0;
#X connect 26 0 0 0;
#X connect 26 1 29 0;
#X connect 27 0 32 0;
#X connect 27 1 26 0;
#X connect 28 1 2 0;
#X connect 29 0 30 0;
#X connect 30 0 31 0;
#X connect 32 0 34 0;
#X connect 32 1 17 0;
#X connect 33 0 16 1;
#X connect 34 0 33 0;
#X restore 47 136 pd GetFileDetails3;
#N canvas 516 214 621 425 OBFindNameFromPathWOExtForSong2 0;
#X obj 58 5 inlet;
#X obj 65 249 outlet;
#X symbolatom 59 36 10 0 0 0 - - -;
#X obj 71 111 unpack s s;
#X obj 59 64 s2l .;
#X obj 60 85 list trim;
#X symbolatom 71 144 10 0 0 0 - - -;
#X connect 0 0 2 0;
#X connect 2 0 4 0;
#X connect 3 0 6 0;
#X connect 4 0 5 0;
#X connect 5 0 3 0;
#X connect 6 0 1 0;
#X restore 146 164 pd OBFindNameFromPathWOExtForSong2;
#X connect 0 0 3 0;
#X connect 2 0 1 0;
#X connect 3 0 4 0;
#X connect 4 0 5 0;
#X connect 5 0 6 0;
#X connect 6 1 7 0;
#X connect 7 0 2 0;
#X restore 786 112 pd getprojectnamefrompath;
#X symbolatom 787 221 20 0 0 0 - - -;
#X text 708 223 project name;
#X obj 814 557 text define -k \$0-newmastermixerfile;
#A set 0 0 0 0 projects/datafiles-donotdeleteoredit/defaultblanksample.wav
\; 0 0 0.5 0.5 projects/datafiles-donotdeleteoredit/defaultblanksample.wav
\; 0 0 0.5 0.5 C:/SampleArchive/513TubeDrumHitsB866_Wav_SP/513TubeDrumHits_Wav_SP/Samples/Kicks/1_A#2_Kick_SP.wav
\; 0 0 0.5 0.5 C:/SampleArchive/513TubeDrumHitsB866_Wav_SP/513TubeDrumHits_Wav_SP/Samples/Snares/1_A1_Snare_SP.wav
\; 0 0 0.5 0.5 projects/datafiles-donotdeleteoredit/defaultblanksample.wav
\; 0 0 0 0 projects/datafiles-donotdeleteoredit/defaultblanksample.wav
\; 0 0 0 0 projects/datafiles-donotdeleteoredit/defaultblanksample.wav
\; 0 0 0 0 projects/datafiles-donotdeleteoredit/defaultblanksample.wav
\; 0 0 0 0 projects/datafiles-donotdeleteoredit/defaultblanksample.wav
\; 0 0 0 0 projects/datafiles-donotdeleteoredit/defaultblanksample.wav
\; 0 0 0 0 projects/datafiles-donotdeleteoredit/defaultblanksample.wav
\; 0 0 0 0 projects/datafiles-donotdeleteoredit/defaultblanksample.wav
\; 0 0 0 0 projects/datafiles-donotdeleteoredit/defaultblanksample.wav
\; 0 0 0 0 projects/datafiles-donotdeleteoredit/defaultblanksample.wav
\; 0 0 0 0 projects/datafiles-donotdeleteoredit/defaultblanksample.wav
\; 0 0 0 0 projects/datafiles-donotdeleteoredit/defaultblanksample.wav
\; 0 0 0 0 projects/datafiles-donotdeleteoredit/defaultblanksample.wav
\; 0 0 0 0 projects/datafiles-donotdeleteoredit/defaultblanksample.wav
\; 0 0 0 0 projects/datafiles-donotdeleteoredit/defaultblanksample.wav
\; 0 0 0 0 projects/datafiles-donotdeleteoredit/defaultblanksample.wav
\; 0 0 0 0 projects/datafiles-donotdeleteoredit/defaultblanksample.wav
\; 0 0 0 0 projects/datafiles-donotdeleteoredit/defaultblanksample.wav
\; 0 0 0 0 projects/datafiles-donotdeleteoredit/defaultblanksample.wav
\; 0 0 0 0 projects/datafiles-donotdeleteoredit/defaultblanksample.wav
\; 0 0 0 0 projects/datafiles-donotdeleteoredit/defaultblanksample.wav
\; 0 0 0 0 projects/datafiles-donotdeleteoredit/defaultblanksample.wav
\; 0 0 0 0 projects/datafiles-donotdeleteoredit/defaultblanksample.wav
\; 0 0 0 0 projects/datafiles-donotdeleteoredit/defaultblanksample.wav
\; 0 0 0 0 projects/datafiles-donotdeleteoredit/defaultblanksample.wav
\; 0 0 0 0 projects/datafiles-donotdeleteoredit/defaultblanksample.wav
\;;
#X text 820 575 Write master new mixer track data file;
#N canvas -8 -8 1276 730 buildmixersettingsPath 0;
#X obj 302 31 inlet;
#X obj 166 348 symbol;
#X obj 355 352 f;
#X obj 292 350 symbol;
#X obj 522 333 symbol;
#X obj 102 189 f;
#X text 132 189 file ID;
#X obj 105 535 outlet;
#X obj 103 218 t b b b b f b, f 53;
#X obj 229 318 symbol;
#X symbolatom 281 118 40 0 0 0 - - -;
#X obj 229 347 t s;
#X obj 103 266 t b;
#X floatatom 383 352 5 0 0 0 - - -;
#X obj 127 25 loadbang;
#X obj 106 136 t b;
#X msg 103 163 0;
#X msg 179 408 symbol \$2/\$3\$4\$5\$6;
#X symbolatom 179 436 80 0 0 0 - - -;
#X obj 687 43 inlet;
#X msg 199 242 symbol projects/datafiles-donotdeleteoredit;
#X msg 166 270 bang;
#X msg 229 272 bang;
#X msg 332 279 symbol _mixersettings-;
#X msg 292 318 bang;
#X msg 571 265 symbol .txt;
#X msg 522 308 bang;
#X obj 45 81 delay 10;
#X obj 46 104 t b;
#X obj 199 321 t s;
#X obj 332 329 t s;
#X obj 568 318 t s;
#X symbolatom 569 292 10 0 0 0 - - -;
#X symbolatom 332 306 10 0 0 0 - - -;
#X symbolatom 199 296 80 0 0 0 - - -;
#X obj 281 143 t s b;
#X obj 306 190 t b;
#X obj 308 170 delay 10;
#X obj 103 245 delay 20;
#X obj 302 71 t s;
#X obj 920 390 symbol;
#X obj 1109 394 f;
#X obj 1046 392 symbol;
#X obj 1276 375 symbol;
#X obj 856 231 f;
#X text 886 231 file ID;
#X obj 857 482 outlet;
#X obj 857 260 t b b b b f b, f 53;
#X obj 983 360 symbol;
#X symbolatom 1035 160 40 0 0 0 - - -;
#X obj 983 389 t s;
#X obj 857 308 t b;
#X floatatom 1137 394 5 0 0 0 - - -;
#X obj 860 178 t b;
#X msg 857 205 0;
#X msg 933 450 symbol \$2/\$3\$4\$5\$6;
#X symbolatom 933 478 80 0 0 0 - - -;
#X msg 920 312 bang;
#X msg 983 314 bang;
#X msg 1086 321 symbol _mixersettings-;
#X msg 1046 360 bang;
#X msg 1325 307 symbol .txt;
#X msg 1276 350 bang;
#X obj 799 123 delay 10;
#X obj 800 146 t b;
#X obj 953 363 t s;
#X obj 1086 371 t s;
#X obj 1322 360 t s;
#X symbolatom 1323 334 10 0 0 0 - - -;
#X symbolatom 1086 348 10 0 0 0 - - -;
#X symbolatom 953 338 10 0 0 0 - - -;
#X obj 1035 185 t s b;
#X obj 1060 232 t b;
#X obj 1062 212 delay 10;
#X obj 857 287 delay 20;
#X msg 953 284 symbol projects/datafiles-donotdeleteoredit/tmpdata
;
#X msg 1036 88 symbol tmpProject;
#X msg 152 59 symbol tmpProject;
#X symbolatom 102 494 50 0 0 0 - - -;
#X msg 102 473 symbol \$2/\$3\$4\$5\$6;
#X msg 103 292 0;
#X msg 857 334 0;
#X obj 103 379 pack f s s s f s, f 53;
#X obj 857 421 pack f s s s f s, f 53;
#X connect 0 0 39 0;
#X connect 1 0 82 1;
#X connect 2 0 82 4;
#X connect 3 0 82 3;
#X connect 4 0 82 5;
#X connect 5 0 8 0;
#X connect 8 0 38 0;
#X connect 8 1 21 0;
#X connect 8 1 20 0;
#X connect 8 2 22 0;
#X connect 8 3 23 0;
#X connect 8 3 24 0;
#X connect 8 4 2 0;
#X connect 8 4 13 0;
#X connect 8 5 25 0;
#X connect 8 5 26 0;
#X connect 9 0 11 0;
#X connect 10 0 35 0;
#X connect 11 0 82 2;
#X connect 12 0 80 0;
#X connect 14 0 77 0;
#X connect 14 0 27 0;
#X connect 14 0 63 0;
#X connect 14 0 76 0;
#X connect 15 0 16 0;
#X connect 16 0 5 0;
#X connect 17 0 18 0;
#X connect 19 0 15 0;
#X connect 19 0 53 0;
#X connect 20 0 34 0;
#X connect 21 0 1 0;
#X connect 22 0 9 0;
#X connect 23 0 33 0;
#X connect 24 0 3 0;
#X connect 25 0 32 0;
#X connect 26 0 4 0;
#X connect 27 0 28 0;
#X connect 28 0 8 0;
#X connect 29 0 1 1;
#X connect 30 0 3 1;
#X connect 31 0 4 1;
#X connect 32 0 31 0;
#X connect 33 0 30 0;
#X connect 34 0 29 0;
#X connect 35 0 9 1;
#X connect 35 1 37 0;
#X connect 36 0 8 0;
#X connect 37 0 36 0;
#X connect 38 0 12 0;
#X connect 39 0 10 0;
#X connect 40 0 83 1;
#X connect 41 0 83 4;
#X connect 42 0 83 3;
#X connect 43 0 83 5;
#X connect 44 0 47 0;
#X connect 47 0 74 0;
#X connect 47 1 75 0;
#X connect 47 1 57 0;
#X connect 47 2 58 0;
#X connect 47 3 59 0;
#X connect 47 3 60 0;
#X connect 47 4 41 0;
#X connect 47 4 52 0;
#X connect 47 5 61 0;
#X connect 47 5 62 0;
#X connect 48 0 50 0;
#X connect 49 0 71 0;
#X connect 50 0 83 2;
#X connect 51 0 81 0;
#X connect 53 0 54 0;
#X connect 54 0 44 0;
#X connect 55 0 56 0;
#X connect 57 0 40 0;
#X connect 58 0 48 0;
#X connect 59 0 69 0;
#X connect 60 0 42 0;
#X connect 61 0 68 0;
#X connect 62 0 43 0;
#X connect 63 0 64 0;
#X connect 64 0 47 0;
#X connect 65 0 40 1;
#X connect 66 0 42 1;
#X connect 67 0 43 1;
#X connect 68 0 67 0;
#X connect 69 0 66 0;
#X connect 70 0 65 0;
#X connect 71 0 48 1;
#X connect 71 1 73 0;
#X connect 72 0 47 0;
#X connect 73 0 72 0;
#X connect 74 0 51 0;
#X connect 75 0 70 0;
#X connect 76 0 49 0;
#X connect 78 0 7 0;
#X connect 79 0 78 0;
#X connect 80 0 82 0;
#X connect 81 0 83 0;
#X connect 82 0 17 0;
#X connect 82 0 79 0;
#X connect 83 0 46 0;
#X connect 83 0 55 0;
#X restore 868 475 pd buildmixersettingsPath;
#X f 26;
#X text 1142 695 Send new master mixer track data;
#X obj 1136 631 text define -k \$0-newmastersongsettings;
#A set 0 0 0 \; 1 0 0 \; 6 0 0 \; 5 0 0 \; 0 0 0 \; 0 0 0 \; 0 0 0
\; 0 0 0 \; 0 0 0 \; 0 0 0 \; 0 0 0 \; 0 0 0 \; 0 0 0 \; 0 0 0 \; 0
0 0 \; 0 0 0 \; 0 0 0 \; 0 0 0 \; 0 0 0 \; 0 0 0 \; 0 0 0 \; 0 0 0
\; 0 0 0 \; 0 0 0 \; 0 0 0 \; 0 0 0 \; 0 0 0 \; 0 0 0 \; 0 0 0 \; 0
0 0 \; 0 0 0 \; 0 0 0 \; 0 0 0 \; 1 1 0 \; 1 1 0 \; 1 1 0 \; 1 1 0
\; 1 1 0 \; 1 1 0 \; 1 1 0 \; 1 1 0 \; 1 1 0 \; 1 1 0 \; 1 1 0 \; 1
1 0 \; 1 1 0 \; 1 1 0 \; 1 1 0 \; 1 1 0 \; 1 1 0 \; 1 1 0 \; 1 1 0
\; 1 1 0 \; 1 1 0 \; 1 1 0 \; 1 1 0 \; 1 1 0 \; 1 1 0 \; 1 1 0 \; 1
1 0 \; 1 1 0 \; 1 1 0 \; 1 1 0 \; 1 1 0 \; 1 1 0 \; 1 1 0 \; 1 1 0
\; 1 1 0 \; 1 1 0 \; 1 1 0 \; 1 1 0 \; 1 1 0 \; 1 1 0 \; 1 1 0 \; 1
1 0 \; 1 1 0 \; 1 1 0 \; 1 1 0 \; 1 1 0 \; 1 1 0 \; 1 1 0 \; 1 1 0
\; 1 1 0 \; 1 1 0 \; 1 1 0 \; 1 1 0 \; 1 1 0 \; 1 1 0 \; 1 1 0 \; 1
1 0 \; 1 1 0 \; 1 1 0 \; 1 1 0 \; 1 1 0 \; 1 1 0 \; 1 1 0 \; 1 1 0
\; 1 1 0 \; 1 1 0 \; 1 1 0 \; 1 1 0 \; 1 1 0 \; 1 1 0 \; 1 1 0 \; 1
1 0 \; 1 1 0 \; 1 1 0 \; 1 1 0 \; 1 1 0 \; 1 1 0 \; 1 1 0 \; 1 1 0
\; 1 1 0 \; 1 1 0 \; 1 1 0 \; 1 1 0 \; 1 1 0 \; 1 1 0 \; 1 1 0 \; 1
1 0 \; 1 1 0 \; 1 1 0 \; 1 1 0 \; 1 1 0 \; 1 1 0 \; 1 1 0 \; 1 1 0
\; 1 1 0 \; 1 1 0 \; 1 1 0 \; 1 1 0 \; 1 1 0 \; 1 1 0 \; 1 1 0 \; 1
1 0 \; 1 1 0 \; 1 1 0 \; 1 1 0 \; 1 1 0 \; 1 1 0 \; 1 1 0 \; 1 1 0
\; 1 1 0 \; 1 1 0 \; 1 1 0 \; 1 1 0 \; 1 1 0 \; 1 1 0 \; 1 1 0 \; 1
1 0 \; 1 1 0 \; 1 1 0 \; 1 1 0 \; 1 1 0 \; 1 1 0 \; 1 1 0 \; 1 1 0
\; 1 1 0 \; 1 1 0 \; 1 1 0 \; 1 1 0 \;;
#N canvas 287 49 646 630 readsongsettingsdata 0;
#X obj 32 15 inlet;
#X obj 227 18 inlet;
#X obj 108 13 r projectsavestate;
#X floatatom 103 36 5 0 0 0 - - -;
#X obj 101 57 change;
#X obj 128 109 tgl 15 0 empty empty empty 17 7 0 10 -262144 -1 -1 0
1;
#X obj 93 133 spigot;
#X obj 101 81 == 1;
#X obj 284 364 f;
#X obj 222 370 symbol;
#X obj 330 373 symbol;
#X obj 110 366 symbol;
#X obj 163 368 symbol;
#X msg 66 364 0;
#X obj 62 433 pack f s s s f s, f 44;
#X obj 62 510 outlet;
#X msg 161 335 bang;
#X msg 209 345 bang;
#X msg 321 343 bang;
#X obj 99 226 pack f f;
#X obj 37 318 delay 10;
#X obj 27 339 t b;
#X msg 74 174 0;
#X msg 368 343 symbol .txt;
#X obj 99 251 t b b b b f b b;
#X text 336 475 Project name;
#X obj 242 491 s settingarg2-send;
#X symbolatom 228 47 20 0 0 0 - - -;
#X msg 224 311 symbol _songsettings-;
#X msg 113 288 symbol projects/datafiles-donotdeleteoredit;
#X obj 295 232 t s b;
#X msg 62 484 read \$1;
#N canvas 437 43 743 646 initiateDefaultsCreation4 0;
#X msg 151 208 clear \, read \$1 \, rewind;
#X obj 170 279 textfile;
#X msg 170 301 1;
#X floatatom 151 352 5 0 0 0 - - -;
#X obj 288 677 outlet;
#X obj 63 4 inlet;
#X msg 63 28 symbol \$2/\$3\$4\$5\$6;
#X obj 113 413 change;
#X floatatom 84 250 5 0 0 0 - - -;
#X obj 229 614 pack f s;
#X msg 229 568 0;
#X obj 229 591 t f;
#X obj 229 542 t b;
#X obj 257 576 bng 15 250 50 0 empty empty empty 17 7 0 10 -262144
-1 -1;
#X obj 229 476 change;
#X obj 229 453 == 1;
#X obj 113 394 == 0;
#X msg 234 282 0;
#X obj 229 497 == 1;
#X obj 229 520 delay 100;
#X obj 116 436 == 1;
#X obj 88 534 s bangnewdefaultfiles;
#X obj 89 462 t b b;
#X obj 113 506 t b;
#X obj 230 638 unpack f s;
#X obj 114 486 delay 200;
#X symbolatom 284 49 80 0 0 0 - - -;
#X obj 124 187 t s s;
#X obj 150 329 f;
#X obj 378 302 pack f s;
#X obj 375 279 t f;
#X msg 375 258 0;
#X obj 424 226 t s b;
#X msg 190 253 bang;
#X obj 151 230 t b a b;
#X obj 379 321 unpack f s;
#X symbolatom 197 160 80 0 0 0 - - -;
#X symbolatom 410 640 80 0 0 0 - - -;
#X obj 183 82 symbol;
#X connect 0 0 34 0;
#X connect 1 0 2 0;
#X connect 1 1 17 0;
#X connect 2 0 28 1;
#X connect 3 0 16 0;
#X connect 3 0 15 0;
#X connect 5 0 6 0;
#X connect 6 0 38 0;
#X connect 6 0 26 0;
#X connect 7 0 20 0;
#X connect 9 0 24 0;
#X connect 10 0 11 0;
#X connect 11 0 9 0;
#X connect 12 0 10 0;
#X connect 12 0 13 0;
#X connect 14 0 18 0;
#X connect 15 0 14 0;
#X connect 16 0 7 0;
#X connect 17 0 28 1;
#X connect 18 0 19 0;
#X connect 19 0 12 0;
#X connect 20 0 22 0;
#X connect 22 1 25 0;
#X connect 23 0 10 0;
#X connect 24 1 4 0;
#X connect 24 1 37 0;
#X connect 25 0 23 0;
#X connect 27 0 9 1;
#X connect 27 1 0 0;
#X connect 28 0 3 0;
#X connect 29 0 35 0;
#X connect 30 0 29 0;
#X connect 31 0 30 0;
#X connect 32 0 29 1;
#X connect 32 1 31 0;
#X connect 33 0 1 0;
#X connect 34 0 8 0;
#X connect 34 0 28 0;
#X connect 34 1 1 0;
#X connect 34 2 33 0;
#X connect 38 0 27 0;
#X connect 38 0 36 0;
#X restore 62 460 pd initiateDefaultsCreation4;
#X connect 0 0 22 0;
#X connect 1 0 27 0;
#X connect 2 0 3 0;
#X connect 3 0 4 0;
#X connect 4 0 7 0;
#X connect 5 0 6 1;
#X connect 7 0 5 0;
#X connect 8 0 14 4;
#X connect 9 0 14 3;
#X connect 10 0 14 5;
#X connect 11 0 14 1;
#X connect 12 0 14 2;
#X connect 12 0 26 0;
#X connect 13 0 14 0;
#X connect 14 0 32 0;
#X connect 16 0 12 0;
#X connect 17 0 9 0;
#X connect 18 0 10 0;
#X connect 19 0 24 0;
#X connect 20 0 21 0;
#X connect 21 0 13 0;
#X connect 22 0 19 0;
#X connect 22 0 19 1;
#X connect 23 0 10 1;
#X connect 24 0 20 0;
#X connect 24 1 29 0;
#X connect 24 2 16 0;
#X connect 24 3 28 0;
#X connect 24 3 17 0;
#X connect 24 4 8 0;
#X connect 24 5 23 0;
#X connect 24 5 18 0;
#X connect 27 0 30 0;
#X connect 28 0 9 1;
#X connect 29 0 11 0;
#X connect 30 0 12 1;
#X connect 30 1 16 0;
#X connect 31 0 15 0;
#X connect 32 0 31 0;
#X restore 1136 393 pd readsongsettingsdata;
#X msg 1283 299 0;
#X obj 1136 679 text get \$0-newmastersongsettings 0 3;
#X obj 1283 19 inlet;
#X obj 1061 175 text size \$0-newmastersongsettings;
#X text 1073 157 Get the length os the song list;
#X obj 1061 194 t f;
#X obj 1061 239 s totalsongpatterns;
#N canvas 153 150 579 540 assignsonglengthSeconds2 0;
#X obj 72 84 - 1;
#X floatatom 72 109 5 0 0 0 - - -;
#X text 170 167 the real amount of patterns in song list minus one
to remove song settings.;
#X floatatom 112 264 5 0 0 0 - - -;
#X obj 72 18 inlet;
#X obj 262 275 outlet;
#X obj 116 16 loadbang;
#X obj 330 112 s bangbpm;
#X obj 72 59 t f b;
#X obj 84 196 r OBbpm;
#X obj 112 243 * 32;
#X obj 63 241 / \$2;
#X floatatom 63 263 5 0 0 0 - - -;
#X floatatom 63 310 5 0 0 0 - - -;
#X obj 84 218 t f;
#X obj 63 285 * 1;
#X msg 55 377 \; display_songlength-recv label Length:\$1_secs;
#X msg 115 37 2;
#X connect 0 0 1 0;
#X connect 1 0 5 0;
#X connect 1 0 10 0;
#X connect 1 0 11 0;
#X connect 3 0 15 1;
#X connect 4 0 8 0;
#X connect 6 0 17 0;
#X connect 8 0 0 0;
#X connect 8 1 7 0;
#X connect 9 0 14 0;
#X connect 10 0 3 0;
#X connect 11 0 12 0;
#X connect 12 0 15 0;
#X connect 13 0 16 0;
#X connect 14 0 11 1;
#X connect 15 0 13 0;
#X connect 17 0 8 0;
#X restore 1061 216 pd assignsonglengthSeconds2;
#X obj 1061 142 t b;
#N canvas 0 50 298 300 OBPlayPadSample 0;
#X obj 49 202 send;
#X floatatom 39 61 5 0 0 0 - - -;
#X msg 92 136 play;
#X obj 119 27 inlet;
#X obj 18 31 inlet;
#X obj 69 86 t f b;
#X obj 190 153 bng 15 250 50 0 empty empty empty 17 7 0 10 -262144
-1 -1;
#X obj 118 83 t b b;
#X msg 69 109 symbol MultiSamplePlayer-\$1;
#X connect 1 0 0 0;
#X connect 1 0 5 0;
#X connect 2 0 0 0;
#X connect 3 0 7 0;
#X connect 4 0 1 0;
#X connect 5 0 8 0;
#X connect 7 0 2 0;
#X connect 7 1 6 0;
#X connect 8 0 0 1;
#X restore 35 326 pd OBPlayPadSample;
#N canvas 8 40 1276 686 OBActualMetronome 0;
#X obj 352 84 inlet;
#X text 22 96 Start;
#X text 173 101 Stop;
#X text 122 232 BMP;
#X obj 23 114 r metronomeOn;
#X obj 178 117 r metronomeOff;
#X obj 98 191 tgl 15 0 empty empty empty 17 7 0 10 -262144 -1 -1 0
1;
#X obj 99 431 f;
#X obj 127 453 + 1;
#X obj 203 605 bng 15 250 50 0 empty empty empty 17 7 0 10 -262144
-1 -1;
#X obj 223 605 bng 15 250 50 0 empty empty empty 17 7 0 10 -262144
-1 -1;
#X obj 243 605 bng 15 250 50 0 empty empty empty 17 7 0 10 -262144
-1 -1;
#X obj 263 605 bng 15 250 50 0 empty empty empty 17 7 0 10 -262144
-1 -1;
#X obj 283 605 bng 15 250 50 0 empty empty empty 17 7 0 10 -262144
-1 -1;
#X obj 303 605 bng 15 250 50 0 empty empty empty 17 7 0 10 -262144
-1 -1;
#X obj 323 605 bng 15 250 50 0 empty empty empty 17 7 0 10 -262144
-1 -1;
#X obj 343 605 bng 15 250 50 0 empty empty empty 17 7 0 10 -262144
-1 -1;
#X obj 363 605 bng 15 250 50 0 empty empty empty 17 7 0 10 -262144
-1 -1;
#X obj 389 606 bng 15 250 50 0 empty empty empty 17 7 0 10 -262144
-1 -1;
#X obj 409 607 bng 15 250 50 0 empty empty empty 17 7 0 10 -262144
-1 -1;
#X obj 429 607 bng 15 250 50 0 empty empty empty 17 7 0 10 -262144
-1 -1;
#X obj 449 607 bng 15 250 50 0 empty empty empty 17 7 0 10 -262144
-1 -1;
#X obj 469 607 bng 15 250 50 0 empty empty empty 17 7 0 10 -262144
-1 -1;
#X obj 491 606 bng 15 250 50 0 empty empty empty 17 7 0 10 -262144
-1 -1;
#X obj 511 606 bng 15 250 50 0 empty empty empty 17 7 0 10 -262144
-1 -1;
#X obj 97 538 t f f f;
#X obj 98 211 t f b, f 12;
#X msg 169 405 0;
#X floatatom 143 572 5 0 0 0 - - -;
#X floatatom 129 274 5 0 0 0 - - -;
#X floatatom 125 322 5 0 0 0 - - -;
#X obj 100 405 metro;
#X msg 83 161 1;
#X msg 133 164 0;
#X obj 112 620 s currentstep;
#X obj 94 668 t b b f;
#X obj 180 353 s metronomeData;
#X obj 125 250 r OBbpm;
#X obj 362 409 vsl 15 50 0 0.9 0 0 feel empty 16th-note-feel 0 -9 0
10 -262144 -1 -1 436 1;
#X obj 255 308 s ticklength16;
#X obj 363 369 t b f;
#N canvas 0 50 450 300 OBFeelGroove 0;
#X obj 21 86 & 1;
#X obj 21 58 t f f;
#X obj 21 25 inlet;
#X obj 21 221 outlet;
#X obj 21 126 pack;
#X obj 21 152 route 0 1;
#X text 16 170 even;
#X text 56 170 odd;
#X obj 89 152 *;
#X obj 99 125 t b f;
#X floatatom 89 192 5 0 0 0 - - -;
#X obj 46 191 pipe;
#X text 127 192 milliseconds;
#X obj 89 26 inlet;
#X text 19 4 ticks;
#X text 87 5 feel;
#X obj 112 57 r ticklength16;
#X connect 0 0 4 0;
#X connect 1 0 0 0;
#X connect 1 1 4 1;
#X connect 2 0 1 0;
#X connect 4 0 5 0;
#X connect 5 0 3 0;
#X connect 5 1 11 0;
#X connect 8 0 10 0;
#X connect 8 0 11 1;
#X connect 9 0 8 0;
#X connect 9 1 8 1;
#X connect 11 0 3 0;
#X connect 13 0 8 0;
#X connect 16 0 9 0;
#X restore 96 499 pd OBFeelGroove;
#X obj 120 352 / 2;
#X floatatom 130 381 5 0 0 0 - - -;
#X floatatom 358 348 5 0 0 0 - - -;
#X obj 360 302 / 10;
#X obj 359 327 * 4;
#X obj 89 730 outlet;
#X obj 157 736 outlet;
#X obj 120 705 outlet;
#X obj 537 606 bng 15 250 50 0 empty empty empty 17 7 0 10 -262144
-1 -1;
#X obj 564 608 bng 15 250 50 0 empty empty empty 17 7 0 10 -262144
-1 -1;
#X obj 584 608 bng 15 250 50 0 empty empty empty 17 7 0 10 -262144
-1 -1;
#X obj 604 608 bng 15 250 50 0 empty empty empty 17 7 0 10 -262144
-1 -1;
#X obj 624 608 bng 15 250 50 0 empty empty empty 17 7 0 10 -262144
-1 -1;
#X obj 644 608 bng 15 250 50 0 empty empty empty 17 7 0 10 -262144
-1 -1;
#X obj 664 608 bng 15 250 50 0 empty empty empty 17 7 0 10 -262144
-1 -1;
#X obj 684 608 bng 15 250 50 0 empty empty empty 17 7 0 10 -262144
-1 -1;
#X obj 704 608 bng 15 250 50 0 empty empty empty 17 7 0 10 -262144
-1 -1;
#X obj 724 608 bng 15 250 50 0 empty empty empty 17 7 0 10 -262144
-1 -1;
#X obj 750 609 bng 15 250 50 0 empty empty empty 17 7 0 10 -262144
-1 -1;
#X obj 770 610 bng 15 250 50 0 empty empty empty 17 7 0 10 -262144
-1 -1;
#X obj 790 610 bng 15 250 50 0 empty empty empty 17 7 0 10 -262144
-1 -1;
#X obj 810 610 bng 15 250 50 0 empty empty empty 17 7 0 10 -262144
-1 -1;
#X obj 830 610 bng 15 250 50 0 empty empty empty 17 7 0 10 -262144
-1 -1;
#X obj 852 609 bng 15 250 50 0 empty empty empty 17 7 0 10 -262144
-1 -1;
#X obj 872 609 bng 15 250 50 0 empty empty empty 17 7 0 10 -262144
-1 -1;
#X obj 164 437 mod 32;
#X obj 203 556 sel 0 1 2 3 4 5 6 7 8 9 10 11 12 13 14 15 16 17 18 19
20 21 22 23 24 25 26 27 28 29 30 31, f 135;
#X obj 125 297 expr 1000/($f1/30);
#X obj 119 71 r projectplaystate;
#X connect 0 0 45 0;
#X connect 4 0 32 0;
#X connect 5 0 33 0;
#X connect 6 0 26 0;
#X connect 7 0 8 0;
#X connect 7 0 41 0;
#X connect 8 0 67 0;
#X connect 25 0 35 0;
#X connect 25 1 34 0;
#X connect 25 2 28 0;
#X connect 25 2 68 0;
#X connect 26 0 31 0;
#X connect 26 1 27 0;
#X connect 27 0 7 1;
#X connect 29 0 69 0;
#X connect 30 0 36 0;
#X connect 30 0 39 0;
#X connect 30 0 42 0;
#X connect 31 0 7 0;
#X connect 32 0 6 0;
#X connect 33 0 6 0;
#X connect 35 0 47 0;
#X connect 35 1 49 0;
#X connect 35 2 48 0;
#X connect 37 0 29 0;
#X connect 38 0 41 1;
#X connect 40 0 38 0;
#X connect 40 1 38 0;
#X connect 41 0 25 0;
#X connect 42 0 43 0;
#X connect 43 0 31 1;
#X connect 44 0 40 0;
#X connect 45 0 46 0;
#X connect 46 0 44 0;
#X connect 67 0 7 1;
#X connect 68 0 9 0;
#X connect 68 1 10 0;
#X connect 68 2 11 0;
#X connect 68 3 12 0;
#X connect 68 4 13 0;
#X connect 68 5 14 0;
#X connect 68 6 15 0;
#X connect 68 7 16 0;
#X connect 68 8 17 0;
#X connect 68 9 18 0;
#X connect 68 10 19 0;
#X connect 68 11 20 0;
#X connect 68 12 21 0;
#X connect 68 13 22 0;
#X connect 68 14 23 0;
#X connect 68 15 24 0;
#X connect 68 16 50 0;
#X connect 68 17 51 0;
#X connect 68 18 52 0;
#X connect 68 19 53 0;
#X connect 68 20 54 0;
#X connect 68 21 55 0;
#X connect 68 22 56 0;
#X connect 68 23 57 0;
#X connect 68 24 58 0;
#X connect 68 25 59 0;
#X connect 68 26 60 0;
#X connect 68 27 61 0;
#X connect 68 28 62 0;
#X connect 68 29 63 0;
#X connect 68 30 64 0;
#X connect 68 31 65 0;
#X connect 68 32 66 0;
#X connect 69 0 30 0;
#X connect 70 0 6 0;
#X restore 35 69 pd OBActualMetronome;
#N canvas 477 89 450 300 OBGetMetronomeStep 0;
#X obj 22 47 until;
#X obj 22 70 f;
#X obj 52 70 + 1;
#X msg 67 47 0;
#X obj 22 93 t f f;
#X obj 15 12 inlet;
#X obj 107 12 inlet;
#X obj 16 124 outlet;
#X obj 85 148 outlet;
#X connect 0 0 1 0;
#X connect 1 0 2 0;
#X connect 1 0 4 0;
#X connect 2 0 1 1;
#X connect 3 0 1 1;
#X connect 4 0 7 0;
#X connect 4 1 8 0;
#X connect 5 0 0 0;
#X connect 6 0 3 0;
#X restore 35 184 pd OBGetMetronomeStep;
#N canvas 0 50 450 300 TriggerStepIndex 0;
#X obj 38 28 inlet;
#X obj 204 28 inlet;
#X obj 85 181 f;
#X obj 89 157 + 1;
#X obj 83 204 t f;
#X obj 90 109 sel 1;
#X obj 90 132 f;
#X floatatom 149 163 5 0 0 0 - - -;
#X obj 81 264 outlet;
#X obj 166 243 outlet;
#X floatatom 9 77 5 0 0 0 - - -;
#X floatatom 196 61 5 0 0 0 - - -;
#X obj 297 51 t f;
#X connect 0 0 10 0;
#X connect 1 0 6 1;
#X connect 1 0 12 0;
#X connect 2 0 4 0;
#X connect 3 0 2 0;
#X connect 4 0 8 0;
#X connect 5 0 6 0;
#X connect 6 0 3 0;
#X connect 6 0 7 0;
#X connect 7 0 9 0;
#X connect 10 0 5 0;
#X connect 12 0 11 0;
#X restore 35 298 pd TriggerStepIndex;
#N canvas 466 172 745 300 OBCheckProjectPlayStatus 0;
#X obj 87 37 r $project_pattern;
#X obj 132 58 r projectplaystate;
#X obj 87 107 spigot 0;
#X obj 132 84 tgl 15 0 empty empty empty 17 7 0 10 -262144 -1 -1 0
1;
#X floatatom 129 168 5 0 0 0 - - -;
#X obj 128 145 f;
#X obj 158 83 r loaded-obsb;
#X obj 129 213 s projectpatternnum;
#X obj 87 80 t f;
#X obj 129 189 t f;
#X connect 0 0 8 0;
#X connect 1 0 3 0;
#X connect 2 0 5 0;
#X connect 3 0 2 1;
#X connect 4 0 9 0;
#X connect 5 0 4 0;
#X connect 6 0 5 0;
#X connect 8 0 2 0;
#X connect 9 0 7 0;
#X restore 292 768 pd OBCheckProjectPlayStatus;
#N canvas 0 50 450 300 OBdefaultpatbank 0;
#X obj 40 -177 inlet;
#X msg 39 -127 0;
#X floatatom 39 -106 5 0 0 0 - - -;
#X obj 39 -86 s bank;
#X msg 113 -150 \; pd dsp 0;
#X obj 39 -148 t b b;
#X connect 0 0 5 0;
#X connect 1 0 2 0;
#X connect 2 0 3 0;
#X connect 5 0 1 0;
#X connect 5 1 4 0;
#X restore 618 34 pd OBdefaultpatbank;
#N canvas 51 186 572 495 OBCheckEditState 0;
#X floatatom 213 36 5 0 64 0 - - -;
#X obj 264 147 spigot 0;
#X obj 310 36 tgl 15 0 empty empty empty 17 7 0 10 -262144 -1 -1 1
1;
#X text 7 73 Minus 1 to find the real index;
#X text 41 30 Selected sequence number;
#X floatatom 263 171 5 0 0 0 - - -;
#X obj 212 17 r padnum;
#X obj 264 116 t f;
#X obj 265 244 s checkedpadnum;
#X obj 372 244 s emodecheckedvalue;
#X obj 265 218 t f;
#X obj 317 194 - 1;
#X obj 309 8 r emodestate;
#X connect 0 0 7 0;
#X connect 1 0 5 0;
#X connect 2 0 1 1;
#X connect 2 0 9 0;
#X connect 5 0 11 0;
#X connect 6 0 0 0;
#X connect 7 0 1 0;
#X connect 10 0 8 0;
#X connect 11 0 10 0;
#X connect 12 0 2 0;
#X restore 52 766 pd OBCheckEditState;
#X f 32;
#N canvas 18 101 1035 563 OBInitialCounter 0;
#X msg 189 212 0;
#X msg 97 169 1;
#X obj 97 244 f;
#X obj 97 120 t b;
#X obj 97 271 t f b;
#X obj 91 53 inlet;
#X obj 178 330 outlet;
#X obj 97 328 outlet;
#X obj 269 318 outlet;
#X obj 190 271 t b;
#X obj 140 144 delay 2;
#X obj 97 195 metro 2;
#X obj 98 220 count 1 64;
#X connect 0 0 11 0;
#X connect 1 0 11 0;
#X connect 2 0 4 0;
#X connect 3 0 1 0;
#X connect 4 0 7 0;
#X connect 4 1 6 0;
#X connect 5 0 3 0;
#X connect 9 0 8 0;
#X connect 11 0 12 0;
#X connect 12 0 2 0;
#X connect 12 1 0 0;
#X connect 12 1 9 0;
#X connect 12 1 2 0;
#X restore 949 452 pd OBInitialCounter;
#X f 23;
#N canvas 38 185 462 651 OBGetProjectPlayState2 0;
#X obj 74 182 bng 15 250 50 0 empty empty empty 17 7 0 10 -262144 -1
-1;
#X obj 127 89 r projectplaystate;
#X obj 125 114 tgl 15 0 empty empty empty 17 7 0 10 -262144 -1 -1 0
1;
#X obj 72 159 spigot 0;
#X obj 43 68 r currentstep;
#X obj 56 90 == 0;
#X obj 70 131 sel 1;
#X obj 265 446 outlet;
#X obj 43 453 outlet;
#X obj 229 214 pack f f;
#X msg 224 185 0;
#X obj 106 206 t b;
#X obj 243 249 unpack;
#X obj 269 300 t f;
#X floatatom 269 272 5 0 0 0 - - -;
#X obj 270 326 s pattnum;
#X obj 267 125 r $project_pattern;
#X obj 109 261 r selsongitem;
#X floatatom 125 397 5 0 0 0 - - -;
#X floatatom 110 285 5 0 0 0 - - -;
#X obj 127 446 s selsongitem;
#X obj 66 304 pack f f;
#X obj 67 329 unpack f f;
#X msg 61 267 0;
#X floatatom 125 353 5 0 0 0 - - -;
#X obj 125 374 + 1;
#X obj 130 416 t f;
#X floatatom 311 202 5 0 0 0 - - -;
#X floatatom 179 423 5 0 0 0 - - -;
#X obj 268 189 t f b;
#X obj 321 234 delay 10;
#X connect 0 0 7 0;
#X connect 0 0 11 0;
#X connect 0 0 23 0;
#X connect 1 0 2 0;
#X connect 2 0 3 1;
#X connect 3 0 0 0;
#X connect 4 0 5 0;
#X connect 4 0 8 0;
#X connect 5 0 6 0;
#X connect 6 0 3 0;
#X connect 9 0 12 0;
#X connect 10 0 9 0;
#X connect 12 1 14 0;
#X connect 13 0 15 0;
#X connect 14 0 13 0;
#X connect 16 0 29 0;
#X connect 17 0 19 0;
#X connect 18 0 26 0;
#X connect 19 0 21 1;
#X connect 21 0 22 0;
#X connect 22 1 24 0;
#X connect 23 0 21 0;
#X connect 24 0 25 0;
#X connect 25 0 18 0;
#X connect 26 0 20 0;
#X connect 26 0 28 0;
#X connect 29 0 9 1;
#X connect 29 0 27 0;
#X connect 29 1 30 0;
#X connect 30 0 10 0;
#X restore 1061 120 pd OBGetProjectPlayState2;
#N canvas 259 130 827 730 OBSendSongSettings 0;
#X obj 121 104 list trim;
#X obj 121 200 s $project_pattern;
#X obj 203 221 s $project_loops;
#X obj 286 196 s $project_endresult;
#X obj 93 26 inlet;
#X floatatom 121 151 5 0 0 0 - - -;
#X floatatom 203 151 5 0 0 0 - - -;
#X obj 121 128 unpack f f f, f 28;
#X floatatom 286 150 5 0 0 0 - - -;
#X obj 121 177 t f;
#X obj 203 175 t f;
#X obj 286 173 t f;
#X connect 0 0 7 0;
#X connect 4 0 0 0;
#X connect 5 0 9 0;
#X connect 6 0 10 0;
#X connect 7 0 5 0;
#X connect 7 1 6 0;
#X connect 7 2 8 0;
#X connect 8 0 11 0;
#X connect 9 0 1 0;
#X connect 10 0 2 0;
#X connect 11 0 3 0;
#X restore 1136 712 pd OBSendSongSettings;
#N canvas 132 131 647 573 OBGetSongSettingsIndex 0;
#X msg 82 151 0;
#X obj 83 108 t b p;
#X obj 19 50 inlet;
#X obj 78 49 inlet;
#X obj 139 282 outlet;
#X obj 225 55 inlet;
#X obj 189 304 outlet;
#X obj 82 175 t f;
#X obj 127 49 r selsongitem;
#X floatatom 127 71 5 0 0 0 - - -;
#X obj 224 84 t b;
#X obj 68 74 t b;
#X obj 127 96 t f b;
#X obj 82 225 unpack f f;
#X obj 139 248 t f;
#X obj 82 199 pack f f;
#X obj 43 304 s colorchangeItemIndex;
#X obj 285 51 r pattnum;
#X floatatom 284 71 5 0 0 0 - - -;
#X obj 319 212 r projectplaystate;
#X obj 319 236 tgl 15 0 empty empty empty 17 7 0 10 -262144 -1 -1 0
1;
#X obj 274 259 spigot 0;
#X obj 229 373 pack f f;
#X msg 229 349 0;
#X obj 229 397 unpack f f;
#X floatatom 286 445 5 0 0 0 - - -;
#X obj 274 236 t f;
#X obj 217 192 pack f f;
#X obj 217 215 unpack f f;
#X obj 262 115 t f;
#X msg 217 162 0;
#X obj 274 285 t f b;
#X obj 301 330 t b;
#X obj 285 92 t f b;
#X obj 312 137 t b;
#X obj 312 115 delay 20;
#X obj 301 307 delay 20;
#X obj 286 420 t f;
#X connect 0 0 7 0;
#X connect 1 0 0 0;
#X connect 1 1 6 0;
#X connect 2 0 1 0;
#X connect 3 0 11 0;
#X connect 5 0 10 0;
#X connect 7 0 15 0;
#X connect 8 0 9 0;
#X connect 9 0 12 0;
#X connect 10 0 0 0;
#X connect 11 0 0 0;
#X connect 12 0 15 1;
#X connect 12 1 0 0;
#X connect 13 1 14 0;
#X connect 14 0 4 0;
#X connect 14 0 16 0;
#X connect 15 0 13 0;
#X connect 17 0 18 0;
#X connect 18 0 33 0;
#X connect 19 0 20 0;
#X connect 20 0 21 1;
#X connect 21 0 31 0;
#X connect 22 0 24 0;
#X connect 23 0 22 0;
#X connect 24 1 37 0;
#X connect 26 0 21 0;
#X connect 27 0 28 0;
#X connect 28 1 26 0;
#X connect 29 0 27 1;
#X connect 30 0 27 0;
#X connect 31 0 22 1;
#X connect 31 1 36 0;
#X connect 32 0 23 0;
#X connect 33 0 29 0;
#X connect 33 1 35 0;
#X connect 34 0 30 0;
#X connect 35 0 34 0;
#X connect 36 0 32 0;
#X connect 37 0 25 0;
#X restore 1136 654 pd OBGetSongSettingsIndex;
#X text 65 44 swing;
#N canvas 423 84 672 582 buildvelocityprojectPath 0;
#X obj 428 254 f;
#X obj 95 153 f;
#X text 124 154 file ID;
#X obj 97 14 inlet;
#X obj 96 401 outlet;
#X symbolatom 482 47 40 0 0 0 - - -;
#X floatatom 428 281 5 0 0 0 - - -;
#X symbolatom 149 426 80 0 0 0 - - -;
#X obj 155 -53 loadbang;
#X msg 148 402 symbol \$2/\$3\$4\$5\$6;
#X msg 173 52 symbol -obsb-vel-;
#X msg 240 77 symbol .txt;
#X msg 137 1 symbol tmpProject;
#X msg 147 26 symbol projects/datafiles-donotdeleteoredit/tmpdata;
#X msg 510 15 symbol projects/datafiles-donotdeleteoredit;
#X msg 95 293 0;
#X obj 95 367 pack f s s s f s, f 70;
#X obj 428 312 t f;
#X obj 483 -67 r loadedprojectname;
#X symbolatom 483 -47 10 0 0 0 - - -;
#X obj 483 -28 t s b;
#X obj 135 -20 t b b b b b;
#X msg 261 246 symbol \$1;
#X msg 345 242 symbol \$1;
#X msg 511 240 symbol \$1;
#X msg 173 233 symbol \$1;
#X obj 172 281 symbol;
#X obj 242 289 symbol;
#X obj 513 277 symbol;
#X obj 340 290 symbol;
#X obj 95 178 t f b, f 6;
#X obj 88 227 delay 10;
#X obj 96 256 t b b;
#X msg 359 80 0;
#X obj 510 -6 t b b;
#X connect 0 0 6 0;
#X connect 1 0 30 0;
#X connect 3 0 1 0;
#X connect 5 0 22 0;
#X connect 6 0 17 0;
#X connect 8 0 21 0;
#X connect 9 0 7 0;
#X connect 10 0 23 0;
#X connect 11 0 24 0;
#X connect 12 0 5 0;
#X connect 13 0 25 0;
#X connect 14 0 25 0;
#X connect 15 0 16 0;
#X connect 16 0 4 0;
#X connect 16 0 9 0;
#X connect 17 0 16 4;
#X connect 18 0 19 0;
#X connect 19 0 20 0;
#X connect 20 0 5 0;
#X connect 20 1 34 0;
#X connect 21 0 12 0;
#X connect 21 1 13 0;
#X connect 21 2 10 0;
#X connect 21 3 11 0;
#X connect 21 4 33 0;
#X connect 22 0 27 0;
#X connect 23 0 29 0;
#X connect 24 0 28 0;
#X connect 25 0 26 0;
#X connect 26 0 16 1;
#X connect 27 0 16 2;
#X connect 28 0 16 5;
#X connect 29 0 16 3;
#X connect 30 0 0 0;
#X connect 30 1 31 0;
#X connect 31 0 32 0;
#X connect 32 0 15 0;
#X connect 33 0 0 0;
#X connect 34 0 14 0;
#X connect 34 1 31 0;
#X restore 187 101 pd buildvelocityprojectPath;
#X obj 814 626 text get \$0-newmastermixerfile 0 5;
#N canvas 16 0 758 690 OBLoadProjectPadSample 0;
#X obj 43 415 send;
#X floatatom 67 102 5 0 0 0 - - -;
#X obj 117 27 inlet;
#X obj 67 28 inlet;
#X obj 65 316 t f;
#X symbolatom 117 101 80 0 0 0 - - -;
#X msg 119 288 symbol \$1;
#X msg 118 368 tabload symbol \$1;
#X msg 273 221 symbol \$1-loadedpath;
#X obj 226 289 s;
#X obj 240 268 symbol;
#X obj 240 218 t b;
#X msg 240 243 bang;
#X msg 273 197 \$1;
#X symbolatom 119 310 80 0 0 0 - - -;
#X msg 313 50 symbol projects/datafiles-donotdeleteoredit/defaultblanksample.wav
, f 68;
#X obj 273 4 loadbang;
#X obj 167 467 s status-recv;
#X obj 167 422 delay 10;
#X msg 167 444 label Loading_sample.;
#X obj 167 400 t b;
#X obj 33 67 + 1;
#X obj 79 126 t f b;
#X msg 65 339 symbol MultiSamplePlayer-\$1;
#X obj 322 563 outlet;
#X obj 321 541 t b;
#X obj 320 482 change;
#X obj 322 511 == 1;
#X obj 428 18 t b f;
#X msg 273 78 1;
#X obj 273 27 t b b b;
#X obj 317 455 == 63;
#X connect 1 0 4 0;
#X connect 1 0 22 0;
#X connect 2 0 5 0;
#X connect 3 0 1 0;
#X connect 4 0 23 0;
#X connect 5 0 6 0;
#X connect 5 0 9 0;
#X connect 5 0 20 0;
#X connect 6 0 14 0;
#X connect 7 0 0 0;
#X connect 8 0 10 1;
#X connect 10 0 9 1;
#X connect 11 0 12 0;
#X connect 12 0 10 0;
#X connect 13 0 8 0;
#X connect 14 0 7 0;
#X connect 15 0 5 0;
#X connect 16 0 30 0;
#X connect 18 0 19 0;
#X connect 19 0 17 0;
#X connect 20 0 18 0;
#X connect 22 0 13 0;
#X connect 22 0 31 0;
#X connect 22 1 11 0;
#X connect 23 0 0 1;
#X connect 25 0 24 0;
#X connect 26 0 27 0;
#X connect 27 0 25 0;
#X connect 29 0 13 0;
#X connect 30 0 29 0;
#X connect 30 1 11 0;
#X connect 30 2 15 0;
#X connect 31 0 26 0;
#X restore 667 694 pd OBLoadProjectPadSample;
#N canvas 168 26 935 550 OBGetMixerTrackIndex 0;
#X msg 52 82 0;
#X obj 51 30 t b p;
#X floatatom 110 180 5 0 0 0 - - -;
#X floatatom 120 32 5 0 0 0 - - -;
#X obj 51 6 inlet;
#X obj 119 8 inlet;
#X obj 110 198 outlet;
#X obj 183 167 outlet;
#X obj 119 53 t f b;
#X obj 108 158 t f;
#X obj 53 131 unpack f f;
#X obj 52 104 pack f f;
#X obj 194 85 - 1;
#X connect 0 0 11 0;
#X connect 1 0 0 0;
#X connect 1 1 7 0;
#X connect 2 0 6 0;
#X connect 3 0 8 0;
#X connect 4 0 1 0;
#X connect 5 0 3 0;
#X connect 8 0 12 0;
#X connect 8 1 0 0;
#X connect 9 0 2 0;
#X connect 10 1 9 0;
#X connect 11 0 10 0;
#X connect 12 0 11 1;
#X restore 814 599 pd OBGetMixerTrackIndex;
#N canvas 261 129 756 722 OBSendMixerChanges 0;
#X obj 75 112 list trim;
#X obj 306 218 s $fileloc;
#X obj 75 172 s $mixer-mute;
#X obj 116 198 s $mixer-solo;
#X obj 159 225 s $mixer-pan;
#X obj 203 251 s $mixer-vol;
#X obj 75 147 unpack f f f f s, f 28;
#X text 58 253 Send changes to mixer;
#X obj 70 41 inlet;
#X obj 302 331 outlet;
#X symbolatom 302 266 80 0 0 0 - - -;
#X obj 302 301 t s;
#X connect 0 0 6 0;
#X connect 6 0 2 0;
#X connect 6 1 3 0;
#X connect 6 2 4 0;
#X connect 6 3 5 0;
#X connect 6 4 1 0;
#X connect 6 4 10 0;
#X connect 8 0 0 0;
#X connect 10 0 11 0;
#X connect 11 0 9 0;
#X restore 814 669 pd OBSendMixerChanges;
#X obj 1084 757 outlet;
#X obj 949 431 t b;
#X obj 629 785 outlet;
#X obj 667 667 t f;
#X floatatom 667 645 5 0 0 0 - - -;
#X obj 603 81 t b s;
#X text 633 462 Assign new master mixer track data;
#N canvas 318 60 765 686 setnewmixerdata 0;
#X obj 124 173 t b f;
#X obj 213 173 t b f;
#X obj 265 176 t b f;
#X text 401 267 When a toggle is bannged write its value [0 ( is "some
value" used to create the pack to which it is connected.;
#X obj 369 246 t b;
#X msg 369 272 0;
#X msg 369 324 \$2;
#X floatatom 369 355 5 0 0 0 - - -;
#X obj 163 81 r arg3-recv;
#X obj 117 63 r arg2-recv;
#X obj 207 101 r arg4-recv;
#X obj 164 172 t b f;
#X msg 113 264 list \$3 \$4 \$5 \$6 \$7;
#X obj 257 121 r arg5-recv;
#X obj 316 141 r arg6-recv;
#X obj 113 237 pack f f f f f f s;
#X text 428 220 A slight delay to allow changes from [text set \$0-newmastermixerfile]
;
#X floatatom 66 264 5 0 0 0 - - -;
#X text 342 118 file location;
#X text 289 101 volume;
#X text 243 83 pan;
#X text 193 60 mute;
#X text 151 42 solo;
#X text 32 15 track#/id;
#X obj 35 465 outlet;
#X obj 114 466 outlet;
#X obj 192 471 outlet;
#X obj 295 473 outlet;
#X obj 46 154 t b f f;
#X obj 505 45 loadbang;
#X msg 492 95 1;
#X obj 415 455 s psavestate;
#X msg 410 428 0;
#X obj 369 385 t f b b;
#X floatatom 277 293 5 0 0 0 - - -;
#X obj 370 297 pack \$1 \$2;
#X obj 357 184 t b s;
#X symbolatom 283 247 10 0 0 0 - - -;
#X obj 369 221 delay 10;
#X obj 37 33 r arg1-recv;
#X obj 57 87 + 1;
#X connect 0 0 15 0;
#X connect 0 0 38 0;
#X connect 0 1 15 2;
#X connect 1 0 15 0;
#X connect 1 0 38 0;
#X connect 1 1 15 4;
#X connect 2 0 15 0;
#X connect 2 0 38 0;
#X connect 2 1 15 5;
#X connect 4 0 5 0;
#X connect 5 0 35 0;
#X connect 6 0 7 0;
#X connect 7 0 33 0;
#X connect 8 0 11 0;
#X connect 9 0 0 0;
#X connect 10 0 1 0;
#X connect 11 0 15 0;
#X connect 11 0 38 0;
#X connect 11 1 15 3;
#X connect 12 0 24 0;
#X connect 13 0 2 0;
#X connect 14 0 36 0;
#X connect 15 0 12 0;
#X connect 17 0 25 0;
#X connect 28 0 15 0;
#X connect 28 0 38 0;
#X connect 28 2 17 0;
#X connect 28 2 34 0;
#X connect 29 0 30 0;
#X connect 32 0 31 0;
#X connect 33 0 26 0;
#X connect 33 1 27 0;
#X connect 33 2 32 0;
#X connect 34 0 35 1;
#X connect 35 0 6 0;
#X connect 36 0 15 0;
#X connect 36 1 15 6;
#X connect 36 1 37 0;
#X connect 38 0 4 0;
#X connect 39 0 40 0;
#X connect 40 0 28 0;
#X restore 640 404 pd setnewmixerdata;
#X obj 868 501 t s;
#X obj 745 508 t b;
#N canvas 510 64 646 576 writenewmixerdata2 0;
#X obj 59 163 symbol;
#X symbolatom 66 185 80 0 0 0 - - -;
#X obj 60 -26 inlet;
#X obj 204 -23 inlet;
#X obj 65 611 outlet;
#X msg 59 142 bang;
#X obj 65 258 pack s;
#X symbolatom 192 8 80 0 0 0 - - -;
#X symbolatom 97 117 80 0 0 0 - - -;
#X symbolatom 65 284 80 0 0 0 - - -;
#X obj 336 -24 loadbang;
#X obj 334 31 t b;
#X obj 208 75 delay 10;
#X obj 66 236 t s;
#X obj 13 167 t b;
#X msg 9 192 1;
#X obj 8 213 s pwritestate;
#X msg 65 571 write \$1;
#N canvas 370 94 558 489 createnewmixerfile 0;
#X obj 45 379 textfile;
#X msg 84 251 clear;
#X msg 129 219 1;
#X obj 130 251 metro 5;
#X obj 130 287 count 1 64;
#X obj 129 315 t b;
#X obj 130 196 t b;
#X msg 130 345 add 0 0 0 0 projects/datafiles-donotdeleteoredit/defaultblanksample.wav
;
#X obj 88 2 inlet;
#X obj 145 54 t b;
#X msg 59 99 write \$1;
#X obj 128 168 delay 1;
#X obj 22 3 inlet;
#X obj 96 408 print done_creating_tmpfile-createmixerfile;
#X connect 0 1 13 0;
#X connect 1 0 0 0;
#X connect 2 0 3 0;
#X connect 3 0 4 0;
#X connect 4 0 5 0;
#X connect 5 0 7 0;
#X connect 6 0 2 0;
#X connect 7 0 0 0;
#X connect 8 0 10 0;
#X connect 9 0 1 0;
#X connect 9 0 11 0;
#X connect 10 0 0 0;
#X connect 11 0 6 0;
#X connect 12 0 9 0;
#X restore 161 358 pd createnewmixerfile;
#X text 298 355 This creates a temp file before saved file is written
to ensure a file can be read.;
#X obj 97 142 t s s;
#X obj 161 316 t b s s;
#X obj 181 46 t s b;
#X msg 333 59 symbol projects/datafiles-donotdeleteoredit/tmpdata/tmpProject_mixersettings-0.txt
, f 68;
#X obj 227 539 tgl 15 0 empty empty empty 17 7 0 10 -262144 -1 -1 0
1;
#X floatatom 227 423 5 0 0 0 - - -;
#X obj 227 468 change;
#X obj 227 492 == 1;
#X obj 227 397 r psavestate;
#X floatatom 227 518 5 0 0 0 - - -;
#X obj 227 445 t f;
#X obj 182 561 spigot 0;
#X obj 64 389 t s;
#X connect 0 0 1 0;
#X connect 1 0 13 0;
#X connect 2 0 5 0;
#X connect 3 0 7 0;
#X connect 5 0 0 0;
#X connect 5 0 14 0;
#X connect 6 0 9 0;
#X connect 7 0 22 0;
#X connect 8 0 20 0;
#X connect 9 0 32 0;
#X connect 10 0 11 0;
#X connect 11 0 23 0;
#X connect 11 0 12 0;
#X connect 12 0 5 0;
#X connect 13 0 6 0;
#X connect 14 0 15 0;
#X connect 15 0 16 0;
#X connect 17 0 4 0;
#X connect 20 0 0 1;
#X connect 20 1 0 1;
#X connect 21 0 18 0;
#X connect 21 1 18 1;
#X connect 22 0 8 0;
#X connect 22 1 12 0;
#X connect 23 0 8 0;
#X connect 24 0 31 1;
#X connect 25 0 30 0;
#X connect 26 0 27 0;
#X connect 27 0 29 0;
#X connect 28 0 25 0;
#X connect 29 0 24 0;
#X connect 30 0 26 0;
#X connect 32 0 17 0;
#X restore 745 528 pd writenewmixerdata2;
#N canvas 43 50 598 622 buildtempsettingsPath 0;
#X obj 69 21 inlet;
#X obj 128 22 r projectsavestate;
#X floatatom 123 45 5 0 0 0 - - -;
#X obj 121 66 change;
#X obj 121 111 tgl 15 0 empty empty empty 17 7 0 10 -262144 -1 -1 0
1;
#X obj 86 135 spigot;
#X obj 121 90 == 1;
#X obj 322 369 f;
#X obj 260 375 symbol;
#X obj 368 378 symbol;
#X obj 148 371 symbol;
#X obj 201 373 symbol;
#X msg 100 382 0;
#X obj 100 406 pack f s s s f s, f 44;
#X obj 100 506 outlet;
#X msg 134 344 bang;
#X msg 199 340 bang;
#X msg 247 350 bang;
#X msg 359 348 bang;
#X obj 140 217 pack f f;
#X obj 80 317 delay 10;
#X obj 100 360 t b;
#X msg 86 157 0;
#X msg 406 348 symbol .txt;
#X obj 140 242 t b b b b f b b;
#X text 441 535 Project name;
#X obj 332 565 s settingarg2-send;
#X symbolatom 343 110 10 0 0 0 - - -;
#X msg 361 204 symbol _mixersettings-;
#X obj 274 46 loadbang;
#X msg 290 74 symbol tmpProject;
#X obj 355 146 s settingarg2-send;
#X obj 261 150 delay 10;
#X obj 332 490 t s;
#X symbolatom 332 514 10 0 0 0 - - -;
#X obj 332 536 t s;
#X msg 329 275 symbol projects/datafiles-donotdeleteoredit/tmpdata
;
#X msg 370 233 symbol projects/datafiles-donotdeleteoredit;
#X obj 445 25 r loadedprojectname;
#X symbolatom 445 45 10 0 0 0 - - -;
#N canvas 375 62 739 551 initiateDefaultsCreation3 0;
#X obj 78 130 symbol;
#X msg 106 199 clear \, read \$1 \, rewind;
#X obj 106 222 t b b a;
#X obj 151 261 textfile;
#X msg 149 290 1;
#X floatatom 118 345 5 0 0 0 - - -;
#X msg 54 108 bang;
#X symbolatom 78 154 80 0 0 0 - - -;
#X obj 54 87 delay 20;
#X obj 182 596 outlet;
#X obj 109 18 inlet;
#X obj 51 481 change;
#X obj 168 534 pack f s;
#X msg 161 488 0;
#X obj 161 511 t f;
#X obj 161 462 t b;
#X obj 257 501 bng 15 250 50 0 empty empty empty 17 7 0 10 -262144
-1 -1;
#X obj 161 396 change;
#X obj 161 373 == 1;
#X obj 49 454 == 0;
#X obj 49 430 pack f f;
#X msg 49 404 0;
#X obj 49 382 delay 20;
#X msg 198 286 0;
#X obj 161 417 == 1;
#X obj 161 440 delay 100;
#X obj 54 504 == 1;
#X obj 26 602 s bangnewdefaultfiles;
#X obj 27 530 t b b;
#X obj 52 554 delay 300;
#X obj 51 574 t b;
#X obj 169 558 unpack f s;
#X obj 114 322 f;
#X obj 78 175 t s s;
#X obj 108 382 t f;
#X obj 109 43 t s b;
#X symbolatom 109 66 10 0 0 0 - - -;
#X msg 111 86 symbol \$1;
#X connect 0 0 7 0;
#X connect 1 0 2 0;
#X connect 2 0 32 0;
#X connect 2 1 3 0;
#X connect 2 2 3 0;
#X connect 3 0 4 0;
#X connect 3 1 23 0;
#X connect 4 0 32 1;
#X connect 5 0 18 0;
#X connect 5 0 22 0;
#X connect 5 0 34 0;
#X connect 6 0 0 0;
#X connect 7 0 33 0;
#X connect 8 0 6 0;
#X connect 10 0 35 0;
#X connect 11 0 26 0;
#X connect 12 0 31 0;
#X connect 13 0 14 0;
#X connect 14 0 12 0;
#X connect 15 0 13 0;
#X connect 15 0 16 0;
#X connect 17 0 24 0;
#X connect 18 0 17 0;
#X connect 19 0 11 0;
#X connect 20 0 19 0;
#X connect 21 0 20 0;
#X connect 22 0 21 0;
#X connect 23 0 32 1;
#X connect 24 0 25 0;
#X connect 25 0 15 0;
#X connect 26 0 28 0;
#X connect 28 0 27 0;
#X connect 28 1 29 0;
#X connect 29 0 30 0;
#X connect 30 0 13 0;
#X connect 31 1 9 0;
#X connect 32 0 5 0;
#X connect 33 0 12 1;
#X connect 33 1 1 0;
#X connect 34 0 20 1;
#X connect 35 0 36 0;
#X connect 35 1 8 0;
#X connect 36 0 37 0;
#X connect 37 0 0 1;
#X restore 100 456 pd initiateDefaultsCreation3;
#X msg 100 481 read \$1;
#X msg 100 428 symbol \$2/\$3\$4\$5\$6;
#X obj 85 177 t f f;
#X obj 234 128 t s b;
#X obj 445 64 t s b b;
#X connect 0 0 5 0;
#X connect 1 0 2 0;
#X connect 2 0 3 0;
#X connect 3 0 6 0;
#X connect 4 0 5 1;
#X connect 5 0 22 0;
#X connect 6 0 4 0;
#X connect 7 0 13 4;
#X connect 8 0 13 3;
#X connect 9 0 13 5;
#X connect 10 0 13 1;
#X connect 11 0 13 2;
#X connect 12 0 13 0;
#X connect 13 0 42 0;
#X connect 15 0 10 0;
#X connect 16 0 11 0;
#X connect 17 0 8 0;
#X connect 18 0 9 0;
#X connect 19 0 24 0;
#X connect 20 0 21 0;
#X connect 21 0 12 0;
#X connect 22 0 43 0;
#X connect 23 0 9 1;
#X connect 24 0 20 0;
#X connect 24 1 15 0;
#X connect 24 2 16 0;
#X connect 24 3 17 0;
#X connect 24 4 7 0;
#X connect 24 5 23 0;
#X connect 24 5 18 0;
#X connect 27 0 33 0;
#X connect 27 0 44 0;
#X connect 28 0 8 1;
#X connect 29 0 30 0;
#X connect 29 0 28 0;
#X connect 30 0 27 0;
#X connect 30 0 36 0;
#X connect 32 0 22 0;
#X connect 33 0 34 0;
#X connect 34 0 35 0;
#X connect 35 0 26 0;
#X connect 36 0 10 1;
#X connect 37 0 10 1;
#X connect 38 0 39 0;
#X connect 39 0 45 0;
#X connect 40 0 41 0;
#X connect 41 0 14 0;
#X connect 42 0 40 0;
#X connect 43 0 19 1;
#X connect 43 1 19 0;
#X connect 44 0 11 1;
#X connect 44 1 32 0;
#X connect 45 0 27 0;
#X connect 45 1 37 0;
#X connect 45 2 28 0;
#X restore 814 344 pd buildtempsettingsPath;
#X obj 640 442 text set \$0-newmastermixerfile;
#X msg 603 56 symbol tmpProject;
#X symbolatom 967 67 40 0 0 0 - - -;
#N canvas 0 50 648 596 getprojectnamefrompath2 0;
#X obj 47 5 inlet;
#X symbolatom 144 214 80 0 0 0 - - -;
#X symbolatom 46 50 80 0 0 0 - - -;
#X obj 144 241 s newprojectname;
#X obj 45 93 symbol;
#X msg 45 72 symbol \$1;
#N canvas 516 214 621 425 OBFindNameFromPathWOExtForSong 0;
#X obj 58 5 inlet;
#X obj 63 239 outlet;
#X symbolatom 59 36 10 0 0 0 - - -;
#X obj 71 111 unpack s s;
#X obj 59 64 s2l .;
#X obj 60 85 list trim;
#X symbolatom 69 134 10 0 0 0 - - -;
#X connect 0 0 2 0;
#X connect 2 0 4 0;
#X connect 3 0 6 0;
#X connect 4 0 5 0;
#X connect 5 0 3 0;
#X connect 6 0 1 0;
#X restore 145 159 pd OBFindNameFromPathWOExtForSong;
#N canvas 0 50 626 614 GetFileDetails 0;
#X obj 46 116 list fromsymbol;
#X obj 46 413 list split;
#X obj 108 453 list tosymbol;
#X obj 46 136 t a a;
#X obj 73 256 list store;
#X obj 73 176 until;
#X obj 73 196 f;
#X obj 103 196 + 1;
#X msg 73 236 get \$1 1;
#X obj 116 177 0;
#X obj 73 156 t b b a;
#X obj 73 216 t f f;
#X obj 73 333 sel 1;
#X obj 73 353 f;
#X obj 103 393 f;
#X obj 218 297 list fromsymbol;
#X obj 73 313 ==;
#X obj 218 216 symbol \$1;
#X obj 228 196 loadbang;
#X obj 108 473 outlet;
#X obj 166 36 inlet;
#X obj 218 236 list fromsymbol;
#X obj 218 257 route bang;
#X obj 218 277 symbol /;
#X obj 46 513 outlet;
#X obj 46 493 list tosymbol;
#X obj 253 76 route symbol;
#X obj 166 56 route separator;
#X obj 74 433 list split 1;
#X obj 322 96 symbol;
#X msg 322 116 no method for '\$1';
#X obj 322 136 print ERROR;
#X obj 166 136 route float symbol;
#X obj 166 176 list fromsymbol;
#X msg 166 156 symbol \$1;
#X connect 0 0 3 0;
#X connect 1 0 25 0;
#X connect 1 1 28 0;
#X connect 2 0 19 0;
#X connect 3 0 1 0;
#X connect 3 1 10 0;
#X connect 4 0 16 0;
#X connect 4 1 5 1;
#X connect 4 1 14 0;
#X connect 5 0 6 0;
#X connect 6 0 7 0;
#X connect 6 0 11 0;
#X connect 7 0 6 1;
#X connect 8 0 4 0;
#X connect 9 0 6 1;
#X connect 10 0 5 0;
#X connect 10 1 9 0;
#X connect 10 2 4 1;
#X connect 11 0 8 0;
#X connect 11 1 13 1;
#X connect 12 0 13 0;
#X connect 13 0 14 1;
#X connect 14 0 1 1;
#X connect 15 0 16 1;
#X connect 16 0 12 0;
#X connect 17 0 21 0;
#X connect 18 0 17 0;
#X connect 20 0 27 0;
#X connect 21 0 22 0;
#X connect 22 0 23 0;
#X connect 22 1 16 1;
#X connect 23 0 15 0;
#X connect 25 0 24 0;
#X connect 26 0 0 0;
#X connect 26 1 29 0;
#X connect 27 0 32 0;
#X connect 27 1 26 0;
#X connect 28 1 2 0;
#X connect 29 0 30 0;
#X connect 30 0 31 0;
#X connect 32 0 34 0;
#X connect 32 1 17 0;
#X connect 33 0 16 1;
#X connect 34 0 33 0;
#X restore 46 132 pd GetFileDetails;
#N canvas 0 50 450 300 OBSplitUnderScoreFromFileName 0;
#X obj 58 5 inlet;
#X obj 63 239 outlet;
#X symbolatom 59 36 10 0 0 0 - - -;
#X obj 71 111 unpack s s;
#X obj 60 85 list trim;
#X symbolatom 69 134 10 0 0 0 - - -;
#X obj 59 64 s2l _;
#X connect 0 0 2 0;
#X connect 2 0 6 0;
#X connect 3 0 5 0;
#X connect 4 0 3 0;
#X connect 5 0 1 0;
#X connect 6 0 4 0;
#X restore 145 186 pd OBSplitUnderScoreFromFileName;
#X connect 0 0 2 0;
#X connect 1 0 3 0;
#X connect 2 0 5 0;
#X connect 4 0 7 0;
#X connect 5 0 4 0;
#X connect 6 0 8 0;
#X connect 7 1 6 0;
#X connect 8 0 1 0;
#X restore 969 91 pd getprojectnamefrompath2;
#X text 834 27 load project;
#X text 928 7 New Project created;
#X text 676 8 Saved Project;
#X obj 787 322 s loadedprojectname;
#X obj 745 485 delay 20;
#N canvas 0 50 651 516 GetSavedFileName 0;
#X obj 86 14 inlet;
#X symbolatom 91 86 15 0 0 0 - - -;
#X obj 91 54 t s b;
#X obj 116 170 s status-recv;
#X obj 119 125 delay 10;
#X obj 91 109 t s;
#X obj 171 257 s pwritestate;
#X msg 171 233 0;
#X msg 116 148 label Loading.;
#X obj 62 284 outlet;
#X obj 126 362 s savedprojectname;
#X obj 132 209 t s b;
#X connect 0 0 2 0;
#X connect 1 0 5 0;
#X connect 2 0 1 0;
#X connect 2 1 4 0;
#X connect 4 0 8 0;
#X connect 5 0 9 0;
#X connect 5 0 11 0;
#X connect 7 0 6 0;
#X connect 8 0 3 0;
#X connect 11 0 10 0;
#X connect 11 1 7 0;
#X restore 630 144 pd GetSavedFileName;
#N canvas 0 50 450 300 DisplayProjectDetails 0;
#X obj 93 13 inlet;
#X obj 88 111 s status-recv;
#X obj 90 45 t b;
#X obj 91 66 delay 5;
#X msg 88 89 label Getting_Project_Details;
#X connect 0 0 2 0;
#X connect 2 0 3 0;
#X connect 3 0 4 0;
#X connect 4 0 1 0;
#X restore 806 301 pd DisplayProjectDetails;
#X obj 720 279 s emode;
#X msg 720 255 1;
#X obj 667 759 outlet;
#X obj 955 758 outlet;
#X obj 198 9 r projectpatternnum;
#X obj 1132 269 r loadedprojectname;
#X symbolatom 1132 289 10 0 0 0 - - -;
#X obj 868 390 r savedprojectname;
#X obj 868 413 t s b;
#X obj 820 153 r savedprojectname;
#X obj 854 176 r newprojectname;
#N canvas 533 201 344 220 Getmixerdetails 0;
#X obj 89 50 t b;
#X obj 87 124 s status-recv;
#X obj 90 79 delay 10;
#X msg 90 101 label Getting_mixer_details.;
#X obj 73 14 inlet;
#X connect 0 0 2 0;
#X connect 2 0 3 0;
#X connect 3 0 1 0;
#X connect 4 0 0 0;
#X restore 828 365 pd Getmixerdetails;
#X floatatom 34 26 5 0 0 0 - - -;
#X obj 35 46 t f;
#X obj 34 5 r swing-send;
#X symbolatom 648 106 10 0 0 0 - - -;
#X symbolatom 967 49 10 0 0 0 - - -;
#X obj 648 82 r incommingsave;
#X obj 967 25 r incommingnew;
#X text 821 651 Send new master mixer track changes;
#N canvas 119 94 1073 596 OBRecieveSettings 0;
#X text 207 286 Save changes from toggles to doc;
#X obj 296 435 delay 10;
#X obj 296 460 t b;
#X obj 73 577 outlet;
#X obj 287 511 outlet;
#X msg 289 489 0;
#X text 334 477 When a toggle is bannged write its value [0 ( is "some
value" used to create the pack to which it is connected.;
#X obj 73 412 pack f f f f f, f 18;
#X text 353 435 A slight delay to allow changes from [text set \$0-newmastersongsettings]
;
#X obj 43 35 r ind-recv;
#X obj 88 57 r patt-recv;
#X obj 127 77 r reps-recv;
#X obj 166 131 r state-recv;
#X obj 52 345 t f b;
#X obj 90 345 t f b;
#X obj 128 346 t f b;
#X obj 166 344 t f b;
#X obj 24 390 t f;
#X msg 24 371 0;
#X msg 73 447 list \$3 \$4 \$5;
#X floatatom 323 367 5 0 0 0 - - -;
#X floatatom 386 355 5 0 0 0 - - -;
#X floatatom 437 353 5 0 0 0 - - -;
#X floatatom 484 352 5 0 0 0 - - -;
#X connect 1 0 2 0;
#X connect 2 0 5 0;
#X connect 5 0 4 0;
#X connect 7 0 19 0;
#X connect 9 0 13 0;
#X connect 10 0 14 0;
#X connect 11 0 15 0;
#X connect 12 0 16 0;
#X connect 13 0 7 1;
#X connect 13 0 20 0;
#X connect 13 1 18 0;
#X connect 13 1 1 0;
#X connect 14 0 7 2;
#X connect 14 0 21 0;
#X connect 14 1 18 0;
#X connect 14 1 1 0;
#X connect 15 0 7 3;
#X connect 15 0 22 0;
#X connect 15 1 18 0;
#X connect 15 1 1 0;
#X connect 16 0 7 4;
#X connect 16 0 23 0;
#X connect 16 1 18 0;
#X connect 16 1 1 0;
#X connect 17 0 7 0;
#X connect 18 0 17 0;
#X connect 19 0 3 0;
#X restore 1147 418 pd OBRecieveSettings;
#X obj 1147 504 text set \$0-newmastersongsettings;
#X floatatom 1218 461 5 0 0 0 - - -;
#X obj 1218 481 t f;
#X obj 1219 442 r selsongitem;
#X floatatom 1184 579 5 0 0 0 - - -;
#X obj 1184 554 t f;
#X obj 1185 522 r emodecheckedvalue;
#X obj 1240 581 t f;
#N canvas -8 -8 1276 766 OBWriteSongChanges 0;
#X obj 27 39 inlet;
#X obj 77 41 inlet;
#X obj 127 42 inlet;
#X obj 34 283 outlet;
#X floatatom 34 132 5 0 0 0 - - -;
#N canvas -8 -8 1280 766 buildsongpprojectPath2 0;
#X obj 96 86 f;
#X text 126 86 file ID;
#X obj 97 14 inlet;
#X obj 82 403 outlet;
#X obj 306 14 inlet;
#X symbolatom 310 100 40 0 0 0 - - -;
#X obj 148 24 loadbang;
#X msg 147 45 symbol tmpProject;
#X obj 303 310 f;
#X obj 241 316 symbol;
#X obj 349 319 symbol;
#X obj 129 312 symbol;
#X msg 82 370 write \$2/\$3\$4\$5\$6;
#X obj 182 314 symbol;
#X msg 85 310 0;
#X obj 81 347 pack f s s s f s, f 44;
#X msg 115 285 bang;
#X msg 180 281 bang;
#X msg 228 291 bang;
#X msg 340 289 bang;
#X obj 118 172 pack f f;
#X obj 56 264 delay 10;
#X obj 46 285 t b;
#X msg 93 120 0;
#X msg 387 289 symbol .txt;
#X obj 118 197 t b b b b f b b;
#X msg 243 257 symbol _songsettings-;
#X msg 132 234 symbol projects/datafiles-donotdeleteoredit;
#X obj 314 178 t s b;
#X obj 145 109 r selsongitem;
#X floatatom 199 153 5 0 0 0 - - -;
#X floatatom 268 382 5 0 0 0 - - -;
#X connect 0 0 23 0;
#X connect 2 0 0 0;
#X connect 4 0 5 0;
#X connect 5 0 28 0;
#X connect 6 0 7 0;
#X connect 7 0 5 0;
#X connect 8 0 15 4;
#X connect 8 0 31 0;
#X connect 9 0 15 3;
#X connect 10 0 15 5;
#X connect 11 0 15 1;
#X connect 12 0 3 0;
#X connect 13 0 15 2;
#X connect 14 0 15 0;
#X connect 15 0 12 0;
#X connect 16 0 11 0;
#X connect 17 0 13 0;
#X connect 18 0 9 0;
#X connect 19 0 10 0;
#X connect 20 0 25 0;
#X connect 21 0 22 0;
#X connect 22 0 14 0;
#X connect 23 0 20 0;
#X connect 24 0 10 1;
#X connect 25 0 21 0;
#X connect 25 1 27 0;
#X connect 25 1 16 0;
#X connect 25 2 17 0;
#X connect 25 3 26 0;
#X connect 25 3 18 0;
#X connect 25 4 8 0;
#X connect 25 5 24 0;
#X connect 25 5 19 0;
#X connect 26 0 9 1;
#X connect 27 0 11 1;
#X connect 28 0 13 1;
#X connect 28 1 17 0;
#X connect 29 0 20 1;
#X connect 29 0 30 0;
#X restore 34 159 pd buildsongpprojectPath2;
#X text 111 209 Build the file path. Will look like this tmpdata-osbs-pat-1.txt
through tmpdataosbs-pat-64.txt Depending on the loaded pattern.;
#N canvas -4 -4 1280 718 OBWhenEditStateChanged 0;
#X floatatom 285 122 5 0 0 0 - - -;
#X floatatom 149 277 5 0 0 0 - - -;
#X text 322 88 Loaded pattern number;
#X obj 138 73 change;
#X obj 93 137 spigot 0;
#X obj 138 116 tgl 15 0 empty empty empty 17 7 0 10 -262144 -1 -1 1
1;
#X obj 340 130 tgl 15 0 empty empty empty 17 7 0 10 -262144 -1 -1 1
1;
#X obj 285 149 spigot 0;
#X obj 341 105 r emodestate;
#X obj 138 95 == 1;
#X obj 62 20 inlet;
#X obj 121 18 inlet;
#X obj 180 19 inlet;
#X obj 148 305 outlet;
#X obj 91 187 t b;
#X msg 90 208 0;
#X obj 91 163 delay 100;
#X obj 93 251 unpack f f;
#X obj 90 230 pack f f;
#X connect 0 0 7 0;
#X connect 1 0 13 0;
#X connect 3 0 9 0;
#X connect 4 0 16 0;
#X connect 5 0 4 1;
#X connect 6 0 7 1;
#X connect 7 0 18 1;
#X connect 8 0 6 0;
#X connect 9 0 5 0;
#X connect 10 0 3 0;
#X connect 11 0 0 0;
#X connect 12 0 4 0;
#X connect 14 0 15 0;
#X connect 15 0 18 0;
#X connect 16 0 14 0;
#X connect 17 1 1 0;
#X connect 18 0 17 0;
#X restore 34 106 pd OBWhenEditStateChanged;
#X obj 222 81 r loadedprojectname;
#X symbolatom 222 101 10 0 0 0 - - -;
#X obj 222 120 t s;
#X connect 0 0 7 0;
#X connect 1 0 7 1;
#X connect 2 0 7 2;
#X connect 4 0 5 0;
#X connect 5 0 3 0;
#X connect 7 0 4 0;
#X connect 8 0 9 0;
#X connect 9 0 10 0;
#X connect 10 0 5 1;
#X restore 1182 603 pd OBWriteSongChanges;
#X obj 1325 556 r loadedsongitem;
#X obj 1169 753 outlet;
#X obj 1132 308 t s b b;
#X floatatom 1058 372 5 0 0 0 - - -;
#X floatatom 1323 579 5 0 0 0 - - -;
#X obj 787 277 t s b b;
#X obj 1136 368 t b;
#X obj 1137 349 delay 20;
#X msg 187 141 read \$1;
#X msg 393 147 read \$1;
#N canvas 98 80 743 646 initiateDefaultsCreation2 0;
#X msg 151 208 clear \, read \$1 \, rewind;
#X obj 170 279 textfile;
#X msg 170 301 1;
#X floatatom 151 352 5 0 0 0 - - -;
#X obj 288 677 outlet;
#X obj 63 4 inlet;
#X msg 63 28 symbol \$2/\$3\$4\$5\$6;
#X obj 113 413 change;
#X floatatom 84 250 5 0 0 0 - - -;
#X obj 229 614 pack f s;
#X msg 229 568 0;
#X obj 229 591 t f;
#X obj 229 542 t b;
#X obj 257 576 bng 15 250 50 0 empty empty empty 17 7 0 10 -262144
-1 -1;
#X obj 229 476 change;
#X obj 229 453 == 1;
#X obj 113 394 == 0;
#X msg 234 282 0;
#X obj 229 497 == 1;
#X obj 229 520 delay 100;
#X obj 116 436 == 1;
#X obj 88 534 s bangnewdefaultfiles;
#X obj 89 462 t b b;
#X obj 113 506 t b;
#X obj 230 638 unpack f s;
#X obj 114 486 delay 200;
#X symbolatom 284 49 80 0 0 0 - - -;
#X obj 124 187 t s s;
#X obj 150 329 f;
#X obj 378 302 pack f s;
#X obj 375 279 t f;
#X msg 375 258 0;
#X obj 424 226 t s b;
#X msg 190 253 bang;
#X obj 151 230 t b a b;
#X obj 379 321 unpack f s;
#X symbolatom 197 160 80 0 0 0 - - -;
#X symbolatom 410 640 80 0 0 0 - - -;
#X obj 183 82 symbol;
#X obj 52 514 bng 15 250 50 0 empty empty empty 17 7 0 10 -262144 -1
-1;
#X obj 248 425 spigot 0;
#X obj 293 401 tgl 15 0 empty empty empty 17 7 0 10 -262144 -1 -1 0
1;
#X obj 306 383 t f f;
#X connect 0 0 34 0;
#X connect 1 0 2 0;
#X connect 1 1 17 0;
#X connect 2 0 28 1;
#X connect 3 0 16 0;
#X connect 3 0 42 0;
#X connect 5 0 6 0;
#X connect 6 0 38 0;
#X connect 6 0 26 0;
#X connect 7 0 20 0;
#X connect 9 0 24 0;
#X connect 10 0 11 0;
#X connect 11 0 9 0;
#X connect 12 0 10 0;
#X connect 12 0 13 0;
#X connect 14 0 18 0;
#X connect 15 0 14 0;
#X connect 16 0 7 0;
#X connect 17 0 28 1;
#X connect 18 0 19 0;
#X connect 19 0 12 0;
#X connect 20 0 22 0;
#X connect 22 0 39 0;
#X connect 22 1 25 0;
#X connect 23 0 10 0;
#X connect 24 1 4 0;
#X connect 24 1 37 0;
#X connect 25 0 23 0;
#X connect 27 0 9 1;
#X connect 27 1 0 0;
#X connect 28 0 3 0;
#X connect 29 0 35 0;
#X connect 30 0 29 0;
#X connect 31 0 30 0;
#X connect 32 0 29 1;
#X connect 32 1 31 0;
#X connect 33 0 1 0;
#X connect 34 0 8 0;
#X connect 34 0 28 0;
#X connect 34 1 1 0;
#X connect 34 2 33 0;
#X connect 38 0 27 0;
#X connect 38 0 36 0;
#X connect 40 0 15 0;
#X connect 41 0 40 1;
#X connect 42 0 41 0;
#X connect 42 1 40 0;
#X restore 393 123 pd initiateDefaultsCreation2;
#N canvas 0 0 712 810 initiateDefaultsCreation 0;
#X msg 108 233 clear \, read \$1 \, rewind;
#X obj 129 295 textfile;
#X msg 129 317 1;
#X floatatom 89 368 5 0 0 0 - - -;
#X obj 370 668 outlet;
#X obj 63 4 inlet;
#X msg 63 28 symbol \$2/\$3\$4\$5\$6;
#X obj 93 455 change;
#X floatatom 35 236 5 0 0 0 - - -;
#X obj 311 605 pack f s;
#X msg 311 559 0;
#X obj 311 582 t f;
#X obj 311 533 t b;
#X obj 352 564 bng 15 250 50 0 empty empty empty 17 7 0 10 -262144
-1 -1;
#X obj 311 467 change;
#X obj 311 444 == 1;
#X obj 93 436 == 0;
#X msg 177 320 0;
#X obj 311 488 == 1;
#X obj 311 511 delay 100;
#X obj 96 478 == 1;
#X obj 89 682 s bangnewdefaultfiles;
#X obj 94 497 t b b;
#X obj 118 541 t b;
#X obj 312 629 unpack f s;
#X obj 119 521 delay 200;
#X symbolatom 101 56 80 0 0 0 - - -;
#X obj 80 202 t s s;
#X obj 88 345 f;
#X obj 93 414 t f f;
#X msg 175 253 bang;
#X obj 108 255 t b a b;
#X symbolatom 169 189 80 0 0 0 - - -;
#X obj 76 118 symbol;
#X obj 311 417 spigot 0;
#X obj 356 393 tgl 15 0 empty empty empty 17 7 0 10 -262144 -1 -1 0
1;
#X obj 369 375 t f f;
#X obj 119 579 bng 15 250 50 0 empty empty empty 17 7 0 10 -262144
-1 -1;
#X connect 0 0 31 0;
#X connect 1 0 2 0;
#X connect 1 1 17 0;
#X connect 2 0 28 1;
#X connect 3 0 36 0;
#X connect 3 0 29 0;
#X connect 5 0 6 0;
#X connect 6 0 26 0;
#X connect 6 0 33 0;
#X connect 7 0 20 0;
#X connect 9 0 24 0;
#X connect 10 0 11 0;
#X connect 11 0 9 0;
#X connect 12 0 10 0;
#X connect 12 0 13 0;
#X connect 14 0 18 0;
#X connect 15 0 14 0;
#X connect 16 0 7 0;
#X connect 17 0 28 1;
#X connect 18 0 19 0;
#X connect 19 0 12 0;
#X connect 20 0 22 0;
#X connect 22 1 25 0;
#X connect 23 0 37 0;
#X connect 23 0 10 0;
#X connect 24 1 4 0;
#X connect 25 0 23 0;
#X connect 27 0 9 1;
#X connect 27 1 0 0;
#X connect 27 1 32 0;
#X connect 28 0 3 0;
#X connect 29 0 16 0;
#X connect 30 0 1 0;
#X connect 31 0 8 0;
#X connect 31 0 28 0;
#X connect 31 1 1 0;
#X connect 31 2 30 0;
#X connect 33 0 27 0;
#X connect 34 0 15 0;
#X connect 35 0 34 1;
#X connect 36 0 35 0;
#X connect 36 1 34 0;
#X restore 187 121 pd initiateDefaultsCreation;
#X obj 1238 540 r selsongitem;
#X floatatom 1241 561 5 0 0 0 - - -;
#X obj 786 39 t b;
#X floatatom 198 50 5 0 64 0 - - -;
#X obj 650 349 r projectpatternnum;
#X obj 393 404 text define -k \$0-sequences;
#A set 1 0 0 1 0 0 1 0 0 0 0 0 0 0 0 1 1 0 1 0 0 0 0 0 0 0 1 0 0 0
1 0 \; 0 0 0 0 1 0 0 0 0 0 0 0 1 0 0 1 0 0 0 0 1 0 0 0 0 0 0 0 1 0
0 0 \; 0 0 0 0 0 0 0 0 0 0 0 0 0 0 0 0 0 0 0 0 0 0 0 0 0 0 0 0 0 0
0 0 \; 0 0 0 0 0 0 0 0 0 0 0 0 0 0 0 0 0 0 0 0 0 0 0 0 0 0 0 0 0 0
0 0 \; 0 0 0 0 0 0 0 0 0 0 0 0 0 0 0 0 0 0 0 0 0 0 0 0 0 0 0 0 0 0
0 0 \; 0 0 0 0 0 0 0 0 0 0 0 0 0 0 0 0 0 0 0 0 0 0 0 0 0 0 0 0 0 0
0 0 \; 0 0 0 0 0 0 0 0 0 0 0 0 0 0 0 0 0 0 0 0 0 0 0 0 0 0 0 0 0 0
0 0 \; 0 0 0 0 0 0 0 0 0 0 0 0 0 0 0 0 0 0 0 0 0 0 0 0 0 0 0 0 0 0
0 0 \; 0 0 0 0 0 0 0 0 0 0 0 0 0 0 0 0 0 0 0 0 0 0 0 0 0 0 0 0 0 0
0 0 \; 0 0 0 0 0 0 0 0 0 0 0 0 0 0 0 0 0 0 0 0 0 0 0 0 0 0 0 0 0 0
0 0 \; 0 0 0 0 0 0 0 0 0 0 0 0 0 0 0 0 0 0 0 0 0 0 0 0 0 0 0 0 0 0
0 0 \; 0 0 0 0 0 0 0 0 0 0 0 0 0 0 0 0 0 0 0 0 0 0 0 0 0 0 0 0 0 0
0 0 \; 0 0 0 0 0 0 0 0 0 0 0 0 0 0 0 0 0 0 0 0 0 0 0 0 0 0 0 0 0 0
0 0 \; 0 0 0 0 0 0 0 0 0 0 0 0 0 0 0 0 0 0 0 0 0 0 0 0 0 0 0 0 0 0
0 0 \; 0 0 0 0 0 0 0 0 0 0 0 0 0 0 0 0 0 0 0 0 0 0 0 0 0 0 0 0 0 0
0 0 \; 0 0 0 0 0 0 0 0 0 0 0 0 0 0 0 0 0 0 0 0 0 0 0 0 0 0 0 0 0 0
0 0 \; 0 0 0 0 0 0 0 0 0 0 0 0 0 0 0 0 0 0 0 0 0 0 0 0 0 0 0 0 0 0
0 0 \; 0 0 0 0 0 0 0 0 0 0 0 0 0 0 0 0 0 0 0 0 0 0 0 0 0 0 0 0 0 0
0 0 \; 0 0 0 0 0 0 0 0 0 0 0 0 0 0 0 0 0 0 0 0 0 0 0 0 0 0 0 0 0 0
0 0 \; 0 0 0 0 0 0 0 0 0 0 0 0 0 0 0 0 0 0 0 0 0 0 0 0 0 0 0 0 0 0
0 0 \; 0 0 0 0 0 0 0 0 0 0 0 0 0 0 0 0 0 0 0 0 0 0 0 0 0 0 0 0 0 0
0 0 \; 0 0 0 0 0 0 0 0 0 0 0 0 0 0 0 0 0 0 0 0 0 0 0 0 0 0 0 0 0 0
0 0 \; 0 0 0 0 0 0 0 0 0 0 0 0 0 0 0 0 0 0 0 0 0 0 0 0 0 0 0 0 0 0
0 0 \; 0 0 0 0 0 0 0 0 0 0 0 0 0 0 0 0 0 0 0 0 0 0 0 0 0 0 0 0 0 0
0 0 \; 0 0 0 0 0 0 0 0 0 0 0 0 0 0 0 0 0 0 0 0 0 0 0 0 0 0 0 0 0 0
0 0 \; 0 0 0 0 0 0 0 0 0 0 0 0 0 0 0 0 0 0 0 0 0 0 0 0 0 0 0 0 0 0
0 0 \; 0 0 0 0 0 0 0 0 0 0 0 0 0 0 0 0 0 0 0 0 0 0 0 0 0 0 0 0 0 0
0 0 \; 0 0 0 0 0 0 0 0 0 0 0 0 0 0 0 0 0 0 0 0 0 0 0 0 0 0 0 0 0 0
0 0 \; 0 0 0 0 0 0 0 0 0 0 0 0 0 0 0 0 0 0 0 0 0 0 0 0 0 0 0 0 0 0
0 0 \; 0 0 0 0 0 0 0 0 0 0 0 0 0 0 0 0 0 0 0 0 0 0 0 0 0 0 0 0 0 0
0 0 \; 0 0 0 0 0 0 0 0 0 0 0 0 0 0 0 0 0 0 0 0 0 0 0 0 0 0 0 0 0 0
0 0 \; 0 0 0 0 0 0 0 0 0 0 0 0 0 0 0 0 0 0 0 0 0 0 0 0 0 0 0 0 0 0
0 0 \; 0 0 0 0 0 0 0 0 0 0 0 0 0 0 0 0 0 0 0 0 0 0 0 0 0 0 0 0 0 0
0 0 \; 0 0 0 0 0 0 0 0 0 0 0 0 0 0 0 0 0 0 0 0 0 0 0 0 0 0 0 0 0 0
0 0 \; 0 0 0 0 0 0 0 0 0 0 0 0 0 0 0 0 0 0 0 0 0 0 0 0 0 0 0 0 0 0
0 0 \; 0 0 0 0 0 0 0 0 0 0 0 0 0 0 0 0 0 0 0 0 0 0 0 0 0 0 0 0 0 0
0 0 \; 0 0 0 0 0 0 0 0 0 0 0 0 0 0 0 0 0 0 0 0 0 0 0 0 0 0 0 0 0 0
0 0 \; 0 0 0 0 0 0 0 0 0 0 0 0 0 0 0 0 0 0 0 0 0 0 0 0 0 0 0 0 0 0
0 0 \; 0 0 0 0 0 0 0 0 0 0 0 0 0 0 0 0 0 0 0 0 0 0 0 0 0 0 0 0 0 0
0 0 \; 0 0 0 0 0 0 0 0 0 0 0 0 0 0 0 0 0 0 0 0 0 0 0 0 0 0 0 0 0 0
0 0 \; 0 0 0 0 0 0 0 0 0 0 0 0 0 0 0 0 0 0 0 0 0 0 0 0 0 0 0 0 0 0
0 0 \; 0 0 0 0 0 0 0 0 0 0 0 0 0 0 0 0 0 0 0 0 0 0 0 0 0 0 0 0 0 0
0 0 \; 0 0 0 0 0 0 0 0 0 0 0 0 0 0 0 0 0 0 0 0 0 0 0 0 0 0 0 0 0 0
0 0 \; 0 0 0 0 0 0 0 0 0 0 0 0 0 0 0 0 0 0 0 0 0 0 0 0 0 0 0 0 0 0
0 0 \; 0 0 0 0 0 0 0 0 0 0 0 0 0 0 0 0 0 0 0 0 0 0 0 0 0 0 0 0 0 0
0 0 \; 0 0 0 0 0 0 0 0 0 0 0 0 0 0 0 0 0 0 0 0 0 0 0 0 0 0 0 0 0 0
0 0 \; 0 0 0 0 0 0 0 0 0 0 0 0 0 0 0 0 0 0 0 0 0 0 0 0 0 0 0 0 0 0
0 0 \; 0 0 0 0 0 0 0 0 0 0 0 0 0 0 0 0 0 0 0 0 0 0 0 0 0 0 0 0 0 0
0 0 \; 0 0 0 0 0 0 0 0 0 0 0 0 0 0 0 0 0 0 0 0 0 0 0 0 0 0 0 0 0 0
0 0 \; 0 0 0 0 0 0 0 0 0 0 0 0 0 0 0 0 0 0 0 0 0 0 0 0 0 0 0 0 0 0
0 0 \; 0 0 0 0 0 0 0 0 0 0 0 0 0 0 0 0 0 0 0 0 0 0 0 0 0 0 0 0 0 0
0 0 \; 0 0 0 0 0 0 0 0 0 0 0 0 0 0 0 0 0 0 0 0 0 0 0 0 0 0 0 0 0 0
0 0 \; 0 0 0 0 0 0 0 0 0 0 0 0 0 0 0 0 0 0 0 0 0 0 0 0 0 0 0 0 0 0
0 0 \; 0 0 0 0 0 0 0 0 0 0 0 0 0 0 0 0 0 0 0 0 0 0 0 0 0 0 0 0 0 0
0 0 \; 0 0 0 0 0 0 0 0 0 0 0 0 0 0 0 0 0 0 0 0 0 0 0 0 0 0 0 0 0 0
0 0 \; 0 0 0 0 0 0 0 0 0 0 0 0 0 0 0 0 0 0 0 0 0 0 0 0 0 0 0 0 0 0
0 0 \; 0 0 0 0 0 0 0 0 0 0 0 0 0 0 0 0 0 0 0 0 0 0 0 0 0 0 0 0 0 0
0 0 \; 0 0 0 0 0 0 0 0 0 0 0 0 0 0 0 0 0 0 0 0 0 0 0 0 0 0 0 0 0 0
0 0 \; 0 0 0 0 0 0 0 0 0 0 0 0 0 0 0 0 0 0 0 0 0 0 0 0 0 0 0 0 0 0
0 0 \; 0 0 0 0 0 0 0 0 0 0 0 0 0 0 0 0 0 0 0 0 0 0 0 0 0 0 0 0 0 0
0 0 \; 0 0 0 0 0 0 0 0 0 0 0 0 0 0 0 0 0 0 0 0 0 0 0 0 0 0 0 0 0 0
0 0 \; 0 0 0 0 0 0 0 0 0 0 0 0 0 0 0 0 0 0 0 0 0 0 0 0 0 0 0 0 0 0
0 0 \; 0 0 0 0 0 0 0 0 0 0 0 0 0 0 0 0 0 0 0 0 0 0 0 0 0 0 0 0 0 0
0 0 \; 0 0 0 0 0 0 0 0 0 0 0 0 0 0 0 0 0 0 0 0 0 0 0 0 0 0 0 0 0 0
0 0 \; 0 0 0 0 0 0 0 0 0 0 0 0 0 0 0 0 0 0 0 0 0 0 0 0 0 0 0 0 0 0
0 0 \;;
#X obj 393 431 t b p;
#X obj 402 606 list trim;
#X msg 393 460 0;
#X obj 417 278 text set \$0-sequences;
#N canvas -8 -8 1280 686 OBSendSteps 0;
#X text 290 153 Send changes from doc to toggles;
#X obj 24 24 inlet;
#X obj 28 64 unpack f f f f f f f f f f f f f f f f f f f f f f f f
f f f f f f f f, f 107;
#X floatatom 767 88 5 0 0 0 - - -;
#X floatatom 27 159 5 0 0 0 - - -;
#X obj 34 96 s seqstep0;
#X obj 66 122 s seqstep1;
#X obj 110 150 s seqstep2;
#X obj 154 176 s seqstep3;
#X obj 196 197 s seqstep4;
#X obj 239 218 s seqstep5;
#X obj 279 240 s seqstep6;
#X obj 324 260 s seqstep7;
#X obj 366 282 s seqstep8;
#X obj 409 302 s seqstep9;
#X obj 452 323 s seqstep10;
#X obj 493 344 s seqstep11;
#X obj 537 366 s seqstep12;
#X obj 580 385 s seqstep13;
#X obj 622 406 s seqstep14;
#X obj 665 428 s seqstep15;
#X obj 1136 440 s seqstep31;
#X obj 1093 418 s seqstep30;
#X obj 1049 397 s seqstep29;
#X obj 1008 378 s seqstep28;
#X obj 965 356 s seqstep27;
#X obj 923 335 s seqstep26;
#X obj 880 313 s seqstep25;
#X obj 837 292 s seqstep24;
#X obj 795 272 s seqstep23;
#X obj 752 251 s seqstep22;
#X obj 710 229 s seqstep21;
#X obj 667 209 s seqstep20;
#X obj 625 188 s seqstep19;
#X obj 580 161 s seqstep18;
#X obj 540 135 s seqstep17;
#X obj 499 106 s seqstep16;
#X connect 1 0 2 0;
#X connect 2 0 4 0;
#X connect 2 0 5 0;
#X connect 2 1 6 0;
#X connect 2 2 7 0;
#X connect 2 3 8 0;
#X connect 2 4 9 0;
#X connect 2 5 10 0;
#X connect 2 6 11 0;
#X connect 2 7 12 0;
#X connect 2 8 13 0;
#X connect 2 9 14 0;
#X connect 2 10 15 0;
#X connect 2 11 16 0;
#X connect 2 12 17 0;
#X connect 2 13 18 0;
#X connect 2 14 19 0;
#X connect 2 15 20 0;
#X connect 2 16 36 0;
#X connect 2 17 35 0;
#X connect 2 18 34 0;
#X connect 2 19 33 0;
#X connect 2 20 32 0;
#X connect 2 21 31 0;
#X connect 2 22 30 0;
#X connect 2 23 29 0;
#X connect 2 24 28 0;
#X connect 2 25 27 0;
#X connect 2 26 26 0;
#X connect 2 27 25 0;
#X connect 2 28 24 0;
#X connect 2 29 23 0;
#X connect 2 30 22 0;
#X connect 2 31 3 0;
#X connect 2 31 21 0;
#X restore 402 640 pd OBSendSteps;
#N canvas 46 46 1073 596 OBRecieveSteps 0;
#X obj 51 371 t b f;
#X obj 89 371 t b f;
#X obj 127 372 t b f;
#X obj 165 373 t b f;
#X obj 206 374 t b f;
#X obj 249 375 t b f;
#X obj 289 375 t b f;
#X obj 331 375 t b f;
#X obj 373 375 t b f;
#X obj 413 376 t b f;
#X obj 451 375 t b f;
#X obj 492 376 t b f;
#X obj 534 377 t b f;
#X obj 577 376 t b f;
#X obj 620 378 t b f;
#X obj 662 378 t b f;
#X text 207 286 Save changes from toggles to doc;
#X obj 1153 561 delay 10;
#X obj 1153 586 t b;
#X obj 216 558 outlet;
#X obj 1131 639 outlet;
#X msg 1146 615 0;
#X text 1191 603 When a toggle is bannged write its value [0 ( is "some
value" used to create the pack to which it is connected.;
#X text 1210 561 A slight delay to allow changes from [text set \$0-sequences]
;
#X obj 50 36 r t0-recv;
#X obj 88 57 r t1-recv;
#X obj 127 77 r t2-recv;
#X obj 165 99 r t3-recv;
#X obj 206 119 r t4-recv;
#X obj 249 141 r t5-recv;
#X obj 289 161 r t6-recv;
#X obj 331 179 r t7-recv;
#X obj 373 201 r t8-recv;
#X obj 412 221 r t9-recv;
#X obj 450 243 r t10-recv;
#X obj 492 266 r t11-recv;
#X obj 534 290 r t12-recv;
#X obj 575 311 r t13-recv;
#X obj 620 333 r t14-recv;
#X obj 663 353 r t15-recv;
#X obj 904 313 t b f;
#X obj 942 313 t b f;
#X obj 980 314 t b f;
#X obj 1018 315 t b f;
#X obj 1059 316 t b f;
#X obj 1102 317 t b f;
#X obj 1142 317 t b f;
#X obj 1184 317 t b f;
#X obj 1226 317 t b f;
#X obj 1266 318 t b f;
#X obj 1304 317 t b f;
#X obj 1345 318 t b f;
#X obj 1387 319 t b f;
#X obj 1430 318 t b f;
#X obj 1473 320 t b f;
#X obj 1515 320 t b f;
#X text 1060 228 Save changes from toggles to doc;
#X obj 83 418 pack f f f f f f f f f f f f f f f f f f f f f f f f
f f f f f f f f f f, f 179;
#X obj 903 -22 r t16-recv;
#X obj 941 -1 r t17-recv;
#X obj 977 18 r t18-recv;
#X obj 1018 41 r t19-recv;
#X obj 1059 61 r t20-recv;
#X obj 1102 84 r t21-recv;
#X obj 1142 102 r t22-recv;
#X obj 1184 121 r t23-recv;
#X obj 1226 143 r t24-recv;
#X obj 1265 163 r t25-recv;
#X obj 1303 185 r t26-recv;
#X obj 1345 208 r t27-recv;
#X obj 1387 232 r t28-recv;
#X obj 1428 253 r t29-recv;
#X obj 1473 275 r t30-recv;
#X obj 1516 295 r t31-recv;
#X msg 213 512 list \$2 \$3 \$4 \$5 \$6 \$7 \$8 \$9 \$10 \$11 \$12
\$13 \$14 \$15 \$16 \$17 \$18 \$19 \$20 \$21 \$22 \$23 \$24 \$25 \$26
\$27 \$28 \$29 \$30 \$31 \$32 \$33;
#X floatatom 20 199 5 0 0 0 - - -;
#X floatatom 87 240 5 0 0 0 - - -;
#X floatatom 126 271 5 0 0 0 - - -;
#X floatatom 160 291 5 0 0 0 - - -;
#X floatatom 201 314 5 0 0 0 - - -;
#X floatatom 242 329 5 0 0 0 - - -;
#X connect 0 0 17 0;
#X connect 0 0 57 0;
#X connect 0 1 57 1;
#X connect 0 1 75 0;
#X connect 1 0 17 0;
#X connect 1 0 57 0;
#X connect 1 1 57 2;
#X connect 1 1 76 0;
#X connect 2 0 17 0;
#X connect 2 0 57 0;
#X connect 2 1 57 3;
#X connect 2 1 77 0;
#X connect 3 0 17 0;
#X connect 3 0 57 0;
#X connect 3 1 57 4;
#X connect 3 1 78 0;
#X connect 4 0 17 0;
#X connect 4 0 57 0;
#X connect 4 1 57 5;
#X connect 4 1 79 0;
#X connect 5 0 17 0;
#X connect 5 0 57 0;
#X connect 5 1 57 6;
#X connect 5 1 80 0;
#X connect 6 0 17 0;
#X connect 6 0 57 0;
#X connect 6 1 57 7;
#X connect 7 0 17 0;
#X connect 7 0 57 0;
#X connect 7 1 57 8;
#X connect 8 0 17 0;
#X connect 8 0 57 0;
#X connect 8 1 57 9;
#X connect 9 0 17 0;
#X connect 9 0 57 0;
#X connect 9 1 57 10;
#X connect 10 0 17 0;
#X connect 10 0 57 0;
#X connect 10 1 57 11;
#X connect 11 0 17 0;
#X connect 11 0 57 0;
#X connect 11 1 57 12;
#X connect 12 0 17 0;
#X connect 12 0 57 0;
#X connect 12 1 57 13;
#X connect 13 0 17 0;
#X connect 13 0 57 0;
#X connect 13 1 57 14;
#X connect 14 0 17 0;
#X connect 14 0 57 0;
#X connect 14 1 57 15;
#X connect 15 0 17 0;
#X connect 15 0 57 0;
#X connect 15 1 57 16;
#X connect 17 0 18 0;
#X connect 18 0 21 0;
#X connect 21 0 20 0;
#X connect 24 0 0 0;
#X connect 25 0 1 0;
#X connect 26 0 2 0;
#X connect 27 0 3 0;
#X connect 28 0 4 0;
#X connect 29 0 5 0;
#X connect 30 0 6 0;
#X connect 31 0 7 0;
#X connect 32 0 8 0;
#X connect 33 0 9 0;
#X connect 34 0 10 0;
#X connect 35 0 11 0;
#X connect 36 0 12 0;
#X connect 37 0 13 0;
#X connect 38 0 14 0;
#X connect 39 0 15 0;
#X connect 40 0 57 0;
#X connect 40 0 17 0;
#X connect 40 1 57 17;
#X connect 41 0 57 0;
#X connect 41 0 17 0;
#X connect 41 1 57 18;
#X connect 42 0 57 0;
#X connect 42 0 17 0;
#X connect 42 1 57 19;
#X connect 43 0 57 0;
#X connect 43 0 17 0;
#X connect 43 1 57 20;
#X connect 44 0 57 0;
#X connect 44 0 17 0;
#X connect 44 1 57 21;
#X connect 45 0 57 0;
#X connect 45 0 17 0;
#X connect 45 1 57 22;
#X connect 46 0 57 0;
#X connect 46 0 17 0;
#X connect 46 1 57 23;
#X connect 47 0 57 0;
#X connect 47 0 17 0;
#X connect 47 1 57 24;
#X connect 48 0 57 0;
#X connect 48 0 17 0;
#X connect 48 1 57 25;
#X connect 49 0 57 0;
#X connect 49 0 17 0;
#X connect 49 1 57 26;
#X connect 50 0 57 0;
#X connect 50 0 17 0;
#X connect 50 1 57 27;
#X connect 51 0 57 0;
#X connect 51 0 17 0;
#X connect 51 1 57 28;
#X connect 52 0 57 0;
#X connect 52 0 17 0;
#X connect 52 1 57 29;
#X connect 53 0 57 0;
#X connect 53 0 17 0;
#X connect 53 1 57 30;
#X connect 54 0 57 0;
#X connect 54 0 17 0;
#X connect 54 1 57 31;
#X connect 55 0 57 0;
#X connect 55 0 17 0;
#X connect 55 1 57 32;
#X connect 57 0 74 0;
#X connect 58 0 40 0;
#X connect 59 0 41 0;
#X connect 60 0 42 0;
#X connect 61 0 43 0;
#X connect 62 0 44 0;
#X connect 63 0 45 0;
#X connect 64 0 46 0;
#X connect 65 0 47 0;
#X connect 66 0 48 0;
#X connect 67 0 49 0;
#X connect 68 0 50 0;
#X connect 69 0 51 0;
#X connect 70 0 52 0;
#X connect 71 0 53 0;
#X connect 72 0 54 0;
#X connect 73 0 55 0;
#X connect 74 0 19 0;
#X restore 418 167 pd OBRecieveSteps;
#X obj 187 401 t b p;
#X msg 188 433 0;
#X obj 187 378 text define -k \$0-velocities;
#A set 1 1 1 1 1 1 1 1 1 1 1 1 1 1 1 1 1 1 1 1 1 1 1 1 1 1 1 1 1 1
1 1 \; 1 1 1 1 1 1 1 1 1 1 1 1 1 1 1 1 1 1 1 1 1 1 1 1 1 1 1 1 1 1
1 1 \; 0 0 0 0 0 0 0 0 0 0 0 0 0 0 0 0 0 0 0 0 0 0 0 0 0 0 0 0 0 0
0 0 \; 0 0 0 0 0 0 0 0 0 0 0 0 0 0 0 0 0 0 0 0 0 0 0 0 0 0 0 0 0 0
0 0 \; 0 0 0 0 0 0 0 0 0 0 0 0 0 0 0 0 0 0 0 0 0 0 0 0 0 0 0 0 0 0
0 0 \; 0 0 0 0 0 0 0 0 0 0 0 0 0 0 0 0 0 0 0 0 0 0 0 0 0 0 0 0 0 0
0 0 \; 0 0 0 0 0 0 0 0 0 0 0 0 0 0 0 0 0 0 0 0 0 0 0 0 0 0 0 0 0 0
0 0 \; 0 0 0 0 0 0 0 0 0 0 0 0 0 0 0 0 0 0 0 0 0 0 0 0 0 0 0 0 0 0
0 0 \; 0 0 0 0 0 0 0 0 0 0 0 0 0 0 0 0 0 0 0 0 0 0 0 0 0 0 0 0 0 0
0 0 \; 0 0 0 0 0 0 0 0 0 0 0 0 0 0 0 0 0 0 0 0 0 0 0 0 0 0 0 0 0 0
0 0 \; 0 0 0 0 0 0 0 0 0 0 0 0 0 0 0 0 0 0 0 0 0 0 0 0 0 0 0 0 0 0
0 0 \; 0 0 0 0 0 0 0 0 0 0 0 0 0 0 0 0 0 0 0 0 0 0 0 0 0 0 0 0 0 0
0 0 \; 0 0 0 0 0 0 0 0 0 0 0 0 0 0 0 0 0 0 0 0 0 0 0 0 0 0 0 0 0 0
0 0 \; 0 0 0 0 0 0 0 0 0 0 0 0 0 0 0 0 0 0 0 0 0 0 0 0 0 0 0 0 0 0
0 0 \; 0 0 0 0 0 0 0 0 0 0 0 0 0 0 0 0 0 0 0 0 0 0 0 0 0 0 0 0 0 0
0 0 \; 0 0 0 0 0 0 0 0 0 0 0 0 0 0 0 0 0 0 0 0 0 0 0 0 0 0 0 0 0 0
0 0 \; 0 0 0 0 0 0 0 0 0 0 0 0 0 0 0 0 0 0 0 0 0 0 0 0 0 0 0 0 0 0
0 0 \; 0 0 0 0 0 0 0 0 0 0 0 0 0 0 0 0 0 0 0 0 0 0 0 0 0 0 0 0 0 0
0 0 \; 0 0 0 0 0 0 0 0 0 0 0 0 0 0 0 0 0 0 0 0 0 0 0 0 0 0 0 0 0 0
0 0 \; 0 0 0 0 0 0 0 0 0 0 0 0 0 0 0 0 0 0 0 0 0 0 0 0 0 0 0 0 0 0
0 0 \; 0 0 0 0 0 0 0 0 0 0 0 0 0 0 0 0 0 0 0 0 0 0 0 0 0 0 0 0 0 0
0 0 \; 0 0 0 0 0 0 0 0 0 0 0 0 0 0 0 0 0 0 0 0 0 0 0 0 0 0 0 0 0 0
0 0 \; 0 0 0 0 0 0 0 0 0 0 0 0 0 0 0 0 0 0 0 0 0 0 0 0 0 0 0 0 0 0
0 0 \; 0 0 0 0 0 0 0 0 0 0 0 0 0 0 0 0 0 0 0 0 0 0 0 0 0 0 0 0 0 0
0 0 \; 0 0 0 0 0 0 0 0 0 0 0 0 0 0 0 0 0 0 0 0 0 0 0 0 0 0 0 0 0 0
0 0 \; 0 0 0 0 0 0 0 0 0 0 0 0 0 0 0 0 0 0 0 0 0 0 0 0 0 0 0 0 0 0
0 0 \; 0 0 0 0 0 0 0 0 0 0 0 0 0 0 0 0 0 0 0 0 0 0 0 0 0 0 0 0 0 0
0 0 \; 0 0 0 0 0 0 0 0 0 0 0 0 0 0 0 0 0 0 0 0 0 0 0 0 0 0 0 0 0 0
0 0 \; 0 0 0 0 0 0 0 0 0 0 0 0 0 0 0 0 0 0 0 0 0 0 0 0 0 0 0 0 0 0
0 0 \; 0 0 0 0 0 0 0 0 0 0 0 0 0 0 0 0 0 0 0 0 0 0 0 0 0 0 0 0 0 0
0 0 \; 0 0 0 0 0 0 0 0 0 0 0 0 0 0 0 0 0 0 0 0 0 0 0 0 0 0 0 0 0 0
0 0 \; 0 0 0 0 0 0 0 0 0 0 0 0 0 0 0 0 0 0 0 0 0 0 0 0 0 0 0 0 0 0
0 0 \; 0 0 0 0 0 0 0 0 0 0 0 0 0 0 0 0 0 0 0 0 0 0 0 0 0 0 0 0 0 0
0 0 \; 0 0 0 0 0 0 0 0 0 0 0 0 0 0 0 0 0 0 0 0 0 0 0 0 0 0 0 0 0 0
0 0 \; 0 0 0 0 0 0 0 0 0 0 0 0 0 0 0 0 0 0 0 0 0 0 0 0 0 0 0 0 0 0
0 0 \; 0 0 0 0 0 0 0 0 0 0 0 0 0 0 0 0 0 0 0 0 0 0 0 0 0 0 0 0 0 0
0 0 \; 0 0 0 0 0 0 0 0 0 0 0 0 0 0 0 0 0 0 0 0 0 0 0 0 0 0 0 0 0 0
0 0 \; 0 0 0 0 0 0 0 0 0 0 0 0 0 0 0 0 0 0 0 0 0 0 0 0 0 0 0 0 0 0
0 0 \; 0 0 0 0 0 0 0 0 0 0 0 0 0 0 0 0 0 0 0 0 0 0 0 0 0 0 0 0 0 0
0 0 \; 0 0 0 0 0 0 0 0 0 0 0 0 0 0 0 0 0 0 0 0 0 0 0 0 0 0 0 0 0 0
0 0 \; 0 0 0 0 0 0 0 0 0 0 0 0 0 0 0 0 0 0 0 0 0 0 0 0 0 0 0 0 0 0
0 0 \; 0 0 0 0 0 0 0 0 0 0 0 0 0 0 0 0 0 0 0 0 0 0 0 0 0 0 0 0 0 0
0 0 \; 0 0 0 0 0 0 0 0 0 0 0 0 0 0 0 0 0 0 0 0 0 0 0 0 0 0 0 0 0 0
0 0 \; 0 0 0 0 0 0 0 0 0 0 0 0 0 0 0 0 0 0 0 0 0 0 0 0 0 0 0 0 0 0
0 0 \; 0 0 0 0 0 0 0 0 0 0 0 0 0 0 0 0 0 0 0 0 0 0 0 0 0 0 0 0 0 0
0 0 \; 0 0 0 0 0 0 0 0 0 0 0 0 0 0 0 0 0 0 0 0 0 0 0 0 0 0 0 0 0 0
0 0 \; 0 0 0 0 0 0 0 0 0 0 0 0 0 0 0 0 0 0 0 0 0 0 0 0 0 0 0 0 0 0
0 0 \; 0 0 0 0 0 0 0 0 0 0 0 0 0 0 0 0 0 0 0 0 0 0 0 0 0 0 0 0 0 0
0 0 \; 0 0 0 0 0 0 0 0 0 0 0 0 0 0 0 0 0 0 0 0 0 0 0 0 0 0 0 0 0 0
0 0 \; 0 0 0 0 0 0 0 0 0 0 0 0 0 0 0 0 0 0 0 0 0 0 0 0 0 0 0 0 0 0
0 0 \; 0 0 0 0 0 0 0 0 0 0 0 0 0 0 0 0 0 0 0 0 0 0 0 0 0 0 0 0 0 0
0 0 \; 0 0 0 0 0 0 0 0 0 0 0 0 0 0 0 0 0 0 0 0 0 0 0 0 0 0 0 0 0 0
0 0 \; 0 0 0 0 0 0 0 0 0 0 0 0 0 0 0 0 0 0 0 0 0 0 0 0 0 0 0 0 0 0
0 0 \; 0 0 0 0 0 0 0 0 0 0 0 0 0 0 0 0 0 0 0 0 0 0 0 0 0 0 0 0 0 0
0 0 \; 0 0 0 0 0 0 0 0 0 0 0 0 0 0 0 0 0 0 0 0 0 0 0 0 0 0 0 0 0 0
0 0 \; 0 0 0 0 0 0 0 0 0 0 0 0 0 0 0 0 0 0 0 0 0 0 0 0 0 0 0 0 0 0
0 0 \; 0 0 0 0 0 0 0 0 0 0 0 0 0 0 0 0 0 0 0 0 0 0 0 0 0 0 0 0 0 0
0 0 \; 0 0 0 0 0 0 0 0 0 0 0 0 0 0 0 0 0 0 0 0 0 0 0 0 0 0 0 0 0 0
0 0 \; 0 0 0 0 0 0 0 0 0 0 0 0 0 0 0 0 0 0 0 0 0 0 0 0 0 0 0 0 0 0
0 0 \; 0 0 0 0 0 0 0 0 0 0 0 0 0 0 0 0 0 0 0 0 0 0 0 0 0 0 0 0 0 0
0 0 \; 0 0 0 0 0 0 0 0 0 0 0 0 0 0 0 0 0 0 0 0 0 0 0 0 0 0 0 0 0 0
0 0 \; 0 0 0 0 0 0 0 0 0 0 0 0 0 0 0 0 0 0 0 0 0 0 0 0 0 0 0 0 0 0
0 0 \; 0 0 0 0 0 0 0 0 0 0 0 0 0 0 0 0 0 0 0 0 0 0 0 0 0 0 0 0 0 0
0 0 \; 0 0 0 0 0 0 0 0 0 0 0 0 0 0 0 0 0 0 0 0 0 0 0 0 0 0 0 0 0 0
0 0 \; 0 0 0 0 0 0 0 0 0 0 0 0 0 0 0 0 0 0 0 0 0 0 0 0 0 0 0 0 0 0
0 0 \;;
#X obj 190 578 list trim;
#N canvas -8 -8 1276 686 OBSendVelocitySteps 0;
#X obj 24 24 inlet;
#X text 290 153 Send changes from doc to toggles;
#X obj 28 64 unpack f f f f f f f f f f f f f f f f f f f f f f f f
f f f f f f f f, f 107;
#X obj 28 94 s seqvelstep0;
#X obj 66 122 s seqvelstep1;
#X obj 110 150 s seqvelstep2;
#X obj 154 176 s seqvelstep3;
#X obj 196 197 s seqvelstep4;
#X obj 239 218 s seqvelstep5;
#X obj 281 239 s seqvelstep6;
#X obj 324 260 s seqvelstep7;
#X obj 366 282 s seqvelstep8;
#X obj 409 302 s seqvelstep9;
#X obj 452 323 s seqvelstep10;
#X obj 493 344 s seqvelstep11;
#X obj 537 366 s seqvelstep12;
#X obj 579 385 s seqvelstep13;
#X obj 622 406 s seqvelstep14;
#X obj 665 428 s seqvelstep15;
#X obj 1136 440 s seqvelstep31;
#X obj 1093 418 s seqvelstep30;
#X obj 1049 397 s seqvelstep29;
#X obj 1009 378 s seqvelstep28;
#X obj 965 356 s seqvelstep27;
#X obj 923 335 s seqvelstep26;
#X obj 880 314 s seqvelstep25;
#X obj 837 292 s seqvelstep24;
#X obj 793 272 s seqvelstep23;
#X obj 752 251 s seqvelstep22;
#X obj 710 229 s seqvelstep21;
#X obj 667 209 s seqvelstep20;
#X obj 625 188 s seqvelstep19;
#X obj 580 161 s seqvelstep18;
#X obj 540 135 s seqvelstep17;
#X obj 499 106 s seqvelstep16;
#X floatatom 829 152 5 0 0 0 - - -;
#X connect 0 0 2 0;
#X connect 2 0 3 0;
#X connect 2 1 4 0;
#X connect 2 2 5 0;
#X connect 2 3 6 0;
#X connect 2 4 7 0;
#X connect 2 5 8 0;
#X connect 2 6 9 0;
#X connect 2 7 10 0;
#X connect 2 8 11 0;
#X connect 2 9 12 0;
#X connect 2 10 13 0;
#X connect 2 11 14 0;
#X connect 2 12 15 0;
#X connect 2 13 16 0;
#X connect 2 14 17 0;
#X connect 2 15 18 0;
#X connect 2 16 34 0;
#X connect 2 17 33 0;
#X connect 2 18 32 0;
#X connect 2 19 31 0;
#X connect 2 20 30 0;
#X connect 2 21 29 0;
#X connect 2 22 28 0;
#X connect 2 23 27 0;
#X connect 2 24 26 0;
#X connect 2 25 25 0;
#X connect 2 26 24 0;
#X connect 2 27 23 0;
#X connect 2 28 22 0;
#X connect 2 29 21 0;
#X connect 2 30 20 0;
#X connect 2 31 19 0;
#X connect 2 31 35 0;
#X restore 190 608 pd OBSendVelocitySteps;
#N canvas 130 50 1073 592 OBRecieveVelSteps 0;
#X obj 51 371 t b f;
#X obj 89 371 t b f;
#X obj 127 372 t b f;
#X obj 165 373 t b f;
#X obj 206 374 t b f;
#X obj 249 375 t b f;
#X obj 289 375 t b f;
#X obj 331 375 t b f;
#X obj 373 375 t b f;
#X obj 413 376 t b f;
#X obj 451 375 t b f;
#X obj 492 376 t b f;
#X obj 534 377 t b f;
#X obj 577 376 t b f;
#X obj 620 378 t b f;
#X obj 662 378 t b f;
#X text 207 286 Save changes from toggles to doc;
#X obj 1153 561 delay 10;
#X obj 1153 586 t b;
#X obj 213 558 outlet;
#X obj 1131 639 outlet;
#X msg 1146 615 0;
#X text 1191 603 When a toggle is bannged write its value [0 ( is "some
value" used to create the pack to which it is connected.;
#X text 1210 561 A slight delay to allow changes from [text set \$0-sequences]
;
#X obj 761 386 t b f;
#X obj 799 386 t b f;
#X obj 837 387 t b f;
#X obj 875 388 t b f;
#X obj 916 389 t b f;
#X obj 959 390 t b f;
#X obj 999 390 t b f;
#X obj 1041 390 t b f;
#X obj 1083 390 t b f;
#X obj 1123 391 t b f;
#X obj 1161 390 t b f;
#X obj 1202 391 t b f;
#X obj 1244 392 t b f;
#X obj 1287 391 t b f;
#X obj 1330 393 t b f;
#X obj 1372 393 t b f;
#X text 917 301 Save changes from toggles to doc;
#X obj 105 456 pack f f f f f f f f f f f f f f f f f f f f f f f f
f f f f f f f f f f, f 179;
#X obj 50 36 r v0-recv;
#X obj 88 57 r v1-recv;
#X obj 127 77 r v2-recv;
#X obj 165 99 r v3-recv;
#X obj 206 119 r v4-recv;
#X obj 249 141 r v5-recv;
#X obj 289 161 r v6-recv;
#X obj 331 179 r v7-recv;
#X obj 373 201 r v8-recv;
#X obj 412 221 r v9-recv;
#X obj 450 243 r v10-recv;
#X obj 492 266 r v11-recv;
#X obj 533 290 r v12-recv;
#X obj 575 311 r v13-recv;
#X obj 620 333 r v14-recv;
#X obj 663 353 r v15-recv;
#X obj 760 51 r v16-recv;
#X obj 798 72 r v17-recv;
#X obj 834 91 r v18-recv;
#X obj 874 114 r v19-recv;
#X obj 915 134 r v20-recv;
#X obj 958 158 r v21-recv;
#X obj 999 175 r v22-recv;
#X obj 1041 194 r v23-recv;
#X obj 1083 216 r v24-recv;
#X obj 1122 236 r v25-recv;
#X obj 1160 258 r v26-recv;
#X obj 1202 281 r v27-recv;
#X obj 1244 305 r v28-recv;
#X obj 1285 326 r v29-recv;
#X obj 1330 348 r v30-recv;
#X obj 1372 368 r v31-recv;
#X msg 213 512 list \$2 \$3 \$4 \$5 \$6 \$7 \$8 \$9 \$10 \$11 \$12
\$13 \$14 \$15 \$16 \$17 \$18 \$19 \$20 \$21 \$22 \$23 \$24 \$25 \$26
\$27 \$28 \$29 \$30 \$31 \$32 \$33;
#X connect 0 0 17 0;
#X connect 0 0 41 0;
#X connect 0 1 41 1;
#X connect 1 0 17 0;
#X connect 1 0 41 0;
#X connect 1 1 41 2;
#X connect 2 0 17 0;
#X connect 2 0 41 0;
#X connect 2 1 41 3;
#X connect 3 0 17 0;
#X connect 3 0 41 0;
#X connect 3 1 41 4;
#X connect 4 0 17 0;
#X connect 4 0 41 0;
#X connect 4 1 41 5;
#X connect 5 0 17 0;
#X connect 5 0 41 0;
#X connect 5 1 41 6;
#X connect 6 0 17 0;
#X connect 6 0 41 0;
#X connect 6 1 41 7;
#X connect 7 0 17 0;
#X connect 7 0 41 0;
#X connect 7 1 41 8;
#X connect 8 0 17 0;
#X connect 8 0 41 0;
#X connect 8 1 41 9;
#X connect 9 0 17 0;
#X connect 9 0 41 0;
#X connect 9 1 41 10;
#X connect 10 0 17 0;
#X connect 10 0 41 0;
#X connect 10 1 41 11;
#X connect 11 0 17 0;
#X connect 11 0 41 0;
#X connect 11 1 41 12;
#X connect 12 0 17 0;
#X connect 12 0 41 0;
#X connect 12 1 41 13;
#X connect 13 0 17 0;
#X connect 13 0 41 0;
#X connect 13 1 41 14;
#X connect 14 0 17 0;
#X connect 14 0 41 0;
#X connect 14 1 41 15;
#X connect 15 0 17 0;
#X connect 15 0 41 0;
#X connect 15 1 41 16;
#X connect 17 0 18 0;
#X connect 18 0 21 0;
#X connect 21 0 20 0;
#X connect 24 0 41 0;
#X connect 24 0 17 0;
#X connect 24 1 41 17;
#X connect 25 0 41 0;
#X connect 25 0 17 0;
#X connect 25 1 41 18;
#X connect 26 0 41 0;
#X connect 26 0 17 0;
#X connect 26 1 41 19;
#X connect 27 0 41 0;
#X connect 27 0 17 0;
#X connect 27 1 41 20;
#X connect 28 0 41 0;
#X connect 28 0 17 0;
#X connect 28 1 41 21;
#X connect 29 0 41 0;
#X connect 29 0 17 0;
#X connect 29 1 41 22;
#X connect 30 0 41 0;
#X connect 30 0 17 0;
#X connect 30 1 41 23;
#X connect 31 0 41 0;
#X connect 31 0 17 0;
#X connect 31 1 41 24;
#X connect 32 0 41 0;
#X connect 32 0 17 0;
#X connect 32 1 41 25;
#X connect 33 0 41 0;
#X connect 33 0 17 0;
#X connect 33 1 41 26;
#X connect 34 0 41 0;
#X connect 34 0 17 0;
#X connect 34 1 41 27;
#X connect 35 0 41 0;
#X connect 35 0 17 0;
#X connect 35 1 41 28;
#X connect 36 0 41 0;
#X connect 36 0 17 0;
#X connect 36 1 41 29;
#X connect 37 0 41 0;
#X connect 37 0 17 0;
#X connect 37 1 41 30;
#X connect 38 0 41 0;
#X connect 38 0 17 0;
#X connect 38 1 41 31;
#X connect 39 0 41 0;
#X connect 39 0 17 0;
#X connect 39 1 41 32;
#X connect 41 0 74 0;
#X connect 42 0 0 0;
#X connect 43 0 1 0;
#X connect 44 0 2 0;
#X connect 45 0 3 0;
#X connect 46 0 4 0;
#X connect 47 0 5 0;
#X connect 48 0 6 0;
#X connect 49 0 7 0;
#X connect 50 0 8 0;
#X connect 51 0 9 0;
#X connect 52 0 10 0;
#X connect 53 0 11 0;
#X connect 54 0 12 0;
#X connect 55 0 13 0;
#X connect 56 0 14 0;
#X connect 57 0 15 0;
#X connect 58 0 24 0;
#X connect 59 0 25 0;
#X connect 60 0 26 0;
#X connect 61 0 27 0;
#X connect 62 0 28 0;
#X connect 63 0 29 0;
#X connect 64 0 30 0;
#X connect 65 0 31 0;
#X connect 66 0 32 0;
#X connect 67 0 33 0;
#X connect 68 0 34 0;
#X connect 69 0 35 0;
#X connect 70 0 36 0;
#X connect 71 0 37 0;
#X connect 72 0 38 0;
#X connect 73 0 39 0;
#X connect 74 0 19 0;
#X restore 198 161 pd OBRecieveVelSteps;
#X obj 199 270 text set \$0-velocities;
#N canvas 191 98 450 300 OBWriteVelocities 0;
#X obj 20 11 inlet;
#X obj 67 13 inlet;
#X obj 107 12 inlet;
#X obj 21 251 outlet;
#N canvas 592 100 672 300 buildvelocityprojectPath2 0;
#X obj 100 176 symbol;
#X msg 553 166 .txt;
#X obj 517 165 f;
#X obj 429 192 symbol;
#X obj 553 192 symbol;
#X obj 91 44 f;
#X text 121 44 file ID;
#X obj 97 14 inlet;
#X obj 98 324 outlet;
#X msg 23 189 0;
#X obj 97 115 t b b b b f b, f 53;
#X obj 331 13 inlet;
#X obj 337 177 symbol;
#X msg 337 151 bang;
#X obj 17 221 pack f s s s f s, f 70;
#X msg 99 151 projects/datafiles-donotdeleteoredit;
#X symbolatom 334 41 40 0 0 0 - - -;
#X msg 429 166 -obsb-vel-;
#X obj 34 163 t b;
#X obj 275 75 t b;
#X obj 34 142 delay 5;
#X floatatom 117 76 5 0 0 0 - - -;
#X floatatom 505 189 5 0 0 0 - - -;
#X obj 175 6 loadbang;
#X msg 175 31 symbol tmpProject;
#X connect 0 0 14 1;
#X connect 1 0 4 0;
#X connect 2 0 22 0;
#X connect 3 0 14 3;
#X connect 4 0 14 5;
#X connect 5 0 21 0;
#X connect 7 0 5 0;
#X connect 9 0 14 0;
#X connect 10 0 20 0;
#X connect 10 1 15 0;
#X connect 10 2 13 0;
#X connect 10 3 17 0;
#X connect 10 4 2 0;
#X connect 10 5 1 0;
#X connect 11 0 16 0;
#X connect 12 0 14 2;
#X connect 13 0 12 0;
#X connect 14 0 8 0;
#X connect 15 0 0 0;
#X connect 16 0 12 1;
#X connect 16 0 19 0;
#X connect 17 0 3 0;
#X connect 18 0 9 0;
#X connect 19 0 13 0;
#X connect 20 0 18 0;
#X connect 21 0 10 0;
#X connect 22 0 14 4;
#X connect 23 0 24 0;
#X connect 24 0 16 0;
#X restore 26 121 pd buildvelocityprojectPath2;
#X floatatom 26 101 5 0 0 0 - - -;
#X msg 26 151 write \$2/\$3\$4\$5\$6;
#N canvas 368 153 576 413 OBWhenEditStateChanged2 0;
#X floatatom 255 88 5 0 0 0 - - -;
#X msg 93 197 \$2;
#X floatatom 93 219 5 0 0 0 - - -;
#X text 322 88 Loaded pattern number;
#X obj 138 73 change;
#X obj 93 137 spigot 0;
#X obj 138 116 tgl 15 0 empty empty empty 17 7 0 10 -262144 -1 -1 1
1;
#X obj 340 130 tgl 15 0 empty empty empty 17 7 0 10 -262144 -1 -1 1
1;
#X obj 285 149 spigot 0;
#X obj 341 105 r emodestate;
#X obj 138 95 == 1;
#X obj 62 20 inlet;
#X obj 121 18 inlet;
#X obj 180 19 inlet;
#X obj 112 280 outlet;
#X msg 161 194 \$1;
#X floatatom 159 216 5 0 0 0 - - -;
#X obj 93 173 pack \$1 \$2;
#X obj 245 193 t f;
#X floatatom 205 191 5 0 0 0 - - -;
#X obj 231 122 t f;
#X connect 0 0 20 0;
#X connect 1 0 2 0;
#X connect 2 0 14 0;
#X connect 4 0 10 0;
#X connect 5 0 17 0;
#X connect 6 0 5 1;
#X connect 7 0 8 1;
#X connect 8 0 18 0;
#X connect 9 0 7 0;
#X connect 10 0 6 0;
#X connect 11 0 4 0;
#X connect 12 0 0 0;
#X connect 13 0 5 0;
#X connect 15 0 16 0;
#X connect 17 0 1 0;
#X connect 17 0 15 0;
#X connect 18 0 19 0;
#X connect 19 0 17 1;
#X connect 20 0 8 0;
#X restore 26 67 pd OBWhenEditStateChanged2;
#X symbolatom 224 63 20 0 0 0 - - -;
#X obj 225 2 r loadedprojectname;
#X symbolatom 225 22 10 0 0 0 - - -;
#X obj 225 41 t s b;
#X connect 0 0 7 0;
#X connect 1 0 7 1;
#X connect 2 0 7 2;
#X connect 4 0 6 0;
#X connect 5 0 4 0;
#X connect 6 0 3 0;
#X connect 7 0 5 0;
#X connect 8 0 4 1;
#X connect 9 0 10 0;
#X connect 10 0 11 0;
#X connect 11 0 8 0;
#X restore 199 356 pd OBWriteVelocities;
#N canvas -8 -8 1280 878 OBWriteSequences 0;
#X obj 27 39 inlet;
#X obj 77 41 inlet;
#X obj 127 42 inlet;
#X obj 34 283 outlet;
#X floatatom 34 132 5 0 0 0 - - -;
#N canvas 85 207 672 300 buildsongpprojectPath2 0;
#X obj 100 176 symbol;
#X msg 553 166 .txt;
#X obj 517 165 f;
#X obj 429 192 symbol;
#X obj 553 192 symbol;
#X obj 96 86 f;
#X text 126 86 file ID;
#X obj 97 14 inlet;
#X obj 100 358 outlet;
#X msg 26 105 0;
#X msg 429 166 -obsb-pat-;
#X obj 97 115 t b b b b f b, f 53;
#X obj 306 14 inlet;
#X obj 337 177 symbol;
#X msg 337 151 bang;
#X obj 32 245 pack f s s s f s, f 70;
#X msg 99 151 projects/datafiles-donotdeleteoredit;
#X symbolatom 306 67 40 0 0 0 - - -;
#X obj 148 24 loadbang;
#X msg 178 279 symbol \$2/\$3\$4\$5\$6;
#X symbolatom 179 305 10 0 0 0 - - -;
#X obj 137 330 t s;
#X obj 409 95 t s b;
#X msg 147 45 symbol tmpProject;
#X connect 0 0 15 1;
#X connect 1 0 4 0;
#X connect 2 0 15 4;
#X connect 3 0 15 3;
#X connect 4 0 15 5;
#X connect 5 0 11 0;
#X connect 7 0 5 0;
#X connect 9 0 15 0;
#X connect 10 0 3 0;
#X connect 11 0 9 0;
#X connect 11 1 16 0;
#X connect 11 2 14 0;
#X connect 11 3 10 0;
#X connect 11 4 2 0;
#X connect 11 5 1 0;
#X connect 12 0 17 0;
#X connect 13 0 15 2;
#X connect 14 0 13 0;
#X connect 15 0 19 0;
#X connect 16 0 0 0;
#X connect 17 0 22 0;
#X connect 18 0 23 0;
#X connect 19 0 20 0;
#X connect 20 0 21 0;
#X connect 21 0 8 0;
#X connect 22 0 13 1;
#X connect 22 1 14 0;
#X connect 23 0 17 0;
#X restore 34 159 pd buildsongpprojectPath2;
#X text 111 209 Build the file path. Will look like this tmpdata-osbs-pat-1.txt
through tmpdataosbs-pat-64.txt Depending on the loaded pattern.;
#N canvas 522 227 501 470 OBWhenEditStateChanged 0;
#X floatatom 285 122 5 0 0 0 - - -;
#X msg 93 197 \$2;
#X floatatom 93 219 5 0 0 0 - - -;
#X text 322 88 Loaded pattern number;
#X obj 138 73 change;
#X obj 93 137 spigot 0;
#X obj 138 116 tgl 15 0 empty empty empty 17 7 0 10 -262144 -1 -1 1
1;
#X obj 340 130 tgl 15 0 empty empty empty 17 7 0 10 -262144 -1 -1 1
1;
#X obj 285 149 spigot 0;
#X obj 341 105 r emodestate;
#X obj 138 95 == 1;
#X obj 62 20 inlet;
#X obj 121 18 inlet;
#X obj 180 19 inlet;
#X obj 112 280 outlet;
#X obj 93 173 pack \$1 \$2;
#X connect 0 0 8 0;
#X connect 1 0 2 0;
#X connect 2 0 14 0;
#X connect 4 0 10 0;
#X connect 5 0 15 0;
#X connect 6 0 5 1;
#X connect 7 0 8 1;
#X connect 8 0 15 1;
#X connect 9 0 7 0;
#X connect 10 0 6 0;
#X connect 11 0 4 0;
#X connect 12 0 0 0;
#X connect 13 0 5 0;
#X connect 15 0 1 0;
#X restore 34 106 pd OBWhenEditStateChanged;
#X msg 34 235 write \$1;
#X obj 34 208 t s;
#X symbolatom 34 186 80 0 0 0 - - -;
#X obj 222 81 r loadedprojectname;
#X symbolatom 222 101 10 0 0 0 - - -;
#X obj 222 120 t s;
#X connect 0 0 7 0;
#X connect 1 0 7 1;
#X connect 2 0 7 2;
#X connect 4 0 5 0;
#X connect 5 0 10 0;
#X connect 7 0 4 0;
#X connect 8 0 3 0;
#X connect 9 0 8 0;
#X connect 10 0 9 0;
#X connect 11 0 12 0;
#X connect 12 0 13 0;
#X connect 13 0 5 1;
#X restore 405 380 pd OBWriteSequences;
#X obj 405 343 t f;
#X obj 403 584 text get \$0-sequences 0 32;
#X obj 190 552 text get \$0-velocities 0 32;
#X floatatom 275 474 5 0 0 0 - - -;
#X obj 275 453 t f;
#X obj 255 434 r checkedpadnum;
#X floatatom 509 482 5 0 0 0 - - -;
#X obj 508 462 t f;
#X obj 508 442 r checkedpadnum;
#X floatatom 242 225 5 0 0 0 - - -;
#X obj 242 180 r checkedpadnum;
#X obj 199 293 r emodecheckedvalue;
#X obj 405 318 r emodecheckedvalue;
#X obj 199 318 t f f;
#X floatatom 452 225 5 0 0 0 - - -;
#X obj 451 205 t f;
#X obj 451 185 r checkedpadnum;
#X obj 242 247 t f;
#X obj 454 254 t f;
#X obj 508 505 t f;
#X obj 266 495 t f;
#X obj 242 204 t f;
#X obj 394 12 r projectpatternnum;
#X floatatom 394 53 5 0 64 0 - - -;
#X obj 395 72 t f f;
#X obj 198 71 t f f;
#X obj 188 486 pack f f;
#X obj 186 459 t f;
#X obj 187 507 unpack f f;
#X obj 392 488 pack f f;
#X obj 391 509 unpack f f;
#X connect 0 0 33 0;
#X connect 1 0 34 0;
#X connect 3 0 5 0;
#X connect 4 0 7 0;
#X connect 5 0 6 0;
#X connect 6 0 4 0;
#X connect 7 0 2 0;
#X connect 8 0 111 0;
#X connect 9 0 36 0;
#X connect 9 0 61 0;
#X connect 10 0 115 0;
#X connect 11 0 13 0;
#X connect 12 0 11 0;
#X connect 13 0 14 0;
#X connect 14 0 106 0;
#X connect 16 0 46 0;
#X connect 18 0 56 0;
#X connect 20 0 41 0;
#X connect 21 0 20 0;
#X connect 22 0 41 2;
#X connect 23 0 40 0;
#X connect 24 0 22 0;
#X connect 25 0 27 0;
#X connect 27 0 29 0;
#X connect 29 0 28 0;
#X connect 30 0 25 0;
#X connect 32 0 0 0;
#X connect 32 1 33 1;
#X connect 32 2 1 1;
#X connect 33 0 1 0;
#X connect 33 1 34 1;
#X connect 34 0 31 0;
#X connect 34 1 31 1;
#X connect 38 0 46 1;
#X connect 38 1 18 1;
#X connect 38 2 48 0;
#X connect 39 0 30 0;
#X connect 39 1 41 1;
#X connect 39 1 104 0;
#X connect 41 0 23 0;
#X connect 41 1 23 3;
#X connect 43 0 112 0;
#X connect 44 0 47 0;
#X connect 45 0 73 0;
#X connect 46 0 44 0;
#X connect 46 0 52 0;
#X connect 46 1 44 3;
#X connect 47 0 45 1;
#X connect 49 0 38 0;
#X connect 51 0 45 0;
#X connect 52 0 51 0;
#X connect 53 1 69 0;
#X connect 55 0 60 0;
#X connect 55 1 60 1;
#X connect 55 3 68 0;
#X connect 56 0 58 1;
#X connect 57 0 58 0;
#X connect 58 0 16 0;
#X connect 59 0 16 0;
#X connect 59 0 82 0;
#X connect 61 0 53 0;
#X connect 62 0 63 0;
#X connect 68 0 57 0;
#X connect 69 0 50 0;
#X connect 72 0 71 0;
#X connect 75 0 116 0;
#X connect 76 0 77 0;
#X connect 77 0 103 0;
#X connect 78 0 79 0;
#X connect 79 0 18 0;
#X connect 79 1 49 0;
#X connect 80 0 14 0;
#X connect 81 0 14 0;
#X connect 83 0 84 0;
#X connect 84 0 32 0;
#X connect 85 0 83 0;
#X connect 86 0 69 0;
#X connect 87 0 62 0;
#X connect 88 0 86 0;
#X connect 89 0 87 0;
#X connect 91 0 92 0;
#X connect 91 1 100 2;
#X connect 93 0 94 0;
#X connect 94 0 92 1;
#X connect 95 0 93 0;
#X connect 96 0 100 0;
#X connect 97 0 96 0;
#X connect 98 0 97 0;
#X connect 99 0 100 1;
#X connect 100 0 20 0;
#X connect 101 0 105 0;
#X connect 103 0 21 1;
#X connect 103 1 108 0;
#X connect 103 2 102 0;
#X connect 106 0 67 0;
#X connect 106 1 70 0;
#X connect 106 2 59 0;
#X connect 107 0 21 0;
#X connect 108 0 107 0;
#X connect 109 0 127 0;
#X connect 110 0 118 0;
#X connect 111 0 110 0;
#X connect 112 0 109 0;
#X connect 113 0 114 0;
#X connect 114 0 99 0;
#X connect 115 0 12 0;
#X connect 116 0 159 0;
#X connect 118 0 119 0;
#X connect 119 0 121 0;
#X connect 119 1 135 3;
#X connect 120 0 123 0;
#X connect 121 0 163 0;
#X connect 124 0 122 0;
#X connect 124 1 133 2;
#X connect 125 0 126 0;
#X connect 125 1 136 3;
#X connect 126 0 161 0;
#X connect 127 0 125 0;
#X connect 128 0 129 0;
#X connect 130 0 131 0;
#X connect 130 1 132 2;
#X connect 132 0 127 0;
#X connect 133 0 118 0;
#X connect 134 0 133 0;
#X connect 135 0 120 0;
#X connect 136 0 128 0;
#X connect 137 0 154 0;
#X connect 138 0 137 0;
#X connect 139 0 138 0;
#X connect 140 0 153 0;
#X connect 141 0 140 0;
#X connect 142 0 141 0;
#X connect 143 0 151 0;
#X connect 144 0 155 0;
#X connect 145 0 147 0;
#X connect 146 0 134 0;
#X connect 147 0 132 0;
#X connect 148 0 152 0;
#X connect 149 0 148 0;
#X connect 150 0 149 0;
#X connect 151 0 131 1;
#X connect 152 0 122 1;
#X connect 153 0 163 1;
#X connect 154 0 160 1;
#X connect 155 0 143 0;
#X connect 156 0 157 0;
#X connect 157 0 158 0;
#X connect 158 0 8 0;
#X connect 158 1 133 1;
#X connect 159 0 43 0;
#X connect 159 1 132 1;
#X connect 160 0 162 0;
#X connect 161 0 160 0;
#X connect 162 1 136 0;
#X connect 163 0 164 0;
#X connect 164 1 135 0;
