#N canvas 671 0 517 670 10;
#X obj 1 1 cnv 15 500 50 menuCanvas menuCanvasR empty 20 12 0 14 -33289
-66577 0;
#N canvas -8 -8 1280 686 AdjustSize 0;
#X obj 18 61 f;
#X msg 18 40 bang;
#X floatatom 102 25 5 100 1000 0 - - -;
#X floatatom 142 49 4 50 500 0 - - -;
#X obj 18 84 pack 0 0;
#X text 136 25 width;
#X text 168 50 height;
#X obj 60 -28 loadbang;
#X obj 18 18 t b;
#X obj 18 -2 delay 20;
#X msg 102 -1 500;
#X msg 143 -1 50;
#X obj 101 286 outlet;
#X floatatom 101 173 5 0 0 0 - - -;
#X floatatom 142 168 5 0 0 0 - - -;
#X obj 101 210 pack;
#X obj 143 189 t b f;
#X obj 101 233 t l l;
#X msg 101 259 coords 0 \$2 \$1 0 \$1 \$2 2 0 0;
#X obj 101 145 + 2;
#X obj 142 142 + 2;
#X msg 18 109 \; menuCanvasR vis_size \$1 \$2;
#X connect 0 0 4 0;
#X connect 1 0 0 0;
#X connect 2 0 0 1;
#X connect 2 0 19 0;
#X connect 3 0 4 1;
#X connect 3 0 20 0;
#X connect 4 0 21 0;
#X connect 7 0 10 0;
#X connect 7 0 11 0;
#X connect 7 0 9 0;
#X connect 8 0 1 0;
#X connect 9 0 8 0;
#X connect 10 0 2 0;
#X connect 11 0 3 0;
#X connect 13 0 15 0;
#X connect 14 0 16 0;
#X connect 15 0 17 0;
#X connect 16 0 15 0;
#X connect 16 1 15 1;
#X connect 17 0 18 0;
#X connect 18 0 12 0;
#X connect 19 0 13 0;
#X connect 20 0 14 0;
#X restore 25 118 pd AdjustSize;
#N canvas 0 50 450 300 AdjustPosition 0;
#X obj 92 20 loadbang;
#X obj 119 84 f;
#X msg 97 63 bang;
#X floatatom 135 62 3 20 60 0 - - -;
#X floatatom 170 84 3 150 200 0 - - -;
#X obj 119 107 pack 0 0;
#X text 163 62 x-position;
#X text 197 84 y-position;
#X msg 119 132 \; myCanvasR pos \$1 \$2;
#X msg 179 29 1;
#X msg 222 52 1;
#X connect 0 0 9 0;
#X connect 0 0 10 0;
#X connect 0 0 2 0;
#X connect 1 0 5 0;
#X connect 2 0 1 0;
#X connect 3 0 1 1;
#X connect 4 0 5 1;
#X connect 5 0 8 0;
#X connect 9 0 3 0;
#X connect 10 0 4 0;
#X restore 26 98 pd AdjustPosition;
#X obj 25 73 namecanvas \$0-menu;
#X obj 25 147 s \$0-menu;
#X connect 1 0 4 0;
#X coords 0 52 502 0 502 52 2 0 0;
