#N canvas -4 -4 1280 718 10;
#X obj 100 100 cnv 15 700 20 empty midicntrlsbg-recv empty 20 12 0
14 -195568 -66577 0;
#X obj 583 103 cnv 15 48 10 empty midicntrlsbg-recv Note: 3 6 0 10
-195568 -1 0;
#X obj 175 133 loadbang;
#X obj 476 102 bng 15 250 50 0 empty empty Learn 17 7 0 10 -66577 -1
-1;
#X obj 166 187 tgl 15 0 empty empty empty 17 7 0 10 -262144 -1 -1 0
1;
#X obj 544 102 nbx 3 14 1 127 0 1 empty empty Ch -17 8 0 10 -99865
-191407 -1 1 256;
#X obj 618 102 nbx 3 14 -1e+037 1e+037 0 0 empty empty empty 0 -8 0
10 -128992 -191407 -1 0 256;
#X obj 119 228 spigot 0;
#X obj 669 103 bng 12 250 50 0 empty empty Load 17 7 0 10 -128992 -1
-1;
#X obj 188 229 s miditogglestate;
#X msg 175 155 0;
#X obj 104 104 tgl 12 0 empty empty Enable_Midi_In 17 7 0 10 -99865
-1 -1 0 1;
#X obj 293 102 nbx 3 14 1 127 0 1 empty empty empty -90 8 0 10 -99865
-191407 -1 1 256;
#X obj 334 103 tgl 12 0 empty empty Listen_On_Ch -120 7 0 10 -99865
-1 -1 0 1;
#X obj 452 103 tgl 12 0 empty empty Or_All_Channels -100 7 0 10 -99865
-1 -1 0 1;
#N canvas 0 50 450 300 OBConfirmLearnedMidiSettings 0;
#X obj 88 230 spigot 0;
#X obj 83 191 t f f b;
#X obj 89 111 r padnum;
#X obj 83 154 f;
#X obj 117 145 \$1;
#X msg 134 169 \$1;
#X obj 195 330 s PadBtn \$1;
#X obj 88 332 t b;
#X obj 88 391 s status-recv;
#X msg 198 129 next \$1;
#X msg 197 157 vis 1 64;
#X obj 88 258 delay 3000;
#X msg 196 181 vis 2 64;
#X obj 88 289 delay 10;
#X msg 88 367 label Confirm_pad_for_midi_note_to_finish;
#X obj 148 47 inlet;
#X obj 100 442 outlet;
#X connect 0 0 11 0;
#X connect 1 0 0 0;
#X connect 1 2 0 0;
#X connect 2 0 3 0;
#X connect 2 0 4 0;
#X connect 2 0 9 0;
#X connect 3 0 1 0;
#X connect 4 0 5 0;
#X connect 7 0 14 0;
#X connect 11 0 13 0;
#X connect 13 0 6 0;
#X connect 13 0 7 0;
#X connect 13 0 16 0;
#X connect 14 0 8 0;
#X connect 15 0 0 1;
#X restore 199 187 pd OBConfirmLearnedMidiSettings;
#N canvas -8 -8 1284 686 OBMidiLearnIn 0;
#X obj 206 22 inlet;
#X obj 41 411 outlet;
#X floatatom 39 140 5 0 0 0 - - -;
#X floatatom 74 140 5 0 0 0 - - -;
#X floatatom 119 140 5 0 0 0 - - -;
#X obj 119 171 sel 1;
#X msg 119 199 1;
#X floatatom 146 198 5 0 0 0 - - -;
#X obj 146 224 t b;
#X msg 146 251 0;
#N canvas 582 202 642 535 MidiNoteIn-monophonic 0;
#X obj 128 246 outlet;
#X obj 206 246 outlet;
#X obj 267 246 outlet;
#X obj 128 34 notein;
#X obj 128 105 stripnote;
#X obj 206 179 sel -1;
#X msg 206 206 0;
#X obj 206 61 t b f;
#X obj 206 91 f;
#X obj 206 124 sel 0;
#X obj 206 153 f;
#X connect 3 0 4 0;
#X connect 3 0 7 0;
#X connect 3 1 4 1;
#X connect 3 1 8 1;
#X connect 3 2 2 0;
#X connect 4 0 0 0;
#X connect 4 0 5 1;
#X connect 5 0 6 0;
#X connect 6 0 1 0;
#X connect 7 0 8 0;
#X connect 7 1 10 1;
#X connect 8 0 9 0;
#X connect 9 0 10 0;
#X connect 9 1 1 0;
#X connect 10 0 5 0;
#X restore 25 22 pd MidiNoteIn-monophonic;
#X obj 466 243 spigot 0;
#X obj 528 292 r bank;
#X obj 346 296 r padnum;
#X obj 14 492 s status-recv;
#X obj 16 435 t b;
#X obj 39 266 spigot 0;
#X obj 70 292 spigot 0;
#X obj 39 335 spigot 0;
#X obj 511 176 tgl 15 0 empty empty empty 17 7 0 10 -262144 -1 -1 0
1;
#X text 402 178 Learn Midi Toggle;
#X text 534 176 Are we in learn mode?;
#X obj 511 140 r miditogglestate;
#X obj 589 368 spigot 0;
#X obj 528 324 spigot 0;
#X floatatom 346 322 5 0 0 0 - - -;
#X floatatom 407 390 5 0 0 0 - - -;
#X floatatom 528 351 5 0 0 0 - - -;
#X floatatom 589 400 5 0 0 0 - - -;
#X floatatom 466 278 5 0 0 0 - - -;
#X obj 286 434 pack f f f f f f, f 51;
#X obj 286 714 textfile;
#X msg 440 644 clear;
#X obj 286 567 list;
#X text 434 510 Click to test;
#X msg 286 595 add2 \$1 \$2 \$3 \$4 \$5;
#X msg 286 527 \$1 \$2 \$3 \$4 \$5;
#X msg 286 464 \$2 \$3 \$4 \$5 \$6;
#X msg 440 532 \$1;
#X obj 286 490 t l;
#X obj 286 232 delay 10;
#X msg 286 259 0;
#X text 356 372 Learned Midi Note Number;
#X text 194 216 Input required to create package;
#X text 319 280 Pad Number Played;
#X text 624 398 Velocity;
#X msg 15 466 label Learned_midi_note._Assign_a_Pad;
#N canvas 630 242 450 300 MidiLearnPathFromIDFile 0;
#X obj 17 174 symbol;
#X msg 86 160 padsettings-;
#X msg 204 152 .txt;
#X obj 168 151 f;
#X obj 80 178 symbol;
#X obj 204 178 symbol;
#X obj 73 27 f;
#X text 165 131 file ID;
#X obj 73 2 inlet;
#X obj 98 324 outlet;
#X obj 17 307 print;
#X msg 17 273 \$1/\$2\$3\$4;
#X obj 143 177 \$1;
#X floatatom 241 214 5 0 0 0 - - -;
#X obj 73 48 t b b f b b;
#X obj 17 221 pack f s s f s, f 32;
#X msg 17 105 projects/datafiles-donotdeleteoredit/tmpdata/;
#X obj 195 74 delay 20;
#X obj 282 71 t b;
#X msg 282 155 0;
#X connect 0 0 15 1;
#X connect 1 0 4 0;
#X connect 2 0 5 0;
#X connect 3 0 12 0;
#X connect 3 0 13 0;
#X connect 4 0 15 2;
#X connect 5 0 15 4;
#X connect 6 0 14 0;
#X connect 8 0 6 0;
#X connect 12 0 15 3;
#X connect 14 0 16 0;
#X connect 14 1 1 0;
#X connect 14 2 3 0;
#X connect 14 3 2 0;
#X connect 14 4 17 0;
#X connect 15 0 11 0;
#X connect 15 0 9 0;
#X connect 16 0 0 0;
#X connect 17 0 18 0;
#X connect 18 0 19 0;
#X connect 19 0 15 0;
#X restore 440 566 pd MidiLearnPathFromIDFile;
#X msg 440 609 write \$2\$3\$4\$5 cr;
#X connect 0 0 5 1;
#X connect 2 0 16 0;
#X connect 3 0 17 0;
#X connect 4 0 5 0;
#X connect 4 0 11 0;
#X connect 5 0 6 0;
#X connect 5 1 7 0;
#X connect 6 0 16 1;
#X connect 6 0 17 1;
#X connect 7 0 8 0;
#X connect 8 0 9 0;
#X connect 9 0 16 1;
#X connect 9 0 17 1;
#X connect 10 0 2 0;
#X connect 10 1 3 0;
#X connect 10 2 4 0;
#X connect 11 0 29 0;
#X connect 12 0 24 0;
#X connect 13 0 25 0;
#X connect 15 0 46 0;
#X connect 16 0 18 0;
#X connect 17 0 23 0;
#X connect 18 0 1 0;
#X connect 18 0 15 0;
#X connect 18 0 26 0;
#X connect 18 0 40 0;
#X connect 19 0 18 1;
#X connect 19 0 11 1;
#X connect 19 0 23 1;
#X connect 19 0 24 1;
#X connect 22 0 19 0;
#X connect 23 0 28 0;
#X connect 24 0 27 0;
#X connect 25 0 30 1;
#X connect 26 0 30 2;
#X connect 27 0 30 4;
#X connect 28 0 30 5;
#X connect 29 0 30 3;
#X connect 30 0 37 0;
#X connect 32 0 31 0;
#X connect 33 0 35 0;
#X connect 35 0 31 0;
#X connect 36 0 33 0;
#X connect 37 0 39 0;
#X connect 38 0 47 0;
#X connect 39 0 36 0;
#X connect 39 0 38 0;
#X connect 40 0 41 0;
#X connect 41 0 30 0;
#X connect 46 0 14 0;
#X connect 47 0 48 0;
#X connect 48 0 31 0;
#X connect 48 0 32 0;
#X restore 119 252 pd OBMidiLearnIn;
#N canvas -4 -4 1280 718 OBGetMidiSettings 0;
#X floatatom 194 44 5 0 0 0 - - -;
#X obj 478 23 r $midi-msg1-recv;
#X floatatom 478 48 5 0 0 0 - - -;
#X floatatom 193 117 5 0 0 0 - - -;
#X floatatom 478 119 5 0 0 0 - - -;
#X obj 478 94 r $midi-msg2-recv;
#X floatatom 191 192 5 0 0 0 - - -;
#X floatatom 478 189 5 0 0 0 - - -;
#X obj 478 167 r $midi-msg3-recv;
#X floatatom 191 268 5 0 0 0 - - -;
#X floatatom 477 266 5 0 0 0 - - -;
#X obj 477 239 r $midi-msg4-recv;
#X floatatom 723 411 5 0 0 0 - - -;
#X floatatom 791 434 5 0 0 0 - - -;
#X obj 791 399 r $midi-msg5-recv;
#X floatatom 847 466 5 0 0 0 - - -;
#X floatatom 917 492 5 0 0 0 - - -;
#X obj 915 453 r $midi-msg6-recv;
#X floatatom 974 517 5 0 0 0 - - -;
#X floatatom 1035 541 5 0 0 0 - - -;
#X floatatom 1090 567 5 0 0 0 - - -;
#X floatatom 1158 580 5 0 0 0 - - -;
#X obj 1158 554 r $midi-msg8-recv;
#X floatatom 904 201 5 0 0 0 - - -;
#X floatatom 973 221 5 0 0 0 - - -;
#X floatatom 1031 257 5 0 0 0 - - -;
#X floatatom 1099 280 5 0 0 0 - - -;
#X floatatom 1148 311 5 0 0 0 - - -;
#X floatatom 1216 334 5 0 0 0 - - -;
#X floatatom 1264 362 5 0 0 0 - - -;
#X floatatom 1332 385 5 0 0 0 - - -;
#X floatatom 1384 416 5 0 0 0 - - -;
#X floatatom 1452 439 5 0 0 0 - - -;
#X floatatom 1508 471 5 0 0 0 - - -;
#X floatatom 1576 494 5 0 0 0 - - -;
#X floatatom 1628 523 5 0 0 0 - - -;
#X floatatom 1696 546 5 0 0 0 - - -;
#X floatatom 1751 572 5 0 0 0 - - -;
#X floatatom 1819 595 5 0 0 0 - - -;
#X obj 973 186 r $midi-msg9-recv;
#X obj 1099 245 r $midi-msg10-recv;
#X obj 1216 299 r $midi-msg11-recv;
#X obj 1332 350 r $midi-msg12-recv;
#X obj 1452 404 r $midi-msg13-recv;
#X obj 1576 458 r $midi-msg14-recv;
#X obj 1819 559 r $midi-msg16-recv;
#X obj 194 20 r $midi-note1-recv;
#X obj 193 93 r $midi-note2-recv;
#X obj 192 166 r $midi-note3-recv;
#X obj 189 243 r $midi-note4-recv;
#X obj 723 375 r $midi-note5-recv;
#X obj 846 431 r $midi-note6-recv;
#X obj 967 482 r $midi-note7-recv;
#X obj 1090 530 r $midi-note8-recv;
#X obj 905 162 r $midi-note9-recv;
#X obj 1031 221 r $midi-note10-recv;
#X obj 1148 275 r $midi-note11-recv;
#X obj 1264 325 r $midi-note12-recv;
#X obj 1384 380 r $midi-note13-recv;
#X obj 1508 435 r $midi-note14-recv;
#X obj 1628 487 r $midi-note15-recv;
#X obj 1751 535 r $midi-note16-recv;
#X msg 194 66 add2 \$1;
#X msg 478 72 add2 \$1;
#X msg 193 141 add2 \$1;
#X msg 478 144 add2 \$1;
#X msg 191 217 add2 \$1;
#X msg 478 211 add2 \$1;
#X msg 191 293 add2 \$1;
#X msg 477 294 add2 \$1;
#X msg 719 437 add2 \$1;
#X msg 781 462 add2 \$1;
#X msg 845 491 add2 \$1;
#X msg 909 516 add2 \$1;
#X msg 963 546 add2 \$1;
#X msg 1027 569 add2 \$1;
#X msg 1090 599 add2 \$1;
#X msg 1158 614 add2 \$1;
#X msg 882 251 add2 \$1;
#X msg 977 281 add2 \$1;
#X msg 1058 331 add2 \$1;
#X msg 1117 357 add2 \$1;
#X msg 1176 394 add2 \$1;
#X msg 1247 406 add2 \$1;
#X msg 1300 436 add2 \$1;
#X msg 1367 453 add2 \$1;
#X msg 1419 484 add2 \$1;
#X msg 1487 502 add2 \$1;
#X msg 1545 538 add2 \$1;
#X msg 1612 551 add2 \$1;
#X msg 1663 593 add2 \$1;
#X msg 1732 606 add2 \$1;
#X msg 1790 646 add2 \$1;
#X msg 1876 656 add2 \$1;
#X obj 1696 510 r $midi-msg15-recv;
#X floatatom 1513 77 5 0 0 0 - - -;
#X floatatom 1581 100 5 0 0 0 - - -;
#X floatatom 1640 133 5 0 0 0 - - -;
#X floatatom 1708 156 5 0 0 0 - - -;
#X floatatom 1757 187 5 0 0 0 - - -;
#X floatatom 1825 210 5 0 0 0 - - -;
#X floatatom 1873 238 5 0 0 0 - - -;
#X floatatom 1941 261 5 0 0 0 - - -;
#X floatatom 1993 292 5 0 0 0 - - -;
#X floatatom 2061 315 5 0 0 0 - - -;
#X floatatom 2117 347 5 0 0 0 - - -;
#X floatatom 2187 373 5 0 0 0 - - -;
#X floatatom 2244 398 5 0 0 0 - - -;
#X floatatom 2305 422 5 0 0 0 - - -;
#X floatatom 2360 448 5 0 0 0 - - -;
#X floatatom 2428 461 5 0 0 0 - - -;
#X floatatom 2174 82 5 0 0 0 - - -;
#X floatatom 2242 105 5 0 0 0 - - -;
#X floatatom 2301 138 5 0 0 0 - - -;
#X floatatom 2369 161 5 0 0 0 - - -;
#X floatatom 2418 192 5 0 0 0 - - -;
#X floatatom 2486 215 5 0 0 0 - - -;
#X floatatom 2534 243 5 0 0 0 - - -;
#X floatatom 2602 266 5 0 0 0 - - -;
#X floatatom 2654 297 5 0 0 0 - - -;
#X floatatom 2722 320 5 0 0 0 - - -;
#X floatatom 2778 352 5 0 0 0 - - -;
#X floatatom 2846 375 5 0 0 0 - - -;
#X floatatom 2898 404 5 0 0 0 - - -;
#X floatatom 2966 427 5 0 0 0 - - -;
#X floatatom 3021 453 5 0 0 0 - - -;
#X floatatom 3089 476 5 0 0 0 - - -;
#X msg 1464 142 add2 \$1;
#X msg 1563 156 add2 \$1;
#X msg 1626 177 add2 \$1;
#X msg 1687 213 add2 \$1;
#X msg 1744 240 add2 \$1;
#X msg 1811 267 add2 \$1;
#X msg 1868 282 add2 \$1;
#X msg 1929 307 add2 \$1;
#X msg 1987 330 add2 \$1;
#X msg 2050 361 add2 \$1;
#X msg 2113 384 add2 \$1;
#X msg 2178 415 add2 \$1;
#X msg 2231 439 add2 \$1;
#X msg 2296 468 add2 \$1;
#X msg 2358 492 add2 \$1;
#X msg 2435 522 add2 \$1;
#X msg 2150 144 add2 \$1;
#X msg 2246 180 add2 \$1;
#X msg 2326 224 add2 \$1;
#X msg 2386 256 add2 \$1;
#X msg 2444 287 add2 \$1;
#X msg 2516 305 add2 \$1;
#X msg 2568 329 add2 \$1;
#X msg 2636 352 add2 \$1;
#X msg 2687 377 add2 \$1;
#X msg 2756 401 add2 \$1;
#X msg 2813 431 add2 \$1;
#X msg 2881 450 add2 \$1;
#X msg 2931 486 add2 \$1;
#X msg 3001 505 add2 \$1;
#X msg 3058 539 add2 \$1;
#X msg 3145 555 add2 \$1;
#X obj 1513 41 r $midi-note17-recv;
#X obj 1581 65 r $midi-msg17-recv;
#X obj 1640 97 r $midi-note18-recv;
#X obj 1708 121 r $midi-msg18-recv;
#X obj 1757 151 r $midi-note19-recv;
#X obj 1825 175 r $midi-msg19-recv;
#X obj 1873 202 r $midi-note20-recv;
#X obj 1941 226 r $midi-msg20-recv;
#X obj 1993 256 r $midi-note21-recv;
#X obj 2061 279 r $midi-msg21-recv;
#X obj 2116 312 r $midi-note22-recv;
#X obj 2185 334 r $midi-msg22-recv;
#X obj 2237 363 r $midi-note23-recv;
#X obj 2305 386 r $midi-msg23-recv;
#X obj 1035 505 r $midi-msg7-recv;
#X obj 2360 411 r $midi-note24-recv;
#X obj 2428 435 r $midi-msg24-recv;
#X obj 2174 46 r $midi-note25-recv;
#X obj 2242 70 r $midi-msg25-recv;
#X obj 2301 102 r $midi-note26-recv;
#X obj 2369 126 r $midi-msg26-recv;
#X obj 2418 156 r $midi-note27-recv;
#X obj 2486 180 r $midi-msg27-recv;
#X obj 2534 206 r $midi-note28-recv;
#X obj 2602 231 r $midi-msg28-recv;
#X obj 2654 261 r $midi-note29-recv;
#X obj 2722 286 r $midi-msg29-recv;
#X obj 2778 317 r $midi-note30-recv;
#X obj 2846 339 r $midi-msg30-recv;
#X obj 2897 368 r $midi-note31-recv;
#X obj 2966 391 r $midi-msg31-recv;
#X obj 3021 416 r $midi-note32-recv;
#X obj 3089 440 r $midi-msg32-recv;
#X floatatom 3086 216 5 0 0 0 - - -;
#X floatatom 3154 239 5 0 0 0 - - -;
#X floatatom 3213 272 5 0 0 0 - - -;
#X floatatom 3281 295 5 0 0 0 - - -;
#X floatatom 3330 326 5 0 0 0 - - -;
#X floatatom 3398 349 5 0 0 0 - - -;
#X floatatom 3446 377 5 0 0 0 - - -;
#X floatatom 3514 400 5 0 0 0 - - -;
#X floatatom 3566 431 5 0 0 0 - - -;
#X floatatom 3634 454 5 0 0 0 - - -;
#X floatatom 3690 486 5 0 0 0 - - -;
#X floatatom 3760 512 5 0 0 0 - - -;
#X floatatom 3817 537 5 0 0 0 - - -;
#X floatatom 3878 561 5 0 0 0 - - -;
#X floatatom 3933 587 5 0 0 0 - - -;
#X floatatom 4001 600 5 0 0 0 - - -;
#X floatatom 3747 221 5 0 0 0 - - -;
#X floatatom 3815 244 5 0 0 0 - - -;
#X floatatom 3874 277 5 0 0 0 - - -;
#X floatatom 3942 300 5 0 0 0 - - -;
#X floatatom 3991 331 5 0 0 0 - - -;
#X floatatom 4059 354 5 0 0 0 - - -;
#X floatatom 4107 382 5 0 0 0 - - -;
#X floatatom 4175 405 5 0 0 0 - - -;
#X floatatom 4227 436 5 0 0 0 - - -;
#X floatatom 4295 459 5 0 0 0 - - -;
#X floatatom 4351 491 5 0 0 0 - - -;
#X floatatom 4419 514 5 0 0 0 - - -;
#X floatatom 4471 543 5 0 0 0 - - -;
#X floatatom 4539 566 5 0 0 0 - - -;
#X floatatom 4594 592 5 0 0 0 - - -;
#X floatatom 4662 615 5 0 0 0 - - -;
#X msg 3039 282 add2 \$1;
#X msg 3133 294 add2 \$1;
#X msg 3201 317 add2 \$1;
#X msg 3257 351 add2 \$1;
#X msg 3319 380 add2 \$1;
#X msg 3381 405 add2 \$1;
#X msg 3443 422 add2 \$1;
#X msg 3499 445 add2 \$1;
#X msg 3562 470 add2 \$1;
#X msg 3620 499 add2 \$1;
#X msg 3688 524 add2 \$1;
#X msg 3748 553 add2 \$1;
#X msg 3806 579 add2 \$1;
#X msg 3866 606 add2 \$1;
#X msg 3933 632 add2 \$1;
#X msg 4005 660 add2 \$1;
#X msg 3725 284 add2 \$1;
#X msg 3816 318 add2 \$1;
#X msg 3901 364 add2 \$1;
#X msg 3956 394 add2 \$1;
#X msg 4019 427 add2 \$1;
#X msg 4086 443 add2 \$1;
#X msg 4143 469 add2 \$1;
#X msg 4206 490 add2 \$1;
#X msg 4262 517 add2 \$1;
#X msg 4326 539 add2 \$1;
#X msg 4388 571 add2 \$1;
#X msg 4451 588 add2 \$1;
#X msg 4506 626 add2 \$1;
#X msg 4571 643 add2 \$1;
#X msg 4633 679 add2 \$1;
#X msg 4715 693 add2 \$1;
#X floatatom 4356 97 5 0 0 0 - - -;
#X floatatom 4424 120 5 0 0 0 - - -;
#X floatatom 4483 153 5 0 0 0 - - -;
#X floatatom 4551 176 5 0 0 0 - - -;
#X floatatom 4600 207 5 0 0 0 - - -;
#X floatatom 4668 230 5 0 0 0 - - -;
#X floatatom 4716 258 5 0 0 0 - - -;
#X floatatom 4784 281 5 0 0 0 - - -;
#X floatatom 4836 312 5 0 0 0 - - -;
#X floatatom 4904 335 5 0 0 0 - - -;
#X floatatom 4960 367 5 0 0 0 - - -;
#X floatatom 5030 393 5 0 0 0 - - -;
#X floatatom 5087 418 5 0 0 0 - - -;
#X floatatom 5148 442 5 0 0 0 - - -;
#X floatatom 5203 468 5 0 0 0 - - -;
#X floatatom 5271 481 5 0 0 0 - - -;
#X floatatom 5017 102 5 0 0 0 - - -;
#X floatatom 5085 125 5 0 0 0 - - -;
#X floatatom 5144 158 5 0 0 0 - - -;
#X floatatom 5212 181 5 0 0 0 - - -;
#X floatatom 5261 212 5 0 0 0 - - -;
#X floatatom 5329 235 5 0 0 0 - - -;
#X floatatom 5377 263 5 0 0 0 - - -;
#X floatatom 5445 286 5 0 0 0 - - -;
#X floatatom 5497 317 5 0 0 0 - - -;
#X floatatom 5565 340 5 0 0 0 - - -;
#X floatatom 5621 372 5 0 0 0 - - -;
#X floatatom 5689 395 5 0 0 0 - - -;
#X floatatom 5741 424 5 0 0 0 - - -;
#X floatatom 5809 447 5 0 0 0 - - -;
#X floatatom 5864 473 5 0 0 0 - - -;
#X floatatom 5932 496 5 0 0 0 - - -;
#X msg 4307 175 add2 \$1;
#X msg 4402 193 add2 \$1;
#X msg 4469 210 add2 \$1;
#X msg 4526 250 add2 \$1;
#X msg 4587 273 add2 \$1;
#X msg 4650 304 add2 \$1;
#X msg 4711 315 add2 \$1;
#X msg 4768 344 add2 \$1;
#X msg 4830 363 add2 \$1;
#X msg 4889 398 add2 \$1;
#X msg 4956 417 add2 \$1;
#X msg 5017 452 add2 \$1;
#X msg 5074 472 add2 \$1;
#X msg 5135 505 add2 \$1;
#X msg 5201 525 add2 \$1;
#X msg 5274 559 add2 \$1;
#X msg 4993 177 add2 \$1;
#X msg 5085 217 add2 \$1;
#X msg 5169 257 add2 \$1;
#X msg 5225 293 add2 \$1;
#X msg 5287 320 add2 \$1;
#X msg 5355 342 add2 \$1;
#X msg 5411 362 add2 \$1;
#X msg 5475 389 add2 \$1;
#X msg 5530 410 add2 \$1;
#X msg 5595 438 add2 \$1;
#X msg 5656 464 add2 \$1;
#X msg 5720 487 add2 \$1;
#X msg 5774 519 add2 \$1;
#X msg 5840 542 add2 \$1;
#X msg 5901 572 add2 \$1;
#X msg 5984 592 add2 \$1;
#X obj 3086 180 r $midi-note33-recv;
#X obj 3154 204 r $midi-msg33-recv;
#X obj 3213 236 r $midi-note34-recv;
#X obj 3281 260 r $midi-msg34-recv;
#X obj 3330 290 r $midi-note35-recv;
#X obj 3398 314 r $midi-msg35-recv;
#X obj 3446 341 r $midi-note36-recv;
#X obj 3512 365 r $midi-msg36-recv;
#X obj 3566 395 r $midi-note37-recv;
#X obj 3633 421 r $midi-msg37-recv;
#X obj 3689 451 r $midi-note38-recv;
#X obj 3758 473 r $midi-msg38-recv;
#X obj 3810 502 r $midi-note39-recv;
#X obj 3881 525 r $midi-msg39-recv;
#X obj 3934 551 r $midi-note40-recv;
#X obj 4001 574 r $midi-msg40-recv;
#X obj 3747 185 r $midi-note41-recv;
#X obj 3814 208 r $midi-msg41-recv;
#X obj 3874 241 r $midi-note42-recv;
#X obj 3942 265 r $midi-msg42-recv;
#X obj 3991 295 r $midi-note43-recv;
#X obj 4059 319 r $midi-msg43-recv;
#X obj 4107 345 r $midi-note44-recv;
#X obj 4175 370 r $midi-msg44-recv;
#X obj 4227 400 r $midi-note45-recv;
#X obj 4295 424 r $midi-msg45-recv;
#X obj 4351 454 r $midi-note46-recv;
#X obj 4418 478 r $midi-msg46-recv;
#X obj 4471 507 r $midi-note47-recv;
#X obj 4539 530 r $midi-msg47-recv;
#X obj 4594 555 r $midi-note48-recv;
#X obj 4662 578 r $midi-msg48-recv;
#X obj 4356 61 r $midi-note49-recv;
#X obj 4424 85 r $midi-msg49-recv;
#X obj 4483 116 r $midi-note50-recv;
#X obj 4549 145 r $midi-msg50-recv;
#X obj 4600 171 r $midi-note51-recv;
#X obj 4716 222 r $midi-note52-recv;
#X obj 4662 195 r $midi-msg51-recv;
#X obj 4784 246 r $midi-msg52-recv;
#X obj 4836 276 r $midi-note53-recv;
#X obj 4904 298 r $midi-msg53-recv;
#X obj 4959 332 r $midi-note54-recv;
#X obj 5028 354 r $midi-msg54-recv;
#X obj 5080 383 r $midi-note55-recv;
#X obj 5148 406 r $midi-msg55-recv;
#X obj 5203 431 r $midi-note56-recv;
#X obj 5271 455 r $midi-msg56-recv;
#X obj 5017 66 r $midi-note57-recv;
#X obj 5085 90 r $midi-msg57-recv;
#X obj 5144 122 r $midi-note58-recv;
#X obj 5212 146 r $midi-msg58-recv;
#X obj 5261 176 r $midi-note59-recv;
#X obj 5329 200 r $midi-msg59-recv;
#X obj 5377 226 r $midi-note60-recv;
#X obj 5445 251 r $midi-msg60-recv;
#X obj 5497 281 r $midi-note61-recv;
#X obj 5565 306 r $midi-msg61-recv;
#X obj 5621 337 r $midi-note62-recv;
#X obj 5689 359 r $midi-msg62-recv;
#X obj 5740 388 r $midi-note63-recv;
#X obj 5809 411 r $midi-msg63-recv;
#X obj 5864 436 r $midi-note64-recv;
#X obj 5932 460 r $midi-msg64-recv;
#X obj 19 231 outlet;
#X obj 384 776 outlet;
#X obj 88 680 pack 126 f f, f 17;
#X msg 84 600 0;
#X obj 346 136 t b;
#X msg 86 743 add2 \$2;
#X msg 163 744 add2 \$3;
#X msg 87 808 99 38 37 99 99 38 37 99 99 38 37 99 99 38 37 99 99 38
84 99 99 38 84 99 99 38 84 99 99 38 84 99 99 38 84 99 99 38 84 99 99
84 99 99 98 84 99 99 98 84 99 99 98 84 99 99 98 84 99 99 98 84 99 99
0 26 24 23 21 26 24 23 0 26 24 23 21 26 24 23 0 26 24 23 21 26 24 23
0 26 24 23 21 26 24 23 0 26 24 23 21 26 24 23 0 26 24 23 21 26 24 23
0 26 24 23 21 26 24 23 0 26 24 23 21 26 24 23 0 26 24 23 21 26 24 23
0 26 24 23 21 26 24 23 0 26 24 23 21 26 24 23;
#X msg 173 813 63 1 64 64 63 1 64 64 63 1 64 64 63 1 64 64 63 1 64
64 63 1 64 64 63 1 64 64 63 1 64 64 63 1 64 64 63 1 64 64 63 1 64 64
63 64 63 63 62 64 63 63 62 64 63 63 62 64 63 63 62 64 63 63 0 0 0 0
0 3 2 2 0 0 0 0 0 3 2 2 0 0 0 0 0 3 2 2 0 0 0 0 0 3 2 2 0 0 0 0 0 3
2 2 0 0 0 0 0 3 2 2 0 0 0 0 0 3 2 2 0 0 0 0 0 3 2 2 0 0 0 0 0 3 2 2
0 0 0 0 0 3 2 2 0 0 0 0 0 3 2 2;
#X connect 0 0 62 0;
#X connect 0 0 386 1;
#X connect 1 0 2 0;
#X connect 2 0 63 0;
#X connect 2 0 388 0;
#X connect 2 0 386 2;
#X connect 3 0 64 0;
#X connect 3 0 386 1;
#X connect 4 0 65 0;
#X connect 4 0 386 2;
#X connect 4 0 388 0;
#X connect 5 0 4 0;
#X connect 6 0 66 0;
#X connect 6 0 386 1;
#X connect 7 0 67 0;
#X connect 7 0 386 2;
#X connect 7 0 388 0;
#X connect 8 0 7 0;
#X connect 9 0 68 0;
#X connect 9 0 386 1;
#X connect 10 0 69 0;
#X connect 10 0 388 0;
#X connect 10 0 386 2;
#X connect 11 0 10 0;
#X connect 12 0 70 0;
#X connect 13 0 71 0;
#X connect 14 0 13 0;
#X connect 15 0 72 0;
#X connect 16 0 73 0;
#X connect 17 0 16 0;
#X connect 18 0 74 0;
#X connect 19 0 75 0;
#X connect 20 0 76 0;
#X connect 21 0 77 0;
#X connect 22 0 21 0;
#X connect 23 0 78 0;
#X connect 24 0 79 0;
#X connect 25 0 80 0;
#X connect 26 0 81 0;
#X connect 27 0 82 0;
#X connect 28 0 83 0;
#X connect 29 0 84 0;
#X connect 30 0 85 0;
#X connect 31 0 86 0;
#X connect 32 0 87 0;
#X connect 33 0 88 0;
#X connect 34 0 89 0;
#X connect 35 0 90 0;
#X connect 36 0 91 0;
#X connect 37 0 92 0;
#X connect 38 0 93 0;
#X connect 39 0 24 0;
#X connect 40 0 26 0;
#X connect 41 0 28 0;
#X connect 42 0 30 0;
#X connect 43 0 32 0;
#X connect 44 0 34 0;
#X connect 45 0 38 0;
#X connect 46 0 0 0;
#X connect 47 0 3 0;
#X connect 48 0 6 0;
#X connect 49 0 9 0;
#X connect 50 0 12 0;
#X connect 51 0 15 0;
#X connect 52 0 18 0;
#X connect 53 0 20 0;
#X connect 54 0 23 0;
#X connect 55 0 25 0;
#X connect 56 0 27 0;
#X connect 57 0 29 0;
#X connect 58 0 31 0;
#X connect 59 0 33 0;
#X connect 60 0 35 0;
#X connect 61 0 37 0;
#X connect 62 0 384 0;
#X connect 63 0 385 0;
#X connect 64 0 384 0;
#X connect 65 0 385 0;
#X connect 66 0 384 0;
#X connect 67 0 385 0;
#X connect 68 0 384 0;
#X connect 69 0 385 0;
#X connect 70 0 384 0;
#X connect 71 0 385 0;
#X connect 72 0 384 0;
#X connect 73 0 385 0;
#X connect 74 0 384 0;
#X connect 75 0 385 0;
#X connect 76 0 384 0;
#X connect 77 0 385 0;
#X connect 78 0 384 0;
#X connect 79 0 385 0;
#X connect 80 0 384 0;
#X connect 81 0 385 0;
#X connect 82 0 384 0;
#X connect 83 0 385 0;
#X connect 84 0 384 0;
#X connect 85 0 385 0;
#X connect 86 0 384 0;
#X connect 87 0 385 0;
#X connect 88 0 384 0;
#X connect 89 0 385 0;
#X connect 90 0 384 0;
#X connect 91 0 385 0;
#X connect 92 0 384 0;
#X connect 93 0 385 0;
#X connect 94 0 36 0;
#X connect 95 0 127 0;
#X connect 96 0 128 0;
#X connect 97 0 129 0;
#X connect 98 0 130 0;
#X connect 99 0 131 0;
#X connect 100 0 132 0;
#X connect 101 0 133 0;
#X connect 102 0 134 0;
#X connect 103 0 135 0;
#X connect 104 0 136 0;
#X connect 105 0 137 0;
#X connect 106 0 138 0;
#X connect 107 0 139 0;
#X connect 108 0 140 0;
#X connect 109 0 141 0;
#X connect 110 0 142 0;
#X connect 111 0 143 0;
#X connect 112 0 144 0;
#X connect 113 0 145 0;
#X connect 114 0 146 0;
#X connect 115 0 147 0;
#X connect 116 0 148 0;
#X connect 117 0 149 0;
#X connect 118 0 150 0;
#X connect 119 0 151 0;
#X connect 120 0 152 0;
#X connect 121 0 153 0;
#X connect 122 0 154 0;
#X connect 123 0 155 0;
#X connect 124 0 156 0;
#X connect 125 0 157 0;
#X connect 126 0 158 0;
#X connect 127 0 384 0;
#X connect 128 0 385 0;
#X connect 129 0 384 0;
#X connect 130 0 385 0;
#X connect 131 0 384 0;
#X connect 132 0 385 0;
#X connect 133 0 384 0;
#X connect 134 0 385 0;
#X connect 135 0 384 0;
#X connect 136 0 385 0;
#X connect 137 0 384 0;
#X connect 138 0 385 0;
#X connect 139 0 384 0;
#X connect 140 0 385 0;
#X connect 141 0 384 0;
#X connect 142 0 385 0;
#X connect 143 0 384 0;
#X connect 144 0 385 0;
#X connect 145 0 384 0;
#X connect 146 0 385 0;
#X connect 147 0 384 0;
#X connect 148 0 385 0;
#X connect 149 0 384 0;
#X connect 150 0 385 0;
#X connect 151 0 384 0;
#X connect 152 0 385 0;
#X connect 153 0 384 0;
#X connect 154 0 385 0;
#X connect 155 0 384 0;
#X connect 156 0 385 0;
#X connect 157 0 384 0;
#X connect 158 0 385 0;
#X connect 159 0 95 0;
#X connect 160 0 96 0;
#X connect 161 0 97 0;
#X connect 162 0 98 0;
#X connect 163 0 99 0;
#X connect 164 0 100 0;
#X connect 165 0 101 0;
#X connect 166 0 102 0;
#X connect 167 0 103 0;
#X connect 168 0 104 0;
#X connect 169 0 105 0;
#X connect 170 0 106 0;
#X connect 171 0 107 0;
#X connect 172 0 108 0;
#X connect 173 0 19 0;
#X connect 174 0 109 0;
#X connect 175 0 110 0;
#X connect 176 0 111 0;
#X connect 177 0 112 0;
#X connect 178 0 113 0;
#X connect 179 0 114 0;
#X connect 180 0 115 0;
#X connect 181 0 116 0;
#X connect 182 0 117 0;
#X connect 183 0 118 0;
#X connect 184 0 119 0;
#X connect 185 0 120 0;
#X connect 186 0 121 0;
#X connect 187 0 122 0;
#X connect 188 0 123 0;
#X connect 189 0 124 0;
#X connect 190 0 125 0;
#X connect 191 0 126 0;
#X connect 192 0 224 0;
#X connect 193 0 225 0;
#X connect 194 0 226 0;
#X connect 195 0 227 0;
#X connect 196 0 228 0;
#X connect 197 0 229 0;
#X connect 198 0 230 0;
#X connect 199 0 231 0;
#X connect 200 0 232 0;
#X connect 201 0 233 0;
#X connect 202 0 234 0;
#X connect 203 0 235 0;
#X connect 204 0 236 0;
#X connect 205 0 237 0;
#X connect 206 0 238 0;
#X connect 207 0 239 0;
#X connect 208 0 240 0;
#X connect 209 0 241 0;
#X connect 210 0 242 0;
#X connect 211 0 243 0;
#X connect 212 0 244 0;
#X connect 213 0 245 0;
#X connect 214 0 246 0;
#X connect 215 0 247 0;
#X connect 216 0 248 0;
#X connect 217 0 249 0;
#X connect 218 0 250 0;
#X connect 219 0 251 0;
#X connect 220 0 252 0;
#X connect 221 0 253 0;
#X connect 222 0 254 0;
#X connect 223 0 255 0;
#X connect 224 0 384 0;
#X connect 225 0 385 0;
#X connect 226 0 384 0;
#X connect 227 0 385 0;
#X connect 228 0 384 0;
#X connect 229 0 385 0;
#X connect 230 0 384 0;
#X connect 231 0 385 0;
#X connect 232 0 384 0;
#X connect 233 0 385 0;
#X connect 234 0 384 0;
#X connect 235 0 385 0;
#X connect 236 0 384 0;
#X connect 237 0 385 0;
#X connect 238 0 384 0;
#X connect 239 0 385 0;
#X connect 240 0 384 0;
#X connect 241 0 385 0;
#X connect 242 0 384 0;
#X connect 243 0 385 0;
#X connect 244 0 384 0;
#X connect 245 0 385 0;
#X connect 246 0 384 0;
#X connect 247 0 385 0;
#X connect 248 0 384 0;
#X connect 249 0 385 0;
#X connect 250 0 384 0;
#X connect 251 0 385 0;
#X connect 252 0 384 0;
#X connect 253 0 385 0;
#X connect 254 0 384 0;
#X connect 255 0 385 0;
#X connect 256 0 288 0;
#X connect 257 0 289 0;
#X connect 258 0 290 0;
#X connect 259 0 291 0;
#X connect 260 0 292 0;
#X connect 261 0 293 0;
#X connect 262 0 294 0;
#X connect 263 0 295 0;
#X connect 264 0 296 0;
#X connect 265 0 297 0;
#X connect 266 0 298 0;
#X connect 267 0 299 0;
#X connect 268 0 300 0;
#X connect 269 0 301 0;
#X connect 270 0 302 0;
#X connect 271 0 303 0;
#X connect 272 0 304 0;
#X connect 273 0 305 0;
#X connect 274 0 306 0;
#X connect 275 0 307 0;
#X connect 276 0 308 0;
#X connect 277 0 309 0;
#X connect 278 0 310 0;
#X connect 279 0 311 0;
#X connect 280 0 312 0;
#X connect 281 0 313 0;
#X connect 282 0 314 0;
#X connect 283 0 315 0;
#X connect 284 0 316 0;
#X connect 285 0 317 0;
#X connect 286 0 318 0;
#X connect 287 0 319 0;
#X connect 288 0 384 0;
#X connect 289 0 385 0;
#X connect 290 0 384 0;
#X connect 291 0 385 0;
#X connect 292 0 384 0;
#X connect 293 0 385 0;
#X connect 294 0 384 0;
#X connect 295 0 385 0;
#X connect 296 0 384 0;
#X connect 297 0 385 0;
#X connect 298 0 384 0;
#X connect 299 0 385 0;
#X connect 300 0 384 0;
#X connect 301 0 385 0;
#X connect 302 0 384 0;
#X connect 303 0 385 0;
#X connect 304 0 384 0;
#X connect 305 0 385 0;
#X connect 306 0 384 0;
#X connect 307 0 385 0;
#X connect 308 0 384 0;
#X connect 309 0 385 0;
#X connect 310 0 384 0;
#X connect 311 0 385 0;
#X connect 312 0 384 0;
#X connect 313 0 385 0;
#X connect 314 0 384 0;
#X connect 315 0 385 0;
#X connect 316 0 384 0;
#X connect 317 0 385 0;
#X connect 318 0 384 0;
#X connect 319 0 385 0;
#X connect 320 0 192 0;
#X connect 321 0 193 0;
#X connect 322 0 194 0;
#X connect 323 0 195 0;
#X connect 324 0 196 0;
#X connect 325 0 197 0;
#X connect 326 0 198 0;
#X connect 327 0 199 0;
#X connect 328 0 200 0;
#X connect 329 0 201 0;
#X connect 330 0 202 0;
#X connect 331 0 203 0;
#X connect 332 0 204 0;
#X connect 333 0 205 0;
#X connect 334 0 206 0;
#X connect 335 0 207 0;
#X connect 336 0 208 0;
#X connect 337 0 209 0;
#X connect 338 0 210 0;
#X connect 339 0 211 0;
#X connect 340 0 212 0;
#X connect 341 0 213 0;
#X connect 342 0 214 0;
#X connect 343 0 215 0;
#X connect 344 0 216 0;
#X connect 345 0 217 0;
#X connect 346 0 218 0;
#X connect 347 0 219 0;
#X connect 348 0 220 0;
#X connect 349 0 221 0;
#X connect 350 0 222 0;
#X connect 351 0 223 0;
#X connect 352 0 256 0;
#X connect 353 0 257 0;
#X connect 354 0 258 0;
#X connect 355 0 259 0;
#X connect 356 0 260 0;
#X connect 357 0 262 0;
#X connect 358 0 261 0;
#X connect 359 0 263 0;
#X connect 360 0 264 0;
#X connect 361 0 265 0;
#X connect 362 0 266 0;
#X connect 363 0 267 0;
#X connect 364 0 268 0;
#X connect 365 0 269 0;
#X connect 366 0 270 0;
#X connect 367 0 271 0;
#X connect 368 0 272 0;
#X connect 369 0 273 0;
#X connect 370 0 274 0;
#X connect 371 0 275 0;
#X connect 372 0 276 0;
#X connect 373 0 277 0;
#X connect 374 0 278 0;
#X connect 375 0 279 0;
#X connect 376 0 280 0;
#X connect 377 0 281 0;
#X connect 378 0 282 0;
#X connect 379 0 283 0;
#X connect 380 0 284 0;
#X connect 381 0 285 0;
#X connect 382 0 286 0;
#X connect 383 0 287 0;
#X connect 386 0 389 0;
#X connect 386 0 390 0;
#X connect 387 0 386 0;
#X connect 388 0 387 0;
#X connect 389 0 391 0;
#X connect 390 0 392 0;
#X restore 606 200 pd OBGetMidiSettings;
#N canvas -8 0 1277 765 OBMidiListen 0;
#X obj 206 22 inlet;
#X obj 51 444 outlet;
#X floatatom 56 119 5 0 0 2 Note - -;
#X floatatom 103 121 5 0 0 2 Velocity - -;
#X floatatom 157 122 5 0 0 2 Channel - -;
#X obj 157 214 sel 1;
#X msg 157 237 1;
#X floatatom 189 238 5 0 0 0 - - -;
#X obj 189 258 t b;
#X msg 189 279 0;
#X obj 55 311 spigot 1;
#X obj 115 336 spigot 1;
#X obj 232 78 bendin;
#X floatatom 285 132 5 0 0 2 Channel - -;
#X floatatom 232 151 5 0 0 2 Value - -;
#X obj 285 171 sel 1;
#X msg 285 194 1;
#X floatatom 317 195 5 0 0 0 - - -;
#X obj 317 215 t b;
#X msg 317 236 0;
#X obj 232 295 spigot 1;
#X floatatom 415 126 5 0 0 2 Channel - -;
#X floatatom 362 145 5 0 0 2 Value - -;
#X obj 415 165 sel 1;
#X msg 415 188 1;
#X floatatom 447 189 5 0 0 0 - - -;
#X obj 447 209 t b;
#X msg 447 230 0;
#X obj 362 289 spigot 1;
#X obj 362 72 ctlin 1;
#N canvas 327 159 450 376 notein_monophonic 0;
#X obj 46 278 outlet;
#X obj 214 268 outlet;
#X obj 46 28 notein;
#X obj 46 118 stripnote;
#X obj 214 80 t b f;
#X obj 214 120 f;
#X obj 214 147 sel 0;
#X obj 214 175 f;
#X msg 214 237 0;
#X obj 276 268 outlet;
#X obj 214 203 sel -1;
#X connect 2 0 3 0;
#X connect 2 0 4 0;
#X connect 2 1 3 1;
#X connect 2 1 5 1;
#X connect 2 2 9 0;
#X connect 3 0 0 0;
#X connect 3 0 10 1;
#X connect 4 0 5 0;
#X connect 4 1 7 1;
#X connect 5 0 6 0;
#X connect 6 0 7 0;
#X connect 6 1 1 0;
#X connect 7 0 10 0;
#X connect 8 0 1 0;
#X connect 10 0 8 0;
#X restore 56 78 pd notein_monophonic;
#X floatatom 578 123 5 0 0 2 Channel - -;
#X floatatom 525 142 5 0 0 2 Value - -;
#X obj 578 162 sel 1;
#X msg 578 185 1;
#X floatatom 610 186 5 0 0 0 - - -;
#X obj 610 206 t b;
#X msg 610 227 0;
#X obj 525 286 spigot 1;
#X floatatom 724 123 5 0 0 2 Channel - -;
#X floatatom 671 142 5 0 0 2 Value - -;
#X obj 724 162 sel 1;
#X msg 724 185 1;
#X floatatom 756 186 5 0 0 0 - - -;
#X obj 756 206 t b;
#X msg 756 227 0;
#X obj 671 286 spigot 1;
#X obj 671 69 ctlin 7;
#X obj 525 69 ctlin 10;
#X obj 232 324 change;
#X obj 362 314 change;
#X obj 525 310 change;
#X obj 671 313 change;
#X obj 689 415 outlet;
#X obj 548 394 outlet;
#X obj 376 405 outlet;
#X obj 235 384 outlet;
#X obj 128 373 outlet;
#X obj 58 391 spigot 0;
#X obj 135 35 inlet;
#X obj 84 357 tgl 15 0 empty empty empty 17 7 0 10 -262144 -1 -1 0
1;
#X connect 0 0 5 1;
#X connect 0 0 15 1;
#X connect 0 0 23 1;
#X connect 0 0 33 1;
#X connect 0 0 41 1;
#X connect 2 0 10 0;
#X connect 3 0 11 0;
#X connect 4 0 5 0;
#X connect 5 0 6 0;
#X connect 5 1 7 0;
#X connect 6 0 10 1;
#X connect 6 0 11 1;
#X connect 7 0 8 0;
#X connect 8 0 9 0;
#X connect 9 0 10 1;
#X connect 9 0 11 1;
#X connect 10 0 58 0;
#X connect 11 0 57 0;
#X connect 12 0 14 0;
#X connect 12 1 13 0;
#X connect 13 0 15 0;
#X connect 14 0 20 0;
#X connect 15 0 16 0;
#X connect 15 1 17 0;
#X connect 16 0 20 1;
#X connect 17 0 18 0;
#X connect 18 0 19 0;
#X connect 19 0 20 1;
#X connect 20 0 49 0;
#X connect 21 0 23 0;
#X connect 22 0 28 0;
#X connect 23 0 24 0;
#X connect 23 1 25 0;
#X connect 24 0 28 1;
#X connect 25 0 26 0;
#X connect 26 0 27 0;
#X connect 27 0 28 1;
#X connect 28 0 50 0;
#X connect 29 0 22 0;
#X connect 29 1 21 0;
#X connect 30 0 2 0;
#X connect 30 1 3 0;
#X connect 30 2 4 0;
#X connect 31 0 33 0;
#X connect 32 0 38 0;
#X connect 33 0 34 0;
#X connect 33 1 35 0;
#X connect 34 0 38 1;
#X connect 35 0 36 0;
#X connect 36 0 37 0;
#X connect 37 0 38 1;
#X connect 38 0 51 0;
#X connect 39 0 41 0;
#X connect 40 0 46 0;
#X connect 41 0 42 0;
#X connect 41 1 43 0;
#X connect 42 0 46 1;
#X connect 43 0 44 0;
#X connect 44 0 45 0;
#X connect 45 0 46 1;
#X connect 46 0 52 0;
#X connect 47 0 40 0;
#X connect 47 1 39 0;
#X connect 48 0 32 0;
#X connect 48 1 31 0;
#X connect 49 0 56 0;
#X connect 50 0 55 0;
#X connect 51 0 54 0;
#X connect 52 0 53 0;
#X connect 58 0 1 0;
#X connect 59 0 60 0;
#X connect 60 0 58 1;
#X restore 405 186 pd OBMidiListen;
#N canvas -8 -8 1280 766 OBCompareListenToLoadedSettings 0;
#X obj 84 44 t f b;
#X obj 179 154 textfile;
#X msg 179 46 clear;
#X obj 84 11 inlet;
#X obj 180 18 inlet;
#X obj 309 12 inlet;
#X obj 75 371 outlet;
#X msg 136 104 rewind \, bang;
#X obj 175 367 outlet;
#X obj 221 179 t l;
#X floatatom 39 132 5 0 0 0 - - -;
#X floatatom 279 362 5 0 0 0 - - -;
#X msg 221 207 list \$126 \$125 \$124 \$123 \$122 \$121 \$120 \$119
\$118 \$117 \$116 \$115 \$114 \$113 \$112 \$111 \$110 \$109 \$108 \$107
\$106 \$105 \$104 \$103 \$102 \$101 \$100 \$99 \$98 \$97 \$96 \$95
\$94 \$93 \$92 \$91 \$90 \$89 \$88 \$87 \$86 \$85 \$84 \$83 \$82 \$81
\$80 \$79 \$78 \$77 \$76 \$75 \$74 \$73 \$72 \$71 \$70 \$69 \$68 \$67
\$66 \$65 \$64 \$63 \$62 \$61 \$60 \$59 \$58 \$57 \$56 \$55 \$54 \$53
\$52 \$51 \$50 \$49 \$48 \$47 \$46 \$45 \$44 \$43 \$42 \$41 \$40 \$39
\$38 \$37 \$36 \$35 \$34 \$33 \$32 \$31 \$30 \$29 \$28 \$27 \$26 \$25
\$24 \$23 \$22 \$21 \$20 \$19 \$18 \$17 \$16 \$15 \$14 \$13 \$12 \$11
\$10 \$9 \$8 \$7 \$6 \$5 \$4 \$3 \$2 \$1;
#X connect 0 0 6 0;
#X connect 0 0 10 0;
#X connect 0 1 7 0;
#X connect 1 0 9 0;
#X connect 2 0 1 0;
#X connect 3 0 0 0;
#X connect 4 0 2 0;
#X connect 5 0 1 0;
#X connect 7 0 1 0;
#X connect 9 0 12 0;
#X connect 12 0 8 0;
#X connect 12 0 11 0;
#X restore 405 222 pd OBCompareListenToLoadedSettings;
#N canvas 214 227 531 489 OBCheckThenBangMidiNote 0;
#X obj 42 23 inlet;
#X obj 219 20 inlet;
#X obj 41 212 spigot 0;
#X obj 218 168 tgl 15 0 empty empty empty 17 7 0 10 -262144 -1 -1 0
1;
#X msg 40 186 \$1;
#X obj 85 359 send;
#X floatatom 12 267 5 0 0 0 - - -;
#X msg 85 307 play;
#X obj 80 254 t b;
#X obj 107 21 inlet;
#N canvas 532 136 540 525 finditem 0;
#X obj 343 368 f;
#X obj 91 51 inlet;
#X obj 183 47 inlet;
#X obj 343 405 outlet;
#X obj 91 180 list-drip;
#X obj 91 158 list;
#X obj 343 326 select 1;
#N canvas 727 171 450 300 count 0;
#X obj 148 149 + 1;
#X obj 117 24 inlet;
#X obj 119 176 outlet;
#X obj 181 25 inlet;
#X obj 120 148 f 1;
#X msg 194 115 0;
#X obj 111 74 t b;
#X floatatom 175 211 5 0 0 0 - - -;
#X msg 60 108 bang;
#X connect 0 0 4 1;
#X connect 1 0 6 0;
#X connect 3 0 5 0;
#X connect 4 0 0 0;
#X connect 4 0 2 0;
#X connect 4 0 7 0;
#X connect 5 0 4 1;
#X connect 6 0 8 0;
#X connect 8 0 4 0;
#X restore 121 245 pd count;
#X obj 429 433 outlet;
#X obj 500 360 + 1;
#X obj 428 384 f;
#X obj 471 359 f 1;
#X msg 487 326 1;
#X msg 452 328 0;
#X obj 303 388 + 1;
#X floatatom 302 426 5 0 0 0 - - -;
#X floatatom 498 427 5 0 0 0 - - -;
#X floatatom 34 84 5 0 0 0 - - -;
#X obj 91 210 t f b;
#X floatatom 108 283 5 0 0 0 - - -;
#X floatatom 278 364 5 0 0 0 - - -;
#X floatatom 388 424 5 0 0 0 - - -;
#X floatatom 54 244 5 0 0 0 - - -;
#X obj 91 80 t b a b b;
#X msg 32 179 add \$1;
#X obj 12 221 textfile;
#X obj 343 302 compare-any;
#X connect 0 0 14 0;
#X connect 0 0 20 0;
#X connect 1 0 17 0;
#X connect 1 0 23 0;
#X connect 2 0 5 1;
#X connect 4 0 18 0;
#X connect 4 0 24 0;
#X connect 4 1 10 0;
#X connect 5 0 4 0;
#X connect 6 0 0 0;
#X connect 6 0 11 0;
#X connect 7 0 0 1;
#X connect 9 0 11 1;
#X connect 10 0 8 0;
#X connect 10 0 16 0;
#X connect 10 0 21 0;
#X connect 11 0 10 1;
#X connect 11 0 9 0;
#X connect 12 0 11 1;
#X connect 13 0 10 1;
#X connect 14 0 3 0;
#X connect 14 0 15 0;
#X connect 18 0 22 0;
#X connect 18 0 26 0;
#X connect 18 1 7 0;
#X connect 23 0 5 0;
#X connect 23 1 19 0;
#X connect 23 1 26 1;
#X connect 23 2 7 1;
#X connect 23 3 12 0;
#X connect 23 3 13 0;
#X connect 24 0 25 0;
#X connect 26 0 6 0;
#X restore 40 144 pd finditem;
#X floatatom 59 168 5 0 0 0 - - -;
#X floatatom 20 71 5 0 0 0 - - -;
#X floatatom 137 66 5 0 0 0 - - -;
#X floatatom 121 170 5 0 0 0 - - -;
#X msg 62 280 symbol MultiSamplePlayer-\$1;
#X connect 0 0 10 0;
#X connect 0 0 12 0;
#X connect 1 0 3 0;
#X connect 2 0 6 0;
#X connect 2 0 8 0;
#X connect 2 0 15 0;
#X connect 3 0 2 1;
#X connect 4 0 2 0;
#X connect 7 0 5 0;
#X connect 8 0 7 0;
#X connect 9 0 10 1;
#X connect 9 0 13 0;
#X connect 10 0 4 0;
#X connect 10 0 11 0;
#X connect 10 1 14 0;
#X connect 15 0 5 1;
#X restore 405 256 pd OBCheckThenBangMidiNote;
#X floatatom 357 254 5 0 0 0 - - -;
#X obj 715 103 bng 12 250 50 0 empty empty Save_preset 17 7 0 10 -128992
-1 -1;
#N canvas 793 214 450 509 OBSavePreset 0;
#X obj 56 262 textfile;
#X obj 28 135 savepanel;
#X obj 70 25 inlet;
#X msg 28 163 write \$1 cr;
#X msg 56 199 clear;
#N canvas 138 211 637 510 buildpresetfile 0;
#X obj 25 7 inlet;
#X msg 87 44 0;
#X msg 25 41 1;
#X obj 75 527 outlet;
#X obj 69 316 list;
#X obj 69 275 textfile;
#X obj 32 217 bng 15 250 50 0 empty empty empty 17 7 0 10 -262144 -1
-1;
#X msg 117 248 rewind;
#X msg 75 489 add2 \$1;
#X obj 68 354 unpack f f f f f;
#X obj 70 400 pack f f f f f f;
#X obj 69 439 unpack f f f f f f;
#N canvas 0 50 450 300 PresetPathFromID 0;
#X obj 17 174 symbol;
#X msg 80 147 padsettings-;
#X msg 204 147 .txt;
#X obj 168 146 f;
#X obj 80 173 symbol;
#X obj 204 173 symbol;
#X obj 98 44 f;
#X text 128 44 file ID;
#X obj 97 14 inlet;
#X obj 98 324 outlet;
#X obj 17 307 print;
#X msg 17 273 \$1/\$2\$3\$4;
#X obj 143 172 \$1;
#X obj 99 73 t b b f b b;
#X msg 320 154 0;
#X obj 17 221 pack f s s f s, f 32;
#X msg 22 116 projects/datafiles-donotdeleteoredit/tmpdata/;
#X obj 315 52 loadbang;
#X msg 316 88 1;
#X connect 0 0 15 1;
#X connect 1 0 4 0;
#X connect 2 0 5 0;
#X connect 3 0 12 0;
#X connect 4 0 15 2;
#X connect 5 0 15 4;
#X connect 6 0 13 0;
#X connect 8 0 6 0;
#X connect 12 0 15 3;
#X connect 13 0 16 0;
#X connect 13 1 1 0;
#X connect 13 2 3 0;
#X connect 13 3 2 0;
#X connect 13 4 14 0;
#X connect 14 0 15 0;
#X connect 15 0 11 0;
#X connect 15 0 9 0;
#X connect 16 0 0 0;
#X connect 17 0 16 0;
#X connect 17 0 1 0;
#X connect 17 0 18 0;
#X connect 17 0 2 0;
#X connect 18 0 3 0;
#X restore 67 173 pd PresetPathFromID;
#X obj 25 144 \$1;
#X msg 69 203 read \$2\$3\$4\$5;
#X obj 26 112 count 0 64;
#X obj 25 77 metro 10;
#X msg 147 94 write projects/datafiles-donotdeleteoredit/tmpdata/padsettings-0.txt
;
#X connect 0 0 2 0;
#X connect 1 0 16 0;
#X connect 2 0 16 0;
#X connect 2 0 17 0;
#X connect 4 0 9 0;
#X connect 5 0 4 0;
#X connect 6 0 5 0;
#X connect 7 0 5 0;
#X connect 8 0 3 0;
#X connect 9 0 10 5;
#X connect 9 1 10 4;
#X connect 9 2 10 3;
#X connect 9 3 10 2;
#X connect 9 4 10 0;
#X connect 9 4 10 1;
#X connect 10 0 11 0;
#X connect 11 1 8 0;
#X connect 11 2 8 0;
#X connect 11 3 8 0;
#X connect 11 4 8 0;
#X connect 11 5 8 0;
#X connect 12 0 14 0;
#X connect 13 0 6 0;
#X connect 13 0 12 0;
#X connect 14 0 5 0;
#X connect 14 0 7 0;
#X connect 15 0 13 0;
#X connect 15 1 1 0;
#X connect 16 0 15 0;
#X connect 17 0 5 0;
#X restore 195 100 pd buildpresetfile;
#X obj 17 302 print list;
#X obj 105 334 s status-recv;
#X obj 138 251 t b;
#X msg 105 309 label Preset_has_been_saved;
#X obj 272 357 s status-recv;
#X msg 270 333 label Ready;
#X obj 247 273 delay 2000;
#X obj 116 62 delay 20;
#X msg 67 100 add2 0 0 0 0 0;
#X connect 0 0 6 0;
#X connect 1 0 3 0;
#X connect 2 0 13 0;
#X connect 2 0 1 0;
#X connect 2 0 14 0;
#X connect 3 0 0 0;
#X connect 3 0 4 0;
#X connect 4 0 0 0;
#X connect 4 0 8 0;
#X connect 5 0 0 0;
#X connect 8 0 9 0;
#X connect 8 0 12 0;
#X connect 9 0 7 0;
#X connect 11 0 10 0;
#X connect 12 0 11 0;
#X connect 13 0 5 0;
#X connect 14 0 0 0;
#X restore 765 166 pd OBSavePreset;
#N canvas -8 -8 1284 686 OBLoadPreset 0;
#X obj 129 20 inlet;
#X obj 85 240 textfile;
#X obj 97 527 pack f f f f f f;
#X obj 97 558 unpack f f f f f f;
#X obj 97 590 s $midi-msg1-recv;
#X obj 97 615 s $midi-note1-recv;
#X obj 97 638 s $midi-ch1-recv;
#X obj 97 663 s $midi-bank1-recv;
#X obj 99 688 s $midi-vel1-recv;
#X obj 182 321 pack f f f f f f;
#X obj 172 346 unpack f f f f f f;
#X obj 173 385 s $midi-msg2-recv;
#X obj 171 410 s $midi-note2-recv;
#X obj 171 436 s $midi-ch2-recv;
#X obj 170 458 s $midi-bank2-recv;
#X obj 173 483 s $midi-vel2-recv;
#X obj 275 526 pack f f f f f f;
#X obj 275 557 unpack f f f f f f;
#X obj 273 588 s $midi-msg3-recv;
#X obj 271 613 s $midi-note3-recv;
#X obj 271 636 s $midi-ch3-recv;
#X obj 270 658 s $midi-bank3-recv;
#X obj 267 682 s $midi-vel3-recv;
#X obj 392 324 pack f f f f f f;
#X obj 392 355 unpack f f f f f f;
#X obj 505 526 pack f f f f f f;
#X obj 505 557 unpack f f f f f f;
#X obj 393 385 s $midi-msg4-recv;
#X obj 391 410 s $midi-note4-recv;
#X obj 391 436 s $midi-ch4-recv;
#X obj 390 458 s $midi-bank4-recv;
#X obj 393 483 s $midi-vel4-recv;
#X obj 507 583 s $midi-msg5-recv;
#X obj 507 608 s $midi-note5-recv;
#X obj 503 633 s $midi-ch5-recv;
#X obj 503 656 s $midi-bank5-recv;
#X obj 506 680 s $midi-vel5-recv;
#X obj 629 320 pack f f f f f f;
#X obj 629 351 unpack f f f f f f;
#X obj 630 379 s $midi-msg6-recv;
#X obj 631 403 s $midi-note6-recv;
#X obj 630 428 s $midi-ch6-recv;
#X obj 629 451 s $midi-bank6-recv;
#X obj 632 476 s $midi-vel6-recv;
#X obj 744 520 pack f f f f f f;
#X obj 744 551 unpack f f f f f f;
#X obj 812 316 pack f f f f f f;
#X obj 812 346 unpack f f f f f f;
#X obj 742 587 s $midi-msg7-recv;
#X obj 745 613 s $midi-note7-recv;
#X obj 748 641 s $midi-ch7-recv;
#X obj 743 664 s $midi-bank7-recv;
#X obj 743 687 s $midi-vel7-recv;
#X obj 813 375 s $midi-msg8-recv;
#X obj 813 398 s $midi-note8-recv;
#X obj 812 424 s $midi-ch8-recv;
#X obj 812 447 s $midi-bank8-recv;
#X obj 815 472 s $midi-vel8-recv;
#X obj 924 520 pack f f f f f f;
#X obj 913 547 unpack f f f f f f;
#X obj 1013 331 pack f f f f f f;
#X obj 1013 362 unpack f f f f f f;
#X obj 1124 536 pack f f f f f f;
#X obj 1124 567 unpack f f f f f f;
#X obj 1211 338 pack f f f f f f;
#X obj 1207 371 unpack f f f f f f;
#X obj 1331 553 pack f f f f f f;
#X obj 1331 584 unpack f f f f f f;
#X obj 1410 348 pack f f f f f f;
#X obj 1411 372 unpack f f f f f f;
#X obj 1528 572 pack f f f f f f;
#X obj 1528 603 unpack f f f f f f;
#X obj 1600 346 pack f f f f f f;
#X obj 1599 371 unpack f f f f f f;
#X obj 922 587 s $midi-msg9-recv;
#X obj 926 607 s $midi-note9-recv;
#X obj 927 632 s $midi-ch9-recv;
#X obj 921 655 s $midi-bank9-recv;
#X obj 923 679 s $midi-vel9-recv;
#X obj 1016 389 s $midi-msg10-recv;
#X obj 1012 414 s $midi-note10-recv;
#X obj 1013 462 s $midi-bank10-recv;
#X obj 1016 487 s $midi-vel10-recv;
#X obj 1120 603 s $midi-msg11-recv;
#X obj 1123 625 s $midi-note11-recv;
#X obj 1124 647 s $midi-ch11-recv;
#X obj 1119 670 s $midi-bank11-recv;
#X obj 1121 694 s $midi-vel11-recv;
#X obj 1210 398 s $midi-msg12-recv;
#X obj 1207 423 s $midi-note12-recv;
#X obj 1208 449 s $midi-ch12-recv;
#X obj 1207 471 s $midi-bank12-recv;
#X obj 1209 496 s $midi-vel12-recv;
#X obj 1329 620 s $midi-msg13-recv;
#X obj 1330 641 s $midi-note13-recv;
#X obj 1324 666 s $midi-ch13-recv;
#X obj 1325 690 s $midi-bank13-recv;
#X obj 1326 716 s $midi-vel13-recv;
#X obj 1412 401 s $midi-msg14-recv;
#X obj 1411 426 s $midi-note14-recv;
#X obj 1410 451 s $midi-ch14-recv;
#X obj 1409 474 s $midi-bank14-recv;
#X obj 1412 499 s $midi-vel14-recv;
#X obj 1526 639 s $midi-msg15-recv;
#X obj 1529 665 s $midi-note15-recv;
#X obj 1522 690 s $midi-ch15-recv;
#X obj 1522 712 s $midi-bank15-recv;
#X obj 1527 735 s $midi-vel15-recv;
#X obj 1606 400 s $midi-msg16-recv;
#X obj 1604 424 s $midi-note16-recv;
#X obj 1603 450 s $midi-ch16-recv;
#X obj 1603 473 s $midi-bank16-recv;
#X obj 1606 498 s $midi-vel16-recv;
#X obj 128 52 openpanel;
#X msg 127 101 read \$1;
#X obj 127 78 t a b b;
#X msg 164 176 rewind \, bang;
#X obj 164 154 delay 200;
#X obj 1016 437 s $midi-ch10-recv;
#X obj 271 24 loadbang;
#X msg 360 184 read MidiPresets/Aminor.txt;
#X msg 256 181 rewind \, bang;
#X obj 256 159 delay 200;
#X obj 1728 563 pack f f f f f f;
#X obj 1731 592 unpack f f f f f f;
#X obj 1833 349 pack f f f f f f;
#X obj 1833 380 unpack f f f f f f;
#X obj 1916 569 pack f f f f f f;
#X obj 1906 594 unpack f f f f f f;
#X obj 2013 351 pack f f f f f f;
#X obj 2013 382 unpack f f f f f f;
#X obj 2158 577 pack f f f f f f;
#X obj 2158 608 unpack f f f f f f;
#X obj 2231 351 pack f f f f f f;
#X obj 2231 382 unpack f f f f f f;
#X obj 2365 573 pack f f f f f f;
#X obj 2365 604 unpack f f f f f f;
#X obj 2474 347 pack f f f f f f;
#X obj 2474 378 unpack f f f f f f;
#X obj 2584 577 pack f f f f f f;
#X obj 2584 607 unpack f f f f f f;
#X obj 2669 338 pack f f f f f f;
#X obj 2658 365 unpack f f f f f f;
#X obj 2782 592 pack f f f f f f;
#X obj 2782 623 unpack f f f f f f;
#X obj 2874 329 pack f f f f f f;
#X obj 2874 360 unpack f f f f f f;
#X obj 2999 594 pack f f f f f f;
#X obj 2994 623 unpack f f f f f f;
#X obj 3087 330 pack f f f f f f;
#X obj 3087 361 unpack f f f f f f;
#X obj 3193 587 pack f f f f f f;
#X obj 3197 613 unpack f f f f f f;
#X obj 3259 334 pack f f f f f f;
#X obj 3259 365 unpack f f f f f f;
#X obj 1730 624 s $midi-msg17-recv;
#X obj 1728 649 s $midi-note17-recv;
#X obj 1728 675 s $midi-ch17-recv;
#X obj 1727 697 s $midi-bank17-recv;
#X obj 1731 722 s $midi-vel17-recv;
#X obj 1819 421 s $midi-msg18-recv;
#X obj 1817 445 s $midi-note18-recv;
#X obj 1826 469 s $midi-ch18-recv;
#X obj 1825 492 s $midi-bank18-recv;
#X obj 1824 514 s $midi-vel18-recv;
#X obj 1925 648 s $midi-note19-recv;
#X obj 1926 674 s $midi-ch19-recv;
#X obj 1925 696 s $midi-bank19-recv;
#X obj 1928 721 s $midi-vel19-recv;
#X obj 2013 407 s $midi-msg20-recv;
#X obj 2015 433 s $midi-note20-recv;
#X obj 2015 457 s $midi-ch20-recv;
#X obj 2017 484 s $midi-bank20-recv;
#X obj 2016 508 s $midi-vel20-recv;
#X obj 2188 641 s $midi-msg21-recv;
#X obj 2186 666 s $midi-note21-recv;
#X obj 2186 692 s $midi-ch21-recv;
#X obj 2185 714 s $midi-bank21-recv;
#X obj 2188 739 s $midi-vel21-recv;
#X obj 2231 410 s $midi-msg22-recv;
#X obj 2229 437 s $midi-note22-recv;
#X obj 2230 462 s $midi-ch22-recv;
#X obj 2230 487 s $midi-bank22-recv;
#X obj 2231 511 s $midi-vel22-recv;
#X obj 2391 648 s $midi-msg23-recv;
#X obj 2390 673 s $midi-note23-recv;
#X obj 2389 698 s $midi-ch23-recv;
#X obj 2388 721 s $midi-bank23-recv;
#X obj 2391 746 s $midi-vel23-recv;
#X obj 2495 409 s $midi-msg24-recv;
#X obj 2494 434 s $midi-note24-recv;
#X obj 2494 463 s $midi-ch24-recv;
#X obj 2494 484 s $midi-bank24-recv;
#X obj 2495 507 s $midi-vel24-recv;
#X obj 2630 634 s $midi-msg25-recv;
#X obj 2628 658 s $midi-note25-recv;
#X obj 2627 684 s $midi-ch25-recv;
#X obj 2627 707 s $midi-bank25-recv;
#X obj 2630 732 s $midi-vel25-recv;
#X obj 2662 393 s $midi-msg26-recv;
#X obj 2667 423 s $midi-note26-recv;
#X obj 2668 448 s $midi-ch26-recv;
#X obj 2668 470 s $midi-bank26-recv;
#X obj 2667 494 s $midi-vel26-recv;
#X obj 2823 654 s $midi-msg27-recv;
#X obj 2819 679 s $midi-note27-recv;
#X obj 2823 702 s $midi-ch27-recv;
#X obj 2819 727 s $midi-bank27-recv;
#X obj 2822 751 s $midi-vel27-recv;
#X obj 2871 387 s $midi-msg28-recv;
#X obj 2878 412 s $midi-note28-recv;
#X obj 2881 437 s $midi-ch28-recv;
#X obj 2884 460 s $midi-bank28-recv;
#X obj 2884 487 s $midi-vel28-recv;
#X obj 3002 661 s $midi-msg29-recv;
#X obj 2999 685 s $midi-note29-recv;
#X obj 3000 712 s $midi-ch29-recv;
#X obj 2999 734 s $midi-bank29-recv;
#X obj 3001 759 s $midi-vel29-recv;
#X obj 3084 391 s $midi-msg30-recv;
#X obj 3084 414 s $midi-note30-recv;
#X obj 3091 438 s $midi-ch30-recv;
#X obj 3092 462 s $midi-bank30-recv;
#X obj 3089 483 s $midi-vel30-recv;
#X obj 3226 646 s $midi-msg31-recv;
#X obj 3225 670 s $midi-note31-recv;
#X obj 3224 696 s $midi-ch31-recv;
#X obj 3223 719 s $midi-bank31-recv;
#X obj 3226 744 s $midi-vel31-recv;
#X obj 3264 391 s $midi-msg32-recv;
#X obj 3262 415 s $midi-note32-recv;
#X obj 3260 442 s $midi-ch32-recv;
#X obj 3266 467 s $midi-bank32-recv;
#X obj 3266 490 s $midi-vel32-recv;
#X obj 3393 580 pack f f f f f f;
#X obj 3393 611 unpack f f f f f f;
#X obj 3468 336 pack f f f f f f;
#X obj 3458 361 unpack f f f f f f;
#X obj 3599 567 pack f f f f f f;
#X obj 3599 598 unpack f f f f f f;
#X obj 3671 340 pack f f f f f f;
#X obj 3671 371 unpack f f f f f f;
#X obj 3815 566 pack f f f f f f;
#X obj 3815 597 unpack f f f f f f;
#X obj 3921 336 pack f f f f f f;
#X obj 3921 367 unpack f f f f f f;
#X obj 4024 561 pack f f f f f f;
#X obj 4024 592 unpack f f f f f f;
#X obj 4104 332 pack f f f f f f;
#X obj 4104 362 unpack f f f f f f;
#X obj 4229 542 pack f f f f f f;
#X obj 4218 569 unpack f f f f f f;
#X obj 4305 347 pack f f f f f f;
#X obj 4305 378 unpack f f f f f f;
#X obj 4436 566 pack f f f f f f;
#X obj 4436 597 unpack f f f f f f;
#X obj 4534 361 pack f f f f f f;
#X obj 4530 394 unpack f f f f f f;
#X obj 4653 572 pack f f f f f f;
#X obj 4653 603 unpack f f f f f f;
#X obj 4746 367 pack f f f f f f;
#X obj 4747 391 unpack f f f f f f;
#X obj 4865 582 pack f f f f f f;
#X obj 4865 613 unpack f f f f f f;
#X obj 4951 376 pack f f f f f f;
#X obj 4950 401 unpack f f f f f f;
#X obj 5070 597 pack f f f f f f;
#X obj 5073 626 unpack f f f f f f;
#X obj 5158 361 pack f f f f f f;
#X obj 5158 392 unpack f f f f f f;
#X obj 5271 591 pack f f f f f f;
#X obj 5261 616 unpack f f f f f f;
#X obj 5365 367 pack f f f f f f;
#X obj 5365 398 unpack f f f f f f;
#X obj 5479 594 pack f f f f f f;
#X obj 5479 625 unpack f f f f f f;
#X obj 5583 367 pack f f f f f f;
#X obj 5583 398 unpack f f f f f f;
#X obj 5705 587 pack f f f f f f;
#X obj 5705 618 unpack f f f f f f;
#X obj 5779 366 pack f f f f f f;
#X obj 5779 397 unpack f f f f f f;
#X obj 5896 588 pack f f f f f f;
#X obj 5896 618 unpack f f f f f f;
#X obj 5974 357 pack f f f f f f;
#X obj 5963 384 unpack f f f f f f;
#X obj 6090 590 pack f f f f f f;
#X obj 6090 621 unpack f f f f f f;
#X obj 6179 348 pack f f f f f f;
#X obj 6179 379 unpack f f f f f f;
#X obj 6313 589 pack f f f f f f;
#X obj 6308 618 unpack f f f f f f;
#X obj 6401 343 pack f f f f f f;
#X obj 6401 374 unpack f f f f f f;
#X obj 6536 592 pack f f f f f f;
#X obj 6540 618 unpack f f f f f f;
#X obj 3392 641 s $midi-msg33-recv;
#X obj 3393 668 s $midi-note33-recv;
#X obj 3393 691 s $midi-ch33-recv;
#X obj 3393 716 s $midi-bank33-recv;
#X obj 3395 741 s $midi-vel33-recv;
#X obj 3459 400 s $midi-msg34-recv;
#X obj 3457 425 s $midi-note34-recv;
#X obj 3457 451 s $midi-ch34-recv;
#X obj 3456 473 s $midi-bank34-recv;
#X obj 3459 498 s $midi-vel34-recv;
#X obj 3593 627 s $midi-msg35-recv;
#X obj 3595 654 s $midi-note35-recv;
#X obj 3595 677 s $midi-ch35-recv;
#X obj 3596 699 s $midi-bank35-recv;
#X obj 3591 723 s $midi-vel35-recv;
#X obj 3672 401 s $midi-msg36-recv;
#X obj 3670 426 s $midi-note36-recv;
#X obj 3670 452 s $midi-ch36-recv;
#X obj 3670 473 s $midi-bank36-recv;
#X obj 3672 499 s $midi-vel36-recv;
#X obj 3817 623 s $midi-msg37-recv;
#X obj 3817 648 s $midi-note37-recv;
#X obj 3813 673 s $midi-ch37-recv;
#X obj 3813 696 s $midi-bank37-recv;
#X obj 3816 720 s $midi-vel37-recv;
#X obj 3919 393 s $midi-msg38-recv;
#X obj 3923 419 s $midi-note38-recv;
#X obj 3921 444 s $midi-ch38-recv;
#X obj 3921 467 s $midi-bank38-recv;
#X obj 3924 492 s $midi-vel38-recv;
#X obj 4021 628 s $midi-msg39-recv;
#X obj 4025 654 s $midi-note39-recv;
#X obj 4028 682 s $midi-ch39-recv;
#X obj 4018 702 s $midi-bank39-recv;
#X obj 4023 728 s $midi-vel39-recv;
#X obj 4105 391 s $midi-msg40-recv;
#X obj 4105 414 s $midi-note40-recv;
#X obj 4104 440 s $midi-ch40-recv;
#X obj 4103 463 s $midi-bank40-recv;
#X obj 4107 488 s $midi-vel40-recv;
#X obj 4227 609 s $midi-msg41-recv;
#X obj 4231 629 s $midi-note41-recv;
#X obj 4232 654 s $midi-ch41-recv;
#X obj 4224 678 s $midi-bank41-recv;
#X obj 4228 701 s $midi-vel41-recv;
#X obj 4308 405 s $midi-msg42-recv;
#X obj 4305 430 s $midi-note42-recv;
#X obj 4308 453 s $midi-ch42-recv;
#X obj 4305 478 s $midi-bank42-recv;
#X obj 4308 503 s $midi-vel42-recv;
#X obj 4432 633 s $midi-msg43-recv;
#X obj 4435 655 s $midi-note43-recv;
#X obj 4435 678 s $midi-ch43-recv;
#X obj 4431 700 s $midi-bank43-recv;
#X obj 4433 724 s $midi-vel43recv;
#X obj 4533 421 s $midi-msg44-recv;
#X obj 4530 446 s $midi-note44-recv;
#X obj 4529 472 s $midi-ch44-recv;
#X obj 4530 494 s $midi-bank44-recv;
#X obj 4531 519 s $midi-vel44-recv;
#X obj 4651 639 s $midi-msg45-recv;
#X obj 4652 660 s $midi-note45-recv;
#X obj 4646 685 s $midi-ch45-recv;
#X obj 4647 709 s $midi-bank45-recv;
#X obj 4648 735 s $midi-vel45-recv;
#X obj 4748 420 s $midi-msg46-recv;
#X obj 4747 445 s $midi-note46-recv;
#X obj 4746 470 s $midi-ch46-recv;
#X obj 4745 492 s $midi-bank46-recv;
#X obj 4748 518 s $midi-vel46-recv;
#X obj 4863 649 s $midi-msg47-recv;
#X obj 4866 675 s $midi-note47-recv;
#X obj 4859 700 s $midi-ch47-recv;
#X obj 4859 722 s $midi-bank47-recv;
#X obj 4864 745 s $midi-vel47recv;
#X obj 4957 430 s $midi-msg48-recv;
#X obj 4954 453 s $midi-note48-recv;
#X obj 4954 480 s $midi-ch48-recv;
#X obj 4954 503 s $midi-bank48-recv;
#X obj 4957 528 s $midi-vel48-recv;
#X obj 5072 658 s $midi-msg49-recv;
#X obj 5070 683 s $midi-note49-recv;
#X obj 5070 709 s $midi-ch49-recv;
#X obj 5069 731 s $midi-bank49-recv;
#X obj 5073 756 s $midi-vel49-recv;
#X obj 5142 432 s $midi-msg50-recv;
#X obj 5142 457 s $midi-note50-recv;
#X obj 5150 480 s $midi-ch50-recv;
#X obj 5150 503 s $midi-bank50-recv;
#X obj 5135 529 s $midi-vel50-recv;
#X obj 5280 670 s $midi-note51-recv;
#X obj 5281 696 s $midi-ch51-recv;
#X obj 5280 718 s $midi-bank51-recv;
#X obj 5283 743 s $midi-vel51-recv;
#X obj 5365 423 s $midi-msg52-recv;
#X obj 5367 449 s $midi-note52-recv;
#X obj 5367 473 s $midi-ch52-recv;
#X obj 5369 500 s $midi-bank52-recv;
#X obj 5368 524 s $midi-vel52-recv;
#X obj 5509 658 s $midi-msg53-recv;
#X obj 5507 683 s $midi-note53-recv;
#X obj 5507 709 s $midi-ch53-recv;
#X obj 5506 731 s $midi-bank53-recv;
#X obj 5509 756 s $midi-vel53-recv;
#X obj 5583 426 s $midi-msg54-recv;
#X obj 5581 453 s $midi-note54-recv;
#X obj 5582 478 s $midi-ch54-recv;
#X obj 5583 527 s $midi-vel54-recv;
#X obj 5582 503 s $midi-bank54-recv;
#X obj 5731 661 s $midi-msg55-recv;
#X obj 5730 687 s $midi-note55-recv;
#X obj 5729 712 s $midi-ch55-recv;
#X obj 5728 734 s $midi-bank55-recv;
#X obj 5730 760 s $midi-vel55-recv;
#X obj 5800 428 s $midi-msg56-recv;
#X obj 5799 453 s $midi-note56-recv;
#X obj 5799 482 s $midi-ch56-recv;
#X obj 5799 503 s $midi-bank56-recv;
#X obj 5800 527 s $midi-vel56-recv;
#X obj 5942 645 s $midi-msg57-recv;
#X obj 5939 669 s $midi-note57-recv;
#X obj 5939 695 s $midi-ch57;
#X obj 5939 718 s $midi-bank57-recv;
#X obj 5942 743 s $midi-vel57-recv;
#X obj 5972 442 s $midi-note58-recv;
#X obj 5973 467 s $midi-ch58-recv;
#X obj 5974 489 s $midi-bank58-recv;
#X obj 5972 513 s $midi-vel58-recv;
#X obj 6131 652 s $midi-msg59-recv;
#X obj 6126 677 s $midi-note59-recv;
#X obj 6131 700 s $midi-ch59-recv;
#X obj 6127 725 s $midi-bank59-recv;
#X obj 6130 749 s $midi-vel59-recv;
#X obj 6176 406 s $midi-msg60-recv;
#X obj 6183 431 s $midi-note60-recv;
#X obj 6186 456 s $midi-ch60-recv;
#X obj 6189 479 s $midi-bank60-recv;
#X obj 6188 507 s $midi-vel60-recv;
#X obj 6316 656 s $midi-msg61-recv;
#X obj 6313 679 s $midi-note61-recv;
#X obj 6314 707 s $midi-ch61-recv;
#X obj 6313 729 s $midi-bank61-recv;
#X obj 6315 754 s $midi-vel61-recv;
#X obj 6398 404 s $midi-msg62-recv;
#X obj 6397 427 s $midi-note62-recv;
#X obj 6405 451 s $midi-ch62-recv;
#X obj 6406 475 s $midi-bank62-recv;
#X obj 6403 496 s $midi-vel62-recv;
#X obj 6569 651 s $midi-msg63-recv;
#X obj 6568 675 s $midi-note63-recv;
#X obj 6567 701 s $midi-ch63-recv;
#X obj 6566 724 s $midi-bank63-recv;
#X obj 6570 749 s $midi-vel63-recv;
#X obj 1928 623 s $midi-msg19-recv;
#X obj 5284 645 s $midi-msg51-recv;
#X obj 5967 412 s $midi-msg58-recv;
#X obj -9 269 unpack f f f f f f f f f f f f f f f f f f f f f f f
f f f f f f f f f f f f f f f f f f f f f f f f f f f f f f f f f f
f f f f f f f f f f f f f f f f f f f f f f f f f f f f f f f f f f
f f f f f f f f f f f f f f f f f f f f f f f f f f f f f f f f f f
f f f f f f f f f f f f f f f f f f f f f f f f f f f f f f f f f f
f f f f f f f f f f f f f f f f f f f f f f f f f f f f f f f f f f
f f f f f f f f f f f f f f f f f f f f f f f f f f f f f f f f f f
f f f f f f f f f f f f f f f f f f f f f f f f f f f f f f f f f f
f f f f f f f f f f f f f f f f f f f f f f f f f f f f f f f f f f
f f f f f f f f f f f f f f f f f f f f f f f f f f f f f f, f 1103
;
#X obj 6554 307 pack f f f f f f;
#X obj 6557 336 unpack f f f f f f;
#X obj 6560 366 s $midi-msg64-recv;
#X obj 6558 391 s $midi-note64-recv;
#X obj 6558 417 s $midi-ch64-recv;
#X obj 6557 439 s $midi-bank64-recv;
#X obj 6561 464 s $midi-vel64-recv;
#X obj 212 816 s status-recv;
#X obj 262 763 t b;
#X obj 379 839 s status-recv;
#X msg 377 815 label Ready;
#X obj 354 755 delay 2000;
#X msg 212 791 label Preset_has_been_loaded;
#X obj 320 714 delay 100;
#X floatatom 38 593 5 0 0 0 - - -;
#X floatatom 215 595 5 0 0 0 - - -;
#X connect 0 0 113 0;
#X connect 1 0 452 0;
#X connect 2 0 3 0;
#X connect 3 1 8 0;
#X connect 3 2 7 0;
#X connect 3 3 6 0;
#X connect 3 4 5 0;
#X connect 3 4 467 0;
#X connect 3 5 4 0;
#X connect 3 5 468 0;
#X connect 9 0 10 0;
#X connect 10 1 15 0;
#X connect 10 2 14 0;
#X connect 10 3 13 0;
#X connect 10 4 12 0;
#X connect 10 5 11 0;
#X connect 16 0 17 0;
#X connect 17 1 22 0;
#X connect 17 2 21 0;
#X connect 17 3 20 0;
#X connect 17 4 19 0;
#X connect 17 5 18 0;
#X connect 23 0 24 0;
#X connect 24 1 31 0;
#X connect 24 2 30 0;
#X connect 24 3 29 0;
#X connect 24 4 28 0;
#X connect 24 5 27 0;
#X connect 25 0 26 0;
#X connect 26 1 36 0;
#X connect 26 2 35 0;
#X connect 26 3 34 0;
#X connect 26 4 33 0;
#X connect 26 5 32 0;
#X connect 37 0 38 0;
#X connect 38 1 43 0;
#X connect 38 2 42 0;
#X connect 38 3 41 0;
#X connect 38 4 40 0;
#X connect 38 5 39 0;
#X connect 44 0 45 0;
#X connect 45 1 52 0;
#X connect 45 2 51 0;
#X connect 45 3 50 0;
#X connect 45 4 49 0;
#X connect 45 5 48 0;
#X connect 46 0 47 0;
#X connect 47 1 57 0;
#X connect 47 2 56 0;
#X connect 47 3 55 0;
#X connect 47 4 54 0;
#X connect 47 5 53 0;
#X connect 58 0 59 0;
#X connect 59 1 78 0;
#X connect 59 2 77 0;
#X connect 59 3 76 0;
#X connect 59 4 75 0;
#X connect 59 5 74 0;
#X connect 60 0 61 0;
#X connect 61 1 82 0;
#X connect 61 2 81 0;
#X connect 61 3 118 0;
#X connect 61 4 80 0;
#X connect 61 5 79 0;
#X connect 62 0 63 0;
#X connect 63 1 87 0;
#X connect 63 2 86 0;
#X connect 63 3 85 0;
#X connect 63 4 84 0;
#X connect 63 5 83 0;
#X connect 64 0 65 0;
#X connect 65 1 92 0;
#X connect 65 2 91 0;
#X connect 65 3 90 0;
#X connect 65 4 89 0;
#X connect 65 5 88 0;
#X connect 66 0 67 0;
#X connect 67 1 97 0;
#X connect 67 2 96 0;
#X connect 67 3 95 0;
#X connect 67 4 94 0;
#X connect 67 5 93 0;
#X connect 68 0 69 0;
#X connect 69 1 102 0;
#X connect 69 2 101 0;
#X connect 69 3 100 0;
#X connect 69 4 99 0;
#X connect 69 5 98 0;
#X connect 70 0 71 0;
#X connect 71 1 107 0;
#X connect 71 2 106 0;
#X connect 71 3 105 0;
#X connect 71 4 104 0;
#X connect 71 5 103 0;
#X connect 72 0 73 0;
#X connect 73 1 112 0;
#X connect 73 2 111 0;
#X connect 73 3 110 0;
#X connect 73 4 109 0;
#X connect 73 5 108 0;
#X connect 113 0 115 0;
#X connect 114 0 1 0;
#X connect 114 0 461 0;
#X connect 115 0 114 0;
#X connect 115 1 117 0;
#X connect 115 1 122 0;
#X connect 116 0 1 0;
#X connect 117 0 116 0;
#X connect 119 0 120 0;
#X connect 119 0 117 0;
#X connect 119 0 122 0;
#X connect 119 0 466 0;
#X connect 120 0 1 0;
#X connect 121 0 1 0;
#X connect 122 0 121 0;
#X connect 123 0 124 0;
#X connect 124 1 159 0;
#X connect 124 2 158 0;
#X connect 124 3 157 0;
#X connect 124 4 156 0;
#X connect 124 5 155 0;
#X connect 125 0 126 0;
#X connect 126 1 164 0;
#X connect 126 2 163 0;
#X connect 126 3 162 0;
#X connect 126 4 161 0;
#X connect 126 5 160 0;
#X connect 127 0 128 0;
#X connect 128 1 168 0;
#X connect 128 2 167 0;
#X connect 128 3 166 0;
#X connect 128 4 165 0;
#X connect 128 5 449 0;
#X connect 129 0 130 0;
#X connect 130 1 173 0;
#X connect 130 2 172 0;
#X connect 130 3 171 0;
#X connect 130 4 170 0;
#X connect 130 5 169 0;
#X connect 131 0 132 0;
#X connect 132 1 178 0;
#X connect 132 2 177 0;
#X connect 132 3 176 0;
#X connect 132 4 175 0;
#X connect 132 5 174 0;
#X connect 133 0 134 0;
#X connect 134 1 183 0;
#X connect 134 2 182 0;
#X connect 134 3 181 0;
#X connect 134 4 180 0;
#X connect 134 5 179 0;
#X connect 135 0 136 0;
#X connect 136 1 188 0;
#X connect 136 2 187 0;
#X connect 136 3 186 0;
#X connect 136 4 185 0;
#X connect 136 5 184 0;
#X connect 137 0 138 0;
#X connect 138 1 193 0;
#X connect 138 2 192 0;
#X connect 138 3 191 0;
#X connect 138 4 190 0;
#X connect 138 5 189 0;
#X connect 139 0 140 0;
#X connect 140 1 198 0;
#X connect 140 2 197 0;
#X connect 140 3 196 0;
#X connect 140 4 195 0;
#X connect 140 5 194 0;
#X connect 141 0 142 0;
#X connect 142 1 203 0;
#X connect 142 2 202 0;
#X connect 142 3 201 0;
#X connect 142 4 200 0;
#X connect 142 5 199 0;
#X connect 143 0 144 0;
#X connect 144 1 208 0;
#X connect 144 2 207 0;
#X connect 144 3 206 0;
#X connect 144 4 205 0;
#X connect 144 5 204 0;
#X connect 145 0 146 0;
#X connect 146 1 213 0;
#X connect 146 2 212 0;
#X connect 146 3 211 0;
#X connect 146 4 210 0;
#X connect 146 5 209 0;
#X connect 147 0 148 0;
#X connect 148 1 218 0;
#X connect 148 2 217 0;
#X connect 148 3 216 0;
#X connect 148 4 215 0;
#X connect 148 5 214 0;
#X connect 149 0 150 0;
#X connect 150 1 223 0;
#X connect 150 2 222 0;
#X connect 150 3 221 0;
#X connect 150 4 220 0;
#X connect 150 5 219 0;
#X connect 151 0 152 0;
#X connect 152 1 228 0;
#X connect 152 2 227 0;
#X connect 152 3 226 0;
#X connect 152 4 225 0;
#X connect 152 5 224 0;
#X connect 153 0 154 0;
#X connect 154 1 233 0;
#X connect 154 2 232 0;
#X connect 154 3 231 0;
#X connect 154 4 230 0;
#X connect 154 5 229 0;
#X connect 234 0 235 0;
#X connect 235 1 300 0;
#X connect 235 2 299 0;
#X connect 235 3 298 0;
#X connect 235 4 297 0;
#X connect 235 5 296 0;
#X connect 236 0 237 0;
#X connect 237 1 305 0;
#X connect 237 2 304 0;
#X connect 237 3 303 0;
#X connect 237 4 302 0;
#X connect 237 5 301 0;
#X connect 238 0 239 0;
#X connect 239 1 310 0;
#X connect 239 2 309 0;
#X connect 239 3 308 0;
#X connect 239 4 307 0;
#X connect 239 5 306 0;
#X connect 240 0 241 0;
#X connect 241 1 315 0;
#X connect 241 2 314 0;
#X connect 241 3 313 0;
#X connect 241 4 312 0;
#X connect 241 5 311 0;
#X connect 242 0 243 0;
#X connect 243 1 320 0;
#X connect 243 2 319 0;
#X connect 243 3 318 0;
#X connect 243 4 317 0;
#X connect 243 5 316 0;
#X connect 244 0 245 0;
#X connect 245 1 325 0;
#X connect 245 2 324 0;
#X connect 245 3 323 0;
#X connect 245 4 322 0;
#X connect 245 5 321 0;
#X connect 246 0 247 0;
#X connect 247 1 330 0;
#X connect 247 2 329 0;
#X connect 247 3 328 0;
#X connect 247 4 327 0;
#X connect 247 5 326 0;
#X connect 248 0 249 0;
#X connect 249 1 335 0;
#X connect 249 2 334 0;
#X connect 249 3 333 0;
#X connect 249 4 332 0;
#X connect 249 5 331 0;
#X connect 250 0 251 0;
#X connect 251 1 340 0;
#X connect 251 2 339 0;
#X connect 251 3 338 0;
#X connect 251 4 337 0;
#X connect 251 5 336 0;
#X connect 252 0 253 0;
#X connect 253 1 345 0;
#X connect 253 2 344 0;
#X connect 253 3 343 0;
#X connect 253 4 342 0;
#X connect 253 5 341 0;
#X connect 254 0 255 0;
#X connect 255 1 350 0;
#X connect 255 2 349 0;
#X connect 255 3 348 0;
#X connect 255 4 347 0;
#X connect 255 5 346 0;
#X connect 256 0 257 0;
#X connect 257 1 355 0;
#X connect 257 2 354 0;
#X connect 257 3 353 0;
#X connect 257 4 352 0;
#X connect 257 5 351 0;
#X connect 258 0 259 0;
#X connect 259 1 360 0;
#X connect 259 2 359 0;
#X connect 259 3 358 0;
#X connect 259 4 357 0;
#X connect 259 5 356 0;
#X connect 260 0 261 0;
#X connect 261 1 365 0;
#X connect 261 2 364 0;
#X connect 261 3 363 0;
#X connect 261 4 362 0;
#X connect 261 5 361 0;
#X connect 262 0 263 0;
#X connect 263 1 370 0;
#X connect 263 2 369 0;
#X connect 263 3 368 0;
#X connect 263 4 367 0;
#X connect 263 5 366 0;
#X connect 264 0 265 0;
#X connect 265 1 375 0;
#X connect 265 2 374 0;
#X connect 265 3 373 0;
#X connect 265 4 372 0;
#X connect 265 5 371 0;
#X connect 266 0 267 0;
#X connect 267 1 380 0;
#X connect 267 2 379 0;
#X connect 267 3 378 0;
#X connect 267 4 377 0;
#X connect 267 5 376 0;
#X connect 268 0 269 0;
#X connect 269 1 385 0;
#X connect 269 2 384 0;
#X connect 269 3 383 0;
#X connect 269 4 382 0;
#X connect 269 5 381 0;
#X connect 270 0 271 0;
#X connect 271 1 389 0;
#X connect 271 2 388 0;
#X connect 271 3 387 0;
#X connect 271 4 386 0;
#X connect 271 5 450 0;
#X connect 272 0 273 0;
#X connect 273 1 394 0;
#X connect 273 2 393 0;
#X connect 273 3 392 0;
#X connect 273 4 391 0;
#X connect 273 5 390 0;
#X connect 274 0 275 0;
#X connect 275 1 399 0;
#X connect 275 2 398 0;
#X connect 275 3 397 0;
#X connect 275 4 396 0;
#X connect 275 5 395 0;
#X connect 276 0 277 0;
#X connect 277 1 403 0;
#X connect 277 2 404 0;
#X connect 277 3 402 0;
#X connect 277 4 401 0;
#X connect 277 5 400 0;
#X connect 278 0 279 0;
#X connect 279 1 409 0;
#X connect 279 2 408 0;
#X connect 279 3 407 0;
#X connect 279 4 406 0;
#X connect 279 5 405 0;
#X connect 280 0 281 0;
#X connect 281 1 414 0;
#X connect 281 2 413 0;
#X connect 281 3 412 0;
#X connect 281 4 411 0;
#X connect 281 5 410 0;
#X connect 282 0 283 0;
#X connect 283 1 419 0;
#X connect 283 2 418 0;
#X connect 283 3 417 0;
#X connect 283 4 416 0;
#X connect 283 5 415 0;
#X connect 284 0 285 0;
#X connect 285 1 423 0;
#X connect 285 2 422 0;
#X connect 285 3 421 0;
#X connect 285 4 420 0;
#X connect 285 5 451 0;
#X connect 286 0 287 0;
#X connect 287 1 428 0;
#X connect 287 2 427 0;
#X connect 287 3 426 0;
#X connect 287 4 425 0;
#X connect 287 5 424 0;
#X connect 288 0 289 0;
#X connect 289 1 433 0;
#X connect 289 2 432 0;
#X connect 289 3 431 0;
#X connect 289 4 430 0;
#X connect 289 5 429 0;
#X connect 290 0 291 0;
#X connect 291 1 438 0;
#X connect 291 2 437 0;
#X connect 291 3 436 0;
#X connect 291 4 435 0;
#X connect 291 5 434 0;
#X connect 292 0 293 0;
#X connect 293 1 443 0;
#X connect 293 2 442 0;
#X connect 293 3 441 0;
#X connect 293 4 440 0;
#X connect 293 5 439 0;
#X connect 294 0 295 0;
#X connect 295 1 448 0;
#X connect 295 2 447 0;
#X connect 295 3 446 0;
#X connect 295 4 445 0;
#X connect 295 5 444 0;
#X connect 452 5 2 0;
#X connect 452 5 2 5;
#X connect 452 6 2 4;
#X connect 452 7 2 3;
#X connect 452 8 2 2;
#X connect 452 9 2 1;
#X connect 452 10 9 0;
#X connect 452 10 9 5;
#X connect 452 11 9 4;
#X connect 452 12 9 3;
#X connect 452 13 9 2;
#X connect 452 14 9 1;
#X connect 452 15 16 0;
#X connect 452 15 16 5;
#X connect 452 16 16 4;
#X connect 452 17 16 3;
#X connect 452 18 16 2;
#X connect 452 19 16 1;
#X connect 452 20 23 0;
#X connect 452 20 23 5;
#X connect 452 21 23 4;
#X connect 452 22 23 3;
#X connect 452 23 23 2;
#X connect 452 24 23 1;
#X connect 452 25 25 0;
#X connect 452 25 25 5;
#X connect 452 26 25 4;
#X connect 452 27 25 3;
#X connect 452 28 25 2;
#X connect 452 29 25 1;
#X connect 452 30 37 0;
#X connect 452 30 37 5;
#X connect 452 31 37 4;
#X connect 452 32 37 3;
#X connect 452 33 37 2;
#X connect 452 34 37 1;
#X connect 452 35 44 0;
#X connect 452 35 44 5;
#X connect 452 36 44 4;
#X connect 452 37 44 3;
#X connect 452 38 44 2;
#X connect 452 39 44 1;
#X connect 452 40 46 0;
#X connect 452 40 46 5;
#X connect 452 41 46 4;
#X connect 452 42 46 3;
#X connect 452 43 46 2;
#X connect 452 44 46 1;
#X connect 452 45 58 0;
#X connect 452 45 58 5;
#X connect 452 46 58 4;
#X connect 452 47 58 3;
#X connect 452 48 58 2;
#X connect 452 49 58 1;
#X connect 452 50 60 0;
#X connect 452 50 60 5;
#X connect 452 51 60 4;
#X connect 452 52 60 3;
#X connect 452 53 60 2;
#X connect 452 54 60 1;
#X connect 452 55 62 0;
#X connect 452 55 62 5;
#X connect 452 56 62 4;
#X connect 452 57 62 3;
#X connect 452 58 62 2;
#X connect 452 59 62 1;
#X connect 452 60 64 0;
#X connect 452 60 64 5;
#X connect 452 61 64 4;
#X connect 452 62 64 3;
#X connect 452 63 64 2;
#X connect 452 64 64 1;
#X connect 452 65 66 0;
#X connect 452 65 66 5;
#X connect 452 66 66 4;
#X connect 452 67 66 3;
#X connect 452 68 66 2;
#X connect 452 69 66 1;
#X connect 452 70 68 0;
#X connect 452 70 68 5;
#X connect 452 71 68 4;
#X connect 452 72 68 3;
#X connect 452 73 68 2;
#X connect 452 74 68 1;
#X connect 452 75 70 0;
#X connect 452 75 70 5;
#X connect 452 76 70 4;
#X connect 452 77 70 3;
#X connect 452 78 70 2;
#X connect 452 79 70 1;
#X connect 452 80 72 0;
#X connect 452 80 72 5;
#X connect 452 81 72 4;
#X connect 452 82 72 3;
#X connect 452 83 72 2;
#X connect 452 84 72 1;
#X connect 452 85 123 0;
#X connect 452 85 123 5;
#X connect 452 86 123 4;
#X connect 452 87 123 3;
#X connect 452 88 123 2;
#X connect 452 89 123 1;
#X connect 452 90 125 0;
#X connect 452 90 125 5;
#X connect 452 91 125 4;
#X connect 452 92 125 3;
#X connect 452 93 125 2;
#X connect 452 94 125 1;
#X connect 452 95 127 0;
#X connect 452 95 127 5;
#X connect 452 96 127 4;
#X connect 452 97 127 3;
#X connect 452 98 127 2;
#X connect 452 99 127 1;
#X connect 452 100 129 0;
#X connect 452 100 129 5;
#X connect 452 101 129 4;
#X connect 452 102 129 3;
#X connect 452 103 129 2;
#X connect 452 104 129 1;
#X connect 452 105 131 0;
#X connect 452 105 131 5;
#X connect 452 106 131 4;
#X connect 452 107 131 3;
#X connect 452 108 131 2;
#X connect 452 109 131 1;
#X connect 452 110 133 0;
#X connect 452 110 133 5;
#X connect 452 111 133 4;
#X connect 452 112 133 3;
#X connect 452 113 133 2;
#X connect 452 114 133 1;
#X connect 452 115 135 0;
#X connect 452 115 135 5;
#X connect 452 116 135 4;
#X connect 452 117 135 3;
#X connect 452 118 135 2;
#X connect 452 119 135 1;
#X connect 452 120 137 0;
#X connect 452 120 137 5;
#X connect 452 121 137 4;
#X connect 452 122 137 3;
#X connect 452 123 137 2;
#X connect 452 124 137 1;
#X connect 452 125 139 0;
#X connect 452 125 139 5;
#X connect 452 126 139 4;
#X connect 452 127 139 3;
#X connect 452 128 139 2;
#X connect 452 129 139 1;
#X connect 452 130 141 0;
#X connect 452 130 141 5;
#X connect 452 131 141 4;
#X connect 452 132 141 3;
#X connect 452 133 141 2;
#X connect 452 134 141 1;
#X connect 452 135 143 0;
#X connect 452 135 143 5;
#X connect 452 136 143 4;
#X connect 452 137 143 3;
#X connect 452 138 143 2;
#X connect 452 139 143 1;
#X connect 452 140 145 0;
#X connect 452 140 145 5;
#X connect 452 141 145 4;
#X connect 452 142 145 3;
#X connect 452 143 145 2;
#X connect 452 144 145 1;
#X connect 452 145 147 0;
#X connect 452 145 147 5;
#X connect 452 146 147 4;
#X connect 452 147 147 3;
#X connect 452 148 147 2;
#X connect 452 149 147 1;
#X connect 452 150 149 0;
#X connect 452 150 149 5;
#X connect 452 151 149 4;
#X connect 452 152 149 3;
#X connect 452 153 149 2;
#X connect 452 154 149 1;
#X connect 452 155 151 0;
#X connect 452 155 151 5;
#X connect 452 156 151 4;
#X connect 452 157 151 3;
#X connect 452 158 151 2;
#X connect 452 159 151 1;
#X connect 452 160 153 0;
#X connect 452 160 153 5;
#X connect 452 161 153 4;
#X connect 452 162 153 3;
#X connect 452 163 153 2;
#X connect 452 164 153 1;
#X connect 452 165 234 0;
#X connect 452 165 234 5;
#X connect 452 166 234 4;
#X connect 452 167 234 3;
#X connect 452 168 234 2;
#X connect 452 169 234 1;
#X connect 452 170 236 0;
#X connect 452 170 236 5;
#X connect 452 171 236 4;
#X connect 452 172 236 3;
#X connect 452 173 236 2;
#X connect 452 174 236 1;
#X connect 452 175 238 0;
#X connect 452 175 238 5;
#X connect 452 176 238 4;
#X connect 452 177 238 3;
#X connect 452 178 238 2;
#X connect 452 179 238 1;
#X connect 452 180 240 0;
#X connect 452 180 240 5;
#X connect 452 181 240 4;
#X connect 452 182 240 3;
#X connect 452 183 240 2;
#X connect 452 184 240 1;
#X connect 452 185 242 0;
#X connect 452 185 242 5;
#X connect 452 186 242 4;
#X connect 452 187 242 3;
#X connect 452 188 242 2;
#X connect 452 189 242 1;
#X connect 452 190 244 0;
#X connect 452 190 244 5;
#X connect 452 191 244 4;
#X connect 452 192 244 3;
#X connect 452 193 244 2;
#X connect 452 194 244 1;
#X connect 452 195 246 0;
#X connect 452 195 246 5;
#X connect 452 196 246 4;
#X connect 452 197 246 3;
#X connect 452 198 246 2;
#X connect 452 199 246 1;
#X connect 452 200 248 0;
#X connect 452 200 248 5;
#X connect 452 201 248 4;
#X connect 452 202 248 3;
#X connect 452 203 248 2;
#X connect 452 204 248 1;
#X connect 452 205 250 0;
#X connect 452 205 250 5;
#X connect 452 206 250 4;
#X connect 452 207 250 3;
#X connect 452 208 250 2;
#X connect 452 209 250 1;
#X connect 452 210 252 0;
#X connect 452 210 252 5;
#X connect 452 211 252 4;
#X connect 452 212 252 3;
#X connect 452 213 252 2;
#X connect 452 214 252 1;
#X connect 452 215 254 0;
#X connect 452 215 254 5;
#X connect 452 216 254 4;
#X connect 452 217 254 3;
#X connect 452 218 254 2;
#X connect 452 219 254 1;
#X connect 452 220 256 0;
#X connect 452 220 256 5;
#X connect 452 221 256 4;
#X connect 452 222 256 3;
#X connect 452 223 256 2;
#X connect 452 224 256 1;
#X connect 452 225 258 0;
#X connect 452 225 258 5;
#X connect 452 226 258 4;
#X connect 452 227 258 3;
#X connect 452 228 258 2;
#X connect 452 229 258 1;
#X connect 452 230 260 0;
#X connect 452 230 260 5;
#X connect 452 231 260 4;
#X connect 452 232 260 3;
#X connect 452 233 260 2;
#X connect 452 234 260 1;
#X connect 452 235 262 0;
#X connect 452 235 262 5;
#X connect 452 236 262 4;
#X connect 452 237 262 3;
#X connect 452 238 262 2;
#X connect 452 239 262 1;
#X connect 452 240 264 0;
#X connect 452 240 264 5;
#X connect 452 241 264 4;
#X connect 452 242 264 3;
#X connect 452 243 264 2;
#X connect 452 244 264 1;
#X connect 452 245 266 0;
#X connect 452 245 266 5;
#X connect 452 246 266 4;
#X connect 452 247 266 3;
#X connect 452 248 266 2;
#X connect 452 249 266 1;
#X connect 452 250 268 0;
#X connect 452 250 268 5;
#X connect 452 251 268 4;
#X connect 452 252 268 3;
#X connect 452 253 268 2;
#X connect 452 254 268 1;
#X connect 452 255 270 0;
#X connect 452 255 270 5;
#X connect 452 256 270 4;
#X connect 452 257 270 3;
#X connect 452 258 270 2;
#X connect 452 259 270 1;
#X connect 452 260 272 0;
#X connect 452 260 272 5;
#X connect 452 261 272 4;
#X connect 452 262 272 3;
#X connect 452 263 272 2;
#X connect 452 264 272 1;
#X connect 452 265 274 0;
#X connect 452 265 274 5;
#X connect 452 266 274 4;
#X connect 452 267 274 3;
#X connect 452 268 274 2;
#X connect 452 269 274 1;
#X connect 452 270 276 0;
#X connect 452 270 276 5;
#X connect 452 271 276 4;
#X connect 452 272 276 3;
#X connect 452 273 276 2;
#X connect 452 274 276 1;
#X connect 452 275 278 0;
#X connect 452 275 278 5;
#X connect 452 276 278 4;
#X connect 452 277 278 3;
#X connect 452 278 278 2;
#X connect 452 279 278 1;
#X connect 452 280 280 0;
#X connect 452 280 280 5;
#X connect 452 281 280 4;
#X connect 452 282 280 3;
#X connect 452 283 280 2;
#X connect 452 284 280 1;
#X connect 452 285 282 0;
#X connect 452 285 282 5;
#X connect 452 286 282 4;
#X connect 452 287 282 3;
#X connect 452 288 282 2;
#X connect 452 289 282 1;
#X connect 452 290 284 0;
#X connect 452 290 284 5;
#X connect 452 291 284 4;
#X connect 452 292 284 3;
#X connect 452 293 284 2;
#X connect 452 294 284 1;
#X connect 452 295 286 0;
#X connect 452 295 286 5;
#X connect 452 296 286 4;
#X connect 452 297 286 3;
#X connect 452 298 286 2;
#X connect 452 299 286 1;
#X connect 452 300 288 0;
#X connect 452 300 288 5;
#X connect 452 301 288 4;
#X connect 452 302 288 3;
#X connect 452 303 288 2;
#X connect 452 304 288 1;
#X connect 452 305 290 0;
#X connect 452 305 290 5;
#X connect 452 306 290 4;
#X connect 452 307 290 3;
#X connect 452 308 290 2;
#X connect 452 309 290 1;
#X connect 452 310 292 0;
#X connect 452 310 292 5;
#X connect 452 311 292 4;
#X connect 452 312 292 3;
#X connect 452 313 292 2;
#X connect 452 314 292 1;
#X connect 452 315 294 0;
#X connect 452 315 294 5;
#X connect 452 316 294 4;
#X connect 452 317 294 3;
#X connect 452 318 294 2;
#X connect 452 319 294 1;
#X connect 452 320 453 0;
#X connect 452 320 453 5;
#X connect 452 321 453 4;
#X connect 452 322 453 3;
#X connect 452 323 453 2;
#X connect 452 324 453 1;
#X connect 453 0 454 0;
#X connect 454 1 459 0;
#X connect 454 2 458 0;
#X connect 454 3 457 0;
#X connect 454 4 456 0;
#X connect 454 5 455 0;
#X connect 461 0 465 0;
#X connect 461 0 464 0;
#X connect 463 0 462 0;
#X connect 464 0 463 0;
#X connect 465 0 460 0;
#X connect 466 0 461 0;
#X restore 644 168 pd OBLoadPreset;
#X obj 915 250 OBLoadedMidiSettings;
#X obj 916 43 r $midi-msg-send;
#X obj 915 106 s $midi-msg-recv;
#X msg 916 74 label \$1;
#X msg 915 174 label \$1;
#X obj 915 149 r $midi-note-send;
#X obj 914 206 s $midi-note-recv;
#X connect 2 0 10 0;
#X connect 3 0 4 0;
#X connect 4 0 7 1;
#X connect 4 0 9 0;
#X connect 4 0 15 0;
#X connect 5 0 7 0;
#X connect 7 0 16 0;
#X connect 8 0 19 1;
#X connect 8 0 24 0;
#X connect 10 0 4 0;
#X connect 11 0 18 0;
#X connect 11 0 20 2;
#X connect 12 0 18 1;
#X connect 15 0 4 0;
#X connect 16 0 6 0;
#X connect 17 0 19 2;
#X connect 18 0 19 0;
#X connect 19 0 20 0;
#X connect 19 0 21 0;
#X connect 19 1 20 1;
#X connect 22 0 23 0;
#X connect 26 0 28 0;
#X connect 28 0 27 0;
#X connect 29 0 31 0;
#X connect 30 0 29 0;
#X coords 0 -1 1 1 700 20 2 100 100;
