#N canvas -4 -4 1280 718 10;
#X obj 607 207 r perbank;
#X floatatom 606 230 5 0 0 0 - - -;
#X obj 609 261 t b f;
#X obj 612 309 - 1;
#X obj 607 340 mod;
#X obj 614 366 + 1;
#X obj 761 208 r perbank;
#X floatatom 760 231 5 0 0 0 - - -;
#X obj 763 262 t b f;
#X obj 766 310 - 1;
#X obj 761 341 mod;
#X obj 768 367 + 1;
#X msg 768 393 symbol inmidinote-\$1;
#X obj 909 206 r perbank;
#X floatatom 908 229 5 0 0 0 - - -;
#X obj 911 260 t b f;
#X obj 911 280 \$1;
#X obj 914 308 - 1;
#X obj 909 339 mod;
#X obj 916 365 + 1;
#X msg 916 391 symbol inmidich-\$1;
#X obj 1049 204 r perbank;
#X floatatom 1048 227 5 0 0 0 - - -;
#X obj 1051 258 t b f;
#X obj 1051 278 \$1;
#X obj 1054 306 - 1;
#X obj 1049 337 mod;
#X obj 1056 363 + 1;
#X msg 1056 389 symbol midibank-\$1;
#X obj 763 286 \$1;
#X obj 609 281 \$1;
#X obj 550 236 f;
#X obj 538 204 t f f;
#X msg 550 272 set \$1;
#X obj 550 351 s;
#X obj 705 235 f;
#X obj 693 203 t f f;
#X msg 705 271 set \$1;
#X obj 705 350 s;
#X obj 847 237 f;
#X obj 835 205 t f f;
#X msg 847 273 set \$1;
#X obj 847 352 s;
#X obj 998 238 f;
#X obj 986 206 t f f;
#X msg 998 274 set \$1;
#X obj 998 353 s;
#X obj 451 246 r perbank;
#X floatatom 450 269 5 0 0 0 - - -;
#X obj 453 300 t b f;
#X obj 456 348 - 1;
#X obj 451 379 mod;
#X obj 458 405 + 1;
#X obj 453 320 \$1;
#X obj 394 275 f;
#X obj 382 243 t f f;
#X msg 394 311 set \$1;
#X obj 394 390 s;
#X obj 361 440 s arg7-recv;
#X obj 382 178 route listenpadnum get_listenpadnum midivelocity get_midivelocity
inmidinote get_inmidinote inmidich get_inmidich midibank get_midibank
, f 150;
#X msg 461 430 symbol listenpadnum-\$1;
#X msg 614 392 symbol midivelocity-\$1;
#X obj 517 401 s arg8-recv;
#X obj 674 421 s arg9-recv;
#X obj 811 427 s arg10-recv;
#X obj 965 422 s arg11-recv;
#X obj 382 118 r QBMidiSettingsClone-\$1;
#X obj 360 155 t a;
#X floatatom 314 328 5 0 0 0 - - -;
#X floatatom 518 302 5 0 0 0 - - -;
#X connect 0 0 1 0;
#X connect 1 0 2 0;
#X connect 2 0 30 0;
#X connect 2 1 4 1;
#X connect 3 0 4 0;
#X connect 4 0 5 0;
#X connect 5 0 61 0;
#X connect 6 0 7 0;
#X connect 7 0 8 0;
#X connect 8 0 29 0;
#X connect 8 1 10 1;
#X connect 9 0 10 0;
#X connect 10 0 11 0;
#X connect 11 0 12 0;
#X connect 12 0 38 1;
#X connect 13 0 14 0;
#X connect 14 0 15 0;
#X connect 15 0 16 0;
#X connect 15 1 18 1;
#X connect 16 0 17 0;
#X connect 17 0 18 0;
#X connect 18 0 19 0;
#X connect 19 0 20 0;
#X connect 20 0 42 1;
#X connect 21 0 22 0;
#X connect 22 0 23 0;
#X connect 23 0 24 0;
#X connect 23 1 26 1;
#X connect 24 0 25 0;
#X connect 25 0 26 0;
#X connect 26 0 27 0;
#X connect 27 0 28 0;
#X connect 28 0 46 1;
#X connect 29 0 9 0;
#X connect 30 0 3 0;
#X connect 31 0 33 0;
#X connect 31 0 62 0;
#X connect 31 0 69 0;
#X connect 32 1 31 1;
#X connect 33 0 34 0;
#X connect 35 0 37 0;
#X connect 35 0 63 0;
#X connect 36 1 35 1;
#X connect 37 0 38 0;
#X connect 39 0 41 0;
#X connect 40 1 39 1;
#X connect 41 0 42 0;
#X connect 41 0 64 0;
#X connect 43 0 45 0;
#X connect 44 1 43 1;
#X connect 45 0 46 0;
#X connect 45 0 65 0;
#X connect 47 0 48 0;
#X connect 48 0 49 0;
#X connect 49 0 53 0;
#X connect 49 1 51 1;
#X connect 50 0 51 0;
#X connect 51 0 52 0;
#X connect 52 0 60 0;
#X connect 53 0 50 0;
#X connect 54 0 56 0;
#X connect 54 0 58 0;
#X connect 54 0 68 0;
#X connect 55 1 54 1;
#X connect 56 0 57 0;
#X connect 59 0 55 0;
#X connect 59 1 54 0;
#X connect 59 2 32 0;
#X connect 59 3 31 0;
#X connect 59 4 36 0;
#X connect 59 5 35 0;
#X connect 59 6 40 0;
#X connect 59 7 39 0;
#X connect 59 8 44 0;
#X connect 59 9 43 0;
#X connect 60 0 57 1;
#X connect 61 0 34 1;
#X connect 66 0 67 0;
#X connect 67 0 59 0;
#X coords 0 718 1 717 15 15 0;
