#N canvas 378 64 711 542 10;
#X floatatom 27 145 5 0 0 0 - - -;
#X obj 27 64 r OBPatternSelectorClone-\$1;
#X obj 299 308 s, f 4;
#X symbolatom 320 274 40 0 0 0 - - -;
#X obj 283 256 \$1;
#X msg 283 285 \$1;
#X msg 36 286 0;
#X obj 32 315 s emode;
#X obj 347 -281 s $seqstep1;
#X obj 362 -259 s $seqstep2;
#X obj 383 -237 s $seqstep3;
#X obj 406 -215 s $seqstep4;
#X obj 426 -194 s $seqstep5;
#X obj 457 -168 s $seqstep6;
#X obj 465 -144 s $seqstep7;
#X obj 482 -123 s $seqstep8;
#X obj 515 -100 s $seqstep9;
#X obj 530 -79 s $seqstep10;
#X obj 541 -57 s $seqstep11;
#X obj 566 -38 s $seqstep12;
#X obj 575 -18 s $seqstep13;
#X obj 604 2 s $seqstep14;
#X obj 619 23 s $seqstep15;
#X obj 637 46 s $seqstep16;
#X msg 237 -179 0;
#X obj 130 167 t b b f f f;
#X obj 209 389 outlet;
#X floatatom 67 99 5 0 0 0 - - -;
#X floatatom 283 229 5 0 0 0 - - -;
#X floatatom 217 291 5 0 0 0 - - -;
#X obj 126 135 + 1;
#X msg 360 219 symbol OBPatternSelector-\$1;
#X msg 346 245 symbol OBSelPattBtn-\$1;
#N canvas 566 29 492 718 selectPlayingSongItem 1;
#X floatatom 40 46 5 0 0 0 - - -;
#X floatatom 186 199 5 0 0 0 - - -;
#X obj 147 197 ==;
#X obj 147 262 change;
#X floatatom 147 221 5 0 0 0 - - -;
#X obj 147 240 t f;
#X msg 147 401 0;
#X obj 147 422 t f;
#X obj 147 329 t b;
#X msg 387 428 0;
#X obj 387 448 t f;
#X obj 387 353 change;
#X obj 387 408 t b;
#X obj 147 305 == 1;
#X floatatom 147 282 5 0 0 0 - - -;
#X obj 147 377 t b;
#X obj 131 13 loadbang;
#X obj 131 47 \$1;
#X obj 162 150 +;
#X obj 203 71 *;
#X obj 262 22 r persongbank;
#X msg 131 79 \$1;
#X obj 192 21 r songbank;
#X obj 40 71 t f;
#X obj 258 46 t f;
#X obj 197 42 t f;
#X obj 147 353 delay 20;
#X floatatom 70 123 5 0 0 0 - - -;
#X obj 387 380 == 0;
#X obj 162 170 t f f;
#X obj 40 20 inlet;
#X obj 20 231 outlet;
#X floatatom 301 546 5 0 0 0 - - -;
#X obj 147 469 unpack f f f;
#X obj 243 589 symbol;
#X symbolatom 292 589 10 0 0 0 - - -;
#X msg 300 772 color \$1;
#X obj 297 821 s;
#X msg 243 565 bang;
#X obj 243 661 t b;
#X obj 243 637 delay 20;
#X obj 243 613 t b;
#X obj 243 685 pack f f;
#X obj 243 709 unpack f f;
#X floatatom 300 729 5 0 0 0 - - -;
#X obj 243 545 delay 10;
#X obj 288 663 t f;
#X obj 147 447 pack f f f;
#X floatatom 542 545 5 0 0 0 - - -;
#X obj 387 492 unpack f f f;
#X obj 499 605 symbol;
#X symbolatom 542 586 10 0 0 0 - - -;
#X msg 520 777 color \$1;
#X obj 517 825 s;
#X msg 483 583 bang;
#X obj 499 675 t b;
#X obj 499 653 delay 20;
#X obj 499 631 t b;
#X obj 499 701 pack f f;
#X obj 499 725 unpack f f;
#X floatatom 520 754 5 0 0 0 - - -;
#X obj 483 563 delay 10;
#X obj 544 674 t f;
#X obj 456 539 t f b;
#X obj 387 470 pack f f f;
#X obj 444 449 r plcolor-send;
#X obj 209 421 r playingcolor-send;
#X obj 216 512 t f b;
#X msg 301 567 symbol \$1-songitem-recv;
#X msg 542 565 symbol \$1-songitem-recv;
#X obj 181 492 t f f b b;
#X obj 421 515 t f f b b;
#X floatatom 206 175 5 0 0 0 - - -;
#X obj 40 148 t f f f f b;
#X obj 567 755 t f;
#X obj 300 750 t f;
#X floatatom 243 138 5 0 0 0 - - -;
#X obj 243 115 + 16;
#X obj 243 186 s nextpageitemtotal;
#X obj 204 93 t b f f;
#X obj 247 161 t f;
#X obj 104 126 t f;
#X msg 75 59 1;
#X obj 92 23 bng 15 250 50 0 empty empty empty 17 7 0 10 -262144 -1
-1;
#X obj 70 97 count 1 64;
#X connect 0 0 23 0;
#X connect 2 0 4 0;
#X connect 3 0 14 0;
#X connect 4 0 5 0;
#X connect 5 0 3 0;
#X connect 6 0 7 0;
#X connect 7 0 47 0;
#X connect 8 0 26 0;
#X connect 9 0 10 0;
#X connect 10 0 64 0;
#X connect 11 0 28 0;
#X connect 12 0 9 0;
#X connect 13 0 8 0;
#X connect 13 0 11 0;
#X connect 14 0 13 0;
#X connect 15 0 6 0;
#X connect 16 0 17 0;
#X connect 17 0 21 0;
#X connect 18 0 72 0;
#X connect 18 0 29 0;
#X connect 19 0 79 0;
#X connect 20 0 24 0;
#X connect 21 0 18 0;
#X connect 22 0 25 0;
#X connect 23 0 73 0;
#X connect 24 0 19 1;
#X connect 25 0 19 0;
#X connect 26 0 15 0;
#X connect 28 0 12 0;
#X connect 29 0 2 1;
#X connect 29 0 1 0;
#X connect 30 0 0 0;
#X connect 32 0 68 0;
#X connect 33 1 70 0;
#X connect 33 2 67 0;
#X connect 34 0 37 1;
#X connect 34 0 41 0;
#X connect 35 0 34 1;
#X connect 36 0 37 0;
#X connect 38 0 34 0;
#X connect 39 0 42 0;
#X connect 40 0 39 0;
#X connect 41 0 40 0;
#X connect 42 0 43 0;
#X connect 43 1 44 0;
#X connect 44 0 75 0;
#X connect 45 0 38 0;
#X connect 46 0 42 1;
#X connect 47 0 33 0;
#X connect 48 0 69 0;
#X connect 49 1 71 0;
#X connect 49 2 63 0;
#X connect 50 0 53 1;
#X connect 50 0 57 0;
#X connect 51 0 50 1;
#X connect 52 0 53 0;
#X connect 54 0 50 0;
#X connect 55 0 58 0;
#X connect 56 0 55 0;
#X connect 57 0 56 0;
#X connect 58 0 59 0;
#X connect 59 1 60 0;
#X connect 59 1 74 0;
#X connect 60 0 52 0;
#X connect 61 0 54 0;
#X connect 62 0 58 1;
#X connect 63 0 62 0;
#X connect 63 1 61 0;
#X connect 64 0 49 0;
#X connect 65 0 64 2;
#X connect 66 0 47 2;
#X connect 67 0 46 0;
#X connect 67 1 45 0;
#X connect 68 0 35 0;
#X connect 69 0 51 0;
#X connect 70 0 32 0;
#X connect 71 0 48 0;
#X connect 73 0 47 1;
#X connect 73 1 64 1;
#X connect 73 2 2 0;
#X connect 73 4 31 0;
#X connect 75 0 36 0;
#X connect 76 0 80 0;
#X connect 77 0 76 0;
#X connect 79 0 18 0;
#X connect 79 1 18 1;
#X connect 79 2 77 0;
#X connect 80 0 78 0;
#X connect 82 0 84 0;
#X connect 83 0 84 0;
#X connect 84 0 81 0;
#X connect 84 0 27 0;
#X restore 264 133 pd selectPlayingSongItem \$1;
#X obj 228 17 r selsongitem;
#X obj 263 108 t f;
#X obj 362 81 t f;
#N canvas -4 -4 1280 718 selectPattBtn 0;
#X floatatom 40 46 5 0 0 0 - - -;
#X floatatom 186 199 5 0 0 0 - - -;
#X obj 147 197 ==;
#X obj 147 262 change;
#X floatatom 147 221 5 0 0 0 - - -;
#X obj 147 240 t f;
#X msg 147 401 0;
#X obj 147 422 t f;
#X obj 147 329 t b;
#X msg 387 428 0;
#X obj 387 448 t f;
#X obj 387 353 change;
#X obj 387 408 t b;
#X obj 147 305 == 1;
#X floatatom 147 282 5 0 0 0 - - -;
#X obj 147 377 t b;
#X obj 131 13 loadbang;
#X obj 131 47 \$1;
#X obj 162 150 +;
#X obj 203 71 *;
#X obj 262 22 r persongbank;
#X msg 131 79 \$1;
#X obj 192 21 r songbank;
#X obj 40 71 t f;
#X obj 258 46 t f;
#X obj 197 42 t f;
#X obj 147 353 delay 20;
#X floatatom 40 123 5 0 0 0 - - -;
#X obj 387 380 == 0;
#X obj 162 170 t f f;
#X obj 40 20 inlet;
#X obj 20 231 outlet;
#X floatatom 301 546 5 0 0 0 - - -;
#X obj 147 469 unpack f f f;
#X obj 243 589 symbol;
#X symbolatom 292 589 10 0 0 0 - - -;
#X msg 300 772 color \$1;
#X obj 297 821 s;
#X msg 243 565 bang;
#X obj 243 661 t b;
#X obj 243 637 delay 20;
#X obj 243 613 t b;
#X obj 243 685 pack f f;
#X obj 243 709 unpack f f;
#X floatatom 300 729 5 0 0 0 - - -;
#X obj 243 545 delay 10;
#X obj 288 663 t f;
#X obj 147 447 pack f f f;
#X floatatom 542 545 5 0 0 0 - - -;
#X obj 387 492 unpack f f f;
#X obj 499 605 symbol;
#X symbolatom 542 586 10 0 0 0 - - -;
#X msg 520 777 color \$1;
#X obj 517 825 s;
#X msg 483 583 bang;
#X obj 499 675 t b;
#X obj 499 653 delay 20;
#X obj 499 631 t b;
#X obj 499 701 pack f f;
#X obj 499 725 unpack f f;
#X floatatom 520 754 5 0 0 0 - - -;
#X obj 483 563 delay 10;
#X obj 544 674 t f;
#X obj 456 539 t f b;
#X obj 387 470 pack f f f;
#X obj 444 449 r plcolor-send;
#X obj 216 512 t f b;
#X obj 40 97 count 1 64;
#X floatatom 206 175 5 0 0 0 - - -;
#X obj 40 148 t f f f f b;
#X obj 567 755 t f;
#X obj 300 750 t f;
#X floatatom 243 138 5 0 0 0 - - -;
#X obj 243 115 + 16;
#X obj 243 157 s nextpageitemtotal;
#X obj 204 93 t b f f;
#X msg 301 567 symbol \$1-patternbtn-recv;
#X msg 542 565 symbol \$1-patternbtn-recv;
#X obj 209 421 r playingcolor-send;
#X obj 181 492 t f;
#X obj 421 515 t f;
#X connect 0 0 23 0;
#X connect 2 0 4 0;
#X connect 3 0 14 0;
#X connect 4 0 5 0;
#X connect 5 0 3 0;
#X connect 6 0 7 0;
#X connect 7 0 47 0;
#X connect 8 0 26 0;
#X connect 9 0 10 0;
#X connect 10 0 64 0;
#X connect 11 0 28 0;
#X connect 12 0 9 0;
#X connect 13 0 8 0;
#X connect 13 0 11 0;
#X connect 14 0 13 0;
#X connect 15 0 6 0;
#X connect 16 0 17 0;
#X connect 17 0 21 0;
#X connect 18 0 68 0;
#X connect 18 0 29 0;
#X connect 19 0 75 0;
#X connect 20 0 24 0;
#X connect 21 0 18 0;
#X connect 22 0 25 0;
#X connect 23 0 67 0;
#X connect 24 0 19 1;
#X connect 25 0 19 0;
#X connect 26 0 15 0;
#X connect 27 0 69 0;
#X connect 28 0 12 0;
#X connect 29 0 2 1;
#X connect 29 0 1 0;
#X connect 30 0 0 0;
#X connect 32 0 76 0;
#X connect 33 1 79 0;
#X connect 33 2 66 0;
#X connect 34 0 37 1;
#X connect 34 0 41 0;
#X connect 35 0 34 1;
#X connect 36 0 37 0;
#X connect 38 0 34 0;
#X connect 39 0 42 0;
#X connect 40 0 39 0;
#X connect 41 0 40 0;
#X connect 42 0 43 0;
#X connect 43 1 44 0;
#X connect 44 0 71 0;
#X connect 45 0 38 0;
#X connect 46 0 42 1;
#X connect 47 0 33 0;
#X connect 48 0 77 0;
#X connect 49 1 80 0;
#X connect 49 2 63 0;
#X connect 50 0 53 1;
#X connect 50 0 57 0;
#X connect 51 0 50 1;
#X connect 52 0 53 0;
#X connect 54 0 50 0;
#X connect 55 0 58 0;
#X connect 56 0 55 0;
#X connect 57 0 56 0;
#X connect 58 0 59 0;
#X connect 59 1 60 0;
#X connect 59 1 70 0;
#X connect 60 0 52 0;
#X connect 61 0 54 0;
#X connect 62 0 58 1;
#X connect 63 0 62 0;
#X connect 63 1 61 0;
#X connect 64 0 49 0;
#X connect 65 0 64 2;
#X connect 66 0 46 0;
#X connect 66 1 45 0;
#X connect 67 0 27 0;
#X connect 69 0 47 1;
#X connect 69 1 64 1;
#X connect 69 2 2 0;
#X connect 69 4 31 0;
#X connect 71 0 36 0;
#X connect 72 0 74 0;
#X connect 73 0 72 0;
#X connect 75 0 18 0;
#X connect 75 1 18 1;
#X connect 75 2 73 0;
#X connect 76 0 35 0;
#X connect 77 0 51 0;
#X connect 78 0 47 2;
#X connect 79 0 32 0;
#X connect 80 0 48 0;
#X restore 363 106 pd selectPattBtn \$1;
#X obj 352 10 r pattnum;
#N canvas -4 -4 1280 718 selectactivePattBtn 0;
#X floatatom 40 46 5 0 0 0 - - -;
#X floatatom 186 199 5 0 0 0 - - -;
#X obj 147 197 ==;
#X obj 147 262 change;
#X floatatom 147 221 5 0 0 0 - - -;
#X obj 147 240 t f;
#X msg 147 401 0;
#X obj 147 422 t f;
#X obj 147 329 t b;
#X msg 387 428 0;
#X obj 387 448 t f;
#X obj 387 353 change;
#X obj 387 408 t b;
#X obj 147 305 == 1;
#X floatatom 147 282 5 0 0 0 - - -;
#X obj 147 377 t b;
#X obj 131 13 loadbang;
#X obj 131 47 \$1;
#X obj 162 150 +;
#X obj 203 71 *;
#X obj 262 22 r persongbank;
#X msg 131 79 \$1;
#X obj 192 21 r songbank;
#X obj 258 46 t f;
#X obj 197 42 t f;
#X obj 147 353 delay 20;
#X floatatom 58 129 5 0 0 0 - - -;
#X obj 387 380 == 0;
#X obj 162 170 t f f;
#X obj 40 20 inlet;
#X obj 20 231 outlet;
#X floatatom 301 546 5 0 0 0 - - -;
#X obj 147 469 unpack f f f;
#X obj 243 589 symbol;
#X symbolatom 292 589 10 0 0 0 - - -;
#X msg 300 772 color \$1;
#X obj 297 821 s;
#X msg 243 565 bang;
#X obj 243 661 t b;
#X obj 243 637 delay 20;
#X obj 243 613 t b;
#X obj 243 685 pack f f;
#X obj 243 709 unpack f f;
#X floatatom 300 729 5 0 0 0 - - -;
#X obj 243 545 delay 10;
#X obj 288 663 t f;
#X obj 147 447 pack f f f;
#X floatatom 542 545 5 0 0 0 - - -;
#X obj 387 492 unpack f f f;
#X obj 499 605 symbol;
#X symbolatom 542 586 10 0 0 0 - - -;
#X msg 520 777 color \$1;
#X obj 517 825 s;
#X msg 483 583 bang;
#X obj 499 675 t b;
#X obj 499 653 delay 20;
#X obj 499 631 t b;
#X obj 499 701 pack f f;
#X obj 499 725 unpack f f;
#X floatatom 520 754 5 0 0 0 - - -;
#X obj 483 563 delay 10;
#X obj 544 674 t f;
#X obj 456 539 t f b;
#X obj 387 470 pack f f f;
#X obj 444 449 r plcolor-send;
#X obj 216 512 t f b;
#X obj 58 103 count 1 64;
#X obj 181 492 t f f b b;
#X obj 421 515 t f f b b;
#X floatatom 206 175 5 0 0 0 - - -;
#X obj 40 148 t f f f f b;
#X obj 567 755 t f;
#X obj 300 750 t f;
#X floatatom 243 138 5 0 0 0 - - -;
#X obj 243 115 + 16;
#X obj 243 157 s nextpageitemtotal;
#X obj 204 93 t b f f;
#X msg 301 567 symbol \$1-patternbtn-recv;
#X msg 542 565 symbol \$1-patternbtn-recv;
#X obj 208 420 r aplcolor-send;
#X obj 40 71 t a;
#X connect 0 0 80 0;
#X connect 2 0 4 0;
#X connect 3 0 14 0;
#X connect 4 0 5 0;
#X connect 5 0 3 0;
#X connect 6 0 7 0;
#X connect 7 0 46 0;
#X connect 8 0 25 0;
#X connect 9 0 10 0;
#X connect 10 0 63 0;
#X connect 11 0 27 0;
#X connect 12 0 9 0;
#X connect 13 0 8 0;
#X connect 13 0 11 0;
#X connect 14 0 13 0;
#X connect 15 0 6 0;
#X connect 16 0 17 0;
#X connect 17 0 21 0;
#X connect 18 0 69 0;
#X connect 18 0 28 0;
#X connect 19 0 76 0;
#X connect 20 0 23 0;
#X connect 21 0 18 0;
#X connect 22 0 24 0;
#X connect 23 0 19 1;
#X connect 24 0 19 0;
#X connect 25 0 15 0;
#X connect 27 0 12 0;
#X connect 28 0 2 1;
#X connect 28 0 1 0;
#X connect 29 0 0 0;
#X connect 31 0 77 0;
#X connect 32 1 67 0;
#X connect 32 2 65 0;
#X connect 33 0 36 1;
#X connect 33 0 40 0;
#X connect 34 0 33 1;
#X connect 35 0 36 0;
#X connect 37 0 33 0;
#X connect 38 0 41 0;
#X connect 39 0 38 0;
#X connect 40 0 39 0;
#X connect 41 0 42 0;
#X connect 42 1 43 0;
#X connect 43 0 72 0;
#X connect 44 0 37 0;
#X connect 45 0 41 1;
#X connect 46 0 32 0;
#X connect 47 0 78 0;
#X connect 48 1 68 0;
#X connect 48 2 62 0;
#X connect 49 0 52 1;
#X connect 49 0 56 0;
#X connect 50 0 49 1;
#X connect 51 0 52 0;
#X connect 53 0 49 0;
#X connect 54 0 57 0;
#X connect 55 0 54 0;
#X connect 56 0 55 0;
#X connect 57 0 58 0;
#X connect 58 1 59 0;
#X connect 58 1 71 0;
#X connect 59 0 51 0;
#X connect 60 0 53 0;
#X connect 61 0 57 1;
#X connect 62 0 61 0;
#X connect 62 1 60 0;
#X connect 63 0 48 0;
#X connect 64 0 63 2;
#X connect 65 0 45 0;
#X connect 65 1 44 0;
#X connect 66 0 26 0;
#X connect 67 0 31 0;
#X connect 68 0 47 0;
#X connect 70 0 46 1;
#X connect 70 1 63 1;
#X connect 70 2 2 0;
#X connect 70 4 30 0;
#X connect 72 0 35 0;
#X connect 73 0 75 0;
#X connect 74 0 73 0;
#X connect 76 0 18 0;
#X connect 76 1 18 1;
#X connect 76 2 74 0;
#X connect 77 0 34 0;
#X connect 78 0 50 0;
#X connect 79 0 46 2;
#X connect 80 0 70 0;
#X restore 451 81 pd selectactivePattBtn \$1;
#X floatatom 280 171 5 0 0 0 - - -;
#X floatatom 471 33 5 0 0 0 - - -;
#X obj 450 56 t f;
#X obj 452 -17 r \$1-indexitem-recv;
#X connect 0 0 30 0;
#X connect 1 0 27 0;
#X connect 1 0 0 0;
#X connect 3 0 2 1;
#X connect 4 0 5 0;
#X connect 5 0 2 0;
#X connect 6 0 7 0;
#X connect 24 0 8 0;
#X connect 24 0 23 0;
#X connect 24 0 22 0;
#X connect 24 0 21 0;
#X connect 24 0 20 0;
#X connect 24 0 19 0;
#X connect 24 0 18 0;
#X connect 24 0 17 0;
#X connect 24 0 16 0;
#X connect 24 0 15 0;
#X connect 24 0 14 0;
#X connect 24 0 13 0;
#X connect 24 0 12 0;
#X connect 24 0 11 0;
#X connect 24 0 10 0;
#X connect 24 0 9 0;
#X connect 25 1 6 0;
#X connect 25 2 26 0;
#X connect 25 2 29 0;
#X connect 25 3 32 0;
#X connect 25 4 28 0;
#X connect 28 0 4 0;
#X connect 30 0 25 0;
#X connect 32 0 3 0;
#X connect 34 0 35 0;
#X connect 35 0 33 0;
#X connect 35 0 40 0;
#X connect 36 0 37 0;
#X connect 38 0 36 0;
#X connect 41 0 42 0;
#X connect 42 0 39 0;
#X connect 43 0 42 0;
#X coords 0 542 1 541 20 20 0;
