#N canvas 641 36 596 542 10;
#X floatatom 27 145 5 0 0 0 - - -;
#X obj 27 64 r OBPatternSelectorClone-\$1;
#X obj 299 308 s, f 4;
#X symbolatom 320 274 40 0 0 0 - - -;
#X obj 283 256 \$1;
#X msg 283 285 \$1;
#X msg 36 286 0;
#X obj 32 315 s emode;
#X obj 347 -281 s $seqstep1;
#X obj 362 -259 s $seqstep2;
#X obj 383 -237 s $seqstep3;
#X obj 406 -215 s $seqstep4;
#X obj 426 -194 s $seqstep5;
#X obj 457 -168 s $seqstep6;
#X obj 465 -144 s $seqstep7;
#X obj 482 -123 s $seqstep8;
#X obj 515 -100 s $seqstep9;
#X obj 530 -79 s $seqstep10;
#X obj 541 -57 s $seqstep11;
#X obj 566 -38 s $seqstep12;
#X obj 575 -18 s $seqstep13;
#X obj 604 2 s $seqstep14;
#X obj 619 23 s $seqstep15;
#X obj 637 46 s $seqstep16;
#X msg 237 -179 0;
#X obj 130 167 t b b f f f;
#X obj 209 389 outlet;
#X floatatom 67 99 5 0 0 0 - - -;
#X floatatom 283 229 5 0 0 0 - - -;
#X obj 285 19 loadbang;
#X obj 285 43 \$1;
#X msg 285 66 \$1;
#X obj 316 131 +, f 8;
#X obj 336 103 t b f;
#X obj 336 77 *;
#X obj 355 19 r pat-bank;
#X obj 364 51 r perbank;
#X floatatom 217 291 5 0 0 0 - - -;
#N canvas -8 -8 1280 766 selectPlayingPattern 0;
#X floatatom 232 7 5 0 0 0 - - -;
#X floatatom 380 154 5 0 0 0 - - -;
#X obj 339 156 ==;
#X obj 339 228 change;
#X floatatom 339 182 5 0 0 0 - - -;
#X obj 340 204 t f;
#X msg 338 392 0;
#X obj 338 414 t f;
#X obj 338 315 t b;
#X msg 598 398 0;
#X obj 598 416 t f;
#X obj 598 274 change;
#X obj 598 329 t b;
#X obj 338 281 == 1;
#X floatatom 339 253 5 0 0 0 - - -;
#X obj 338 363 t b;
#X obj 323 -28 loadbang;
#X obj 323 6 \$1;
#X obj 390 80 +;
#X obj 395 23 *;
#X obj 395 52 t b f;
#X obj 454 -19 r persongbank;
#X msg 323 38 \$1;
#X obj 384 -20 r songbank;
#X obj 232 32 t f;
#X obj 450 5 t f;
#X obj 389 1 t f;
#X obj 338 341 delay 20;
#X floatatom 482 83 5 0 0 0 - - -;
#X floatatom 233 87 5 0 0 0 - - -;
#X obj 598 301 == 0;
#X obj 355 119 t f f;
#X obj 168 8 inlet;
#X obj 232 112 t f f f b;
#X obj 233 231 outlet;
#X floatatom 517 568 5 0 0 0 - - -;
#X obj 339 488 unpack f f f;
#X obj 475 669 symbol;
#X symbolatom 522 634 10 0 0 0 - - -;
#X msg 528 860 color \$1;
#X obj 528 880 s;
#X msg 468 641 bang;
#X obj 477 742 t b;
#X obj 476 719 delay 20;
#X obj 475 695 t b;
#X obj 477 769 pack f f;
#X obj 483 793 unpack f f;
#X floatatom 498 822 5 0 0 0 - - -;
#X obj 457 618 delay 10;
#X obj 537 826 t f;
#X obj 522 748 t f;
#X msg 518 602 symbol \$1-patternbtn-recv;
#X obj 338 439 pack f f f;
#X floatatom 807 569 5 0 0 0 - - -;
#X obj 629 489 unpack f f f;
#X obj 765 670 symbol;
#X symbolatom 812 635 10 0 0 0 - - -;
#X msg 818 861 color \$1;
#X obj 818 881 s;
#X msg 758 642 bang;
#X obj 767 743 t b;
#X obj 766 720 delay 20;
#X obj 765 696 t b;
#X obj 767 770 pack f f;
#X obj 773 794 unpack f f;
#X floatatom 788 823 5 0 0 0 - - -;
#X obj 747 619 delay 10;
#X obj 827 827 t f;
#X obj 812 749 t f;
#X obj 747 517 t f b;
#X msg 808 603 symbol \$1-patternbtn-recv;
#X obj 598 441 pack f f f;
#X obj 424 374 r aplcolor-send;
#X obj 656 401 r plcolor-send;
#X obj 428 400 r playingcolor-send;
#X obj 449 171 r pattnum;
#X floatatom 446 194 5 0 0 0 - - -;
#X obj 442 216 t f;
#X obj 471 510 t f b;
#X obj 117 63 count 1 64;
#X connect 0 0 24 0;
#X connect 2 0 4 0;
#X connect 3 0 14 0;
#X connect 4 0 5 0;
#X connect 5 0 3 0;
#X connect 6 0 7 0;
#X connect 7 0 52 0;
#X connect 8 0 27 0;
#X connect 9 0 10 0;
#X connect 10 0 71 0;
#X connect 11 0 30 0;
#X connect 12 0 9 0;
#X connect 13 0 8 0;
#X connect 13 0 11 0;
#X connect 14 0 13 0;
#X connect 15 0 6 0;
#X connect 16 0 17 0;
#X connect 17 0 22 0;
#X connect 19 0 20 0;
#X connect 19 0 28 0;
#X connect 20 0 18 0;
#X connect 21 0 25 0;
#X connect 22 0 31 0;
#X connect 23 0 26 0;
#X connect 24 0 79 0;
#X connect 25 0 19 1;
#X connect 26 0 19 0;
#X connect 27 0 15 0;
#X connect 29 0 33 0;
#X connect 30 0 12 0;
#X connect 31 0 2 1;
#X connect 31 0 1 0;
#X connect 32 0 0 0;
#X connect 33 0 52 1;
#X connect 33 1 71 1;
#X connect 33 2 2 0;
#X connect 33 3 34 0;
#X connect 35 0 51 0;
#X connect 36 1 35 0;
#X connect 36 2 78 0;
#X connect 37 0 40 1;
#X connect 37 0 44 0;
#X connect 38 0 37 1;
#X connect 39 0 40 0;
#X connect 41 0 37 0;
#X connect 42 0 45 0;
#X connect 43 0 42 0;
#X connect 44 0 43 0;
#X connect 45 0 46 0;
#X connect 46 1 47 0;
#X connect 46 1 49 0;
#X connect 48 0 41 0;
#X connect 49 0 39 0;
#X connect 50 0 45 1;
#X connect 51 0 38 0;
#X connect 52 0 36 0;
#X connect 53 0 70 0;
#X connect 54 1 53 0;
#X connect 54 2 69 0;
#X connect 55 0 58 1;
#X connect 55 0 62 0;
#X connect 56 0 55 1;
#X connect 57 0 58 0;
#X connect 59 0 55 0;
#X connect 60 0 63 0;
#X connect 61 0 60 0;
#X connect 62 0 61 0;
#X connect 63 0 64 0;
#X connect 64 1 65 0;
#X connect 64 1 67 0;
#X connect 66 0 59 0;
#X connect 67 0 57 0;
#X connect 68 0 63 1;
#X connect 69 0 68 0;
#X connect 69 1 66 0;
#X connect 70 0 56 0;
#X connect 71 0 54 0;
#X connect 73 0 71 2;
#X connect 74 0 52 2;
#X connect 75 0 76 0;
#X connect 76 0 77 0;
#X connect 78 0 50 0;
#X connect 78 1 48 0;
#X connect 79 0 29 0;
#X restore 364 194 pd selectPlayingPattern \$1;
#X floatatom 433 167 5 0 0 0 - - -;
#X obj 410 126 r pattnum;
#X obj 126 135 + 1;
#X msg 360 219 symbol OBPatternSelector-\$1;
#X msg 346 245 symbol OBSelPattBtn-\$1;
#N canvas 160 63 1040 594 selectPlayingSongItem 0;
#X floatatom 232 7 5 0 0 0 - - -;
#X floatatom 380 154 5 0 0 0 - - -;
#X obj 339 156 ==;
#X obj 339 228 change;
#X floatatom 339 182 5 0 0 0 - - -;
#X obj 340 204 t f;
#X msg 338 392 0;
#X obj 338 414 t f;
#X obj 338 315 t b;
#X msg 598 398 0;
#X obj 598 416 t f;
#X obj 598 274 change;
#X obj 598 329 t b;
#X obj 338 281 == 1;
#X floatatom 339 253 5 0 0 0 - - -;
#X obj 338 363 t b;
#X obj 323 -28 loadbang;
#X obj 323 6 \$1;
#X obj 390 80 +;
#X obj 395 23 *;
#X obj 395 52 t b f;
#X obj 454 -19 r persongbank;
#X msg 323 38 \$1;
#X obj 384 -20 r songbank;
#X obj 232 32 t f;
#X obj 450 5 t f;
#X obj 389 1 t f;
#X obj 338 341 delay 20;
#X floatatom 283 653 5 0 0 0 - - -;
#X floatatom 233 87 5 0 0 0 - - -;
#X obj 598 301 == 0;
#X obj 355 119 t f f;
#X obj 168 8 inlet;
#X obj 232 112 t f f f b;
#X obj 233 231 outlet;
#X floatatom 517 568 5 0 0 0 - - -;
#X obj 339 488 unpack f f f;
#X obj 475 669 symbol;
#X symbolatom 522 634 10 0 0 0 - - -;
#X msg 528 860 color \$1;
#X obj 528 880 s;
#X msg 468 641 bang;
#X obj 477 742 t b;
#X obj 476 719 delay 20;
#X obj 475 695 t b;
#X obj 477 769 pack f f;
#X obj 483 793 unpack f f;
#X floatatom 498 822 5 0 0 0 - - -;
#X obj 457 618 delay 10;
#X obj 522 748 t f;
#X obj 338 439 pack f f f;
#X floatatom 807 569 5 0 0 0 - - -;
#X obj 629 489 unpack f f f;
#X obj 765 670 symbol;
#X symbolatom 812 635 10 0 0 0 - - -;
#X msg 818 861 color \$1;
#X obj 818 881 s;
#X msg 758 642 bang;
#X obj 767 743 t b;
#X obj 766 720 delay 20;
#X obj 765 696 t b;
#X obj 767 770 pack f f;
#X obj 773 794 unpack f f;
#X floatatom 788 823 5 0 0 0 - - -;
#X obj 747 619 delay 10;
#X obj 812 749 t f;
#X obj 747 517 t f b;
#X obj 598 441 pack f f f;
#X obj 424 374 r aplcolor-send;
#X obj 656 401 r plcolor-send;
#X obj 428 400 r playingcolor-send;
#X obj 471 510 t f b;
#X obj 117 63 count 1 64;
#X msg 518 602 symbol \$1-songitem-recv;
#X msg 808 603 symbol \$1-songitem-recv;
#X obj 61 625 r currentsteps;
#X obj 176 626 r selsongitem;
#X floatatom 61 646 5 0 0 0 - - -;
#X floatatom 176 648 5 0 0 0 - - -;
#X obj 305 689 f;
#X obj 161 687 f;
#X obj 46 683 f;
#X obj 278 735 >;
#X obj 267 686 f;
#X text 264 752 bang to next songlist page;
#X floatatom 307 713 5 0 0 0 - - -;
#X obj 537 826 t f f b b;
#X obj 827 827 t f f b b;
#X floatatom 279 770 5 0 0 0 - - -;
#X connect 0 0 24 0;
#X connect 2 0 4 0;
#X connect 3 0 14 0;
#X connect 4 0 5 0;
#X connect 5 0 3 0;
#X connect 6 0 7 0;
#X connect 7 0 50 0;
#X connect 8 0 27 0;
#X connect 9 0 10 0;
#X connect 10 0 67 0;
#X connect 11 0 30 0;
#X connect 12 0 9 0;
#X connect 13 0 8 0;
#X connect 13 0 11 0;
#X connect 14 0 13 0;
#X connect 15 0 6 0;
#X connect 16 0 17 0;
#X connect 17 0 22 0;
#X connect 19 0 20 0;
#X connect 19 0 28 0;
#X connect 20 0 18 0;
#X connect 21 0 25 0;
#X connect 22 0 31 0;
#X connect 23 0 26 0;
#X connect 24 0 72 0;
#X connect 25 0 19 1;
#X connect 26 0 19 0;
#X connect 27 0 15 0;
#X connect 28 0 83 1;
#X connect 29 0 33 0;
#X connect 30 0 12 0;
#X connect 31 0 2 1;
#X connect 31 0 1 0;
#X connect 32 0 0 0;
#X connect 33 0 50 1;
#X connect 33 1 67 1;
#X connect 33 2 2 0;
#X connect 33 3 34 0;
#X connect 35 0 73 0;
#X connect 36 1 35 0;
#X connect 36 2 71 0;
#X connect 37 0 40 1;
#X connect 37 0 44 0;
#X connect 38 0 37 1;
#X connect 39 0 40 0;
#X connect 41 0 37 0;
#X connect 42 0 45 0;
#X connect 43 0 42 0;
#X connect 44 0 43 0;
#X connect 45 0 46 0;
#X connect 46 1 47 0;
#X connect 46 1 86 0;
#X connect 48 0 41 0;
#X connect 49 0 45 1;
#X connect 50 0 36 0;
#X connect 51 0 74 0;
#X connect 52 1 51 0;
#X connect 52 2 66 0;
#X connect 53 0 56 1;
#X connect 53 0 60 0;
#X connect 54 0 53 1;
#X connect 55 0 56 0;
#X connect 57 0 53 0;
#X connect 58 0 61 0;
#X connect 59 0 58 0;
#X connect 60 0 59 0;
#X connect 61 0 62 0;
#X connect 62 1 63 0;
#X connect 62 1 87 0;
#X connect 64 0 57 0;
#X connect 65 0 61 1;
#X connect 66 0 65 0;
#X connect 66 1 64 0;
#X connect 67 0 52 0;
#X connect 69 0 67 2;
#X connect 70 0 50 2;
#X connect 71 0 49 0;
#X connect 71 1 48 0;
#X connect 72 0 29 0;
#X connect 73 0 38 0;
#X connect 74 0 54 0;
#X connect 75 0 77 0;
#X connect 76 0 78 0;
#X connect 77 0 81 1;
#X connect 78 0 80 1;
#X connect 79 0 85 0;
#X connect 82 0 88 0;
#X connect 83 0 82 0;
#X connect 85 0 82 1;
#X connect 86 0 39 0;
#X connect 86 1 79 1;
#X connect 86 2 79 0;
#X connect 86 3 83 0;
#X connect 87 0 55 0;
#X connect 87 1 79 1;
#X connect 87 2 79 0;
#X connect 87 3 83 0;
#X restore 498 165 pd selectPlayingSongItem \$1;
#X obj 381 161 t f f;
#X obj 514 114 r selsongitem;
#X obj 497 140 t f;
#X connect 0 0 41 0;
#X connect 1 0 27 0;
#X connect 1 0 0 0;
#X connect 3 0 2 1;
#X connect 4 0 5 0;
#X connect 5 0 2 0;
#X connect 6 0 7 0;
#X connect 24 0 8 0;
#X connect 24 0 23 0;
#X connect 24 0 22 0;
#X connect 24 0 21 0;
#X connect 24 0 20 0;
#X connect 24 0 19 0;
#X connect 24 0 18 0;
#X connect 24 0 17 0;
#X connect 24 0 16 0;
#X connect 24 0 15 0;
#X connect 24 0 14 0;
#X connect 24 0 13 0;
#X connect 24 0 12 0;
#X connect 24 0 11 0;
#X connect 24 0 10 0;
#X connect 24 0 9 0;
#X connect 25 1 6 0;
#X connect 25 2 26 0;
#X connect 25 2 37 0;
#X connect 25 3 43 0;
#X connect 25 4 28 0;
#X connect 28 0 4 0;
#X connect 29 0 30 0;
#X connect 30 0 31 0;
#X connect 31 0 32 0;
#X connect 33 0 32 0;
#X connect 33 1 32 1;
#X connect 34 0 33 0;
#X connect 35 0 34 0;
#X connect 36 0 34 1;
#X connect 40 0 39 0;
#X connect 40 0 45 0;
#X connect 41 0 25 0;
#X connect 43 0 3 0;
#X connect 45 0 38 0;
#X connect 46 0 47 0;
#X connect 47 0 44 0;
#X coords 0 542 1 541 20 20 0;
