#N canvas 508 18 596 542 10;
#X floatatom 27 145 5 0 0 0 - - -;
#X obj 27 64 r OBPatternSelectorClone-\$1;
#X obj 299 308 s, f 4;
#X symbolatom 320 274 40 0 0 0 - - -;
#X obj 283 256 \$1;
#X msg 283 285 \$1;
#X msg 346 245 symbol OBPatternSelector-\$1;
#X msg 36 286 0;
#X obj 32 315 s emode;
#X obj 347 -281 s $seqstep1;
#X obj 362 -259 s $seqstep2;
#X obj 383 -237 s $seqstep3;
#X obj 406 -215 s $seqstep4;
#X obj 426 -194 s $seqstep5;
#X obj 457 -168 s $seqstep6;
#X obj 465 -144 s $seqstep7;
#X obj 482 -123 s $seqstep8;
#X obj 515 -100 s $seqstep9;
#X obj 530 -79 s $seqstep10;
#X obj 541 -57 s $seqstep11;
#X obj 566 -38 s $seqstep12;
#X obj 575 -18 s $seqstep13;
#X obj 604 2 s $seqstep14;
#X obj 619 23 s $seqstep15;
#X obj 637 46 s $seqstep16;
#X msg 237 -179 0;
#X obj 130 167 t b b f f f;
#X obj 209 389 outlet;
#X floatatom 67 99 5 0 0 0 - - -;
#X floatatom 283 229 5 0 0 0 - - -;
#X obj 285 19 loadbang;
#X obj 285 43 \$1;
#X msg 285 66 \$1;
#X obj 316 131 +, f 8;
#X obj 336 103 t b f;
#X obj 336 77 *;
#X obj 355 19 r pat-bank;
#X obj 364 51 r perbank;
#X floatatom 217 291 5 0 0 0 - - -;
#X connect 0 0 26 0;
#X connect 1 0 28 0;
#X connect 1 0 0 0;
#X connect 3 0 2 1;
#X connect 4 0 5 0;
#X connect 5 0 2 0;
#X connect 6 0 3 0;
#X connect 7 0 8 0;
#X connect 25 0 9 0;
#X connect 25 0 24 0;
#X connect 25 0 23 0;
#X connect 25 0 22 0;
#X connect 25 0 21 0;
#X connect 25 0 20 0;
#X connect 25 0 19 0;
#X connect 25 0 18 0;
#X connect 25 0 17 0;
#X connect 25 0 16 0;
#X connect 25 0 15 0;
#X connect 25 0 14 0;
#X connect 25 0 13 0;
#X connect 25 0 12 0;
#X connect 25 0 11 0;
#X connect 25 0 10 0;
#X connect 26 1 7 0;
#X connect 26 2 27 0;
#X connect 26 2 38 0;
#X connect 26 3 6 0;
#X connect 26 4 29 0;
#X connect 29 0 4 0;
#X connect 30 0 31 0;
#X connect 31 0 32 0;
#X connect 32 0 33 0;
#X connect 34 0 33 0;
#X connect 34 1 33 1;
#X connect 35 0 34 0;
#X connect 36 0 35 0;
#X connect 37 0 35 1;
#X coords 0 542 1 541 20 20 0;
