#N canvas 32 193 595 437 10;
#N canvas -66 22 490 818 AssignColorSettings5 0;
#X obj 281 449 list prepend \$0;
#X msg 114 204 0;
#X obj 114 224 t f;
#X obj 87 181 t f b;
#X obj 252 360 t f;
#X msg 230 247 0;
#X obj 230 267 t f;
#X obj 203 224 t f b;
#X floatatom 203 177 5 0 0 0 - - -;
#X floatatom 87 131 5 0 0 0 - - -;
#X obj 87 112 r aplcolor-send;
#X obj 205 155 r plcolor-send;
#X obj 87 151 int;
#X obj 204 201 int;
#X obj 126 151 t b;
#X obj 242 197 t b;
#X obj 5 44 cnv 15 15 15 empty plcolor-recv Default 1 -7 0 10 -166441
-66577 0;
#X obj 104 44 cnv 15 15 15 empty aplcolor-recv Active 1 -7 0 10 -44926
-66577 0;
#X obj 3 2 cnv 15 145 15 empty empty Assigned_Color_Settings 1 7 0
10 -262144 -1 0;
#X obj 48 15 cnv 15 60 15 empty empty Previews 1 7 0 10 -262144 -1
0;
#X obj 370 241 change;
#X obj 370 283 + 1;
#X floatatom 370 328 5 0 0 0 - - -;
#X obj 368 350 - 1;
#X msg 370 369 \$1;
#X obj 279 472 list trim;
#X obj 285 359 t f;
#X obj 281 426 list prepend 0;
#X obj 116 268 unpack f f;
#X obj 114 246 pack f f;
#X obj 230 289 pack f f;
#X obj 228 313 unpack f f;
#X obj 126 132 r applyactivepbankcolorchanges;
#X obj 242 178 r applydefaultpbankcolorchanges;
#X obj 367 198 r bangedpbankindex;
#X msg 278 500 \; \$2-pbankitem-recv color \$3;
#X obj 370 305 t f;
#X obj 369 220 t f;
#X obj 370 262 mod 5;
#X obj 370 397 t f;
#X connect 0 0 25 0;
#X connect 1 0 2 0;
#X connect 2 0 29 0;
#X connect 3 0 29 1;
#X connect 3 1 1 0;
#X connect 4 0 27 0;
#X connect 5 0 6 0;
#X connect 6 0 30 0;
#X connect 7 0 30 1;
#X connect 7 1 5 0;
#X connect 8 0 13 0;
#X connect 9 0 12 0;
#X connect 10 0 9 0;
#X connect 11 0 8 0;
#X connect 12 0 3 0;
#X connect 13 0 7 0;
#X connect 14 0 1 0;
#X connect 15 0 5 0;
#X connect 20 0 38 0;
#X connect 21 0 36 0;
#X connect 22 0 23 0;
#X connect 23 0 24 0;
#X connect 24 0 39 0;
#X connect 25 0 35 0;
#X connect 26 0 27 0;
#X connect 27 0 0 0;
#X connect 28 1 4 0;
#X connect 29 0 28 0;
#X connect 30 0 31 0;
#X connect 31 1 26 0;
#X connect 32 0 14 0;
#X connect 33 0 15 0;
#X connect 34 0 37 0;
#X connect 36 0 22 0;
#X connect 37 0 20 0;
#X connect 38 0 21 0;
#X connect 39 0 27 1;
#X coords 0 818 1 817 150 64 0;
#X restore 443 98 pd AssignColorSettings5;
#N canvas 277 124 562 389 RecieveBangThenApplyColor4 0;
#X obj 76 228 until;
#X obj 76 251 f;
#X obj 106 251 + 1;
#X obj 76 182 t b b f;
#X obj 76 297 sel;
#X obj 19 34 t b;
#X obj 19 117 pack f f;
#X msg 19 53 0;
#X obj 19 137 unpack f f;
#X msg 116 228 0;
#X obj 91 361 t b;
#X obj 76 319 t b;
#X obj 76 274 t f f;
#X obj 64 48 r selectedpbankitem;
#X obj 121 204 s assignpbankclonecolor;
#X obj 75 339 s applyactivepbankcolorchanges;
#X obj 91 382 s applydefaultpbankcolorchanges;
#X obj 19 13 r \$1-pbankbang;
#X obj 103 296 s bangedpbankindex;
#X obj 329 60 loadbang;
#X msg 331 109 \$1;
#X obj 331 88 \$1;
#X msg 76 206 5;
#X obj 64 70 t b f;
#X connect 0 0 1 0;
#X connect 1 0 2 0;
#X connect 1 0 12 0;
#X connect 2 0 1 1;
#X connect 3 0 22 0;
#X connect 3 1 9 0;
#X connect 3 2 4 1;
#X connect 3 2 14 0;
#X connect 4 0 11 0;
#X connect 4 1 10 0;
#X connect 5 0 7 0;
#X connect 6 0 8 0;
#X connect 8 1 3 0;
#X connect 9 0 1 1;
#X connect 10 0 16 0;
#X connect 11 0 15 0;
#X connect 12 0 4 0;
#X connect 12 1 18 0;
#X connect 13 0 23 0;
#X connect 17 0 5 0;
#X connect 19 0 21 0;
#X connect 21 0 20 0;
#X connect 22 0 0 0;
#X connect 23 0 6 0;
#X connect 23 1 6 1;
#X restore 222 100 pd RecieveBangThenApplyColor4;
#X obj 101 101 bng 13 250 50 0 \$1-pbankbang empty empty 17 7 0 10
-262144 -1 -1;
#X obj 100 74 inlet;
#X obj 100 100 cnv 15 15 15 empty seqborder-recv empty 20 12 0 14 -66577
-66577 0;
#X obj 103 103 cnv 9 9 9 \$1-pbankitem-send \$1-pbankitem-recv empty
20 12 0 14 -44926 -66577 0;
#X obj 115 149 outlet;
#X connect 2 0 6 0;
#X connect 3 0 2 0;
#X coords 0 -1 1 1 15 15 2 100 100;
