#N canvas 26 342 450 300 10;
#X obj 0 0 cnv 7 7 7 \$1-seqbtn-send \$1-seqbtn-recv empty 3 20 0 10
-166441 -1 0;
#N canvas 246 17 931 602 selactiveseqBtn 0;
#X floatatom 232 7 5 0 0 0 - - -;
#X floatatom 380 154 5 0 0 0 - - -;
#X obj 339 156 ==;
#X obj 339 228 change;
#X floatatom 339 182 5 0 0 0 - - -;
#X obj 340 204 t f;
#X msg 338 392 0;
#X obj 338 414 t f;
#X obj 338 315 t b;
#X msg 598 398 0;
#X obj 598 416 t f;
#X obj 598 274 change;
#X obj 598 329 t b;
#X obj 338 281 == 1;
#X floatatom 339 253 5 0 0 0 - - -;
#X obj 338 363 t b;
#X obj 323 -28 loadbang;
#X obj 323 6 \$1;
#X obj 390 80 +;
#X obj 395 23 *;
#X obj 395 52 t b f;
#X obj 454 -19 r persongbank;
#X msg 323 38 \$1;
#X obj 384 -20 r songbank;
#X obj 232 32 t f;
#X obj 450 5 t f;
#X obj 389 1 t f;
#X obj 338 341 delay 20;
#X floatatom 482 83 5 0 0 0 - - -;
#X floatatom 233 87 5 0 0 0 - - -;
#X obj 598 301 == 0;
#X obj 355 119 t f f;
#X obj 168 8 inlet;
#X obj 232 112 t f f f b;
#X obj 233 231 outlet;
#X floatatom 522 583 5 0 0 0 - - -;
#X obj 344 503 unpack f f f;
#X obj 480 684 symbol;
#X symbolatom 527 649 10 0 0 0 - - -;
#X msg 533 875 color \$1;
#X obj 533 895 s;
#X msg 473 656 bang;
#X obj 482 757 t b;
#X obj 481 734 delay 20;
#X obj 480 710 t b;
#X obj 482 784 pack f f;
#X obj 488 808 unpack f f;
#X floatatom 503 837 5 0 0 0 - - -;
#X obj 462 633 delay 10;
#X obj 542 841 t f;
#X obj 527 763 t f;
#X obj 462 531 t f b;
#X obj 343 454 pack f f f;
#X obj 429 389 r aplcolor-send;
#X msg 523 617 symbol \$1-seqbtn-recv;
#X floatatom 851 562 5 0 0 0 - - -;
#X obj 673 482 unpack f f f;
#X obj 809 663 symbol;
#X symbolatom 856 628 10 0 0 0 - - -;
#X msg 862 854 color \$1;
#X obj 862 874 s;
#X msg 802 635 bang;
#X obj 811 736 t b;
#X obj 810 713 delay 20;
#X obj 809 689 t b;
#X obj 811 763 pack f f;
#X obj 817 787 unpack f f;
#X floatatom 832 816 5 0 0 0 - - -;
#X obj 791 612 delay 10;
#X obj 871 820 t f;
#X obj 856 742 t f;
#X obj 791 510 t f b;
#X obj 672 433 pack f f f;
#X obj 758 368 r plcolor-send;
#X msg 852 596 symbol \$1-seqbtn-recv;
#X obj 232 60 count 0 64;
#X connect 0 0 24 0;
#X connect 2 0 4 0;
#X connect 3 0 14 0;
#X connect 4 0 5 0;
#X connect 5 0 3 0;
#X connect 6 0 7 0;
#X connect 7 0 52 0;
#X connect 8 0 27 0;
#X connect 9 0 10 0;
#X connect 10 0 72 0;
#X connect 11 0 30 0;
#X connect 12 0 9 0;
#X connect 13 0 8 0;
#X connect 13 0 11 0;
#X connect 14 0 13 0;
#X connect 15 0 6 0;
#X connect 16 0 17 0;
#X connect 17 0 22 0;
#X connect 19 0 20 0;
#X connect 19 0 28 0;
#X connect 20 0 18 0;
#X connect 21 0 25 0;
#X connect 22 0 31 0;
#X connect 23 0 26 0;
#X connect 24 0 75 0;
#X connect 25 0 19 1;
#X connect 26 0 19 0;
#X connect 27 0 15 0;
#X connect 29 0 33 0;
#X connect 30 0 12 0;
#X connect 31 0 2 1;
#X connect 31 0 1 0;
#X connect 32 0 0 0;
#X connect 33 0 52 1;
#X connect 33 1 72 1;
#X connect 33 2 2 0;
#X connect 33 3 34 0;
#X connect 35 0 54 0;
#X connect 36 1 35 0;
#X connect 36 2 50 0;
#X connect 36 2 51 0;
#X connect 37 0 40 1;
#X connect 37 0 44 0;
#X connect 38 0 37 1;
#X connect 39 0 40 0;
#X connect 41 0 37 0;
#X connect 42 0 45 0;
#X connect 43 0 42 0;
#X connect 44 0 43 0;
#X connect 45 0 46 0;
#X connect 46 1 47 0;
#X connect 46 1 49 0;
#X connect 48 0 41 0;
#X connect 49 0 39 0;
#X connect 50 0 45 1;
#X connect 51 0 35 0;
#X connect 51 1 48 0;
#X connect 52 0 36 0;
#X connect 53 0 52 2;
#X connect 54 0 38 0;
#X connect 55 0 74 0;
#X connect 56 1 55 0;
#X connect 56 2 70 0;
#X connect 56 2 71 0;
#X connect 57 0 60 1;
#X connect 57 0 64 0;
#X connect 58 0 57 1;
#X connect 59 0 60 0;
#X connect 61 0 57 0;
#X connect 62 0 65 0;
#X connect 63 0 62 0;
#X connect 64 0 63 0;
#X connect 65 0 66 0;
#X connect 66 1 67 0;
#X connect 66 1 69 0;
#X connect 68 0 61 0;
#X connect 69 0 59 0;
#X connect 70 0 65 1;
#X connect 71 0 55 0;
#X connect 71 1 68 0;
#X connect 72 0 56 0;
#X connect 73 0 72 2;
#X connect 74 0 58 0;
#X connect 75 0 29 0;
#X restore 50 99 pd selactiveseqBtn \$1;
#X obj 72 40 r padnum;
#X obj 83 69 + 1;
#X connect 2 0 1 0;
#X coords 0 -1 1 1 7 7 2 0 0;
