#N canvas 778 88 460 485 10;
#X obj 101 100 bng 13 250 50 0 \$1-seqbang empty empty 17 7 0 10 -262144
-1 -1;
#X obj 100 100 cnv 15 15 15 \$1-radioseqitem-send \$1-radioseqitem-recv
empty 20 12 0 14 -166441 -66577 0;
#X obj 132 9 loadbang;
#X obj 179 292 pack f f;
#X obj 224 263 t f;
#X msg 161 248 0;
#X obj 179 314 unpack f f;
#X obj 161 223 t b;
#X obj 202 87 +;
#X obj 202 114 t b f;
#X obj 202 39 *;
#X obj 202 66 t b f;
#X obj 228 136 \$1;
#X msg 228 156 \$1;
#X floatatom 294 162 5 0 0 0 - - -;
#X obj 145 51 \$1;
#X msg 145 71 \$1;
#X obj 261 361 s selectedseqitem;
#X obj 161 203 r \$1-seqbang;
#X obj 240 9 r perseqbank;
#X obj 189 9 r sbank;
#X floatatom 194 357 5 0 0 0 - - -;
#X obj 160 268 t f;
#X obj 235 335 t f;
#X connect 2 0 15 0;
#X connect 3 0 6 0;
#X connect 4 0 3 1;
#X connect 5 0 22 0;
#X connect 6 1 23 0;
#X connect 7 0 5 0;
#X connect 8 0 9 0;
#X connect 9 1 12 0;
#X connect 10 0 11 0;
#X connect 11 0 8 0;
#X connect 11 1 8 1;
#X connect 12 0 13 0;
#X connect 13 0 4 0;
#X connect 13 0 14 0;
#X connect 15 0 16 0;
#X connect 16 0 8 0;
#X connect 18 0 7 0;
#X connect 19 0 10 1;
#X connect 20 0 10 0;
#X connect 22 0 3 0;
#X connect 23 0 17 0;
#X coords 0 -1 1 1 15 15 2 100 100;
