#N canvas -4 -4 1440 818 10;
#X obj 100 100 bng 13 250 50 0 \$1-seqbang empty empty 17 7 0 10 -262144
-1 -1;
#X obj 100 74 inlet;
#X obj 100 100 cnv 15 15 15 seqselradio-send seqselradio-recv empty
20 12 0 14 -166441 -66577 0;
#X obj 103 103 cnv 9 9 9 \$1-radioseqitem-send \$1-radioseqitem-recv
empty 20 12 0 14 -166441 -66577 0;
#X obj 423 396 t b f;
#X obj 306 20 loadbang;
#X obj 365 92 +;
#X obj 376 52 *;
#X obj 376 74 t b f;
#X obj 188 21 r selectedseqitem;
#X obj 373 12 r sbank;
#X obj 435 14 r perseqbank;
#N canvas 172 180 1118 575 SendToActiveSongSequence 0;
#X obj 128 421 s, f 4;
#X symbolatom 163 258 40 0 0 0 - - -;
#X obj 128 350 \$1;
#X msg 128 373 \$1;
#X obj 173 470 outlet;
#X obj 72 281 pack f f;
#X msg 71 238 0;
#X obj 72 258 t f;
#X obj 117 258 t f;
#X obj 72 301 unpack f f;
#X floatatom 173 418 5 0 0 1 Selected_Sequence_No - -;
#X obj 136 191 t b f f b;
#X obj 535 184 +, f 8;
#X obj 514 159 t b f;
#X obj 136 38 inlet;
#X obj 310 11 inlet;
#X obj 545 112 *;
#X floatatom 108 80 5 0 0 0 - - -;
#X obj 310 35 t b;
#X obj 594 96 r perseqbank;
#X obj 543 24 r sbank;
#X msg 163 238 symbol OBSelSeqBtnClone-\$1;
#X obj 128 326 t f f, f 8;
#X floatatom 594 135 5 0 0 1 Visible_Sequences_Per_Bank - -;
#X obj 594 116 t f;
#X obj 594 153 t f;
#X floatatom 543 63 5 0 0 1 Sequence_Bank - -;
#X obj 543 43 t f;
#X obj 543 82 t f;
#X obj 128 397 t f;
#X obj 173 442 t f;
#X obj 410 94 \$1;
#X obj 405 52 loadbang;
#X msg 410 113 \$1;
#X obj 144 80 \$1;
#X msg 144 99 \$1;
#X connect 1 0 0 1;
#X connect 2 0 3 0;
#X connect 3 0 29 0;
#X connect 5 0 9 0;
#X connect 6 0 7 0;
#X connect 7 0 5 0;
#X connect 8 0 5 1;
#X connect 9 1 22 0;
#X connect 10 0 30 0;
#X connect 11 1 21 0;
#X connect 11 2 8 0;
#X connect 13 0 12 0;
#X connect 13 1 12 1;
#X connect 14 0 17 0;
#X connect 14 0 34 0;
#X connect 15 0 18 0;
#X connect 16 0 13 0;
#X connect 18 0 6 0;
#X connect 19 0 24 0;
#X connect 20 0 27 0;
#X connect 21 0 1 0;
#X connect 22 0 2 0;
#X connect 22 1 10 0;
#X connect 23 0 25 0;
#X connect 24 0 23 0;
#X connect 25 0 16 1;
#X connect 26 0 28 0;
#X connect 27 0 26 0;
#X connect 28 0 16 0;
#X connect 29 0 0 0;
#X connect 30 0 4 0;
#X connect 31 0 33 0;
#X connect 32 0 31 0;
#X connect 33 0 13 0;
#X connect 34 0 35 0;
#X connect 35 0 11 0;
#X restore 450 429 pd SendToActiveSongSequence;
#N canvas -4 -4 1440 818 RecieveBangThenApplyColor10 0;
#X obj 76 205 until;
#X obj 76 228 f;
#X obj 106 228 + 1;
#X obj 76 159 t b b f;
#X obj 76 274 sel;
#X obj 19 34 t b;
#X obj 20 112 pack f f;
#X msg 20 71 0;
#X obj 20 132 unpack f f;
#X msg 116 205 0;
#X obj 91 338 t b;
#X obj 76 296 t b;
#X msg 76 183 17;
#X obj 232 34 loadbang;
#X obj 230 62 \$1;
#X msg 226 86 \$1;
#X obj 76 251 t f f f;
#X obj 121 181 s assignseqclonecolor;
#X obj 65 30 r selectedcolorseqitem;
#X obj 76 316 s applyactiveseqcolorchanges;
#X obj 91 359 s applydefaultseqcolorchanges;
#X obj 19 13 r \$1-seqbang;
#X obj 29 89 t f;
#X obj 64 88 t f f;
#X obj 102 272 s \$1-bangedseqindex;
#X obj 128 292 s bangedseqindex;
#X floatatom 30 172 5 0 0 0 - - -;
#X connect 0 0 1 0;
#X connect 1 0 2 0;
#X connect 1 0 16 0;
#X connect 2 0 1 1;
#X connect 3 0 12 0;
#X connect 3 1 9 0;
#X connect 3 2 4 1;
#X connect 3 2 17 0;
#X connect 4 0 11 0;
#X connect 4 1 10 0;
#X connect 5 0 7 0;
#X connect 6 0 8 0;
#X connect 7 0 22 0;
#X connect 8 1 3 0;
#X connect 8 1 26 0;
#X connect 9 0 1 1;
#X connect 10 0 20 0;
#X connect 11 0 19 0;
#X connect 12 0 0 0;
#X connect 13 0 14 0;
#X connect 14 0 15 0;
#X connect 15 0 23 0;
#X connect 16 0 4 0;
#X connect 16 1 24 0;
#X connect 16 2 25 0;
#X connect 18 0 23 0;
#X connect 21 0 5 0;
#X connect 22 0 6 0;
#X connect 23 0 6 1;
#X coords 0 0 1 1 85 60 0;
#X restore 11 169 pd RecieveBangThenApplyColor10;
#N canvas 418 144 951 449 AssignColorSettings11 0;
#X obj 455 406 list prepend \$0;
#X msg 193 128 0;
#X obj 193 148 t f;
#X obj 166 105 t f b;
#X obj 417 341 t f;
#X msg 392 126 0;
#X obj 392 146 t f;
#X obj 365 103 t f b;
#X floatatom 365 56 5 0 0 0 - - -;
#X floatatom 166 55 5 0 0 0 - - -;
#X obj 167 9 r aplcolor-send;
#X obj 368 7 r plcolor-send;
#X obj 166 75 int;
#X obj 366 80 int;
#X obj 205 75 t b;
#X obj 404 76 t b;
#X obj 5 44 cnv 15 15 15 empty plcolor-recv Default 1 -7 0 10 -166441
-66577 0;
#X obj 104 44 cnv 15 15 15 empty aplcolor-recv Active 1 -7 0 10 -44926
-66577 0;
#X obj 3 2 cnv 15 145 15 empty empty Assigned_Color_Settings 1 7 0
10 -262144 -1 0;
#X obj 48 15 cnv 15 60 15 empty empty Previews 1 7 0 10 -262144 -1
0;
#X obj 527 203 change;
#X obj 527 245 + 1;
#X obj 527 267 t f b;
#X floatatom 527 290 5 0 0 0 - - -;
#X obj 527 310 - 1;
#X msg 529 332 \$1;
#X obj 451 446 list trim;
#X obj 449 342 t f;
#X obj 451 379 list prepend 0;
#X obj 195 192 unpack f f;
#X obj 193 170 pack f f;
#X obj 392 168 pack f f;
#X obj 390 192 unpack f f;
#X obj 531 353 t f;
#X obj 527 177 t f;
#X obj 527 224 mod 17;
#X obj 205 56 r applyactiveseqcolorchanges;
#X obj 404 57 r applydefaultseqcolorchanges;
#X obj 525 156 r bangedseqindex;
#X msg 435 482 \; \$2-radioseqitem-recv color \$3;
#X obj 175 29 t f;
#X obj 357 28 t f;
#X obj 376 422 t l;
#X connect 0 0 42 0;
#X connect 1 0 2 0;
#X connect 2 0 30 0;
#X connect 3 0 30 1;
#X connect 3 1 1 0;
#X connect 4 0 28 0;
#X connect 5 0 6 0;
#X connect 6 0 31 0;
#X connect 7 0 31 1;
#X connect 7 1 5 0;
#X connect 8 0 13 0;
#X connect 9 0 12 0;
#X connect 10 0 40 0;
#X connect 11 0 41 0;
#X connect 12 0 3 0;
#X connect 13 0 7 0;
#X connect 14 0 1 0;
#X connect 15 0 5 0;
#X connect 20 0 35 0;
#X connect 21 0 22 0;
#X connect 22 0 23 0;
#X connect 23 0 24 0;
#X connect 24 0 25 0;
#X connect 25 0 33 0;
#X connect 26 0 39 0;
#X connect 27 0 28 0;
#X connect 28 0 0 0;
#X connect 29 1 4 0;
#X connect 30 0 29 0;
#X connect 31 0 32 0;
#X connect 32 1 27 0;
#X connect 33 0 28 1;
#X connect 34 0 20 0;
#X connect 35 0 21 0;
#X connect 36 0 14 0;
#X connect 37 0 15 0;
#X connect 38 0 34 0;
#X connect 40 0 9 0;
#X connect 41 0 8 0;
#X connect 42 0 26 0;
#X coords 0 -1 1 1 150 64 2 0 0;
#X restore 11 195 pd AssignColorSettings11;
#X obj 318 216 s emode;
#X msg 318 190 1;
#X obj 423 331 \$1;
#X msg 423 351 \$1;
#X floatatom 487 225 5 0 0 0 - - -;
#X obj 487 250 - 1;
#X obj 487 276 change;
#X obj 487 302 mod 16;
#X obj 487 328 + 1;
#X floatatom 487 354 5 0 0 1 Selected_btn_index_after_bank_calculations
- -;
#X obj 487 379 t f;
#X obj 487 405 s selectedcolorseqitem;
#X floatatom 189 70 5 0 0 0 - - -;
#X obj 189 95 t f;
#X floatatom 423 374 5 0 0 0 Selected_sequence_after_bank_calculations
- -;
#X obj 449 530 s padnum;
#X floatatom 450 474 5 0 0 0 - - -;
#X obj 450 451 t f;
#X obj 450 493 t f;
#X obj 365 118 t b f f, f 22;
#X obj 417 39 t f;
#X obj 373 31 t f;
#X connect 1 0 0 0;
#X connect 4 0 12 1;
#X connect 4 1 12 0;
#X connect 5 0 6 0;
#X connect 6 0 34 0;
#X connect 7 0 8 0;
#X connect 8 0 6 0;
#X connect 8 1 6 1;
#X connect 9 0 27 0;
#X connect 10 0 36 0;
#X connect 11 0 35 0;
#X connect 12 0 32 0;
#X connect 16 0 15 0;
#X connect 17 0 18 0;
#X connect 18 0 29 0;
#X connect 19 0 20 0;
#X connect 20 0 21 0;
#X connect 21 0 22 0;
#X connect 22 0 23 0;
#X connect 23 0 24 0;
#X connect 24 0 25 0;
#X connect 25 0 26 0;
#X connect 27 0 28 0;
#X connect 28 0 34 0;
#X connect 29 0 4 0;
#X connect 31 0 33 0;
#X connect 32 0 31 0;
#X connect 33 0 30 0;
#X connect 34 0 16 0;
#X connect 34 1 17 0;
#X connect 34 2 19 0;
#X connect 35 0 7 1;
#X connect 36 0 7 0;
#X coords 0 -1 1 1 15 15 2 100 100;
