#N canvas 490 216 450 589 10;
#X obj 0 0 cnv 7 7 7 \$1-patternbtn-send \$1-patternbtn-recv empty
3 20 0 10 -44926 -1 0;
#N canvas 0 50 931 602 selactiveBtn1 0;
#X floatatom 232 7 5 0 0 0 - - -;
#X floatatom 380 154 5 0 0 0 - - -;
#X obj 339 156 ==;
#X obj 339 228 change;
#X floatatom 339 182 5 0 0 0 - - -;
#X obj 340 204 t f;
#X obj 338 439 pack f f;
#X obj 338 469 unpack f f;
#X msg 338 392 0;
#X obj 338 414 t f;
#X obj 338 315 t b;
#X obj 598 441 pack f f;
#X obj 598 465 unpack f f;
#X msg 598 398 0;
#X obj 598 416 t f;
#X obj 598 274 change;
#X obj 598 329 t b;
#X obj 338 281 == 1;
#X floatatom 339 253 5 0 0 0 - - -;
#X obj 338 363 t b;
#X obj 323 -28 loadbang;
#X obj 323 6 \$1;
#X obj 390 80 +;
#X obj 395 23 *;
#X obj 395 52 t b f;
#X obj 454 -19 r persongbank;
#X msg 323 38 \$1;
#X obj 384 -20 r songbank;
#X obj 232 32 t f;
#X obj 450 5 t f;
#X obj 389 1 t f;
#X obj 338 341 delay 20;
#X floatatom 482 83 5 0 0 0 - - -;
#X floatatom 233 87 5 0 0 0 - - -;
#X obj 598 301 == 0;
#X obj 355 119 t f f;
#X obj 168 8 inlet;
#X msg 337 512 \; \$1-patternbtn-recv color 17 \;;
#X msg 603 508 \; \$1-patternbtn-recv color 1 \;;
#X obj 232 112 t f f f b;
#X obj 233 231 outlet;
#X obj 232 60 count 1 64;
#X connect 0 0 28 0;
#X connect 2 0 4 0;
#X connect 3 0 18 0;
#X connect 4 0 5 0;
#X connect 5 0 3 0;
#X connect 6 0 7 0;
#X connect 7 1 37 0;
#X connect 8 0 9 0;
#X connect 9 0 6 0;
#X connect 10 0 31 0;
#X connect 11 0 12 0;
#X connect 12 1 38 0;
#X connect 13 0 14 0;
#X connect 14 0 11 0;
#X connect 15 0 34 0;
#X connect 16 0 13 0;
#X connect 17 0 10 0;
#X connect 17 0 15 0;
#X connect 18 0 17 0;
#X connect 19 0 8 0;
#X connect 20 0 21 0;
#X connect 21 0 26 0;
#X connect 23 0 24 0;
#X connect 23 0 32 0;
#X connect 24 0 22 0;
#X connect 25 0 29 0;
#X connect 26 0 35 0;
#X connect 27 0 30 0;
#X connect 28 0 41 0;
#X connect 29 0 23 1;
#X connect 30 0 23 0;
#X connect 31 0 19 0;
#X connect 33 0 39 0;
#X connect 34 0 16 0;
#X connect 35 0 2 1;
#X connect 35 0 1 0;
#X connect 36 0 0 0;
#X connect 39 0 6 1;
#X connect 39 1 11 1;
#X connect 39 2 2 0;
#X connect 39 3 40 0;
#X connect 41 0 33 0;
#X restore 50 99 pd selactiveBtn1 \$1;
#X obj 46 171 s bangfirstseq;
#X obj 57 139 t b;
#X obj 59 56 r loaded-obsb;
#X connect 1 0 3 0;
#X connect 3 0 2 0;
#X connect 4 0 1 0;
#X coords 0 -1 1 1 7 7 2 0 0;
