#N canvas 306 75 892 563 10;
#X obj 29 116 tgl 15 0 empty empty empty 17 7 0 10 -262144 -1 -1 1
1;
#X obj 2 5 bng 14 250 50 0 empty empty empty 17 7 0 10 -99865 -1 -1
;
#X obj 1 1 cnv 20 20 20 \$1-togglebg-send \$1-togglebg-recv empty 20
12 0 14 -195568 -66577 0;
#X obj 29 738 outlet;
#X obj 382 -5 loadbang;
#X obj 383 60 \$1;
#X msg 383 85 \$1;
#N canvas -8 -8 1280 686 changetogglecolor 0;
#X obj 60 62 t f b;
#X obj 24 122 change;
#X obj 24 169 sel 1;
#X obj 24 147 == 0;
#X obj 229 120 change;
#X obj 229 167 sel 1;
#X obj 229 145 == 0;
#X obj 229 97 > 0;
#X obj 24 99 <= 0;
#X obj 387 53 t f b;
#X obj 351 113 change;
#X obj 351 160 sel 1;
#X obj 351 138 == 0;
#X obj 453 113 change;
#X obj 453 160 sel 1;
#X obj 453 138 == 0;
#X obj 453 90 > 0;
#X obj 351 90 <= 0;
#X obj 60 26 inlet;
#X obj 380 21 inlet;
#X obj 211 13 loadbang;
#X msg 240 68 0;
#X obj 24 198 \$1;
#X obj 229 195 \$1;
#X msg 350 186 \$1;
#X msg 453 188 \$1;
#X msg 537 225 \; \$1-filler-recv color 21;
#X floatatom 61 241 5 0 0 0 - - -;
#X floatatom 235 239 5 0 0 0 - - -;
#X msg 22 273 \; \$1-filler-recv color 42;
#X msg 190 266 \; \$1-filler-recv color 21;
#X text 196 297 grey;
#X obj 392 351 change;
#X obj 390 415 sel 1;
#X obj 392 376 == 0;
#X obj 392 328 > 0;
#X obj 390 443 \$1;
#X floatatom 398 470 5 0 0 0 - - -;
#X msg 540 534 \$1;
#X obj 480 401 pack \$1 \$2 \$3 \$4 \$5;
#X floatatom 542 557 5 0 0 0 - - -;
#X floatatom 1476 283 5 0 0 0 - - -;
#X floatatom 1554 282 5 0 0 0 - - -;
#X floatatom 1633 282 5 0 0 0 - - -;
#X floatatom 1714 282 5 0 0 0 - - -;
#X msg 1474 260 \$2;
#X msg 1552 259 \$3;
#X msg 1631 259 \$4;
#X msg 1712 259 \$5;
#X obj 541 654 t b f f;
#X obj 733 650 t b f f;
#X obj 560 685 pack \$1 \$2;
#X msg 603 718 \$2;
#X obj 542 603 change;
#X msg 560 718 \$1;
#X obj 541 625 == 1;
#X floatatom 587 579 5 0 0 0 - - -;
#X msg 733 531 \$1;
#X floatatom 735 554 5 0 0 0 - - -;
#X obj 734 577 == 1;
#X obj 734 600 change;
#X obj 733 622 == 1;
#X floatatom 868 703 5 0 0 0 - - -;
#X obj 541 580 == 0;
#X obj 752 680 pack \$1 \$2;
#X msg 792 713 \$2;
#X msg 749 713 \$1;
#X obj 460 1016 pack \$1 \$2;
#X obj 453 500 t f f;
#X msg 459 1049 \; \$1-togglebg-recv color \$2;
#X obj 792 739 spigot 0;
#X obj 847 719 tgl 15 0 empty empty empty 17 7 0 10 -262144 -1 -1 0
1;
#X floatatom 679 708 5 0 0 0 - - -;
#X obj 603 744 spigot 0;
#X obj 658 724 tgl 15 0 empty empty empty 17 7 0 10 -262144 -1 -1 0
1;
#X obj 924 650 t b f f;
#X msg 922 534 \$1;
#X floatatom 924 557 5 0 0 0 - - -;
#X obj 923 603 change;
#X obj 922 625 == 1;
#X floatatom 1059 703 5 0 0 0 - - -;
#X obj 943 680 pack \$1 \$2;
#X msg 983 713 \$2;
#X msg 940 713 \$1;
#X obj 983 739 spigot 0;
#X obj 1038 719 tgl 15 0 empty empty empty 17 7 0 10 -262144 -1 -1
0 1;
#X obj 923 580 == 2;
#X obj 1124 645 t b f f;
#X msg 1122 529 \$1;
#X floatatom 1124 552 5 0 0 0 - - -;
#X obj 1123 598 change;
#X obj 1122 620 == 1;
#X floatatom 1259 698 5 0 0 0 - - -;
#X obj 1143 675 pack \$1 \$2;
#X msg 1183 708 \$2;
#X msg 1140 708 \$1;
#X obj 1183 734 spigot 0;
#X obj 1238 714 tgl 15 0 empty empty empty 17 7 0 10 -262144 -1 -1
0 1;
#X obj 1123 575 == 3;
#X msg 1339 522 \$1;
#X floatatom 1341 545 5 0 0 0 - - -;
#X obj 1340 642 t b f f;
#X obj 1532 638 t b f f;
#X obj 1359 673 pack \$1 \$2;
#X msg 1402 706 \$2;
#X obj 1341 591 change;
#X msg 1359 706 \$1;
#X obj 1340 613 == 1;
#X floatatom 1386 567 5 0 0 0 - - -;
#X msg 1532 519 \$1;
#X floatatom 1534 542 5 0 0 0 - - -;
#X obj 1533 588 change;
#X obj 1532 610 == 1;
#X floatatom 1667 691 5 0 0 0 - - -;
#X obj 1551 668 pack \$1 \$2;
#X msg 1591 701 \$2;
#X msg 1548 701 \$1;
#X obj 1591 727 spigot 0;
#X obj 1646 707 tgl 15 0 empty empty empty 17 7 0 10 -262144 -1 -1
0 1;
#X floatatom 1478 696 5 0 0 0 - - -;
#X obj 1402 732 spigot 0;
#X obj 1457 712 tgl 15 0 empty empty empty 17 7 0 10 -262144 -1 -1
0 1;
#X obj 1723 638 t b f f;
#X msg 1721 522 \$1;
#X floatatom 1723 545 5 0 0 0 - - -;
#X obj 1722 591 change;
#X obj 1721 613 == 1;
#X floatatom 1858 691 5 0 0 0 - - -;
#X obj 1742 668 pack \$1 \$2;
#X msg 1782 701 \$2;
#X msg 1739 701 \$1;
#X obj 1782 727 spigot 0;
#X obj 1837 707 tgl 15 0 empty empty empty 17 7 0 10 -262144 -1 -1
0 1;
#X obj 1923 633 t b f f;
#X msg 1921 517 \$1;
#X floatatom 1923 540 5 0 0 0 - - -;
#X obj 1922 586 change;
#X obj 1921 608 == 1;
#X floatatom 2058 686 5 0 0 0 - - -;
#X obj 1942 663 pack \$1 \$2;
#X msg 1982 696 \$2;
#X msg 1939 696 \$1;
#X obj 1982 722 spigot 0;
#X obj 2037 702 tgl 15 0 empty empty empty 17 7 0 10 -262144 -1 -1
0 1;
#X obj 1340 568 == 4;
#X obj 1533 565 == 5;
#X obj 1722 568 == 6;
#X obj 1922 563 == 7;
#X msg 2175 508 \$1;
#X floatatom 2177 531 5 0 0 0 - - -;
#X obj 2176 628 t b f f;
#X obj 2368 624 t b f f;
#X obj 2195 659 pack \$1 \$2;
#X msg 2238 692 \$2;
#X obj 2177 577 change;
#X msg 2195 692 \$1;
#X obj 2176 599 == 1;
#X floatatom 2222 553 5 0 0 0 - - -;
#X msg 2368 505 \$1;
#X floatatom 2370 528 5 0 0 0 - - -;
#X obj 2369 574 change;
#X obj 2368 596 == 1;
#X floatatom 2503 677 5 0 0 0 - - -;
#X obj 2387 654 pack \$1 \$2;
#X msg 2427 687 \$2;
#X msg 2384 687 \$1;
#X obj 2427 713 spigot 0;
#X obj 2482 693 tgl 15 0 empty empty empty 17 7 0 10 -262144 -1 -1
0 1;
#X floatatom 2314 682 5 0 0 0 - - -;
#X obj 2238 718 spigot 0;
#X obj 2293 698 tgl 15 0 empty empty empty 17 7 0 10 -262144 -1 -1
0 1;
#X obj 2559 624 t b f f;
#X msg 2557 508 \$1;
#X floatatom 2559 531 5 0 0 0 - - -;
#X obj 2558 577 change;
#X obj 2557 599 == 1;
#X floatatom 2694 677 5 0 0 0 - - -;
#X obj 2578 654 pack \$1 \$2;
#X msg 2618 687 \$2;
#X msg 2575 687 \$1;
#X obj 2618 713 spigot 0;
#X obj 2673 693 tgl 15 0 empty empty empty 17 7 0 10 -262144 -1 -1
0 1;
#X obj 2759 619 t b f f;
#X msg 2757 503 \$1;
#X floatatom 2759 526 5 0 0 0 - - -;
#X obj 2758 572 change;
#X obj 2757 594 == 1;
#X floatatom 2894 672 5 0 0 0 - - -;
#X obj 2778 649 pack \$1 \$2;
#X msg 2818 682 \$2;
#X msg 2775 682 \$1;
#X obj 2818 708 spigot 0;
#X obj 2873 688 tgl 15 0 empty empty empty 17 7 0 10 -262144 -1 -1
0 1;
#X msg 2974 496 \$1;
#X floatatom 2976 519 5 0 0 0 - - -;
#X obj 2975 616 t b f f;
#X obj 3167 612 t b f f;
#X obj 2994 647 pack \$1 \$2;
#X msg 3037 680 \$2;
#X obj 2976 565 change;
#X msg 2994 680 \$1;
#X obj 2975 587 == 1;
#X floatatom 3021 541 5 0 0 0 - - -;
#X msg 3167 493 \$1;
#X floatatom 3169 516 5 0 0 0 - - -;
#X obj 3168 562 change;
#X obj 3167 584 == 1;
#X floatatom 3302 665 5 0 0 0 - - -;
#X obj 3186 642 pack \$1 \$2;
#X msg 3226 675 \$2;
#X msg 3183 675 \$1;
#X obj 3226 701 spigot 0;
#X obj 3281 681 tgl 15 0 empty empty empty 17 7 0 10 -262144 -1 -1
0 1;
#X floatatom 3113 670 5 0 0 0 - - -;
#X obj 3037 706 spigot 0;
#X obj 3092 686 tgl 15 0 empty empty empty 17 7 0 10 -262144 -1 -1
0 1;
#X obj 3358 612 t b f f;
#X msg 3356 496 \$1;
#X floatatom 3358 519 5 0 0 0 - - -;
#X obj 3357 565 change;
#X obj 3356 587 == 1;
#X floatatom 3493 665 5 0 0 0 - - -;
#X obj 3377 642 pack \$1 \$2;
#X msg 3417 675 \$2;
#X msg 3374 675 \$1;
#X obj 3417 701 spigot 0;
#X obj 3472 681 tgl 15 0 empty empty empty 17 7 0 10 -262144 -1 -1
0 1;
#X obj 3563 606 t b f f;
#X msg 3561 490 \$1;
#X floatatom 3563 513 5 0 0 0 - - -;
#X obj 3562 559 change;
#X obj 3561 581 == 1;
#X obj 3582 636 pack \$1 \$2;
#X msg 3622 669 \$2;
#X msg 3579 669 \$1;
#X obj 3622 695 spigot 0;
#X obj 3677 675 tgl 15 0 empty empty empty 17 7 0 10 -262144 -1 -1
0 1;
#X obj 2176 554 == 8;
#X obj 2369 551 == 9;
#X obj 2558 554 == 10;
#X obj 2758 549 == 11;
#X obj 2975 542 == 12;
#X obj 3168 539 == 13;
#X obj 3357 542 == 14;
#X obj 3562 536 == 15;
#X floatatom 3690 655 5 0 0 0 - - -;
#X msg 526 339 20;
#X msg 587 340 101;
#X msg 616 340 21;
#X msg 648 340 62;
#X msg 181 78 \$1;
#X obj 181 55 \$1;
#X msg 345 224 \; \$1-filler-recv color 16;
#X connect 0 0 8 0;
#X connect 0 0 7 0;
#X connect 1 0 3 0;
#X connect 2 0 22 0;
#X connect 3 0 2 0;
#X connect 4 0 6 0;
#X connect 5 0 23 0;
#X connect 6 0 5 0;
#X connect 7 0 4 0;
#X connect 8 0 1 0;
#X connect 9 0 17 0;
#X connect 9 0 16 0;
#X connect 10 0 12 0;
#X connect 11 0 24 0;
#X connect 12 0 11 0;
#X connect 13 0 15 0;
#X connect 14 0 25 0;
#X connect 15 0 14 0;
#X connect 16 0 13 0;
#X connect 17 0 10 0;
#X connect 18 0 0 0;
#X connect 20 0 21 0;
#X connect 20 0 251 0;
#X connect 21 0 0 0;
#X connect 21 0 9 0;
#X connect 22 0 29 0;
#X connect 22 0 27 0;
#X connect 23 0 30 0;
#X connect 23 0 28 0;
#X connect 24 0 252 0;
#X connect 25 0 26 0;
#X connect 32 0 34 0;
#X connect 33 0 36 0;
#X connect 34 0 33 0;
#X connect 35 0 32 0;
#X connect 36 0 37 0;
#X connect 37 0 68 0;
#X connect 38 0 40 0;
#X connect 39 0 38 0;
#X connect 39 0 45 0;
#X connect 39 0 48 0;
#X connect 39 0 47 0;
#X connect 39 0 46 0;
#X connect 39 0 57 0;
#X connect 39 0 76 0;
#X connect 39 0 88 0;
#X connect 39 0 99 0;
#X connect 39 0 134 0;
#X connect 39 0 123 0;
#X connect 39 0 109 0;
#X connect 39 0 148 0;
#X connect 39 0 172 0;
#X connect 39 0 228 0;
#X connect 39 0 217 0;
#X connect 39 0 203 0;
#X connect 39 0 193 0;
#X connect 39 0 183 0;
#X connect 39 0 158 0;
#X connect 40 0 63 0;
#X connect 41 0 49 0;
#X connect 41 0 101 0;
#X connect 41 0 150 0;
#X connect 41 0 195 0;
#X connect 42 0 50 0;
#X connect 42 0 102 0;
#X connect 42 0 151 0;
#X connect 42 0 196 0;
#X connect 43 0 75 0;
#X connect 43 0 122 0;
#X connect 43 0 171 0;
#X connect 43 0 216 0;
#X connect 44 0 87 0;
#X connect 44 0 133 0;
#X connect 44 0 182 0;
#X connect 44 0 227 0;
#X connect 45 0 41 0;
#X connect 46 0 42 0;
#X connect 47 0 43 0;
#X connect 48 0 44 0;
#X connect 49 1 51 0;
#X connect 49 2 51 1;
#X connect 50 1 64 0;
#X connect 50 2 64 1;
#X connect 51 0 52 0;
#X connect 51 0 54 0;
#X connect 52 0 73 0;
#X connect 53 0 55 0;
#X connect 55 0 49 0;
#X connect 57 0 58 0;
#X connect 58 0 59 0;
#X connect 59 0 60 0;
#X connect 59 0 62 0;
#X connect 60 0 61 0;
#X connect 61 0 50 0;
#X connect 62 0 71 0;
#X connect 63 0 53 0;
#X connect 63 0 56 0;
#X connect 63 0 72 0;
#X connect 64 0 65 0;
#X connect 64 0 66 0;
#X connect 65 0 70 0;
#X connect 67 0 69 0;
#X connect 68 0 39 0;
#X connect 68 1 67 0;
#X connect 70 0 67 1;
#X connect 71 0 70 1;
#X connect 72 0 74 0;
#X connect 73 0 67 1;
#X connect 74 0 73 1;
#X connect 75 1 81 0;
#X connect 75 2 81 1;
#X connect 76 0 77 0;
#X connect 77 0 86 0;
#X connect 78 0 79 0;
#X connect 79 0 75 0;
#X connect 80 0 85 0;
#X connect 81 0 82 0;
#X connect 81 0 83 0;
#X connect 82 0 84 0;
#X connect 84 0 67 1;
#X connect 85 0 84 1;
#X connect 86 0 78 0;
#X connect 86 0 80 0;
#X connect 87 1 93 0;
#X connect 87 2 93 1;
#X connect 88 0 89 0;
#X connect 89 0 98 0;
#X connect 90 0 91 0;
#X connect 91 0 87 0;
#X connect 92 0 97 0;
#X connect 93 0 94 0;
#X connect 93 0 95 0;
#X connect 94 0 96 0;
#X connect 96 0 67 1;
#X connect 97 0 96 1;
#X connect 98 0 90 0;
#X connect 98 0 92 0;
#X connect 99 0 100 0;
#X connect 100 0 144 0;
#X connect 101 1 103 0;
#X connect 101 2 103 1;
#X connect 102 1 114 0;
#X connect 102 2 114 1;
#X connect 103 0 104 0;
#X connect 103 0 106 0;
#X connect 104 0 120 0;
#X connect 105 0 107 0;
#X connect 107 0 101 0;
#X connect 109 0 110 0;
#X connect 110 0 145 0;
#X connect 111 0 112 0;
#X connect 112 0 102 0;
#X connect 113 0 118 0;
#X connect 114 0 115 0;
#X connect 114 0 116 0;
#X connect 115 0 117 0;
#X connect 117 0 67 1;
#X connect 118 0 117 1;
#X connect 119 0 121 0;
#X connect 120 0 67 1;
#X connect 121 0 120 1;
#X connect 122 1 128 0;
#X connect 122 2 128 1;
#X connect 123 0 124 0;
#X connect 124 0 146 0;
#X connect 125 0 126 0;
#X connect 126 0 122 0;
#X connect 127 0 132 0;
#X connect 128 0 129 0;
#X connect 128 0 130 0;
#X connect 129 0 131 0;
#X connect 131 0 67 1;
#X connect 132 0 131 1;
#X connect 133 1 139 0;
#X connect 133 2 139 1;
#X connect 134 0 135 0;
#X connect 135 0 147 0;
#X connect 136 0 137 0;
#X connect 137 0 133 0;
#X connect 138 0 143 0;
#X connect 139 0 140 0;
#X connect 139 0 141 0;
#X connect 140 0 142 0;
#X connect 142 0 67 1;
#X connect 143 0 142 1;
#X connect 144 0 105 0;
#X connect 144 0 108 0;
#X connect 144 0 119 0;
#X connect 145 0 111 0;
#X connect 145 0 113 0;
#X connect 146 0 125 0;
#X connect 146 0 127 0;
#X connect 147 0 136 0;
#X connect 147 0 138 0;
#X connect 148 0 149 0;
#X connect 149 0 237 0;
#X connect 150 1 152 0;
#X connect 150 2 152 1;
#X connect 151 1 163 0;
#X connect 151 2 163 1;
#X connect 152 0 153 0;
#X connect 152 0 155 0;
#X connect 153 0 169 0;
#X connect 154 0 156 0;
#X connect 156 0 150 0;
#X connect 158 0 159 0;
#X connect 159 0 238 0;
#X connect 160 0 161 0;
#X connect 161 0 151 0;
#X connect 162 0 167 0;
#X connect 163 0 164 0;
#X connect 163 0 165 0;
#X connect 164 0 166 0;
#X connect 166 0 67 1;
#X connect 167 0 166 1;
#X connect 168 0 170 0;
#X connect 169 0 67 1;
#X connect 170 0 169 1;
#X connect 171 1 177 0;
#X connect 171 2 177 1;
#X connect 172 0 173 0;
#X connect 173 0 239 0;
#X connect 174 0 175 0;
#X connect 175 0 171 0;
#X connect 176 0 181 0;
#X connect 177 0 178 0;
#X connect 177 0 179 0;
#X connect 178 0 180 0;
#X connect 180 0 67 1;
#X connect 181 0 180 1;
#X connect 182 1 188 0;
#X connect 182 2 188 1;
#X connect 183 0 184 0;
#X connect 184 0 240 0;
#X connect 185 0 186 0;
#X connect 186 0 182 0;
#X connect 187 0 192 0;
#X connect 188 0 189 0;
#X connect 188 0 190 0;
#X connect 189 0 191 0;
#X connect 191 0 67 1;
#X connect 192 0 191 1;
#X connect 193 0 194 0;
#X connect 194 0 241 0;
#X connect 195 1 197 0;
#X connect 195 2 197 1;
#X connect 196 1 208 0;
#X connect 196 2 208 1;
#X connect 197 0 198 0;
#X connect 197 0 200 0;
#X connect 198 0 214 0;
#X connect 199 0 201 0;
#X connect 201 0 195 0;
#X connect 203 0 204 0;
#X connect 204 0 242 0;
#X connect 205 0 206 0;
#X connect 206 0 196 0;
#X connect 207 0 212 0;
#X connect 208 0 209 0;
#X connect 208 0 210 0;
#X connect 209 0 211 0;
#X connect 211 0 67 1;
#X connect 212 0 211 1;
#X connect 213 0 215 0;
#X connect 214 0 67 1;
#X connect 215 0 214 1;
#X connect 216 1 222 0;
#X connect 216 2 222 1;
#X connect 217 0 218 0;
#X connect 218 0 243 0;
#X connect 219 0 220 0;
#X connect 220 0 216 0;
#X connect 221 0 226 0;
#X connect 222 0 223 0;
#X connect 222 0 224 0;
#X connect 223 0 225 0;
#X connect 225 0 67 1;
#X connect 226 0 225 1;
#X connect 227 1 232 0;
#X connect 227 2 232 1;
#X connect 228 0 229 0;
#X connect 229 0 244 0;
#X connect 230 0 231 0;
#X connect 231 0 227 0;
#X connect 232 0 233 0;
#X connect 232 0 234 0;
#X connect 233 0 235 0;
#X connect 235 0 67 1;
#X connect 236 0 235 1;
#X connect 237 0 154 0;
#X connect 237 0 157 0;
#X connect 237 0 168 0;
#X connect 238 0 160 0;
#X connect 238 0 162 0;
#X connect 239 0 174 0;
#X connect 239 0 176 0;
#X connect 240 0 185 0;
#X connect 240 0 187 0;
#X connect 241 0 199 0;
#X connect 241 0 202 0;
#X connect 241 0 213 0;
#X connect 242 0 205 0;
#X connect 242 0 207 0;
#X connect 243 0 219 0;
#X connect 243 0 221 0;
#X connect 244 0 230 0;
#X connect 244 0 245 0;
#X connect 245 0 236 0;
#X connect 246 0 39 1;
#X connect 247 0 39 2;
#X connect 248 0 39 3;
#X connect 249 0 39 4;
#X connect 251 0 250 0;
#X restore 114 518 pd changetogglecolor \$1;
#X floatatom 601 604 5 0 0 0 - - -;
#X obj 601 580 r currentstep;
#X obj 601 653 ==;
#X floatatom 601 676 5 0 0 0 - - -;
#N canvas -8 -8 1280 686 changeactivestepcolor 0;
#X obj 60 62 t f b;
#X obj 24 122 change;
#X obj 24 169 sel 1;
#X obj 24 147 == 0;
#X obj 229 120 change;
#X obj 227 184 sel 1;
#X obj 229 145 == 0;
#X obj 229 97 > 0;
#X obj 24 99 <= 0;
#X obj 60 26 inlet;
#X obj 211 13 loadbang;
#X obj 24 198 \$1;
#X obj 227 212 \$1;
#X floatatom 61 241 5 0 0 0 - - -;
#X floatatom 235 239 5 0 0 0 - - -;
#X msg 240 68 \$1;
#X obj 228 40 \$1;
#X msg 22 265 \; \$1-togglebg-recv color 46;
#X msg 377 303 \$1;
#X obj 360 164 pack \$1 \$2 \$3 \$4 \$5;
#X floatatom 315 108 5 0 0 0 - - -;
#X floatatom 379 326 5 0 0 0 - - -;
#X floatatom 1115 72 5 0 0 0 - - -;
#X floatatom 1193 71 5 0 0 0 - - -;
#X floatatom 1272 71 5 0 0 0 - - -;
#X floatatom 1353 71 5 0 0 0 - - -;
#X msg 1116 48 \$2;
#X msg 1194 47 \$3;
#X msg 1273 47 \$4;
#X msg 1354 47 \$5;
#X obj 378 423 t b f f;
#X obj 570 419 t b f f;
#X obj 397 454 pack \$1 \$2;
#X msg 440 487 \$2;
#X obj 379 372 change;
#X msg 397 487 \$1;
#X obj 378 394 == 1;
#X msg 159 661 \$2;
#X msg 214 703 \$1;
#X floatatom 424 348 5 0 0 0 - - -;
#X msg 570 300 \$1;
#X floatatom 572 323 5 0 0 0 - - -;
#X obj 571 346 == 1;
#X obj 571 369 change;
#X obj 570 391 == 1;
#X floatatom 705 472 5 0 0 0 - - -;
#X obj 378 349 == 0;
#X obj 589 449 pack \$1 \$2;
#X msg 629 482 \$2;
#X msg 586 482 \$1;
#X obj 307 703 pack \$1 \$2;
#X obj 290 269 t f f;
#X obj 629 508 spigot 0;
#X obj 684 488 tgl 15 0 empty empty empty 17 7 0 10 -262144 -1 -1 0
1;
#X floatatom 516 477 5 0 0 0 - - -;
#X obj 440 513 spigot 0;
#X obj 495 493 tgl 15 0 empty empty empty 17 7 0 10 -262144 -1 -1 1
1;
#X obj 761 419 t b f f;
#X msg 759 303 \$1;
#X floatatom 761 326 5 0 0 0 - - -;
#X obj 760 372 change;
#X obj 759 394 == 1;
#X floatatom 896 472 5 0 0 0 - - -;
#X obj 780 449 pack \$1 \$2;
#X msg 820 482 \$2;
#X msg 777 482 \$1;
#X obj 820 508 spigot 0;
#X obj 875 488 tgl 15 0 empty empty empty 17 7 0 10 -262144 -1 -1 0
1;
#X obj 760 349 == 2;
#X obj 961 414 t b f f;
#X msg 959 298 \$1;
#X floatatom 961 321 5 0 0 0 - - -;
#X obj 960 367 change;
#X obj 959 389 == 1;
#X floatatom 1096 467 5 0 0 0 - - -;
#X obj 980 444 pack \$1 \$2;
#X msg 1020 477 \$2;
#X msg 977 477 \$1;
#X obj 1020 503 spigot 0;
#X obj 1075 483 tgl 15 0 empty empty empty 17 7 0 10 -262144 -1 -1
0 1;
#X obj 960 344 == 3;
#X msg 1176 291 \$1;
#X floatatom 1178 314 5 0 0 0 - - -;
#X obj 1177 411 t b f f;
#X obj 1369 407 t b f f;
#X obj 1196 442 pack \$1 \$2;
#X msg 1239 475 \$2;
#X obj 1178 360 change;
#X msg 1196 475 \$1;
#X obj 1177 382 == 1;
#X floatatom 1223 336 5 0 0 0 - - -;
#X msg 1369 288 \$1;
#X floatatom 1371 311 5 0 0 0 - - -;
#X obj 1370 357 change;
#X obj 1369 379 == 1;
#X floatatom 1504 460 5 0 0 0 - - -;
#X obj 1388 437 pack \$1 \$2;
#X msg 1428 470 \$2;
#X msg 1385 470 \$1;
#X obj 1428 496 spigot 0;
#X obj 1483 476 tgl 15 0 empty empty empty 17 7 0 10 -262144 -1 -1
0 1;
#X floatatom 1315 465 5 0 0 0 - - -;
#X obj 1239 501 spigot 0;
#X obj 1294 481 tgl 15 0 empty empty empty 17 7 0 10 -262144 -1 -1
0 1;
#X obj 1560 407 t b f f;
#X msg 1558 291 \$1;
#X floatatom 1560 314 5 0 0 0 - - -;
#X obj 1559 360 change;
#X obj 1558 382 == 1;
#X floatatom 1695 460 5 0 0 0 - - -;
#X obj 1579 437 pack \$1 \$2;
#X msg 1619 470 \$2;
#X msg 1576 470 \$1;
#X obj 1619 496 spigot 0;
#X obj 1674 476 tgl 15 0 empty empty empty 17 7 0 10 -262144 -1 -1
0 1;
#X obj 1760 402 t b f f;
#X msg 1758 286 \$1;
#X floatatom 1760 309 5 0 0 0 - - -;
#X obj 1759 355 change;
#X obj 1758 377 == 1;
#X floatatom 1895 455 5 0 0 0 - - -;
#X obj 1779 432 pack \$1 \$2;
#X msg 1819 465 \$2;
#X msg 1776 465 \$1;
#X obj 1819 491 spigot 0;
#X obj 1874 471 tgl 15 0 empty empty empty 17 7 0 10 -262144 -1 -1
0 1;
#X obj 1177 337 == 4;
#X obj 1370 334 == 5;
#X obj 1559 337 == 6;
#X obj 1759 332 == 7;
#X msg 2012 277 \$1;
#X floatatom 2014 300 5 0 0 0 - - -;
#X obj 2013 397 t b f f;
#X obj 2205 393 t b f f;
#X obj 2032 428 pack \$1 \$2;
#X msg 2075 461 \$2;
#X obj 2014 346 change;
#X msg 2032 461 \$1;
#X obj 2013 368 == 1;
#X floatatom 2059 322 5 0 0 0 - - -;
#X msg 2205 274 \$1;
#X floatatom 2207 297 5 0 0 0 - - -;
#X obj 2206 343 change;
#X obj 2205 365 == 1;
#X floatatom 2340 446 5 0 0 0 - - -;
#X obj 2224 423 pack \$1 \$2;
#X msg 2264 456 \$2;
#X msg 2221 456 \$1;
#X obj 2264 482 spigot 0;
#X obj 2319 462 tgl 15 0 empty empty empty 17 7 0 10 -262144 -1 -1
0 1;
#X floatatom 2151 451 5 0 0 0 - - -;
#X obj 2075 487 spigot 0;
#X obj 2130 467 tgl 15 0 empty empty empty 17 7 0 10 -262144 -1 -1
0 1;
#X obj 2396 393 t b f f;
#X msg 2394 277 \$1;
#X floatatom 2396 300 5 0 0 0 - - -;
#X obj 2395 346 change;
#X obj 2394 368 == 1;
#X floatatom 2531 446 5 0 0 0 - - -;
#X obj 2415 423 pack \$1 \$2;
#X msg 2455 456 \$2;
#X msg 2412 456 \$1;
#X obj 2455 482 spigot 0;
#X obj 2510 462 tgl 15 0 empty empty empty 17 7 0 10 -262144 -1 -1
0 1;
#X obj 2596 388 t b f f;
#X msg 2594 272 \$1;
#X floatatom 2596 295 5 0 0 0 - - -;
#X obj 2595 341 change;
#X obj 2594 363 == 1;
#X floatatom 2731 441 5 0 0 0 - - -;
#X obj 2615 418 pack \$1 \$2;
#X msg 2655 451 \$2;
#X msg 2612 451 \$1;
#X obj 2655 477 spigot 0;
#X obj 2710 457 tgl 15 0 empty empty empty 17 7 0 10 -262144 -1 -1
0 1;
#X msg 2811 265 \$1;
#X floatatom 2813 288 5 0 0 0 - - -;
#X obj 2812 385 t b f f;
#X obj 3004 381 t b f f;
#X obj 2831 416 pack \$1 \$2;
#X msg 2874 449 \$2;
#X obj 2813 334 change;
#X msg 2831 449 \$1;
#X obj 2812 356 == 1;
#X floatatom 2858 310 5 0 0 0 - - -;
#X msg 3004 262 \$1;
#X floatatom 3006 285 5 0 0 0 - - -;
#X obj 3005 331 change;
#X obj 3004 353 == 1;
#X floatatom 3139 434 5 0 0 0 - - -;
#X obj 3023 411 pack \$1 \$2;
#X msg 3063 444 \$2;
#X msg 3020 444 \$1;
#X obj 3063 470 spigot 0;
#X obj 3118 450 tgl 15 0 empty empty empty 17 7 0 10 -262144 -1 -1
0 1;
#X floatatom 2950 439 5 0 0 0 - - -;
#X obj 2874 475 spigot 0;
#X obj 2929 455 tgl 15 0 empty empty empty 17 7 0 10 -262144 -1 -1
0 1;
#X obj 3195 381 t b f f;
#X msg 3193 265 \$1;
#X floatatom 3195 288 5 0 0 0 - - -;
#X obj 3194 334 change;
#X obj 3193 356 == 1;
#X floatatom 3330 434 5 0 0 0 - - -;
#X obj 3214 411 pack \$1 \$2;
#X msg 3254 444 \$2;
#X msg 3211 444 \$1;
#X obj 3254 470 spigot 0;
#X obj 3309 450 tgl 15 0 empty empty empty 17 7 0 10 -262144 -1 -1
0 1;
#X obj 3400 375 t b f f;
#X msg 3401 259 \$1;
#X floatatom 3400 282 5 0 0 0 - - -;
#X obj 3399 328 change;
#X obj 3398 350 == 1;
#X obj 3419 405 pack \$1 \$2;
#X msg 3459 438 \$2;
#X msg 3416 438 \$1;
#X obj 3459 464 spigot 0;
#X obj 3514 444 tgl 15 0 empty empty empty 17 7 0 10 -262144 -1 -1
0 1;
#X obj 2013 323 == 8;
#X obj 2206 320 == 9;
#X obj 2395 323 == 10;
#X obj 2595 318 == 11;
#X obj 2812 311 == 12;
#X obj 3005 308 == 13;
#X obj 3194 311 == 14;
#X obj 3399 305 == 15;
#X floatatom 3527 424 5 0 0 0 - - -;
#X obj 430 53 hsl 128 15 0 127 0 0 empty empty empty -2 -8 0 10 -262144
-1 -1 0 1;
#X floatatom 465 83 5 0 0 0 - - -;
#X msg 363 108 20;
#X msg 424 109 101;
#X msg 453 109 21;
#X msg 485 109 62;
#X obj 159 635 pack \$1 \$2 \$3;
#X obj 154 536 t f;
#X obj 154 517 t f b;
#X msg 150 602 0;
#X floatatom 207 738 5 0 0 0 - - -;
#X floatatom 146 694 5 0 0 0 - - -;
#X msg 519 818 \; \$1-octlbl-recv color \$2;
#X msg 297 818 \; \$1-togglebg-recv color \$2;
#X obj 605 53 bng 15 250 50 0 empty empty empty 17 7 0 10 -262144 -1
-1;
#X obj 602 87 count 0 15;
#X obj 635 35 delay 10;
#X obj 637 59 t b;
#X obj 196 606 t f;
#X obj 372 658 t f;
#X msg 694 678 \$1;
#X floatatom 696 701 5 0 0 0 - - -;
#X obj 695 798 t b f f;
#X obj 887 794 t b f f;
#X obj 714 829 pack \$1 \$2;
#X msg 757 862 \$2;
#X obj 696 747 change;
#X msg 714 862 \$1;
#X obj 695 769 == 1;
#X floatatom 741 723 5 0 0 0 - - -;
#X msg 887 675 \$1;
#X floatatom 889 698 5 0 0 0 - - -;
#X obj 888 744 change;
#X obj 887 766 == 1;
#X floatatom 1022 847 5 0 0 0 - - -;
#X obj 906 824 pack \$1 \$2;
#X msg 946 857 \$2;
#X msg 903 857 \$1;
#X obj 946 883 spigot 0;
#X obj 1001 863 tgl 15 0 empty empty empty 17 7 0 10 -262144 -1 -1
0 1;
#X floatatom 833 852 5 0 0 0 - - -;
#X obj 757 888 spigot 0;
#X obj 812 868 tgl 15 0 empty empty empty 17 7 0 10 -262144 -1 -1 0
1;
#X obj 1078 794 t b f f;
#X msg 1076 678 \$1;
#X floatatom 1078 701 5 0 0 0 - - -;
#X obj 1077 747 change;
#X obj 1076 769 == 1;
#X floatatom 1213 847 5 0 0 0 - - -;
#X obj 1097 824 pack \$1 \$2;
#X msg 1137 857 \$2;
#X msg 1094 857 \$1;
#X obj 1137 883 spigot 0;
#X obj 1192 863 tgl 15 0 empty empty empty 17 7 0 10 -262144 -1 -1
0 1;
#X obj 1278 789 t b f f;
#X msg 1276 673 \$1;
#X floatatom 1278 696 5 0 0 0 - - -;
#X obj 1277 742 change;
#X obj 1276 764 == 1;
#X floatatom 1413 842 5 0 0 0 - - -;
#X obj 1297 819 pack \$1 \$2;
#X msg 1337 852 \$2;
#X msg 1294 852 \$1;
#X obj 1337 878 spigot 0;
#X obj 1392 858 tgl 15 0 empty empty empty 17 7 0 10 -262144 -1 -1
0 1;
#X msg 1493 666 \$1;
#X floatatom 1495 689 5 0 0 0 - - -;
#X obj 1494 786 t b f f;
#X obj 1686 782 t b f f;
#X obj 1513 817 pack \$1 \$2;
#X msg 1556 850 \$2;
#X obj 1495 735 change;
#X msg 1513 850 \$1;
#X obj 1494 757 == 1;
#X floatatom 1540 711 5 0 0 0 - - -;
#X msg 1686 663 \$1;
#X floatatom 1688 686 5 0 0 0 - - -;
#X obj 1687 732 change;
#X obj 1686 754 == 1;
#X floatatom 1821 835 5 0 0 0 - - -;
#X obj 1705 812 pack \$1 \$2;
#X msg 1745 845 \$2;
#X msg 1702 845 \$1;
#X obj 1745 871 spigot 0;
#X obj 1800 851 tgl 15 0 empty empty empty 17 7 0 10 -262144 -1 -1
0 1;
#X floatatom 1632 840 5 0 0 0 - - -;
#X obj 1556 876 spigot 0;
#X obj 1611 856 tgl 15 0 empty empty empty 17 7 0 10 -262144 -1 -1
0 1;
#X obj 1877 782 t b f f;
#X msg 1875 666 \$1;
#X floatatom 1877 689 5 0 0 0 - - -;
#X obj 1876 735 change;
#X obj 1875 757 == 1;
#X floatatom 2012 835 5 0 0 0 - - -;
#X obj 1896 812 pack \$1 \$2;
#X msg 1936 845 \$2;
#X msg 1893 845 \$1;
#X obj 1936 871 spigot 0;
#X obj 1991 851 tgl 15 0 empty empty empty 17 7 0 10 -262144 -1 -1
0 1;
#X obj 2077 777 t b f f;
#X msg 2075 661 \$1;
#X floatatom 2077 684 5 0 0 0 - - -;
#X obj 2076 730 change;
#X obj 2075 752 == 1;
#X floatatom 2212 830 5 0 0 0 - - -;
#X obj 2096 807 pack \$1 \$2;
#X msg 2136 840 \$2;
#X msg 2093 840 \$1;
#X obj 2136 866 spigot 0;
#X obj 2191 846 tgl 15 0 empty empty empty 17 7 0 10 -262144 -1 -1
0 1;
#X msg 2329 652 \$1;
#X floatatom 2331 675 5 0 0 0 - - -;
#X obj 2330 772 t b f f;
#X obj 2522 768 t b f f;
#X obj 2349 803 pack \$1 \$2;
#X msg 2392 836 \$2;
#X obj 2331 721 change;
#X msg 2349 836 \$1;
#X obj 2330 743 == 1;
#X floatatom 2376 697 5 0 0 0 - - -;
#X msg 2522 649 \$1;
#X floatatom 2524 672 5 0 0 0 - - -;
#X obj 2523 718 change;
#X obj 2522 740 == 1;
#X floatatom 2657 821 5 0 0 0 - - -;
#X obj 2541 798 pack \$1 \$2;
#X msg 2581 831 \$2;
#X msg 2538 831 \$1;
#X obj 2581 857 spigot 0;
#X obj 2636 837 tgl 15 0 empty empty empty 17 7 0 10 -262144 -1 -1
0 1;
#X floatatom 2468 826 5 0 0 0 - - -;
#X obj 2392 862 spigot 0;
#X obj 2447 842 tgl 15 0 empty empty empty 17 7 0 10 -262144 -1 -1
0 1;
#X obj 2713 768 t b f f;
#X msg 2711 652 \$1;
#X floatatom 2713 675 5 0 0 0 - - -;
#X obj 2712 721 change;
#X obj 2711 743 == 1;
#X floatatom 2848 821 5 0 0 0 - - -;
#X obj 2732 798 pack \$1 \$2;
#X msg 2772 831 \$2;
#X msg 2729 831 \$1;
#X obj 2772 857 spigot 0;
#X obj 2827 837 tgl 15 0 empty empty empty 17 7 0 10 -262144 -1 -1
0 1;
#X obj 2913 763 t b f f;
#X msg 2911 647 \$1;
#X floatatom 2913 670 5 0 0 0 - - -;
#X obj 2912 716 change;
#X obj 2911 738 == 1;
#X floatatom 3048 816 5 0 0 0 - - -;
#X obj 2932 793 pack \$1 \$2;
#X msg 2972 826 \$2;
#X msg 2929 826 \$1;
#X obj 2972 852 spigot 0;
#X obj 3027 832 tgl 15 0 empty empty empty 17 7 0 10 -262144 -1 -1
0 1;
#X msg 3128 640 \$1;
#X floatatom 3130 663 5 0 0 0 - - -;
#X obj 3129 760 t b f f;
#X obj 3321 756 t b f f;
#X obj 3148 791 pack \$1 \$2;
#X msg 3191 824 \$2;
#X obj 3130 709 change;
#X msg 3148 824 \$1;
#X obj 3129 731 == 1;
#X floatatom 3175 685 5 0 0 0 - - -;
#X msg 3321 637 \$1;
#X floatatom 3323 660 5 0 0 0 - - -;
#X obj 3322 706 change;
#X obj 3321 728 == 1;
#X floatatom 3456 809 5 0 0 0 - - -;
#X obj 3340 786 pack \$1 \$2;
#X msg 3380 819 \$2;
#X msg 3337 819 \$1;
#X obj 3380 845 spigot 0;
#X obj 3435 825 tgl 15 0 empty empty empty 17 7 0 10 -262144 -1 -1
0 1;
#X floatatom 3267 814 5 0 0 0 - - -;
#X obj 3191 850 spigot 0;
#X obj 3246 830 tgl 15 0 empty empty empty 17 7 0 10 -262144 -1 -1
0 1;
#X obj 3512 756 t b f f;
#X msg 3510 640 \$1;
#X floatatom 3512 663 5 0 0 0 - - -;
#X obj 3511 709 change;
#X obj 3510 731 == 1;
#X floatatom 3647 809 5 0 0 0 - - -;
#X obj 3531 786 pack \$1 \$2;
#X msg 3571 819 \$2;
#X msg 3528 819 \$1;
#X obj 3571 845 spigot 0;
#X obj 3626 825 tgl 15 0 empty empty empty 17 7 0 10 -262144 -1 -1
0 1;
#X obj 3717 750 t b f f;
#X msg 3718 634 \$1;
#X floatatom 3717 657 5 0 0 0 - - -;
#X obj 3716 703 change;
#X obj 3715 725 == 1;
#X obj 3736 780 pack \$1 \$2;
#X msg 3776 813 \$2;
#X msg 3733 813 \$1;
#X obj 3776 839 spigot 0;
#X obj 3831 819 tgl 15 0 empty empty empty 17 7 0 10 -262144 -1 -1
0 1;
#X floatatom 3844 799 5 0 0 0 - - -;
#X obj 695 724 == 16;
#X obj 888 721 == 17;
#X obj 1077 724 == 18;
#X obj 1277 719 == 19;
#X obj 1495 712 == 20;
#X obj 1687 709 == 21;
#X obj 1876 712 == 22;
#X obj 2076 707 == 23;
#X obj 2330 698 == 24;
#X obj 2523 695 == 25;
#X obj 2712 698 == 26;
#X obj 2914 695 == 27;
#X obj 3129 686 == 28;
#X obj 3322 683 == 29;
#X obj 3511 686 == 30;
#X obj 3716 680 == 31;
#X connect 0 0 7 0;
#X connect 0 0 8 0;
#X connect 0 1 228 0;
#X connect 1 0 3 0;
#X connect 2 0 11 0;
#X connect 3 0 2 0;
#X connect 4 0 6 0;
#X connect 5 0 12 0;
#X connect 6 0 5 0;
#X connect 7 0 4 0;
#X connect 8 0 1 0;
#X connect 9 0 0 0;
#X connect 10 0 16 0;
#X connect 11 0 13 0;
#X connect 11 0 17 0;
#X connect 12 0 14 0;
#X connect 14 0 51 0;
#X connect 15 0 0 0;
#X connect 16 0 15 0;
#X connect 16 0 230 0;
#X connect 16 0 233 0;
#X connect 16 0 232 0;
#X connect 16 0 231 0;
#X connect 16 0 20 0;
#X connect 18 0 21 0;
#X connect 18 0 246 0;
#X connect 19 0 26 0;
#X connect 19 0 29 0;
#X connect 19 0 28 0;
#X connect 19 0 27 0;
#X connect 19 0 18 0;
#X connect 19 0 81 0;
#X connect 19 0 70 0;
#X connect 19 0 58 0;
#X connect 19 0 40 0;
#X connect 19 0 210 0;
#X connect 19 0 199 0;
#X connect 19 0 185 0;
#X connect 19 0 175 0;
#X connect 19 0 165 0;
#X connect 19 0 154 0;
#X connect 19 0 140 0;
#X connect 19 0 130 0;
#X connect 19 0 116 0;
#X connect 19 0 105 0;
#X connect 19 0 91 0;
#X connect 19 0 248 0;
#X connect 19 0 418 0;
#X connect 19 0 407 0;
#X connect 19 0 393 0;
#X connect 19 0 383 0;
#X connect 19 0 373 0;
#X connect 19 0 362 0;
#X connect 19 0 348 0;
#X connect 19 0 338 0;
#X connect 19 0 328 0;
#X connect 19 0 317 0;
#X connect 19 0 303 0;
#X connect 19 0 293 0;
#X connect 19 0 283 0;
#X connect 19 0 272 0;
#X connect 19 0 258 0;
#X connect 20 0 19 0;
#X connect 21 0 46 0;
#X connect 22 0 30 0;
#X connect 22 0 83 0;
#X connect 22 0 132 0;
#X connect 22 0 177 0;
#X connect 22 0 250 0;
#X connect 22 0 295 0;
#X connect 22 0 340 0;
#X connect 22 0 385 0;
#X connect 23 0 31 0;
#X connect 23 0 84 0;
#X connect 23 0 133 0;
#X connect 23 0 178 0;
#X connect 23 0 251 0;
#X connect 23 0 296 0;
#X connect 23 0 341 0;
#X connect 23 0 386 0;
#X connect 24 0 57 0;
#X connect 24 0 110 0;
#X connect 24 0 153 0;
#X connect 24 0 198 0;
#X connect 24 0 271 0;
#X connect 24 0 316 0;
#X connect 24 0 361 0;
#X connect 24 0 406 0;
#X connect 25 0 69 0;
#X connect 25 0 115 0;
#X connect 25 0 164 0;
#X connect 25 0 209 0;
#X connect 25 0 282 0;
#X connect 25 0 327 0;
#X connect 25 0 372 0;
#X connect 25 0 417 0;
#X connect 26 0 22 0;
#X connect 27 0 23 0;
#X connect 28 0 24 0;
#X connect 29 0 25 0;
#X connect 30 1 32 0;
#X connect 30 2 32 1;
#X connect 31 1 47 0;
#X connect 31 2 47 1;
#X connect 32 0 33 0;
#X connect 32 0 35 0;
#X connect 33 0 55 0;
#X connect 34 0 36 0;
#X connect 36 0 30 0;
#X connect 37 0 50 0;
#X connect 37 0 239 0;
#X connect 38 0 238 0;
#X connect 40 0 41 0;
#X connect 41 0 42 0;
#X connect 42 0 43 0;
#X connect 42 0 45 0;
#X connect 43 0 44 0;
#X connect 44 0 31 0;
#X connect 45 0 53 0;
#X connect 46 0 34 0;
#X connect 46 0 39 0;
#X connect 46 0 54 0;
#X connect 47 0 48 0;
#X connect 47 0 49 0;
#X connect 48 0 52 0;
#X connect 50 0 241 0;
#X connect 50 0 240 0;
#X connect 51 0 19 0;
#X connect 51 1 50 0;
#X connect 52 0 247 0;
#X connect 52 0 236 0;
#X connect 53 0 52 1;
#X connect 54 0 56 0;
#X connect 55 0 247 0;
#X connect 55 0 236 0;
#X connect 56 0 55 1;
#X connect 57 1 63 0;
#X connect 57 2 63 1;
#X connect 58 0 59 0;
#X connect 59 0 68 0;
#X connect 60 0 61 0;
#X connect 61 0 57 0;
#X connect 62 0 67 0;
#X connect 63 0 64 0;
#X connect 63 0 65 0;
#X connect 64 0 66 0;
#X connect 66 0 247 0;
#X connect 66 0 236 0;
#X connect 67 0 66 1;
#X connect 68 0 60 0;
#X connect 68 0 62 0;
#X connect 69 1 75 0;
#X connect 69 2 75 1;
#X connect 70 0 71 0;
#X connect 71 0 80 0;
#X connect 72 0 73 0;
#X connect 73 0 69 0;
#X connect 74 0 79 0;
#X connect 75 0 76 0;
#X connect 75 0 77 0;
#X connect 76 0 78 0;
#X connect 78 0 247 0;
#X connect 78 0 236 0;
#X connect 79 0 78 1;
#X connect 80 0 72 0;
#X connect 80 0 74 0;
#X connect 81 0 82 0;
#X connect 82 0 126 0;
#X connect 83 1 85 0;
#X connect 83 2 85 1;
#X connect 84 1 96 0;
#X connect 84 2 96 1;
#X connect 85 0 86 0;
#X connect 85 0 88 0;
#X connect 86 0 102 0;
#X connect 87 0 89 0;
#X connect 89 0 83 0;
#X connect 91 0 92 0;
#X connect 92 0 127 0;
#X connect 93 0 94 0;
#X connect 94 0 84 0;
#X connect 95 0 100 0;
#X connect 96 0 97 0;
#X connect 96 0 98 0;
#X connect 97 0 99 0;
#X connect 99 0 247 0;
#X connect 99 0 236 0;
#X connect 100 0 99 1;
#X connect 101 0 103 0;
#X connect 102 0 247 0;
#X connect 102 0 236 0;
#X connect 103 0 102 1;
#X connect 104 1 110 0;
#X connect 104 2 110 1;
#X connect 105 0 106 0;
#X connect 106 0 128 0;
#X connect 107 0 108 0;
#X connect 108 0 104 0;
#X connect 109 0 114 0;
#X connect 110 0 111 0;
#X connect 110 0 112 0;
#X connect 111 0 113 0;
#X connect 113 0 247 0;
#X connect 113 0 236 0;
#X connect 114 0 113 1;
#X connect 115 1 121 0;
#X connect 115 2 121 1;
#X connect 116 0 117 0;
#X connect 117 0 129 0;
#X connect 118 0 119 0;
#X connect 119 0 115 0;
#X connect 120 0 125 0;
#X connect 121 0 122 0;
#X connect 121 0 123 0;
#X connect 122 0 124 0;
#X connect 124 0 247 0;
#X connect 124 0 236 0;
#X connect 125 0 124 1;
#X connect 126 0 87 0;
#X connect 126 0 90 0;
#X connect 126 0 101 0;
#X connect 127 0 93 0;
#X connect 127 0 95 0;
#X connect 128 0 107 0;
#X connect 128 0 109 0;
#X connect 129 0 118 0;
#X connect 129 0 120 0;
#X connect 130 0 131 0;
#X connect 131 0 219 0;
#X connect 132 1 134 0;
#X connect 132 2 134 1;
#X connect 133 1 145 0;
#X connect 133 2 145 1;
#X connect 134 0 135 0;
#X connect 134 0 137 0;
#X connect 135 0 151 0;
#X connect 136 0 138 0;
#X connect 138 0 132 0;
#X connect 140 0 141 0;
#X connect 141 0 220 0;
#X connect 142 0 143 0;
#X connect 143 0 133 0;
#X connect 144 0 149 0;
#X connect 145 0 146 0;
#X connect 145 0 147 0;
#X connect 146 0 148 0;
#X connect 148 0 247 0;
#X connect 148 0 236 0;
#X connect 149 0 148 1;
#X connect 150 0 152 0;
#X connect 151 0 247 0;
#X connect 151 0 236 0;
#X connect 152 0 151 1;
#X connect 153 1 159 0;
#X connect 153 2 159 1;
#X connect 154 0 155 0;
#X connect 155 0 221 0;
#X connect 156 0 157 0;
#X connect 157 0 153 0;
#X connect 158 0 163 0;
#X connect 159 0 160 0;
#X connect 159 0 161 0;
#X connect 160 0 162 0;
#X connect 162 0 247 0;
#X connect 162 0 236 0;
#X connect 163 0 162 1;
#X connect 164 1 170 0;
#X connect 164 2 170 1;
#X connect 165 0 166 0;
#X connect 166 0 222 0;
#X connect 167 0 168 0;
#X connect 168 0 164 0;
#X connect 169 0 174 0;
#X connect 170 0 171 0;
#X connect 170 0 172 0;
#X connect 171 0 173 0;
#X connect 173 0 247 0;
#X connect 173 0 236 0;
#X connect 174 0 173 1;
#X connect 175 0 176 0;
#X connect 176 0 223 0;
#X connect 177 1 179 0;
#X connect 177 2 179 1;
#X connect 178 1 190 0;
#X connect 178 2 190 1;
#X connect 179 0 180 0;
#X connect 179 0 182 0;
#X connect 180 0 196 0;
#X connect 181 0 183 0;
#X connect 183 0 177 0;
#X connect 185 0 186 0;
#X connect 186 0 224 0;
#X connect 187 0 188 0;
#X connect 188 0 178 0;
#X connect 189 0 194 0;
#X connect 190 0 191 0;
#X connect 190 0 192 0;
#X connect 191 0 193 0;
#X connect 193 0 247 0;
#X connect 193 0 236 0;
#X connect 194 0 193 1;
#X connect 195 0 197 0;
#X connect 196 0 247 0;
#X connect 196 0 236 0;
#X connect 197 0 196 1;
#X connect 198 1 204 0;
#X connect 198 2 204 1;
#X connect 199 0 200 0;
#X connect 200 0 225 0;
#X connect 201 0 202 0;
#X connect 202 0 198 0;
#X connect 203 0 208 0;
#X connect 204 0 205 0;
#X connect 204 0 206 0;
#X connect 205 0 207 0;
#X connect 207 0 247 0;
#X connect 207 0 236 0;
#X connect 208 0 207 1;
#X connect 209 1 214 0;
#X connect 209 2 214 1;
#X connect 210 0 211 0;
#X connect 211 0 226 0;
#X connect 212 0 213 0;
#X connect 213 0 209 0;
#X connect 214 0 215 0;
#X connect 214 0 216 0;
#X connect 215 0 217 0;
#X connect 217 0 247 0;
#X connect 217 0 236 0;
#X connect 218 0 217 1;
#X connect 219 0 136 0;
#X connect 219 0 139 0;
#X connect 219 0 150 0;
#X connect 220 0 142 0;
#X connect 220 0 144 0;
#X connect 221 0 156 0;
#X connect 221 0 158 0;
#X connect 222 0 167 0;
#X connect 222 0 169 0;
#X connect 223 0 181 0;
#X connect 223 0 184 0;
#X connect 223 0 195 0;
#X connect 224 0 187 0;
#X connect 224 0 189 0;
#X connect 225 0 201 0;
#X connect 225 0 203 0;
#X connect 226 0 212 0;
#X connect 226 0 227 0;
#X connect 227 0 218 0;
#X connect 228 0 229 0;
#X connect 230 0 19 1;
#X connect 231 0 19 2;
#X connect 232 0 19 3;
#X connect 233 0 19 4;
#X connect 234 0 37 0;
#X connect 234 0 38 0;
#X connect 235 0 234 2;
#X connect 236 0 235 0;
#X connect 236 1 237 0;
#X connect 237 0 234 0;
#X connect 242 0 243 0;
#X connect 242 0 244 0;
#X connect 244 0 245 0;
#X connect 245 0 243 0;
#X connect 246 0 234 1;
#X connect 247 0 50 1;
#X connect 248 0 249 0;
#X connect 249 0 428 0;
#X connect 250 1 252 0;
#X connect 250 2 252 1;
#X connect 251 1 263 0;
#X connect 251 2 263 1;
#X connect 252 0 253 0;
#X connect 252 0 255 0;
#X connect 253 0 269 0;
#X connect 254 0 256 0;
#X connect 256 0 250 0;
#X connect 258 0 259 0;
#X connect 259 0 429 0;
#X connect 260 0 261 0;
#X connect 261 0 251 0;
#X connect 262 0 267 0;
#X connect 263 0 264 0;
#X connect 263 0 265 0;
#X connect 264 0 266 0;
#X connect 266 0 247 0;
#X connect 267 0 266 1;
#X connect 268 0 270 0;
#X connect 269 0 247 0;
#X connect 270 0 269 1;
#X connect 271 1 277 0;
#X connect 271 2 277 1;
#X connect 272 0 273 0;
#X connect 273 0 430 0;
#X connect 274 0 275 0;
#X connect 275 0 271 0;
#X connect 276 0 281 0;
#X connect 277 0 278 0;
#X connect 277 0 279 0;
#X connect 278 0 280 0;
#X connect 280 0 247 0;
#X connect 281 0 280 1;
#X connect 282 1 288 0;
#X connect 282 2 288 1;
#X connect 283 0 284 0;
#X connect 284 0 431 0;
#X connect 285 0 286 0;
#X connect 286 0 282 0;
#X connect 287 0 292 0;
#X connect 288 0 289 0;
#X connect 288 0 290 0;
#X connect 289 0 291 0;
#X connect 291 0 247 0;
#X connect 292 0 291 1;
#X connect 293 0 294 0;
#X connect 294 0 432 0;
#X connect 295 1 297 0;
#X connect 295 2 297 1;
#X connect 296 1 308 0;
#X connect 296 2 308 1;
#X connect 297 0 298 0;
#X connect 297 0 300 0;
#X connect 298 0 314 0;
#X connect 299 0 301 0;
#X connect 301 0 295 0;
#X connect 303 0 304 0;
#X connect 304 0 433 0;
#X connect 305 0 306 0;
#X connect 306 0 296 0;
#X connect 307 0 312 0;
#X connect 308 0 309 0;
#X connect 308 0 310 0;
#X connect 309 0 311 0;
#X connect 311 0 247 0;
#X connect 312 0 311 1;
#X connect 313 0 315 0;
#X connect 314 0 247 0;
#X connect 315 0 314 1;
#X connect 316 1 322 0;
#X connect 316 2 322 1;
#X connect 317 0 318 0;
#X connect 318 0 434 0;
#X connect 319 0 320 0;
#X connect 320 0 316 0;
#X connect 321 0 326 0;
#X connect 322 0 323 0;
#X connect 322 0 324 0;
#X connect 323 0 325 0;
#X connect 325 0 247 0;
#X connect 326 0 325 1;
#X connect 327 1 333 0;
#X connect 327 2 333 1;
#X connect 328 0 329 0;
#X connect 329 0 435 0;
#X connect 330 0 331 0;
#X connect 331 0 327 0;
#X connect 332 0 337 0;
#X connect 333 0 334 0;
#X connect 333 0 335 0;
#X connect 334 0 336 0;
#X connect 336 0 247 0;
#X connect 337 0 336 1;
#X connect 338 0 339 0;
#X connect 339 0 436 0;
#X connect 340 1 342 0;
#X connect 340 2 342 1;
#X connect 341 1 353 0;
#X connect 341 2 353 1;
#X connect 342 0 343 0;
#X connect 342 0 345 0;
#X connect 343 0 359 0;
#X connect 344 0 346 0;
#X connect 346 0 340 0;
#X connect 348 0 349 0;
#X connect 349 0 437 0;
#X connect 350 0 351 0;
#X connect 351 0 341 0;
#X connect 352 0 357 0;
#X connect 353 0 354 0;
#X connect 353 0 355 0;
#X connect 354 0 356 0;
#X connect 356 0 247 0;
#X connect 357 0 356 1;
#X connect 358 0 360 0;
#X connect 359 0 247 0;
#X connect 360 0 359 1;
#X connect 361 1 367 0;
#X connect 361 2 367 1;
#X connect 362 0 363 0;
#X connect 363 0 438 0;
#X connect 364 0 365 0;
#X connect 365 0 361 0;
#X connect 366 0 371 0;
#X connect 367 0 368 0;
#X connect 367 0 369 0;
#X connect 368 0 370 0;
#X connect 370 0 247 0;
#X connect 371 0 370 1;
#X connect 372 1 378 0;
#X connect 372 2 378 1;
#X connect 373 0 374 0;
#X connect 374 0 439 0;
#X connect 375 0 376 0;
#X connect 376 0 372 0;
#X connect 377 0 382 0;
#X connect 378 0 379 0;
#X connect 378 0 380 0;
#X connect 379 0 381 0;
#X connect 381 0 247 0;
#X connect 382 0 381 1;
#X connect 383 0 384 0;
#X connect 384 0 440 0;
#X connect 385 1 387 0;
#X connect 385 2 387 1;
#X connect 386 1 398 0;
#X connect 386 2 398 1;
#X connect 387 0 388 0;
#X connect 387 0 390 0;
#X connect 388 0 404 0;
#X connect 389 0 391 0;
#X connect 391 0 385 0;
#X connect 393 0 394 0;
#X connect 394 0 441 0;
#X connect 395 0 396 0;
#X connect 396 0 386 0;
#X connect 397 0 402 0;
#X connect 398 0 399 0;
#X connect 398 0 400 0;
#X connect 399 0 401 0;
#X connect 401 0 247 0;
#X connect 402 0 401 1;
#X connect 403 0 405 0;
#X connect 404 0 247 0;
#X connect 405 0 404 1;
#X connect 406 1 412 0;
#X connect 406 2 412 1;
#X connect 407 0 408 0;
#X connect 408 0 442 0;
#X connect 409 0 410 0;
#X connect 410 0 406 0;
#X connect 411 0 416 0;
#X connect 412 0 413 0;
#X connect 412 0 414 0;
#X connect 413 0 415 0;
#X connect 415 0 247 0;
#X connect 416 0 415 1;
#X connect 417 1 422 0;
#X connect 417 2 422 1;
#X connect 418 0 419 0;
#X connect 419 0 443 0;
#X connect 420 0 421 0;
#X connect 421 0 417 0;
#X connect 422 0 423 0;
#X connect 422 0 424 0;
#X connect 423 0 425 0;
#X connect 425 0 247 0;
#X connect 426 0 425 1;
#X connect 427 0 426 0;
#X connect 428 0 254 0;
#X connect 428 0 257 0;
#X connect 428 0 268 0;
#X connect 429 0 260 0;
#X connect 429 0 262 0;
#X connect 430 0 274 0;
#X connect 430 0 276 0;
#X connect 431 0 285 0;
#X connect 431 0 287 0;
#X connect 432 0 299 0;
#X connect 432 0 302 0;
#X connect 432 0 313 0;
#X connect 433 0 305 0;
#X connect 433 0 307 0;
#X connect 434 0 319 0;
#X connect 434 0 321 0;
#X connect 435 0 330 0;
#X connect 435 0 332 0;
#X connect 436 0 344 0;
#X connect 436 0 347 0;
#X connect 436 0 358 0;
#X connect 437 0 350 0;
#X connect 437 0 352 0;
#X connect 438 0 364 0;
#X connect 438 0 366 0;
#X connect 439 0 375 0;
#X connect 439 0 377 0;
#X connect 440 0 389 0;
#X connect 440 0 392 0;
#X connect 440 0 403 0;
#X connect 441 0 395 0;
#X connect 441 0 397 0;
#X connect 442 0 409 0;
#X connect 442 0 411 0;
#X connect 443 0 420 0;
#X connect 443 0 427 0;
#X restore 601 699 pd changeactivestepcolor \$1;
#X msg 261 1 0;
#X obj 19 1 OBVelSelector \$1;
#X floatatom 285 310 5 0 0 0 - - -;
#N canvas 149 155 504 300 changeSoftVelColor 0;
#X obj 57 56 == 0;
#X floatatom 59 77 5 0 0 0 - - -;
#X symbolatom 185 170 20 0 0 0 - - -;
#X obj 146 194 symbol;
#X msg 146 112 bang;
#X msg 183 142 symbol \$1-velsoft-recv;
#X obj 132 269 s;
#X obj 59 97 == 1;
#X msg 60 201 bang;
#X obj 59 124 t b;
#X obj 54 23 inlet;
#X obj 174 36 inlet;
#X obj 124 27 inlet;
#X floatatom 307 58 5 0 0 0 - - -;
#X obj 307 82 == 1;
#X msg 309 194 bang;
#X obj 308 111 t b;
#X obj 307 34 != 0;
#X obj 435 62 vsl 15 128 0 127 0 0 empty empty empty 0 -9 0 10 -262144
-1 -1 0 1;
#X floatatom 424 212 5 0 0 0 - - -;
#X text 302 239 dark yellow 24;
#X text 73 247 yellow 15;
#X msg 75 229 color 15;
#X msg 309 218 color 24;
#X obj 84 179 t b b;
#X obj 332 170 t b b;
#X obj 462 32 inlet;
#X obj 84 158 delay 5;
#X obj 334 147 delay 5;
#X connect 0 0 1 0;
#X connect 1 0 7 0;
#X connect 2 0 3 1;
#X connect 3 0 6 1;
#X connect 4 0 3 0;
#X connect 5 0 2 0;
#X connect 7 0 9 0;
#X connect 7 0 27 0;
#X connect 8 0 22 0;
#X connect 9 0 8 0;
#X connect 10 0 0 0;
#X connect 10 0 17 0;
#X connect 11 0 4 0;
#X connect 12 0 5 0;
#X connect 13 0 14 0;
#X connect 14 0 16 0;
#X connect 14 0 28 0;
#X connect 15 0 23 0;
#X connect 16 0 15 0;
#X connect 17 0 13 0;
#X connect 18 0 19 0;
#X connect 22 0 6 0;
#X connect 23 0 6 0;
#X connect 24 0 4 0;
#X connect 24 1 8 0;
#X connect 25 0 4 0;
#X connect 25 1 15 0;
#X connect 26 0 18 0;
#X connect 27 0 24 0;
#X connect 28 0 25 0;
#X restore 284 538 pd changeSoftVelColor \$1;
#X f 25;
#N canvas 162 111 748 686 changeMediumVelColor 0;
#X floatatom 59 77 5 0 0 0 - - -;
#X symbolatom 185 170 20 0 0 0 - - -;
#X obj 146 194 symbol;
#X msg 146 112 bang;
#X obj 132 269 s;
#X obj 59 97 == 1;
#X msg 60 201 bang;
#X obj 59 124 t b;
#X obj 54 23 inlet;
#X obj 174 36 inlet;
#X obj 124 27 inlet;
#X floatatom 336 75 5 0 0 0 - - -;
#X obj 336 99 == 1;
#X msg 338 211 bang;
#X obj 337 128 t b;
#X obj 435 62 vsl 15 128 0 127 0 0 empty empty empty 0 -9 0 10 -262144
-1 -1 0 1;
#X floatatom 408 229 5 0 0 0 - - -;
#X msg 75 229 color 44;
#X msg 183 142 symbol \$1-velmed-recv;
#X obj 57 56 == 1;
#X obj 335 51 != 1;
#X text 73 247 orange 44;
#X obj 361 187 t b b;
#X obj 84 179 t b b;
#X msg 338 235 color 25;
#X text 331 256 dark orange 25;
#X obj 84 158 delay 5;
#X obj 363 164 delay 5;
#X connect 0 0 5 0;
#X connect 1 0 2 1;
#X connect 2 0 4 1;
#X connect 3 0 2 0;
#X connect 5 0 7 0;
#X connect 5 0 26 0;
#X connect 6 0 17 0;
#X connect 7 0 6 0;
#X connect 8 0 19 0;
#X connect 8 0 20 0;
#X connect 9 0 3 0;
#X connect 10 0 18 0;
#X connect 11 0 12 0;
#X connect 12 0 14 0;
#X connect 12 0 27 0;
#X connect 13 0 24 0;
#X connect 14 0 13 0;
#X connect 15 0 16 0;
#X connect 17 0 4 0;
#X connect 18 0 1 0;
#X connect 19 0 0 0;
#X connect 20 0 11 0;
#X connect 22 0 3 0;
#X connect 22 1 13 0;
#X connect 23 0 3 0;
#X connect 23 1 6 0;
#X connect 24 0 4 0;
#X connect 26 0 23 0;
#X connect 27 0 22 0;
#X restore 299 570 pd changeMediumVelColor \$1;
#N canvas 34 184 450 300 changeHardVelColor 0;
#X floatatom 59 77 5 0 0 0 - - -;
#X symbolatom 185 170 20 0 0 0 - - -;
#X obj 146 194 symbol;
#X msg 146 112 bang;
#X obj 132 269 s;
#X obj 59 97 == 1;
#X msg 60 201 bang;
#X obj 59 124 t b;
#X obj 54 23 inlet;
#X obj 174 36 inlet;
#X obj 124 27 inlet;
#X floatatom 336 75 5 0 0 0 - - -;
#X obj 336 99 == 1;
#X msg 338 211 bang;
#X obj 337 128 t b;
#X obj 435 62 vsl 15 128 0 127 0 0 empty empty empty 0 -9 0 10 -262144
-1 -1 0 1;
#X msg 183 142 symbol \$1-velhard-recv;
#X msg 75 229 color 13;
#X text 73 247 red 13;
#X obj 57 56 == 2;
#X obj 335 51 != 2;
#X obj 75 168 t b b;
#X obj 361 187 t b b;
#X obj 187 74 pack \$1 \$2;
#X msg 188 98 \$2;
#X obj 129 61 t b;
#X msg 131 83 0;
#X floatatom 409 222 5 0 0 0 - - -;
#X msg 338 235 color 23;
#X text 332 256 dark red 23;
#X obj 75 147 delay 5;
#X obj 363 164 delay 5;
#X connect 0 0 5 0;
#X connect 1 0 2 1;
#X connect 2 0 4 1;
#X connect 3 0 2 0;
#X connect 5 0 7 0;
#X connect 5 0 30 0;
#X connect 6 0 17 0;
#X connect 7 0 6 0;
#X connect 8 0 19 0;
#X connect 8 0 20 0;
#X connect 9 0 3 0;
#X connect 10 0 23 1;
#X connect 10 0 25 0;
#X connect 11 0 12 0;
#X connect 12 0 14 0;
#X connect 12 0 31 0;
#X connect 13 0 28 0;
#X connect 14 0 13 0;
#X connect 15 0 27 0;
#X connect 16 0 1 0;
#X connect 17 0 4 0;
#X connect 19 0 0 0;
#X connect 20 0 11 0;
#X connect 21 0 3 0;
#X connect 21 1 6 0;
#X connect 22 0 3 0;
#X connect 22 1 13 0;
#X connect 23 0 24 0;
#X connect 24 0 16 0;
#X connect 25 0 26 0;
#X connect 26 0 23 0;
#X connect 28 0 4 0;
#X connect 30 0 21 0;
#X connect 31 0 22 0;
#X restore 315 608 pd changeHardVelColor \$1;
#X obj 360 239 t b f f f b b b, f 30;
#X obj 3 74 cnv 15 15 15 \$1-octlbl-send \$1-octlbl-recv C 1 7 0 9
-195568 -262144 0;
#X obj 2 5 cnv 14 14 14 \$1-filler-send \$1-filler-recv empty 20 12
0 14 -33289 -66577 0;
#X obj 42 76 vsl 8 25 12 1 0 0 empty empty empty 0 -9 0 10 -262144
-1 -1 2400 1;
#X floatatom 631 79 6 0 0 0 - - -;
#X obj 631 133 s \$1-octlbl-recv;
#X obj 51 125 vsl 8 15 12 1 0 0 empty empty empty 0 -9 0 10 -262144
-1 -1 0 1;
#X obj 355 319 t f f;
#X msg 742 76 symbol \$1-octave_value;
#N canvas 696 150 450 487 OBFindStepState 0;
#X obj 79 55 inlet;
#X floatatom 77 148 5 0 0 0 - - -;
#X floatatom 77 258 5 0 0 0 - - -;
#X obj 77 237 t b f;
#X obj 77 175 change;
#X obj 77 284 > 0;
#X obj 77 121 == 0;
#X obj 77 311 t b f;
#X obj 77 92 change;
#X obj 77 203 == 0;
#X obj 78 454 outlet;
#X connect 0 0 8 0;
#X connect 1 0 4 0;
#X connect 2 0 5 0;
#X connect 3 0 2 0;
#X connect 3 1 2 0;
#X connect 4 0 9 0;
#X connect 5 0 7 0;
#X connect 6 0 1 0;
#X connect 7 1 10 0;
#X connect 8 0 6 0;
#X connect 9 0 3 0;
#X restore 99 435 pd OBFindStepState;
#X f 23;
#X obj 114 460 pack \$1 \$2;
#X msg 114 487 \$1;
#X msg 178 488 \$2;
#X obj 285 287 t f;
#X obj 336 451 symbol;
#X obj 321 498 s;
#X obj 284 363 t f f f b f;
#X floatatom 643 636 5 0 0 0 - - -;
#X msg 335 406 bang;
#X floatatom 644 381 5 0 0 0 - - -;
#X obj 631 168 r currentstep;
#X floatatom 633 232 5 0 0 0 - - -;
#N canvas 245 128 1002 730 OBPlayVelocityControl 0;
#X obj 42 11 inlet;
#X obj 340 79 == 0;
#X obj 509 76 == 1;
#X obj 685 68 == 2;
#X obj 389 260 r velsoft_value;
#X obj 332 286 pack \$1 \$2;
#X obj 332 159 change;
#X msg 331 240 0;
#X msg 332 309 \$2;
#X obj 508 255 pack \$1 \$2;
#X obj 508 146 change;
#X msg 507 226 0;
#X msg 508 279 \$2;
#X obj 565 228 r velmed_value;
#X obj 683 278 pack \$1 \$2;
#X obj 684 152 change;
#X msg 683 241 0;
#X msg 683 302 \$2;
#X obj 741 251 r velhard_value;
#X floatatom 332 332 5 0 0 0 - - -;
#X floatatom 508 304 5 0 0 0 - - -;
#X floatatom 683 328 5 0 0 0 - - -;
#X floatatom 341 103 5 0 0 0 - - -;
#X floatatom 509 102 5 0 0 0 - - -;
#X floatatom 683 93 5 0 0 0 - - -;
#X obj 332 359 spigot 0;
#X obj 508 331 spigot 0;
#X obj 683 357 spigot 0;
#X obj 389 335 tgl 15 0 empty empty empty 17 7 0 10 -262144 -1 -1 0
1;
#X obj 565 306 tgl 15 0 empty empty empty 17 7 0 10 -262144 -1 -1 1
1;
#X obj 743 333 tgl 15 0 empty empty empty 17 7 0 10 -262144 -1 -1 0
1;
#X obj 481 124 t f f;
#X obj 305 129 t f f;
#X obj 657 126 t f f;
#X floatatom 296 217 5 0 0 0 - - -;
#X floatatom 464 194 5 0 0 0 - - -;
#X floatatom 641 200 5 0 0 0 - - -;
#X floatatom 683 385 5 0 0 0 - - -;
#X floatatom 508 360 5 0 0 0 - - -;
#X floatatom 332 385 5 0 0 0 - - -;
#X floatatom 500 458 5 0 0 0 - - -;
#X obj 446 625 outlet;
#X obj 109 11 loadbang;
#X floatatom 413 95 5 0 0 0 - - -;
#X obj 443 524 pack \$1 \$2;
#X msg 446 548 \$2;
#X floatatom 446 573 5 0 0 0 - - -;
#X obj 500 483 t f;
#X obj 423 28 r v\$1-recv;
#X obj 14 270 change;
#X obj 16 366 sel 1;
#X obj 16 391 \$1;
#X floatatom 36 199 5 0 0 0 - - -;
#X obj 40 174 t f;
#X msg 109 55 \$1;
#X obj 110 35 \$1;
#X floatatom 76 466 5 0 0 0 - - -;
#X obj 310 482 t f;
#X obj 117 147 t f;
#X obj 81 235 > 0;
#X floatatom 122 186 5 0 0 0 - - -;
#X obj 16 231 <= 0;
#X obj 142 237 <= 0;
#X obj 177 16 inlet;
#X obj 196 80 ==;
#X floatatom 194 102 5 0 0 0 - - -;
#X obj 198 227 pack \$1 \$2;
#X obj 193 120 change;
#X obj 194 143 == 1;
#X msg 199 200 0;
#X floatatom 223 167 5 0 0 0 - - -;
#X obj 244 201 t f;
#X floatatom 127 90 5 0 0 0 - - -;
#X msg 197 257 \$2;
#X floatatom 15 252 5 0 0 0 - - -;
#X floatatom 16 291 5 0 0 0 - - -;
#X floatatom 16 342 5 0 0 0 - - -;
#X obj 74 277 change;
#X obj 76 373 sel 1;
#X obj 76 398 \$1;
#X floatatom 75 259 5 0 0 0 - - -;
#X floatatom 76 298 5 0 0 0 - - -;
#X floatatom 76 349 5 0 0 0 - - -;
#X obj 126 284 change;
#X obj 128 380 sel 1;
#X obj 128 405 \$1;
#X floatatom 127 266 5 0 0 0 - - -;
#X floatatom 128 305 5 0 0 0 - - -;
#X floatatom 128 356 5 0 0 0 - - -;
#X obj 29 416 t f;
#X obj 79 424 t f;
#X obj 116 429 t f;
#X obj 331 210 t f f;
#X obj 508 197 t f f;
#X obj 682 209 t f f;
#X obj 16 315 == 1;
#X obj 76 322 == 1;
#X obj 128 329 == 1;
#X obj 332 184 == 0;
#X obj 508 171 == 0;
#X obj 684 176 == 0;
#X obj 557 206 delay 2;
#X obj 732 206 delay 2;
#X obj 376 210 delay 2;
#X connect 0 0 53 0;
#X connect 1 0 22 0;
#X connect 2 0 23 0;
#X connect 3 0 24 0;
#X connect 4 0 5 1;
#X connect 5 0 8 0;
#X connect 6 0 98 0;
#X connect 7 0 5 0;
#X connect 8 0 19 0;
#X connect 9 0 12 0;
#X connect 10 0 99 0;
#X connect 11 0 9 0;
#X connect 12 0 20 0;
#X connect 13 0 9 1;
#X connect 14 0 17 0;
#X connect 15 0 100 0;
#X connect 16 0 14 0;
#X connect 17 0 21 0;
#X connect 18 0 14 1;
#X connect 19 0 25 0;
#X connect 20 0 26 0;
#X connect 21 0 27 0;
#X connect 22 0 32 0;
#X connect 23 0 31 0;
#X connect 24 0 33 0;
#X connect 25 0 39 0;
#X connect 26 0 38 0;
#X connect 27 0 37 0;
#X connect 28 0 25 1;
#X connect 29 0 26 1;
#X connect 30 0 27 1;
#X connect 31 0 29 0;
#X connect 31 1 10 0;
#X connect 32 0 28 0;
#X connect 32 1 6 0;
#X connect 33 0 30 0;
#X connect 33 1 15 0;
#X connect 37 0 40 0;
#X connect 38 0 40 0;
#X connect 39 0 40 0;
#X connect 40 0 47 0;
#X connect 42 0 55 0;
#X connect 44 0 45 0;
#X connect 45 0 46 0;
#X connect 46 0 41 0;
#X connect 47 0 44 1;
#X connect 47 0 57 0;
#X connect 48 0 1 0;
#X connect 48 0 3 0;
#X connect 48 0 2 0;
#X connect 48 0 43 0;
#X connect 49 0 75 0;
#X connect 50 0 51 0;
#X connect 51 0 89 0;
#X connect 52 0 61 0;
#X connect 53 0 52 0;
#X connect 53 0 59 0;
#X connect 54 0 58 0;
#X connect 54 0 64 1;
#X connect 54 0 72 0;
#X connect 55 0 54 0;
#X connect 56 0 92 0;
#X connect 56 0 94 0;
#X connect 56 0 93 0;
#X connect 57 0 44 0;
#X connect 58 0 60 0;
#X connect 59 0 80 0;
#X connect 60 0 59 0;
#X connect 60 0 62 0;
#X connect 61 0 74 0;
#X connect 62 0 86 0;
#X connect 63 0 64 0;
#X connect 64 0 65 0;
#X connect 65 0 67 0;
#X connect 66 0 73 0;
#X connect 67 0 68 0;
#X connect 68 0 69 0;
#X connect 68 0 70 0;
#X connect 69 0 66 0;
#X connect 71 0 66 1;
#X connect 72 0 71 0;
#X connect 73 0 53 0;
#X connect 74 0 49 0;
#X connect 75 0 95 0;
#X connect 76 0 50 0;
#X connect 77 0 81 0;
#X connect 78 0 79 0;
#X connect 79 0 90 0;
#X connect 80 0 77 0;
#X connect 81 0 96 0;
#X connect 82 0 78 0;
#X connect 83 0 87 0;
#X connect 84 0 85 0;
#X connect 85 0 91 0;
#X connect 86 0 83 0;
#X connect 87 0 97 0;
#X connect 88 0 84 0;
#X connect 89 0 56 0;
#X connect 90 0 56 0;
#X connect 91 0 56 0;
#X connect 92 0 7 0;
#X connect 92 0 103 0;
#X connect 92 1 7 0;
#X connect 93 0 11 0;
#X connect 93 0 101 0;
#X connect 93 1 11 0;
#X connect 94 0 16 0;
#X connect 94 0 102 0;
#X connect 94 1 16 0;
#X connect 95 0 76 0;
#X connect 96 0 82 0;
#X connect 97 0 88 0;
#X connect 98 0 34 0;
#X connect 98 0 92 0;
#X connect 99 0 35 0;
#X connect 99 0 93 0;
#X connect 100 0 36 0;
#X connect 100 0 94 0;
#X connect 101 0 11 0;
#X connect 102 0 16 0;
#X connect 103 0 7 0;
#X restore 644 358 pd OBPlayVelocityControl \$1;
#X floatatom 652 42 5 0 0 0 - - -;
#N canvas 251 344 831 300 OBNoteAdjustment 0;
#X obj 76 105 * 10;
#X floatatom 76 129 5 0 0 0 - - -;
#X obj 74 151 int;
#X floatatom 73 172 5 0 0 0 - - -;
#X obj 94 193 / 10;
#X floatatom 92 214 5 0 0 0 - - -;
#N canvas 0 50 450 300 DisplayStepNoteC 0;
#X obj 46 2 inlet;
#X obj 45 43 == 1;
#X floatatom 45 69 5 0 0 0 - - -;
#X obj 45 91 change;
#X obj 45 119 == 1;
#X floatatom 46 141 5 0 0 0 - - -;
#X obj 42 161 t b;
#X obj 31 244 outlet;
#X obj 148 148 delay 100;
#X obj 152 198 t b;
#X msg 38 196 label C;
#X connect 0 0 1 0;
#X connect 1 0 2 0;
#X connect 2 0 3 0;
#X connect 3 0 4 0;
#X connect 4 0 5 0;
#X connect 5 0 6 0;
#X connect 6 0 10 0;
#X connect 6 0 8 0;
#X connect 8 0 9 0;
#X connect 9 0 10 0;
#X connect 10 0 7 0;
#X restore 77 307 pd DisplayStepNoteC;
#N canvas -6 268 450 300 DisplayStepNoteCShp 0;
#X obj 46 2 inlet;
#X floatatom 45 69 5 0 0 0 - - -;
#X obj 45 91 change;
#X floatatom 46 141 5 0 0 0 - - -;
#X obj 45 160 t b;
#X obj 36 221 outlet;
#X obj 45 43 == 2;
#X msg 41 196 label C#;
#X obj 45 119 == 0;
#X obj 133 117 delay 100;
#X obj 137 167 t b;
#X connect 0 0 6 0;
#X connect 1 0 2 0;
#X connect 2 0 8 0;
#X connect 3 0 4 0;
#X connect 4 0 7 0;
#X connect 4 0 9 0;
#X connect 6 0 1 0;
#X connect 7 0 5 0;
#X connect 8 0 3 0;
#X connect 9 0 10 0;
#X connect 10 0 7 0;
#X restore 94 329 pd DisplayStepNoteCShp;
#X obj 90 240 int;
#X floatatom 91 261 5 0 0 0 - - -;
#N canvas 0 50 450 300 DisplayStepNoteD 0;
#X obj 46 2 inlet;
#X floatatom 45 69 5 0 0 0 - - -;
#X obj 45 91 change;
#X obj 45 119 == 1;
#X floatatom 46 141 5 0 0 0 - - -;
#X obj 42 161 t b;
#X obj 31 244 outlet;
#X obj 148 148 delay 100;
#X obj 152 198 t b;
#X obj 45 43 == 3;
#X msg 38 196 label D;
#X connect 0 0 9 0;
#X connect 1 0 2 0;
#X connect 2 0 3 0;
#X connect 3 0 4 0;
#X connect 4 0 5 0;
#X connect 5 0 10 0;
#X connect 5 0 7 0;
#X connect 7 0 8 0;
#X connect 8 0 10 0;
#X connect 9 0 1 0;
#X connect 10 0 6 0;
#X restore 112 352 pd DisplayStepNoteD;
#N canvas -6 268 450 300 DisplayStepNoteDShp 0;
#X obj 46 2 inlet;
#X floatatom 45 69 5 0 0 0 - - -;
#X obj 45 91 change;
#X floatatom 46 141 5 0 0 0 - - -;
#X obj 45 160 t b;
#X obj 36 221 outlet;
#X obj 45 119 == 0;
#X obj 46 43 == 4;
#X msg 41 182 label D#;
#X obj 133 117 delay 100;
#X obj 137 167 t b;
#X connect 0 0 7 0;
#X connect 1 0 2 0;
#X connect 2 0 6 0;
#X connect 3 0 4 0;
#X connect 4 0 8 0;
#X connect 4 0 9 0;
#X connect 6 0 3 0;
#X connect 7 0 1 0;
#X connect 8 0 5 0;
#X connect 9 0 10 0;
#X connect 10 0 8 0;
#X restore 128 372 pd DisplayStepNoteDShp;
#N canvas 0 50 450 300 DisplayStepNoteE 0;
#X obj 46 2 inlet;
#X floatatom 45 69 5 0 0 0 - - -;
#X obj 45 91 change;
#X obj 45 119 == 1;
#X floatatom 46 141 5 0 0 0 - - -;
#X obj 42 161 t b;
#X obj 31 244 outlet;
#X obj 148 148 delay 100;
#X obj 152 198 t b;
#X obj 45 43 == 5;
#X msg 38 196 label E;
#X connect 0 0 9 0;
#X connect 1 0 2 0;
#X connect 2 0 3 0;
#X connect 3 0 4 0;
#X connect 4 0 5 0;
#X connect 5 0 10 0;
#X connect 5 0 7 0;
#X connect 7 0 8 0;
#X connect 8 0 10 0;
#X connect 9 0 1 0;
#X connect 10 0 6 0;
#X restore 141 395 pd DisplayStepNoteE;
#N canvas 0 50 450 300 DisplayStepNoteF 0;
#X obj 46 2 inlet;
#X floatatom 45 69 5 0 0 0 - - -;
#X obj 45 91 change;
#X obj 45 119 == 1;
#X floatatom 46 141 5 0 0 0 - - -;
#X obj 42 161 t b;
#X obj 31 244 outlet;
#X obj 148 148 delay 100;
#X obj 152 198 t b;
#X msg 38 196 label F;
#X obj 45 43 == 6;
#X connect 0 0 10 0;
#X connect 1 0 2 0;
#X connect 2 0 3 0;
#X connect 3 0 4 0;
#X connect 4 0 5 0;
#X connect 5 0 9 0;
#X connect 5 0 7 0;
#X connect 7 0 8 0;
#X connect 8 0 9 0;
#X connect 9 0 6 0;
#X connect 10 0 1 0;
#X restore 149 415 pd DisplayStepNoteF;
#N canvas -6 268 450 300 DisplayStepNoteGShp 0;
#X obj 46 2 inlet;
#X floatatom 45 69 5 0 0 0 - - -;
#X obj 45 91 change;
#X floatatom 46 141 5 0 0 0 - - -;
#X obj 45 160 t b;
#X obj 36 221 outlet;
#X obj 45 119 == 0;
#X msg 40 197 label G#;
#X obj 45 43 == 9;
#X obj 133 117 delay 100;
#X obj 137 167 t b;
#X connect 0 0 8 0;
#X connect 1 0 2 0;
#X connect 2 0 6 0;
#X connect 3 0 4 0;
#X connect 4 0 7 0;
#X connect 4 0 9 0;
#X connect 6 0 3 0;
#X connect 7 0 5 0;
#X connect 8 0 1 0;
#X connect 9 0 10 0;
#X connect 10 0 7 0;
#X restore 183 481 pd DisplayStepNoteGShp;
#N canvas 0 50 450 300 DisplayStepNoteG 0;
#X obj 46 2 inlet;
#X floatatom 45 69 5 0 0 0 - - -;
#X obj 45 91 change;
#X obj 45 119 == 1;
#X floatatom 46 141 5 0 0 0 - - -;
#X obj 42 161 t b;
#X obj 31 244 outlet;
#X obj 148 148 delay 100;
#X obj 152 198 t b;
#X obj 45 43 == 8;
#X msg 38 196 label G;
#X connect 0 0 9 0;
#X connect 1 0 2 0;
#X connect 2 0 3 0;
#X connect 3 0 4 0;
#X connect 4 0 5 0;
#X connect 5 0 10 0;
#X connect 5 0 7 0;
#X connect 7 0 8 0;
#X connect 8 0 10 0;
#X connect 9 0 1 0;
#X connect 10 0 6 0;
#X restore 179 460 pd DisplayStepNoteG;
#N canvas 0 50 450 300 DisplayStepNoteA 0;
#X obj 46 2 inlet;
#X floatatom 45 69 5 0 0 0 - - -;
#X obj 45 91 change;
#X obj 45 119 == 1;
#X floatatom 46 141 5 0 0 0 - - -;
#X obj 42 161 t b;
#X obj 31 244 outlet;
#X obj 148 148 delay 100;
#X obj 152 198 t b;
#X msg 38 196 label A;
#X obj 45 43 == 10;
#X connect 0 0 10 0;
#X connect 1 0 2 0;
#X connect 2 0 3 0;
#X connect 3 0 4 0;
#X connect 4 0 5 0;
#X connect 5 0 9 0;
#X connect 5 0 7 0;
#X connect 7 0 8 0;
#X connect 8 0 9 0;
#X connect 9 0 6 0;
#X connect 10 0 1 0;
#X restore 191 505 pd DisplayStepNoteA;
#N canvas -6 268 450 300 DisplayStepNoteAShp 0;
#X obj 46 2 inlet;
#X floatatom 45 69 5 0 0 0 - - -;
#X obj 45 91 change;
#X floatatom 46 141 5 0 0 0 - - -;
#X obj 45 160 t b;
#X obj 36 221 outlet;
#X obj 45 119 == 0;
#X msg 41 182 label A#;
#X obj 45 43 == 11;
#X obj 133 117 delay 100;
#X obj 121 157 t b;
#X connect 0 0 8 0;
#X connect 1 0 2 0;
#X connect 2 0 6 0;
#X connect 3 0 4 0;
#X connect 4 0 7 0;
#X connect 4 0 9 0;
#X connect 6 0 3 0;
#X connect 7 0 5 0;
#X connect 8 0 1 0;
#X connect 9 0 10 0;
#X connect 10 0 7 0;
#X restore 212 526 pd DisplayStepNoteAShp;
#N canvas 0 50 450 300 DisplayStepNoteB 0;
#X obj 46 2 inlet;
#X floatatom 45 69 5 0 0 0 - - -;
#X obj 45 91 change;
#X obj 45 119 == 1;
#X floatatom 46 141 5 0 0 0 - - -;
#X obj 42 161 t b;
#X obj 31 244 outlet;
#X obj 148 148 delay 100;
#X obj 152 198 t b;
#X obj 45 43 == 12;
#X msg 38 196 label B;
#X connect 0 0 9 0;
#X connect 1 0 2 0;
#X connect 2 0 3 0;
#X connect 3 0 4 0;
#X connect 4 0 5 0;
#X connect 5 0 10 0;
#X connect 5 0 7 0;
#X connect 7 0 8 0;
#X connect 8 0 10 0;
#X connect 9 0 1 0;
#X connect 10 0 6 0;
#X restore 227 547 pd DisplayStepNoteB;
#N canvas -6 268 450 300 DisplayStepNoteFShp 0;
#X obj 46 2 inlet;
#X floatatom 45 69 5 0 0 0 - - -;
#X obj 45 91 change;
#X floatatom 46 141 5 0 0 0 - - -;
#X obj 45 160 t b;
#X obj 36 221 outlet;
#X obj 45 119 == 0;
#X obj 45 43 == 7;
#X msg 41 182 label F#;
#X obj 133 117 delay 100;
#X obj 137 167 t b;
#X connect 0 0 7 0;
#X connect 1 0 2 0;
#X connect 2 0 6 0;
#X connect 3 0 4 0;
#X connect 4 0 8 0;
#X connect 4 0 9 0;
#X connect 6 0 3 0;
#X connect 7 0 1 0;
#X connect 8 0 5 0;
#X connect 9 0 10 0;
#X connect 10 0 8 0;
#X restore 159 437 pd DisplayStepNoteFShp;
#X obj 90 280 t f f f f f f f f f f f f;
#X obj 127 164 s;
#X obj 142 133 symbol;
#X obj 142 105 t b f;
#X obj 76 65 t f f;
#X obj 189 34 inlet;
#X obj 75 23 inlet;
#X obj 61 502 outlet;
#X connect 0 0 1 0;
#X connect 1 0 2 0;
#X connect 2 0 3 0;
#X connect 3 0 4 0;
#X connect 4 0 5 0;
#X connect 5 0 8 0;
#X connect 6 0 27 0;
#X connect 7 0 27 0;
#X connect 8 0 9 0;
#X connect 9 0 20 0;
#X connect 10 0 27 0;
#X connect 11 0 27 0;
#X connect 12 0 27 0;
#X connect 13 0 27 0;
#X connect 14 0 27 0;
#X connect 15 0 27 0;
#X connect 16 0 27 0;
#X connect 17 0 27 0;
#X connect 18 0 27 0;
#X connect 19 0 27 0;
#X connect 20 0 6 0;
#X connect 20 1 7 0;
#X connect 20 2 10 0;
#X connect 20 3 11 0;
#X connect 20 4 12 0;
#X connect 20 5 13 0;
#X connect 20 6 19 0;
#X connect 20 7 15 0;
#X connect 20 8 14 0;
#X connect 20 9 16 0;
#X connect 20 10 17 0;
#X connect 20 11 18 0;
#X connect 22 0 21 1;
#X connect 23 0 22 0;
#X connect 23 1 21 0;
#X connect 24 0 0 0;
#X connect 24 1 23 0;
#X connect 25 0 22 1;
#X connect 26 0 24 0;
#X restore 631 105 pd OBNoteAdjustment;
#X obj 237 692 outlet;
#X floatatom 458 138 5 0 0 0 - - -;
#X text 518 23 velocity;
#X symbolatom 414 465 20 0 0 0 - - -;
#X obj 458 165 t f;
#X msg 386 401 symbol v\$1-recv;
#X floatatom 633 190 5 0 0 0 - - -;
#X obj 633 211 ==;
#X floatatom 673 190 5 0 0 0 - - -;
#X obj 633 252 change;
#X obj 642 316 pack \$1 \$2;
#X msg 639 296 0;
#X obj 699 291 t f;
#X msg 642 336 \$2;
#X floatatom 700 266 5 0 0 0 - - -;
#X floatatom 579 276 5 0 0 0 - - -;
#X obj 634 275 == 1;
#X obj 664 456 symbol;
#X msg 665 429 bang;
#X obj 644 489 s;
#X msg 705 424 symbol \$1-CurrentStepVel;
#X floatatom 704 398 5 0 0 0 - - -;
#X obj 664 409 t b;
#X obj 176 129 t f;
#N canvas -87 152 450 300 changedtogglestate 0;
#X msg 102 99 0;
#X floatatom 149 220 5 0 0 0 - - -;
#X obj 103 145 pack f f f;
#X obj 102 76 t b;
#X obj 103 122 t f;
#X obj 100 199 unpack f f f;
#X obj 106 29 change;
#X obj 102 52 == 1;
#X floatatom 108 230 5 0 0 0 - - -;
#X obj 112 315 symbol;
#X msg 104 285 bang;
#X obj 115 351 s;
#X symbolatom 158 332 10 0 0 0 - - -;
#X symbolatom 156 284 10 0 0 0 - - -;
#X obj 148 239 t f b;
#X obj 27 5 inlet;
#X obj 90 3 inlet;
#X obj 174 8 inlet;
#X obj 286 261 t s;
#X obj 268 308 t s;
#X obj 176 113 t f;
#X obj 211 115 t f;
#X obj 220 242 delay 20;
#X msg 156 264 symbol t\$1;
#X obj 193 176;
#X floatatom 220 139 5 0 0 0 - - -;
#X obj 117 172 t l;
#X obj 223 64 change;
#X obj 228 87 == 0;
#X connect 0 0 4 0;
#X connect 1 0 14 0;
#X connect 2 0 26 0;
#X connect 3 0 0 0;
#X connect 4 0 2 0;
#X connect 5 1 8 0;
#X connect 5 2 1 0;
#X connect 6 0 7 0;
#X connect 7 0 3 0;
#X connect 8 0 23 0;
#X connect 9 0 11 1;
#X connect 9 0 12 0;
#X connect 10 0 9 0;
#X connect 13 0 18 0;
#X connect 14 0 11 0;
#X connect 14 1 22 0;
#X connect 15 0 20 0;
#X connect 16 0 27 0;
#X connect 17 0 6 0;
#X connect 18 0 9 1;
#X connect 20 0 2 1;
#X connect 21 0 2 2;
#X connect 21 0 25 0;
#X connect 22 0 10 0;
#X connect 23 0 13 0;
#X connect 26 0 5 0;
#X connect 27 0 28 0;
#X connect 28 0 21 0;
#X restore 59 177 pd changedtogglestate;
#N canvas 0 50 450 399 changedvelstate 0;
#X msg 102 99 0;
#X floatatom 149 220 5 0 0 0 - - -;
#X obj 103 145 pack f f f;
#X obj 102 76 t b;
#X obj 103 122 t f;
#X obj 100 199 unpack f f f;
#X obj 106 29 change;
#X obj 102 52 == 1;
#X floatatom 108 230 5 0 0 0 - - -;
#X obj 112 315 symbol;
#X msg 104 285 bang;
#X obj 115 351 s;
#X symbolatom 158 332 10 0 0 0 - - -;
#X symbolatom 156 284 10 0 0 0 - - -;
#X obj 148 239 t f b;
#X obj 27 5 inlet;
#X obj 90 3 inlet;
#X obj 174 8 inlet;
#X obj 286 261 t s;
#X msg 156 264 symbol v\$1;
#X obj 268 308 t s;
#X obj 103 171 t l;
#X obj 176 113 t f;
#X obj 211 115 t f;
#X obj 220 242 delay 20;
#X connect 0 0 4 0;
#X connect 1 0 14 0;
#X connect 2 0 21 0;
#X connect 3 0 0 0;
#X connect 4 0 2 0;
#X connect 5 1 8 0;
#X connect 5 2 1 0;
#X connect 6 0 7 0;
#X connect 7 0 3 0;
#X connect 8 0 19 0;
#X connect 9 0 11 1;
#X connect 9 0 12 0;
#X connect 10 0 9 0;
#X connect 13 0 18 0;
#X connect 14 0 11 0;
#X connect 14 1 24 0;
#X connect 15 0 22 0;
#X connect 16 0 23 0;
#X connect 17 0 6 0;
#X connect 18 0 9 1;
#X connect 19 0 13 0;
#X connect 21 0 5 0;
#X connect 22 0 2 1;
#X connect 23 0 2 2;
#X connect 24 0 10 0;
#X restore 71 208 pd changedvelstate;
#X obj 91 73 t f;
#X obj 89 3 r seqstep\$1;
#X obj 591 0 r seqvelstep\$1;
#X floatatom 91 52 5 0 0 0 - - -;
#X obj 91 28 t f;
#X obj 598 24 t f;
#X floatatom 15 171 5 0 0 0 - - -;
#X msg 279 26 1;
#X connect 0 0 3 0;
#X connect 0 0 28 0;
#X connect 0 0 68 2;
#X connect 0 0 68 1;
#X connect 0 0 76 0;
#X connect 1 0 0 0;
#X connect 1 0 14 2;
#X connect 4 0 5 0;
#X connect 4 0 13 0;
#X connect 4 0 77 0;
#X connect 5 0 6 0;
#X connect 5 0 42 0;
#X connect 6 0 8 0;
#X connect 6 0 19 0;
#X connect 6 0 27 0;
#X connect 6 0 14 0;
#X connect 6 0 36 0;
#X connect 6 0 52 0;
#X connect 6 0 67 0;
#X connect 6 0 69 0;
#X connect 8 0 10 0;
#X connect 9 0 8 0;
#X connect 10 0 11 0;
#X connect 11 0 12 0;
#X connect 13 0 22 0;
#X connect 14 0 32 0;
#X connect 15 0 35 0;
#X connect 15 0 44 0;
#X connect 15 0 34 0;
#X connect 19 0 29 0;
#X connect 19 0 37 0;
#X connect 19 1 26 0;
#X connect 19 2 17 1;
#X connect 19 3 18 1;
#X connect 19 4 16 2;
#X connect 19 5 17 2;
#X connect 19 6 18 2;
#X connect 22 0 23 0;
#X connect 23 0 43 0;
#X connect 26 1 16 1;
#X connect 26 1 29 1;
#X connect 26 1 49 0;
#X connect 27 0 43 1;
#X connect 28 0 29 0;
#X connect 29 0 30 0;
#X connect 29 0 31 0;
#X connect 30 0 7 0;
#X connect 32 0 15 0;
#X connect 32 0 69 1;
#X connect 32 0 69 2;
#X connect 33 0 34 1;
#X connect 35 0 16 0;
#X connect 35 1 17 0;
#X connect 35 2 18 0;
#X connect 35 3 37 0;
#X connect 36 0 10 1;
#X connect 37 0 33 0;
#X connect 38 0 63 0;
#X connect 38 0 66 0;
#X connect 39 0 50 0;
#X connect 40 0 53 0;
#X connect 41 0 38 0;
#X connect 43 0 24 0;
#X connect 45 0 48 0;
#X connect 48 0 14 1;
#X connect 48 0 15 0;
#X connect 49 0 33 1;
#X connect 49 0 47 0;
#X connect 50 0 51 0;
#X connect 50 0 41 1;
#X connect 51 0 40 0;
#X connect 52 0 51 1;
#X connect 52 0 58 0;
#X connect 53 0 60 0;
#X connect 54 0 57 0;
#X connect 55 0 54 0;
#X connect 56 0 54 1;
#X connect 57 0 41 0;
#X connect 57 0 65 0;
#X connect 58 0 56 0;
#X connect 60 0 55 0;
#X connect 60 0 59 0;
#X connect 61 0 63 1;
#X connect 62 0 61 0;
#X connect 64 0 61 1;
#X connect 65 0 64 0;
#X connect 66 0 62 0;
#X connect 67 0 68 0;
#X connect 70 0 0 0;
#X connect 71 0 74 0;
#X connect 72 0 75 0;
#X connect 73 0 70 0;
#X connect 74 0 73 0;
#X connect 75 0 45 0;
#X connect 75 0 48 0;
#X connect 77 0 1 0;
#X coords 0 -1 1 1 32 23 2 0 0;
