#N canvas 0 50 450 300 10;
#X obj 140 302 r bank;
#X msg 138 241 inmidinote \$1;
#X msg 104 114 get inmidinote;
#X msg 89 134 get inmidich;
#X msg 119 95 get listenpadnum;
#X msg 133 200 listenpadnum \$1;
#X obj 138 220 r \$1-note-send;
#X obj 139 262 r \$1-channel-send;
#X msg 139 282 inmidich \$1;
#X msg 140 323 midibank \$1;
#X msg 74 154 get midibank;
#X obj 109 381 s;
#X msg 148 350 symbol OBMidiSettingsClone-\$1;
#X floatatom 133 181 5 0 0 0 - - -;
#X obj 74 26 inlet;
#X obj 74 54 t b b b b f f;
#X connect 0 0 9 0;
#X connect 1 0 11 0;
#X connect 2 0 11 0;
#X connect 3 0 11 0;
#X connect 4 0 11 0;
#X connect 5 0 11 0;
#X connect 6 0 1 0;
#X connect 7 0 8 0;
#X connect 8 0 11 0;
#X connect 9 0 11 0;
#X connect 10 0 11 0;
#X connect 12 0 11 1;
#X connect 13 0 5 0;
#X connect 14 0 15 0;
#X connect 15 0 10 0;
#X connect 15 1 3 0;
#X connect 15 2 2 0;
#X connect 15 3 4 0;
#X connect 15 4 13 0;
#X connect 15 5 12 0;
