#N canvas 0 50 697 300 10;
#X obj 100 100 cnv 15 378 35 empty seqsel-recv empty 20 12 0 14 -195568
-66577 0;
#X obj 236 101 cnv 15 60 15 seqtab-send seqtab-recv 1-4 22 9 0 10 -166441
-1 0;
#X obj 296 101 cnv 15 60 15 empty seqborder-recv 5-8 22 9 0 10 -66577
-1 0;
#X obj 356 101 cnv 15 60 15 seqtab-send seqtab-recv 9-12 20 9 0 10
-166441 -1 0;
#X obj 416 101 cnv 15 60 15 empty seqborder-recv 13-16 17 9 0 10 -66577
-1 0;
#X obj 181 101 cnv 15 40 15 seqsellbl-send seqsellbl-recv Sequence
5 7 0 10 -195568 -1 0;
#X obj 181 118 cnv 15 40 15 empty seqsellbl-recv Selector 5 7 0 10
-195568 -1 0;
#X obj 212 16 inlet;
#X obj 213 38 t b;
#X obj 102 101 cnv 15 40 15 patsellbl-send patsellbl-recv Bank 5 7
0 10 -195568 -1 0;
#X obj 106 142 OBsBankItem 0;
#X obj 105 116 OBsBankItem 1;
#X obj 123 116 OBsBankItem 2;
#X obj 140 116 OBsBankItem 3;
#X obj 159 116 OBsBankItem 4;
#N canvas 308 61 450 300 OBSelCurrentSequenceBank 0;
#X obj 33 133 hradio 15 1 0 5 empty empty Bank 0 -8 0 10 -99865 -1
-1 1;
#X obj 33 177 t f;
#X msg 33 28 0;
#X msg 66 47 1;
#X msg 97 71 2;
#X msg 131 91 3;
#X obj 33 156 + 1;
#X obj 61 158 t f;
#X obj 33 48 t f;
#X obj 66 67 t f;
#X obj 97 92 t f;
#X obj 131 111 t f;
#X obj 33 8 r 1-sbankbang;
#X obj 66 28 r 2-sbankbang;
#X obj 97 50 r 3-sbankbang;
#X obj 130 71 r 4-sbankbang;
#X obj 60 177 s sbank;
#X obj 34 197 s selectedsbankitem;
#X connect 0 0 7 0;
#X connect 0 0 6 0;
#X connect 1 0 17 0;
#X connect 2 0 8 0;
#X connect 3 0 9 0;
#X connect 4 0 10 0;
#X connect 5 0 11 0;
#X connect 6 0 1 0;
#X connect 7 0 16 0;
#X connect 8 0 0 0;
#X connect 9 0 0 0;
#X connect 10 0 0 0;
#X connect 11 0 0 0;
#X connect 12 0 2 0;
#X connect 13 0 3 0;
#X connect 14 0 4 0;
#X connect 15 0 5 0;
#X restore 39 77 pd OBSelCurrentSequenceBank;
#X obj 293 145 clone -s 0 OBSelSeqBtnClone 64;
#X obj 236 117 OBSelSeqBtn 1;
#X obj 251 117 OBSelSeqBtn 2;
#X obj 281 117 OBSelSeqBtn 4;
#X obj 296 117 OBSelSeqBtn 5;
#X obj 311 117 OBSelSeqBtn 6;
#X obj 326 117 OBSelSeqBtn 7;
#X obj 341 117 OBSelSeqBtn 8;
#X obj 356 117 OBSelSeqBtn 9;
#X obj 371 117 OBSelSeqBtn 10;
#X obj 386 117 OBSelSeqBtn 11;
#X obj 400 117 OBSelSeqBtn 12;
#X obj 416 117 OBSelSeqBtn 13;
#X obj 431 117 OBSelSeqBtn 14;
#X obj 446 117 OBSelSeqBtn 15;
#X obj 461 117 OBSelSeqBtn 16;
#X obj 266 117 OBSelSeqBtn 3;
#X obj 214 78 t b b b b;
#X obj 200 322 s selectedseqitem;
#X obj 141 266 pack f f;
#X obj 145 291 unpack f f;
#X obj 159 221 t b f;
#X obj 132 173 t b b;
#X msg 159 196 1;
#X msg 141 244 0;
#X connect 7 0 8 0;
#X connect 8 0 33 0;
#X connect 11 0 38 0;
#X connect 12 0 38 0;
#X connect 13 0 38 0;
#X connect 14 0 38 0;
#X connect 33 0 11 0;
#X connect 35 0 36 0;
#X connect 37 0 40 0;
#X connect 37 1 35 1;
#X connect 38 0 17 0;
#X connect 38 1 39 0;
#X connect 39 0 37 0;
#X connect 40 0 35 0;
#X coords 0 -1 1 1 378 35 2 100 100;
