#N canvas -93 87 1440 843 10;
#X obj 101 101 bng 13 250 50 0 \$1-pattbang empty empty 17 7 0 10 -262144
-1 -1;
#X obj 100 100 cnv 15 15 15 \$1-radiopattitem-send \$1-radiopattitem-recv
empty 20 12 0 14 -166441 -66577 0;
#X obj 240 307 s selectedpattitem;
#X obj 183 176 r \$1-pattbang;
#X obj 132 9 loadbang;
#X obj 183 243 pack f f;
#X obj 228 223 t f;
#X msg 183 221 0;
#X obj 183 265 unpack f f;
#X obj 183 196 t b;
#X obj 268 329 + 1;
#X obj 266 396 s emode;
#X msg 268 376 0;
#X obj 240 286 t f f;
#X obj 328 414 outlet;
#X obj 202 87 +;
#X obj 202 114 t b f;
#X obj 202 39 *;
#X obj 202 66 t b f;
#X obj 189 9 r pbank;
#X obj 228 136 \$1;
#X msg 228 156 \$1;
#X floatatom 294 162 5 0 0 0 - - -;
#X obj 240 9 r perpattbank;
#X obj 145 51 \$1;
#X msg 145 71 \$1;
#X obj 268 355 t b b, f 10;
#X connect 3 0 9 0;
#X connect 4 0 24 0;
#X connect 5 0 8 0;
#X connect 6 0 5 1;
#X connect 7 0 5 0;
#X connect 8 1 13 0;
#X connect 9 0 7 0;
#X connect 10 0 26 0;
#X connect 12 0 11 0;
#X connect 13 0 2 0;
#X connect 13 1 10 0;
#X connect 15 0 16 0;
#X connect 16 1 20 0;
#X connect 17 0 18 0;
#X connect 18 0 15 0;
#X connect 18 1 15 1;
#X connect 19 0 17 0;
#X connect 20 0 21 0;
#X connect 21 0 6 0;
#X connect 21 0 22 0;
#X connect 23 0 17 1;
#X connect 24 0 25 0;
#X connect 25 0 15 0;
#X connect 26 0 12 0;
#X connect 26 1 14 0;
#X coords 0 -1 1 1 15 15 2 100 100;
