#N canvas 618 99 603 390 10;
#X obj 100 54 inlet;
#X obj 301 337 t b f;
#X floatatom 395 204 5 0 0 0 - - -;
#X obj 395 225 - 1;
#X obj 395 247 change;
#X obj 393 266 mod 16;
#X obj 394 285 + 1;
#X floatatom 394 303 5 0 0 0 - - -;
#X obj 301 295 \$1;
#X msg 301 315 \$1;
#X obj 394 322 t f;
#X obj 308 37 loadbang;
#X obj 378 115 +;
#X obj 378 67 *;
#X obj 378 94 t b f;
#X obj 430 189 s loaded-obsb;
#X obj 378 142 t f f f f;
#N canvas 418 144 951 449 AssignColorSettings9 0;
#X obj 457 408 list prepend \$0;
#X msg 174 130 0;
#X obj 195 150 t f;
#X obj 419 343 t f;
#X msg 398 159 0;
#X obj 398 179 t f;
#X floatatom 367 58 5 0 0 0 - - -;
#X floatatom 168 57 5 0 0 0 - - -;
#X obj 167 9 r aplcolor-send;
#X obj 368 7 r plcolor-send;
#X obj 168 77 int;
#X obj 368 82 int;
#X obj 207 77 t b;
#X obj 406 78 t b;
#X obj 5 44 cnv 15 15 15 empty plcolor-recv Default 1 -7 0 10 -166441
-66577 0;
#X obj 104 44 cnv 15 15 15 empty aplcolor-recv Active 1 -7 0 10 -44926
-66577 0;
#X obj 3 2 cnv 15 145 15 empty empty Assigned_Color_Settings 1 7 0
10 -262144 -1 0;
#X obj 48 15 cnv 15 60 15 empty empty Previews 1 7 0 10 -262144 -1
0;
#X obj 529 205 change;
#X obj 529 247 + 1;
#X obj 529 269 t f b;
#X floatatom 529 292 5 0 0 0 - - -;
#X obj 529 312 - 1;
#X msg 531 334 \$1;
#X obj 453 448 list trim;
#X obj 451 344 t f;
#X obj 453 381 list prepend 0;
#X obj 197 194 unpack f f;
#X obj 195 172 pack f f;
#X obj 398 201 pack f f;
#X obj 396 225 unpack f f;
#X obj 533 355 t f;
#X obj 529 179 t f;
#X obj 529 226 mod 17;
#X msg 437 484 \; \$2-radiopattitem-recv color \$3;
#X obj 527 158 r bangedpattindex;
#X obj 207 58 r applyactivepattcolorchanges;
#X obj 406 59 r applydefaultpattcolorchanges;
#X obj 168 107 t b f;
#X obj 367 105 t b f;
#X obj 180 33 t f;
#X obj 353 31 t f;
#X connect 0 0 24 0;
#X connect 1 0 2 0;
#X connect 2 0 28 0;
#X connect 3 0 26 0;
#X connect 4 0 5 0;
#X connect 5 0 29 0;
#X connect 6 0 11 0;
#X connect 7 0 10 0;
#X connect 8 0 40 0;
#X connect 9 0 41 0;
#X connect 10 0 38 0;
#X connect 11 0 39 0;
#X connect 12 0 1 0;
#X connect 13 0 4 0;
#X connect 18 0 33 0;
#X connect 19 0 20 0;
#X connect 20 0 21 0;
#X connect 21 0 22 0;
#X connect 22 0 23 0;
#X connect 23 0 31 0;
#X connect 24 0 34 0;
#X connect 25 0 26 0;
#X connect 26 0 0 0;
#X connect 27 1 3 0;
#X connect 28 0 27 0;
#X connect 29 0 30 0;
#X connect 30 1 25 0;
#X connect 31 0 26 1;
#X connect 32 0 18 0;
#X connect 33 0 19 0;
#X connect 35 0 32 0;
#X connect 36 0 12 0;
#X connect 37 0 13 0;
#X connect 38 0 1 0;
#X connect 38 1 28 1;
#X connect 39 0 4 0;
#X connect 39 1 29 1;
#X connect 40 0 7 0;
#X connect 41 0 6 0;
#X coords 0 -1 1 1 150 64 2 0 0;
#X restore 28 197 pd AssignColorSettings9;
#N canvas 757 119 335 389 RecieveBangThenApplyColor8 0;
#X obj 76 205 until;
#X obj 76 228 f;
#X obj 106 228 + 1;
#X obj 76 159 t b b f;
#X obj 76 274 sel;
#X obj 19 47 t b;
#X obj 19 110 pack f f;
#X msg 19 67 0;
#X obj 19 130 unpack f f;
#X msg 116 205 0;
#X obj 91 338 t b;
#X obj 76 296 t b;
#X msg 76 183 17;
#X obj 114 4 loadbang;
#X obj 114 25 \$1;
#X msg 114 46 \$1;
#X obj 76 251 t f f f;
#X obj 19 26 r \$1-pattbang;
#X obj 119 66 r selectedcolorpattitem;
#X obj 121 181 s assignpattclonecolor;
#X obj 103 275 s bangedpattindex;
#X obj 76 316 s applyactivepattcolorchanges;
#X obj 91 359 s applydefaultpattcolorchanges;
#X obj 96 86 t f;
#X obj 19 89 t f;
#X connect 0 0 1 0;
#X connect 1 0 2 0;
#X connect 1 0 16 0;
#X connect 2 0 1 1;
#X connect 3 0 12 0;
#X connect 3 1 9 0;
#X connect 3 2 4 1;
#X connect 3 2 19 0;
#X connect 4 0 11 0;
#X connect 4 1 10 0;
#X connect 5 0 7 0;
#X connect 6 0 8 0;
#X connect 7 0 24 0;
#X connect 8 1 3 0;
#X connect 9 0 1 1;
#X connect 10 0 22 0;
#X connect 11 0 21 0;
#X connect 12 0 0 0;
#X connect 13 0 14 0;
#X connect 14 0 15 0;
#X connect 15 0 23 0;
#X connect 16 0 4 0;
#X connect 16 1 20 0;
#X connect 17 0 5 0;
#X connect 18 0 23 0;
#X connect 23 0 6 1;
#X connect 24 0 6 0;
#X restore 11 169 pd RecieveBangThenApplyColor8;
#N canvas 141 171 1118 575 SendToActiveSongPattern 0;
#X obj 130 349 s, f 4;
#X obj 136 170 +, f 8;
#X obj 136 196 t b f;
#X obj 156 142 t b f;
#X text 302 95 btn's per bank;
#X symbolatom 163 254 40 0 0 0 - - -;
#X obj 130 289 \$1;
#X msg 130 313 \$1;
#X obj 122 40 inlet;
#X obj 261 390 outlet;
#X obj 276 37 inlet;
#X obj 185 115 *;
#X floatatom 321 142 5 0 0 0 - - -;
#X floatatom 84 109 5 0 0 0 - - -;
#X floatatom 313 348 5 0 0 0 - - -;
#X msg 163 225 symbol OBSelPattBtnClone-\$1;
#X obj 221 97 r perpattbank;
#X obj 191 52 r pbank;
#X connect 1 0 2 0;
#X connect 2 1 15 0;
#X connect 2 1 9 0;
#X connect 2 1 14 0;
#X connect 3 0 1 0;
#X connect 3 1 1 1;
#X connect 5 0 0 1;
#X connect 6 0 7 0;
#X connect 7 0 0 0;
#X connect 8 0 1 0;
#X connect 8 0 13 0;
#X connect 10 0 6 0;
#X connect 10 0 12 0;
#X connect 11 0 3 0;
#X connect 15 0 5 0;
#X connect 16 0 11 1;
#X connect 17 0 11 0;
#X restore 328 371 pd SendToActiveSongPattern;
#X obj 396 343 s selectedcolorpattitem;
#X obj 412 168 s pattnum;
#X obj 365 37 r pbank;
#X obj 416 37 r perpattbank;
#X obj 185 40 r selectedpattitem;
#X obj 101 101 bng 14 250 50 0 \$1-pattbang empty empty 17 7 0 10 -262144
-1 -1;
#X obj 100 100 cnv 15 15 15 seqselradio-send seqselradio-recv empty
20 12 0 14 -166441 -66577 0;
#X obj 103 103 cnv 9 9 9 \$1-radiopattitem-send \$1-radiopattitem-recv
empty 20 12 0 14 -44926 -66577 0;
#X connect 0 0 25 0;
#X connect 1 0 19 1;
#X connect 1 1 19 0;
#X connect 2 0 3 0;
#X connect 3 0 4 0;
#X connect 4 0 5 0;
#X connect 5 0 6 0;
#X connect 6 0 7 0;
#X connect 7 0 10 0;
#X connect 8 0 9 0;
#X connect 9 0 1 0;
#X connect 10 0 20 0;
#X connect 11 0 12 0;
#X connect 12 0 16 0;
#X connect 13 0 14 0;
#X connect 14 0 12 0;
#X connect 14 1 12 1;
#X connect 16 0 8 0;
#X connect 16 1 2 0;
#X connect 16 2 21 0;
#X connect 16 3 15 0;
#X connect 22 0 13 0;
#X connect 23 0 13 1;
#X connect 24 0 16 0;
#X coords 0 -1 1 1 15 15 2 100 100;
