#N canvas -4 -4 1280 718 10;
#X obj 74 306 inlet;
#X obj 176 306 inlet;
#X text 54 282 default color;
#X text 161 282 active color;
#X text 380 18 item index number;
#X msg 206 119 symbol OBSongPlaylistItemClone-\$1;
#X obj 207 259 s;
#X obj 327 152 t s;
#X msg 43 223 ind \$1;
#X obj 107 -125 loadbang;
#X obj 107 -104 \$1;
#X obj 179 -26 +;
#X obj 179 -5 t b f;
#X obj 168 -101 *;
#X obj 168 -80 t b f;
#X floatatom 346 17 5 0 0 0 - - -;
#X obj 243 -122 r persongbank;
#X msg 94 222 patt \$1;
#X msg 151 222 reps \$1;
#X msg 206 223 state \$1;
#X msg 107 -83 \$1;
#X floatatom 545 -2 5 0 0 0 - - -;
#X floatatom 243 -101 5 0 0 0 - - -;
#X obj 168 -122 r songbank;
#X obj 530 68 >;
#X obj 505 19 r selsongitem;
#X obj 545 41 t f;
#X floatatom 530 89 5 0 0 0 - - -;
#X obj 505 42 t f;
#X obj 529 210 s bangnextpage;
#X obj 530 152 t b;
#X obj 530 109 change;
#X obj 530 129 == 1;
#N canvas -4 -4 1280 718 SongItemColorChange 0;
#X floatatom 232 7 5 0 0 0 - - -;
#X floatatom 380 154 5 0 0 0 - - -;
#X obj 339 156 ==;
#X obj 339 228 change;
#X floatatom 339 182 5 0 0 0 - - -;
#X obj 340 204 t f;
#X msg 338 392 0;
#X obj 338 414 t f;
#X obj 338 315 t b;
#X msg 598 398 0;
#X obj 598 416 t f;
#X obj 598 274 change;
#X obj 338 281 == 1;
#X floatatom 339 253 5 0 0 0 - - -;
#X obj 232 -17 r selsongitem;
#X obj 338 363 t b;
#X obj 323 -28 loadbang;
#X obj 323 6 \$1;
#X msg 323 38 \$1;
#X obj 338 341 delay 20;
#X obj 230 81 count 1 16;
#X floatatom 231 108 5 0 0 0 - - -;
#X obj 598 301 == 0;
#X obj 355 119 t f f;
#X obj 230 133 t f f f;
#X obj 691 142 inlet;
#X floatatom 775 548 5 0 0 0 - - -;
#X obj 598 441 pack f f f;
#X obj 597 468 unpack f f f;
#X msg 776 582 symbol \$1-songitem-recv;
#X obj 733 649 symbol;
#X symbolatom 780 614 10 0 0 0 - - -;
#X msg 786 840 color \$1;
#X obj 786 860 s;
#X msg 726 621 bang;
#X obj 735 722 t b;
#X obj 734 699 delay 20;
#X obj 733 675 t b;
#X obj 735 749 pack f f;
#X obj 741 773 unpack f f;
#X floatatom 756 802 5 0 0 0 - - -;
#X obj 882 768 hsl 128 15 0 127 0 0 empty empty empty -2 -8 0 10 -262144
-1 -1 0 1;
#X floatatom 874 798 5 0 0 0 - - -;
#X obj 654 332 t f;
#X obj 715 598 delay 10;
#X obj 599 329 t b b;
#X obj 795 806 t f;
#X obj 780 728 t f;
#X obj 715 496 t f b;
#X floatatom 675 365 5 0 0 0 - - -;
#X obj 449 163 inlet;
#X obj 338 439 pack f f f;
#X floatatom 508 546 5 0 0 0 - - -;
#X obj 330 466 unpack f f f;
#X msg 509 580 symbol \$1-songitem-recv;
#X obj 466 647 symbol;
#X symbolatom 513 612 10 0 0 0 - - -;
#X msg 519 838 color \$1;
#X obj 519 858 s;
#X msg 459 619 bang;
#X obj 468 720 t b;
#X obj 467 697 delay 20;
#X obj 466 673 t b;
#X obj 468 747 pack f f;
#X obj 474 771 unpack f f;
#X floatatom 489 800 5 0 0 0 - - -;
#X obj 576 762 hsl 128 15 0 127 0 0 empty empty empty -2 -8 0 10 -262144
-1 -1 0 1;
#X floatatom 573 794 5 0 0 0 - - -;
#X obj 448 596 delay 10;
#X obj 528 804 t f;
#X obj 513 726 t f;
#X obj 448 494 t f b;
#X obj 419 363 t f;
#X floatatom 425 395 5 0 0 0 - - -;
#X obj 60 44 r triggercolorchanges;
#X floatatom 61 70 5 0 0 0 - - -;
#X obj 61 90 t f;
#X obj 61 112 == 1;
#X floatatom 61 133 5 0 0 0 - - -;
#X obj 61 153 change;
#X obj 63 174 == 1;
#X obj 62 258 t b;
#X msg 60 281 0;
#X obj 62 324 pack f f;
#X obj 61 345 unpack f f;
#X obj 61 303 t f;
#X floatatom 117 379 5 0 0 0 - - -;
#X obj 68 198 t b;
#X obj 192 249 t f;
#X obj 232 32 t f b;
#X obj 65 227 delay 20;
#X connect 0 0 89 0;
#X connect 2 0 4 0;
#X connect 3 0 13 0;
#X connect 4 0 5 0;
#X connect 5 0 3 0;
#X connect 6 0 7 0;
#X connect 7 0 51 0;
#X connect 8 0 19 0;
#X connect 9 0 10 0;
#X connect 10 0 27 0;
#X connect 11 0 22 0;
#X connect 12 0 8 0;
#X connect 12 0 11 0;
#X connect 13 0 12 0;
#X connect 14 0 0 0;
#X connect 15 0 6 0;
#X connect 16 0 17 0;
#X connect 17 0 18 0;
#X connect 18 0 23 0;
#X connect 19 0 15 0;
#X connect 20 0 21 0;
#X connect 21 0 24 0;
#X connect 22 0 45 0;
#X connect 23 0 2 1;
#X connect 23 0 1 0;
#X connect 24 0 51 1;
#X connect 24 1 27 1;
#X connect 24 2 2 0;
#X connect 25 0 43 0;
#X connect 26 0 29 0;
#X connect 27 0 28 0;
#X connect 28 1 26 0;
#X connect 28 2 47 0;
#X connect 28 2 48 0;
#X connect 29 0 31 0;
#X connect 30 0 33 1;
#X connect 30 0 37 0;
#X connect 31 0 30 1;
#X connect 32 0 33 0;
#X connect 34 0 30 0;
#X connect 35 0 38 0;
#X connect 36 0 35 0;
#X connect 37 0 36 0;
#X connect 38 0 39 0;
#X connect 39 1 40 0;
#X connect 39 1 46 0;
#X connect 41 0 42 0;
#X connect 41 0 46 0;
#X connect 43 0 27 2;
#X connect 43 0 49 0;
#X connect 44 0 34 0;
#X connect 45 0 9 0;
#X connect 45 1 9 0;
#X connect 46 0 32 0;
#X connect 47 0 38 1;
#X connect 48 0 26 0;
#X connect 48 1 44 0;
#X connect 50 0 72 0;
#X connect 51 0 53 0;
#X connect 52 0 54 0;
#X connect 53 1 52 0;
#X connect 53 2 70 0;
#X connect 53 2 71 0;
#X connect 54 0 56 0;
#X connect 55 0 58 1;
#X connect 55 0 62 0;
#X connect 56 0 55 1;
#X connect 57 0 58 0;
#X connect 59 0 55 0;
#X connect 60 0 63 0;
#X connect 61 0 60 0;
#X connect 62 0 61 0;
#X connect 63 0 64 0;
#X connect 64 1 65 0;
#X connect 64 1 69 0;
#X connect 66 0 67 0;
#X connect 66 0 69 0;
#X connect 68 0 59 0;
#X connect 69 0 57 0;
#X connect 70 0 63 1;
#X connect 71 0 52 0;
#X connect 71 1 68 0;
#X connect 72 0 51 2;
#X connect 72 0 73 0;
#X connect 74 0 75 0;
#X connect 75 0 76 0;
#X connect 76 0 77 0;
#X connect 77 0 78 0;
#X connect 78 0 79 0;
#X connect 79 0 80 0;
#X connect 80 0 87 0;
#X connect 81 0 82 0;
#X connect 82 0 85 0;
#X connect 83 0 84 0;
#X connect 84 1 86 0;
#X connect 84 1 88 0;
#X connect 85 0 83 0;
#X connect 87 0 90 0;
#X connect 88 0 20 0;
#X connect 89 0 20 0;
#X connect 89 0 83 1;
#X connect 89 1 90 0;
#X connect 90 0 81 0;
#X restore 67 374 pd SongItemColorChange \$1;
#X floatatom 74 327 5 0 0 0 - - -;
#X obj 74 348 t f;
#X floatatom 176 327 5 0 0 0 - - -;
#X obj 177 348 t f;
#X obj 41 20 bng 20 250 50 0 empty empty empty 17 7 0 10 -262144 -1
-1;
#X obj 41 40 bng 20 250 50 0 empty empty empty 17 7 0 10 -262144 -1
-1;
#X obj 2 1 bng 27 250 50 0 empty empty empty 17 7 0 10 -262144 -1 -1
;
#X obj 1 1 cnv 27 60 60 \$1-songitem-send \$1-songitem-recv Patt:0
2 7 0 10 -166441 -1 0;
#X obj 29 2 nbx 2 14 1 64 0 0 \$1-pattitem-send \$1-pattitem-recv empty
0 -8 0 10 -262144 -1 -1 1 256;
#X obj 1 30 nbx 3 14 1 999 0 0 \$1-repsitem-send \$1-repsitem-recv
Reps 0 -8 0 10 -262144 -1 -1 1 256;
#X obj 2 49 tgl 10 0 \$1-stateitem-send \$1-stateitem-recv EOS 17 7
0 10 -262144 -1 -1 0 1;
#X obj 206 96 t a b b b b b, f 14;
#X obj 346 42 t f b f;
#X obj 43 173 t l;
#X text 441 168 Do not connect here yet patch will get stuck in a loop
this will be later used to change pages when the songplaylist is playing
to ensure the full song gets played.;
#X msg 59 -49 1;
#X msg 100 -53 0;
#X obj 59 -71 t b b;
#X obj 61 -29 t f f;
#X obj 103 -30 t f;
#N canvas 20 449 952 230 SendItemValuesToCloner 0;
#X floatatom 90 122 5 0 0 0 - - -;
#X msg 209 93 symbol ind-recv;
#X msg 360 93 symbol patt-recv;
#X msg 521 93 symbol reps-recv;
#X msg 675 93 symbol state-recv;
#X obj 194 148 s;
#X obj 345 144 s;
#X obj 660 139 s;
#X obj 506 141 s;
#X obj 155 93 t f f f;
#X obj 318 93 t f f;
#X obj 479 93 t f f;
#X obj 633 93 t f f;
#X obj 28 58 unpack f f f f f, f 88;
#X obj 90 166 s selsongitem;
#X obj 90 142 t f;
#X obj 29 31 inlet;
#X obj 208 30 inlet;
#X obj 359 31 inlet;
#X obj 520 32 inlet;
#X obj 674 30 inlet;
#X obj 174 197 outlet;
#X obj 318 198 outlet;
#X obj 479 199 outlet;
#X obj 633 204 outlet;
#X connect 0 0 15 0;
#X connect 1 0 5 1;
#X connect 2 0 6 1;
#X connect 3 0 8 1;
#X connect 4 0 7 1;
#X connect 9 0 0 0;
#X connect 9 1 21 0;
#X connect 9 2 5 0;
#X connect 10 0 22 0;
#X connect 10 1 6 0;
#X connect 11 0 23 0;
#X connect 11 1 8 0;
#X connect 12 0 24 0;
#X connect 12 1 7 0;
#X connect 13 1 9 0;
#X connect 13 2 10 0;
#X connect 13 3 11 0;
#X connect 13 4 12 0;
#X connect 15 0 14 0;
#X connect 16 0 13 0;
#X connect 17 0 1 0;
#X connect 18 0 2 0;
#X connect 19 0 3 0;
#X connect 20 0 4 0;
#X restore 43 200 pd SendItemValuesToCloner;
#N canvas 1017 421 200 227 CreateItemClone 0;
#X obj 10 8 inlet;
#X obj 72 8 inlet;
#X obj 9 186 outlet;
#X obj 9 120 symbol;
#X obj 9 160 t s, f 4;
#X msg 9 99 bang;
#X symbolatom 9 140 30 0 0 0 - - -;
#X obj 9 57 delay 10;
#X obj 9 78 t b b;
#X obj 99 182 outlet;
#X symbolatom 72 33 10 0 0 0 - - -;
#X obj 74 55 t s;
#X connect 0 0 7 0;
#X connect 1 0 10 0;
#X connect 3 0 6 0;
#X connect 4 0 2 0;
#X connect 5 0 3 0;
#X connect 6 0 4 0;
#X connect 7 0 8 0;
#X connect 8 0 5 0;
#X connect 8 1 9 0;
#X connect 10 0 11 0;
#X connect 11 0 3 1;
#X restore 222 176 pd CreateItemClone;
#X obj 222 200 t s, f 4;
#N canvas 485 69 192 281 SendSelectedIndexToClone 0;
#X obj 49 31 inlet;
#X obj 120 22 inlet;
#X obj 133 250 outlet;
#X obj 103 223 s selsongitem;
#X obj 48 158 pack f f;
#X msg 48 115 0;
#X obj 48 136 t f;
#X obj 93 115 t f;
#X obj 48 182 unpack f f;
#X obj 48 73 delay 20;
#X obj 48 94 t b;
#X obj 103 202 t f f;
#X obj 120 42 t b;
#X connect 0 0 7 0;
#X connect 1 0 12 0;
#X connect 4 0 8 0;
#X connect 5 0 6 0;
#X connect 6 0 4 0;
#X connect 7 0 4 1;
#X connect 8 1 11 0;
#X connect 9 0 10 0;
#X connect 10 0 5 0;
#X connect 11 0 3 0;
#X connect 11 1 2 0;
#X connect 12 0 9 0;
#X restore 206 73 pd SendSelectedIndexToClone;
#N canvas 543 43 309 280 PackageValuesForCloner 0;
#X obj 29 28 inlet;
#X obj 96 29 inlet;
#X obj 157 29 inlet;
#X obj 214 30 inlet;
#X obj 269 29 inlet;
#X msg 53 182 0;
#X obj 54 162 t b;
#X obj 55 120 t b;
#X obj 77 205 pack f f f f f;
#X obj 64 78 t f b;
#X obj 139 78 t f b;
#X obj 178 78 t f b;
#X obj 102 78 t f b;
#X obj 55 142 delay 50;
#X obj 78 255 outlet;
#X obj 79 229 t l;
#X connect 0 0 7 0;
#X connect 1 0 9 0;
#X connect 2 0 12 0;
#X connect 3 0 10 0;
#X connect 4 0 11 0;
#X connect 5 0 8 0;
#X connect 6 0 5 0;
#X connect 7 0 13 0;
#X connect 8 0 15 0;
#X connect 9 0 8 1;
#X connect 9 1 7 0;
#X connect 10 0 8 3;
#X connect 10 1 7 0;
#X connect 11 0 8 4;
#X connect 11 1 7 0;
#X connect 12 0 8 2;
#X connect 12 1 7 0;
#X connect 13 0 6 0;
#X connect 15 0 14 0;
#X restore 43 123 pd PackageValuesForCloner;
#X connect 0 0 34 0;
#X connect 1 0 36 0;
#X connect 5 0 7 0;
#X connect 7 0 55 1;
#X connect 8 0 6 0;
#X connect 9 0 10 0;
#X connect 9 0 51 0;
#X connect 10 0 20 0;
#X connect 11 0 12 0;
#X connect 12 1 15 0;
#X connect 13 0 14 0;
#X connect 13 0 21 0;
#X connect 14 0 11 0;
#X connect 14 1 11 1;
#X connect 15 0 46 0;
#X connect 16 0 22 0;
#X connect 16 0 13 1;
#X connect 17 0 6 0;
#X connect 18 0 6 0;
#X connect 19 0 6 0;
#X connect 20 0 11 0;
#X connect 21 0 26 0;
#X connect 23 0 13 0;
#X connect 24 0 27 0;
#X connect 25 0 28 0;
#X connect 26 0 24 1;
#X connect 27 0 31 0;
#X connect 28 0 24 0;
#X connect 31 0 32 0;
#X connect 32 0 30 0;
#X connect 34 0 35 0;
#X connect 35 0 33 1;
#X connect 36 0 37 0;
#X connect 37 0 33 0;
#X connect 38 0 58 0;
#X connect 39 0 58 0;
#X connect 40 0 58 0;
#X connect 42 0 58 2;
#X connect 43 0 58 3;
#X connect 44 0 58 4;
#X connect 45 0 5 0;
#X connect 45 1 55 0;
#X connect 45 2 54 1;
#X connect 45 3 54 2;
#X connect 45 4 54 3;
#X connect 46 0 57 0;
#X connect 46 1 57 1;
#X connect 46 2 58 1;
#X connect 47 0 54 0;
#X connect 49 0 52 0;
#X connect 50 0 53 0;
#X connect 51 0 49 0;
#X connect 51 1 50 0;
#X connect 52 0 42 0;
#X connect 52 1 43 0;
#X connect 53 0 44 0;
#X connect 54 0 8 0;
#X connect 54 1 17 0;
#X connect 54 2 18 0;
#X connect 54 3 19 0;
#X connect 55 0 56 0;
#X connect 55 1 40 0;
#X connect 56 0 6 1;
#X connect 57 0 45 0;
#X connect 58 0 47 0;
#X coords 0 -1 1 1 62 62 2 0 0;
