#N canvas 27 149 672 540 10;
#X obj 111 19 r OBSongPlaylistItemClone-\$1;
#X obj 73 56 t a;
#X obj 71 85 route ind patt reps state;
#X obj 133 142 r persongbank;
#X floatatom 133 172 5 0 0 0 - - -;
#X obj 133 192 t b f;
#X obj 133 214 \$1;
#X obj 133 237 + 1;
#X obj 133 258 mod;
#X obj 133 284 + 1;
#X obj 95 382 s, f 4;
#X obj 132 352 t s;
#X msg 71 348 set \$1;
#X obj 332 146 r persongbank;
#X floatatom 332 176 5 0 0 0 - - -;
#X obj 332 196 t b f;
#X obj 332 218 \$1;
#X obj 332 241 + 1;
#X obj 332 262 mod;
#X obj 332 288 + 1;
#X obj 294 386 s, f 4;
#X obj 331 356 t s;
#X msg 270 352 set \$1;
#X obj 499 148 r persongbank;
#X floatatom 499 178 5 0 0 0 - - -;
#X obj 499 198 t b f;
#X obj 499 220 \$1;
#X obj 499 243 + 1;
#X obj 499 264 mod;
#X obj 499 290 + 1;
#X obj 461 388 s, f 4;
#X obj 498 358 t s;
#X msg 437 354 set \$1;
#X obj 356 386 r persongbank;
#X floatatom 356 416 5 0 0 0 - - -;
#X obj 356 436 t b f;
#X obj 356 458 \$1;
#X obj 356 481 + 1;
#X obj 356 502 mod;
#X obj 356 528 + 1;
#X obj 318 626 s, f 4;
#X obj 355 596 t s;
#X msg 301 595 set \$1;
#X msg 356 550 symbol \$1-stateitem-recv;
#X floatatom 54 411 5 0 0 0 - - -;
#X floatatom 235 381 5 0 0 0 - - -;
#X floatatom 459 410 5 0 0 0 - - -;
#X floatatom 260 606 5 0 0 0 - - -;
#X msg 332 310 symbol \$1-pattitem-recv;
#X msg 499 312 symbol \$1-repsitem-recv;
#X msg 133 306 symbol \$1-indexitem-recv;
#X obj 392 12 \$1;
#X obj 411 82 +;
#X obj 411 109 t b f;
#X obj 449 36 *;
#X obj 449 63 t b f;
#X floatatom 459 126 5 0 0 0 - - -;
#X obj 302 -12 r selsongitem;
#X obj 420 -13 r songbank;
#X obj 502 -15 r persongbank;
#X obj 502 12 s \$1-songbank-recv;
#X connect 0 0 1 0;
#X connect 1 0 2 0;
#X connect 2 0 12 0;
#X connect 2 1 22 0;
#X connect 2 2 32 0;
#X connect 2 3 42 0;
#X connect 3 0 4 0;
#X connect 4 0 5 0;
#X connect 5 0 6 0;
#X connect 5 1 8 1;
#X connect 6 0 7 0;
#X connect 7 0 8 0;
#X connect 8 0 9 0;
#X connect 9 0 50 0;
#X connect 11 0 10 1;
#X connect 12 0 10 0;
#X connect 12 0 44 0;
#X connect 13 0 14 0;
#X connect 14 0 15 0;
#X connect 15 0 16 0;
#X connect 15 1 18 1;
#X connect 16 0 17 0;
#X connect 17 0 18 0;
#X connect 18 0 19 0;
#X connect 19 0 48 0;
#X connect 21 0 20 1;
#X connect 22 0 20 0;
#X connect 22 0 45 0;
#X connect 23 0 24 0;
#X connect 24 0 25 0;
#X connect 25 0 26 0;
#X connect 25 1 28 1;
#X connect 26 0 27 0;
#X connect 27 0 28 0;
#X connect 28 0 29 0;
#X connect 29 0 49 0;
#X connect 31 0 30 1;
#X connect 32 0 30 0;
#X connect 32 0 46 0;
#X connect 33 0 34 0;
#X connect 34 0 35 0;
#X connect 35 0 36 0;
#X connect 35 1 38 1;
#X connect 36 0 37 0;
#X connect 37 0 38 0;
#X connect 38 0 39 0;
#X connect 39 0 43 0;
#X connect 41 0 40 1;
#X connect 42 0 40 0;
#X connect 42 0 47 0;
#X connect 43 0 41 0;
#X connect 48 0 21 0;
#X connect 49 0 31 0;
#X connect 50 0 11 0;
#X connect 51 0 52 0;
#X connect 52 0 53 0;
#X connect 53 1 56 0;
#X connect 54 0 55 0;
#X connect 55 0 52 0;
#X connect 55 1 52 1;
#X connect 57 0 51 0;
#X connect 58 0 54 0;
#X connect 58 0 60 0;
#X connect 59 0 54 1;
