#N canvas 94 148 1280 686 10;
#X obj 1 1 cnv 15 60 60 empty empty Patt:0 2 7 0 10 -191407 -1 0;
#X obj 142 256 \$1;
#X msg 142 278 \$1;
#X obj 314 25 inlet;
#X obj 424 28 inlet;
#X obj 512 25 inlet;
#X text 303 3 default color;
#X text 403 5 active color;
#X text 504 2 rec color;
#X text 102 12 item index number;
#X obj 220 401 t b;
#X obj 3 28 nbx 3 14 1 1e+037 0 0 \$1-repsitem-send \$1-repsitem-recv
Reps 1 -7 0 9 -262144 -1 -1 7 256;
#X obj 3 47 tgl 10 0 \$1-stateitem-send \$1-stateitem-recv EOS 17 6
0 9 -262144 -1 -1 0 1;
#X obj 32 3 nbx 2 14 1 64 0 0 \$1-pattitem-send \$1-pattitem-recv empty
1 -7 0 9 -262144 -1 -1 1 256;
#X msg 267 483 symbol OBSongPlaylistItemClone-\$1;
#X obj 203 583 s;
#X obj 222 536 symbol;
#X obj 222 560 t s;
#X obj 268 513 t s;
#X msg 220 512 bang;
#X symbolatom 266 560 30 0 0 0 - - -;
#X obj 657 57 r $project_pattern;
#X obj 773 57 r $project_loops;
#X obj 876 57 r $project_endresult;
#X obj 652 96 t f;
#X obj 771 91 t f;
#X obj 874 94 t f;
#X obj 325 638 t f;
#X floatatom 308 691 5 0 0 0 - - -;
#X obj 331 668 s selsongitem;
#X obj 192 335 t a b;
#X obj 148 231 t f;
#X obj 105 366 delay 25;
#X obj 106 428 pack f f;
#X obj 106 453 unpack f f;
#X msg 106 407 0;
#X obj 106 387 t b;
#X obj 163 501 t f;
#X obj 104 311 t b;
#X obj 219 380 delay 20;
#X msg 156 543 ind \$1;
#X obj 87 54 loadbang;
#X obj 87 88 \$1;
#X obj 121 159 +;
#X obj 121 186 t b f;
#X obj 161 88 *;
#X obj 161 117 t b f;
#X floatatom 148 208 5 0 0 0 - - -;
#X obj 145 55 r songbank;
#X obj 215 55 r persongbank;
#X msg 58 618 patt \$1;
#X msg 119 636 reps \$1;
#X msg 186 641 state \$1;
#X msg 594 548 symbol ind-recv;
#X msg 702 546 symbol patt-recv;
#X msg 813 548 symbol reps-recv;
#X msg 922 548 symbol state-recv;
#X obj 570 582 s;
#X obj 698 585 s;
#X obj 907 590 s;
#X obj 797 587 s;
#X obj 58 596 t f;
#X obj 119 616 t f;
#X obj 184 616 t f;
#X msg 87 120 \$1;
#X connect 1 0 2 0;
#X connect 2 0 33 1;
#X connect 2 0 38 0;
#X connect 2 0 15 0;
#X connect 2 0 30 0;
#X connect 10 0 19 0;
#X connect 11 0 38 0;
#X connect 11 0 62 0;
#X connect 12 0 38 0;
#X connect 12 0 63 0;
#X connect 13 0 38 0;
#X connect 13 0 61 0;
#X connect 14 0 18 0;
#X connect 16 0 17 0;
#X connect 16 0 20 0;
#X connect 17 0 15 1;
#X connect 18 0 16 1;
#X connect 19 0 16 0;
#X connect 21 0 24 0;
#X connect 22 0 25 0;
#X connect 23 0 26 0;
#X connect 27 0 28 0;
#X connect 27 0 29 0;
#X connect 27 0 57 0;
#X connect 30 0 14 0;
#X connect 30 1 39 0;
#X connect 30 1 53 0;
#X connect 30 1 56 0;
#X connect 30 1 55 0;
#X connect 30 1 54 0;
#X connect 31 0 1 0;
#X connect 32 0 36 0;
#X connect 33 0 34 0;
#X connect 34 1 37 0;
#X connect 35 0 33 0;
#X connect 36 0 35 0;
#X connect 37 0 27 0;
#X connect 37 0 40 0;
#X connect 38 0 32 0;
#X connect 39 0 10 0;
#X connect 40 0 15 0;
#X connect 41 0 42 0;
#X connect 42 0 64 0;
#X connect 43 0 44 0;
#X connect 44 1 47 0;
#X connect 45 0 46 0;
#X connect 46 0 43 0;
#X connect 46 1 43 1;
#X connect 47 0 31 0;
#X connect 48 0 45 0;
#X connect 49 0 45 1;
#X connect 50 0 15 0;
#X connect 51 0 15 0;
#X connect 52 0 15 0;
#X connect 53 0 57 1;
#X connect 54 0 58 1;
#X connect 55 0 60 1;
#X connect 56 0 59 1;
#X connect 61 0 50 0;
#X connect 61 0 58 0;
#X connect 62 0 51 0;
#X connect 62 0 60 0;
#X connect 63 0 52 0;
#X connect 63 0 59 0;
#X connect 64 0 43 0;
#X coords 0 -1 1 1 62 62 2 0 0;
