#N canvas -4 -4 1280 718 10;
#X obj 22 16 r OBSongPlaylistItemClone-\$1;
#X obj 22 44 t a;
#X obj 172 175 r persongbank;
#X floatatom 172 194 5 0 0 0 - - -;
#X obj 172 214 t b f;
#X obj 172 236 \$1;
#X obj 172 277 mod;
#X obj 170 299 + 1;
#X obj 151 379 s, f 4;
#X obj 395 173 r persongbank;
#X floatatom 395 194 5 0 0 0 - - -;
#X obj 395 214 t b f;
#X obj 395 235 \$1;
#X obj 395 275 mod;
#X obj 395 299 + 1;
#X obj 373 389 s, f 4;
#X obj 592 178 r persongbank;
#X floatatom 592 199 5 0 0 0 - - -;
#X obj 592 219 t b f;
#X obj 592 240 \$1;
#X obj 592 282 mod;
#X obj 571 383 s, f 4;
#X obj 792 176 r persongbank;
#X floatatom 792 197 5 0 0 0 - - -;
#X obj 792 217 t b f;
#X obj 792 238 \$1;
#X obj 792 280 mod;
#X obj 771 384 s, f 4;
#X obj 172 257 - 1;
#X obj 395 253 - 1;
#X floatatom 201 319 5 0 0 0 - - -;
#X obj 592 261 - 1;
#X obj 592 302 + 1;
#X obj 792 259 - 1;
#X obj 792 301 + 1;
#X msg 124 339 set \$1;
#X msg 347 340 set \$1;
#X msg 544 342 set \$1;
#X msg 745 343 set \$1;
#X obj 126 203 f;
#X obj 347 199 f;
#X obj 544 196 f;
#X obj 745 194 f;
#X obj 54 161 s ind-recv;
#X obj 264 126 s patt-recv;
#X obj 492 120 s reps-recv;
#X obj 721 122 s state-recv;
#X obj 16 388 s selsongitem;
#X obj 20 70 route ind get_ind patt get_patt reps get_reps state get_state
, f 145;
#X obj 160 115 t b;
#X obj 344 139 t b;
#X obj 551 145 t b;
#X obj 754 145 t b;
#X msg 172 339 symbol \$1-indexitem-send;
#X msg 592 342 symbol \$1-repsitem-send;
#X msg 792 343 symbol \$1-stateitem-send;
#X obj 670 94 t f f;
#X obj 454 94 t f f;
#X obj 225 103 t f f;
#X obj 20 94 t f f f f;
#X obj 11 339 spigot 0;
#X obj 51 306 tgl 15 0 empty empty empty 17 7 0 10 -262144 -1 -1 1
1;
#X obj 48 264 change;
#X obj 49 285 == 0;
#X obj 47 243 r projectplaystate;
#X obj 28 363 t f;
#X floatatom 430 315 5 0 0 0 - - -;
#X floatatom 638 317 5 0 0 0 - - -;
#X floatatom 855 322 5 0 0 0 - - -;
#X msg 394 339 symbol \$1-pattitem-send;
#X connect 0 0 1 0;
#X connect 1 0 48 0;
#X connect 2 0 3 0;
#X connect 3 0 4 0;
#X connect 4 0 5 0;
#X connect 4 1 6 1;
#X connect 5 0 28 0;
#X connect 6 0 7 0;
#X connect 7 0 30 0;
#X connect 9 0 10 0;
#X connect 10 0 11 0;
#X connect 11 0 12 0;
#X connect 11 1 13 1;
#X connect 12 0 29 0;
#X connect 13 0 14 0;
#X connect 14 0 66 0;
#X connect 16 0 17 0;
#X connect 17 0 18 0;
#X connect 18 0 19 0;
#X connect 18 1 20 1;
#X connect 19 0 31 0;
#X connect 20 0 32 0;
#X connect 22 0 23 0;
#X connect 23 0 24 0;
#X connect 24 0 25 0;
#X connect 24 1 26 1;
#X connect 25 0 33 0;
#X connect 26 0 34 0;
#X connect 28 0 6 0;
#X connect 29 0 13 0;
#X connect 30 0 53 0;
#X connect 31 0 20 0;
#X connect 32 0 67 0;
#X connect 33 0 26 0;
#X connect 34 0 68 0;
#X connect 35 0 8 0;
#X connect 36 0 15 0;
#X connect 37 0 21 0;
#X connect 38 0 27 0;
#X connect 39 0 35 0;
#X connect 40 0 36 0;
#X connect 41 0 37 0;
#X connect 42 0 38 0;
#X connect 48 0 59 0;
#X connect 48 1 49 0;
#X connect 48 2 58 0;
#X connect 48 3 50 0;
#X connect 48 4 57 0;
#X connect 48 5 51 0;
#X connect 48 6 56 0;
#X connect 48 7 52 0;
#X connect 49 0 39 0;
#X connect 50 0 40 0;
#X connect 51 0 41 0;
#X connect 52 0 42 0;
#X connect 53 0 8 1;
#X connect 54 0 21 1;
#X connect 55 0 27 1;
#X connect 56 0 42 1;
#X connect 56 1 46 0;
#X connect 57 0 41 1;
#X connect 57 1 45 0;
#X connect 58 0 40 1;
#X connect 58 1 44 0;
#X connect 59 1 39 1;
#X connect 59 2 43 0;
#X connect 59 3 60 0;
#X connect 60 0 65 0;
#X connect 61 0 60 1;
#X connect 62 0 63 0;
#X connect 63 0 61 0;
#X connect 64 0 62 0;
#X connect 65 0 47 0;
#X connect 66 0 69 0;
#X connect 67 0 54 0;
#X connect 68 0 55 0;
#X connect 69 0 15 1;
