#N canvas 194 96 988 771 10;
#X obj 370 27 inlet;
#X obj 471 25 inlet;
#X obj 1 1 cnv 15 60 60 \$1-songitem-send \$1-songitem-recv Patt:0
2 7 0 10 -250685 -1 0;
#X text 324 7 default color;
#X text 430 6 active color;
#X text 102 12 item index number;
#X obj 220 401 t b;
#X obj 3 28 nbx 3 14 1 1e+037 0 0 \$1-repsitem-send \$1-repsitem-recv
Reps 1 -7 0 9 -262144 -1 -1 1 256;
#X obj 3 47 tgl 10 0 \$1-stateitem-send \$1-stateitem-recv EOS 17 6
0 9 -262144 -1 -1 0 1;
#X obj 32 3 nbx 2 14 1 64 0 0 \$1-pattitem-send \$1-pattitem-recv empty
1 -7 0 9 -262144 -1 -1 1 256;
#X msg 267 483 symbol OBSongPlaylistItemClone-\$1;
#X obj 203 583 s;
#X obj 222 536 symbol;
#X obj 222 560 t s;
#X obj 268 513 t s;
#X msg 220 512 bang;
#X symbolatom 266 560 30 0 0 0 - - -;
#X obj 325 638 t f;
#X floatatom 308 691 5 0 0 0 - - -;
#X obj 331 668 s selsongitem;
#X obj 192 335 t a b;
#X obj 156 213 t f;
#X obj 105 366 delay 25;
#X obj 106 428 pack f f;
#X obj 106 453 unpack f f;
#X msg 106 407 0;
#X obj 106 387 t b;
#X obj 104 311 t b;
#X obj 219 380 delay 20;
#X msg 156 543 ind \$1;
#X obj 89 37 loadbang;
#X obj 89 71 \$1;
#X obj 129 141 +;
#X obj 129 168 t b f;
#X obj 161 88 *;
#X obj 161 117 t b f;
#X floatatom 156 190 5 0 0 0 - - -;
#X obj 215 55 r persongbank;
#X msg 34 782 patt \$1;
#X msg 95 800 reps \$1;
#X msg 162 805 state \$1;
#X msg 594 548 symbol ind-recv;
#X msg 702 546 symbol patt-recv;
#X msg 813 548 symbol reps-recv;
#X msg 922 548 symbol state-recv;
#X obj 570 582 s;
#X obj 698 585 s;
#X obj 907 590 s;
#X obj 797 587 s;
#X obj 34 760 t f;
#X obj 95 780 t f;
#X obj 160 780 t f;
#X msg 89 103 \$1;
#X obj 163 501 t f f;
#X msg 199 291 1;
#X obj 199 312 t f f;
#X obj 198 269 t b;
#X obj 199 247 delay 20;
#X floatatom 228 133 5 0 0 0 - - -;
#X floatatom 214 92 5 0 0 0 - - -;
#X obj 150 45 r songbank;
#X obj 321 211 >;
#X obj 296 169 r selsongitem;
#X obj 351 191 t f;
#X floatatom 321 233 5 0 0 0 - - -;
#X obj 303 191 t f;
#X obj 318 340 s bangnextpage;
#X obj 317 297 t b;
#X obj 320 254 change;
#X obj 317 276 == 1;
#N canvas -8 -8 1280 878 SongItemColorChange 1;
#X floatatom 232 7 5 0 0 0 - - -;
#X floatatom 380 154 5 0 0 0 - - -;
#X obj 339 156 ==;
#X obj 339 228 change;
#X floatatom 339 182 5 0 0 0 - - -;
#X obj 340 204 t f;
#X msg 338 392 0;
#X obj 338 414 t f;
#X obj 338 315 t b;
#X msg 598 398 0;
#X obj 598 416 t f;
#X obj 598 274 change;
#X obj 338 281 == 1;
#X floatatom 339 253 5 0 0 0 - - -;
#X obj 232 -17 r selsongitem;
#X obj 338 363 t b;
#X obj 323 -28 loadbang;
#X obj 323 6 \$1;
#X obj 390 80 +;
#X obj 395 23 *;
#X obj 395 52 t b f;
#X obj 454 -19 r persongbank;
#X msg 323 38 \$1;
#X obj 384 -20 r songbank;
#X obj 232 32 t f;
#X obj 450 5 t f;
#X obj 389 1 t f;
#X obj 338 341 delay 20;
#X floatatom 482 83 5 0 0 0 - - -;
#X obj 232 60 count 1 16;
#X floatatom 233 87 5 0 0 0 - - -;
#X obj 598 301 == 0;
#X obj 355 119 t f f;
#X obj 232 112 t f f f;
#X obj 691 142 inlet;
#X floatatom 775 548 5 0 0 0 - - -;
#X obj 598 441 pack f f f;
#X obj 597 468 unpack f f f;
#X msg 776 582 symbol \$1-songitem-recv;
#X obj 733 649 symbol;
#X symbolatom 780 614 10 0 0 0 - - -;
#X msg 786 840 color \$1;
#X obj 786 860 s;
#X msg 726 621 bang;
#X obj 735 722 t b;
#X obj 734 699 delay 20;
#X obj 733 675 t b;
#X obj 735 749 pack f f;
#X obj 741 773 unpack f f;
#X floatatom 756 802 5 0 0 0 - - -;
#X obj 882 768 hsl 128 15 0 127 0 0 empty empty empty -2 -8 0 10 -262144
-1 -1 0 1;
#X floatatom 874 798 5 0 0 0 - - -;
#X obj 654 332 t f;
#X obj 715 598 delay 10;
#X obj 599 329 t b b;
#X obj 795 806 t f;
#X obj 780 728 t f;
#X obj 715 496 t f b;
#X floatatom 675 365 5 0 0 0 - - -;
#X obj 449 163 inlet;
#X obj 338 439 pack f f f;
#X floatatom 508 546 5 0 0 0 - - -;
#X obj 330 466 unpack f f f;
#X msg 509 580 symbol \$1-songitem-recv;
#X obj 466 647 symbol;
#X symbolatom 513 612 10 0 0 0 - - -;
#X msg 519 838 color \$1;
#X obj 519 858 s;
#X msg 459 619 bang;
#X obj 468 720 t b;
#X obj 467 697 delay 20;
#X obj 466 673 t b;
#X obj 468 747 pack f f;
#X obj 474 771 unpack f f;
#X floatatom 489 800 5 0 0 0 - - -;
#X obj 615 766 hsl 128 15 0 127 0 0 empty empty empty -2 -8 0 10 -262144
-1 -1 0 1;
#X floatatom 607 796 5 0 0 0 - - -;
#X obj 448 596 delay 10;
#X obj 528 804 t f;
#X obj 513 726 t f;
#X obj 448 494 t f b;
#X obj 419 363 t f;
#X floatatom 425 395 5 0 0 0 - - -;
#X connect 0 0 24 0;
#X connect 2 0 4 0;
#X connect 3 0 13 0;
#X connect 4 0 5 0;
#X connect 5 0 3 0;
#X connect 6 0 7 0;
#X connect 7 0 60 0;
#X connect 8 0 27 0;
#X connect 9 0 10 0;
#X connect 10 0 36 0;
#X connect 11 0 31 0;
#X connect 12 0 8 0;
#X connect 12 0 11 0;
#X connect 13 0 12 0;
#X connect 14 0 0 0;
#X connect 15 0 6 0;
#X connect 16 0 17 0;
#X connect 17 0 22 0;
#X connect 19 0 20 0;
#X connect 19 0 28 0;
#X connect 20 0 18 0;
#X connect 21 0 25 0;
#X connect 22 0 32 0;
#X connect 23 0 26 0;
#X connect 24 0 29 0;
#X connect 25 0 19 1;
#X connect 26 0 19 0;
#X connect 27 0 15 0;
#X connect 29 0 30 0;
#X connect 30 0 33 0;
#X connect 31 0 54 0;
#X connect 32 0 2 1;
#X connect 32 0 1 0;
#X connect 33 0 60 1;
#X connect 33 1 36 1;
#X connect 33 2 2 0;
#X connect 34 0 52 0;
#X connect 35 0 38 0;
#X connect 36 0 37 0;
#X connect 37 1 35 0;
#X connect 37 2 56 0;
#X connect 37 2 57 0;
#X connect 38 0 40 0;
#X connect 39 0 42 1;
#X connect 39 0 46 0;
#X connect 40 0 39 1;
#X connect 41 0 42 0;
#X connect 43 0 39 0;
#X connect 44 0 47 0;
#X connect 45 0 44 0;
#X connect 46 0 45 0;
#X connect 47 0 48 0;
#X connect 48 1 49 0;
#X connect 48 1 55 0;
#X connect 50 0 51 0;
#X connect 50 0 55 0;
#X connect 52 0 36 2;
#X connect 52 0 58 0;
#X connect 53 0 43 0;
#X connect 54 0 9 0;
#X connect 54 1 9 0;
#X connect 55 0 41 0;
#X connect 56 0 47 1;
#X connect 57 0 35 0;
#X connect 57 1 53 0;
#X connect 59 0 81 0;
#X connect 60 0 62 0;
#X connect 61 0 63 0;
#X connect 62 1 61 0;
#X connect 62 2 79 0;
#X connect 62 2 80 0;
#X connect 63 0 65 0;
#X connect 64 0 67 1;
#X connect 64 0 71 0;
#X connect 65 0 64 1;
#X connect 66 0 67 0;
#X connect 68 0 64 0;
#X connect 69 0 72 0;
#X connect 70 0 69 0;
#X connect 71 0 70 0;
#X connect 72 0 73 0;
#X connect 73 1 74 0;
#X connect 73 1 78 0;
#X connect 75 0 76 0;
#X connect 75 0 78 0;
#X connect 77 0 68 0;
#X connect 78 0 66 0;
#X connect 79 0 72 1;
#X connect 80 0 61 0;
#X connect 80 1 77 0;
#X connect 81 0 60 2;
#X connect 81 0 82 0;
#X restore 427 149 pd SongItemColorChange \$1;
#X floatatom 381 60 5 0 0 0 - - -;
#X obj 398 92 t f;
#X floatatom 469 58 5 0 0 0 - - -;
#X obj 486 90 t f;
#X connect 0 0 71 0;
#X connect 1 0 73 0;
#X connect 6 0 15 0;
#X connect 7 0 27 0;
#X connect 7 0 50 0;
#X connect 8 0 27 0;
#X connect 8 0 51 0;
#X connect 9 0 27 0;
#X connect 9 0 49 0;
#X connect 10 0 14 0;
#X connect 12 0 13 0;
#X connect 12 0 16 0;
#X connect 13 0 11 1;
#X connect 14 0 12 1;
#X connect 15 0 12 0;
#X connect 17 0 18 0;
#X connect 17 0 19 0;
#X connect 17 0 45 0;
#X connect 20 0 10 0;
#X connect 20 1 28 0;
#X connect 20 1 41 0;
#X connect 20 1 44 0;
#X connect 20 1 43 0;
#X connect 20 1 42 0;
#X connect 21 0 57 0;
#X connect 21 0 20 0;
#X connect 21 0 23 1;
#X connect 21 0 27 0;
#X connect 22 0 26 0;
#X connect 23 0 24 0;
#X connect 24 1 53 0;
#X connect 25 0 23 0;
#X connect 26 0 25 0;
#X connect 27 0 22 0;
#X connect 28 0 6 0;
#X connect 29 0 11 0;
#X connect 30 0 31 0;
#X connect 31 0 52 0;
#X connect 32 0 33 0;
#X connect 33 1 36 0;
#X connect 34 0 35 0;
#X connect 34 0 58 0;
#X connect 35 0 32 0;
#X connect 35 1 32 1;
#X connect 36 0 21 0;
#X connect 37 0 59 0;
#X connect 37 0 34 1;
#X connect 38 0 11 0;
#X connect 39 0 11 0;
#X connect 40 0 11 0;
#X connect 41 0 45 1;
#X connect 42 0 46 1;
#X connect 43 0 48 1;
#X connect 44 0 47 1;
#X connect 49 0 38 0;
#X connect 49 0 46 0;
#X connect 50 0 39 0;
#X connect 50 0 48 0;
#X connect 51 0 40 0;
#X connect 51 0 47 0;
#X connect 52 0 32 0;
#X connect 53 0 17 0;
#X connect 53 1 29 0;
#X connect 54 0 55 0;
#X connect 55 0 9 0;
#X connect 55 1 7 0;
#X connect 56 0 54 0;
#X connect 57 0 56 0;
#X connect 58 0 63 0;
#X connect 60 0 34 0;
#X connect 61 0 64 0;
#X connect 62 0 65 0;
#X connect 63 0 61 1;
#X connect 64 0 68 0;
#X connect 65 0 61 0;
#X connect 68 0 69 0;
#X connect 69 0 67 0;
#X connect 71 0 72 0;
#X connect 72 0 70 1;
#X connect 73 0 74 0;
#X connect 74 0 70 0;
#X coords 0 -1 1 1 62 62 2 0 0;
