#N canvas 380 0 1017 545 10;
#X obj 22 16 r OBSongPlaylistItemClone-\$1;
#X obj 22 44 t a;
#X obj 172 175 r persongbank;
#X floatatom 172 194 5 0 0 0 - - -;
#X obj 172 214 t b f;
#X obj 172 236 \$1;
#X obj 172 277 mod;
#X obj 170 299 + 1;
#X obj 151 379 s, f 4;
#X obj 395 173 r persongbank;
#X floatatom 395 194 5 0 0 0 - - -;
#X obj 395 214 t b f;
#X obj 395 235 \$1;
#X obj 395 275 mod;
#X obj 395 299 + 1;
#X obj 373 389 s, f 4;
#X obj 592 178 r persongbank;
#X floatatom 592 199 5 0 0 0 - - -;
#X obj 592 219 t b f;
#X obj 592 240 \$1;
#X obj 592 282 mod;
#X obj 571 383 s, f 4;
#X obj 792 176 r persongbank;
#X floatatom 792 197 5 0 0 0 - - -;
#X obj 792 217 t b f;
#X obj 792 238 \$1;
#X obj 792 280 mod;
#X obj 771 384 s, f 4;
#X obj 172 257 - 1;
#X obj 395 253 - 1;
#X floatatom 201 319 5 0 0 0 - - -;
#X obj 592 261 - 1;
#X obj 592 302 + 1;
#X obj 792 259 - 1;
#X obj 792 301 + 1;
#X msg 124 339 set \$1;
#X msg 347 340 set \$1;
#X msg 544 342 set \$1;
#X msg 745 343 set \$1;
#X obj 126 203 f;
#X obj 347 199 f;
#X obj 544 196 f;
#X obj 745 194 f;
#X obj 54 161 s ind-recv;
#X obj 272 117 s patt-recv;
#X obj 492 120 s reps-recv;
#X obj 721 122 s state-recv;
#X obj 71 137 s selsongitem;
#X obj 20 70 route ind get_ind patt get_patt reps get_reps state get_state
, f 145;
#N canvas -4 -4 1280 718 selectPlayingSongItem 0;
#X floatatom 40 46 5 0 0 0 - - -;
#X floatatom 186 199 5 0 0 0 - - -;
#X obj 147 197 ==;
#X obj 147 262 change;
#X floatatom 147 221 5 0 0 0 - - -;
#X obj 147 240 t f;
#X msg 147 401 0;
#X obj 147 422 t f;
#X obj 147 329 t b;
#X msg 387 428 0;
#X obj 387 448 t f;
#X obj 387 353 change;
#X obj 387 408 t b;
#X obj 147 305 == 1;
#X floatatom 147 282 5 0 0 0 - - -;
#X obj 147 377 t b;
#X obj 131 13 loadbang;
#X obj 131 47 \$1;
#X obj 162 150 +;
#X obj 203 71 *;
#X obj 262 22 r persongbank;
#X msg 131 79 \$1;
#X obj 192 21 r songbank;
#X obj 40 71 t f;
#X obj 258 46 t f;
#X obj 197 42 t f;
#X obj 177 351 delay 20;
#X floatatom 40 123 5 0 0 0 - - -;
#X obj 387 380 == 0;
#X obj 162 170 t f f;
#X obj 40 20 inlet;
#X obj 20 231 outlet;
#X floatatom 301 546 5 0 0 0 - - -;
#X obj 147 469 unpack f f f;
#X obj 243 589 symbol;
#X symbolatom 292 589 10 0 0 0 - - -;
#X msg 300 772 color \$1;
#X obj 297 821 s;
#X msg 243 565 bang;
#X obj 162 653 t b;
#X obj 164 633 delay 20;
#X obj 243 685 pack f f;
#X obj 243 709 unpack f f;
#X floatatom 300 729 5 0 0 0 - - -;
#X obj 133 546 delay 10;
#X obj 288 663 t f;
#X obj 147 447 pack f f f;
#X floatatom 553 545 5 0 0 0 - - -;
#X obj 387 492 unpack f f f;
#X obj 499 605 symbol;
#X symbolatom 553 586 10 0 0 0 - - -;
#X msg 522 802 color \$1;
#X obj 519 850 s;
#X msg 483 583 bang;
#X obj 452 682 t b;
#X obj 451 662 delay 20;
#X obj 501 726 pack f f;
#X obj 501 750 unpack f f;
#X floatatom 522 779 5 0 0 0 - - -;
#X obj 493 563 delay 10;
#X obj 544 674 t f;
#X obj 456 539 t f b;
#X obj 387 470 pack f f f;
#X obj 444 449 r plcolor-send;
#X obj 209 421 r playingcolor-send;
#X obj 216 512 t f b;
#X msg 301 567 symbol \$1-songitem-recv;
#X msg 553 565 symbol \$1-songitem-recv;
#X obj 181 492 t f f b b;
#X obj 421 515 t f f b b;
#X floatatom 206 175 5 0 0 0 - - -;
#X obj 40 148 t f f f f b;
#X obj 569 780 t f;
#X obj 300 750 t f;
#X floatatom 243 138 5 0 0 0 - - -;
#X obj 243 115 + 16;
#X obj 243 186 s nextpageitemtotal;
#X obj 204 93 t b f f;
#X obj 247 161 t f;
#X obj 104 126 t f;
#X obj 69 99 count 1 16;
#X msg 238 643 0;
#X obj 237 663 t f;
#X msg 501 687 0;
#X obj 500 705 t f;
#X obj 482 630 t s b;
#X obj 243 613 t s b;
#X connect 0 0 23 0;
#X connect 2 0 4 0;
#X connect 3 0 14 0;
#X connect 4 0 5 0;
#X connect 5 0 3 0;
#X connect 6 0 7 0;
#X connect 7 0 46 0;
#X connect 8 0 15 0;
#X connect 9 0 10 0;
#X connect 10 0 62 0;
#X connect 11 0 28 0;
#X connect 12 0 9 0;
#X connect 13 0 8 0;
#X connect 13 0 11 0;
#X connect 14 0 13 0;
#X connect 15 0 6 0;
#X connect 16 0 17 0;
#X connect 17 0 21 0;
#X connect 18 0 70 0;
#X connect 18 0 29 0;
#X connect 19 0 77 0;
#X connect 20 0 24 0;
#X connect 21 0 18 0;
#X connect 22 0 25 0;
#X connect 23 0 27 0;
#X connect 24 0 19 1;
#X connect 25 0 19 0;
#X connect 27 0 71 0;
#X connect 28 0 12 0;
#X connect 29 0 2 1;
#X connect 29 0 1 0;
#X connect 30 0 0 0;
#X connect 32 0 66 0;
#X connect 33 1 68 0;
#X connect 33 2 65 0;
#X connect 34 0 86 0;
#X connect 35 0 34 1;
#X connect 36 0 37 0;
#X connect 38 0 34 0;
#X connect 40 0 39 0;
#X connect 41 0 42 0;
#X connect 42 1 43 0;
#X connect 43 0 73 0;
#X connect 45 0 41 1;
#X connect 46 0 33 0;
#X connect 47 0 67 0;
#X connect 48 1 69 0;
#X connect 48 2 61 0;
#X connect 49 0 85 0;
#X connect 50 0 49 1;
#X connect 51 0 52 0;
#X connect 53 0 49 0;
#X connect 55 0 54 0;
#X connect 56 0 57 0;
#X connect 57 1 58 0;
#X connect 57 1 72 0;
#X connect 58 0 51 0;
#X connect 60 0 56 1;
#X connect 61 0 60 0;
#X connect 61 1 53 0;
#X connect 62 0 48 0;
#X connect 63 0 62 2;
#X connect 64 0 46 2;
#X connect 65 0 45 0;
#X connect 65 1 38 0;
#X connect 66 0 35 0;
#X connect 67 0 50 0;
#X connect 68 0 32 0;
#X connect 69 0 47 0;
#X connect 71 0 46 1;
#X connect 71 1 62 1;
#X connect 71 2 2 0;
#X connect 71 4 31 0;
#X connect 73 0 36 0;
#X connect 74 0 78 0;
#X connect 75 0 74 0;
#X connect 77 0 18 0;
#X connect 77 1 18 1;
#X connect 77 2 75 0;
#X connect 78 0 76 0;
#X connect 80 0 79 0;
#X connect 81 0 82 0;
#X connect 82 0 41 0;
#X connect 83 0 84 0;
#X connect 84 0 56 0;
#X connect 85 0 52 1;
#X connect 85 1 83 0;
#X connect 86 0 37 1;
#X connect 86 1 81 0;
#X restore 26 422 pd selectPlayingSongItem \$1;
#X obj 20 94 t f f f f;
#X obj 233 94 t f f;
#X obj 454 94 t f f;
#X obj 670 94 t f f;
#X obj 71 118 t f;
#X obj 160 115 t b;
#X obj 344 139 t b;
#X obj 551 145 t b;
#X obj 754 145 t b;
#X obj 126 229 t f;
#X obj 348 225 t f;
#X obj 544 224 t f;
#X obj 744 230 t f;
#X msg 172 339 symbol \$1-indexitem-send;
#X msg 395 341 symbol \$1-pattitem-send;
#X msg 592 342 symbol \$1-repsitem-send;
#X msg 792 343 symbol \$1-stateitem-send;
#X connect 0 0 1 0;
#X connect 1 0 48 0;
#X connect 2 0 3 0;
#X connect 3 0 4 0;
#X connect 4 0 5 0;
#X connect 4 1 6 1;
#X connect 5 0 28 0;
#X connect 6 0 7 0;
#X connect 7 0 30 0;
#X connect 7 0 63 0;
#X connect 9 0 10 0;
#X connect 10 0 11 0;
#X connect 11 0 12 0;
#X connect 11 1 13 1;
#X connect 12 0 29 0;
#X connect 13 0 14 0;
#X connect 14 0 64 0;
#X connect 16 0 17 0;
#X connect 17 0 18 0;
#X connect 18 0 19 0;
#X connect 18 1 20 1;
#X connect 19 0 31 0;
#X connect 20 0 32 0;
#X connect 22 0 23 0;
#X connect 23 0 24 0;
#X connect 24 0 25 0;
#X connect 24 1 26 1;
#X connect 25 0 33 0;
#X connect 26 0 34 0;
#X connect 28 0 6 0;
#X connect 29 0 13 0;
#X connect 31 0 20 0;
#X connect 32 0 65 0;
#X connect 33 0 26 0;
#X connect 34 0 66 0;
#X connect 35 0 8 0;
#X connect 36 0 15 0;
#X connect 37 0 21 0;
#X connect 38 0 27 0;
#X connect 39 0 59 0;
#X connect 40 0 60 0;
#X connect 41 0 61 0;
#X connect 42 0 62 0;
#X connect 48 0 50 0;
#X connect 48 1 55 0;
#X connect 48 2 51 0;
#X connect 48 3 56 0;
#X connect 48 4 52 0;
#X connect 48 5 57 0;
#X connect 48 6 53 0;
#X connect 48 7 58 0;
#X connect 50 0 49 0;
#X connect 50 1 39 1;
#X connect 50 2 43 0;
#X connect 50 3 54 0;
#X connect 51 0 40 1;
#X connect 51 1 44 0;
#X connect 52 0 41 1;
#X connect 52 1 45 0;
#X connect 53 0 42 1;
#X connect 53 1 46 0;
#X connect 54 0 47 0;
#X connect 55 0 39 0;
#X connect 56 0 40 0;
#X connect 57 0 41 0;
#X connect 58 0 42 0;
#X connect 59 0 35 0;
#X connect 60 0 36 0;
#X connect 61 0 37 0;
#X connect 62 0 38 0;
#X connect 63 0 8 1;
#X connect 64 0 15 1;
#X connect 65 0 21 1;
#X connect 66 0 27 1;
