#N canvas -1 47 1017 545 10;
#X obj 22 16 r OBSongPlaylistItemClone-\$1;
#X obj 22 44 t a;
#X obj 172 175 r persongbank;
#X floatatom 172 194 5 0 0 0 - - -;
#X obj 172 214 t b f;
#X obj 172 236 \$1;
#X obj 172 277 mod;
#X obj 170 299 + 1;
#X obj 151 379 s, f 4;
#X obj 172 358 t s;
#X obj 395 173 r persongbank;
#X floatatom 395 194 5 0 0 0 - - -;
#X obj 395 214 t b f;
#X obj 395 235 \$1;
#X obj 395 275 mod;
#X obj 395 299 + 1;
#X obj 373 389 s, f 4;
#X obj 395 366 t s;
#X obj 592 178 r persongbank;
#X floatatom 592 199 5 0 0 0 - - -;
#X obj 592 219 t b f;
#X obj 592 240 \$1;
#X obj 592 282 mod;
#X obj 571 383 s, f 4;
#X obj 592 362 t s;
#X obj 792 176 r persongbank;
#X floatatom 792 197 5 0 0 0 - - -;
#X obj 792 217 t b f;
#X obj 792 238 \$1;
#X obj 792 280 mod;
#X obj 771 384 s, f 4;
#X obj 792 363 t s;
#X obj 1029 92 \$1;
#X obj 1141 143 t b f;
#X obj 994 68 r selsongitem;
#X obj 1112 67 r songbank;
#X obj 1194 65 r persongbank;
#X obj 1194 92 s \$1-songbank-recv;
#X obj 1103 189 t b f f f f;
#X obj 172 319 t f;
#X obj 395 320 t f;
#X obj 592 322 t f;
#X obj 792 322 t f;
#X obj 172 257 - 1;
#X obj 395 253 - 1;
#X msg 792 343 symbol \$1-stateitem-send;
#X floatatom 201 319 5 0 0 0 - - -;
#X obj 592 261 - 1;
#X obj 592 302 + 1;
#X obj 792 259 - 1;
#X obj 792 301 + 1;
#X msg 172 339 symbol \$1-indexitem-recv;
#X msg 395 341 symbol \$1-pattitem-recv;
#X msg 592 342 symbol \$1-repsitem-recv;
#X obj 1030 111 t f;
#X msg 124 339 set \$1;
#X msg 347 340 set \$1;
#X msg 544 342 set \$1;
#X msg 745 343 set \$1;
#X obj 1141 116 *;
#X obj 1103 162 +;
#X obj 143 359 t a;
#X obj 362 365 t a;
#X obj 563 362 t a;
#X obj 765 364 t a;
#N canvas -8 -8 1280 766 selectPlayingSongItem 0;
#X floatatom 232 7 5 0 0 0 - - -;
#X floatatom 380 154 5 0 0 0 - - -;
#X obj 339 156 ==;
#X obj 339 228 change;
#X floatatom 339 182 5 0 0 0 - - -;
#X obj 340 204 t f;
#X msg 338 392 0;
#X obj 338 414 t f;
#X obj 338 315 t b;
#X msg 598 398 0;
#X obj 598 416 t f;
#X obj 598 274 change;
#X obj 598 329 t b;
#X obj 338 281 == 1;
#X floatatom 339 253 5 0 0 0 - - -;
#X obj 338 363 t b;
#X obj 323 -28 loadbang;
#X obj 323 6 \$1;
#X obj 390 80 +;
#X obj 395 23 *;
#X obj 395 52 t b f;
#X obj 454 -19 r persongbank;
#X msg 323 38 \$1;
#X obj 384 -20 r songbank;
#X obj 232 32 t f;
#X obj 450 5 t f;
#X obj 389 1 t f;
#X obj 338 341 delay 20;
#X floatatom 482 83 5 0 0 0 - - -;
#X floatatom 233 87 5 0 0 0 - - -;
#X obj 598 301 == 0;
#X obj 355 119 t f f;
#X obj 168 8 inlet;
#X obj 232 112 t f f f b;
#X obj 233 231 outlet;
#X floatatom 517 568 5 0 0 0 - - -;
#X obj 339 488 unpack f f f;
#X obj 475 669 symbol;
#X symbolatom 522 634 10 0 0 0 - - -;
#X msg 528 860 color \$1;
#X obj 528 880 s;
#X msg 468 641 bang;
#X obj 477 742 t b;
#X obj 476 719 delay 20;
#X obj 475 695 t b;
#X obj 477 769 pack f f;
#X obj 483 793 unpack f f;
#X floatatom 498 822 5 0 0 0 - - -;
#X obj 457 618 delay 10;
#X obj 537 826 t f;
#X obj 522 748 t f;
#X obj 338 439 pack f f f;
#X floatatom 807 569 5 0 0 0 - - -;
#X obj 629 489 unpack f f f;
#X obj 765 670 symbol;
#X symbolatom 812 635 10 0 0 0 - - -;
#X msg 818 861 color \$1;
#X obj 818 881 s;
#X msg 758 642 bang;
#X obj 767 743 t b;
#X obj 766 720 delay 20;
#X obj 765 696 t b;
#X obj 767 770 pack f f;
#X obj 773 794 unpack f f;
#X floatatom 788 823 5 0 0 0 - - -;
#X obj 747 619 delay 10;
#X obj 827 827 t f;
#X obj 812 749 t f;
#X obj 747 517 t f b;
#X obj 598 441 pack f f f;
#X obj 424 374 r aplcolor-send;
#X obj 656 401 r plcolor-send;
#X obj 428 400 r playingcolor-send;
#X obj 471 510 t f b;
#X obj 117 63 count 1 64;
#X msg 518 602 symbol \$1-songitem-recv;
#X msg 808 603 symbol \$1-songitem-recv;
#X connect 0 0 24 0;
#X connect 2 0 4 0;
#X connect 3 0 14 0;
#X connect 4 0 5 0;
#X connect 5 0 3 0;
#X connect 6 0 7 0;
#X connect 7 0 51 0;
#X connect 8 0 27 0;
#X connect 9 0 10 0;
#X connect 10 0 69 0;
#X connect 11 0 30 0;
#X connect 12 0 9 0;
#X connect 13 0 8 0;
#X connect 13 0 11 0;
#X connect 14 0 13 0;
#X connect 15 0 6 0;
#X connect 16 0 17 0;
#X connect 17 0 22 0;
#X connect 19 0 20 0;
#X connect 19 0 28 0;
#X connect 20 0 18 0;
#X connect 21 0 25 0;
#X connect 22 0 31 0;
#X connect 23 0 26 0;
#X connect 24 0 74 0;
#X connect 25 0 19 1;
#X connect 26 0 19 0;
#X connect 27 0 15 0;
#X connect 29 0 33 0;
#X connect 30 0 12 0;
#X connect 31 0 2 1;
#X connect 31 0 1 0;
#X connect 32 0 0 0;
#X connect 33 0 51 1;
#X connect 33 1 69 1;
#X connect 33 2 2 0;
#X connect 33 3 34 0;
#X connect 35 0 75 0;
#X connect 36 1 35 0;
#X connect 36 2 73 0;
#X connect 37 0 40 1;
#X connect 37 0 44 0;
#X connect 38 0 37 1;
#X connect 39 0 40 0;
#X connect 41 0 37 0;
#X connect 42 0 45 0;
#X connect 43 0 42 0;
#X connect 44 0 43 0;
#X connect 45 0 46 0;
#X connect 46 1 47 0;
#X connect 46 1 49 0;
#X connect 48 0 41 0;
#X connect 49 0 39 0;
#X connect 50 0 45 1;
#X connect 51 0 36 0;
#X connect 52 0 76 0;
#X connect 53 1 52 0;
#X connect 53 2 68 0;
#X connect 54 0 57 1;
#X connect 54 0 61 0;
#X connect 55 0 54 1;
#X connect 56 0 57 0;
#X connect 58 0 54 0;
#X connect 59 0 62 0;
#X connect 60 0 59 0;
#X connect 61 0 60 0;
#X connect 62 0 63 0;
#X connect 63 1 64 0;
#X connect 63 1 66 0;
#X connect 65 0 58 0;
#X connect 66 0 56 0;
#X connect 67 0 62 1;
#X connect 68 0 67 0;
#X connect 68 1 65 0;
#X connect 69 0 53 0;
#X connect 71 0 69 2;
#X connect 72 0 51 2;
#X connect 73 0 50 0;
#X connect 73 1 48 0;
#X connect 74 0 29 0;
#X connect 75 0 38 0;
#X connect 76 0 55 0;
#X restore 34 416 pd selectPlayingSongItem \$1;
#X obj 124 203 f;
#X obj 347 199 f;
#X obj 544 196 f;
#X obj 745 194 f;
#X obj 54 161 s ind-recv;
#X obj 272 117 s patt-recv;
#X obj 492 120 s reps-recv;
#X obj 721 122 s state-recv;
#X obj 236 94 t f f;
#X obj 453 94 t f f;
#X obj 670 94 t f f;
#X obj 123 229 t f;
#X obj 348 224 t f;
#X obj 546 223 t f;
#X obj 746 219 t f;
#X obj 71 137 s selsongitem;
#X obj 71 118 t f;
#X obj 20 94 t f f f f;
#X obj 20 70 route ind get_ind patt get_patt reps get_reps state get_state
, f 145;
#X connect 0 0 1 0;
#X connect 1 0 84 0;
#X connect 2 0 3 0;
#X connect 3 0 4 0;
#X connect 4 0 5 0;
#X connect 4 1 6 1;
#X connect 5 0 43 0;
#X connect 6 0 7 0;
#X connect 7 0 39 0;
#X connect 7 0 46 0;
#X connect 9 0 8 1;
#X connect 10 0 11 0;
#X connect 11 0 12 0;
#X connect 12 0 13 0;
#X connect 12 1 14 1;
#X connect 13 0 44 0;
#X connect 14 0 15 0;
#X connect 15 0 40 0;
#X connect 17 0 16 1;
#X connect 18 0 19 0;
#X connect 19 0 20 0;
#X connect 20 0 21 0;
#X connect 20 1 22 1;
#X connect 21 0 47 0;
#X connect 22 0 48 0;
#X connect 24 0 23 1;
#X connect 25 0 26 0;
#X connect 26 0 27 0;
#X connect 27 0 28 0;
#X connect 27 1 29 1;
#X connect 28 0 49 0;
#X connect 29 0 50 0;
#X connect 31 0 30 1;
#X connect 32 0 54 0;
#X connect 33 0 60 0;
#X connect 33 1 60 1;
#X connect 34 0 32 0;
#X connect 35 0 37 0;
#X connect 35 0 59 0;
#X connect 36 0 59 1;
#X connect 39 0 51 0;
#X connect 40 0 52 0;
#X connect 41 0 53 0;
#X connect 42 0 45 0;
#X connect 43 0 6 0;
#X connect 44 0 14 0;
#X connect 45 0 31 0;
#X connect 47 0 22 0;
#X connect 48 0 41 0;
#X connect 49 0 29 0;
#X connect 50 0 42 0;
#X connect 51 0 9 0;
#X connect 52 0 17 0;
#X connect 53 0 24 0;
#X connect 54 0 60 0;
#X connect 55 0 61 0;
#X connect 56 0 62 0;
#X connect 57 0 63 0;
#X connect 58 0 64 0;
#X connect 59 0 33 0;
#X connect 60 0 38 0;
#X connect 61 0 8 0;
#X connect 62 0 16 0;
#X connect 63 0 23 0;
#X connect 64 0 30 0;
#X connect 66 0 77 0;
#X connect 67 0 78 0;
#X connect 68 0 79 0;
#X connect 69 0 80 0;
#X connect 74 0 67 0;
#X connect 74 1 71 0;
#X connect 75 0 68 0;
#X connect 75 1 72 0;
#X connect 76 0 69 0;
#X connect 76 1 73 0;
#X connect 77 0 55 0;
#X connect 78 0 56 0;
#X connect 79 0 57 0;
#X connect 80 0 58 0;
#X connect 82 0 81 0;
#X connect 83 0 65 0;
#X connect 83 1 66 0;
#X connect 83 2 70 0;
#X connect 83 3 82 0;
#X connect 84 0 83 0;
#X connect 84 1 66 1;
#X connect 84 2 74 0;
#X connect 84 3 67 1;
#X connect 84 4 75 0;
#X connect 84 5 68 1;
#X connect 84 6 76 0;
#X connect 84 7 69 1;
