#N canvas -4 -4 1440 818 10;
#X obj 2 3 bng 27 250 50 0 \$1-songitembang empty empty 17 7 0 10 -262144
-1 -1;
#X obj 40 19 bng 20 250 50 0 \$1-songitembang2 empty empty 17 7 0 10
-262144 -1 -1;
#X obj 40 39 bng 20 250 50 0 \$1-songitembang3 empty empty 17 7 0 10
-262144 -1 -1;
#X obj 1 1 cnv 15 60 60 empty empty empty 20 12 0 14 -1 -66577 0;
#X obj 2 2 cnv 15 58 58 empty \$1-songitem-recv empty 20 12 0 14 -355
-66577 0;
#X obj 31 4 nbx 2 14 1 64 0 0 \$1-pattitem-send \$1-pattitem-recv Patt
-28 7 0 10 -262144 -1 -1 1 256;
#X obj 3 31 nbx 3 14 1 999 0 0 \$1-repsitem-send \$1-repsitem-recv
Reps 0 -8 0 10 -262144 -1 -1 1 256;
#X obj 4 48 tgl 10 0 \$1-stateitem-send \$1-stateitem-recv EOS 17 5
0 10 -262144 -1 -1 0 1;
#X text 338 149 item index number;
#X msg 292 305 symbol OBSongPlaylistItemClone-\$1;
#X obj 277 343 s;
#X obj 156 4 loadbang;
#X obj 156 25 \$1;
#X obj 228 103 +;
#X obj 228 60 *;
#X obj 228 81 t b f;
#X floatatom 204 158 5 0 0 0 iindex - -;
#X obj 292 7 r persongbank;
#X msg 156 46 \$1;
#X floatatom 292 28 5 0 0 0 - - -;
#X obj 217 7 r songbank;
#N canvas 906 143 270 354 SendSelectedIndexToClone 0;
#X obj 13 32 inlet;
#X obj 108 282 outlet;
#X obj 15 160 pack f f;
#X msg 15 135 0;
#X obj 15 184 unpack f f;
#X obj 74 223 t f;
#X obj 14 106 t f b;
#X floatatom 128 210 5 0 0 0 - - -;
#X connect 0 0 6 0;
#X connect 2 0 4 0;
#X connect 3 0 2 0;
#X connect 4 1 5 0;
#X connect 4 1 7 0;
#X connect 5 0 1 0;
#X connect 6 0 2 1;
#X connect 6 1 3 0;
#X restore 293 239 pd SendSelectedIndexToClone;
#X obj 312 207 s setindexnum;
#N canvas 951 43 296 389 RecieveBangThenApplyColor 0;
#X obj 76 205 until;
#X obj 76 228 f;
#X obj 106 228 + 1;
#X obj 76 159 t b b f;
#X obj 76 274 sel;
#X obj 19 34 t b;
#X obj 19 112 pack f f;
#X msg 19 53 0;
#X obj 19 132 unpack f f;
#X msg 116 205 0;
#X msg 76 183 17;
#X obj 76 316 s applyactivecolorchanges;
#X obj 91 359 s applydefaultcolorchanges;
#X obj 91 338 t b;
#X obj 76 296 t b;
#X obj 64 88 t f;
#X obj 76 251 t f f;
#X obj 121 181 s assignplaylistclonecolor;
#X obj 19 13 r \$1-songitembang;
#X obj 88 30 r \$1-songitembang2;
#X obj 88 49 r \$1-songitembang3;
#X obj 103 274 s bangedsongitemindex;
#X obj 64 66 r selsongcoloritem;
#X connect 0 0 1 0;
#X connect 1 0 2 0;
#X connect 1 0 16 0;
#X connect 2 0 1 1;
#X connect 3 0 10 0;
#X connect 3 1 9 0;
#X connect 3 2 4 1;
#X connect 3 2 17 0;
#X connect 4 0 14 0;
#X connect 4 1 13 0;
#X connect 5 0 7 0;
#X connect 6 0 8 0;
#X connect 7 0 6 0;
#X connect 8 1 3 0;
#X connect 9 0 1 1;
#X connect 10 0 0 0;
#X connect 13 0 12 0;
#X connect 14 0 11 0;
#X connect 15 0 6 1;
#X connect 16 0 4 0;
#X connect 16 1 21 0;
#X connect 18 0 5 0;
#X connect 19 0 5 0;
#X connect 20 0 5 0;
#X connect 22 0 15 0;
#X restore 776 63 pd RecieveBangThenApplyColor;
#N canvas 365 264 846 351 AssignColorSettings 0;
#X obj 451 250 list prepend \$0;
#X msg 451 295 \; \$2-songitem-recv color \$3;
#X msg 236 125 0;
#X obj 236 145 t f;
#X obj 209 104 t f b;
#X obj 293 208 t f;
#X msg 393 126 0;
#X obj 393 146 t f;
#X obj 366 103 t f b;
#X floatatom 366 63 5 0 0 0 - - -;
#X floatatom 209 64 5 0 0 0 - - -;
#X obj 366 42 r plcolor-send;
#X obj 209 83 int;
#X obj 366 82 int;
#X obj 181 41 t b;
#X obj 339 41 t b;
#X obj 181 22 r applyactivecolorchanges;
#X obj 339 22 r applydefaultcolorchanges;
#X obj 5 44 cnv 15 15 15 empty plcolor-recv Default 1 -7 0 10 -166441
-66577 0;
#X obj 104 44 cnv 15 15 15 empty playingcolor-recv Active 1 -7 0 10
-355 -66577 0;
#X obj 3 2 cnv 15 145 15 empty empty Assigned_Color_Settings 1 7 0
10 -262144 -1 0;
#X obj 48 15 cnv 15 60 15 empty empty Previews 1 7 0 10 -262144 -1
0;
#X obj 590 119 + 1;
#X floatatom 532 40 5 0 0 0 - - -;
#X obj 532 59 - 1;
#X obj 532 81 change;
#X obj 532 123 + 1;
#X floatatom 616 60 5 0 0 0 - - -;
#X obj 616 39 r songbank;
#X obj 616 80 * 16;
#X obj 616 99 + 1;
#X obj 532 145 t f b;
#X floatatom 532 168 5 0 0 0 - - -;
#X obj 532 188 - 1;
#X msg 532 209 \$1;
#X obj 451 272 list trim;
#X obj 451 206 t f;
#X obj 451 230 list prepend 0;
#X obj 236 188 unpack f f;
#X obj 236 167 pack f f;
#X obj 393 168 pack f f;
#X obj 393 188 unpack f f;
#X obj 532 18 t f;
#X obj 590 19 r bangedsongitemindex;
#X obj 209 44 r playingcolor-send;
#X obj 532 102 mod 17;
#X connect 0 0 35 0;
#X connect 2 0 3 0;
#X connect 3 0 39 0;
#X connect 4 0 39 1;
#X connect 4 1 2 0;
#X connect 5 0 37 0;
#X connect 6 0 7 0;
#X connect 7 0 40 0;
#X connect 8 0 40 1;
#X connect 8 1 6 0;
#X connect 9 0 13 0;
#X connect 10 0 12 0;
#X connect 11 0 9 0;
#X connect 12 0 4 0;
#X connect 13 0 8 0;
#X connect 14 0 2 0;
#X connect 15 0 6 0;
#X connect 16 0 14 0;
#X connect 17 0 15 0;
#X connect 22 0 42 0;
#X connect 23 0 24 0;
#X connect 24 0 25 0;
#X connect 25 0 45 0;
#X connect 26 0 31 0;
#X connect 27 0 29 0;
#X connect 28 0 27 0;
#X connect 29 0 30 0;
#X connect 30 0 22 1;
#X connect 31 0 32 0;
#X connect 32 0 33 0;
#X connect 33 0 34 0;
#X connect 34 0 37 1;
#X connect 35 0 1 0;
#X connect 36 0 37 0;
#X connect 37 0 0 0;
#X connect 38 1 5 0;
#X connect 39 0 38 0;
#X connect 40 0 41 0;
#X connect 41 1 36 0;
#X connect 42 0 23 0;
#X connect 43 0 22 0;
#X connect 44 0 10 0;
#X connect 45 0 26 0;
#X coords 0 -1 1 1 150 64 2 0 0;
#X restore 954 63 pd AssignColorSettings;
#X msg 555 240 patt \$1;
#X msg 613 241 reps \$1;
#X msg 669 241 state \$1;
#X obj 391 88 pack f f;
#X msg 391 66 0;
#X obj 391 108 unpack f f;
#X text 573 262 Modifiy Song item Values;
#X text 92 259 Get Song item Values;
#X obj 303 274 r assignplaylistclonecolor;
#X obj 293 183 t f f f f;
#X obj 227 126 t f b b b b f;
#X msg 502 241 ind \$1;
#X msg 43 240 get ind;
#X msg 96 240 get patt;
#X msg 154 240 get reps;
#X msg 215 240 get state;
#X obj 549 320 f;
#X floatatom 542 343 5 0 0 0 - - -;
#X obj 585 299 t b;
#X obj 598 158 f;
#X obj 59 104 t b;
#X floatatom 600 187 5 0 0 0 - - -;
#X obj 391 7 r \$1-songitembang;
#X obj 456 25 r \$1-songitembang2;
#X obj 468 50 r \$1-songitembang3;
#X obj 391 28 t b b;
#X obj 448 150 s selsongcoloritem;
#X connect 5 0 25 0;
#X connect 5 0 45 0;
#X connect 6 0 26 0;
#X connect 6 0 45 0;
#X connect 7 0 27 0;
#X connect 7 0 45 0;
#X connect 9 0 10 1;
#X connect 11 0 12 0;
#X connect 12 0 18 0;
#X connect 13 0 35 0;
#X connect 14 0 15 0;
#X connect 15 0 13 0;
#X connect 15 1 13 1;
#X connect 16 0 34 0;
#X connect 17 0 19 0;
#X connect 17 0 14 1;
#X connect 18 0 13 0;
#X connect 20 0 14 0;
#X connect 21 0 9 0;
#X connect 25 0 10 0;
#X connect 25 0 43 0;
#X connect 26 0 10 0;
#X connect 27 0 10 0;
#X connect 28 0 30 0;
#X connect 29 0 28 0;
#X connect 30 1 51 0;
#X connect 33 0 9 0;
#X connect 33 0 41 1;
#X connect 34 0 21 0;
#X connect 34 1 22 0;
#X connect 34 2 44 1;
#X connect 34 3 28 1;
#X connect 35 0 16 0;
#X connect 35 1 37 0;
#X connect 35 2 38 0;
#X connect 35 3 39 0;
#X connect 35 4 40 0;
#X connect 36 0 10 0;
#X connect 37 0 10 0;
#X connect 38 0 10 0;
#X connect 39 0 10 0;
#X connect 40 0 10 0;
#X connect 41 0 42 0;
#X connect 43 0 41 0;
#X connect 44 0 46 0;
#X connect 45 0 44 0;
#X connect 46 0 36 0;
#X connect 47 0 50 0;
#X connect 48 0 50 0;
#X connect 49 0 50 0;
#X connect 50 0 29 0;
#X connect 50 1 44 0;
#X coords 0 -1 1 1 62 62 2 0 0;
