#N canvas 615 445 764 387 10;
#X obj 2 3 bng 27 250 50 0 \$1-bang empty empty 17 7 0 10 -262144 -1
-1;
#X obj 40 19 bng 20 250 50 0 \$1-bang empty empty 17 7 0 10 -262144
-1 -1;
#X obj 40 39 bng 20 250 50 0 \$1-bang empty empty 17 7 0 10 -262144
-1 -1;
#X obj 1 1 cnv 15 60 60 empty empty empty 20 12 0 14 -1 -66577 0;
#X obj 2 2 cnv 15 58 58 empty \$1-songitem-recv empty 20 12 0 14 -44926
-66577 0;
#X obj 31 4 nbx 2 14 1 64 0 0 \$1-pattitem-send \$1-pattitem-recv Patt
-28 7 0 10 -262144 -1 -1 4 256;
#X obj 3 31 nbx 3 14 1 999 0 0 \$1-repsitem-send \$1-repsitem-recv
Reps 0 -8 0 10 -262144 -1 -1 1 256;
#X obj 4 48 tgl 10 0 \$1-stateitem-send \$1-stateitem-recv EOS 17 5
0 10 -262144 -1 -1 0 1;
#X text 338 149 item index number;
#X msg 292 305 symbol OBSongPlaylistItemClone-\$1;
#X obj 277 343 s;
#X obj 156 4 loadbang;
#X obj 156 25 \$1;
#X obj 228 103 +;
#X obj 217 28 *;
#X obj 217 49 t b f;
#X floatatom 204 158 5 0 0 0 iindex - -;
#X obj 292 7 r persongbank;
#X msg 156 46 \$1;
#X floatatom 292 28 5 0 0 0 - - -;
#X obj 217 7 r songbank;
#N canvas 906 143 270 354 SendSelectedIndexToClone 0;
#X obj 13 32 inlet;
#X obj 108 282 outlet;
#X obj 15 160 pack f f;
#X msg 15 135 0;
#X obj 15 184 unpack f f;
#X obj 74 223 t f;
#X obj 14 106 t f b;
#X connect 0 0 6 0;
#X connect 2 0 4 0;
#X connect 3 0 2 0;
#X connect 4 1 5 0;
#X connect 5 0 1 0;
#X connect 6 0 2 1;
#X connect 6 1 3 0;
#X restore 293 239 pd SendSelectedIndexToClone;
#X obj 312 207 s setindexnum;
#N canvas 951 43 296 389 RecieveBangThenApplyColor 0;
#X obj 76 205 until;
#X obj 76 228 f;
#X obj 106 228 + 1;
#X obj 76 159 t b b f;
#X obj 76 274 sel;
#X obj 19 34 t b;
#X obj 19 13 r \$1-bang;
#X obj 19 94 pack f f;
#X msg 19 53 0;
#X obj 19 114 unpack f f;
#X msg 116 205 0;
#X msg 76 183 17;
#X obj 64 48 r selsongitem;
#X obj 103 274 s bangedindex;
#X obj 76 316 s applyactivecolorchanges;
#X obj 91 359 s applydefaultcolorchanges;
#X obj 91 338 t b;
#X obj 76 296 t b;
#X obj 64 70 t f;
#X obj 76 251 t f f;
#X obj 121 181 s assignplaylistclonecolor;
#X connect 0 0 1 0;
#X connect 1 0 2 0;
#X connect 1 0 19 0;
#X connect 2 0 1 1;
#X connect 3 0 11 0;
#X connect 3 1 10 0;
#X connect 3 2 4 1;
#X connect 3 2 20 0;
#X connect 4 0 17 0;
#X connect 4 1 16 0;
#X connect 5 0 8 0;
#X connect 6 0 5 0;
#X connect 7 0 9 0;
#X connect 8 0 7 0;
#X connect 9 1 3 0;
#X connect 10 0 1 1;
#X connect 11 0 0 0;
#X connect 12 0 18 0;
#X connect 16 0 15 0;
#X connect 17 0 14 0;
#X connect 18 0 7 1;
#X connect 19 0 4 0;
#X connect 19 1 13 0;
#X restore 776 63 pd RecieveBangThenApplyColor;
#N canvas 148 186 951 449 AssignColorSettings 0;
#X obj 456 379 list prepend \$0;
#X msg 436 455 \; \$2-songitem-recv color \$3;
#X msg 194 101 0;
#X obj 194 121 t f;
#X obj 167 78 t f b;
#X obj 251 193 t f;
#X msg 393 99 0;
#X obj 393 119 t f;
#X obj 366 76 t f b;
#X floatatom 366 29 5 0 0 0 - - -;
#X floatatom 167 28 5 0 0 0 - - -;
#X obj 167 9 r aplcolor-send;
#X obj 368 7 r plcolor-send;
#X obj 493 60 r bangedindex;
#X obj 167 48 int;
#X obj 367 53 int;
#X obj 206 48 t b;
#X obj 405 49 t b;
#X obj 206 29 r applyactivecolorchanges;
#X obj 405 30 r applydefaultcolorchanges;
#X obj 5 44 cnv 15 15 15 empty plcolor-recv Default 1 -7 0 10 -166441
-66577 0;
#X obj 104 44 cnv 15 15 15 empty aplcolor-recv Active 1 -7 0 10 -44926
-66577 0;
#X obj 3 2 cnv 15 145 15 empty empty Assigned_Color_Settings 1 7 0
10 -262144 -1 0;
#X obj 48 15 cnv 15 60 15 empty empty Previews 1 7 0 10 -262144 -1
0;
#X obj 553 98 + 1;
#X floatatom 553 152 5 0 0 0 - - -;
#X obj 553 171 - 1;
#X obj 553 193 change;
#X obj 553 214 mod 16;
#X obj 553 235 + 1;
#X floatatom 579 39 5 0 0 0 - - -;
#X obj 579 18 r songbank;
#X obj 579 59 * 16;
#X obj 579 78 + 1;
#X obj 553 257 t f b;
#X obj 607 194 s nextpageitemtotal;
#X floatatom 553 280 5 0 0 0 - - -;
#X obj 607 152 - 1;
#X floatatom 622 174 5 0 0 0 - - -;
#X obj 553 300 - 1;
#X obj 565 125 t f f;
#X msg 553 321 \$1;
#X obj 452 419 list trim;
#X obj 444 195 t f;
#X obj 452 352 list prepend 0;
#X obj 196 165 unpack f f;
#X obj 194 143 pack f f;
#X obj 393 141 pack f f;
#X obj 391 165 unpack f f;
#X connect 0 0 42 0;
#X connect 2 0 3 0;
#X connect 3 0 46 0;
#X connect 4 0 46 1;
#X connect 4 1 2 0;
#X connect 5 0 44 0;
#X connect 6 0 7 0;
#X connect 7 0 47 0;
#X connect 8 0 47 1;
#X connect 8 1 6 0;
#X connect 9 0 15 0;
#X connect 10 0 14 0;
#X connect 11 0 10 0;
#X connect 12 0 9 0;
#X connect 13 0 24 0;
#X connect 14 0 4 0;
#X connect 15 0 8 0;
#X connect 16 0 2 0;
#X connect 17 0 6 0;
#X connect 18 0 16 0;
#X connect 19 0 17 0;
#X connect 24 0 40 0;
#X connect 25 0 26 0;
#X connect 26 0 27 0;
#X connect 27 0 28 0;
#X connect 28 0 29 0;
#X connect 29 0 34 0;
#X connect 30 0 32 0;
#X connect 31 0 30 0;
#X connect 32 0 33 0;
#X connect 33 0 24 1;
#X connect 34 0 36 0;
#X connect 36 0 39 0;
#X connect 37 0 35 0;
#X connect 37 0 38 0;
#X connect 39 0 41 0;
#X connect 40 0 25 0;
#X connect 40 1 37 0;
#X connect 41 0 44 1;
#X connect 42 0 1 0;
#X connect 43 0 44 0;
#X connect 44 0 0 0;
#X connect 45 1 5 0;
#X connect 46 0 45 0;
#X connect 47 0 48 0;
#X connect 48 1 43 0;
#X coords 0 -1 1 1 150 64 2 0 0;
#X restore 954 63 pd AssignColorSettings;
#X msg 555 240 patt \$1;
#X msg 613 241 reps \$1;
#X msg 669 241 state \$1;
#X obj 391 28 t b;
#X obj 391 7 r \$1-bang;
#X obj 391 88 pack f f;
#X msg 391 66 0;
#X obj 391 108 unpack f f;
#X obj 448 150 s selsongitem;
#X text 573 262 Modifiy Song item Values;
#X text 92 259 Get Song item Values;
#X obj 303 273 r assignplaylistclonecolor;
#X obj 293 183 t f f f f;
#X obj 227 126 t f b b b b f;
#X msg 502 241 ind \$1;
#X msg 43 240 get ind;
#X msg 96 240 get patt;
#X msg 154 240 get reps;
#X msg 215 240 get state;
#X obj 74 111 t f;
#X obj 101 91 t f;
#X obj 125 75 t f;
#X connect 5 0 44 0;
#X connect 6 0 45 0;
#X connect 7 0 46 0;
#X connect 9 0 10 1;
#X connect 11 0 12 0;
#X connect 12 0 18 0;
#X connect 13 0 38 0;
#X connect 14 0 15 0;
#X connect 15 0 13 0;
#X connect 15 1 13 1;
#X connect 16 0 37 0;
#X connect 17 0 19 0;
#X connect 17 0 14 1;
#X connect 18 0 13 0;
#X connect 20 0 14 0;
#X connect 21 0 9 0;
#X connect 25 0 10 0;
#X connect 26 0 10 0;
#X connect 27 0 10 0;
#X connect 28 0 31 0;
#X connect 29 0 28 0;
#X connect 30 0 32 0;
#X connect 31 0 30 0;
#X connect 32 1 33 0;
#X connect 36 0 9 0;
#X connect 37 0 21 0;
#X connect 37 1 22 0;
#X connect 37 2 39 0;
#X connect 37 3 30 1;
#X connect 38 0 16 0;
#X connect 38 1 40 0;
#X connect 38 2 41 0;
#X connect 38 3 42 0;
#X connect 38 4 43 0;
#X connect 39 0 10 0;
#X connect 40 0 10 0;
#X connect 41 0 10 0;
#X connect 42 0 10 0;
#X connect 43 0 10 0;
#X connect 44 0 25 0;
#X connect 45 0 26 0;
#X connect 46 0 27 0;
#X coords 0 -1 1 1 62 62 2 0 0;
