#N canvas 509 184 681 586 10;
#X obj 320 12 loadbang;
#X obj 319 47 \$1;
#X msg 310 82 \$1;
#X obj 162 180 hradio 10 1 0 3 empty empty empty 0 -8 0 10 -262144
-1 -1 1;
#X msg 162 155 0;
#X msg 197 155 1;
#X msg 231 156 2;
#X msg 138 253 0;
#X obj 138 231 t b;
#X msg 134 307 \$2;
#X floatatom 113 349 5 0 0 0 - - -;
#X obj 187 204 delay 10;
#X obj 214 33 inlet;
#X obj 107 368 outlet;
#X obj 139 279 pack \$1 \$2 \$3;
#X msg 182 310 \$3;
#X obj 232 335 symbol;
#X msg 265 282 symbol \$1-steptogglenum;
#X obj 210 367 s;
#X obj 124 326 t f b;
#X msg 228 315 bang;
#X floatatom 323 140 5 0 0 0 - - -;
#N canvas 417 85 450 300 OBVelSoft 0;
#X obj 91 63 \$1;
#X msg 92 87 \$1;
#X obj 73 18 inlet;
#X obj 152 30 loadbang;
#X obj 92 134 tgl 15 0 empty empty empty 17 7 0 10 -262144 -1 -1 0
1;
#X obj 1 1 bng 8 250 50 0 \$1-velsoft-send \$1-velsoft-recv empty 17
7 0 10 -90881 -1 -1;
#X obj 1 1 cnv 8 8 8 \$1-velsoft-send \$1-velsoft-recv empty 2 7 0
12 -90881 -1 0;
#X obj 42 197 t b;
#X obj 47 238 outlet;
#X connect 0 0 1 0;
#X connect 2 0 0 0;
#X connect 3 0 0 0;
#X connect 5 0 4 0;
#X connect 5 0 7 0;
#X connect 7 0 8 0;
#X coords 0 -1 1 1 10 10 2 0 0;
#X restore 1 1 pd OBVelSoft \$1;
#N canvas 142 51 450 300 OBVelMed 0;
#X obj 91 63 \$1;
#X msg 92 87 \$1;
#X obj 73 18 inlet;
#X obj 152 30 loadbang;
#X obj 0 0 bng 8 250 50 0 \$1-velmed-send \$1-velmed-recv empty 17
7 0 10 -260818 -1 -1;
#X obj 0 0 cnv 7 8 10 \$1-velmed-send \$1-velmed-recv empty 2 7 0 12
-260818 -1 0;
#X obj 57 184 t b;
#X obj 60 236 outlet;
#X obj 137 9 inlet;
#X connect 0 0 1 0;
#X connect 2 0 0 0;
#X connect 3 0 0 0;
#X connect 4 0 6 0;
#X connect 6 0 7 0;
#X connect 8 0 4 0;
#X coords 0 -1 1 1 8 11 2 0 0;
#X restore 64 22 pd OBVelMed \$1;
#N canvas 0 50 450 300 OBVelHard 0;
#X obj 91 63 \$1;
#X msg 92 87 \$1;
#X obj 73 18 inlet;
#X obj 152 30 loadbang;
#X obj 1 1 bng 8 250 50 0 empty empty empty 17 7 0 10 -258699 -1 -1
;
#X obj 1 1 cnv 8 8 8 \$1-velhard-send \$1-velhard-recv empty 2 7 0
12 -143491 -1 0;
#X obj 7 128 t b;
#X obj 24 168 outlet;
#X connect 0 0 1 0;
#X connect 2 0 0 0;
#X connect 3 0 0 0;
#X connect 4 0 6 0;
#X connect 6 0 7 0;
#X coords 0 -1 1 1 10 10 2 0 0;
#X restore 1 11 pd OBVelHard \$1;
#X obj 441 157 == 0;
#X obj 501 155 == 1;
#X obj 551 151 == 2;
#X obj 441 182 change;
#X obj 501 182 change;
#X obj 551 180 change;
#X obj 441 210 == 0;
#X obj 501 210 == 0;
#X obj 551 208 == 0;
#X obj 441 235 t b;
#X obj 501 235 t b;
#X obj 551 233 t b;
#X obj 472 45 inlet;
#X obj 543 91 r \$1-stepnoteVel;
#X floatatom 443 82 5 0 0 0 - - -;
#X obj 602 32 inlet;
#X obj 609 65 t b;
#X connect 0 0 1 0;
#X connect 1 0 2 0;
#X connect 2 0 21 0;
#X connect 3 0 8 0;
#X connect 3 0 11 0;
#X connect 3 0 14 1;
#X connect 4 0 3 0;
#X connect 5 0 3 0;
#X connect 6 0 3 0;
#X connect 7 0 14 0;
#X connect 8 0 7 0;
#X connect 9 0 19 0;
#X connect 10 0 13 0;
#X connect 11 0 8 0;
#X connect 12 0 2 0;
#X connect 14 0 9 0;
#X connect 14 0 15 0;
#X connect 15 0 18 0;
#X connect 16 0 18 1;
#X connect 17 0 16 1;
#X connect 19 0 10 0;
#X connect 19 1 20 0;
#X connect 20 0 16 0;
#X connect 21 0 17 0;
#X connect 21 0 14 2;
#X connect 22 0 4 0;
#X connect 23 0 5 0;
#X connect 24 0 6 0;
#X connect 25 0 28 0;
#X connect 26 0 29 0;
#X connect 27 0 30 0;
#X connect 28 0 31 0;
#X connect 29 0 32 0;
#X connect 30 0 33 0;
#X connect 31 0 34 0;
#X connect 32 0 35 0;
#X connect 33 0 36 0;
#X connect 34 0 4 0;
#X connect 35 0 5 0;
#X connect 36 0 6 0;
#X connect 37 0 39 0;
#X connect 39 0 25 0;
#X connect 39 0 26 0;
#X connect 39 0 27 0;
#X connect 40 0 41 0;
#X connect 41 0 23 1;
#X coords 0 -1 1 1 12 22 2 0 0;
