#N canvas -8 -8 1280 878 10;
#X obj 1 1 cnv 15 560 238 empty empty Sample_Editor 10 8 0 10 -162280
-1 0;
#X obj 9 16 cnv 15 543 215 empty empty empty 20 12 0 14 -191407 -66577
0;
#X obj -6 -69 bng 15 250 50 0 empty empty empty 17 7 0 10 -262144 -1
-1;
#X obj 480 142 vsl 9 80 0 1 0 0 empty empty empty 0 -9 0 10 -128992
-1 -1 6320 1;
#X obj 252 18 hsl 220 10 0 1 0 0 empty empty Play_Position 3 5 0 10
-1 -4032 -262144 0 1;
#X obj 494 141 vu 15 80 empty empty -1 -8 0 10 -66577 -1 1 0;
#X obj 494 26 vu 15 80 empty empty -1 -8 0 10 -66577 -1 1 0;
#X obj 480 25 vsl 9 80 0 1 0 0 empty empty empty 0 -9 0 10 -128992
-1 -1 6320 1;
#X obj 480 117 tgl 12 0 empty empty Lock 17 7 0 10 -228856 -1 -1 0.8
0.656769;
#X obj 540 24 vsl 9 200 0 1 0 0 empty empty empty 0 -9 0 10 -162280
-1 -1 15920 1;
#X obj 295 215 hsl 75 10 0 1 0 0 empty empty Pitch 1 5 0 10 -128992
-1 -262144 0 1;
#X obj 375 214 bng 12 250 50 0 empty empty empty -35 7 0 10 -191407
-1 -191407;
#X text -44 -84 Load a Sample;
#X obj 251 160 hsl 220 9 0.1 0.9 0 0 empty empty empty -2 -8 0 10 -1
-4034 -1 0 1;
#X obj 251 172 hsl 220 9 0.1 0.9 0 0 empty empty empty -2 -8 0 10 -1
-260097 -1 21900 1;
#X obj 157 -39 inlet;
#X obj 16 406 bng 15 250 50 0 empty empty empty 17 7 0 10 -262144 -1
-1;
#X text -4 387 Metronome;
#X obj 12 68 vsl 10 100 0.1 1 0 0 empty empty empty 0 -9 0 10 -128992
-1 -1 1900 1;
#X floatatom 439 481 5 0 0 0 - - -;
#X obj 18 448 outlet;
#N canvas 0 0 450 300 (subpatch) 0;
#X array TempSampleLeft 162624 float 2;
#X coords 0 1 162624 -1 200 140 1;
#X restore 595 63 graph;
#N canvas 0 0 450 300 (subpatch) 0;
#X array TempSampleRight 162624 float 2;
#X coords 0 1 162624 -1 200 140 1;
#X restore 847 70 graph;
#N canvas -8 -8 1276 686 TruncateAudioSelection 0;
#X obj 38 15 inlet~;
#X obj 188 10 inlet~;
#X text 36 -7 LeftIn;
#X text 184 -10 RightIn;
#N canvas 0 0 450 300 (subpatch) 0;
#X array TAudioL 264634 float 2;
#X coords 0 1 264634 -1 200 140 1;
#X restore 21 -159 graph;
#N canvas 0 0 450 300 (subpatch) 0;
#X array TAudioR 264634 float 2;
#X coords 0 1 264634 -1 200 140 1;
#X restore 248 -154 graph;
#X obj 34 61 tabwrite~ TAudioL;
#X obj 174 65 tabwrite~ TAudioR;
#X obj 1389 101 inlet;
#X obj 1251 102 inlet;
#X text 1248 84 startposition;
#X text 1382 83 endposition;
#X floatatom 1251 141 5 0 0 0 - - -;
#X floatatom 1389 138 20 0 0 0 - - -;
#X obj 1183 963 outlet;
#X text 1159 939 playbackQueue;
#X floatatom 688 138 20 0 0 0 - - -;
#X obj 672 201 expr 44100 / $f1;
#X floatatom 693 249 12 0 0 0 - - -;
#X obj 672 340 phasor~;
#X obj 672 368 *~;
#X obj 672 107 soundfiler;
#X floatatom 719 284 5 0 0 0 - - -;
#X obj 643 474 snapshot~;
#X floatatom 643 501 12 0 0 0 - - -;
#X obj 643 553 /;
#X obj 588 447 metro 50;
#X floatatom 643 585 5 0 0 0 - - -;
#X obj 738 368 r playbacksampleSize;
#X obj 706 164 s playbacksampleSize;
#X obj 668 526 r playbacksampleSize;
#X msg 549 569 0;
#X obj 643 643 change;
#X floatatom 685 601 7 0 0 0 - - -;
#X obj 1259 690 soundfiler;
#X floatatom 1259 722 20 0 0 0 - - -;
#X obj 643 695 sel 1;
#X floatatom 1251 180 5 0 0 0 - - -;
#X obj 643 614 >;
#X floatatom 1389 176 5 0 0 0 - - -;
#X floatatom 697 778 5 0 0 0 - - -;
#X obj 643 669 == 0;
#X obj 643 726 t b b;
#X obj 798 -117 outlet;
#X text 776 -136 newfile read out;
#X obj 672 396 tabread4~ TAudioL;
#X obj 691 431 tabread4~ TAudioR;
#X obj 102 -244 cnv 15 50 40 empty empty empty 20 12 0 14 -99865 -66577
0;
#X text 375 -255 Truncate Selection;
#X obj 119 -226 bng 15 250 50 0 empty empty Truncate -15 -8 0 10 -262144
-1 -262144;
#X obj 119 -292 inlet;
#X obj 1202 -154 inlet;
#X obj 610 -126 pack \$1 s;
#X symbolatom 650 -54 80 0 0 0 - - -;
#X msg 647 -82 symbol \$2;
#X obj 659 -226 t b b b;
#X msg 672 79 read -resize \$1 TAudioL TAudioR;
#X symbolatom 672 53 80 0 0 0 - - -;
#X msg 672 30 symbol \$1;
#X obj 670 831 pack \$1 s;
#X symbolatom 671 883 80 0 0 0 - - -;
#X msg 671 860 symbol \$2;
#X msg 697 751 100;
#X obj 670 802 delay;
#X msg 752 747 symbol Samples/Custom/tempTruncateSample.wav;
#X symbolatom 751 776 80 0 0 0 - - -;
#X obj 752 713 t b;
#X obj 751 801 t s;
#X obj 649 -25 t s s b b s, f 24;
#X obj 719 -2 t b b b;
#X msg 1192 496 \$2;
#X floatatom 1252 256 20 0 0 0 - - -;
#X obj 1251 204 t b f;
#X floatatom 1388 255 20 0 0 0 - - -;
#X obj 1389 201 t b f;
#X obj 1388 306 -;
#X floatatom 1388 339 20 0 0 0 - - -;
#X obj 1214 370 pack \$1 \$2 \$3;
#X msg 1253 406 \$3;
#X msg 1192 530 write -wave -skip \$1 Samples/Custom/tempTruncateSample.wav
TAudioL TAudioR;
#X floatatom 1253 431 20 0 0 0 - - -;
#X msg 1253 457 write -nframes \$1 Samples/Custom/tempTruncateSample.wav
TAudioL TAudioR;
#X obj 348 272 s status-recv;
#X msg 348 247 label Truncating_Audio._Please Wait;
#X obj 671 976 s status-recv;
#X obj 671 926 t b;
#X msg 671 951 label Ready;
#X obj 1251 235 * 100000;
#X obj 1389 229 * 100000;
#X text 1265 488 Set the legnth of frames for the new sample;
#X text 1202 561 Set the start position of the new sample using -skip
;
#X text 512 549 Stop Playback;
#X text 777 952 On completion trigger ready state then load to sample
editor via the playbackQueue outlet.;
#X connect 0 0 6 0;
#X connect 1 0 7 0;
#X connect 8 0 13 0;
#X connect 9 0 12 0;
#X connect 12 0 37 0;
#X connect 13 0 39 0;
#X connect 16 0 29 0;
#X connect 17 0 18 0;
#X connect 17 0 19 0;
#X connect 19 0 20 0;
#X connect 20 0 23 0;
#X connect 20 0 45 0;
#X connect 20 0 46 0;
#X connect 21 0 17 0;
#X connect 21 0 16 0;
#X connect 22 0 19 1;
#X connect 23 0 24 0;
#X connect 24 0 25 0;
#X connect 25 0 27 0;
#X connect 26 0 23 0;
#X connect 27 0 38 0;
#X connect 28 0 20 1;
#X connect 30 0 25 1;
#X connect 31 0 19 0;
#X connect 32 0 41 0;
#X connect 33 0 38 1;
#X connect 34 0 35 0;
#X connect 36 0 42 0;
#X connect 37 0 27 0;
#X connect 37 0 72 0;
#X connect 38 0 32 0;
#X connect 39 0 33 0;
#X connect 39 0 74 0;
#X connect 40 0 63 1;
#X connect 41 0 36 0;
#X connect 42 0 31 0;
#X connect 42 1 62 0;
#X connect 42 1 63 0;
#X connect 42 1 31 0;
#X connect 49 0 55 0;
#X connect 50 0 49 0;
#X connect 51 0 52 1;
#X connect 52 0 54 0;
#X connect 53 0 68 0;
#X connect 54 0 53 0;
#X connect 55 0 52 0;
#X connect 56 0 21 0;
#X connect 57 0 56 0;
#X connect 58 0 57 0;
#X connect 59 0 61 0;
#X connect 60 0 14 0;
#X connect 60 0 85 0;
#X connect 61 0 60 0;
#X connect 62 0 40 0;
#X connect 63 0 59 0;
#X connect 64 0 65 0;
#X connect 65 0 67 0;
#X connect 66 0 64 0;
#X connect 67 0 59 1;
#X connect 68 1 58 0;
#X connect 68 2 69 0;
#X connect 68 3 66 0;
#X connect 68 4 43 0;
#X connect 69 0 22 0;
#X connect 69 1 26 0;
#X connect 69 1 83 0;
#X connect 69 2 77 0;
#X connect 70 0 79 0;
#X connect 71 0 75 1;
#X connect 71 0 77 1;
#X connect 72 0 87 0;
#X connect 72 1 87 0;
#X connect 73 0 75 0;
#X connect 74 0 88 0;
#X connect 74 1 88 0;
#X connect 75 0 76 0;
#X connect 76 0 77 2;
#X connect 77 0 70 0;
#X connect 77 0 78 0;
#X connect 78 0 80 0;
#X connect 79 0 34 0;
#X connect 80 0 81 0;
#X connect 81 0 34 0;
#X connect 83 0 82 0;
#X connect 85 0 86 0;
#X connect 86 0 84 0;
#X connect 87 0 71 0;
#X connect 88 0 73 0;
#X coords 0 686 1 685 50 40 0;
#X restore 594 639 pd TruncateAudioSelection;
#X obj -278 377 tabwrite~ InputPreviewR;
#X obj -288 401 tabwrite~ InputPreviewL;
#X obj 591 579 tabread4~ channelL;
#X obj 619 604 tabread4~ channelR;
#X obj -222 244 bng 15 250 50 0 empty empty empty 17 7 0 10 -262144
-1 -1;
#X obj -224 268 float;
#X obj -239 300 +;
#X obj -247 177 bng 15 250 50 0 empty empty empty 17 7 0 10 -262144
-1 -1;
#X obj -246 200 float;
#X obj -259 225 +;
#X obj 26 56 cnv 15 100 50 empty empty empty 20 12 0 14 -162280 -66577
0;
#X obj 26 122 cnv 15 100 50 empty empty empty 20 12 0 14 -162280 -66577
0;
#N canvas 0 50 450 250 (subpatch) 0;
#X array InputPreviewL 60 float 3;
#A 0 0 0 0 0 0 0 0 0 0 0 0 0 0 0 0 0 0 0 0 0 0 0 0 0 0 0 0 0 0 0 0
0 0 0 0 0 0 0 0 0 0 0 0 0 0 0 0 0 0 0 0 0 0 0 0 0 0 0 0 0;
#X coords 0 1 60 -1 100 50 1 0 0;
#X restore 26 56 graph;
#N canvas 0 50 450 250 (subpatch) 0;
#X array InputPreviewR 60 float 3;
#A 0 0 0 0 0 0 0 0 0 0 0 0 0 0 0 0 0 0 0 0 0 0 0 0 0 0 0 0 0 0 0 0
0 0 0 0 0 0 0 0 0 0 0 0 0 0 0 0 0 0 0 0 0 0 0 0 0 0 0 0 0;
#X coords 0 1 60 -1 100 50 1 0 0;
#X restore 26 122 graph;
#X obj 249 44 cnv 15 226 48 empty empty empty 20 12 0 14 -162280 -66577
0;
#X obj 249 108 cnv 15 226 48 empty empty empty 20 12 0 14 -162280 -66577
0;
#N canvas 0 50 450 250 (subpatch) 0;
#X array channelR 475873 float 2;
#X coords 0 1 475873 -1 228 50 1 0 0;
#X restore 248 107 graph;
#N canvas 0 50 450 250 (subpatch) 0;
#X array channelL 475873 float 2;
#X coords 0 -1 475873 1 228 50 1 0 0;
#X restore 248 43 graph;
#X obj 134 104 hsl 50 10 0.001 1 0 0 empty empty Rough 3 5 0 10 -128992
-1 -262144 0 1;
#X obj 192 104 hsl 50 10 0.011 0.099 0 0 empty empty Fine 3 5 0 10
-128992 -1 -262144 0 1;
#X obj 134 135 hsl 50 10 0.1 1 0 0 empty empty Rough 3 5 0 10 -128992
-1 -262144 4900 1;
#X obj 192 135 hsl 50 10 0.011 0.099 0 0 empty empty Fine 3 5 0 10
-128992 -1 -262144 4900 1;
#X obj 574 -23 inlet;
#X obj 417 -107 loadbang;
#X msg 472 -59 1;
#X obj 795 311 tabwrite~ channelL;
#X obj 952 320 tabwrite~ channelR;
#X obj 976 250 inlet~;
#X obj 851 245 inlet~;
#N canvas -8 -8 1280 878 WaveSampleDetails 0;
#X obj 284 169 inlet;
#X obj 271 853 dac~ 1 2;
#X floatatom 305 293 20 0 0 0 - - -;
#X obj 316 328 s sampleSize;
#X obj 283 365 expr 44100 / $f1;
#X floatatom 447 443 12 0 0 0 - - -;
#X obj 280 510 phasor~;
#X obj 281 555 *~;
#X obj 313 537 r sampleSize;
#X obj 281 583 tabread4~ channelL;
#X obj 271 825 *~;
#X obj 318 825 *~;
#X obj 300 618 tabread4~ channelR;
#X obj 283 265 soundfiler;
#X obj 145 707 snapshot~;
#X floatatom 152 740 12 0 0 0 - - -;
#X obj 152 767 /;
#X obj 192 763 r sampleSize;
#X obj 486 500 hsl 128 15 0 1 0 0 empty empty empty -2 -8 0 10 -262144
-1 -1 0 1;
#X floatatom 500 617 12 0 0 0 - - -;
#X obj 166 339 t b b;
#X msg 180 414 0;
#X obj 213 283 t b b;
#X obj 152 168 inlet;
#X obj 214 166 inlet;
#X obj 48 165 inlet;
#X obj 97 166 inlet;
#X text 275 148 OpenFile;
#X text 140 146 Playback;
#X text 203 144 Continue;
#X text 46 142 Pause;
#X text 100 144 Stop;
#X text 341 779 channelLVol;
#X obj 360 801 inlet;
#X text 424 777 channelRVol;
#X obj 442 801 inlet;
#X text 490 146 Sample Pitch In;
#X obj 493 167 inlet;
#X obj 536 967 outlet;
#X text 533 942 Sample Pitch Out;
#X text 355 147 Sample Pitch Reset;
#X obj 358 165 inlet;
#X obj 785 190 inlet;
#X floatatom 327 451 5 0 0 0 - - -;
#X obj 347 905 env~;
#X obj 347 930 - 100;
#X obj 412 970 outlet;
#X obj 325 877 env~;
#X obj 364 875 - 100;
#X text 393 949 VU Meter Output R;
#X obj 408 926 outlet;
#X text 394 904 VU Meter Output L;
#X obj 162 659 metro 50;
#X obj 865 190 inlet;
#X obj 1007 195 inlet;
#X text 1005 176 Truncate read;
#X obj 1128 196 inlet;
#X msg 287 238 read -resize \$1 channelL channelR;
#X obj 1126 223 t s b;
#X msg 1127 251 open \$1 \, start;
#X msg 1136 304 read -resize \$1 channelL channelR;
#X obj 287 201 openpanel;
#X text 856 165 Import to sampler;
#X obj 1128 276 \$1;
#X obj 679 195 t b;
#X obj 126 863 s samplecurrpos;
#X obj 441 307 r newsamplesize;
#X obj 702 167 inlet;
#X obj 723 190 t b;
#X obj 745 166 inlet;
#X text 567 572 Pitch;
#X obj 68 804 spigot 0;
#X obj 122 778 tgl 15 0 empty empty empty 17 7 0 10 -262144 -1 -1 0
1;
#X obj 43 704 r stretchstate;
#X obj 43 729 change;
#X obj 42 750 == 0;
#X obj 671 418 spigot 0;
#X obj 725 392 tgl 15 0 empty empty empty 17 7 0 10 -262144 -1 -1 0
1;
#X obj 728 318 r stretchstate;
#X obj 728 343 change;
#X obj 727 364 == 0;
#X obj 812 684 outlet;
#X obj 1261 388 savepanel;
#X msg 1261 423 write -wave \$1 channelL channelR;
#X obj 1261 204 inlet;
#X obj 116 618 line~;
#X connect 0 0 61 0;
#X connect 2 0 3 0;
#X connect 4 0 5 0;
#X connect 4 0 6 0;
#X connect 4 0 85 0;
#X connect 5 0 18 0;
#X connect 5 0 38 0;
#X connect 6 0 7 0;
#X connect 7 0 9 0;
#X connect 7 0 12 0;
#X connect 7 0 14 0;
#X connect 8 0 7 1;
#X connect 9 0 10 0;
#X connect 10 0 1 0;
#X connect 10 0 47 0;
#X connect 11 0 1 1;
#X connect 11 0 44 0;
#X connect 12 0 11 0;
#X connect 13 0 2 0;
#X connect 13 0 4 0;
#X connect 14 0 15 0;
#X connect 15 0 16 0;
#X connect 16 0 71 0;
#X connect 17 0 16 1;
#X connect 18 0 19 0;
#X connect 19 0 6 0;
#X connect 20 0 43 0;
#X connect 20 1 21 0;
#X connect 21 0 6 0;
#X connect 22 0 43 0;
#X connect 22 1 18 0;
#X connect 22 1 52 0;
#X connect 23 0 22 0;
#X connect 24 0 5 0;
#X connect 25 0 21 0;
#X connect 26 0 20 0;
#X connect 33 0 10 1;
#X connect 35 0 11 1;
#X connect 37 0 18 0;
#X connect 41 0 5 0;
#X connect 42 0 43 0;
#X connect 43 0 6 1;
#X connect 44 0 45 0;
#X connect 45 0 46 0;
#X connect 47 0 48 0;
#X connect 48 0 50 0;
#X connect 52 0 14 0;
#X connect 53 0 57 0;
#X connect 54 0 57 0;
#X connect 54 0 21 0;
#X connect 56 0 58 0;
#X connect 57 0 13 0;
#X connect 58 0 59 0;
#X connect 59 0 63 0;
#X connect 60 0 13 0;
#X connect 61 0 57 0;
#X connect 61 0 81 0;
#X connect 63 0 60 0;
#X connect 64 0 21 0;
#X connect 64 0 20 0;
#X connect 66 0 3 0;
#X connect 67 0 64 0;
#X connect 68 0 20 0;
#X connect 68 0 76 0;
#X connect 69 0 68 0;
#X connect 71 0 65 0;
#X connect 72 0 71 1;
#X connect 73 0 74 0;
#X connect 74 0 75 0;
#X connect 75 0 72 0;
#X connect 76 0 22 0;
#X connect 77 0 76 1;
#X connect 78 0 79 0;
#X connect 79 0 80 0;
#X connect 80 0 77 0;
#X connect 82 0 83 0;
#X connect 83 0 13 0;
#X connect 84 0 82 0;
#X connect 85 0 14 0;
#X coords 0 878 1 877 400 400 0;
#X restore -343 760 pd WaveSampleDetails;
#X f 148;
#X msg 431 -58 0;
#X msg 359 -59 0.099;
#X obj 173 213 tgl 12 0 empty empty Loop 17 7 0 8 -162280 -1 -1 0 1
;
#X obj 215 213 tgl 12 0 empty empty Time_Strech 17 7 0 8 -162280 -1
-1 0 1;
#X obj 147 87 cnv 15 4 10 empty empty Start_Position 1 6 0 9 -191407
-1 0;
#N canvas 1113 541 551 362 FindStartEndPosition 0;
#X obj 124 49 inlet startpos;
#X obj 224 48 inlet endpos;
#X obj 48 268 outlet;
#X obj 98 268 outlet;
#X obj 148 268 outlet;
#X obj 273 310 outlet;
#X floatatom 130 98 12 0 0 0 - - -;
#X floatatom 223 102 5 0 0 0 - - -;
#X obj 286 223 sel 1;
#X obj 273 284 bng 15 250 50 0 empty empty empty 17 7 0 10 -262144
-1 -1;
#X obj 287 158 change;
#X obj 326 49 inlet doloop;
#X obj 282 253 spigot 0;
#X obj 329 230 tgl 15 0 empty empty empty 17 7 0 10 -262144 -1 -1 0
1;
#X obj 285 133 >=;
#X floatatom 427 82 5 0 0 0 - - -;
#X obj 289 188 == 1;
#X obj 337 98 change;
#X obj 338 148 == 0;
#X floatatom 336 124 5 0 0 0 - - -;
#X msg 332 201 \$1;
#X obj 336 173 t f;
#X obj 410 29 r samplecurrpos;
#X obj 449 272 spigot 0;
#X obj 496 249 tgl 15 0 empty empty empty 17 7 0 10 -262144 -1 -1 0
1;
#X msg 499 220 \$1;
#X obj 503 192 t f;
#X obj 505 167 == 1;
#X obj 443 242 sel 1;
#X obj 444 177 change;
#X obj 446 207 == 1;
#X obj 426 321 outlet;
#X obj 426 295 bng 15 250 50 0 empty empty empty 17 7 0 10 -262144
-1 -1;
#X connect 0 0 6 0;
#X connect 1 0 7 0;
#X connect 6 0 3 0;
#X connect 6 0 2 0;
#X connect 7 0 4 0;
#X connect 7 0 14 1;
#X connect 8 0 12 0;
#X connect 9 0 5 0;
#X connect 10 0 16 0;
#X connect 11 0 17 0;
#X connect 12 0 9 0;
#X connect 13 0 12 1;
#X connect 14 0 10 0;
#X connect 14 0 29 0;
#X connect 15 0 14 0;
#X connect 16 0 8 0;
#X connect 17 0 19 0;
#X connect 18 0 21 0;
#X connect 19 0 18 0;
#X connect 19 0 27 0;
#X connect 20 0 13 0;
#X connect 21 0 20 0;
#X connect 22 0 15 0;
#X connect 23 0 32 0;
#X connect 24 0 23 1;
#X connect 25 0 24 0;
#X connect 26 0 25 0;
#X connect 27 0 26 0;
#X connect 28 0 23 0;
#X connect 29 0 30 0;
#X connect 30 0 28 0;
#X connect 32 0 31 0;
#X restore 678 537 pd FindStartEndPosition;
#X obj 778 578 t b;
#X floatatom 228 -35 5 0 0 0 - - -;
#X obj 225 -63 r samplecurrpos;
#X msg 522 393 0;
#X floatatom 785 424 10 0 0 0 - - -;
#X obj 644 315 s stretchstate;
#X text 858 422 Sample Rate;
#X msg 774 359 0;
#X text 804 352 This will be remove once problem with looping stretched
audio is solved;
#X msg 785 464 play 0 channelR \$1 105 0 250 10;
#X msg 716 694 0.001;
#X msg 741 670 0.99;
#X msg 804 492 play 0 channelL \$1 105 0 250 10;
#X msg 2 -35 0.8;
#N canvas 157 185 450 300 LoadWaveToSampler_Btn 0;
#X floatatom 285 74 5 0 0 0 - - -;
#X obj 226 -10 loadbang;
#X msg 280 158 0;
#X text 281 137 black;
#X obj 156 188 outlet;
#X text 158 210 bang;
#X msg 283 113 10;
#X text 282 93 grey;
#X obj 78 -28 inlet;
#X obj 1 1 OBBang 26 110 17;
#X msg 284 23 symbol Load_Sample;
#X msg 285 49 10;
#X connect 0 0 9 1;
#X connect 1 0 11 0;
#X connect 1 0 10 0;
#X connect 1 0 6 0;
#X connect 1 0 2 0;
#X connect 2 0 9 4;
#X connect 6 0 9 3;
#X connect 8 0 9 2;
#X connect 9 0 4 0;
#X connect 10 0 9 0;
#X connect 11 0 0 0;
#X coords 0 -1 1 1 112 19 2 0 0;
#X restore 14 21 pd LoadWaveToSampler_Btn;
#N canvas 0 50 450 300 ImporttoSampler_Btn 0;
#X obj 1 1 ObBang 30 150 17;
#X floatatom 285 74 5 0 0 0 - - -;
#X obj 226 -10 loadbang;
#X msg 280 158 0;
#X text 281 137 black;
#X obj 9 50 outlet;
#X text 11 72 bang;
#X msg 283 113 10;
#X text 282 93 grey;
#X obj 78 -28 inlet;
#X msg 284 23 symbol Import_to_Sampler;
#X msg 285 49 8;
#X connect 0 0 5 0;
#X connect 1 0 0 1;
#X connect 2 0 11 0;
#X connect 2 0 10 0;
#X connect 2 0 7 0;
#X connect 2 0 3 0;
#X connect 3 0 0 4;
#X connect 7 0 0 3;
#X connect 9 0 0 2;
#X connect 10 0 0 0;
#X connect 11 0 1 0;
#X coords 0 -1 1 1 152 19 2 0 0;
#X restore 11 177 pd ImporttoSampler_Btn;
#N canvas 0 50 450 300 PlayInput_Btn 0;
#X obj 1 1 OBBang 29 40 17;
#X floatatom 285 74 5 0 0 0 - - -;
#X obj 226 -10 loadbang;
#X msg 280 158 0;
#X text 281 137 black;
#X obj 156 188 outlet;
#X text 158 210 bang;
#X obj 78 -28 inlet;
#X msg 285 49 5;
#X text 282 93 yellow;
#X msg 283 113 296;
#X msg 284 23 symbol Play;
#X connect 0 0 5 0;
#X connect 1 0 0 1;
#X connect 2 0 8 0;
#X connect 2 0 11 0;
#X connect 2 0 10 0;
#X connect 2 0 3 0;
#X connect 3 0 0 4;
#X connect 7 0 0 2;
#X connect 8 0 1 0;
#X connect 10 0 0 3;
#X connect 11 0 0 0;
#X coords 0 -1 1 1 42 19 2 0 0;
#X restore 166 62 pd PlayInput_Btn;
#N canvas 0 50 450 300 SamplertoWaveExport_Btn 0;
#X floatatom 285 74 5 0 0 0 - - -;
#X obj 226 -10 loadbang;
#X msg 280 158 0;
#X text 281 137 black;
#X obj 156 188 outlet;
#X text 158 210 bang;
#X obj 78 -28 inlet;
#X text 282 93 yellow;
#X obj 1 1 OBBang 31 130 17;
#X msg 284 23 symbol Export_as_Wave;
#X msg 283 113 10;
#X msg 285 49 10;
#X connect 0 0 8 1;
#X connect 1 0 11 0;
#X connect 1 0 9 0;
#X connect 1 0 10 0;
#X connect 1 0 2 0;
#X connect 2 0 8 4;
#X connect 6 0 8 2;
#X connect 8 0 4 0;
#X connect 9 0 8 0;
#X connect 10 0 8 3;
#X connect 11 0 0 0;
#X coords 0 -1 1 1 132 19 2 0 0;
#X restore 10 210 pd SamplertoWaveExport_Btn;
#N canvas 0 50 450 300 PlaySampelr_Btn 0;
#X obj 1 1 OBBang 32 40 17;
#X floatatom 285 74 5 0 0 0 - - -;
#X obj 226 -10 loadbang;
#X msg 280 158 0;
#X text 281 137 black;
#X obj 156 188 outlet;
#X text 158 210 bang;
#X obj 78 -28 inlet;
#X text 282 93 yellow;
#X msg 284 23 symbol Play;
#X msg 285 49 5;
#X msg 283 113 296;
#X connect 0 0 5 0;
#X connect 1 0 0 1;
#X connect 2 0 10 0;
#X connect 2 0 9 0;
#X connect 2 0 11 0;
#X connect 2 0 3 0;
#X connect 3 0 0 4;
#X connect 7 0 0 2;
#X connect 9 0 0 0;
#X connect 10 0 1 0;
#X connect 11 0 0 3;
#X coords 0 -1 1 1 42 19 2 0 0;
#X restore 251 185 pd PlaySampelr_Btn;
#N canvas -8 -8 1280 878 ContinueSampler_btn 0;
#X obj 1 1 OBBang 33 70 17;
#X floatatom 285 74 5 0 0 0 - - -;
#X obj 226 -10 loadbang;
#X msg 280 158 0;
#X text 281 137 black;
#X obj 156 188 outlet;
#X text 158 210 bang;
#X obj 78 -28 inlet;
#X text 282 93 yellow;
#X msg 284 23 symbol Continue;
#X msg 283 113 18;
#X msg 285 49 4;
#X connect 0 0 5 0;
#X connect 1 0 0 1;
#X connect 2 0 11 0;
#X connect 2 0 9 0;
#X connect 2 0 10 0;
#X connect 2 0 3 0;
#X connect 3 0 0 4;
#X connect 7 0 0 2;
#X connect 9 0 0 0;
#X connect 10 0 0 3;
#X connect 11 0 1 0;
#X coords 0 -1 1 1 72 19 2 0 0;
#X restore 297 185 pd ContinueSampler_btn;
#N canvas 0 50 501 373 PauseSampler_Btn 0;
#X obj 1 1 OBBang 34 50 17;
#X floatatom 285 74 5 0 0 0 - - -;
#X obj 226 -10 loadbang;
#X msg 281 158 0;
#X text 281 137 black;
#X obj 156 188 outlet;
#X text 158 210 bang;
#X obj 78 -28 inlet;
#X msg 284 23 symbol Pause;
#X msg 283 113 74;
#X msg 285 49 5;
#X text 282 93 orangeish;
#X connect 0 0 5 0;
#X connect 1 0 0 1;
#X connect 2 0 10 0;
#X connect 2 0 8 0;
#X connect 2 0 9 0;
#X connect 2 0 3 0;
#X connect 3 0 0 4;
#X connect 7 0 0 2;
#X connect 8 0 0 0;
#X connect 9 0 0 3;
#X connect 10 0 1 0;
#X coords 0 -1 1 1 52 19 2 0 0;
#X restore 373 185 pd PauseSampler_Btn;
#N canvas 0 50 450 300 StopInput_Btn 0;
#X obj 1 1 OBBang 28 40 17;
#X floatatom 285 74 5 0 0 0 - - -;
#X obj 226 -10 loadbang;
#X msg 280 158 0;
#X text 281 137 black;
#X obj 156 188 outlet;
#X text 158 210 bang;
#X obj 78 -28 inlet;
#X msg 284 23 symbol Stop;
#X msg 283 113 315;
#X msg 285 49 5;
#X text 282 93 yellow;
#X connect 0 0 5 0;
#X connect 1 0 0 1;
#X connect 2 0 10 0;
#X connect 2 0 8 0;
#X connect 2 0 9 0;
#X connect 2 0 3 0;
#X connect 3 0 0 4;
#X connect 7 0 0 2;
#X connect 8 0 0 0;
#X connect 9 0 0 3;
#X connect 10 0 1 0;
#X coords 0 -1 1 1 42 19 2 0 0;
#X restore 192 38 pd StopInput_Btn;
#N canvas 0 50 450 300 RecInput_Btn 0;
#X obj 1 1 OBBang 27 40 17;
#X floatatom 285 74 5 0 0 0 - - -;
#X obj 226 -10 loadbang;
#X msg 280 158 0;
#X text 281 137 black;
#X obj 9 50 outlet;
#X text 11 72 bang;
#X text 282 93 grey;
#X obj 78 -28 inlet;
#X msg 284 23 symbol Rec;
#X msg 283 113 323;
#X msg 285 49 6;
#X connect 0 0 5 0;
#X connect 1 0 0 1;
#X connect 2 0 11 0;
#X connect 2 0 9 0;
#X connect 2 0 10 0;
#X connect 2 0 3 0;
#X connect 3 0 0 4;
#X connect 8 0 0 2;
#X connect 9 0 0 0;
#X connect 10 0 0 3;
#X connect 11 0 1 0;
#X coords 0 -1 1 1 42 19 2 0 0;
#X restore 137 39 pd RecInput_Btn;
#N canvas 0 50 450 300 StopSampler_Btn 0;
#X obj 1 1 OBBang 35 40 17;
#X floatatom 285 74 5 0 0 0 - - -;
#X obj 226 -10 loadbang;
#X msg 281 158 0;
#X text 281 137 black;
#X obj 156 188 outlet;
#X text 158 210 bang;
#X obj 78 -28 inlet;
#X msg 283 113 315;
#X text 282 93 yellow;
#X msg 284 23 symbol Stop;
#X msg 285 49 5;
#X connect 0 0 5 0;
#X connect 1 0 0 1;
#X connect 2 0 11 0;
#X connect 2 0 10 0;
#X connect 2 0 8 0;
#X connect 2 0 3 0;
#X connect 3 0 0 4;
#X connect 7 0 0 2;
#X connect 8 0 0 3;
#X connect 10 0 0 0;
#X connect 11 0 1 0;
#X coords 0 -1 1 1 42 19 2 0 0;
#X restore 428 185 pd StopSampler_Btn;
#N canvas 0 50 450 300 Trunc_Btn 0;
#X obj 1 1 OBBang 36 70 17;
#X floatatom 285 74 5 0 0 0 - - -;
#X obj 226 -10 loadbang;
#X msg 281 158 0;
#X text 281 137 black;
#X obj 156 188 outlet;
#X text 158 210 bang;
#X obj 78 -28 inlet;
#X text 282 93 yellow;
#X msg 284 23 symbol Truncate;
#X msg 284 113 10;
#X msg 285 49 4;
#X connect 0 0 5 0;
#X connect 1 0 0 1;
#X connect 2 0 11 0;
#X connect 2 0 9 0;
#X connect 2 0 10 0;
#X connect 2 0 3 0;
#X connect 3 0 0 4;
#X connect 7 0 0 2;
#X connect 9 0 0 0;
#X connect 10 0 0 3;
#X connect 11 0 1 0;
#X coords 0 -1 1 1 72 19 2 0 0;
#X restore 398 210 pd Trunc_Btn;
#X msg -40 -35 0.98;
#X msg 40 -32 0.101;
#N canvas -8 -8 1366 686 OBInputRecorderToSampler 0;
#X obj 116 656 dac~ 1 2;
#X floatatom 139 267 20 0 0 0 - - -;
#X obj 124 330 expr 44100 / $f1;
#X floatatom 152 359 12 0 0 0 - - -;
#X obj 120 470 phasor~;
#X obj 120 498 *~;
#X obj 116 628 *~;
#X obj 163 628 *~;
#X obj 123 236 soundfiler;
#X obj 138 383 t b b;
#X text 186 582 channelLVol;
#X obj 205 604 inlet;
#X text 269 580 channelRVol;
#X obj 287 604 inlet;
#X floatatom 139 411 5 0 0 0 - - -;
#X obj 256 397 snapshot~;
#X floatatom 256 424 12 0 0 0 - - -;
#X obj 333 464 /;
#X obj 256 369 metro 50;
#X floatatom 365 490 5 0 0 0 - - -;
#X obj 186 478 r playbacksampleSize;
#X obj 157 293 s playbacksampleSize;
#X obj 429 432 r playbacksampleSize;
#X obj 132 146 bng 15 250 50 0 empty empty empty 17 7 0 10 -262144
-1 -1;
#X msg 65 450 0;
#X obj 364 540 change;
#X floatatom 52 410 12 0 0 0 - - -;
#X floatatom 420 489 7 0 0 0 - - -;
#X obj 213 712 soundfiler;
#X msg 123 200 read -resize Samples/Custom/tempSample.wav TempSampleLeft
TempSampleRight;
#X obj 139 561 tabread4~ TempSampleRight;
#X obj 120 526 tabread4~ TempSampleLeft;
#X obj 367 585 sel 1;
#X floatatom 365 436 5 0 0 0 - - -;
#X obj 365 518 >;
#X floatatom 420 459 5 0 0 0 - - -;
#X floatatom 403 69 5 0 0 0 - - -;
#X obj 169 127 savepanel;
#X msg 122 175 open Samples/Custom/tempSample.wav \, 1;
#X msg 187 683 write -wave \$1 TempSampleLeft TempSampleRight;
#X obj 366 564 == 0;
#X obj 354 633 t b b;
#X msg 376 141 open \$1 \, 1;
#X obj 93 31 inlet;
#X obj 86 764 outlet;
#X obj 204 763 outlet;
#X obj 596 102 inlet;
#X obj 45 248 delay 10;
#X obj 40 297 t b;
#X obj 383 108 delay 1000;
#X connect 1 0 21 0;
#X connect 2 0 3 0;
#X connect 2 0 4 0;
#X connect 4 0 5 0;
#X connect 5 0 15 0;
#X connect 5 0 30 0;
#X connect 5 0 31 0;
#X connect 6 0 0 0;
#X connect 7 0 0 1;
#X connect 8 0 2 0;
#X connect 8 0 1 0;
#X connect 9 0 14 0;
#X connect 9 1 18 0;
#X connect 11 0 6 1;
#X connect 13 0 7 1;
#X connect 14 0 4 1;
#X connect 15 0 16 0;
#X connect 16 0 17 0;
#X connect 17 0 19 0;
#X connect 18 0 15 0;
#X connect 19 0 34 0;
#X connect 20 0 5 1;
#X connect 22 0 17 1;
#X connect 23 0 38 0;
#X connect 23 0 33 0;
#X connect 23 0 35 0;
#X connect 23 0 47 0;
#X connect 24 0 4 0;
#X connect 25 0 40 0;
#X connect 26 0 4 0;
#X connect 27 0 34 1;
#X connect 29 0 8 0;
#X connect 30 0 7 0;
#X connect 31 0 6 0;
#X connect 32 0 41 0;
#X connect 33 0 19 0;
#X connect 34 0 25 0;
#X connect 35 0 27 0;
#X connect 36 0 49 1;
#X connect 37 0 39 0;
#X connect 37 0 42 0;
#X connect 37 0 44 0;
#X connect 38 0 29 0;
#X connect 39 0 28 0;
#X connect 40 0 32 0;
#X connect 41 0 24 0;
#X connect 41 0 39 0;
#X connect 41 1 49 0;
#X connect 42 0 45 0;
#X connect 43 0 37 0;
#X connect 43 0 23 0;
#X connect 46 0 24 0;
#X connect 47 0 48 0;
#X connect 48 0 24 0;
#X connect 49 0 42 0;
#X restore -291 93 pd OBInputRecorderToSampler;
#N canvas -8 -8 1366 686 OBInputRecroderCntrl 0;
#X text 16 58 Sample Recorder;
#X obj 20 154 bng 15 250 50 0 empty empty empty 17 7 0 10 -262144 -1
-1;
#X obj 20 187 metro 100;
#X obj 19 114 outlet~;
#X msg 256 151 stop;
#X obj 105 223 inlet;
#X obj 62 243 *~ \$1;
#X obj 20 85 tabread~ InputPreviewL;
#X obj 112 104 tabread~ InputPreviewR;
#X obj 194 298 tabwrite~ InputPreviewR;
#X obj 21 292 tabwrite~ InputPreviewL;
#X obj 445 236 readsf~ 2;
#X obj 438 294 dac~ 1 2;
#X obj 148 229 inlet;
#X obj 105 249 *~ \$1;
#X msg 140 192 open Samples/Custom/tempSample.wav \, start;
#X msg 442 207 open Samples/Custom/tempSample.wav \, start;
#X obj 207 266 writesf~ 2;
#X obj 77 184 adc~;
#X obj 386 28 inlet play;
#X obj 298 29 inlet stop;
#X obj 232 27 inlet rec;
#X connect 1 0 2 0;
#X connect 2 0 10 0;
#X connect 2 0 9 0;
#X connect 4 0 11 0;
#X connect 4 0 17 0;
#X connect 5 0 6 1;
#X connect 6 0 10 0;
#X connect 6 0 17 0;
#X connect 7 0 3 0;
#X connect 8 0 3 0;
#X connect 11 0 12 0;
#X connect 11 1 12 1;
#X connect 13 0 14 1;
#X connect 14 0 9 0;
#X connect 14 0 17 1;
#X connect 15 0 17 0;
#X connect 16 0 11 0;
#X connect 18 0 6 0;
#X connect 18 0 14 0;
#X connect 19 0 16 0;
#X connect 20 0 4 0;
#X connect 21 0 15 0;
#X connect 21 0 1 0;
#X restore -281 352 pd OBInputRecroderCntrl;
#N canvas 0 50 799 501 OBTimeStrech 0;
#X obj 131 106 timeStretch~;
#X msg 24 81 stop 0;
#X obj 131 316 *~;
#X obj 123 345 dac~;
#X floatatom 146 206 5 0 148 1 dB - -;
#X obj 146 234 dbtorms;
#X obj 146 256 pack f 40;
#X obj 146 278 line~;
#X obj 146 162 loadbang;
#X msg 146 183 90;
#N canvas 326 152 657 751 playpos 0;
#X obj 88 93 hsl 64 10 0 100 0 0 empty empty empty -2 -8 0 10 -262144
-1 -1 0 1;
#X obj 88 113 hsl 64 10 0 100 0 0 empty empty empty -2 -8 0 10 -262144
-1 -1 0 1;
#X obj 88 133 hsl 64 10 0 100 0 0 empty empty empty -2 -8 0 10 -262144
-1 -1 0 1;
#X obj 88 153 hsl 64 10 0 100 0 0 empty empty empty -2 -8 0 10 -262144
-1 -1 0 1;
#X obj 88 173 hsl 64 10 0 100 0 0 empty empty empty -2 -8 0 10 -262144
-1 -1 0 1;
#X obj 88 193 hsl 64 10 0 100 0 0 empty empty empty -2 -8 0 10 -262144
-1 -1 0 1;
#X obj 88 213 hsl 64 10 0 100 0 0 empty empty empty -2 -8 0 10 -262144
-1 -1 0 1;
#X obj 88 233 hsl 64 10 0 100 0 0 empty empty empty -2 -8 0 10 -262144
-1 -1 0 1;
#X obj 188 93 hsl 64 10 0 100 0 0 empty empty empty -2 -8 0 10 -262144
-1 -1 0 1;
#X obj 188 113 hsl 64 10 0 100 0 0 empty empty empty -2 -8 0 10 -262144
-1 -1 0 1;
#X obj 188 133 hsl 64 10 0 100 0 0 empty empty empty -2 -8 0 10 -262144
-1 -1 0 1;
#X obj 188 153 hsl 64 10 0 100 0 0 empty empty empty -2 -8 0 10 -262144
-1 -1 0 1;
#X obj 188 173 hsl 64 10 0 100 0 0 empty empty empty -2 -8 0 10 -262144
-1 -1 0 1;
#X obj 188 193 hsl 64 10 0 100 0 0 empty empty empty -2 -8 0 10 -262144
-1 -1 0 1;
#X obj 188 213 hsl 64 10 0 100 0 0 empty empty empty -2 -8 0 10 -262144
-1 -1 0 1;
#X obj 188 233 hsl 64 10 0 100 0 0 empty empty empty -2 -8 0 10 -262144
-1 -1 0 1;
#X obj 364 19 inlet;
#X obj 364 40 route 0 1 2 3 4 5 6 7;
#X obj 524 40 route 8 9 10 11 12 13 14 15;
#X obj 364 61 unpack f f f;
#X obj 374 81 unpack f f f;
#X obj 384 101 unpack f f f;
#X obj 394 121 unpack f f f;
#X obj 404 141 unpack f f f;
#X obj 414 161 unpack f f f;
#X obj 424 181 unpack f f f;
#X obj 434 201 unpack f f f;
#X obj 524 61 unpack f f f;
#X obj 534 81 unpack f f f;
#X obj 544 101 unpack f f f;
#X obj 554 121 unpack f f f;
#X obj 564 141 unpack f f f;
#X obj 574 161 unpack f f f;
#X obj 584 181 unpack f f f;
#X obj 594 201 unpack f f f;
#X obj 244 462 s samplecurrpos;
#X floatatom 243 366 5 0 0 0 - - -;
#X obj 245 341 / 100;
#X obj 253 401 spigot 0;
#X obj 307 375 tgl 15 0 empty empty empty 17 7 0 10 -262144 -1 -1 0
1;
#X obj 308 300 r stretchstate;
#X obj 308 325 change;
#X obj 307 346 == 1;
#X connect 0 0 37 0;
#X connect 16 0 17 0;
#X connect 17 0 19 0;
#X connect 17 1 20 0;
#X connect 17 2 21 0;
#X connect 17 3 22 0;
#X connect 17 4 23 0;
#X connect 17 5 24 0;
#X connect 17 6 25 0;
#X connect 17 7 26 0;
#X connect 17 8 18 0;
#X connect 18 0 27 0;
#X connect 18 1 28 0;
#X connect 18 2 29 0;
#X connect 18 3 30 0;
#X connect 18 4 31 0;
#X connect 18 5 32 0;
#X connect 18 6 33 0;
#X connect 18 7 34 0;
#X connect 19 2 0 0;
#X connect 20 2 1 0;
#X connect 21 2 2 0;
#X connect 22 2 3 0;
#X connect 23 2 4 0;
#X connect 24 2 5 0;
#X connect 25 2 6 0;
#X connect 26 2 7 0;
#X connect 27 2 8 0;
#X connect 28 2 9 0;
#X connect 29 2 10 0;
#X connect 30 2 11 0;
#X connect 31 2 12 0;
#X connect 32 2 13 0;
#X connect 33 2 14 0;
#X connect 34 2 15 0;
#X connect 36 0 38 0;
#X connect 37 0 36 0;
#X connect 38 0 35 0;
#X connect 39 0 38 1;
#X connect 40 0 41 0;
#X connect 41 0 42 0;
#X connect 42 0 39 0;
#X restore 215 158 pd playpos;
#X obj 277 129 print;
#X obj 380 23 r OBbpm;
#X obj 499 335 spigot 0;
#X obj 570 75 tgl 15 0 empty empty empty 17 7 0 10 -262144 -1 -1 0
1;
#X obj 569 48 t f b;
#X obj 569 95 change;
#X floatatom 375 101 20 0 0 0 - - -;
#X obj 381 49 bpm;
#X floatatom 499 363 10 0 0 0 - - -;
#X obj 19 43 inlet;
#X obj 570 14 inlet;
#X obj 498 389 outlet;
#X obj 69 18 inlet;
#X obj 570 118 == 1;
#X msg 571 167 0;
#X obj 596 199 t b f;
#X obj 563 234 pack \$1 \$2;
#X obj 563 201 t f;
#X msg 564 262 \$2;
#X obj 264 285 outlet;
#X obj 256 236 t b;
#X obj 671 245 outlet;
#X obj 656 199 t b;
#X obj 378 72 * 10;
#X connect 0 0 2 0;
#X connect 0 1 10 0;
#X connect 0 2 11 0;
#X connect 0 2 31 0;
#X connect 1 0 0 0;
#X connect 2 0 3 0;
#X connect 2 0 3 1;
#X connect 4 0 5 0;
#X connect 5 0 6 0;
#X connect 6 0 7 0;
#X connect 7 0 2 1;
#X connect 8 0 9 0;
#X connect 9 0 4 0;
#X connect 12 0 18 0;
#X connect 13 0 19 0;
#X connect 14 0 16 0;
#X connect 15 0 14 0;
#X connect 16 0 24 0;
#X connect 17 0 26 0;
#X connect 18 0 34 0;
#X connect 19 0 22 0;
#X connect 20 0 1 0;
#X connect 21 0 15 0;
#X connect 23 0 0 0;
#X connect 24 0 13 1;
#X connect 24 0 25 0;
#X connect 24 0 33 0;
#X connect 25 0 28 0;
#X connect 26 0 27 0;
#X connect 26 1 27 1;
#X connect 27 0 29 0;
#X connect 28 0 27 0;
#X connect 29 0 13 0;
#X connect 31 0 30 0;
#X connect 33 0 32 0;
#X connect 34 0 17 0;
#X restore 640 380 pd OBTimeStrech;
#N canvas 126 109 450 293 OBFeelTicks 0;
#X text 76 84 BPM;
#X obj 35 83 nbx 3 20 10 200 0 1 empty empty empty 0 -8 0 10 -262144
-1 -1 79 256;
#X obj 182 88 hsl 128 15 0 0.33 0 0 feel empty 16th-note-feel 20 8
0 10 -262144 -260097 -1 0 0;
#N canvas 526 170 221 227 time-signature 0;
#X obj 19 16 inlet;
#X obj 19 50 == 0;
#X obj 62 50 s signature12/16;
#X obj 19 77 s signature16/16;
#X connect 0 0 1 0;
#X connect 0 0 2 0;
#X connect 1 0 3 0;
#X restore 179 163 pd time-signature;
#X obj 179 120 vradio 15 1 1 2 empty empty empty 0 -8 0 10 -262144
-260097 -1 0;
#X text 198 120 4/4;
#X floatatom 35 172 5 0 0 0 - - -;
#X floatatom 92 172 5 0 0 0 - - -;
#X obj 35 201 s ticks;
#N canvas 472 450 176 274 sixteenths 0;
#X obj 20 24 r ticks;
#X obj 20 57 outlet;
#X connect 0 0 1 0;
#X restore 171 236 pd sixteenths;
#X obj 171 262 bng 15 50 50 0 empty empty empty 17 7 0 10 -262144 -1
-1;
#N canvas 472 450 140 103 eighths 0;
#X obj 20 24 r ticks;
#X obj 20 103 outlet;
#X obj 20 51 >> 1;
#X obj 20 77 change;
#X connect 0 0 2 0;
#X connect 2 0 3 0;
#X connect 3 0 1 0;
#X restore 100 236 pd eighths;
#X obj 100 262 bng 15 50 50 0 empty empty empty 17 7 0 10 -262144 -1
-1;
#N canvas 472 450 260 288 quarts 0;
#X obj 20 24 r ticks;
#X obj 20 103 outlet;
#X obj 20 77 change;
#X obj 20 51 >> 2;
#X connect 0 0 3 0;
#X connect 2 0 1 0;
#X connect 3 0 2 0;
#X restore 35 236 pd quarts;
#X obj 35 262 bng 15 50 50 0 empty empty empty 17 7 0 10 -262144 -1
-1;
#X text 198 135 12/16;
#N canvas 476 430 171 298 12/16 0;
#X obj 42 41 inlet;
#X obj 15 275 outlet;
#X obj 15 42 tgl 15 0 empty empty empty 17 7 0 10 -262144 -1 -1 0 1
;
#X obj 15 92 metro;
#X obj 15 197 +;
#X obj 15 172 f 1;
#N canvas 0 22 141 214 skipticks 0;
#X obj 26 47 inlet;
#X obj 26 161 outlet;
#X obj 26 79 & 3;
#X obj 26 106 sel 2;
#X msg 26 131 2;
#X msg 55 131 1;
#X connect 0 0 2 0;
#X connect 2 0 3 0;
#X connect 3 0 4 0;
#X connect 3 1 5 0;
#X connect 4 0 1 0;
#X connect 5 0 1 0;
#X restore 30 145 pd skipticks;
#X obj 15 223 & 255;
#N canvas 934 142 156 171 milliseconds 0;
#X obj 19 18 inlet;
#X obj 19 127 outlet;
#X obj 19 46 t b f;
#X obj 19 94 /;
#X text 18 150 1/12 note;
#X msg 19 70 20000;
#X connect 0 0 2 0;
#X connect 2 0 5 0;
#X connect 2 1 3 1;
#X connect 3 0 1 0;
#X connect 5 0 3 0;
#X restore 42 67 pd milliseconds;
#X text 80 41 BPM;
#X floatatom 42 116 5 0 0 0 - - -;
#X obj 15 11 r signature12/16;
#X floatatom 67 250 5 0 0 0 - - -;
#N canvas 197 486 215 265 feel 0;
#X obj 21 86 & 1;
#X obj 21 58 t f f;
#X obj 21 25 inlet;
#X obj 21 221 outlet;
#X obj 21 126 pack;
#X obj 21 152 route 0 1;
#X text 16 170 even;
#X text 56 170 odd;
#X obj 89 152 *;
#X obj 99 125 t b f;
#X floatatom 89 192 5 0 0 0 - - -;
#X obj 46 191 pipe;
#X text 127 192 milliseconds;
#X obj 89 26 inlet;
#X text 19 4 ticks;
#X text 87 5 feel;
#X obj 99 96 r ticklength12;
#X connect 0 0 4 0;
#X connect 1 0 0 0;
#X connect 1 1 4 1;
#X connect 2 0 1 0;
#X connect 4 0 5 0;
#X connect 5 0 3 0;
#X connect 5 1 11 0;
#X connect 8 0 10 0;
#X connect 8 0 11 1;
#X connect 9 0 8 0;
#X connect 9 1 8 1;
#X connect 11 0 3 0;
#X connect 13 0 8 0;
#X connect 16 0 9 0;
#X restore 15 249 pd feel;
#X obj 54 223 r feel;
#X obj 54 92 s ticklength12;
#X connect 0 0 8 0;
#X connect 2 0 3 0;
#X connect 3 0 5 0;
#X connect 4 0 7 0;
#X connect 5 0 4 0;
#X connect 6 0 5 1;
#X connect 7 0 4 1;
#X connect 7 0 6 0;
#X connect 7 0 13 0;
#X connect 8 0 3 1;
#X connect 8 0 10 0;
#X connect 8 0 15 0;
#X connect 11 0 2 0;
#X connect 13 0 1 0;
#X connect 14 0 13 1;
#X connect 14 0 12 0;
#X restore 92 142 pd 12/16;
#N canvas -8 -8 1366 686 16/16 0;
#X obj 46 45 inlet;
#X obj 19 251 outlet;
#X obj 19 143 f;
#X obj 19 168 + 1;
#X obj 19 46 tgl 15 0 empty empty empty 17 7 0 10 -262144 -1 -1 1 1
;
#X obj 19 118 metro;
#X floatatom 71 223 5 0 0 0 - - -;
#N canvas 491 136 268 302 feel 0;
#X obj 21 86 & 1;
#X obj 21 58 t f f;
#X obj 21 25 inlet;
#X obj 21 221 outlet;
#X obj 21 126 pack;
#X obj 21 152 route 0 1;
#X text 16 170 even;
#X text 56 170 odd;
#X obj 89 152 *;
#X obj 99 125 t b f;
#X floatatom 89 192 5 0 0 0 - - -;
#X obj 46 191 pipe;
#X text 127 192 milliseconds;
#X obj 89 26 inlet;
#X text 19 4 ticks;
#X text 87 5 feel;
#X obj 99 91 r ticklength16;
#X connect 0 0 4 0;
#X connect 1 0 0 0;
#X connect 1 1 4 1;
#X connect 2 0 1 0;
#X connect 4 0 5 0;
#X connect 5 0 3 0;
#X connect 5 1 11 0;
#X connect 8 0 10 0;
#X connect 8 0 11 1;
#X connect 9 0 8 0;
#X connect 9 1 8 1;
#X connect 11 0 3 0;
#X connect 13 0 8 0;
#X connect 16 0 9 0;
#X restore 19 222 pd feel;
#X obj 58 196 r feel;
#X obj 19 196 & 255;
#N canvas 780 142 244 148 milliseconds 0;
#X obj 19 18 inlet;
#X obj 19 123 outlet;
#X obj 19 46 t b f;
#X obj 19 94 /;
#X text 18 150 1/16 note;
#X msg 19 70 15000;
#X connect 0 0 2 0;
#X connect 2 0 5 0;
#X connect 2 1 3 1;
#X connect 3 0 1 0;
#X connect 5 0 3 0;
#X restore 46 69 pd milliseconds;
#X text 85 46 BPM;
#X obj 60 118 s ticklength16;
#X text 58 140 1/16 note tick length;
#X floatatom 63 93 5 0 0 0 - - -;
#X obj 19 16 r signature16/16;
#X msg 135 178 0;
#X obj 153 39 inlet;
#X obj 253 56 inlet;
#X msg 255 95 1;
#X connect 0 0 10 0;
#X connect 2 0 3 0;
#X connect 3 0 9 0;
#X connect 4 0 5 0;
#X connect 5 0 2 0;
#X connect 7 0 1 0;
#X connect 8 0 7 1;
#X connect 8 0 6 0;
#X connect 9 0 2 1;
#X connect 9 0 7 0;
#X connect 10 0 5 1;
#X connect 10 0 12 0;
#X connect 10 0 14 0;
#X connect 15 0 4 0;
#X connect 16 0 4 0;
#X connect 17 0 16 0;
#X connect 18 0 19 0;
#X connect 19 0 4 0;
#X restore 35 142 pd 16/16;
#X msg 123 97 stop;
#X msg 325 149 start;
#X obj 365 91 inlet;
#X obj 308 216 r OBbmp;
#X connect 1 0 17 0;
#X connect 1 0 16 0;
#X connect 4 0 3 0;
#X connect 9 0 10 0;
#X connect 11 0 12 0;
#X connect 13 0 14 0;
#X connect 16 0 7 0;
#X connect 16 0 8 0;
#X connect 17 0 6 0;
#X connect 17 0 8 0;
#X connect 18 0 17 1;
#X connect 19 0 17 2;
#X connect 20 0 19 0;
#X restore 642 247 pd OBFeelTicks;
#X obj 153 117 cnv 15 4 10 empty empty End_Position 1 6 0 9 -191407
-1 0;
#X connect 2 0 86 0;
#X connect 2 0 85 0;
#X connect 2 0 53 4;
#X connect 2 0 73 0;
#X connect 3 0 53 7;
#X connect 3 0 87 2;
#X connect 7 0 53 6;
#X connect 7 0 87 1;
#X connect 8 0 7 0;
#X connect 8 0 3 0;
#X connect 9 0 8 0;
#X connect 10 0 53 8;
#X connect 11 0 53 5;
#X connect 15 0 78 0;
#X connect 16 0 20 0;
#X connect 18 0 19 0;
#X connect 18 0 88 0;
#X connect 18 0 88 1;
#X connect 23 1 53 13;
#X connect 23 1 70 0;
#X connect 23 1 71 0;
#X connect 26 0 23 0;
#X connect 27 0 23 2;
#X connect 28 0 29 0;
#X connect 28 0 44 0;
#X connect 29 0 30 1;
#X connect 30 0 14 0;
#X connect 31 0 32 0;
#X connect 31 0 42 0;
#X connect 32 0 33 1;
#X connect 33 0 13 0;
#X connect 33 0 53 11;
#X connect 42 0 33 0;
#X connect 42 0 53 11;
#X connect 42 0 59 0;
#X connect 43 0 31 0;
#X connect 43 0 32 1;
#X connect 44 0 30 0;
#X connect 44 0 59 1;
#X connect 45 0 28 0;
#X connect 45 0 29 1;
#X connect 46 0 53 14;
#X connect 47 0 48 0;
#X connect 47 0 73 0;
#X connect 47 0 54 0;
#X connect 47 0 55 0;
#X connect 48 0 14 0;
#X connect 48 0 44 0;
#X connect 51 0 50 0;
#X connect 52 0 49 0;
#X connect 53 0 6 0;
#X connect 53 1 5 0;
#X connect 53 2 10 0;
#X connect 53 3 23 3;
#X connect 54 0 42 0;
#X connect 54 0 43 0;
#X connect 54 0 56 0;
#X connect 55 0 45 0;
#X connect 56 0 59 2;
#X connect 57 0 65 0;
#X connect 57 0 89 2;
#X connect 59 1 23 4;
#X connect 59 2 23 5;
#X connect 59 3 60 0;
#X connect 59 4 53 10;
#X connect 60 0 53 9;
#X connect 61 0 4 0;
#X connect 62 0 61 0;
#X connect 63 0 56 0;
#X connect 64 0 69 0;
#X connect 64 0 72 0;
#X connect 67 0 56 0;
#X connect 69 0 89 1;
#X connect 70 0 42 0;
#X connect 71 0 44 0;
#X connect 72 0 89 1;
#X connect 73 0 9 0;
#X connect 74 0 2 0;
#X connect 75 0 87 0;
#X connect 76 0 88 4;
#X connect 77 0 53 15;
#X connect 78 0 53 2;
#X connect 79 0 53 3;
#X connect 80 0 53 0;
#X connect 81 0 87 3;
#X connect 81 0 88 3;
#X connect 82 0 88 2;
#X connect 83 0 53 1;
#X connect 83 0 89 0;
#X connect 84 0 63 0;
#X connect 84 0 23 1;
#X connect 85 0 44 0;
#X connect 86 0 42 0;
#X connect 87 0 53 12;
#X connect 88 0 25 0;
#X connect 88 0 24 0;
#X connect 89 1 64 0;
#X connect 89 2 67 0;
#X coords 0 -1 1 1 562 240 2 0 0;
