#N canvas 1182 105 718 713 10;
#X obj 25 11 inlet;
#X obj 25 651 outlet;
#X obj 71 211 r angle;
#X obj 100 234 r angle;
#X obj 128 262 r angle;
#X obj 156 294 r angle;
#X obj 187 318 r angle;
#X obj 216 341 r angle;
#X obj 244 369 r angle;
#X obj 272 401 r angle;
#X obj 25 181 unpack s f f f f f f f f f f f f f f f f f f f;
#X obj 26 466 pack s f f f f f f f f f f f f f f f f f f f;
#X msg 25 524 set \$1 \$2 \$3 \$4 \$5 \$6 \$7 \$8 \$9 \$10 \$11 \$12
\$13 \$14 \$15 \$16 \$17 \$18 \$19 \$20;
#X msg 27 571 fillpolygon 503 200 552 250 522 250 519 400 480 399 482
249 452 249 503 200 50 900 2;
#X obj 617 280 s angle;
#X obj 498 171 bng 15 250 50 0 empty empty empty 17 7 0 10 -262144
-1 -1;
#X msg 417 634 new;
#X obj 617 248 pack f f f;
#X obj 416 -11 inlet;
#X obj 415 19 route new;
#X obj 499 633 outlet;
#X obj 440 245 delay 20;
#X obj 497 211 delay 10;
#X obj 242 401 spin;
#X obj 41 211 spin;
#X obj 70 234 spin;
#X obj 98 262 spin;
#X obj 126 294 spin;
#X obj 157 318 spin;
#X obj 186 341 spin;
#X obj 214 369 spin;
#X text 82 10 Balwyn 2016;
#X connect 0 0 10 0;
#X connect 2 0 24 2;
#X connect 3 0 25 2;
#X connect 4 0 26 2;
#X connect 5 0 27 2;
#X connect 6 0 28 2;
#X connect 7 0 29 2;
#X connect 8 0 30 2;
#X connect 9 0 23 2;
#X connect 10 0 11 0;
#X connect 10 1 24 0;
#X connect 10 2 24 1;
#X connect 10 3 25 0;
#X connect 10 4 25 1;
#X connect 10 5 26 0;
#X connect 10 6 26 1;
#X connect 10 7 27 0;
#X connect 10 8 27 1;
#X connect 10 9 28 0;
#X connect 10 10 28 1;
#X connect 10 11 29 0;
#X connect 10 12 29 1;
#X connect 10 13 30 0;
#X connect 10 14 30 1;
#X connect 10 15 23 0;
#X connect 10 16 23 1;
#X connect 10 17 11 17;
#X connect 10 18 11 18;
#X connect 10 19 11 19;
#X connect 11 0 12 0;
#X connect 12 0 13 0;
#X connect 13 0 1 0;
#X connect 15 0 21 0;
#X connect 15 0 22 0;
#X connect 16 0 1 0;
#X connect 17 0 14 0;
#X connect 18 0 19 0;
#X connect 19 0 16 0;
#X connect 19 1 17 0;
#X connect 19 1 15 0;
#X connect 21 0 13 0;
#X connect 22 0 17 0;
#X connect 22 0 20 0;
#X connect 23 0 11 15;
#X connect 23 1 11 16;
#X connect 24 0 11 1;
#X connect 24 1 11 2;
#X connect 25 0 11 3;
#X connect 25 1 11 4;
#X connect 26 0 11 5;
#X connect 26 1 11 6;
#X connect 27 0 11 7;
#X connect 27 1 11 8;
#X connect 28 0 11 9;
#X connect 28 1 11 10;
#X connect 29 0 11 11;
#X connect 29 1 11 12;
#X connect 30 0 11 13;
#X connect 30 1 11 14;
