#N canvas 86 261 941 438 10;
#X obj 0 0 cnv 15 882 62 seqbuilderbg-send seqbuilderbg-recv empty
20 12 0 14 -195568 -66577 0;
#X obj 1 1 Cntrls \$1;
#X obj 89 33 vradio 10 1 0 2 \$1-triggers-send \$1-triggers-recv empty
-50 8 0 10 -262144 -1 -262144 0;
#X obj 102 33 cnv 10 50 10 empty looplbl-recv One_Shot 4 6 0 10 -195568
-1 0;
#X obj 102 43 cnv 10 50 15 empty looplbl-recv Loop 4 6 0 10 -195568
-1 0;
#X floatatom 124 213 5 0 0 0 - - -;
#X obj 124 231 t f;
#X msg 124 104 0;
#X obj 124 252 s oneshotorloop-Trigger-\$1;
#X obj 89 3 tgl 10 0 empty empty Fade_In 17 5 0 10 -262144 -1 -1 0
1;
#X obj 89 17 tgl 10 0 empty empty Fade_out 17 5 0 10 -262144 -1 -1
0 1;
#X obj 159 3 hsl 40 10 0 127 0 0 \$1-fadeindur-send \$1-fadeindur-recv
empty -2 -8 0 10 -162280 -1 -1 0 1;
#X obj 159 18 hsl 40 10 0 127 0 0 \$1-fadeoutdur-send \$1-fadeoutdur-recv
empty -2 -8 0 10 -162280 -1 -1 0 1;
#N canvas -4 -4 1280 718 SeqVelSet 0;
#X floatatom 160 104 6 0 0 0 - - -;
#X msg 150 261 label Soft:\$1;
#X obj 153 130 * 10;
#X floatatom 153 154 5 0 0 0 - - -;
#X obj 151 176 int;
#X floatatom 150 197 5 0 0 0 - - -;
#X obj 150 218 / 10;
#X floatatom 148 239 5 0 0 0 - - -;
#X obj 271 128 * 10;
#X floatatom 271 152 5 0 0 0 - - -;
#X obj 269 174 int;
#X floatatom 268 195 5 0 0 0 - - -;
#X obj 268 216 / 10;
#X floatatom 266 237 5 0 0 0 - - -;
#X floatatom 271 101 6 0 0 0 - - -;
#X obj 438 125 * 10;
#X floatatom 438 149 5 0 0 0 - - -;
#X obj 436 171 int;
#X floatatom 435 192 5 0 0 0 - - -;
#X obj 435 213 / 10;
#X floatatom 433 234 5 0 0 0 - - -;
#X floatatom 438 98 6 0 0 0 - - -;
#X msg 435 256 label Hard:\$1;
#X msg 267 259 label Med:\$1;
#X obj 0 0 cnv 15 73 50 empty presetvelbg-recv empty 20 12 0 14 -195568
-66577 0;
#X obj 6 4 hsl 60 13 0.1 1 0 0 \$1-softvalue-send \$1-softvalue-recv
Soft:0.3 2 7 0 10 -90881 -1 -1 1311 1;
#X obj 6 19 hsl 60 13 0.2 1 0 0 \$1-medvalue-send \$1-medvalue-recv
Med:0.5 2 7 0 10 -123526 -1 -1 2212 1;
#X obj 6 35 hsl 60 13 0.3 1 0 0 \$1-hardvalue-send \$1-hardvalue-recv
Hard:0.9 2 7 0 10 -258699 -1 -1 5057 1;
#X obj 1 101 cnv 15 41 15 empty empty Velocities 2 7 0 12 -128992 -1
0;
#X obj 326 26 loadbang;
#X msg 273 51 0.3;
#X msg 363 55 0.9;
#X msg 318 56 0.5;
#X obj 149 289 s \$1-softvalue-recv;
#X obj 276 286 s \$1-medvalue-recv;
#X obj 434 284 s \$1-hardvalue-recv;
#X obj 27 244 s velsoft_value;
#X obj 317 219 s velmed_value;
#X obj 512 212 s velhard_value;
#X connect 0 0 2 0;
#X connect 0 0 36 0;
#X connect 1 0 33 0;
#X connect 2 0 3 0;
#X connect 3 0 4 0;
#X connect 4 0 5 0;
#X connect 5 0 6 0;
#X connect 6 0 7 0;
#X connect 7 0 1 0;
#X connect 8 0 9 0;
#X connect 9 0 10 0;
#X connect 10 0 11 0;
#X connect 11 0 12 0;
#X connect 12 0 13 0;
#X connect 13 0 23 0;
#X connect 14 0 8 0;
#X connect 14 0 37 0;
#X connect 15 0 16 0;
#X connect 16 0 17 0;
#X connect 17 0 18 0;
#X connect 18 0 19 0;
#X connect 19 0 20 0;
#X connect 20 0 22 0;
#X connect 21 0 15 0;
#X connect 21 0 38 0;
#X connect 22 0 35 0;
#X connect 23 0 34 0;
#X connect 25 0 0 0;
#X connect 26 0 14 0;
#X connect 27 0 21 0;
#X connect 29 0 32 0;
#X connect 29 0 31 0;
#X connect 29 0 30 0;
#X connect 30 0 25 0;
#X connect 31 0 27 0;
#X connect 32 0 26 0;
#X coords 0 -1 1 1 73 50 2 0 0;
#X restore 257 5 pd SeqVelSet \$1;
#N canvas 174 86 873 685 OBSeqSteps 0;
#X obj 0 0 cnv 15 546 50 empty seqcanvas-recv empty 20 12 0 14 -195568
-66577 0;
#X floatatom 121 274 5 1 64 0 Pattern - -;
#X obj 147 473 outlet;
#X obj 147 439 t f b;
#X obj 52 294 bng 10 250 50 0 empty empty Stop -30 5 0 10 -128992 -1
-1;
#X obj 86 225 bng 10 250 50 0 empty empty Playback -55 5 0 10 -128992
-1 -1;
#X obj 84 376 s metronomeOn;
#X obj 52 340 s metronomeOff;
#X obj 13 138 loadbang;
#X msg 13 171 1;
#X obj 1 71 tgl 9 0 \$1-editmode-send \$1-editmode-recv Edit_Mode 17
5 0 10 -191407 -1 -1 1 1;
#X obj 241 206 s emodestate;
#X obj 150 233 spigot 0;
#X obj 150 209 t f;
#X obj 35 1 OBSeqStepToggle 1;
#X obj 69 1 OBSeqStepToggle 2;
#X obj 103 1 OBSeqStepToggle 3;
#X obj 137 1 OBSeqStepToggle 4;
#X obj 171 1 OBSeqStepToggle 5;
#X obj 205 1 OBSeqStepToggle 6;
#X obj 239 1 OBSeqStepToggle 7;
#X obj 273 1 OBSeqStepToggle 8;
#X obj 307 1 OBSeqStepToggle 9;
#X obj 341 1 OBSeqStepToggle 10;
#X obj 375 1 OBSeqStepToggle 11;
#X obj 409 1 OBSeqStepToggle 12;
#X obj 443 1 OBSeqStepToggle 13;
#X obj 478 1 OBSeqStepToggle 14;
#X obj 513 1 OBSeqStepToggle 15;
#X obj 1 1 OBSeqStepToggle 0;
#X obj 178 66 r emode;
#X obj 86 134 inlet;
#X obj 145 137 inlet;
#X obj 13 198 t f b b;
#X obj 252 408 t f;
#X obj 52 250 delay 10;
#X obj 1 26 OBSeqStepToggle 16;
#X obj 35 26 OBSeqStepToggle 17;
#X obj 69 26 OBSeqStepToggle 18;
#X obj 103 26 OBSeqStepToggle 19;
#X obj 137 26 OBSeqStepToggle 20;
#X obj 171 26 OBSeqStepToggle 21;
#X obj 205 26 OBSeqStepToggle 22;
#X obj 239 26 OBSeqStepToggle 23;
#X obj 273 26 OBSeqStepToggle 24;
#X obj 307 26 OBSeqStepToggle 25;
#X obj 341 26 OBSeqStepToggle 26;
#X obj 375 26 OBSeqStepToggle 27;
#X obj 409 26 OBSeqStepToggle 28;
#X obj 443 26 OBSeqStepToggle 29;
#X obj 478 26 OBSeqStepToggle 30;
#X obj 513 26 OBSeqStepToggle 31;
#X obj 252 453 unpack f f;
#X obj 252 431 pack f f;
#X obj 150 182 r checkedpadnum;
#X msg 252 385 0;
#X obj 252 356 t b f;
#X obj 636 345 s;
#X symbolatom 651 324 25 0 0 0 - - -;
#X floatatom 611 303 5 0 0 0 - - -;
#X obj 611 322 t f;
#X msg 656 306 symbol ToggleStepStateClone-\$1;
#X obj 490 253 clone -s 0 ToggleStepStateClone 32;
#X obj 489 225 clone -s 0 ToggleVelStateClone 32;
#X obj 601 410 s;
#X symbolatom 616 389 25 0 0 0 - - -;
#X floatatom 576 368 5 0 0 0 - - -;
#X obj 576 387 t f;
#X msg 621 371 symbol ToggleVelStateClone-\$1;
#N canvas -8 -8 1276 686 OBSetPatternToggleStates 0;
#X obj 104 218 s;
#X obj 119 267 s;
#X obj 133 322 s;
#X obj 153 381 s;
#X obj 167 442 s;
#X obj 189 493 s;
#X obj 207 569 s;
#X obj 224 635 s;
#X symbolatom 118 193 10 0 0 0 - - -;
#X symbolatom 134 245 10 0 0 0 - - -;
#X symbolatom 172 357 10 0 0 0 - - -;
#X symbolatom 149 296 10 0 0 0 - - -;
#X symbolatom 186 413 10 0 0 0 - - -;
#X symbolatom 206 468 10 0 0 0 - - -;
#X symbolatom 222 544 10 0 0 0 - - -;
#X symbolatom 240 613 10 0 0 0 - - -;
#X obj 383 216 s;
#X obj 398 265 s;
#X obj 412 320 s;
#X obj 432 379 s;
#X obj 446 440 s;
#X obj 468 491 s;
#X obj 486 567 s;
#X obj 503 633 s;
#X symbolatom 397 191 10 0 0 0 - - -;
#X symbolatom 413 243 10 0 0 0 - - -;
#X symbolatom 451 355 10 0 0 0 - - -;
#X symbolatom 428 294 10 0 0 0 - - -;
#X symbolatom 465 411 10 0 0 0 - - -;
#X symbolatom 485 466 10 0 0 0 - - -;
#X symbolatom 501 542 10 0 0 0 - - -;
#X symbolatom 519 611 10 0 0 0 - - -;
#X msg 311 152 \$1;
#X obj 24 24 inlet;
#X floatatom 46 111 5 0 0 0 - - -;
#X obj 47 133 t f;
#X floatatom 95 111 5 0 0 0 - - -;
#X obj 96 133 t f;
#X floatatom 132 109 5 0 0 0 - - -;
#X obj 133 131 t f;
#X floatatom 175 108 5 0 0 0 - - -;
#X obj 176 130 t f;
#X floatatom 218 106 5 0 0 0 - - -;
#X obj 219 128 t f;
#X floatatom 256 105 5 0 0 0 - - -;
#X obj 257 127 t f;
#X floatatom 305 98 5 0 0 0 - - -;
#X obj 306 120 t f;
#X floatatom 349 95 5 0 0 0 - - -;
#X obj 350 117 t f;
#X floatatom 398 99 5 0 0 0 - - -;
#X obj 399 121 t f;
#X floatatom 451 97 5 0 0 0 - - -;
#X obj 452 119 t f;
#X floatatom 498 95 5 0 0 0 - - -;
#X obj 499 117 t f;
#X floatatom 543 99 5 0 0 0 - - -;
#X obj 544 121 t f;
#X floatatom 593 102 5 0 0 0 - - -;
#X obj 594 124 t f;
#X floatatom 642 101 5 0 0 0 - - -;
#X obj 643 123 t f;
#X floatatom 695 103 5 0 0 0 - - -;
#X obj 696 125 t f;
#X floatatom 778 102 5 0 0 0 - - -;
#X obj 779 124 t f;
#X obj 851 215 s;
#X obj 866 264 s;
#X obj 880 319 s;
#X obj 900 378 s;
#X obj 914 439 s;
#X obj 936 490 s;
#X obj 954 566 s;
#X obj 971 632 s;
#X symbolatom 865 190 10 0 0 0 - - -;
#X symbolatom 881 242 10 0 0 0 - - -;
#X symbolatom 919 354 10 0 0 0 - - -;
#X symbolatom 896 293 10 0 0 0 - - -;
#X symbolatom 933 410 10 0 0 0 - - -;
#X symbolatom 953 465 10 0 0 0 - - -;
#X symbolatom 969 541 10 0 0 0 - - -;
#X symbolatom 987 610 10 0 0 0 - - -;
#X obj 1130 213 s;
#X obj 1145 262 s;
#X obj 1159 317 s;
#X obj 1179 376 s;
#X obj 1193 437 s;
#X obj 1215 488 s;
#X obj 1233 564 s;
#X obj 1249 633 s;
#X symbolatom 1144 188 10 0 0 0 - - -;
#X symbolatom 1160 240 10 0 0 0 - - -;
#X symbolatom 1198 352 10 0 0 0 - - -;
#X symbolatom 1175 291 10 0 0 0 - - -;
#X symbolatom 1212 408 10 0 0 0 - - -;
#X symbolatom 1232 463 10 0 0 0 - - -;
#X symbolatom 1248 539 10 0 0 0 - - -;
#X symbolatom 1266 608 10 0 0 0 - - -;
#X floatatom 842 100 5 0 0 0 - - -;
#X obj 843 122 t f;
#X floatatom 891 100 5 0 0 0 - - -;
#X obj 892 122 t f;
#X floatatom 928 98 5 0 0 0 - - -;
#X obj 929 120 t f;
#X floatatom 971 97 5 0 0 0 - - -;
#X obj 972 119 t f;
#X floatatom 1014 95 5 0 0 0 - - -;
#X obj 1015 117 t f;
#X floatatom 1052 94 5 0 0 0 - - -;
#X obj 1053 116 t f;
#X floatatom 1101 87 5 0 0 0 - - -;
#X obj 1102 109 t f;
#X floatatom 1145 84 5 0 0 0 - - -;
#X obj 1146 106 t f;
#X floatatom 1194 88 5 0 0 0 - - -;
#X obj 1195 110 t f;
#X floatatom 1247 86 5 0 0 0 - - -;
#X obj 1248 108 t f;
#X floatatom 1294 84 5 0 0 0 - - -;
#X obj 1295 106 t f;
#X floatatom 1339 88 5 0 0 0 - - -;
#X obj 1340 110 t f;
#X floatatom 1389 91 5 0 0 0 - - -;
#X obj 1390 113 t f;
#X floatatom 1438 90 5 0 0 0 - - -;
#X obj 1439 112 t f;
#X floatatom 1491 92 5 0 0 0 - - -;
#X obj 1492 114 t f;
#X floatatom 1540 93 5 0 0 0 - - -;
#X obj 1541 115 t f;
#X obj 45 90 r t0;
#X obj 94 90 r t1;
#X obj 131 88 r t2;
#X obj 173 86 r t3;
#X obj 217 85 r t4;
#X obj 255 84 r t5;
#X obj 304 77 r t6;
#X obj 348 74 r t7;
#X obj 397 78 r t8;
#X obj 450 76 r t9;
#X obj 497 74 r t10;
#X obj 542 78 r t11;
#X obj 591 81 r t12;
#X obj 641 80 r t13;
#X obj 694 82 r t14;
#X obj 777 81 r t15;
#X obj 841 79 r t16;
#X obj 890 79 r t17;
#X obj 927 77 r t18;
#X obj 970 76 r t19;
#X obj 1013 74 r t20;
#X obj 1052 73 r t21;
#X obj 1100 66 r t22;
#X obj 1144 63 r t23;
#X obj 1193 67 r t24;
#X obj 1246 65 r t25;
#X obj 1293 63 r t26;
#X obj 1338 67 r t27;
#X obj 1388 70 r t28;
#X obj 1437 69 r t29;
#X obj 1490 71 r t30;
#X obj 1539 72 r t31;
#X msg 1266 581 symbol t31-recv;
#X msg 1248 512 symbol t30-recv;
#X msg 1234 436 symbol t29-recv;
#X msg 1210 377 symbol t28-recv;
#X msg 1196 325 symbol t27-recv;
#X msg 1174 265 symbol t26-recv;
#X msg 1160 218 symbol t25-recv;
#X msg 1145 167 symbol t24-recv;
#X msg 987 583 symbol t23-recv;
#X msg 970 514 symbol t22-recv;
#X msg 955 438 symbol t21-recv;
#X msg 931 379 symbol t20-recv;
#X msg 919 327 symbol t19-recv;
#X msg 909 266 symbol t18-recv;
#X msg 881 220 symbol t17-recv;
#X msg 866 169 symbol t16-recv;
#X msg 519 584 symbol t15-recv;
#X msg 502 515 symbol t14-recv;
#X msg 487 439 symbol t13-recv;
#X msg 463 380 symbol t12-recv;
#X msg 450 328 symbol t11-recv;
#X msg 427 268 symbol t10-recv;
#X msg 413 221 symbol t9-recv;
#X msg 398 170 symbol t8-recv;
#X msg 240 586 symbol t7-recv;
#X msg 223 517 symbol t6-recv;
#X msg 208 441 symbol t5-recv;
#X msg 184 382 symbol t4-recv;
#X msg 172 330 symbol t3-recv;
#X msg 148 269 symbol t2-recv;
#X msg 134 223 symbol t1-recv;
#X msg 119 172 symbol t0-recv;
#X connect 8 0 0 1;
#X connect 9 0 1 1;
#X connect 10 0 3 1;
#X connect 11 0 2 1;
#X connect 12 0 4 1;
#X connect 13 0 5 1;
#X connect 14 0 6 1;
#X connect 15 0 7 1;
#X connect 24 0 16 1;
#X connect 25 0 17 1;
#X connect 26 0 19 1;
#X connect 27 0 18 1;
#X connect 28 0 20 1;
#X connect 29 0 21 1;
#X connect 30 0 22 1;
#X connect 31 0 23 1;
#X connect 32 0 193 0;
#X connect 32 0 178 0;
#X connect 32 0 179 0;
#X connect 32 0 180 0;
#X connect 32 0 186 0;
#X connect 32 0 187 0;
#X connect 32 0 188 0;
#X connect 32 0 181 0;
#X connect 32 0 182 0;
#X connect 32 0 189 0;
#X connect 32 0 190 0;
#X connect 32 0 191 0;
#X connect 32 0 183 0;
#X connect 32 0 184 0;
#X connect 32 0 192 0;
#X connect 32 0 185 0;
#X connect 32 0 177 0;
#X connect 32 0 162 0;
#X connect 32 0 166 0;
#X connect 32 0 165 0;
#X connect 32 0 164 0;
#X connect 32 0 163 0;
#X connect 32 0 170 0;
#X connect 32 0 171 0;
#X connect 32 0 172 0;
#X connect 32 0 173 0;
#X connect 32 0 174 0;
#X connect 32 0 175 0;
#X connect 32 0 167 0;
#X connect 32 0 168 0;
#X connect 32 0 176 0;
#X connect 32 0 169 0;
#X connect 33 0 32 0;
#X connect 34 0 35 0;
#X connect 35 0 0 0;
#X connect 36 0 37 0;
#X connect 37 0 1 0;
#X connect 38 0 39 0;
#X connect 39 0 2 0;
#X connect 40 0 41 0;
#X connect 41 0 3 0;
#X connect 42 0 43 0;
#X connect 43 0 4 0;
#X connect 44 0 45 0;
#X connect 45 0 5 0;
#X connect 46 0 47 0;
#X connect 47 0 6 0;
#X connect 48 0 49 0;
#X connect 49 0 7 0;
#X connect 50 0 51 0;
#X connect 51 0 16 0;
#X connect 52 0 53 0;
#X connect 53 0 17 0;
#X connect 54 0 55 0;
#X connect 55 0 18 0;
#X connect 56 0 57 0;
#X connect 57 0 19 0;
#X connect 58 0 59 0;
#X connect 59 0 20 0;
#X connect 60 0 61 0;
#X connect 61 0 21 0;
#X connect 62 0 63 0;
#X connect 63 0 22 0;
#X connect 64 0 65 0;
#X connect 65 0 23 0;
#X connect 74 0 66 1;
#X connect 75 0 67 1;
#X connect 76 0 69 1;
#X connect 77 0 68 1;
#X connect 78 0 70 1;
#X connect 79 0 71 1;
#X connect 80 0 72 1;
#X connect 81 0 73 1;
#X connect 90 0 82 1;
#X connect 91 0 83 1;
#X connect 92 0 85 1;
#X connect 93 0 84 1;
#X connect 94 0 86 1;
#X connect 95 0 87 1;
#X connect 96 0 88 1;
#X connect 97 0 89 1;
#X connect 98 0 99 0;
#X connect 99 0 66 0;
#X connect 100 0 101 0;
#X connect 101 0 67 0;
#X connect 102 0 103 0;
#X connect 103 0 68 0;
#X connect 104 0 105 0;
#X connect 105 0 69 0;
#X connect 106 0 107 0;
#X connect 107 0 70 0;
#X connect 108 0 109 0;
#X connect 109 0 71 0;
#X connect 110 0 111 0;
#X connect 111 0 72 0;
#X connect 112 0 113 0;
#X connect 113 0 73 0;
#X connect 114 0 115 0;
#X connect 115 0 82 0;
#X connect 116 0 117 0;
#X connect 117 0 83 0;
#X connect 118 0 119 0;
#X connect 119 0 84 0;
#X connect 120 0 121 0;
#X connect 121 0 85 0;
#X connect 122 0 123 0;
#X connect 123 0 86 0;
#X connect 124 0 125 0;
#X connect 125 0 87 0;
#X connect 126 0 127 0;
#X connect 127 0 88 0;
#X connect 128 0 129 0;
#X connect 129 0 89 0;
#X connect 130 0 34 0;
#X connect 131 0 36 0;
#X connect 132 0 38 0;
#X connect 133 0 40 0;
#X connect 134 0 42 0;
#X connect 135 0 44 0;
#X connect 136 0 46 0;
#X connect 137 0 48 0;
#X connect 138 0 50 0;
#X connect 139 0 52 0;
#X connect 140 0 54 0;
#X connect 141 0 56 0;
#X connect 142 0 58 0;
#X connect 143 0 60 0;
#X connect 144 0 62 0;
#X connect 145 0 64 0;
#X connect 146 0 98 0;
#X connect 147 0 100 0;
#X connect 148 0 102 0;
#X connect 149 0 104 0;
#X connect 150 0 106 0;
#X connect 151 0 108 0;
#X connect 152 0 110 0;
#X connect 153 0 112 0;
#X connect 154 0 114 0;
#X connect 155 0 116 0;
#X connect 156 0 118 0;
#X connect 157 0 120 0;
#X connect 158 0 122 0;
#X connect 159 0 124 0;
#X connect 160 0 126 0;
#X connect 161 0 128 0;
#X connect 162 0 97 0;
#X connect 163 0 96 0;
#X connect 164 0 95 0;
#X connect 165 0 94 0;
#X connect 166 0 92 0;
#X connect 167 0 93 0;
#X connect 168 0 91 0;
#X connect 169 0 90 0;
#X connect 170 0 81 0;
#X connect 171 0 80 0;
#X connect 172 0 79 0;
#X connect 173 0 78 0;
#X connect 174 0 76 0;
#X connect 175 0 77 0;
#X connect 176 0 75 0;
#X connect 177 0 74 0;
#X connect 178 0 31 0;
#X connect 179 0 30 0;
#X connect 180 0 29 0;
#X connect 181 0 28 0;
#X connect 182 0 26 0;
#X connect 183 0 27 0;
#X connect 184 0 25 0;
#X connect 185 0 24 0;
#X connect 186 0 15 0;
#X connect 187 0 14 0;
#X connect 188 0 13 0;
#X connect 189 0 12 0;
#X connect 190 0 10 0;
#X connect 191 0 11 0;
#X connect 192 0 9 0;
#X connect 193 0 8 0;
#X restore 336 499 pd OBSetPatternToggleStates;
#X f 79;
#N canvas -8 -8 1276 686 OBSetPatternVelStates 0;
#X obj 104 218 s;
#X obj 119 267 s;
#X obj 133 322 s;
#X obj 153 381 s;
#X obj 167 442 s;
#X obj 189 493 s;
#X obj 207 569 s;
#X obj 224 635 s;
#X symbolatom 118 193 10 0 0 0 - - -;
#X symbolatom 134 245 10 0 0 0 - - -;
#X symbolatom 172 357 10 0 0 0 - - -;
#X symbolatom 149 296 10 0 0 0 - - -;
#X symbolatom 186 413 10 0 0 0 - - -;
#X symbolatom 206 468 10 0 0 0 - - -;
#X symbolatom 222 544 10 0 0 0 - - -;
#X symbolatom 240 613 10 0 0 0 - - -;
#X obj 383 216 s;
#X obj 398 265 s;
#X obj 412 320 s;
#X obj 432 379 s;
#X obj 446 440 s;
#X obj 468 491 s;
#X obj 486 567 s;
#X obj 503 633 s;
#X symbolatom 397 191 10 0 0 0 - - -;
#X symbolatom 413 243 10 0 0 0 - - -;
#X symbolatom 451 355 10 0 0 0 - - -;
#X symbolatom 428 294 10 0 0 0 - - -;
#X symbolatom 465 411 10 0 0 0 - - -;
#X symbolatom 485 466 10 0 0 0 - - -;
#X symbolatom 501 542 10 0 0 0 - - -;
#X symbolatom 519 611 10 0 0 0 - - -;
#X msg 307 141 \$1;
#X obj 34 57 inlet;
#X msg 119 172 symbol v0-recv;
#X msg 134 223 symbol v1-recv;
#X msg 148 269 symbol v2-recv;
#X msg 171 330 symbol v3-recv;
#X msg 184 382 symbol v4-recv;
#X msg 208 440 symbol v5-recv;
#X msg 223 517 symbol v6-recv;
#X msg 239 586 symbol v7-recv;
#X msg 399 170 symbol v8-recv;
#X msg 410 221 symbol v9-recv;
#X msg 427 268 symbol v10-recv;
#X msg 450 328 symbol v11-recv;
#X msg 463 380 symbol v12-recv;
#X msg 486 438 symbol v13-recv;
#X msg 502 515 symbol v14-recv;
#X msg 519 584 symbol v15-recv;
#X floatatom 90 98 5 0 0 0 - - -;
#X obj 91 120 t f;
#X floatatom 139 98 5 0 0 0 - - -;
#X obj 140 120 t f;
#X floatatom 176 96 5 0 0 0 - - -;
#X obj 177 118 t f;
#X floatatom 219 95 5 0 0 0 - - -;
#X obj 220 117 t f;
#X floatatom 262 93 5 0 0 0 - - -;
#X obj 263 115 t f;
#X floatatom 300 92 5 0 0 0 - - -;
#X obj 301 114 t f;
#X floatatom 349 85 5 0 0 0 - - -;
#X obj 350 107 t f;
#X floatatom 393 82 5 0 0 0 - - -;
#X obj 394 104 t f;
#X floatatom 442 86 5 0 0 0 - - -;
#X obj 443 108 t f;
#X floatatom 495 84 5 0 0 0 - - -;
#X obj 496 106 t f;
#X floatatom 542 82 5 0 0 0 - - -;
#X obj 543 104 t f;
#X floatatom 587 86 5 0 0 0 - - -;
#X obj 588 108 t f;
#X floatatom 637 89 5 0 0 0 - - -;
#X obj 638 111 t f;
#X floatatom 686 88 5 0 0 0 - - -;
#X obj 687 110 t f;
#X floatatom 739 90 5 0 0 0 - - -;
#X obj 740 112 t f;
#X floatatom 822 89 5 0 0 0 - - -;
#X obj 823 111 t f;
#X floatatom 886 87 5 0 0 0 - - -;
#X obj 887 109 t f;
#X floatatom 935 87 5 0 0 0 - - -;
#X obj 936 109 t f;
#X floatatom 972 85 5 0 0 0 - - -;
#X obj 973 107 t f;
#X floatatom 1015 84 5 0 0 0 - - -;
#X obj 1016 106 t f;
#X floatatom 1058 82 5 0 0 0 - - -;
#X obj 1059 104 t f;
#X floatatom 1096 81 5 0 0 0 - - -;
#X obj 1097 103 t f;
#X floatatom 1145 74 5 0 0 0 - - -;
#X obj 1146 96 t f;
#X floatatom 1189 71 5 0 0 0 - - -;
#X obj 1190 93 t f;
#X floatatom 1238 75 5 0 0 0 - - -;
#X obj 1239 97 t f;
#X floatatom 1291 73 5 0 0 0 - - -;
#X obj 1292 95 t f;
#X floatatom 1338 71 5 0 0 0 - - -;
#X obj 1339 93 t f;
#X floatatom 1383 75 5 0 0 0 - - -;
#X obj 1384 97 t f;
#X floatatom 1433 78 5 0 0 0 - - -;
#X obj 1434 100 t f;
#X floatatom 1482 77 5 0 0 0 - - -;
#X obj 1483 99 t f;
#X floatatom 1535 79 5 0 0 0 - - -;
#X obj 1536 101 t f;
#X floatatom 1584 80 5 0 0 0 - - -;
#X obj 1585 102 t f;
#X obj 851 215 s;
#X obj 866 264 s;
#X obj 880 319 s;
#X obj 900 378 s;
#X obj 914 439 s;
#X obj 936 490 s;
#X obj 954 566 s;
#X obj 971 632 s;
#X symbolatom 865 190 10 0 0 0 - - -;
#X symbolatom 881 242 10 0 0 0 - - -;
#X symbolatom 919 354 10 0 0 0 - - -;
#X symbolatom 896 293 10 0 0 0 - - -;
#X symbolatom 933 410 10 0 0 0 - - -;
#X symbolatom 953 465 10 0 0 0 - - -;
#X symbolatom 969 541 10 0 0 0 - - -;
#X symbolatom 987 610 10 0 0 0 - - -;
#X obj 1130 213 s;
#X obj 1145 262 s;
#X obj 1159 317 s;
#X obj 1179 376 s;
#X obj 1193 437 s;
#X obj 1215 488 s;
#X obj 1233 564 s;
#X obj 1249 633 s;
#X symbolatom 1144 188 10 0 0 0 - - -;
#X symbolatom 1160 240 10 0 0 0 - - -;
#X symbolatom 1198 352 10 0 0 0 - - -;
#X symbolatom 1175 291 10 0 0 0 - - -;
#X symbolatom 1212 408 10 0 0 0 - - -;
#X symbolatom 1232 463 10 0 0 0 - - -;
#X symbolatom 1248 539 10 0 0 0 - - -;
#X symbolatom 1266 608 10 0 0 0 - - -;
#X msg 866 169 symbol v16-recv;
#X msg 881 220 symbol v17-recv;
#X msg 909 266 symbol v18-recv;
#X msg 919 327 symbol v19-recv;
#X msg 931 379 symbol v20-recv;
#X msg 955 438 symbol v21-recv;
#X msg 970 514 symbol v22-recv;
#X msg 987 583 symbol v23-recv;
#X msg 1145 167 symbol v24-recv;
#X msg 1160 218 symbol v25-recv;
#X msg 1174 265 symbol v26-recv;
#X msg 1196 325 symbol v27-recv;
#X msg 1209 377 symbol v28-recv;
#X msg 1234 436 symbol v29-recv;
#X msg 1249 512 symbol v30-recv;
#X msg 1265 581 symbol v31-recv;
#X obj 89 77 r v0;
#X obj 138 77 r v1;
#X obj 175 75 r v2;
#X obj 218 74 r v3;
#X obj 261 72 r v4;
#X obj 299 71 r v5;
#X obj 348 64 r v6;
#X obj 393 61 r v7;
#X obj 441 65 r v8;
#X obj 494 63 r v9;
#X obj 541 61 r v10;
#X obj 586 65 r v11;
#X obj 636 68 r v12;
#X obj 685 67 r v13;
#X obj 738 69 r v14;
#X obj 822 68 r v15;
#X obj 885 66 r v16;
#X obj 934 66 r v17;
#X obj 971 64 r v18;
#X obj 1014 63 r v19;
#X obj 1057 61 r v20;
#X obj 1093 60 r v21;
#X obj 1144 53 r v22;
#X obj 1188 50 r v23;
#X obj 1237 54 r v24;
#X obj 1290 52 r v25;
#X obj 1337 50 r v26;
#X obj 1382 54 r v27;
#X obj 1431 57 r v28;
#X obj 1481 56 r v29;
#X obj 1534 58 r v30;
#X obj 1583 59 r v31;
#X connect 8 0 0 1;
#X connect 9 0 1 1;
#X connect 10 0 3 1;
#X connect 11 0 2 1;
#X connect 12 0 4 1;
#X connect 13 0 5 1;
#X connect 14 0 6 1;
#X connect 15 0 7 1;
#X connect 24 0 16 1;
#X connect 25 0 17 1;
#X connect 26 0 19 1;
#X connect 27 0 18 1;
#X connect 28 0 20 1;
#X connect 29 0 21 1;
#X connect 30 0 22 1;
#X connect 31 0 23 1;
#X connect 32 0 34 0;
#X connect 32 0 49 0;
#X connect 32 0 48 0;
#X connect 32 0 47 0;
#X connect 32 0 41 0;
#X connect 32 0 40 0;
#X connect 32 0 39 0;
#X connect 32 0 46 0;
#X connect 32 0 45 0;
#X connect 32 0 38 0;
#X connect 32 0 37 0;
#X connect 32 0 36 0;
#X connect 32 0 44 0;
#X connect 32 0 43 0;
#X connect 32 0 35 0;
#X connect 32 0 42 0;
#X connect 32 0 146 0;
#X connect 32 0 152 0;
#X connect 32 0 151 0;
#X connect 32 0 150 0;
#X connect 32 0 153 0;
#X connect 32 0 161 0;
#X connect 32 0 160 0;
#X connect 32 0 159 0;
#X connect 32 0 158 0;
#X connect 32 0 157 0;
#X connect 32 0 156 0;
#X connect 32 0 149 0;
#X connect 32 0 148 0;
#X connect 32 0 147 0;
#X connect 32 0 155 0;
#X connect 32 0 154 0;
#X connect 33 0 32 0;
#X connect 34 0 8 0;
#X connect 35 0 9 0;
#X connect 36 0 11 0;
#X connect 37 0 10 0;
#X connect 38 0 12 0;
#X connect 39 0 13 0;
#X connect 40 0 14 0;
#X connect 41 0 15 0;
#X connect 42 0 24 0;
#X connect 43 0 25 0;
#X connect 44 0 27 0;
#X connect 45 0 26 0;
#X connect 46 0 28 0;
#X connect 47 0 29 0;
#X connect 48 0 30 0;
#X connect 49 0 31 0;
#X connect 50 0 51 0;
#X connect 51 0 0 0;
#X connect 52 0 53 0;
#X connect 53 0 1 0;
#X connect 54 0 55 0;
#X connect 55 0 2 0;
#X connect 56 0 57 0;
#X connect 57 0 3 0;
#X connect 58 0 59 0;
#X connect 59 0 4 0;
#X connect 60 0 61 0;
#X connect 61 0 5 0;
#X connect 62 0 63 0;
#X connect 63 0 6 0;
#X connect 64 0 65 0;
#X connect 65 0 7 0;
#X connect 66 0 67 0;
#X connect 67 0 16 0;
#X connect 68 0 69 0;
#X connect 69 0 17 0;
#X connect 70 0 71 0;
#X connect 71 0 18 0;
#X connect 72 0 73 0;
#X connect 73 0 19 0;
#X connect 74 0 75 0;
#X connect 75 0 20 0;
#X connect 76 0 77 0;
#X connect 77 0 21 0;
#X connect 78 0 79 0;
#X connect 79 0 22 0;
#X connect 80 0 81 0;
#X connect 81 0 23 0;
#X connect 82 0 83 0;
#X connect 83 0 114 0;
#X connect 84 0 85 0;
#X connect 85 0 115 0;
#X connect 86 0 87 0;
#X connect 87 0 116 0;
#X connect 88 0 89 0;
#X connect 89 0 117 0;
#X connect 90 0 91 0;
#X connect 91 0 118 0;
#X connect 92 0 93 0;
#X connect 93 0 119 0;
#X connect 94 0 95 0;
#X connect 95 0 120 0;
#X connect 96 0 97 0;
#X connect 97 0 121 0;
#X connect 98 0 99 0;
#X connect 99 0 130 0;
#X connect 100 0 101 0;
#X connect 101 0 131 0;
#X connect 102 0 103 0;
#X connect 103 0 132 0;
#X connect 104 0 105 0;
#X connect 105 0 133 0;
#X connect 106 0 107 0;
#X connect 107 0 134 0;
#X connect 108 0 109 0;
#X connect 109 0 135 0;
#X connect 110 0 111 0;
#X connect 111 0 136 0;
#X connect 112 0 113 0;
#X connect 113 0 137 0;
#X connect 122 0 114 1;
#X connect 123 0 115 1;
#X connect 124 0 117 1;
#X connect 125 0 116 1;
#X connect 126 0 118 1;
#X connect 127 0 119 1;
#X connect 128 0 120 1;
#X connect 129 0 121 1;
#X connect 138 0 130 1;
#X connect 139 0 131 1;
#X connect 140 0 133 1;
#X connect 141 0 132 1;
#X connect 142 0 134 1;
#X connect 143 0 135 1;
#X connect 144 0 136 1;
#X connect 145 0 137 1;
#X connect 146 0 122 0;
#X connect 147 0 123 0;
#X connect 148 0 125 0;
#X connect 149 0 124 0;
#X connect 150 0 126 0;
#X connect 151 0 127 0;
#X connect 152 0 128 0;
#X connect 153 0 129 0;
#X connect 154 0 138 0;
#X connect 155 0 139 0;
#X connect 156 0 141 0;
#X connect 157 0 140 0;
#X connect 158 0 142 0;
#X connect 159 0 143 0;
#X connect 160 0 144 0;
#X connect 161 0 145 0;
#X connect 162 0 50 0;
#X connect 163 0 52 0;
#X connect 164 0 54 0;
#X connect 165 0 56 0;
#X connect 166 0 58 0;
#X connect 167 0 60 0;
#X connect 168 0 62 0;
#X connect 169 0 64 0;
#X connect 170 0 66 0;
#X connect 171 0 68 0;
#X connect 172 0 70 0;
#X connect 173 0 72 0;
#X connect 174 0 74 0;
#X connect 175 0 76 0;
#X connect 176 0 78 0;
#X connect 177 0 80 0;
#X connect 178 0 82 0;
#X connect 179 0 84 0;
#X connect 180 0 86 0;
#X connect 181 0 88 0;
#X connect 182 0 90 0;
#X connect 183 0 92 0;
#X connect 184 0 94 0;
#X connect 185 0 96 0;
#X connect 186 0 98 0;
#X connect 187 0 100 0;
#X connect 188 0 102 0;
#X connect 189 0 104 0;
#X connect 190 0 106 0;
#X connect 191 0 108 0;
#X connect 192 0 110 0;
#X connect 193 0 112 0;
#X restore 309 521 pd OBSetPatternVelStates;
#X f 79;
#X obj 309 475 t f f;
#X obj 120 412 s selpadnum;
#X connect 1 0 3 0;
#X connect 1 0 72 0;
#X connect 1 0 56 0;
#X connect 3 0 2 0;
#X connect 4 0 7 0;
#X connect 5 0 6 0;
#X connect 8 0 9 0;
#X connect 9 0 33 0;
#X connect 10 0 11 0;
#X connect 10 0 12 1;
#X connect 12 0 1 0;
#X connect 13 0 12 0;
#X connect 30 0 10 0;
#X connect 31 0 5 0;
#X connect 32 0 4 0;
#X connect 33 0 1 0;
#X connect 33 1 5 0;
#X connect 33 2 35 0;
#X connect 34 0 53 0;
#X connect 35 0 4 0;
#X connect 52 1 71 0;
#X connect 53 0 52 0;
#X connect 54 0 13 0;
#X connect 55 0 34 0;
#X connect 56 0 55 0;
#X connect 56 1 53 1;
#X connect 58 0 57 1;
#X connect 59 0 60 0;
#X connect 60 0 57 0;
#X connect 61 0 58 0;
#X connect 65 0 64 1;
#X connect 66 0 67 0;
#X connect 67 0 64 0;
#X connect 68 0 65 0;
#X connect 71 0 70 0;
#X connect 71 1 69 0;
#X coords 0 -1 1 1 546 50 2 0 0;
#X restore 334 6 pd OBSeqSteps \$1;
#X obj 210 18 hsl 40 10 0 127 0 0 \$1-fadeoutdur-send \$1-fadeoutdur-recv
empty -2 -8 0 10 -162280 -1 -1 0 1;
#X obj 210 32 hsl 40 10 0 127 0 0 \$1-fadeoutdur-send \$1-fadeoutdur-recv
empty -2 -8 0 10 -162280 -1 -1 0 1;
#X obj 210 46 hsl 40 10 0 127 0 0 \$1-fadeoutdur-send \$1-fadeoutdur-recv
empty -2 -8 0 10 -162280 -1 -1 0 1;
#X obj 209 5 cnv 10 40 10 efflbl-send efflbl-recv Effects 3 7 0 9 -195568
-1 0;
#X text 665 106 Play;
#X obj 124 71 loadbang;
#X obj 154 128 \$1;
#X obj 182 179 +;
#X obj 181 71 r bank;
#X obj 225 71 r perbank;
#X obj 182 122 *;
#X obj 182 149 t b f;
#X obj 225 98 s \$1-bank-recv;
#X msg 225 125 midibank \$1;
#X msg 154 149 \$1;
#X obj 221 221 s seqid-\$1;
#X obj 183 201 \$1;
#X msg 182 224 \$1;
#X obj 67 69 r padnum;
#X floatatom 67 95 5 0 0 0 - - -;
#X obj 67 117 t f;
#X floatatom 219 181 5 0 0 0 - - -;
#X obj 674 127 inlet;
#X obj 738 118 inlet;
#X obj 221 200 t f;
#X connect 2 0 5 0;
#X connect 5 0 6 0;
#X connect 6 0 8 0;
#X connect 7 0 5 0;
#X connect 20 0 21 0;
#X connect 20 0 7 0;
#X connect 21 0 29 0;
#X connect 22 0 31 0;
#X connect 23 0 25 0;
#X connect 23 0 27 0;
#X connect 23 0 28 0;
#X connect 24 0 25 1;
#X connect 25 0 26 0;
#X connect 26 0 22 0;
#X connect 26 1 22 1;
#X connect 29 0 22 0;
#X connect 31 0 32 0;
#X connect 32 0 36 0;
#X connect 33 0 34 0;
#X connect 34 0 35 0;
#X connect 35 0 21 0;
#X connect 36 0 39 0;
#X connect 37 0 14 0;
#X connect 38 0 14 1;
#X connect 39 0 30 0;
#X coords 0 -1 1 1 882 62 2 0 0;
