#N canvas 764 80 1141 717 10;
#X obj 32 23 inlet;
#X obj 188 10 inlet;
#X obj 249 10 inlet;
#X obj 118 575 outlet;
#X obj 256 568 outlet;
#X obj 33 80 s \$0-ox;
#X obj 155 78 s \$0-oy;
#X obj 251 86 s \$0-angle;
#X obj 322 86 s \$0-cx;
#X obj 377 86 s \$0-cy;
#X obj 147 236 r \$0-angle;
#X obj 148 260 sin;
#X obj 118 157 r \$0-angle;
#X obj 118 229 *;
#X obj 118 182 cos;
#X obj 98 360 -;
#X obj 133 202 r \$0-ox;
#X obj 118 329 *;
#X obj 153 294 r \$0-oy;
#X obj 118 438 +;
#X obj 146 375 r \$0-cx;
#X obj 279 230 r \$0-angle;
#X obj 250 151 r \$0-angle;
#X obj 250 223 *;
#X obj 265 196 r \$0-ox;
#X obj 250 323 *;
#X obj 285 288 r \$0-oy;
#X obj 250 432 +;
#X obj 250 176 sin;
#X obj 278 369 r \$0-cy;
#X obj 280 254 cos;
#X obj 234 355 +;
#X obj 33 49 -;
#X obj 75 48 r \$0-cx;
#X obj 186 34 r \$0-cy;
#X obj 163 51 -;
#X obj 118 471 int;
#X obj 256 466 int;
#X obj 253 54 unpack f f f;
#X connect 0 0 32 0;
#X connect 1 0 35 0;
#X connect 2 0 38 0;
#X connect 10 0 11 0;
#X connect 11 0 17 0;
#X connect 12 0 14 0;
#X connect 13 0 15 0;
#X connect 14 0 13 0;
#X connect 15 0 19 0;
#X connect 16 0 13 1;
#X connect 17 0 15 1;
#X connect 18 0 17 1;
#X connect 19 0 36 0;
#X connect 20 0 19 1;
#X connect 21 0 30 0;
#X connect 22 0 28 0;
#X connect 23 0 31 0;
#X connect 24 0 23 1;
#X connect 25 0 31 1;
#X connect 26 0 25 1;
#X connect 27 0 37 0;
#X connect 28 0 23 0;
#X connect 29 0 27 1;
#X connect 30 0 25 0;
#X connect 31 0 27 0;
#X connect 32 0 5 0;
#X connect 33 0 32 1;
#X connect 34 0 35 1;
#X connect 35 0 6 0;
#X connect 36 0 3 0;
#X connect 37 0 4 0;
#X connect 38 0 7 0;
#X connect 38 1 8 0;
#X connect 38 2 9 0;
